<svg xmlns="http://www.w3.org/2000/svg" viewBox="0 0 107.72 24.39">
  <defs>
    <linearGradient id="bbrainbow" x1="100%" y1="100%">
      <stop offset="0%" stop-color="lightblue" stop-opacity=".5">
        <animate attributeName="stop-color" values="#dc1374;#2800d8;#dc1374" dur="5s"
          repeatCount="indefinite" />
      </stop>
      <stop offset="75%" stop-color="lightblue" stop-opacity=".5">
        <animate attributeName="stop-color" values="#2800d8;#dc1374;#2800d8"
          dur="5s" repeatCount="indefinite" />
      </stop>
      <stop offset="100%" stop-color="lightblue" stop-opacity=".5">
        <animate attributeName="stop-color" values="#2800d8;#dc1374;#2800d8"
          dur="5s" repeatCount="indefinite" />
      </stop>
    </linearGradient>
    <style>
      .bloombergColor1 {
        fill: #fff;
      }
    </style>
  </defs>
  <title>Bloomberg Logo</title>
  <g id="Layer_2" data-name="Layer 2">
    <g id="Layer_1-2" data-name="Layer 1">
      <g id="mlxfXf.tif">
        <g>
          <path
            d="M0,24.39V0H107.72V24.39ZM9.16,10.44l.2-.09A2.65,2.65,0,0,0,11.1,7.7,2.72,2.72,0,0,0,9.27,5,5.09,5.09,0,0,0,7.63,4.7c-1.31-.05-2.61,0-3.92,0H2.56V17a2.72,2.72,0,0,0,.29,0C4.47,17,6.1,17,7.72,17a4.73,4.73,0,0,0,2.5-.75,3.19,3.19,0,0,0,.35-5A8.39,8.39,0,0,0,9.16,10.44Zm74.5-.66C81.74,8.1,79.47,8,77.92,9.53a4.83,4.83,0,0,0-.31,6.17,4,4,0,0,0,6,.25c-.06.64-.07,1.13-.15,1.61a2,2,0,0,1-1.8,1.74,3.83,3.83,0,0,1-3-.69L78,18.17l-1.23,1.7c.13.12.22.2.32.27a6.45,6.45,0,0,0,5,1,3.69,3.69,0,0,0,3.18-2.8,7.3,7.3,0,0,0,.28-1.87c0-2.47,0-4.95,0-7.42,0-.12,0-.24,0-.37h-2ZM44.39,17c0-.23,0-.42,0-.61,0-1.41,0-2.83,0-4.24a1.81,1.81,0,0,1,1.15-1.75A1.53,1.53,0,0,1,47.68,12c0,1.48,0,3,0,4.45,0,.19,0,.37,0,.56H49.8c0-.9,0-1.77,0-2.63,0-1.13,0-2.26-.11-3.38a2.63,2.63,0,0,0-2.57-2.54A3,3,0,0,0,44,10a2.57,2.57,0,0,0-2.51-1.52,2.89,2.89,0,0,0-2.62,1.32c0-.29,0-.53-.06-.77s-.14-.32-.22-.33c-.58,0-1.15,0-1.72,0v8.42H38c1,0,1,0,1-1,0-1.36,0-2.72,0-4.08a1.75,1.75,0,0,1,1.9-1.67q1.37.06,1.37,1.77c0,1,0,2,0,3.07,0,.61,0,1.22,0,1.85ZM51.53,4.39V17h1.92V15.94c.08,0,.13,0,.15,0,1.09,1.74,4.46,1.77,5.92-.15a4.82,4.82,0,0,0,.77-4.32,3.9,3.9,0,0,0-6.54-2s-.1.05-.22.11V4.39Zm-35,8.46A4.36,4.36,0,0,0,21,17.27a4.42,4.42,0,1,0,0-8.84A4.37,4.37,0,0,0,16.51,12.85Zm19.09,0A4.38,4.38,0,0,0,31,8.43a4.42,4.42,0,1,0,.05,8.84A4.36,4.36,0,0,0,35.6,12.83Zm34.25.76c0-.41,0-.75,0-1.08a4.35,4.35,0,0,0-1.57-3.34,4.49,4.49,0,0,0-5,0,4.47,4.47,0,1,0,6.18,6.36L68,14.45a2.69,2.69,0,0,1-3.23.92,2,2,0,0,1-1.25-1.78ZM13,4.38V17h2V4.38ZM73.3,8.67h-2V17h2c0-.33,0-.61,0-.89,0-1.29,0-2.58.07-3.87A1.82,1.82,0,0,1,75,10.52a10.44,10.44,0,0,1,1.5,0v-2a2.83,2.83,0,0,0-3.2,1.39Z" />
          <path fill="url(#bbrainbow)"
            d="M9.16,10.44a8.39,8.39,0,0,1,1.41.79,3.19,3.19,0,0,1-.35,5,4.73,4.73,0,0,1-2.5.75c-1.62,0-3.25,0-4.87.06a2.72,2.72,0,0,1-.29,0V4.68H3.71c1.31,0,2.62,0,3.92,0A5.09,5.09,0,0,1,9.27,5,2.72,2.72,0,0,1,11.1,7.7a2.65,2.65,0,0,1-1.74,2.65Zm-4.38,1.1v3.71c1.17-.1,2.31-.11,3.41-.31.91-.16,1.28-.85,1.22-1.83A1.44,1.44,0,0,0,8,11.71C6.95,11.6,5.87,11.59,4.78,11.54Zm0-1.8c1-.06,2-.05,3-.21A1.3,1.3,0,0,0,8.88,8.07,1.27,1.27,0,0,0,7.72,6.72c-1-.14-2-.14-3-.2Z" />
          <path class="bloombergColor1"
            d="M83.65,9.78V8.67h2c0,.13,0,.25,0,.37,0,2.47,0,4.95,0,7.42a7.3,7.3,0,0,1-.28,1.87,3.69,3.69,0,0,1-3.18,2.8,6.45,6.45,0,0,1-5-1c-.1-.07-.19-.16-.32-.27L78,18.17l.59.44a3.83,3.83,0,0,0,3,.69,2,2,0,0,0,1.8-1.74c.08-.47.09-1,.15-1.61a4,4,0,0,1-6-.25,4.83,4.83,0,0,1,.31-6.17C79.47,8,81.74,8.1,83.65,9.78Zm0,3a2.33,2.33,0,0,0-2.43-2.49,2.37,2.37,0,0,0-2.47,2.47,2.41,2.41,0,0,0,2.42,2.48A2.36,2.36,0,0,0,83.65,12.82Z" />
          <path class="bloombergColor1"
            d="M44.39,17H42.28c0-.62,0-1.24,0-1.85,0-1,0-2,0-3.07s-.46-1.73-1.37-1.77A1.75,1.75,0,0,0,39,12c-.07,1.36,0,2.72,0,4.08,0,1,0,1-1,1H36.91V8.65c.57,0,1.15,0,1.72,0,.08,0,.21.2.22.33s0,.48.06.77a2.89,2.89,0,0,1,2.62-1.32A2.57,2.57,0,0,1,44,10a3,3,0,0,1,3.09-1.5A2.63,2.63,0,0,1,49.69,11c.11,1.12.09,2.26.11,3.38,0,.86,0,1.73,0,2.63H47.72c0-.19,0-.37,0-.56,0-1.48,0-3,0-4.45a1.53,1.53,0,0,0-2.13-1.58,1.81,1.81,0,0,0-1.15,1.75c0,1.41,0,2.83,0,4.24C44.39,16.61,44.39,16.8,44.39,17Z" />
          <path class="bloombergColor1"
            d="M51.53,4.39h2V9.64c.12-.06.19-.07.22-.11a3.9,3.9,0,0,1,6.54,2,4.82,4.82,0,0,1-.77,4.32c-1.46,1.92-4.83,1.89-5.92.15,0,0-.06,0-.15,0V17H51.53Zm2,8.47A2.41,2.41,0,0,0,56,15.38a2.53,2.53,0,0,0,0-5A2.42,2.42,0,0,0,53.51,12.87Z" />
          <path class="bloombergColor1"
            d="M16.51,12.85a4.37,4.37,0,0,1,4.54-4.42,4.42,4.42,0,1,1,0,8.84A4.36,4.36,0,0,1,16.51,12.85Zm2.11,0a2.41,2.41,0,0,0,2.44,2.51,2.53,2.53,0,0,0,0-5A2.42,2.42,0,0,0,18.62,12.87Z" />
          <path class="bloombergColor1"
            d="M35.6,12.83a4.36,4.36,0,0,1-4.52,4.45A4.42,4.42,0,1,1,31,8.43,4.38,4.38,0,0,1,35.6,12.83Zm-2.11,0a2.42,2.42,0,0,0-2.43-2.52,2.53,2.53,0,0,0,0,5A2.42,2.42,0,0,0,33.49,12.85Z" />
          <path class="bloombergColor1"
            d="M69.85,13.59H63.52a2,2,0,0,0,1.25,1.78A2.69,2.69,0,0,0,68,14.45l1.48,1.12a4.49,4.49,0,1,1-6.18-6.36,4.49,4.49,0,0,1,5,0,4.35,4.35,0,0,1,1.57,3.34C69.88,12.84,69.85,13.18,69.85,13.59ZM67.71,12a1.85,1.85,0,0,0-2-2,2,2,0,0,0-2.19,2Z" />
          <path class="bloombergColor1" d="M13,4.38h2V17H13Z" />
          <path class="bloombergColor1"
            d="M73.3,8.67V9.93a2.83,2.83,0,0,1,3.2-1.39v2a10.44,10.44,0,0,0-1.5,0,1.82,1.82,0,0,0-1.64,1.74c-.08,1.29-.05,2.58-.07,3.87,0,.28,0,.56,0,.89h-2V8.67Z" />
          <path
            d="M4.78,11.54c1.09.05,2.17.06,3.23.17a1.44,1.44,0,0,1,1.39,1.41c.06,1-.31,1.67-1.22,1.83-1.1.2-2.23.21-3.41.31Z" />
          <path
            d="M4.76,9.74V6.52c1,.06,2,.06,3,.2A1.27,1.27,0,0,1,8.88,8.07,1.3,1.3,0,0,1,7.78,9.53C6.8,9.69,5.79,9.68,4.76,9.74Z" />
          <path
            d="M83.65,12.82a2.36,2.36,0,0,1-2.47,2.46,2.41,2.41,0,0,1-2.42-2.48,2.37,2.37,0,0,1,2.47-2.47A2.33,2.33,0,0,1,83.65,12.82Z" />
          <path d="M53.51,12.87a2.42,2.42,0,0,1,2.42-2.54,2.53,2.53,0,0,1,0,5A2.41,2.41,0,0,1,53.51,12.87Z" />
          <path d="M18.62,12.87A2.42,2.42,0,0,1,21,10.33a2.53,2.53,0,0,1,0,5A2.41,2.41,0,0,1,18.62,12.87Z" />
          <path d="M33.49,12.85a2.42,2.42,0,0,1-2.43,2.53,2.53,2.53,0,0,1,0-5A2.42,2.42,0,0,1,33.49,12.85Z" />
          <path d="M67.71,12H63.56a2,2,0,0,1,2.19-2A1.85,1.85,0,0,1,67.71,12Z" />
        </g>
      </g>
    </g>
  </g>
</svg>