<svg xmlns="http://www.w3.org/2000/svg" xmlns:xlink="http://www.w3.org/1999/xlink" viewBox="0 0 140.84 135.76">
  <defs>
    <style>
      .cls-1 {
        fill: #000;
      }

      .cls-2 {
        clip-path: url(#clip-path);
      }

      .cls-3 {
        fill: #fff;
      }
    </style>
    <clipPath id="clip-path">
      <rect class="cls-1" x="14.05" y="18.49" width="118.14" height="100.15"/>
    </clipPath>
  </defs>
  <title>Asset 4</title>
  <g id="Layer_2" data-name="Layer 2">
    <g id="Layer_1-2" data-name="Layer 1">
      <g>
        <rect class="cls-1" x="14.05" y="18.49" width="118.14" height="100.15"/>
        <g class="cls-2">
          <g id="YBNOp2.tif">
            <g>
              <path class="cls-3" d="M5.39,135.76V0H140.84V135.76ZM89.65,78.17c.4-.44.73-.78,1-1.14l3.47-4a.86.86,0,0,1,1.43-.1,4.53,4.53,0,0,1,.47.39c.48.6.86.41,1.27-.08.73-.87,1.48-1.73,2.23-2.58.53-.6.77-.61,1.38-.07l.33.31c.72.63.92.62,1.53-.13.79-1,1.05-1,2-.2s.91.74,1.67-.2l.09-.12c.57-.69,1-.7,1.65-.11L116.29,77q2.16,1.86,4.29,3.74c.61.54.6.86.06,1.47a2.89,2.89,0,0,1-.37.38c-.58.46-.45.84.07,1.26,1.32,1.1,2.62,2.22,3.93,3.34s1.33,1.17.18,2.43c-.46.5-.36.8.09,1.17.72.6,1.44,1.2,2.13,1.83,1.12,1,1.14,1.08.08,2.15-.53.54-.46.9.08,1.35q2.13,1.77,4.2,3.6c.43.38.7.29.93-.19.31-.64.66-1.25.93-1.9,1.31-3.13,2.78-6.22,3.84-9.43a91.92,91.92,0,0,0,2.16-9,52.85,52.85,0,0,0,1-10.54,58.14,58.14,0,0,0-1-12.52c-.42-2.1-.76-4.23-1.36-6.27-.78-2.63-1.71-5.22-2.7-7.78a59.5,59.5,0,0,0-5.95-11.22A66.17,66.17,0,0,0,115.08,15.8a54.67,54.67,0,0,0-9.69-6.48c-3-1.51-6.08-3-9.2-4.23A47,47,0,0,0,89.33,3a68.36,68.36,0,0,0-7.52-1.31A71.14,71.14,0,0,0,73.2,1a74.58,74.58,0,0,0-8.83.67A59,59,0,0,0,56.71,3a81.89,81.89,0,0,0-8.18,2.68,59.41,59.41,0,0,0-14.26,7.76c-1.85,1.36-3.6,2.86-5.4,4.29-.44.35-.55.65,0,1.07S30,20,30.61,20.48c2.93,2.22,5.78,4.56,9.2,6.09a29.57,29.57,0,0,1,4.35,2.87c2.86,2,5.72,3.91,8.54,5.91a4,4,0,0,1,1.17,1.45,27.31,27.31,0,0,0,1.21,2.92,33.65,33.65,0,0,0,3.31,4.33,38.9,38.9,0,0,1,6.85,11c.77,1.78,1.28,3.69,2.17,5.4A43,43,0,0,1,70,67.91a2.08,2.08,0,0,1-.73,2.32c-1.39,1.16-2.23,1.56-3.9.12a11.19,11.19,0,0,1-2.58-3.14c-.51-1-.91-2-1.44-2.91-1.31-2.36-2.64-4.72-4-7a21.73,21.73,0,0,0-1.94-2.52c-.45-.54-1-1-1.42-1.56-.62-.89-1.13-1.86-1.72-2.76a2.08,2.08,0,0,0-1.33-1,34,34,0,0,1,.56,4.3A19.83,19.83,0,0,1,51,57.64a21.65,21.65,0,0,1-.79,2.83,2,2,0,0,1-1.62,1.45,6,6,0,0,1-4.46-.74c-1.07-.79-1.63-.59-2.55.16a3.41,3.41,0,0,1-5.05-.63l-.92-1.11c-.34-.42-.66-.55-1.13-.12a9.82,9.82,0,0,1-1.29.93A2.49,2.49,0,0,1,30,60.26a12,12,0,0,1-2-2.34c-.93-1.45-1.08-3.17-1.5-4.81a16.46,16.46,0,0,0-1-3.12A9.18,9.18,0,0,0,23.87,48C21.94,45.88,20,43.74,18,41.58c-1.38-1.54-2.72-3.1-4.11-4.68a2.28,2.28,0,0,0-.31.42c-1.26,2.94-2.64,5.84-3.73,8.85A60.68,60.68,0,0,0,7.3,56.34a59.08,59.08,0,0,0-1,10.4c0,3.25.29,6.51.59,9.75a42.28,42.28,0,0,0,1,6.12,72.47,72.47,0,0,0,2.29,7.67,82.32,82.32,0,0,0,3.43,8.06,60.06,60.06,0,0,0,6.66,10.47,68.11,68.11,0,0,0,9.93,10.31,67.16,67.16,0,0,0,9.36,6.56,62.6,62.6,0,0,0,12.12,5.47c2.18.71,4.39,1.31,6.61,1.87a42.1,42.1,0,0,0,4.68.89c1.85.25,3.73.29,5.58.54a50.64,50.64,0,0,0,12-.22,67.46,67.46,0,0,0,8.18-1.48,59.28,59.28,0,0,0,7.39-2.17,85.2,85.2,0,0,0,7.88-3.5,61.65,61.65,0,0,0,12.09-8c.43-.36.51-.63,0-1-2.66-2.26-5.3-4.54-8-6.8-1.21-1-1.24-1-2.31.09a.85.85,0,0,1-1.37.09c-.62-.55-1.28-1.07-1.9-1.63-1.23-1.1-1.25-1.12-2.27.15A.8.8,0,0,1,99,110c-.65-.57-1.28-1.15-1.94-1.7-1.39-1.17-1.13-1.19-2.17.07-.52.63-.93.64-1.55.12s-1.24-1-1.85-1.57c-1.13-1-1.13-1-2.2.1-.59.61-.83.61-1.47.07-1.24-1.05-1-1-2,.14l-.15.17a.77.77,0,0,1-1.2.09l-5-4.28a.8.8,0,0,1,0-1.31c1.28-1.46,2.55-2.94,3.82-4.42.87-1,1.07-1,2.06-.16.13.12.27.22.42.33.69.51.84-.26,1.18-.52a.5.5,0,0,0,0-.88l-1.37-1.2L75.38,86.4,70.49,82.2A.75.75,0,0,1,70.41,81c1-1.11,1-1.14-.15-2.17a.91.91,0,0,1-.09-1.49c.58-.64,1.15-1.28,1.71-1.94,1.24-1.47,1.24-1.49,2.73-.32.34.27.62.31.9-.06.14-.18.31-.34.46-.51.63-.72.87-.76,1.62-.12,2.1,1.79,4.2,3.57,6.27,5.39.47.42.79.42,1.19-.05.7-.83,1.42-1.64,2.13-2.47a.85.85,0,0,1,1.38-.06Zm9.95,5.35c-.38.48-.71.92-1.05,1.34-.77.94-.95.94-1.88.14l-6.28-5.38c-.35-.3-.67-.47-1,0-.64.75-1.28,1.5-1.93,2.25a.65.65,0,0,0,.08,1.08c1.84,1.54,3.66,3.11,5.5,4.66,1.65,1.39,1.63,1.36.23,3-.51.61-.9.57-1.44.1-1.08-1-2.17-1.89-3.27-2.83l-8.12-7c-1.52-1.3-3-2.59-4.54-3.91-.46-.4-.82-.49-1.24.07s-1,1.24-1.56,1.86c-.68.8-.67.85.14,1.54l4.91,4.18,10.48,9c2.55,2.19,5.12,4.36,7.65,6.57,1.34,1.17,1.3,1.27.05,2.6-.71.76-1,.76-1.76.08q-1.94-1.7-3.89-3.39c-.88-.75-.89-.74-1.64.11s-1,1-2,.14a2.43,2.43,0,0,1-.22-.2c-.39-.42-.74-.43-1.12,0-.62.77-1.27,1.51-1.92,2.25a.56.56,0,0,0,0,.91c.57.51,1.12,1,1.7,1.52,1.13,1,1.14,1,2.16-.1l.21-.22a.73.73,0,0,1,1.13-.08c.41.33.87.95,1.22.89s.8-.69,1.17-1.1a.72.72,0,0,1,1.17-.06c.68.61,1.39,1.17,2.07,1.78,1.12,1,1.12,1,2.12-.11.47-.54.93-.65,1.49-.15s1.15,1,1.72,1.48c1.29,1.09,1.3,1.1,2.46-.06a.85.85,0,0,1,1.37-.06c.82.75,1.69,1.45,2.51,2.2.38.35.69.37,1,0l.44-.52c.58-.7,1-.73,1.65-.14l9,7.72c.66.57.89.58,1.52-.08,1.26-1.32,2.58-2.59,3.7-4,2.07-2.61,4-5.32,6-8,.36-.48.25-.77-.18-1.13q-2.21-1.85-4.37-3.75c-1.4-1.23-1.4-1.26-.18-2.66.35-.4.25-.64-.1-.93-.62-.51-1.22-1.06-1.85-1.57-1.67-1.34-1.62-1.43-.35-2.71.39-.39.31-.69-.12-1-1.52-1.26-3-2.57-4.5-3.84-.52-.44-.63-.89-.14-1.42.17-.19.3-.41.49-.58.49-.44.37-.74-.11-1.15-2.43-2.06-4.82-4.16-7.24-6.24-1.53-1.32-3.09-2.62-4.62-3.93-.33-.28-.63-.44-1,0-1.08,1.47-1.37,1.44-2.73.19,0,0-.08-.09-.12-.09-.2,0-.47-.07-.6,0-1.08.81-1.09,1.19-.09,2.09l.46.39c1.28,1.1,2.61,2.16,3.83,3.33.67.64.64.56-.55,2-.38.45-.76,1-1.44.46-.24-.18-.47-.38-.7-.58-2-1.7-4-3.39-5.91-5.1-.49-.43-.82-.51-1.27.1a22.38,22.38,0,0,1-1.91,2.25c-.46.48-.35.79.11,1.17,1.57,1.31,3.12,2.65,4.67,4A4.7,4.7,0,0,1,99.6,83.51Z"/>
              <path d="M89.65,78.17l-1.09-1a.85.85,0,0,0-1.38.06c-.71.82-1.43,1.63-2.13,2.47-.4.47-.72.47-1.19.05-2.07-1.82-4.17-3.61-6.27-5.39-.75-.64-1-.6-1.62.12-.15.17-.32.33-.46.51-.29.36-.56.32-.9.06-1.49-1.17-1.49-1.16-2.73.32-.55.66-1.13,1.3-1.71,1.94a.91.91,0,0,0,.09,1.49c1.12,1,1.11,1.06.15,2.17a.75.75,0,0,0,.08,1.23l4.89,4.21L85.51,95.1l1.37,1.2a.5.5,0,0,1,0,.88c-.35.26-.49,1-1.18.52-.14-.11-.28-.21-.42-.33-1-.87-1.2-.85-2.06.16-1.27,1.48-2.54,3-3.82,4.42a.8.8,0,0,0,0,1.31l5,4.28a.77.77,0,0,0,1.2-.09l.15-.17c1-1.11.8-1.19,2-.14.64.54.88.54,1.47-.07,1.07-1.09,1.06-1.08,2.2-.1.61.53,1.24,1,1.85,1.57s1,.51,1.55-.12c1-1.26.78-1.24,2.17-.07.66.55,1.29,1.13,1.94,1.7a.8.8,0,0,0,1.34-.13c1-1.27,1-1.25,2.27-.15.62.56,1.28,1.07,1.9,1.63a.85.85,0,0,0,1.37-.09c1.07-1.12,1.1-1.12,2.31-.09,2.66,2.26,5.3,4.54,8,6.8.46.39.38.67,0,1a61.65,61.65,0,0,1-12.09,8,85.2,85.2,0,0,1-7.88,3.5,59.28,59.28,0,0,1-7.39,2.17,67.46,67.46,0,0,1-8.18,1.48,50.64,50.64,0,0,1-12,.22c-1.85-.24-3.73-.29-5.58-.54a42.1,42.1,0,0,1-4.68-.89c-2.22-.56-4.44-1.16-6.61-1.87a62.6,62.6,0,0,1-12.12-5.47,67.16,67.16,0,0,1-9.36-6.56,68.11,68.11,0,0,1-9.93-10.31,60.06,60.06,0,0,1-6.66-10.47,82.32,82.32,0,0,1-3.43-8.06A72.47,72.47,0,0,1,7.94,82.6a42.28,42.28,0,0,1-1-6.12c-.3-3.24-.58-6.5-.59-9.75a59.08,59.08,0,0,1,1-10.4A60.68,60.68,0,0,1,9.89,46.17c1.09-3,2.47-5.91,3.73-8.85a2.28,2.28,0,0,1,.31-.42C15.31,38.48,16.66,40,18,41.58c1.94,2.16,3.9,4.3,5.84,6.46A9.18,9.18,0,0,1,25.43,50a16.46,16.46,0,0,1,1,3.12c.42,1.63.56,3.36,1.5,4.81a12,12,0,0,0,2,2.34,2.49,2.49,0,0,0,3.22.14,9.82,9.82,0,0,0,1.29-.93c.46-.43.79-.3,1.13.12l.92,1.11a3.41,3.41,0,0,0,5.05.63c.92-.75,1.48-1,2.55-.16a6,6,0,0,0,4.46.74,2,2,0,0,0,1.62-1.45A21.65,21.65,0,0,0,51,57.64a19.83,19.83,0,0,0,.53-3.89,34,34,0,0,0-.56-4.3,2.08,2.08,0,0,1,1.33,1c.6.91,1.1,1.88,1.72,2.76.4.57,1,1,1.42,1.56a21.73,21.73,0,0,1,1.94,2.52c1.39,2.32,2.71,4.67,4,7,.53.94.93,2,1.44,2.91a11.19,11.19,0,0,0,2.58,3.14c1.67,1.45,2.5,1,3.9-.12A2.08,2.08,0,0,0,70,67.91a43,43,0,0,0-2.62-7.48c-.89-1.71-1.4-3.62-2.17-5.4a38.9,38.9,0,0,0-6.85-11,33.65,33.65,0,0,1-3.31-4.33,27.31,27.31,0,0,1-1.21-2.92,4,4,0,0,0-1.17-1.45c-2.82-2-5.68-4-8.54-5.91a29.57,29.57,0,0,0-4.35-2.87c-3.42-1.53-6.26-3.87-9.2-6.09-.64-.49-1.15-1.14-1.78-1.65s-.41-.72,0-1.07c1.8-1.43,3.55-2.93,5.4-4.29A59.41,59.41,0,0,1,48.53,5.71,81.89,81.89,0,0,1,56.71,3a59,59,0,0,1,7.66-1.36A74.58,74.58,0,0,1,73.2,1a71.14,71.14,0,0,1,8.6.66A68.36,68.36,0,0,1,89.33,3,47,47,0,0,1,96.18,5.1c3.13,1.27,6.19,2.71,9.2,4.23a54.67,54.67,0,0,1,9.69,6.48,66.17,66.17,0,0,1,13.79,15.15,59.5,59.5,0,0,1,5.95,11.22c1,2.56,1.93,5.15,2.7,7.78.6,2,.94,4.17,1.36,6.27a58.14,58.14,0,0,1,1,12.52,52.85,52.85,0,0,1-1,10.54,91.92,91.92,0,0,1-2.16,9c-1.06,3.22-2.53,6.3-3.84,9.43-.27.65-.63,1.27-.93,1.9-.23.48-.5.57-.93.19q-2.08-1.82-4.2-3.6c-.54-.45-.61-.81-.08-1.35,1.05-1.07,1-1.13-.08-2.15-.69-.63-1.41-1.23-2.13-1.83-.45-.37-.55-.67-.09-1.17,1.16-1.26,1.13-1.31-.18-2.43s-2.61-2.24-3.93-3.34c-.51-.43-.65-.8-.07-1.26a2.89,2.89,0,0,0,.37-.38c.54-.62.55-.93-.06-1.47q-2.13-1.89-4.29-3.74l-8.06-6.91c-.69-.59-1.08-.58-1.65.11l-.09.12c-.76.94-.76.94-1.67.2s-1.24-.77-2,.2c-.6.74-.81.76-1.53.13l-.33-.31c-.6-.54-.85-.53-1.38.07-.75.86-1.5,1.71-2.23,2.58-.41.5-.8.68-1.27.08a4.53,4.53,0,0,0-.47-.39.86.86,0,0,0-1.43.1l-3.47,4C90.38,77.39,90,77.73,89.65,78.17Z"/>
              <path d="M99.6,83.51a4.7,4.7,0,0,0-.5-.63c-1.55-1.34-3.1-2.68-4.67-4-.46-.38-.57-.69-.11-1.17a22.38,22.38,0,0,0,1.91-2.25c.44-.61.77-.53,1.27-.1,2,1.71,3.94,3.4,5.91,5.1.23.2.46.4.7.58.68.5,1.06,0,1.44-.46,1.19-1.4,1.23-1.32.55-2-1.22-1.17-2.55-2.23-3.83-3.33l-.46-.39c-1-.9-1-1.28.09-2.09.13-.1.4,0,.6,0,0,0,.08.06.12.09,1.35,1.25,1.65,1.28,2.73-.19.32-.44.62-.27,1,0,1.54,1.32,3.09,2.61,4.62,3.93,2.42,2.08,4.81,4.18,7.24,6.24.48.4.59.71.11,1.15-.19.17-.32.39-.49.58-.49.53-.38,1,.14,1.42,1.5,1.28,3,2.59,4.5,3.84.44.36.52.66.12,1-1.27,1.28-1.33,1.37.35,2.71.63.51,1.23,1.06,1.85,1.57.35.29.45.53.1.93-1.22,1.4-1.22,1.43.18,2.66s2.9,2.52,4.37,3.75c.43.36.54.65.18,1.13-2,2.66-3.95,5.37-6,8-1.13,1.42-2.45,2.69-3.7,4-.63.66-.86.66-1.52.08l-9-7.72c-.68-.59-1.07-.56-1.65.14l-.44.52c-.33.4-.64.38-1,0-.82-.75-1.68-1.45-2.51-2.2a.85.85,0,0,0-1.37.06c-1.16,1.16-1.17,1.15-2.46.06-.58-.49-1.16-1-1.72-1.48s-1-.39-1.49.15c-1,1.14-1,1.12-2.12.11-.67-.61-1.39-1.18-2.07-1.78a.72.72,0,0,0-1.17.06c-.37.41-.73,1-1.17,1.1s-.81-.56-1.22-.89a.73.73,0,0,0-1.13.08l-.21.22c-1,1.07-1,1.08-2.16.1-.58-.49-1.13-1-1.7-1.52a.56.56,0,0,1,0-.91c.66-.74,1.31-1.48,1.92-2.25.38-.48.73-.47,1.12,0a2.43,2.43,0,0,0,.22.2c1,.85,1.12.84,2-.14s.77-.86,1.64-.11q2,1.68,3.89,3.39c.77.68,1,.67,1.76-.08,1.25-1.33,1.28-1.43-.05-2.6-2.53-2.22-5.1-4.38-7.65-6.57l-10.48-9-4.91-4.18c-.81-.69-.82-.75-.14-1.54.52-.62,1.08-1.21,1.56-1.86s.77-.48,1.24-.07c1.5,1.31,3,2.61,4.54,3.91l8.12,7c1.09.94,2.19,1.87,3.27,2.83.54.48.93.51,1.44-.1,1.4-1.66,1.42-1.62-.23-3-1.84-1.55-3.66-3.12-5.5-4.66a.65.65,0,0,1-.08-1.08c.65-.74,1.29-1.5,1.93-2.25.36-.43.68-.26,1,0L96.66,85c.93.8,1.11.8,1.88-.14C98.89,84.43,99.22,84,99.6,83.51Z"/>
            </g>
          </g>
          <path class="cls-1" d="M118.63,21.46c4,0,10.92-1.4,14.1,1.72l-.39-3a47.2,47.2,0,0,0-4.62,8.17c-.84,2.11-2.15,4.37-1.75,6.68.33,1.93,2.93,2.31,4.18,1.1,2-1.93,2.89-5.19,4.15-7.62,1.64-3.17,3.16-6.45,5.51-9.16l-4.18-2.43c-.31,1.25-4.45,4.35-5.22,5.12-2.52,2.55-5.61,6.6-8.93,8l3.67,1.49a22.07,22.07,0,0,1,2.07-2.7c1.5-2,2.92-4,4.38-6.07s3.66-3.81,3.94-6.37A2.51,2.51,0,0,0,132.38,14c-3.7,1.15-7.38,4.29-9.89,7.19-2.09,2.41,1.33,5.92,3.54,3.54,3.14-3.4,7-6,10.3-9.2,2.33-2.23-1.21-5.76-3.54-3.54-3.33,3.19-7.17,5.8-10.3,9.2L126,24.71c1.89-2.18,4.85-5,7.69-5.91l-3.16-2.41c0,.06-1.79,1.85-2.12,2.28-1.58,2.08-3,4.26-4.59,6.36-1.74,2.35-4.23,4.67-3.51,7.82.4,1.73,2.28,2.09,3.67,1.49,4.09-1.76,7.8-6.63,10.88-9.77,1.63-1.66,5-4,5.56-6.36s-2.47-4.41-4.18-2.43a39,39,0,0,0-4.91,7.66c-1.38,2.6-2.64,7.09-4.75,9.13l4.18,1.1c0-.16,1.91-4.46,2.25-5.23a42.93,42.93,0,0,1,3.62-5.76,2.53,2.53,0,0,0-.39-3c-4.55-4.48-11.86-3.19-17.63-3.19-3.22,0-3.22,5,0,5Z"/>
          <path class="cls-1" d="M130.18,33.9l-.54.45,3.93.51c-.58-1.36-.31-3.58-.57-5.1a25.11,25.11,0,0,0-1.65-5.44c-.81-1.93-2.08-3.62-2.83-5.57-.58-1.52-.81-2.76-2.13-3.82a2.56,2.56,0,0,0-3.54,0c-1.56,1.57-5.06,3.46-4.61,6,.24,1.36,1.42,2.75,2,4a19.57,19.57,0,0,0,3.12,4.65c2.16,2.39,5.69-1.15,3.54-3.54-.49-.54-3.68-6.18-3.71-6.17l-.09,1.58a9.92,9.92,0,0,0,1.11-.93,16.17,16.17,0,0,0,2.15-2.09h-3.54c1,.77,1.36,3,1.91,4.08a37.75,37.75,0,0,1,2.68,5.71c1,3,.58,6.29,1.8,9.14.69,1.61,2.84,1.41,3.93.51l.54-.45c2.48-2.06-1.07-5.58-3.54-3.54Z"/>
          <path class="cls-1" d="M128.77,120.59c3.32-1.7,4.29-6,6.55-8.7l-4.27-1.77c.05.66-2.43,3.69-2.8,4.27a39.25,39.25,0,0,1-4.32,5.88l4.18,2.43c.48-2.42,3.23-5.35,4.48-7.41,1-1.61,2.32-3.3,2.9-5.12a2.53,2.53,0,0,0-2.41-3.16c-4.23-.42-8.73,4.71-11.49,7.38l4.18,2.43c.56-2.56,3.93-3.9,5.72-5.44a17.3,17.3,0,0,0,3-3.56c1.35-2,4-6,1.37-8a2.59,2.59,0,0,0-3.54,0c-1.48,1.29-2.21,3.25-3.57,4.74-1.57,1.74-3.36,3.26-4.86,5.08-2.85,3.46-5.66,7.63-9.22,10.42-1.75,1.37-.24,4.31,1.77,4.27A20.45,20.45,0,0,0,124,122.8c2.27-1,4-2.69,6.29-3.77,2.9-1.4.37-5.71-2.52-4.32-3.56,1.72-7,4.48-11.4,4.57l1.77,4.27c3.22-2.52,6.14-6.32,8.64-9.63a71.9,71.9,0,0,1,5.05-5.42c.68-.73,1.5-1.45,2.11-2.23s1.15-2.36,1.83-3h-3.54c-1.16-.91-.31-.6-1.26.6-.33.42-.58.94-.89,1.39a12.72,12.72,0,0,1-3.18,3.23c-2.39,1.85-5.33,3.82-6,7a2.52,2.52,0,0,0,4.18,2.43c1.71-1.66,5.41-6.17,8-5.91l-2.41-3.16c-1.42,4.5-6.45,7.88-7.38,12.53-.46,2.32,2.34,4.35,4.18,2.43a46.9,46.9,0,0,0,5.47-7.5c1.16-1.85,3.3-3.87,3.11-6.19-.15-2-2.75-3.56-4.27-1.77-1.82,2.16-2.92,6.59-5.54,7.92-2.87,1.46-.34,5.78,2.52,4.32Z"/>
          <path class="cls-1" d="M30,120.2c-5.32-1-10.49-6.91-14.26-10.49A83.8,83.8,0,0,1,4.67,97l-.9,3.42c1.09-.56,6,2,6.74,2.4,1.95,1.11,2.93,2.8,4.63,4.13a2.5,2.5,0,0,0,3.54-3.54c-1.69-2-3.75-4.65-6-6.12a2.54,2.54,0,0,0-3.42.9c-1.8,2.88.7,6.3,2.26,8.77,2,3.12,4.4,9.27,7.93,11a3.44,3.44,0,0,0,5-2.4c.35-1.52-.23-2.13-1-3.32-1.54-2.38-3.35-4.61-4.89-7s-5.37-.88-4.57,1.93c1.57,5.51,10.71,4.86,12.54,11L28.32,115c-.77.11-5.79-1.83-6.34-2.5l-1.77,4.27c3.32-.37,5.62.9,8.4,2.49s5.32-2.72,2.52-4.32c-3.52-2-6.69-3.65-10.93-3.17a2.54,2.54,0,0,0-1.77,4.27c1.23,1.49,3.19,1.72,4.93,2.32,2.35.8,3.82,1.81,6.28,1.47a2.52,2.52,0,0,0,1.75-3.08,13.52,13.52,0,0,0-4.4-6.43,34.55,34.55,0,0,0-5.32-3.21c-.43-.23-2.74-1-2.82-1.33l-4.57,1.93a100.61,100.61,0,0,0,6.08,8.53l-.64-2.43c.28-2.1.92-1.9-.4-4.08-.78-1.3-1.62-2.55-2.46-3.81-.42-.63-3.52-4.83-3.28-5.21l-3.42.9c1.75,1.15,3.63,3.71,5,5.34l3.54-3.54c-2.92-2.28-4.53-4.58-8.13-6.13C7.91,96.18,4,94.72,1.25,96.13a2.51,2.51,0,0,0-.9,3.42,89,89,0,0,0,13.06,14.79c4.22,3.84,9.41,9.59,15.28,10.68,3.15.58,4.49-4.24,1.33-4.82Z"/>
          <path class="cls-1" d="M15.31,110.4c-3.76,2.94-8.63,4.32-10.06,9.42-.56,2,1.82,4.07,3.67,2.82a58.35,58.35,0,0,1,8.27-5c3.14-1.46,6.73-2.3,9.71-4,2-1.15,1.3-5-1.26-4.66-3.14.4-7.15.95-9.95,2.53a5.11,5.11,0,0,0-2.29,2.63,18.78,18.78,0,0,1-2.8,3.62c-2.06,2.45,1.46,6,3.54,3.54a26.56,26.56,0,0,1,2.52-2.36c1-.93.8-1.93,1.52-2.89.9-1.19,5.77-1.86,7.47-2.08l-1.26-4.66c-2.94,1.7-6.61,2.58-9.71,4a58,58,0,0,0-8.27,5l3.67,2.82c1-3.65,6-5.08,8.77-7.21,2.53-2-1-5.49-3.54-3.54Z"/>
          <path class="cls-1" d="M21,116.71c-1.38,0-2.71-.45-4.09-.51s-2.66-.23-4-.27c-3.22-.09-3.22,4.91,0,5,2.72.08,5.39.71,8.09.78,3.22.08,3.22-4.92,0-5Z"/>
          <path class="cls-1" d="M22.55,87.84c3.22,0,3.22-5,0-5s-3.22,5,0,5Z"/>
        </g>
      </g>
    </g>
  </g>
</svg>
