<svg xmlns="http://www.w3.org/2000/svg" viewBox="0 0 66.08 66.08">
  <defs>
    <style>
      .cls-1 {
        fill: #fff;
      }
    </style>
  </defs>
  <title>Asset 3</title>
  <g id="Layer_2" data-name="Layer 2">
    <g id="Layer_1-2" data-name="Layer 1">
      <g id="_0WeHSm.tif" data-name="0WeHSm.tif">
        <g>
          <path d="M.13,0H65.95V65.77H.13ZM21.47,35.88h9.25c1,0,1.27-.24,1.27-1.29q0-7.07,0-14.13c0-1-.27-1.31-1.28-1.31H12.28c-.94,0-1.23.28-1.23,1.21q0,7.16,0,14.33c0,.94.24,1.19,1.16,1.19Zm23,0h9.32c.92,0,1.2-.27,1.2-1.17q0-7.16,0-14.33c0-.95-.28-1.23-1.22-1.23H35.27c-.95,0-1.21.26-1.21,1.21q0,7.16,0,14.33c0,.94.24,1.18,1.16,1.18ZM30.81,40.45c-.44.06-.8.1-1.15.17A8.47,8.47,0,0,0,26.16,42a1.63,1.63,0,0,0,0,2.9,6.7,6.7,0,0,0,1.69.89,16.28,16.28,0,0,0,8.73.44,6.64,6.64,0,0,0,3.51-1.59,1.45,1.45,0,0,0,0-2.31C38.67,41,36.86,40.71,35,40.46a7,7,0,0,0,0,.92,1,1,0,0,1-.9,1.26,4,4,0,0,1-2.58-.08.92.92,0,0,1-.7-1C30.83,41.21,30.81,40.87,30.81,40.45Z"/>
          <path class="cls-1" d="M.13,0V65.77H65.95V0a1.78,1.78,0,0,1,.12.45q0,3.79,0,7.58v58H0Q0,33.33,0,.58A2.79,2.79,0,0,1,.13,0Z"/>
          <path class="cls-1" d="M21.47,35.88H12.22c-.92,0-1.16-.25-1.16-1.19q0-7.16,0-14.33c0-.93.28-1.21,1.23-1.21H30.72c1,0,1.28.27,1.28,1.31q0,7.07,0,14.13c0,1-.24,1.29-1.27,1.29Z"/>
          <path class="cls-1" d="M44.47,35.88H35.22c-.92,0-1.16-.24-1.16-1.18q0-7.16,0-14.33c0-1,.26-1.21,1.21-1.21h18.5c.94,0,1.22.28,1.22,1.23q0,7.16,0,14.33c0,.9-.28,1.17-1.2,1.17Z"/>
          <path class="cls-1" d="M30.81,40.45c0,.42,0,.76,0,1.09a.92.92,0,0,0,.7,1,4,4,0,0,0,2.58.08,1,1,0,0,0,.9-1.26,7,7,0,0,1,0-.92c1.89.25,3.7.5,5.11,1.84a1.45,1.45,0,0,1,0,2.31,6.64,6.64,0,0,1-3.51,1.59,16.28,16.28,0,0,1-8.73-.44,6.7,6.7,0,0,1-1.69-.89,1.63,1.63,0,0,1,0-2.9,8.47,8.47,0,0,1,3.49-1.35C30,40.55,30.36,40.52,30.81,40.45Z"/>
        </g>
      </g>
    </g>
  </g>
</svg>
