<?xml version="1.0" encoding="utf-8"?>
<svg version="1.1" id="Layer_1" x="0px" y="0px" viewBox="0 0 112 112" style="" xmlns="http://www.w3.org/2000/svg">
<style>
  .logoColor1 {
      fill: none;
      stroke: #000000;
      stroke-miterlimit: 10;
    }

    .QywXIrbn_0 {
      stroke-dasharray: 348 350;
      stroke-dashoffset: 349;
      animation: QywXIrbn_draw 914.5ms ease-in-out 0ms forwards, fadeaway 500ms ease-in 2100ms forwards;
    }

    .QywXIrbn_1 {
      stroke-dasharray: 413 415;
      stroke-dashoffset: 414;
      animation: QywXIrbn_draw 1085ms ease-in-out 914.5ms forwards, fadeaway 500ms ease-in 2100ms forwards;
    }

    @keyframes QywXIrbn_draw {
      100% {
        stroke-dashoffset: 0;
      }
    }

    @keyframes QywXIrbn_fade {
      0% {
        stroke-opacity: 1;
      }

      95.1219512195122% {
        stroke-opacity: 1;
      }

      100% {
        stroke-opacity: 0;
      }
    }

    .blue {
      fill-opacity: 0;
      animation-name: fillupbl;
      animation-delay: 3.1s;
      animation-fill-mode: forwards;
      animation-duration: 1.25s;
    }

    .black {
      fill-opacity: 0;
      stroke: transparent!important;
      animation-name: fillupb;
      animation-delay: 2s;
      animation-fill-mode: forwards;
      animation-duration: 1s;
    }

    @keyframes fillupb {
      to {
        fill-opacity: 1;
        stroke: rgb(44,46,53);
      }
    }

    @keyframes fillupbl {
      to {
        fill-opacity: 1;
      }
    }

    @keyframes fadeaway {
      to {
        stroke: transparent!important;
      }
    }
  </style>
  <defs>
    <clipPath id="clippath0" transform="">
      <path d="M 0 144 L 252 144 L 252 0 L 0 0 Z" style="fill: none; clip-rule: nonzero;" />
    </clipPath>
  </defs>
  <g transform="matrix(1, 0, 0, 1, -72.320374, -14.725407)">
    <path class="logoColor1 QywXIrbn_0"
      d="M95.3,17c0.7,0,1.4,0,2.2,0c0.5,2.9,2.4,4.5,5.1,5.1c2.2,0.5,4.5,0.8,6.7,1.1c3.5,0.5,7,1,10.5,1.7 c2.1,0.4,4.1,1.5,5.3,3.4c2,3.2,3.2,6.6,2.5,10.5c-0.4,2.2-0.8,4.4-1.4,6.5c-1.2,4.5-2.8,9-2.8,13.8c0,3.5,0.5,6.7,2.7,9.5 c2.2,2.9,4.4,5.8,6.8,8.5c2.4,2.7,4,5.7,4.9,9.2c0.2,0.9,0.4,1.8,0.6,2.6c0,1.9,0,3.8,0,5.8c-0.1,0.1-0.2,0.2-0.2,0.3 c-0.7,5.9-3,11.1-6.3,16c-0.6,0-1.3,0-1.9,0c-0.1-0.2-0.2-0.4-0.3-0.7c-3.7-9.8-7.4-19.6-11.2-29.4c-0.1-0.4-0.3-0.8-0.6-1.4 c-0.3,0.7-0.5,1.1-0.6,1.6c-3.3,9-6.6,17.9-9.8,26.9c-0.3,0.9-0.7,1.2-1.7,1.2c-7.4-0.1-14.9,0-22.3,0c-0.4,0-0.9-0.1-1.3-0.1 c0-0.2,0-0.3,0-0.5c0.2-0.5,0.3-0.9,0.5-1.4c1.8-8.6,3.7-17.1,5.5-25.7c0.2-1,0.5-1.2,1.5-1.2c5,0,10,0,15,0 c4.5-0.1,7.8-2.2,9.8-6.3c2.4-5,2.6-10.4,1.7-15.7c-0.7-4.1-3.5-6.4-7.6-6.9c-1.6-0.2-3.2-0.3-4.7-0.6c-9.2-1.7-13.7-7.1-13.9-16.4 C89.6,28,91.6,22.3,95.3,17z" />
  </g>
  <g transform="matrix(1, 0, 0, 1, -72.320374, -14.725407)">
    <path class="logoColor1 QywXIrbn_1"
      d="M105.6,46.3c0.3-2.1,0.7-4.2,1-6.4c0.6-4.5,1.2-9,1.7-13.6c0-0.2,0.1-0.4,0.2-0.7c0.5,0,0.9,0,1.3,0 c20.8,0,41.5,0,62.3,0c1.8,0,3.6,0,5-1.5c0.2-0.2,0.6-0.2,0.9-0.1c1.6,0.3,3.3,0.7,5,1c-0.5,2.4-1.1,4.8-1.6,7.2 c-0.8,3.6-1.6,7.2-2.4,10.8c-0.7,2.9-1.4,3.6-4.4,3.9c-1.9,0.2-3.9,0.2-5.9,0.2c-14,0-28,0-42,0c-0.5,0-1,0-1.7,0 c0.3,2.2,0.7,4.3,0.8,6.3c0.6,7.3,1.1,14.7,1.6,22c0.1,1.5,0.1,3,0.3,4.4c0.7,5.6,3.6,8.5,9.1,9.4c2.3,0.3,4.6,0.5,6.9,0.5 c8.6,0.1,17.3,0,25.9,0.1c1.5,0,3,0.2,4.4,0.6c2.7,0.7,4.1,2.5,4.1,5.2c0,2.2-0.2,4.4-0.5,6.6c-0.5,4.9-1,9.7-1.5,14.5 c0,0.4-0.1,0.8-0.2,1.3c-2.1-0.1-4.1-0.3-6.1-0.4c-0.4-3.2-1.1-4.8-5.5-5.4c-1-0.1-2.1-0.2-3.1-0.2c-7.7,0-15.4,0.1-23.2-0.1 c-2.8-0.1-5.7-0.5-8.4-1.2c-6.9-1.6-10.9-6.1-12-13.1c-0.5-3.1-0.7-6.4-0.7-9.5c-0.1-10.2,0-20.4-0.1-30.6c0-1.6-0.2-3.3-0.5-4.9 c-0.6-4-2.5-5.7-6.6-5.9c-1.5-0.1-2.9-0.2-4.4-0.2C105.6,46.5,105.6,46.4,105.6,46.3z" />
  </g>
  <g transform="matrix(1, 0, 0, -1, -71.99366, 128.913284)">
    <g transform="">
      <path d="M 0 144 L 252 144 L 252 0 L 0 0 Z" style="fill: none;" />
    </g>
    <g style="clip-path: url(#clippath0);">
      <g transform="translate(110.1025 76.0454)">
        <path
          class="blue"
          d="M 0 0 L 0 3.358 C 0 6.847 -0.889 9.58 -2.667 11.555 C -4.444 13.531 -6.782 14.518 -9.679 14.518 C -16.725 15.242 -21.728 17.185 -24.69 20.345 C -27.653 23.505 -29.135 28.048 -29.135 33.974 C -29.135 40.229 -27.127 46.221 -23.11 51.949 L -20.641 51.949 C -20.181 48.394 -17.086 46.286 -11.357 45.628 L -2.271 44.641 C 4.114 43.981 8.148 42.138 9.827 39.11 C 11.506 36.081 12.345 33.283 12.345 30.715 C 12.345 27.62 11.16 22.385 8.79 15.012 C 7.933 11.852 7.506 8.526 7.506 5.037 C 7.506 2.206 8.032 -0.231 9.086 -2.271 C 10.139 -4.313 13.629 -8.79 19.555 -15.703 C 22.451 -19.786 23.9 -24.459 23.9 -29.727 C 23.9 -36.773 21.53 -43.785 16.789 -50.763 L 14.715 -50.763 L 1.778 -16.591 L 1.383 -16.591 L -10.37 -48.788 L -37.431 -48.788 L -30.715 -17.283 L -15.012 -17.283 C -11.194 -17.283 -8.362 -16.675 -6.518 -15.456 C -4.676 -14.238 -3.128 -12.263 -1.876 -9.53 C -0.626 -6.798 0 -3.622 0 0"
          style="fill: rgb(0, 185, 242);" />
      </g>
    </g>
    <g style="clip-path: url(#clippath0);">
      <g transform="translate(168.7119 18.127)">
        <path
          class="blue"
          d="M 0 0 C -0.003 4.649 -2.752 6.127 -9.727 6.122 L -31.494 6.105 C -52.416 6.09 -57.705 14.116 -57.717 31.023 L -57.741 61.666 C -57.752 77.305 -60.077 77.514 -70.221 77.718 L -67.28 100.544 L 1.404 100.596 C 5.842 100.599 6.476 100.811 8.165 102.503 L 14.294 101.239 L 10.082 82.428 C 8.818 77.144 8.185 77.143 -3.65 77.134 L -49.087 77.1 C -47.177 65.055 -46.746 54.489 -46.315 44.134 C -45.885 33.146 -40.599 30.402 -28.13 30.411 L -1.713 30.432 C 6.106 30.437 9.911 28.749 9.071 21.141 L 6.763 -0.418 Z"
          style="fill: rgb(0, 185, 242);" />
      </g>
    </g>
    <g style="clip-path: url(#clippath0);">
      <g transform="translate(116.1284 79.5562)">
        <path
          class="black"
          d="M 0 0 L 0 3.07 C 0 6.26 -0.813 8.759 -2.438 10.565 C -4.064 12.372 -6.202 13.274 -8.85 13.274 C -15.292 13.937 -19.867 15.713 -22.576 18.603 C -25.285 21.492 -26.64 25.646 -26.64 31.064 C -26.64 36.783 -24.804 42.262 -21.131 47.5 L -18.874 47.5 C -18.453 44.249 -15.623 42.321 -10.385 41.72 L -2.077 40.817 C 3.762 40.215 7.45 38.529 8.985 35.76 C 10.52 32.991 11.288 30.432 11.288 28.084 C 11.288 25.254 10.205 20.468 8.037 13.726 C 7.254 10.836 6.863 7.796 6.863 4.605 C 6.863 2.016 7.344 -0.212 8.308 -2.077 C 9.27 -3.944 12.462 -8.037 17.88 -14.358 C 20.529 -18.091 21.854 -22.366 21.854 -27.181 C 21.854 -33.624 19.686 -40.036 15.352 -46.416 L 13.456 -46.416 L 1.625 -15.171 L 1.264 -15.171 L -9.482 -44.61 L -34.226 -44.61 L -28.085 -15.803 L -13.727 -15.803 C -10.236 -15.803 -7.646 -15.248 -5.96 -14.132 C -4.275 -13.019 -2.86 -11.213 -1.716 -8.714 C -0.573 -6.217 0 -3.312 0 0"
          style="fill: rgb(44, 46, 53);" />
      </g>
    </g>
    <g style="clip-path: url(#clippath0);">
      <g transform="translate(116.1284 79.5562)">
        <path
          class="black"
          d="M 0 0 L 0 3.07 C 0 6.26 -0.813 8.759 -2.438 10.565 C -4.064 12.372 -6.202 13.274 -8.85 13.274 C -15.292 13.937 -19.867 15.713 -22.576 18.603 C -25.285 21.492 -26.64 25.646 -26.64 31.064 C -26.64 36.783 -24.804 42.262 -21.131 47.5 L -18.874 47.5 C -18.453 44.249 -15.623 42.321 -10.385 41.72 L -2.077 40.817 C 3.762 40.215 7.45 38.529 8.985 35.76 C 10.52 32.991 11.288 30.432 11.288 28.084 C 11.288 25.254 10.205 20.468 8.037 13.726 C 7.254 10.836 6.863 7.796 6.863 4.605 C 6.863 2.016 7.344 -0.212 8.308 -2.077 C 9.27 -3.944 12.462 -8.037 17.88 -14.358 C 20.529 -18.091 21.854 -22.366 21.854 -27.181 C 21.854 -33.624 19.686 -40.036 15.352 -46.416 L 13.456 -46.416 L 1.625 -15.171 L 1.264 -15.171 L -9.482 -44.61 L -34.226 -44.61 L -28.085 -15.803 L -13.727 -15.803 C -10.236 -15.803 -7.646 -15.248 -5.96 -14.132 C -4.275 -13.019 -2.86 -11.213 -1.716 -8.714 C -0.573 -6.217 0 -3.312 0 0 Z"
          style="fill: none; stroke: rgb(44, 46, 53); stroke-opacity: 1; stroke-miterlimit: 0; stroke-width: 1px; stroke-dashoffset: 0px;" />
      </g>
    </g>
    <g style="clip-path: url(#clippath0);">
      <g transform="translate(169.7158 26.5996)">
        <path
          class="black"
          d="M 0 0 C -0.004 4.251 -2.518 5.602 -8.894 5.597 L -28.797 5.582 C -47.928 5.567 -52.764 12.906 -52.776 28.365 L -52.797 56.384 C -52.808 70.684 -54.934 70.875 -64.209 71.062 L -61.52 91.934 L 1.283 91.98 C 5.341 91.984 5.921 92.178 7.466 93.725 L 13.07 92.569 L 9.219 75.369 C 8.063 70.537 7.483 70.536 -3.338 70.528 L -44.885 70.497 C -43.138 59.483 -42.743 49.822 -42.351 40.354 C -41.956 30.306 -37.123 27.798 -25.722 27.807 L -1.567 27.824 C 5.582 27.83 9.063 26.286 8.294 19.329 L 6.184 -0.383 Z"
          style="fill: rgb(44, 46, 53);" />
      </g>
    </g>
    <g style="clip-path: url(#clippath0);">
      <g transform="translate(169.7158 26.5996)">
        <path
          class="black"
          d="M 0 0 C -0.004 4.251 -2.518 5.602 -8.894 5.597 L -28.797 5.582 C -47.928 5.567 -52.764 12.906 -52.776 28.365 L -52.797 56.384 C -52.808 70.684 -54.934 70.875 -64.209 71.062 L -61.52 91.934 L 1.283 91.98 C 5.341 91.984 5.921 92.178 7.466 93.725 L 13.07 92.569 L 9.219 75.369 C 8.063 70.537 7.483 70.536 -3.338 70.528 L -44.885 70.497 C -43.138 59.483 -42.743 49.822 -42.351 40.354 C -41.956 30.306 -37.123 27.798 -25.722 27.807 L -1.567 27.824 C 5.582 27.83 9.063 26.286 8.294 19.329 L 6.184 -0.383 L 0 0 Z"
          style="fill: none; stroke: rgb(44, 46, 53); stroke-opacity: 1; stroke-miterlimit: 0; stroke-width: 1px; stroke-dashoffset: 0px;" />
      </g>
    </g>
  </g>
</svg>