<?xml version="1.0" encoding="utf-8"?>
<svg viewBox="188.8135 -72.1307 144 144" xmlns="http://www.w3.org/2000/svg">
  <g id="layer1" transform="matrix(1, 0, 0, 1, -2.842170943040401e-14, -902.3622436523438)" style="display:inline;opacity:1">
    <g id="g4000" transform="matrix(1, 0, 0, 1, -23.186524, 281.869358)">
      <rect ry="4" rx="4" y="548.36218" x="212" height="144" width="144" id="rect3979" style="color:#000000;fill:#f8f8f8;fill-opacity:1;fill-rule:nonzero;stroke:none;stroke-width:1;marker:none;visibility:visible;display:inline;overflow:visible;enable-background:accumulate"/>
      <g transform="translate(-686,342.98718)" id="g3994">
        <path id="path3996" d="m 915,222.375 0,110 10,0 10,0 70,-110 -80,0 -10,0 z m 10,10 61.625,0 -6.375,10 -55.25,0 0,-10 z m 0,20 48.9375,0 -6.375,10 -42.5625,0 0,-10 z m 0,20 36.1875,0 -6.375,10 -29.8125,0 0,-10 z m 0,20 23.4375,0 -6.375,10 -17.0625,0 0,-10 z m 0,20 10.75,0 -6.375,10 -4.375,0 0,-10 z" style="color:#000000;fill:#516066;fill-opacity:1;fill-rule:nonzero;stroke:none;stroke-width:0.49999997;marker:none;visibility:visible;display:inline;overflow:visible;enable-background:accumulate"/>
        <path style="color:#000000;fill:#868f93;fill-opacity:1;fill-rule:nonzero;stroke:none;stroke-width:0.49999997;marker:none;visibility:visible;display:inline;overflow:visible;enable-background:accumulate" d="m 1025,222.375 -8.125,0.1875 -18.9375,29.8125 17.0625,0 0,70 -61.625,0 -6.375,10 68,0 10,0 0,-80 0,-30 z m -33.4375,40 -6.375,10 -6.375,10 -6.375,10 32.5625,0 0,-10 0,-10 0,-10 -13.4375,0 z m -25.5,40 -6.3125,10 45.25,0 0,-10 -38.9375,0 z" id="path3998"/>
      </g>
    </g>
  </g>
</svg>