<?xml version="1.0" encoding="utf-8"?>
<!-- Generator: Adobe Illustrator 21.0.0, SVG Export Plug-In . SVG Version: 6.00 Build 0)  -->
<svg version="1.1" id="Layer_1" xmlns="http://www.w3.org/2000/svg" xmlns:xlink="http://www.w3.org/1999/xlink" x="0px" y="0px"
	 viewBox="0 0 4343.4 4343.4" style="enable-background:new 0 0 4343.4 4343.4;" xml:space="preserve">
<style type="text/css">
	.st0{fill:#1EF43C;}
	.st1{fill:#5DF472;}
	.st2{fill:#B5F7C0;}
</style>
<rect class="st0" width="4342" height="4351.1"/>
<title>jotter1500px</title>
<rect x="299.4" y="301" class="st1" width="3708.1" height="3708.1"/>
<rect x="622.1" y="639.4" class="st2" width="3056.3" height="3056.3"/>
<g>
	<path d="M2170.3,902.6c-554.2,0-988.3,172-988.3,391.5v1688.3c0,27.4,18.5,49.2,44.2,52.8c70,12.5,142.3,23.6,216.2,33.3
		l-254.9,330.1c-8.2,10.7-7.1,26.7,2.4,35.8c4.3,4.1,9.6,6.1,14.9,6.1c6.4,0,12.8-3,17.4-8.9l275.4-356.6
		c214.8,25.6,442.9,39.1,672.7,39.1c230.1,0,458.1-13.6,672.8-39.1l275.3,356.6c4.5,5.8,10.9,8.9,17.3,8.9c5.3,0,10.6-2,14.9-6.1
		c9.6-9.1,10.7-25.2,2.4-35.8l-254.9-330.1c73.8-9.6,145.8-20.6,215.4-33.1c26.4-3.7,44.9-25.5,44.9-53V1294.1
		C3158.6,1074.6,2724.5,902.6,2170.3,902.6z M2463,2780.4h-585.4V1391.2c0-47.1,34.5-85.5,76.9-85.5h431.6
		c42.4,0,76.9,38.4,76.9,85.5V2780.4z M1854.7,2853.5c11.6,0,20.8-9.7,22.3-22.2h586.6c1.5,12.5,10.7,22.2,22.3,22.2h297.9
		c-196.9,21.3-404.3,32.4-613.5,32.4s-416.5-11.1-613.5-32.4L1854.7,2853.5L1854.7,2853.5z M1227.7,2857.7
		c287.8,51.6,612.8,79,942.6,79s654.8-27.4,942.6-79v37.3c-287.3,52-612.5,79.6-942.6,79.6c-330,0-655.3-27.6-942.6-79.6
		C1227.7,2895,1227.7,2857.7,1227.7,2857.7z M1227.7,1294.1c0-164.5,378.7-340.7,942.6-340.7s942.6,176.2,942.6,340.7v1508.5h-604.1
		V1391.2c0-75.2-55-136.4-122.6-136.4h-431.6c-67.6,0-122.7,61.2-122.7,136.4v1411.4h-604.1V1294.1z M3107.1,2985.1
		c-285.6,51.3-609.5,78.3-936.9,78.3c-327.3,0-651.3-27.1-937.6-78.5c-3.1-0.5-4.7-1.8-5-2.5v-35.9c287.9,51.6,612.9,79,942.6,79
		c329.7,0,654.6-27.5,942.6-79v36.2C3112.6,2983.1,3111,2984.5,3107.1,2985.1z"/>
	<path d="M2019.8,2026.9h300.9c45.6,0,82.7-41.3,82.7-92v-485.5c0-50.7-37.1-92-82.7-92h-300.9c-45.6,0-82.7,41.3-82.7,92v485.5
		C1937.1,1985.6,1974.2,2026.9,2019.8,2026.9z M1982.8,1449.5c0-22.7,16.6-41.1,37-41.1h300.9c20.4,0,37,18.5,37,41.1v485.5
		c0,22.7-16.6,41.1-37,41.1h-300.9c-20.4,0-37-18.5-37-41.1V1449.5z"/>
	<path d="M2045.5,1931.8H2295c12.6,0,22.9-11.4,22.9-25.4v-428.2c0-14.1-10.2-25.4-22.9-25.4h-249.5c-12.6,0-22.9,11.4-22.9,25.4
		v428.2C2022.7,1920.4,2032.9,1931.8,2045.5,1931.8z M2068.4,1503.5h203.7v377.4h-203.7V1503.5z"/>
	<path d="M2685.4,2051.9h259.4c67.6,0,122.6-61.2,122.6-136.4v-449.4c0-73.4-53.2-141.2-118.7-151.1l-261.3-39.5
		c-69.7-10.5-124.8,45.4-124.8,121.2v518.7C2562.8,1990.7,2617.8,2051.9,2685.4,2051.9z M2608.5,1396.8c0-41.5,26.4-71.6,62.8-71.6
		c3.3,0,6.7,0.3,10.1,0.8l261.3,39.5c42.9,6.5,79.1,52.6,79.1,100.7v449.4c0,47.1-34.5,85.5-76.9,85.5h-259.4
		c-42.4,0-76.9-38.4-76.9-85.5V1396.8z"/>
	<path d="M1662.6,2109.9c-67.7,0-124,55-134.9,126.9h-223.1c-12.6,0-22.9,11.4-22.9,25.4s10.2,25.4,22.9,25.4h223.1
		c10.9,71.9,67.2,126.9,134.9,126.9c75.5,0,137-68.3,137-152.3S1738.1,2109.9,1662.6,2109.9z M1662.6,2363.7
		c-50.3,0-91.3-45.5-91.3-101.5s40.9-101.5,91.3-101.5c50.3,0,91.2,45.5,91.2,101.5S1712.9,2363.7,1662.6,2363.7z"/>
	<path d="M1662.6,2186c-37.8,0-68.5,34.2-68.5,76.2c0,42,30.8,76.2,68.5,76.2s68.5-34.2,68.5-76.2
		C1731.1,2220.2,1700.4,2186,1662.6,2186z M1662.6,2287.6c-12.6,0-22.8-11.4-22.8-25.3s10.2-25.3,22.8-25.3
		c12.6,0,22.8,11.4,22.8,25.3S1675.1,2287.6,1662.6,2287.6z"/>
	<path d="M2677.9,2414.6c67.8,0,124-55,134.9-126.9h223.1c12.6,0,22.9-11.4,22.9-25.4c0-14.1-10.2-25.4-22.9-25.4h-223.1
		c-10.9-71.9-67.2-126.9-134.9-126.9c-75.5,0-137,68.3-137,152.3C2541,2346.2,2602.4,2414.6,2677.9,2414.6z M2677.9,2160.8
		c50.3,0,91.3,45.5,91.3,101.4s-41,101.5-91.3,101.5c-50.3,0-91.2-45.5-91.2-101.5S2627.6,2160.8,2677.9,2160.8z"/>
	<path d="M1642.6,2465c-67.7,0-124,55-134.9,126.9h-203.1c-12.6,0-22.9,11.4-22.9,25.4c0,14.1,10.2,25.4,22.9,25.4h203.1
		c10.9,71.9,67.2,126.9,134.9,126.9c75.6,0,137-68.3,137-152.3C1779.6,2533.3,1718.2,2465,1642.6,2465z M1642.6,2718.7
		c-50.3,0-91.3-45.5-91.3-101.4c0-56,40.9-101.4,91.3-101.4s91.3,45.5,91.3,101.4C1733.9,2673.2,1693,2718.7,1642.6,2718.7z"/>
	<path d="M2677.9,2338.4c37.8,0,68.5-34.2,68.5-76.2c0-42-30.7-76.2-68.5-76.2c-37.8,0-68.5,34.2-68.5,76.2
		C2609.4,2304.2,2640.1,2338.4,2677.9,2338.4z M2677.9,2236.9c12.6,0,22.8,11.4,22.8,25.3s-10.2,25.3-22.8,25.3
		s-22.8-11.4-22.8-25.3S2665.4,2236.9,2677.9,2236.9z"/>
	<path d="M2403.9,2059.1c0,74.6-89.5,99.4-173.4,116.9c-1.2,0.3-2.1,0.5-3.3,0.7c-2.8-30.4-25.6-54.3-53.7-54.3
		c-28.1,0-51,23.9-53.7,54.3c-1.2-0.3-2.1-0.5-3.3-0.7c-83.9-17.4-173.4-42.3-173.4-116.9c0-14-10.2-25.4-22.9-25.4
		s-22.9,11.4-22.9,25.4c0,123.1,137.1,151.6,210.7,166.9c4.1,0.8,7.5,1.6,11.2,2.4v181.2c-1-0.2-1.7-0.4-2.7-0.6
		c-83.9-17.4-173.4-42.2-173.4-116.9c0-14-10.2-25.4-22.9-25.4s-22.9,11.4-22.9,25.4c0,123.1,137.1,151.6,210.7,166.8
		c4.1,0.8,7.5,1.6,11.1,2.4v181.3c-1-0.2-1.7-0.4-2.7-0.6c-83.9-17.4-173.4-42.3-173.4-116.9c0-14-10.2-25.4-22.9-25.4
		s-22.9,11.4-22.9,25.4c0,123.1,137.1,151.6,210.7,166.9c4.1,0.8,7.6,1.6,11.2,2.4c0.6,32.6,24.6,59,54.2,59
		c29.5,0,53.5-26.4,54.1-59c3.7-0.8,7.1-1.6,11.2-2.4c73.7-15.3,210.8-43.8,210.8-166.9c0-14-10.2-25.4-22.9-25.4
		c-12.6,0-22.9,11.4-22.9,25.4c0,74.6-89.5,99.4-173.4,116.9c-1,0.2-1.7,0.4-2.7,0.6v-181.3c3.7-0.8,7.1-1.6,11.2-2.4
		c73.7-15.3,210.7-43.7,210.7-166.8c0-14-10.2-25.4-22.9-25.4c-12.6,0-22.9,11.4-22.9,25.4c0,74.6-89.5,99.4-173.4,116.9
		c-1,0.2-1.8,0.4-2.8,0.6v-181.2c3.7-0.8,7.1-1.6,11.2-2.4c73.7-15.3,210.7-43.8,210.7-166.9c0-14-10.2-25.4-22.9-25.4
		C2414.1,2033.7,2403.9,2045.1,2403.9,2059.1z M2182,2693.1c0,5.2-3.8,9.5-8.5,9.5c-4.7,0-8.5-4.2-8.5-9.5v-510.4
		c0-5.2,3.8-9.5,8.5-9.5c4.7,0,8.5,4.2,8.5,9.5V2693.1z"/>
	<path d="M3035.9,2591.8h-203.1c-11-71.9-67.2-126.9-134.9-126.9c-75.5,0-137,68.3-137,152.3c0,84,61.5,152.3,137,152.3
		c67.7,0,124-55,134.9-126.9h203.1c12.6,0,22.9-11.4,22.9-25.4C3058.8,2603.2,3048.6,2591.8,3035.9,2591.8z M2697.9,2718.7
		c-50.3,0-91.3-45.5-91.3-101.4c0-56,41-101.4,91.3-101.4s91.2,45.5,91.2,101.4C2789.1,2673.2,2748.2,2718.7,2697.9,2718.7z"/>
	<path d="M1642.6,2541.1c-37.8,0-68.5,34.2-68.5,76.2c0,42,30.8,76.2,68.5,76.2c37.8,0,68.5-34.2,68.5-76.2
		C1711.1,2575.3,1680.4,2541.1,1642.6,2541.1z M1642.6,2642.6c-12.6,0-22.8-11.4-22.8-25.3c0-14,10.2-25.3,22.8-25.3
		c12.6,0,22.8,11.4,22.8,25.3C1665.4,2631.2,1655.2,2642.6,1642.6,2642.6z"/>
	<path d="M2697.9,2541.1c-37.8,0-68.5,34.2-68.5,76.2c0,42,30.7,76.2,68.5,76.2s68.5-34.2,68.5-76.2
		C2766.4,2575.3,2735.7,2541.1,2697.9,2541.1z M2697.9,2642.6c-12.6,0-22.8-11.4-22.8-25.3c0-14,10.2-25.3,22.8-25.3
		s22.8,11.4,22.8,25.3C2720.7,2631.2,2710.4,2642.6,2697.9,2642.6z"/>
	<path d="M1783,1915.5v-518.7c0-75.8-55.1-131.7-124.8-121.2l-261.3,39.5c-65.4,9.9-118.7,77.6-118.7,151.1v449.4
		c0,75.2,55,136.4,122.6,136.4h259.4C1728,2051.9,1783,1990.7,1783,1915.5z M1737.3,1915.5c0,47.1-34.5,85.5-76.9,85.5h-259.4
		c-42.4,0-76.9-38.4-76.9-85.5v-449.4c0-48.1,36.2-94.2,79.1-100.7l261.3-39.5c3.4-0.5,6.8-0.8,10.1-0.8c36.4,0,62.8,30.1,62.8,71.6
		V1915.5z"/>
</g>
</svg>
