<?xml version="1.0" encoding="utf-8"?>
<!-- Generator: Adobe Illustrator 21.0.0, SVG Export Plug-In . SVG Version: 6.00 Build 0)  -->
<svg version="1.1" id="a79c70b2-3a32-4f99-833c-b78d151fe0d8"
	 xmlns="http://www.w3.org/2000/svg" xmlns:xlink="http://www.w3.org/1999/xlink" x="0px" y="0px" viewBox="0 0 790.5 730.5"
	 style="enable-background:new 0 0 790.5 730.5;" xml:space="preserve">
<style type="text/css">
	.st0{fill:#3F3D56;}
	.st1{fill:#FFFFFF;}
	.st2{fill:#6C63FF;}
	.st3{fill:#E6E6E6;}
	.st4{fill:#A0616A;}
	.st5{fill:#2F2E41;}
	.st6{fill:#575A89;}
	.st7{opacity:0.2;enable-background:new    ;}
	.st8{fill:url(#SVGID_1_);}
	.st9{fill:url(#SVGID_2_);}
	.st10{opacity:0.7;fill:#FFFFFF;enable-background:new    ;}
	.st11{fill:url(#SVGID_3_);}
	.st12{opacity:0.5;fill:#FFFFFF;enable-background:new    ;}
	.st13{fill:url(#SVGID_4_);}
	.st14{fill:#F2F2F2;}
	.st15{fill:#00FF00;}
</style>
<title>contract</title>
<path class="st0" d="M108.9,115.1c-21.4,0.1-38.9,17.5-38.9,39v448.5c0,21.4,17.5,38.9,38.9,38.9h329c21.4,0,38.9-17.5,38.9-38.9
	V154.1c0-21.4-17.5-38.9-38.9-38.9L108.9,115.1L108.9,115.1z"/>
<rect x="90.2" y="142.8" class="st1" width="366.3" height="471.1"/>
<rect x="138.1" y="227.2" class="st2" width="270.6" height="17.8"/>
<rect x="138.1" y="274.6" class="st2" width="270.6" height="17.8"/>
<rect x="138.1" y="322.1" class="st2" width="270.6" height="17.8"/>
<rect x="138.1" y="369.4" class="st2" width="270.6" height="17.8"/>
<rect x="138.1" y="416.8" class="st2" width="270.6" height="17.8"/>
<rect x="138.1" y="464.2" class="st2" width="270.6" height="17.8"/>
<rect x="138.1" y="511.6" class="st2" width="270.6" height="17.8"/>
<rect x="173.5" y="134.6" transform="matrix(0.9837 -0.18 0.18 0.9837 -50.7298 60.8453)" class="st3" width="272.8" height="350.7"/>
<polygon class="st2" points="255.3,211.4 391.4,187.1 391.9,200.3 255.7,224.6 "/>
<rect x="196.5" y="233.9" transform="matrix(0.9837 -0.18 0.18 0.9837 -38.443 57.4158)" class="st2" width="201.4" height="13.2"/>
<rect x="202.8" y="268.6" transform="matrix(0.9837 -0.18 0.18 0.9837 -44.5848 59.1225)" class="st2" width="201.4" height="13.2"/>
<rect x="209.1" y="303.4" transform="matrix(0.9837 -0.18 0.18 0.9837 -50.7408 60.8331)" class="st2" width="201.4" height="13.2"/>
<rect x="215.5" y="338.1" transform="matrix(0.9837 -0.18 0.18 0.9837 -56.8784 62.5541)" class="st2" width="201.4" height="13.2"/>
<rect x="221.9" y="372.8" transform="matrix(0.9837 -0.18 0.18 0.9837 -63.0205 64.2607)" class="st2" width="201.4" height="13.2"/>
<rect x="228.2" y="407.5" transform="matrix(0.9837 -0.18 0.18 0.9837 -69.1623 65.9675)" class="st2" width="201.4" height="13.2"/>
<rect x="534.8" y="496.4" transform="matrix(0.9837 -0.18 0.18 0.9837 -88.92 112.1203)" class="st3" width="77.2" height="99.2"/>
<rect x="539.5" y="514.7" transform="matrix(0.9837 -0.18 0.18 0.9837 -83.7051 110.6744)" class="st1" width="57" height="3.7"/>
<rect x="541.3" y="524.5" transform="matrix(0.9837 -0.18 0.18 0.9837 -85.4458 111.1571)" class="st1" width="57" height="3.7"/>
<rect x="543.1" y="534.4" transform="matrix(0.9837 -0.18 0.18 0.9837 -87.1865 111.6397)" class="st1" width="57" height="3.7"/>
<rect x="544.9" y="544.2" transform="matrix(0.9837 -0.18 0.18 0.9837 -88.9271 112.1223)" class="st1" width="57" height="3.7"/>
<rect x="546.6" y="554" transform="matrix(0.9837 -0.18 0.18 0.9837 -90.6678 112.605)" class="st1" width="57" height="3.7"/>
<rect x="548.4" y="563.9" transform="matrix(0.9837 -0.18 0.18 0.9837 -92.4084 113.0876)" class="st1" width="57" height="3.7"/>
<rect x="550.2" y="573.6" transform="matrix(0.9837 -0.18 0.18 0.9837 -94.1349 113.5663)" class="st1" width="57" height="3.7"/>
<path class="st0" d="M341.2,92.5H309v-6.6c0-10-8.1-18.1-18.1-18.1h-34.9c-10,0-18.1,8.1-18.1,18.1v6.6h-32.3
	c-10,0-18.1,8.1-18.1,18.1l0,0v50h171.8v-50.1C359.3,100.5,351.2,92.5,341.2,92.5L341.2,92.5z"/>
<path class="st0" d="M261.8,579.6c5.4-3.7,10.8-7.5,17.1-9.1c5.8-1.5,12.4-1.1,17,3.1c3.7,3.4,5.3,8.7,2.5,13.2
	c-1.2,2.1-3.2,3.6-5.5,4.1c-2.3,0.3-4.5-0.6-6-2.4c-1.5-1.6-2.3-3.9-1.5-6c0.8-2.2,2.9-3.6,5-4.3c2.4-0.8,5-1.3,7.6-1.5l10.5-1.5
	l42.9-5.8l47.8-6.5c0.8-0.2,1.2-1.1,1.1-1.8c-0.2-0.8-1.1-1.2-1.8-1.1l-95,13c-3.4,0.5-6.9,0.8-10.3,1.5c-2.7,0.4-5.2,1.5-7.4,3.1
	c-4.5,3.6-4.2,10,0,13.7c4.2,3.8,10.4,3.2,14.1-1.1c3.9-4.4,4.3-10.8,1-15.7c-4.1-6.1-11.5-8.4-18.5-7.6c-8.2,1-15.1,5.6-21.8,10.2
	C258.7,578.1,260.2,580.7,261.8,579.6L261.8,579.6z"/>
<path class="st4" d="M595.1,469.8l1,9.9c0,0-5.9,21.7,6.9,21.7s2.9-21.7,2.9-21.7l1-7.9L595.1,469.8z"/>
<path class="st4" d="M684.8,436.9l-4.5,8.9c0,0-16.7,15-6,22c10.7,7,14.3-16.7,14.3-16.7l5.1-6.1L684.8,436.9z"/>
<path class="st5" d="M611,478.7l13.8,93.8l6.9,67.1c0,0,5.9,14.8,25.7,1.9l-2.9-38.5l-1.9-34.5c0,0-1.9-33.6-4-39.5
	c-2-5.9,1-25.7,1-25.7l7.9-32.6L611,478.7z"/>
<path class="st5" d="M633.6,637.7l-7.9,8.9c0,0-11.9-4-14.8,4c-2.9,8,22.7,9.9,22.7,9.9s26.6,1.9,26.6,0s-0.7-17.1-4.3-18
	C652.5,641.6,633.6,637.7,633.6,637.7z"/>
<path class="st5" d="M648.4,473.8l13.8,98.7l6.9,67.1c0,0,5.9,14.8,25.7,2l-2.9-38.5l-2-34.5c0,0-1.9-33.6-4-39.5
	c-2-5.9,1-25.7,1-25.7l-1.9-36.6L648.4,473.8z"/>
<path class="st5" d="M671.2,637.7l-7.9,8.9c0,0-11.9-4-14.8,4c-2.9,8,22.7,9.9,22.7,9.9s26.6,1.9,26.6,0s-0.7-17.1-4.3-18
	C690,641.6,671.2,637.7,671.2,637.7z"/>
<circle class="st4" cx="618.9" cy="297" r="20.7"/>
<polygon class="st4" points="634.1,306.4 643.1,321.2 620.3,331.1 617.4,313.3 "/>
<path class="st6" d="M645.5,319.7c0,0-20.7-1.9-28.6,10.9l-19.5,14.8c-3.2,2.4-4.9,6.4-4.3,10.4L610,483.6l24.7-1l40.5-7.9l11.9-2.9
	l-5.9-52.3c0,0-6.9-20.7,1-34.5l-4-48.4l-27.6-10.9L645.5,319.7z"/>
<path class="st6" d="M599.1,349.4l-1.5-2.4c0,0-1.9,0-1.9,4c0,4-3.5,89.4-3.5,89.4l-1,32.6l18.8,1.9l6.9-61.3l-2.9-40.5L599.1,349.4
	z"/>
<path class="st6" d="M664.3,334.5l13.8,1.9c5.4,5.6,10,11.9,13.8,18.8c5.9,10.9,23.7,31.6,19.7,47.4S695.9,447,695.9,447l-18.8-7.9
	c0,0,14.8-34.5,13.8-37.5c-1-3-12.8-20.7-12.8-20.7L664.3,334.5z"/>
<path class="st5" d="M604.6,285.7c0,0-16.8-1-5.9-11.9c0,0,8.9-4,12.8-1.9c0,0,5.9-4,5.9-1.9c0,0,20.7-5.9,23.7,14.8
	s-1.9,30.6-1.9,30.6l-13.8-1c0,0,2.9-16.8-7.9-14.8c0,0-8.9,2.9-9.9,0C606.5,296.6,604.6,285.7,604.6,285.7z"/>
<polygon class="st7" points="612.4,473.3 621.3,414 615.4,377.5 617.4,417.2 611.5,473.3 "/>
<linearGradient id="SVGID_1_" gradientUnits="userSpaceOnUse" x1="213.677" y1="572.7652" x2="213.677" y2="550.7906" gradientTransform="matrix(0.9815 -0.1914 0.1914 0.9815 -88.9248 -286.7113)">
	<stop  offset="0" style="stop-color:#808080;stop-opacity:0.25"/>
	<stop  offset="0.54" style="stop-color:#808080;stop-opacity:0.12"/>
	<stop  offset="1" style="stop-color:#808080;stop-opacity:0.1"/>
</linearGradient>
<polygon class="st8" points="214.1,215.4 238.4,210.7 242.5,232.2 218.3,236.9 "/>
<rect x="199.9" y="214.4" transform="matrix(0.9815 -0.1914 0.1914 0.9815 -39.0064 46.2717)" class="st1" width="40.3" height="21.3"/>
<linearGradient id="SVGID_2_" gradientUnits="userSpaceOnUse" x1="353.8557" y1="802.373" x2="353.8557" y2="792.0423" gradientTransform="matrix(0.9815 -0.1914 0.1914 0.9815 -280.2596 -503.5638)">
	<stop  offset="0" style="stop-color:#808080;stop-opacity:0.25"/>
	<stop  offset="0.54" style="stop-color:#808080;stop-opacity:0.12"/>
	<stop  offset="1" style="stop-color:#808080;stop-opacity:0.1"/>
</linearGradient>
<path class="st9" d="M240,212.5l-38.8,7.6l-1.9-10.2l37.5-7.3c0.8-0.2,1.5,0.3,1.7,1.1L240,212.5z"/>
<path class="st2" d="M199.3,210.3l37-7.2c0.8-0.2,1.5,0.3,1.7,1.1l1.5,8l0,0l-38.5,7.5l0,0L199.3,210.3L199.3,210.3z"/>
<path class="st10" d="M199.3,210.3l37-7.2c0.8-0.2,1.5,0.3,1.7,1.1l1.5,8l0,0l-38.5,7.5l0,0L199.3,210.3L199.3,210.3z"/>
<linearGradient id="SVGID_3_" gradientUnits="userSpaceOnUse" x1="187.6615" y1="572.8079" x2="187.6615" y2="531.3606" gradientTransform="matrix(0.9815 -0.1914 0.1914 0.9815 -88.9248 -286.7113)">
	<stop  offset="0" style="stop-color:#808080;stop-opacity:0.25"/>
	<stop  offset="0.54" style="stop-color:#808080;stop-opacity:0.12"/>
	<stop  offset="1" style="stop-color:#808080;stop-opacity:0.1"/>
</linearGradient>
<polygon class="st11" points="197,198.9 185.4,211 186.9,218.9 191.5,242.2 218.3,236.9 213.8,213.7 212.2,205.7 "/>
<polygon class="st2" points="211.6,205.7 197.1,198.9 186.1,210.7 187.7,218.5 213.1,213.5 "/>
<polygon class="st12" points="211.6,205.7 197.1,198.9 186.1,210.7 187.7,218.5 213.1,213.5 "/>
<rect x="189.7" y="215.8" transform="matrix(0.9815 -0.1914 0.1914 0.9815 -39.7845 42.997)" class="st1" width="25.9" height="23.3"/>
<linearGradient id="SVGID_4_" gradientUnits="userSpaceOnUse" x1="187.7727" y1="545.5671" x2="187.7727" y2="530.4257" gradientTransform="matrix(0.9815 -0.1914 0.1914 0.9815 -88.9248 -286.7113)">
	<stop  offset="0" style="stop-color:#808080;stop-opacity:0.25"/>
	<stop  offset="0.54" style="stop-color:#808080;stop-opacity:0.12"/>
	<stop  offset="1" style="stop-color:#808080;stop-opacity:0.1"/>
</linearGradient>
<polygon class="st13" points="214.2,210 197.8,202.5 185.2,215.6 183.6,212.2 196.9,197.9 214.6,206.2 "/>
<polygon class="st2" points="213.9,209.5 197.7,201.9 185.5,215.1 184.3,212 196.9,198.2 213.8,206.1 "/>
<polygon class="st7" points="213.9,209.5 197.7,201.9 185.5,215.1 184.3,212 196.9,198.2 213.8,206.1 "/>
<rect x="195.8" y="220.8" transform="matrix(0.9815 -0.1914 0.1914 0.9815 -40.2498 43.1356)" class="st14" width="14.7" height="18.2"/>
<path class="st15" d="M227.8,227.7c0.1,0,0.1-0.1,0.1-0.2c0-0.1-0.1-0.1-0.2-0.1c-0.1,0-0.1,0.1-0.1,0.2
	C227.6,227.7,227.7,227.7,227.8,227.7z"/>
</svg>
