<svg xmlns="http://www.w3.org/2000/svg" viewBox="0 0 1081 1081">
  <defs>
    <style>
      .cls-1 {
        stroke: #000;
      }

      .cls-1, .cls-3, .cls-4 {
        stroke-miterlimit: 10;
      }

      .cls-2 {
        fill: #fff;
      }

      .cls-3, .cls-4 {
        fill: none;
        stroke: #fff;
      }

      .cls-3 {
        stroke-width: 15px;
      }

      .cls-4 {
        stroke-linecap: round;
        stroke-width: 3px;
      }
    </style>
  </defs>
  <title>bssl_11500px</title>
  <g id="Layer_2" data-name="Layer 2">
    <g id="Layer_1-2" data-name="Layer 1">
      <rect class="cls-1" x="0.5" y="0.5" width="1080" height="1080"/>
      <g>
        <path class="cls-2" d="M184.2,397.33h41.32V651.11H184.2ZM304,517.5a58.74,58.74,0,0,1,16.87,5.17,59.74,59.74,0,0,1,16.7,11.71,63.87,63.87,0,0,1,12.91,18.42q5.17,10.85,5.17,25,0,17.22-5.17,29.61a65.85,65.85,0,0,1-12.91,20.49,62.91,62.91,0,0,1-16.87,12.74,98.39,98.39,0,0,1-17.56,7.06,77.52,77.52,0,0,1-15,2.93q-6.54.52-8.61.52H239.64v-30.3h37.53q18.25,0,28.58-11.71t10.33-31.33q0-18.59-10.67-31.33t-31.33-12.74H239.64V505.8h16.53q7.57,0,15.5-.34a36.19,36.19,0,0,0,14.81-3.79q6.88-3.44,11.19-11.71T302,466.2a52,52,0,0,0-1.72-12.91,27.88,27.88,0,0,0-6.89-12.22q-5.17-5.5-14.81-9t-25.48-3.44H239.64V397.33H257.2a128.85,128.85,0,0,1,31.33,3.79,79.63,79.63,0,0,1,26.86,12.05A59.47,59.47,0,0,1,334,434.69q6.88,13.26,6.89,31.51a52.94,52.94,0,0,1-3.44,19.46A59.72,59.72,0,0,1,328.83,501a48.21,48.21,0,0,1-11.88,10.85A40.28,40.28,0,0,1,304,517.5Z"/>
        <path class="cls-2" d="M417.32,604.62A73.79,73.79,0,0,0,429.54,610q7.4,2.58,15.32,4.82a155.35,155.35,0,0,0,15.84,3.62,86.48,86.48,0,0,0,14.81,1.38h1v32.71h-.69q-8.26,0-17-.86a138.63,138.63,0,0,1-17.73-2.93A92.66,92.66,0,0,1,424,643a54.43,54.43,0,0,1-13.95-8.78Zm-5.51-140.49a68.45,68.45,0,0,1,5.17-27.2,70.05,70.05,0,0,1,13.95-21.18,65.88,65.88,0,0,1,20.66-14.46,89,89,0,0,1,25-7.06v36.16a38.15,38.15,0,0,0-18.25,13.26q-7.23,9.47-7.23,19.11,0,13.43,7.23,21.69a68.61,68.61,0,0,0,18.25,14.46v39.25q-11.36-5.5-22.73-11.88a107.88,107.88,0,0,1-20.66-15,74.56,74.56,0,0,1-15.32-20Q411.81,480,411.81,464.13Zm118.8-27.55a20.3,20.3,0,0,1-4.13-2.41,27.8,27.8,0,0,0-6.89-3.27,65.08,65.08,0,0,0-11.36-2.58,85.33,85.33,0,0,0-17.56-.34V393.2a192,192,0,0,1,30.82,3.27q15.66,2.93,25.31,9.13-2.07,4.48-4.82,9.81l-5.17,10q-2.41,4.65-4.13,7.75A30,30,0,0,1,530.61,436.59ZM490.66,505.8q11.36,5.17,23.24,11a99.09,99.09,0,0,1,21.52,14.29,68.68,68.68,0,0,1,15.84,20.49q6.2,12.06,6.2,30a64.74,64.74,0,0,1-4.65,24.1,71,71,0,0,1-13.08,21.18,73.39,73.39,0,0,1-20.83,16,83,83,0,0,1-28.24,8.61V618.4q28.23-6.88,28.24-37.53,0-12-7.92-20a91.37,91.37,0,0,0-20.32-14.81Z"/>
        <path class="cls-2" d="M604,604.62A73.8,73.8,0,0,0,616.17,610q7.4,2.58,15.32,4.82a155.39,155.39,0,0,0,15.84,3.62,86.48,86.48,0,0,0,14.81,1.38h1v32.71h-.69q-8.26,0-17-.86a138.61,138.61,0,0,1-17.73-2.93,92.63,92.63,0,0,1-17-5.68,54.44,54.44,0,0,1-13.95-8.78Zm-5.51-140.49a68.45,68.45,0,0,1,5.17-27.2,70.05,70.05,0,0,1,13.95-21.18,65.87,65.87,0,0,1,20.66-14.46,89,89,0,0,1,25-7.06v36.16a38.15,38.15,0,0,0-18.25,13.26q-7.23,9.47-7.23,19.11,0,13.43,7.23,21.69a68.6,68.6,0,0,0,18.25,14.46v39.25q-11.36-5.5-22.73-11.88a107.88,107.88,0,0,1-20.66-15,74.56,74.56,0,0,1-15.32-20Q598.44,480,598.44,464.13Zm118.8-27.55a20.3,20.3,0,0,1-4.13-2.41,27.8,27.8,0,0,0-6.89-3.27,65.1,65.1,0,0,0-11.36-2.58,85.34,85.34,0,0,0-17.56-.34V393.2a192,192,0,0,1,30.82,3.27q15.67,2.93,25.31,9.13-2.07,4.48-4.82,9.81l-5.17,10Q721,430,719.3,433.14A29.92,29.92,0,0,1,717.24,436.59ZM677.29,505.8q11.36,5.17,23.24,11a99.09,99.09,0,0,1,21.52,14.29,68.67,68.67,0,0,1,15.84,20.49q6.2,12.06,6.2,30a64.76,64.76,0,0,1-4.65,24.1,71,71,0,0,1-13.08,21.18,73.4,73.4,0,0,1-20.83,16,83,83,0,0,1-28.24,8.61V618.4q28.23-6.88,28.24-37.53,0-12-7.92-20a91.37,91.37,0,0,0-20.32-14.81Z"/>
        <path class="cls-2" d="M829.49,397.33V619.77H946.22v31.33H787.48V397.33Z"/>
      </g>
      <path class="cls-3" d="M465.41,920.56a19.74,19.74,0,0,1,28-.38c9.83,9.46,9.83,25.34.38,35.17-12.1,12.1-31.77,12.48-43.87.38a38.81,38.81,0,0,1-.38-54.84c18.91-18.91,49.55-19.29,68.46-.38a60.38,60.38,0,0,1,.76,85.47c-29.12,29.88-77.15,30.26-107,.76-37.06-36.69-37.82-96.44-1.13-133.51,45.76-46.9,120.65-47.28,167.17-1.51,58.24,57.11,59,150.9,1.51,208.77"/>
      <path class="cls-3" d="M387.5,975.4c-14.75,7.56-23.45,19.29-21.18,39,1.51,30.63,16.26,45,42,45.76h218.6c22.31,0,43.12-9.83,43.12-38.58V780.63c.76-11.35-6.05-35.93-29.88-35.93H611c-17,0-31.39,13.62-31.39,32.53v75.64"/>
      <circle class="cls-4" cx="626.91" cy="779.49" r="7.94"/>
      <circle class="cls-4" cx="630.31" cy="779.11" r="4.16"/>
    </g>
  </g>
</svg>
