<svg xmlns="http://www.w3.org/2000/svg" viewBox="0 0 440.22 440.1"><defs><style>.cls-1{fill:#fefefe;}.cls-2{fill:none;}.cls-3{fill:#f6b41d;}.cls-4{fill:#f6b41c;}.cls-5{fill:#dce22d;}.cls-6{fill:#006e4a;}.cls-7{fill:#006c47;}</style></defs><g id="Layer_2" data-name="Layer 2"><g id="Layer_1-2" data-name="Layer 1"><g id="_5uMfoi.tif" data-name="5uMfoi.tif"><path class="cls-1" d="M220.17,0C341.69,0,440.39,98.83,440.22,220.27S341.44,440.2,220.07,440.1C98.45,440-.14,341.35,0,219.9S98.77,0,220.17,0Zm85.21,212.75c0-.36,0-.54-.06-.65Q282.91,177,260.47,141.87c-2.45-3.82-2.63-4.91,0-8.65q10.23-14.73,20.44-29.47l20.61-29.64a2.05,2.05,0,0,0,.52-1.84c-.32-.93-1.14-.39-1.7-.4-4.5-.06-9,.1-13.48-.13-3.64-.19-6,1.16-8,4.24-11.78,18.37-23.7,36.65-35.58,55-.6.91-1.23,1.8-2.22,3.27,0-12.41,0-24,0-35.69q0-11.61.07-23.22c0-2.12-.65-3.64-3.08-3.49a104.14,104.14,0,0,1-11.72,0c-2.15-.1-3.26,1-3.23,3.15,0,.91,0,1.83,0,2.74q0,66.18,0,132.34c0,2.3.84,2.84,2.9,2.79,3.58-.1,7.16-.07,10.74,0,3.74.11,4.4-.42,4.4-4.18,0-9.5,0-19-.06-28.52q0-17.22,0-34.45v-3c.68,1,1,1.41,1.19,1.8q20.24,33.12,40.45,66.24c.61,1,1.19,2,2.54,2C291.94,212.76,298.65,212.75,305.38,212.75ZM52.27,240.33c-.07-.2-.19-.5-.29-.82a264.45,264.45,0,0,1-7.9-27.76c-.52-2.38-1.79-2.56-3.77-2.14q-17.9,3.81-35.79,7.55c-1.6.33-2.3.86-1.88,2.89,2.42,11.55,6.15,22.72,9.67,34,.49,1.56,1.38,1.82,2.85,1.29q17.65-6.41,35.34-12.74C51.46,242.21,52.34,241.71,52.27,240.33Zm91.44,108.95c-.29-1.12-1.27-1.52-2.06-2.06a219.26,219.26,0,0,1-21.8-16.59c-2.46-2.15-2.74-2.16-5,.38-7.9,8.87-15.75,17.79-23.67,26.65-1.52,1.7-1.33,2.94.36,4.37a318.18,318.18,0,0,0,26.81,20.31c2.5,1.69,3.06,1.57,4.75-1Q133,366,142.8,350.77C143.11,350.28,143.4,349.78,143.71,349.28ZM70,273.09c-.35.18-.94.47-1.52.79-2.17,1.21-4.33,2.44-6.5,3.66q-12.5,7-25,14c-1.49.85-2.83,1.57-1.48,3.82a337.52,337.52,0,0,0,19.19,28.86c1.11,1.5,2.29,1.73,3.78.57q14.9-11.52,29.8-23c1-.75,1.22-1.53.45-2.53A229.82,229.82,0,0,1,72,274.19,1.81,1.81,0,0,0,70,273.09Zm140.68,106.3c.09-1.77-.1-2-2.07-2.58a194.9,194.9,0,0,1-26.23-9.37c-2.08-.95-3.27-.56-4.24,1.65-4.77,11-9.66,21.85-14.52,32.77-1.24,2.76-1.2,2.92,1.7,4.17a264.87,264.87,0,0,0,32.38,11.47c2,.56,2.65.07,3.13-1.8,2.07-7.93,4.26-15.83,6.41-23.74C208.42,387.65,209.61,383.34,210.69,379.39Zm57.76,49.46c6,0,10.7,0,15.36,0,2.51,0,3.16-.77,3-3.14-.76-12.19-1.53-24.38-2.23-36.57-.11-1.94-.95-2.71-2.8-2.58a192.89,192.89,0,0,1-27.41-.2c-3.28-.22-4,.6-4.29,3.94-.22,3.15-.51,6.3-.78,9.44-.74,8.53-1.47,17.06-2.27,25.58-.21,2.22.81,3,2.85,3.05C256.53,428.63,263.18,429.1,268.45,428.85ZM280.07,344c0-2.5,0-5,0-7.48,0-1.15-.34-1.91-1.64-2-5-.47-9.91-1-14.87-1.47-1.81-.18-2.8.6-3,2.45-.35,2.72-.81,5.42-1.2,8.13-1.09,7.55-2.13,15.12-3.27,22.67-.33,2.17.28,3.27,2.61,3.45,5.8.43,11.58,1,17.38,1.51a2.32,2.32,0,0,0,2.81-2.65C278.64,360.31,280.33,352.18,280.07,344Zm-114.26-3c1.22.25,1.71-.73,2.21-1.57,5.5-9.18,10.95-18.39,16.49-27.56.81-1.35.47-2-.7-2.81-4.09-2.69-8.18-5.38-12.19-8.18-1.67-1.17-2.78-.94-4,.65q-9.25,12.58-18.6,25.1c-1.38,1.83-1.1,3.08.76,4.29,4.66,3,9.27,6.14,13.91,9.22A3.14,3.14,0,0,0,165.81,341ZM84.21,263a8.87,8.87,0,0,0,1.21-.46q14.47-7.78,29-15.58a1.55,1.55,0,0,0,.75-2.42c-2.29-4.71-4.57-9.42-6.78-14.16-.62-1.32-1.41-1.74-2.75-1.17L75.37,242.14c-1.45.62-1.76,1.58-1.07,3,2.67,5.45,5.3,10.91,8,16.37C82.62,262.25,83,263,84.21,263Zm50.71,6.47a3,3,0,0,0-2.08.89c-8.29,6.15-16.54,12.33-24.87,18.41-1.86,1.36-2,2.5-.55,4.24q5.58,6.56,11,13.28c1.25,1.58,2.35,1.57,3.71.34Q134,296,145.89,285.37c1.19-1.06,1.49-2,.36-3.38-3.16-3.76-6.24-7.58-9.35-11.38C136.37,270,135.82,269.31,134.92,269.51ZM67.6,154.7v0c5.16,0,10.31-.06,15.46,0,2.1,0,3.11-.74,3.11-2.86,0-4.41.16-8.8.55-13.19.27-3.12-.47-3.77-3.59-4-10-.86-20-1.68-30-2.64-2.36-.23-3.22.79-3.3,2.88-.21,5.56-.32,11.12-.62,16.68-.13,2.46.88,3.19,3.21,3.14C57.46,154.62,62.53,154.7,67.6,154.7ZM231.91,328.88c.31-1.52-.8-1.93-1.8-2.29-4.52-1.64-9.07-3.19-13.57-4.85-1.65-.6-2.7-.24-3.38,1.39Q207,338,200.84,352.75a2.12,2.12,0,0,0,1.4,3.15c5.68,2,11.39,4,17.06,6.09,2.06.75,2.82-.14,3.35-2,1.74-6,3.58-12.05,5.38-18.07C229.33,337.57,230.63,333.2,231.91,328.88ZM55.17,194c1.75,6.4,3.46,12.8,5.28,19.17.3,1,1.29,1.08,2.31.75q15.51-5,31.05-9.87c1.45-.46,1.94-1.2,1.5-2.77-1.4-4.95-2.74-9.91-3.93-14.9-.41-1.7-1.29-1.91-2.7-1.59-2.74.64-5.49,1.28-8.24,1.9-7.68,1.73-15.36,3.44-23,5.18C56.28,192.09,55,192.22,55.17,194ZM245.74,318.89c1.81.29,2.47-.23,2.82-1.21.17-.46.36-.93.49-1.4q3.4-12.46,6.79-24.92c.28-1.05,1-2.28-.75-2.84-2.52-.81-5.05-1.61-7.55-2.48-1.81-.63-2.84.09-3.46,1.75-2.9,7.76-5.52,15.62-9.19,23.08-1.2,2.44-.44,4.42,1.77,5.49C239.75,317.85,243.24,318,245.74,318.89ZM112.39,118.25c-1.31,0-2,.81-2.18,2.29-.39,3-.76,6.09-1.33,9.11-.42,2.19.31,2.95,2.5,3.16,8.92.85,17.83,1.83,26.73,2.83,1.89.21,2.43-.91,2.52-2.31a52.46,52.46,0,0,1,1.05-7.38c.3-1.49-.1-2.54-1.9-2.8-3.12-.46-6.2-1.13-9.3-1.68Zm34.87,73.27c-.36-2.72-1.62-5.18-2.32-7.81-.44-1.64-1.52-1.81-2.86-1.46-8.73,2.27-17.45,4.59-26.19,6.83-1.86.47-2.15,1.55-1.65,3.14,1,3.07,2.06,6.1,2.82,9.22.47,1.89,1.48,1.95,2.9,1.51,8.27-2.58,16.31-5.87,24.75-7.93A3,3,0,0,0,147.26,191.52ZM223.94,281c-.35-3-2.67-3.6-4.73-4.37-1.77-.66-3.49-2.35-5.24-1.92-2,.48-2.09,3.1-3.09,4.75-4.14,6.78-7.48,14-11.38,20.9-.74,1.31-.41,1.92.8,2.5,3,1.44,6,2.84,8.91,4.45,2,1.12,3,.71,3.94-1.42,3.34-7.57,6.11-15.39,10-22.69A13,13,0,0,0,223.94,281Zm58.64,20c0-1.83.05-3.66,0-5.49-.09-2.73-1.22-3.78-3.93-3.5a20.62,20.62,0,0,1-4.71.13c-3.16-.41-3.65,0-3.84,3.18-.5,8.54-.95,17.09-1.49,25.63-.14,2.17.76,3,2.87,3,2.83-.05,5.65,0,8.48,0,3.28,0,3.46-.4,3.59-3.77C283.79,313.78,282.63,307.44,282.58,301Zm-93.21-42c-.45.42-1,.83-1.41,1.31-6.16,6.65-12.3,13.33-18.48,20-1.22,1.31-1.32,2.33.13,3.52,2.51,2.06,5,4.19,7.4,6.32,1.48,1.3,2.68,1,3.79-.46,5.3-6.93,10.49-14,16.23-20.54.81-.92,1.38-2.21.57-3.2-2.2-2.72-5.44-4.3-7.92-6.74A1.83,1.83,0,0,0,189.37,259.08ZM134.94,51.31c-1.05-.11-1.43.66-1.84,1.39-1.57,2.74-3.07,5.51-4.71,8.2-1.07,1.76-.73,2.9,1.06,3.81q12.06,6.15,24.08,12.36c1.33.69,2.1.39,2.79-.88q1.78-3.28,3.76-6.45c1.06-1.7.75-2.83-1-3.88-7.41-4.52-14.77-9.11-22.15-13.68A4.08,4.08,0,0,0,134.94,51.31Zm18.4,213.19a16.37,16.37,0,0,0,1.74-1.08c7.11-5.61,14.2-11.25,21.34-16.82,1.2-.94,1.27-1.67.36-2.85-1.62-2.1-3.14-4.28-4.63-6.48-1-1.39-2-1.51-3.35-.6q-11.36,7.67-22.75,15.28c-1.2.8-1.52,1.6-.59,2.85,2.14,2.86,4.21,5.78,6.32,8.66A2.15,2.15,0,0,0,153.34,264.5ZM119.71,82.24c-.88-.12-1.27.35-1.58,1.17-1.22,3.25-2.5,6.48-3.81,9.7-.65,1.62-.06,2.45,1.51,3q12.83,4.38,25.61,8.88c1.67.59,2.48,0,3-1.5.77-2.1,1.57-4.18,2.42-6.25,1.1-2.69,1-3.11-1.77-4.28q-11.76-5.07-23.52-10.12C121,82.57,120.47,82.08,119.71,82.24Zm36.16-61-8.2,9.82c-.95,1.14-.71,2,.48,2.88Q159,42.12,169.78,50.37c1.57,1.21,2.58.9,3.68-.63a62.19,62.19,0,0,1,4.3-5.16c1.27-1.37,1.38-2.51-.07-3.8C170.44,34.32,163.21,27.83,155.87,21.26ZM132.64,234a12.17,12.17,0,0,0,1.21-.45L158.56,222a1.48,1.48,0,0,0,.85-2.29c-1.24-2.71-2.38-5.46-3.53-8.21-.4-.95-.8-1.49-2-1q-13,5.06-26.16,10c-1.5.57-1.87,1.49-1.27,2.91,1.33,3.13,2.64,6.26,4,9.38A1.77,1.77,0,0,0,132.64,234Zm-24-73.83h.07c0,1.32,0,2.65,0,4,0,2.4.73,3.08,3.17,2.92,1.49-.1,3-.31,4.46-.41,7-.48,13.91-.9,20.85-1.43,2.83-.21,3.63-1.19,3.53-4-.09-2.23-.69-4.41-.54-6.67.09-1.48-.89-2.05-2.24-2-8.81,0-17.61.07-26.41.18-2,0-3,1.15-2.91,3.22C108.69,157.36,108.64,158.77,108.64,160.19Zm101.93-99a10.17,10.17,0,0,0-.8-1c-4.05-4.16-8.09-8.32-12.18-12.44a2.62,2.62,0,0,0-4.13,0c-.76.76-1.43,1.62-2.21,2.35-1.61,1.5-1.34,2.69.26,4.08,4.2,3.63,8.3,7.37,12.41,11.1a1.66,1.66,0,0,0,2.42.11c1.23-1,2.44-2,3.65-3A1.21,1.21,0,0,0,210.57,61.16ZM247,14.71c-2,.38-4.08.72-6.1,1.15a1.47,1.47,0,0,0-1.25,1.85q1.93,8.71,4,17.39c.27,1.14,1.19,2.06,2.38,1.67,1.69-.55,4,.14,4.95-2.07a2,2,0,0,0,0-1c-.66-5.69-1.31-11.37-2-17.06C248.88,15.53,248.53,14.52,247,14.71ZM219.13,263.05a2.63,2.63,0,0,0,1.58-1.35c2.82-3.81,5.66-7.59,8.42-11.44s2.69-3.85-.92-7.16c-1.62-1.48-2.53-1-3.65.3-3.19,3.73-6.39,7.45-9.56,11.18-2.68,3.15-2.68,3.17.64,5.87C216.79,261.38,218,262.23,219.13,263.05Zm58.81,4.7a69.28,69.28,0,0,0-.32-8.36c-.16-1.66-.73-2.66-2.61-2.44a20.9,20.9,0,0,1-3,.07c-1,0-1.6.41-1.67,1.42q-.67,9.17-1.31,18.35c0,.6,0,1.16.8,1.28,2.38.34,4.73.86,7.14.13,1.15-.35,1.78-1,1.47-2.18C277.75,273.4,278.35,270.72,277.94,267.75Zm-65.13-38.49c-.72-1.92-2.47-3.18-3.68-4.84-.65-.89-1-.58-1.69-.08-3.77,3-7.59,5.89-11.34,8.9-4.6,3.69-4.54,3.7-.67,8.29,1.36,1.61,2.44,1.85,4.07.34,4.08-3.76,8.28-7.41,12.45-11.08A1.94,1.94,0,0,0,212.81,229.26ZM229,43.57c-.23-.45-.45-.89-.67-1.34-1.93-3.85-3.83-7.72-5.78-11.57-2.94-5.76-3.43-5.84-8.84-2.22-1.6,1.07-1.76,2-.69,3.64,2.66,4,5.17,8.1,7.73,12.17,2.41,3.83,2.41,3.83,6.32,1.37a15.38,15.38,0,0,0,1.41-1C228.76,44.34,229.1,44.07,229,43.57Zm17.15,230.12a2.06,2.06,0,0,0,2.2-1.73c1.79-5.53,3.56-11.07,5.43-16.58.33-1,.22-1.66-.65-2-1.5-.66-3.05-1.22-4.61-1.73-.76-.25-1.26.24-1.55.91q-3.54,8.16-7.07,16.32a1.94,1.94,0,0,0,1,2.72C242.56,272.38,244.36,273,246.11,273.69Zm-88-142.38c-.27,3.62-.28,3.71,3.35,4.1,4.87.52,9.76.94,14.65,1.29,2.89.21,3.34-.27,3.51-3.09a7.31,7.31,0,0,1,.06-1.24c.61-2.57-.73-3.33-3-3.59-4.36-.5-8.71-1.12-13-1.8C159.83,126.39,157.85,126.39,158.08,131.31Zm27.57-26a1.6,1.6,0,0,0-1.24-2.11c-2.59-.8-5.13-1.77-7.69-2.67s-4.94-1.8-7.45-2.56c-1.3-.39-2.94-1-3.81.57a10.35,10.35,0,0,0-1.61,6.57c0,.29.76.56,1.21.69q8.55,2.49,17.12,4.92c.81.23,1.65.34,2-.8C184.65,108.32,185.17,106.76,185.65,105.28Zm-6.44-35.17c-3.1.28-3.37,2.52-4.4,4-1.33,1.86-1.09,3.21,1.19,4.29,4,1.86,7.81,4,11.7,6,4.84,2.52,4.79,2.49,7.39-2.33.7-1.3.66-2-.65-2.82-4.56-2.7-9.07-5.49-13.61-8.23C180.14,70.59,179.44,70.06,179.21,70.11Zm88.86-48.35h.12c0,1.9-.08,3.82,0,5.72.24,4.93.28,4.88,5.2,5.17,1.84.1,2.59-.68,2.66-2.41.16-4.14.38-8.28.5-12.43.21-7.11.65-6.42-6.53-6.53-1.87,0-2.57.78-2.46,2.53C267.74,16.47,267.91,19.11,268.07,21.76ZM179.61,158.93c0-3.65-.8-4.65-3.94-4.19-4.06.58-8.13.35-12.19.53-5.3.23-5.87.84-5.24,6.08,0,.08,0,.16,0,.25.14,1.88,1,2.82,3,2.61,4.87-.49,9.74-1,14.64-1.17C179.18,163,179.64,162.25,179.61,158.93Zm-1.4,59.67a3.09,3.09,0,0,0,.58-.16c5.43-2.64,10.87-5.25,16.26-8a1.69,1.69,0,0,0,.71-2.68,30.07,30.07,0,0,1-1.67-3.59c-.4-.86-1.05-1.36-2-1-5.4,2.27-10.79,4.54-16.14,6.91a2.2,2.2,0,0,0-1.27,3.09c.89,1.86,1.17,4.12,3.14,5.36C177.89,218.63,178,218.6,178.21,218.6Zm-11.79-25.78c.5-.08.75-.09,1-.16,5.72-1.51,11.45-3,17.18-4.54a1.34,1.34,0,0,0,1-1.89c-1.38-5.14-.24-6.94-7-4.75-.32.1-.65.12-1,.19-3.87.82-7.75,1.58-11.6,2.51-1.39.33-2.64,1.15-2.49,2.93a8.89,8.89,0,0,0,2.14,5.59C165.89,192.89,166.34,192.81,166.42,192.82Z"/><path class="cls-2" d="M305.38,212.75c-6.73,0-13.44,0-20.16,0-1.35,0-1.93-1-2.54-2q-20.22-33.12-40.45-66.24c-.24-.39-.51-.77-1.19-1.8v3q0,17.22,0,34.45c0,9.51.06,19,.06,28.52,0,3.76-.66,4.29-4.4,4.18-3.58-.1-7.16-.13-10.74,0-2.06.05-2.91-.49-2.9-2.79q.08-66.17,0-132.34c0-.91,0-1.83,0-2.74,0-2.19,1.08-3.25,3.23-3.15a104.14,104.14,0,0,0,11.72,0c2.43-.15,3.09,1.37,3.08,3.49q-.06,11.61-.07,23.22c0,11.64,0,23.28,0,35.69,1-1.47,1.62-2.36,2.22-3.27,11.88-18.3,23.8-36.58,35.58-54.95,2-3.08,4.34-4.43,8-4.24,4.48.23,9,.07,13.48.13.56,0,1.38-.53,1.7.4a2.05,2.05,0,0,1-.52,1.84l-20.61,29.64q-10.22,14.73-20.44,29.47c-2.59,3.74-2.41,4.83,0,8.65q22.5,35.07,44.85,70.23C305.39,212.21,305.35,212.39,305.38,212.75Z"/><path class="cls-3" d="M52.27,240.33c.07,1.38-.81,1.88-1.77,2.23q-17.67,6.38-35.34,12.74c-1.47.53-2.36.27-2.85-1.29-3.52-11.24-7.25-22.41-9.67-34-.42-2,.28-2.56,1.88-2.89q17.9-3.76,35.79-7.55c2-.42,3.25-.24,3.77,2.14A264.45,264.45,0,0,0,52,239.51C52.08,239.83,52.2,240.13,52.27,240.33Z"/><path class="cls-3" d="M143.71,349.28c-.31.5-.6,1-.91,1.49Q133,366,123.11,381.3c-1.69,2.61-2.25,2.73-4.75,1A318.18,318.18,0,0,1,91.55,362c-1.69-1.43-1.88-2.67-.36-4.37C99.11,348.8,107,339.88,114.86,331c2.25-2.54,2.53-2.53,5-.38a219.26,219.26,0,0,0,21.8,16.59C142.44,347.76,143.42,348.16,143.71,349.28Z"/><path class="cls-3" d="M70,273.09a1.81,1.81,0,0,1,2,1.1,229.82,229.82,0,0,0,16.71,25.1c.77,1,.52,1.78-.45,2.53q-14.91,11.49-29.8,23c-1.49,1.16-2.67.93-3.78-.57A337.52,337.52,0,0,1,35.53,295.4c-1.35-2.25,0-3,1.48-3.82q12.48-7,25-14c2.17-1.22,4.33-2.45,6.5-3.66C69.07,273.56,69.66,273.27,70,273.09Z"/><path class="cls-3" d="M210.69,379.39c-1.08,3.95-2.27,8.26-3.44,12.57-2.15,7.91-4.34,15.81-6.41,23.74-.48,1.87-1.16,2.36-3.13,1.8A264.87,264.87,0,0,1,165.33,406c-2.9-1.25-2.94-1.41-1.7-4.17,4.86-10.92,9.75-21.81,14.52-32.77,1-2.21,2.16-2.6,4.24-1.65a194.9,194.9,0,0,0,26.23,9.37C210.59,377.38,210.78,377.62,210.69,379.39Z"/><path class="cls-4" d="M268.45,428.85c-5.27.25-11.92-.22-18.56-.49-2-.08-3.06-.83-2.85-3.05.8-8.52,1.53-17.05,2.27-25.58.27-3.14.56-6.29.78-9.44.24-3.34,1-4.16,4.29-3.94a192.89,192.89,0,0,0,27.41.2c1.85-.13,2.69.64,2.8,2.58.7,12.19,1.47,24.38,2.23,36.57.15,2.37-.5,3.12-3,3.14C279.15,428.88,274.49,428.85,268.45,428.85Z"/><path class="cls-5" d="M280.07,344c.26,8.23-1.43,16.36-1.22,24.58a2.32,2.32,0,0,1-2.81,2.65c-5.8-.5-11.58-1.08-17.38-1.51-2.33-.18-2.94-1.28-2.61-3.45,1.14-7.55,2.18-15.12,3.27-22.67.39-2.71.85-5.41,1.2-8.13.24-1.85,1.23-2.63,3-2.45,5,.49,9.91,1,14.87,1.47,1.3.12,1.65.88,1.64,2C280.06,339,280.07,341.45,280.07,344Z"/><path class="cls-5" d="M165.81,341a3.14,3.14,0,0,1-2.07-.86c-4.64-3.08-9.25-6.19-13.91-9.22-1.86-1.21-2.14-2.46-.76-4.29q9.36-12.5,18.6-25.1c1.17-1.59,2.28-1.82,4-.65,4,2.8,8.1,5.49,12.19,8.18,1.17.77,1.51,1.46.7,2.81-5.54,9.17-11,18.38-16.49,27.56C167.52,340.25,167,341.23,165.81,341Z"/><path class="cls-5" d="M84.21,263c-1.21,0-1.59-.79-2-1.54-2.65-5.46-5.28-10.92-8-16.37-.69-1.41-.38-2.37,1.07-3l30.23-12.89c1.34-.57,2.13-.15,2.75,1.17,2.21,4.74,4.49,9.45,6.78,14.16a1.55,1.55,0,0,1-.75,2.42q-14.49,7.77-29,15.58A8.87,8.87,0,0,1,84.21,263Z"/><path class="cls-5" d="M134.92,269.51c.9-.2,1.45.44,2,1.1,3.11,3.8,6.19,7.62,9.35,11.38,1.13,1.35.83,2.32-.36,3.38Q134,296,122.08,306.67c-1.36,1.23-2.46,1.24-3.71-.34q-5.36-6.74-11-13.28c-1.47-1.74-1.31-2.88.55-4.24,8.33-6.08,16.58-12.26,24.87-18.41A3,3,0,0,1,134.92,269.51Z"/><path class="cls-5" d="M67.6,154.7c-5.07,0-10.14-.08-15.21,0-2.33.05-3.34-.68-3.21-3.14.3-5.56.41-11.12.62-16.68.08-2.09.94-3.11,3.3-2.88,10,1,20,1.78,30,2.64,3.12.27,3.86.92,3.59,4-.39,4.39-.56,8.78-.55,13.19,0,2.12-1,2.9-3.11,2.86-5.15-.08-10.3,0-15.46,0Z"/><path class="cls-5" d="M231.91,328.88c-1.28,4.32-2.58,8.69-3.88,13.06-1.8,6-3.64,12-5.38,18.07-.53,1.84-1.29,2.73-3.35,2-5.67-2.08-11.38-4.05-17.06-6.09a2.12,2.12,0,0,1-1.4-3.15q6.16-14.81,12.32-29.62c.68-1.63,1.73-2,3.38-1.39,4.5,1.66,9.05,3.21,13.57,4.85C231.11,327,232.22,327.36,231.91,328.88Z"/><path class="cls-5" d="M55.17,194c-.22-1.75,1.11-1.88,2.23-2.13,7.68-1.74,15.36-3.45,23-5.18,2.75-.62,5.5-1.26,8.24-1.9,1.41-.32,2.29-.11,2.7,1.59,1.19,5,2.53,10,3.93,14.9.44,1.57,0,2.31-1.5,2.77q-15.54,4.9-31.05,9.87c-1,.33-2,.29-2.31-.75C58.63,206.77,56.92,200.37,55.17,194Z"/><path class="cls-6" d="M245.74,318.89c-2.5-.9-6-1-9.08-2.53-2.21-1.07-3-3.05-1.77-5.49,3.67-7.46,6.29-15.32,9.19-23.08.62-1.66,1.65-2.38,3.46-1.75,2.5.87,5,1.67,7.55,2.48,1.73.56,1,1.79.75,2.84q-3.37,12.47-6.79,24.92c-.13.47-.32.94-.49,1.4C248.21,318.66,247.55,319.18,245.74,318.89Z"/><path class="cls-6" d="M112.39,118.25l18.09,3.22c3.1.55,6.18,1.22,9.3,1.68,1.8.26,2.2,1.31,1.9,2.8a52.46,52.46,0,0,0-1.05,7.38c-.09,1.4-.63,2.52-2.52,2.31-8.9-1-17.81-2-26.73-2.83-2.19-.21-2.92-1-2.5-3.16.57-3,.94-6.07,1.33-9.11C110.4,119.06,111.08,118.26,112.39,118.25Z"/><path class="cls-6" d="M147.26,191.52a3,3,0,0,1-2.55,3.5c-8.44,2.06-16.48,5.35-24.75,7.93-1.42.44-2.43.38-2.9-1.51-.76-3.12-1.87-6.15-2.82-9.22-.5-1.59-.21-2.67,1.65-3.14,8.74-2.24,17.46-4.56,26.19-6.83,1.34-.35,2.42-.18,2.86,1.46C145.64,186.34,146.9,188.8,147.26,191.52Z"/><path class="cls-6" d="M223.94,281a13,13,0,0,1-.75,2.2c-3.93,7.3-6.7,15.12-10,22.69-.94,2.13-1.91,2.54-3.94,1.42-2.9-1.61-5.92-3-8.91-4.45-1.21-.58-1.54-1.19-.8-2.5,3.9-6.91,7.24-14.12,11.38-20.9,1-1.65,1.08-4.27,3.09-4.75,1.75-.43,3.47,1.26,5.24,1.92C221.27,277.4,223.59,278,223.94,281Z"/><path class="cls-6" d="M282.58,301c.05,6.4,1.21,12.74,1,19.17-.13,3.37-.31,3.78-3.59,3.77-2.83,0-5.65,0-8.48,0-2.11,0-3-.83-2.87-3,.54-8.54,1-17.09,1.49-25.63.19-3.16.68-3.59,3.84-3.18a20.62,20.62,0,0,0,4.71-.13c2.71-.28,3.84.77,3.93,3.5C282.63,297.38,282.58,299.21,282.58,301Z"/><path class="cls-6" d="M189.37,259.08a1.83,1.83,0,0,1,.31.17c2.48,2.44,5.72,4,7.92,6.74.81,1,.24,2.28-.57,3.2-5.74,6.59-10.93,13.61-16.23,20.54-1.11,1.45-2.31,1.76-3.79.46-2.44-2.13-4.89-4.26-7.4-6.32-1.45-1.19-1.35-2.21-.13-3.52,6.18-6.63,12.32-13.31,18.48-20C188.41,259.91,188.92,259.5,189.37,259.08Z"/><path class="cls-6" d="M134.94,51.3a4.18,4.18,0,0,1,2,.88c7.38,4.57,14.74,9.16,22.15,13.68,1.72,1,2,2.18,1,3.88q-2,3.17-3.76,6.45c-.69,1.27-1.46,1.57-2.79.88q-12-6.22-24.08-12.36c-1.79-.91-2.13-2-1.06-3.81,1.64-2.69,3.14-5.46,4.71-8.2C133.51,52,133.89,51.2,134.94,51.3Z"/><path class="cls-6" d="M153.34,264.5a2.15,2.15,0,0,1-1.56-1c-2.11-2.88-4.18-5.8-6.32-8.66-.93-1.25-.61-2.05.59-2.85q11.4-7.6,22.75-15.28c1.36-.91,2.39-.79,3.35.6,1.49,2.2,3,4.38,4.63,6.48.91,1.18.84,1.91-.36,2.85-7.14,5.57-14.23,11.21-21.34,16.82A16.37,16.37,0,0,1,153.34,264.5Z"/><path class="cls-6" d="M119.71,82.24c.76-.16,1.29.33,1.89.59q11.76,5,23.52,10.12c2.72,1.17,2.87,1.59,1.77,4.28-.85,2.07-1.65,4.15-2.42,6.25-.55,1.51-1.36,2.09-3,1.5q-12.78-4.52-25.61-8.88c-1.57-.54-2.16-1.37-1.51-3,1.31-3.22,2.59-6.45,3.81-9.7C118.44,82.59,118.83,82.12,119.71,82.24Z"/><path class="cls-6" d="M155.87,21.26c7.34,6.57,14.57,13.06,21.82,19.52,1.45,1.29,1.34,2.43.07,3.8a62.19,62.19,0,0,0-4.3,5.16c-1.1,1.53-2.11,1.84-3.68.63Q159,42.11,148.15,34c-1.19-.89-1.43-1.74-.48-2.88Z"/><path class="cls-6" d="M132.64,234a1.77,1.77,0,0,1-2.24-1.26c-1.34-3.12-2.65-6.25-4-9.38-.6-1.42-.23-2.34,1.27-2.91q13.09-5,26.16-10c1.23-.48,1.63.06,2,1,1.15,2.75,2.29,5.5,3.53,8.21a1.48,1.48,0,0,1-.85,2.29l-24.71,11.59A12.17,12.17,0,0,1,132.64,234Z"/><path class="cls-7" d="M108.64,160.19c0-1.42,0-2.83,0-4.24-.09-2.07.93-3.2,2.91-3.22,8.8-.11,17.6-.13,26.41-.18,1.35,0,2.33.56,2.24,2-.15,2.26.45,4.44.54,6.67.1,2.8-.7,3.78-3.53,4-6.94.53-13.9.95-20.85,1.43-1.49.1-3,.31-4.46.41-2.44.16-3.16-.52-3.17-2.92,0-1.33,0-2.66,0-4Z"/></g></g></g></svg>