<?xml version="1.0" encoding="utf-8"?>
<!-- Generator: Adobe Illustrator 21.0.0, SVG Export Plug-In . SVG Version: 6.00 Build 0)  -->
<svg version="1.1" id="Layer_1" xmlns="http://www.w3.org/2000/svg" xmlns:xlink="http://www.w3.org/1999/xlink" x="0px" y="0px"
	 viewBox="0 0 500 500" style="enable-background:new 0 0 500 500;" xml:space="preserve">
<style type="text/css">
	.st0{fill:none;stroke:#000000;stroke-miterlimit:10;}
	.st1{fill:#FAD400;}
	.st2{fill:#343434;}
	.st3{fill:#BEBDBD;}
	.st4{fill:#FFFFFF;}
</style>
<circle class="st0" cx="249" cy="250" r="250"/>
<g id="EEJLlj.tif">
	<g>
		<path class="st1" d="M120.1,243.5c0-59.2,0.2-118.4-0.2-177.6c0-7.2,2.1-8.3,8.6-8.3c80.8,0.2,161.5,0.2,242.3,0
			c6.7,0,9.2,1.2,9.2,8.7c-0.3,118.1-0.2,236.3,0,354.5c0,6.6-1.2,8.7-8.4,8.7c-81-0.3-162-0.3-243.1,0c-6.6,0-8.6-1.2-8.6-8.3
			C120.3,361.9,120.1,302.7,120.1,243.5z M341.9,243.5c0-46.5-0.2-92.9,0.2-139.4c0.1-7.4-2.3-8.8-9.1-8.8
			c-55.6,0.3-111.1,0.3-166.7,0c-6.7,0-8.7,1.4-8.7,8.5c0.3,93.2,0.2,186.4,0,279.6c0,6.2,1.2,8.4,8,8.4c56.1-0.3,112.2-0.3,168.2,0
			c6.4,0,8.3-1.5,8.3-8.1C341.8,336.9,341.9,290.2,341.9,243.5z"/>
	</g>
</g>
<g id="_x31_zZDOe.tif">
	<g>
		<path class="st2" d="M149.2,322.8c-0.2,10.3,0.8,19.3,3.8,28.4c3.4,10,8.1,19.3,13.8,27.8c7.2,10.8,16.7,19.7,28.1,26.8
			c18,11.2,37.3,16.6,58.4,15.2c10.2-0.7,19.9-3.3,29.5-6.8c13.7-5,25.2-13,34.9-23.5c11.2-12,19.5-25.8,22.5-42.3
			c1.4-7.8,3.4-15.5,3.1-23.5c-0.3-8.8-1.3-17.5-3.7-26c-4.3-14.8-11.1-28.2-22.2-39.2c-6.3-6.2-13.1-11.6-20.7-16.1
			c-12-7.1-24.4-12.4-38.5-13.1c-9.9-0.5-19.9-0.2-29.8,0.5c-11.2,0.7-21.1,4.8-30.2,10.3c-9.7,5.9-19.4,12.1-26.5,21.7
			c-3.9,5.2-8,10.4-11.1,16.1C153,292.9,147.9,307.6,149.2,322.8z M178.6,145.6c1.3,0.5,1.4,1.6,1.8,2.4
			c9.9,20.4,18.7,41.3,29.2,61.4c1.4,2.7,3.1,3.7,6,3.7c7.4-0.1,14.8,0,22.2,0c4.8,0,5.3-0.5,5.4-5.3c0.1-13.9,0.1-27.8,0.1-41.7
			c0-26.3-0.1-52.6,0-78.9c0-3.7-1.5-5-5.1-4.9c-6.7,0.2-13.3,0-20,0c-6.7,0-6.9,0.1-6.9,6.8c0,17.4,0.1,34.9,0,52.3
			c0,1.8,0.7,4.7-0.9,5c-1.9,0.3-2.4-2.6-3.1-4.3c-8.4-18.5-16.7-36.9-24.9-55.5c-1.4-3.1-3.3-4.3-6.5-4.3c-8.4,0-16.8,0-25.2-0.2
			c-3.1-0.1-4.3,1.3-4.3,4.2c0,3.2-0.1,6.4-0.1,9.6c0,37.2,0,74.5,0,111.7c0,4.7,0.7,5.4,5.3,5.4c6.9,0,13.8,0.1,20.8,0
			c5.1,0,5.4-0.5,5.4-5.6c0-19,0-38,0-57C177.9,148.9,177.7,147.2,178.6,145.6z M361.1,176.8C361.1,176.8,361.1,176.8,361.1,176.8
			c0-10.6,0-21.1,0-31.7c0-2.2-0.2-4.3-3.2-4.3c-12.2,0-24.5-0.1-36.7-0.1c-2.6,0-4.2,1.1-4.2,4c0,7,0,14,0,21c0,2.1,1,3.2,3.1,3.3
			c2.5,0.1,4.9,0.1,7.4,0.2c3,0,3.8,1.4,2.4,4c-0.6,1.1-1,2.2-1.8,3.2c-8.5,10-24.1,8.7-31.3-2.6c-3.4-5.3-5.3-11-5.7-17.3
			c-0.7-10.8-1.1-21.6,3.3-31.9c3.4-7.9,9.5-12,17.4-12.1c8-0.1,11.9,4.9,14.8,11.3c0.3,0.7,0.5,1.4,0.6,2.1
			c0.4,1.8,1.5,2.7,3.4,2.7c8.5,0,17.1,0.1,25.6,0.1c2.6,0,3.5-1.3,3-3.8c-0.6-3.1-1.5-6.1-2.4-9.2c-4.5-14.9-12.5-26.7-27.8-32.6
			c-9.8-3.8-19.9-4.6-29.8-2c-21.5,5.6-33.3,20.9-38.9,41.4c-3.8,14-4.6,28.4-2,42.7c2.5,13.8,7.5,26.5,17.2,37.1
			c14.9,16.1,44.4,19.3,59.2,3.2c0.8-0.9,1.8-2.5,3.3-2c1.7,0.6,1.1,2.5,1.3,3.9c0.7,5.4,1,5.7,6.4,5.9c3.5,0.1,6.9-0.1,10.4,0
			c3.6,0.1,5.1-1.4,5.1-5C361,197.7,361.1,187.2,361.1,176.8z"/>
		<path class="st3" d="M149.2,322.8c-1.3-15.2,3.8-29.9,11.4-43.8c3.1-5.7,7.2-10.8,11.1-16.1c7.1-9.5,16.8-15.8,26.5-21.7
			c9.1-5.5,19-9.6,30.2-10.3c10-0.7,19.9-1,29.8-0.5c14.1,0.7,26.5,6,38.5,13.1c7.7,4.5,14.5,10,20.7,16.1
			c11.1,11,17.9,24.4,22.2,39.2c2.4,8.5,3.5,17.2,3.7,26c0.2,7.9-1.7,15.7-3.1,23.5c-3,16.5-11.3,30.3-22.5,42.3
			c-9.7,10.4-21.2,18.5-34.9,23.5c-9.6,3.5-19.3,6.2-29.5,6.8c-21.1,1.4-40.4-4-58.4-15.2c-11.4-7-20.9-15.9-28.1-26.8
			c-5.7-8.6-10.5-17.8-13.8-27.8C150,342.1,149,333.1,149.2,322.8z M185.7,369.7c-0.1,2.1,0.5,3.8,1.7,5.5c2.5,3.6,5.7,6.4,8.9,9.3
			c4.5,4,8.7,4,13.2,0c9.6-8.5,18.4-17.8,27.6-26.7c4.4-4.3,13.7-4.2,18.1,0.1c5.7,5.7,11.3,11.3,17.1,16.9
			c3.4,3.3,6.9,6.7,10.6,9.8c4.5,3.8,8.7,3.5,12.8-0.5c2.4-2.3,4.7-4.7,7.1-7c4.9-4.6,5.1-9.1,0.4-13.9
			c-8.6-8.8-17.2-17.6-25.9-26.3c-2.2-2.1-3.5-4.3-3-7.4c0.2-1.5,0.1-3.2-0.1-4.8c-0.3-2.6,0.7-4.4,2.5-6.2
			c9.2-8.9,18.3-17.9,27-27.3c3.7-4,4-8.4,0.4-12.6c-2.2-2.6-4.7-5-7.2-7.4c-5.5-5.3-9.9-5.3-15.4,0c-7.4,7.2-15.1,14.2-22.1,21.8
			c-4.4,4.7-9,6.9-15.5,6.3c-3.3-0.3-5.8-1.2-8.1-3.6c-8.5-9.1-17.7-17.5-26.8-26c-3.2-3-9.1-2.8-12.2,0.2c-2.3,2.2-4.4,4.7-6.9,6.7
			c-5.3,4.4-5.9,10.5,0.1,16.5c7,6.9,13.6,14.3,20.9,20.8c5.3,4.7,7.7,9.8,6.8,16.8c-0.3,2.3-0.8,4.2-2.5,5.9
			c-8.5,8.5-17.1,17.1-25.5,25.7C187.7,364.3,185.3,366.3,185.7,369.7z"/>
		<path class="st4" d="M178.6,145.6c-0.9,1.6-0.7,3.3-0.7,5c0,19,0,38,0,57c0,5.1-0.4,5.5-5.4,5.6c-6.9,0.1-13.8,0-20.8,0
			c-4.6,0-5.3-0.7-5.3-5.4c0-37.2,0-74.5,0-111.7c0-3.2,0.1-6.4,0.1-9.6c0-2.8,1.2-4.2,4.3-4.2c8.4,0.2,16.8,0.2,25.2,0.2
			c3.2,0,5.1,1.2,6.5,4.3c8.2,18.5,16.5,37,24.9,55.5c0.8,1.7,1.2,4.6,3.1,4.3c1.6-0.3,0.9-3.3,0.9-5c0-17.4,0-34.9,0-52.3
			c0-6.7,0.2-6.8,6.9-6.8c6.7,0,13.3,0.1,20,0c3.6-0.1,5.1,1.3,5.1,4.9c-0.1,26.3,0,52.6,0,78.9c0,13.9,0,27.8-0.1,41.7
			c0,4.8-0.5,5.3-5.4,5.3c-7.4,0-14.8-0.1-22.2,0c-2.9,0-4.6-0.9-6-3.7c-10.5-20.1-19.2-41-29.2-61.4
			C180,147.2,179.9,146.1,178.6,145.6z"/>
		<path class="st4" d="M361.1,176.8c0,10.4-0.1,20.9,0,31.3c0,3.6-1.5,5.1-5.1,5c-3.5-0.1-6.9,0.1-10.4,0c-5.4-0.2-5.7-0.5-6.4-5.9
			c-0.2-1.4,0.4-3.3-1.3-3.9c-1.5-0.5-2.4,1.1-3.3,2c-14.7,16.1-44.3,12.9-59.2-3.2c-9.7-10.6-14.8-23.2-17.2-37.1
			c-2.6-14.4-1.8-28.7,2-42.7c5.6-20.5,17.4-35.9,38.9-41.4c9.9-2.6,20-1.8,29.8,2c15.2,6,23.3,17.7,27.8,32.6
			c0.9,3,1.8,6.1,2.4,9.2c0.5,2.5-0.4,3.8-3,3.8c-8.5,0-17.1,0-25.6-0.1c-1.9,0-3-0.9-3.4-2.7c-0.2-0.7-0.3-1.4-0.6-2.1
			c-2.9-6.4-6.8-11.3-14.8-11.3c-7.9,0.1-14,4.2-17.4,12.1c-4.4,10.3-4,21.1-3.3,31.9c0.4,6.2,2.3,12,5.7,17.3
			c7.2,11.3,22.8,12.6,31.3,2.6c0.8-1,1.2-2.1,1.8-3.2c1.4-2.6,0.6-4-2.4-4c-2.5,0-4.9-0.1-7.4-0.2c-2.1-0.1-3.1-1.2-3.1-3.3
			c0-7,0.1-14,0-21c0-2.9,1.6-4,4.2-4c12.2,0,24.5,0.1,36.7,0.1c3.1,0,3.2,2,3.2,4.3C361.1,155.6,361.1,166.2,361.1,176.8
			C361.1,176.8,361.1,176.8,361.1,176.8z"/>
		<path class="st2" d="M185.7,369.7c-0.5-3.4,2-5.5,4-7.5c8.4-8.7,16.9-17.2,25.5-25.7c1.7-1.7,2.2-3.6,2.5-5.9
			c1-7-1.5-12.1-6.8-16.8C203.6,307.3,197,300,190,293c-6.1-6-5.5-12.2-0.1-16.5c2.5-2,4.6-4.5,6.9-6.7c3.1-3,9-3.1,12.2-0.2
			c9.1,8.5,18.2,16.9,26.8,26c2.3,2.4,4.8,3.3,8.1,3.6c6.5,0.7,11.1-1.6,15.5-6.3c7-7.6,14.7-14.6,22.1-21.8c5.4-5.3,9.9-5.3,15.4,0
			c2.5,2.4,5,4.8,7.2,7.4c3.6,4.2,3.3,8.5-0.4,12.6c-8.7,9.4-17.8,18.4-27,27.3c-1.8,1.7-2.8,3.6-2.5,6.2c0.2,1.6,0.4,3.2,0.1,4.8
			c-0.5,3.2,0.9,5.3,3,7.4c8.7,8.7,17.3,17.5,25.9,26.3c4.7,4.8,4.4,9.3-0.4,13.9c-2.4,2.3-4.7,4.7-7.1,7c-4.1,4-8.3,4.3-12.8,0.5
			c-3.7-3.1-7.1-6.5-10.6-9.8c-5.7-5.6-11.4-11.2-17.1-16.9c-4.4-4.4-13.7-4.4-18.1-0.1c-9.1,9-17.9,18.3-27.6,26.7
			c-4.5,4-8.8,4-13.2,0c-3.2-2.9-6.4-5.7-8.9-9.3C186.2,373.5,185.6,371.8,185.7,369.7z"/>
	</g>
</g>
</svg>
