<?xml version="1.0" encoding="utf-8"?>
<!-- Generator: Adobe Illustrator 25.0.0, SVG Export Plug-In . SVG Version: 6.00 Build 0)  -->
<svg version="1.1" xmlns="http://www.w3.org/2000/svg" xmlns:xlink="http://www.w3.org/1999/xlink" x="0px" y="0px"
	 viewBox="0 0 640 640" style="enable-background:new 0 0 640 640;" xml:space="preserve">
<style type="text/css">
	.st0{fill:#006747;stroke:#000000;stroke-miterlimit:10;}
	.st1{fill:#4E4D4C;}
	.st2{fill:#E61E0B;}
	.st3{fill:#F6FBFD;}
	.st4{fill:#F4FCFD;}
	.st5{fill:#E41B09;}
	.st6{fill:#F9D616;}
	.st7{fill:#07AA04;}
	.st8{fill:#E6790B;}
	.st9{fill:#4F4E4C;}
	.st10{fill:#585756;}
	.st11{fill:#171818;}
	.st12{fill:#E3EAEB;}
</style>
<g id="Layer_2">
	<rect class="st0" width="640" height="640"/>
</g>
<g id="Layer_1">
	<g id="COEWHr.tif">
		<g>
			<path class="st1" d="M294.5,591.1c-6.2-0.4-12.1-1.6-17.4-5.3c-9.7-6.9-13.8-19.5-9.3-30.5c0.9-2.1,0.2-2.6-1.6-3.1
				c-29.3-8.5-56-22.1-78.6-42.9c-18.6-17.1-32.5-37.3-39.9-61.7c-4.1-13.3-5.2-26.9-5-40.7c0.2-13.1,0-26.1,0-39.2
				c-1.2-0.3-1.5,0.7-2.1,1.2c-14.6,15.5-23.5,33.7-26.8,54.7c-0.4,2.3-0.2,4.1,1.8,6c7.7,7.2,9.6,16.9,5.7,26
				c-4,9.1-13.4,14.8-23.7,14.3c-9.8-0.5-18.1-7.3-21.5-16.4c-3.5-9.2,1.4-20.7,9-25.9c1.4-1,2-2.1,2.2-3.8
				c5-37.4,23.1-66.8,53.5-88.8c1.7-1.3,1.9-2.7,1.9-4.5c0-38.2,0-76.5,0.1-114.7c0-23.8,7.2-45.5,20-65.4
				c17.5-27.1,41.9-46.1,70.7-59.9c8-3.8,16.2-7,24.5-9.8c0.5-0.2,1.2-0.2,1.5-1C249.1,75,239.1,69.5,229.8,63
				c-4.8-3.3-9.4-6.9-13.9-10.6c-1.4-1.1-1.4-1.8,0-3c16.2-14,34.3-24.6,54.4-31.8c15.5-5.5,31.5-8.7,47.8-9.7
				c17.6-1.1,35.1,0.7,52.2,5.1c26.1,6.7,49.4,18.6,70,35.9c2.4,2,2.4,2,0.2,3.9c-11.5,9.9-24.1,18.1-37.7,24.6
				c-1,0.5-2,0.8-2.9,1.8c4.7,1.7,9.3,3.2,13.8,4.9c29.6,11.3,55.5,28.1,75.9,52.6c16,19.2,26.1,41.1,29.3,65.9
				c0.6,4.9,0.6,9.8,0.6,14.7c0,32.9,0.1,65.8,0.1,98.7c0,2.1,0.6,3.5,2.3,4.8c20.7,15.8,35.6,36,44.2,60.6
				c3.5,10.2,5.6,20.7,6.4,31.5c0.1,1.5,0.6,2.4,1.9,3.2c5.6,3.5,9.3,8.8,10.6,15.1c1.6,8-1,15.2-6.9,20.9
				c-13.4,13-35.8,6.8-40.4-11.2c-2.2-8.8,0.6-16.4,7.2-22.6c1-1,1.4-1.9,1.3-3.3c-1.6-22.7-10-42.6-24.9-59.7
				c-0.2-0.2-0.5-0.5-0.7-0.7c-0.1-0.1-0.3-0.1-0.5-0.2c-0.7,0.5-0.4,1.2-0.4,1.8c-0.1,18.7-0.2,37.3-0.1,56
				c0.2,29.6-9.8,55.6-27.9,78.6c-16.2,20.7-36.8,36-60.2,47.6c-9.9,4.9-20.1,8.9-30.6,12.2c-1.9,0.6-2.3,1.3-1.5,3.2
				c6.8,16.3-2.4,33.2-19.9,36.7c-0.8,0.2-1.6,0.4-2.4,0.7c-6-0.4-12-0.3-18,0c-4.7-0.3-9.4-0.3-14.1,0c-6.1-0.3-12.3-0.3-18.4,0
				c-4.7-0.4-9.4-0.3-14.1,0C306.5,590.7,300.5,590.6,294.5,591.1z M331,298.7L331,298.7c16.2,0,32.5-0.1,48.7,0
				c10.9,0.1,21.6-0.9,32.2-3.5c13.7-3.4,26.5-8.9,37.1-18.5c9.1-8.2,14.1-18.2,14-30.8c-0.3-20.1-0.1-40.1-0.1-60.2
				c0-7.3-2-13.9-6.1-20c-7.1-10.4-17.2-17-28.5-22c-14.7-6.4-30.3-9-46.2-9c-33.2,0-66.3,0-99.5,0c-10.4,0-20.8,0.7-31,3.1
				c-13.9,3.3-27,8.6-37.9,18.2c-9.7,8.5-15.1,18.8-14.8,32.1c0.3,19.9,0.1,39.8,0.1,59.7c0,6.9,1.9,13.1,5.5,18.9
				c5.6,8.8,13.6,15,22.7,19.8c16,8.4,33.3,11.9,51.3,12C296.1,298.8,313.5,298.7,331,298.7z M337,502c29.2,0,58.3-0.1,87.5,0
				c14.8,0.1,25.8-11.1,25.6-25.4c-0.4-23.3-0.1-46.6-0.1-70c0-14-10.5-24.5-24.5-24.5c-58.9,0-117.8,0-176.7,0
				c-14,0-24.5,10.6-24.5,24.5c0,23.6,0,47.1,0,70.7c0,2.3,0.2,4.5,0.8,6.7c3,10.9,12.4,17.8,24.2,17.9C278.5,502,307.7,502,337,502
				z M239.6,343.5c0.1-1.7-0.2-3.5-1.3-5.1c-4.1-6.6-13.4-6.7-17.7-0.1c-0.9,1.4-1.3,2-2.4,0.1c-2.3-3.8-5.9-5.4-10.1-4.9
				c-4,0.5-7.2,2.7-8.5,6.7c-1.3,4.1-0.6,7.7,2.8,10.6c5.3,4.7,10.5,9.4,15.7,14.2c1.1,1,1.8,0.7,2.7-0.2c5-4.5,10-9,15.1-13.4
				C238.3,349.3,239.8,346.8,239.6,343.5z M426.6,349.8c0-7.1-5.8-12.9-13.1-12.9c-7.2-0.1-13.3,5.8-13.3,12.7c0,7.1,6,13,13.3,13.1
				C420.6,362.7,426.5,356.9,426.6,349.8z M463,349.7c0-7.1-6-12.8-13.3-12.8c-7.2,0-13.2,5.9-13.1,12.9c0,7.1,6,12.8,13.3,12.8
				C457.2,362.6,463,356.8,463,349.7z M471.5,349.9c0,7.1,5.8,12.7,13.2,12.8c6.7,0.1,13.3-6.2,13.3-12.7c0-7.1-6.1-13.2-13.3-13.1
				C477.3,336.9,471.5,342.6,471.5,349.9z"/>
			<path class="st2" d="M294.5,591.1c6-0.5,12-0.4,18-0.1c0.2,1,1,1.5,1.7,2.1c6.5,6.4,13.1,12.7,19.6,19.2c1.5,1.5,2.5,1.6,4,0
				c4.4-4.4,8.7-8.9,13.4-13.1c2.8-2.5,5.7-5,7.9-8.2c6-0.3,12-0.4,18,0c-2.7,4.9-6.9,8.5-10.8,12.4c-9.7,9.6-19.6,19-29.3,28.6
				c-0.9,0.9-1.4,1-2.3,0c-11.3-11.2-22.7-22.2-34.1-33.4C298.2,596.4,296.2,593.9,294.5,591.1z"/>
			<path class="st3" d="M331,298.7c-17.5,0-35,0.1-52.5,0c-18-0.1-35.2-3.6-51.3-12c-9.1-4.8-17.1-11-22.7-19.8
				c-3.7-5.8-5.5-12-5.5-18.9c0-19.9,0.3-39.8-0.1-59.7c-0.2-13.3,5.1-23.7,14.8-32.1c10.9-9.5,23.9-14.9,37.9-18.2
				c10.2-2.4,20.5-3.2,31-3.1c33.2,0,66.3,0,99.5,0c16,0,31.5,2.6,46.2,9c11.3,4.9,21.4,11.5,28.5,22c4.1,6,6.2,12.7,6.1,20
				c0,20.1-0.2,40.2,0.1,60.2c0.2,12.6-4.9,22.5-14,30.8c-10.6,9.6-23.4,15.1-37.1,18.5c-10.6,2.6-21.3,3.6-32.2,3.5
				C363.5,298.7,347.3,298.7,331,298.7L331,298.7z M413.4,212.2c-15.4,0-27.5,11.8-27.5,26.7s12.2,26.8,27.5,26.8
				c15.2,0,27.6-12,27.6-26.8C441,224.1,428.7,212.2,413.4,212.2z M245.7,212.2c-15.4,0-27.7,11.7-27.7,26.5
				c0,14.9,12.2,26.9,27.4,27c15.3,0,27.7-11.8,27.7-26.6C273.1,224.2,260.9,212.3,245.7,212.2z M329.1,278.5
				c15.7-0.1,33.4-1.1,51-3.5c2-0.3,2-1.2,1.8-2.6c-0.2-1.5-0.7-2.1-2.4-1.9c-20.5,2.9-41.1,4-61.8,3.4c-12.5-0.3-25-1-37.4-2.4
				c-1.9-0.2-2.5,0.4-2.7,2.2c-0.2,1.9,0.8,2.2,2.3,2.4C295.6,277.5,311.3,278.5,329.1,278.5z"/>
			<path class="st4" d="M337,502c-29.2,0-58.5,0-87.7,0c-11.8,0-21.2-7-24.2-17.9c-0.6-2.2-0.8-4.4-0.8-6.7c0-23.6,0-47.1,0-70.7
				c0-14,10.5-24.5,24.5-24.5c58.9,0,117.8,0,176.7,0c14,0,24.5,10.5,24.5,24.5c0,23.3-0.3,46.6,0.1,70
				c0.2,14.3-10.8,25.4-25.6,25.4C395.3,501.9,366.1,502,337,502z M283,430.2L283,430.2c-0.6,0.1-1,0.5-1,1
				c-0.1,3.6-0.6,7.2,0.3,10.8c0.2,0.3,0.5,0.5,0.7,0.8c0,0.5,0.1,0.9,0.1,1.4c-0.2,0.2-0.5,0.5-0.7,0.7c-0.7,3.8-0.9,7.7,0.1,11.5
				c1.1,1,1.8,2.8,3.6,2.8c5,0.1,9.9,0,14.9,0c0.8,0,1.4-0.5,1.8-1.2c0.4-0.8-0.3-1.2-0.8-1.5c-2.5-0.9-4.9-1.2-7.3,0.1
				c-0.8,0.7-1.5,0.7-2.3,0c-2.1-1.5-4.5-0.3-6.7-0.8c-0.1-3.4-0.2-6.8-0.3-10.1c0.3-0.6,0.1-1-0.5-1.1c0-0.2-0.1-0.3-0.3-0.3
				c0-0.5,0.1-1.1,0.1-1.6l0,0c1.1-0.4,0.9-1.4,0.9-2.3c0-2.3,0-4.6,0-7c0-0.9,0-1.8,0.8-2.5c2.1-0.3,4.3,0.8,6.3-0.7
				c0.5,0,1.1,0,1.6-0.1c2.2,1.7,4.6,0.6,6.9,0.8c1.1,0.2,1.7-0.7,1.7-1.4c0-0.8-0.7-1.6-1.8-1.5c-2.7,0-5.4-0.2-8.1-0.1
				c-2.6,0.1-5.2-0.5-7.8,0.4C284.1,428.6,283.5,429.3,283,430.2z M321.1,442.1c-1.7-1.2-5.7-1.2-7,0.1c-2.6,1.9-3.4,4.5-2.9,7.6
				c0.1,0.7,0.1,1.5,0,2.2c-0.6,3.3,0.8,5.6,3.4,7.3c0.2,0.9,0.8,0.9,1.5,0.9c4.3,0,8.6,0,13,0c0.7,0,1.4,0,1.5-0.9
				c1.5-1.5,3.7-2.5,3.4-5.3c-0.5-4.2,1.6-9.1-3.3-12c-2.2-1.2-4.4-1.3-6.5,0c-0.1,0.2-0.2,0.2-0.4,0.2c-0.7,0-1.4,0-2.2,0
				C321.3,442.3,321.1,442.3,321.1,442.1z M340,431.3c0,2.9,0.2,5.8,0,8.7c-0.1,1.6,1.7,2.9,1.1,3.8c-2,3.4-0.5,7-1.1,10.5
				c-0.2,1.2,0.3,2.1,1,3c0,0.4,0.1,0.8,0.6,0.9c0.7,0.1,0.8-0.4,0.9-0.9c0.6-0.8,0.9-1.7,0.9-2.7c-0.1-2.4,0.1-4.8-0.1-7.2
				c-0.1-1.7,0.5-2.1,2.1-2.1s3.3,0.5,4.8-0.5c1.6-1,2.4-0.5,2.7,1.4c0.1,0.8,0.1,1.7,0.1,2.5c-0.1,0.8-0.1,1.6,1,1.6
				c1.1,1.7,2.3,3.4,3.4,5.2c0.4,0.6,0.9,0.8,1.5,0.7c0.8-0.1,0.6-0.8,0.7-1.4c0.1-1,0-2-0.6-2.8c-0.8-1.2-1.6-2.5-2.4-3.8
				c-1.7-2.7-1.7-2.7,1.4-2.8c1.6-0.1,4.8-2.2,4.8-3.7c0-3.7,0.6-7.4-0.4-11.1c0.1-1.2-0.5-1.7-1.6-1.6c-1-0.8-2.1-1.1-3.4-1.1
				c-3.1,0.1-6.3,0.2-9.4,0c-2.9-0.2-5.4,0.2-7.3,2.5C340.1,430.4,339.3,430.3,340,431.3z M380.4,459.3c2.5,0,5,0,7.5,0
				c1,0,1.9-0.6,2-1.5c0-0.9-1-1.7-1.9-1.6c-2.3,0.2-4.8-1-6.9,0.9c-0.2,0.2-0.8,0.2-0.9,0.1c-1.7-1.8-3.9-1-5.9-1.1
				c-1.2-0.1-1.9-0.2-1.8-1.6c0.1-2.6,0.1-5.2,0-7.7c0-1,0.3-1.5,1.4-1.5c2.2-0.1,4.5,0.8,6.4-1.2c0.1-0.1,0.5,0,0.7,0.1
				c1.8,1.8,4.1,0.8,6.2,1.1c1.3,0.1,2.7-0.3,2.7-1.6c0-1.5-1.6-1.4-2.8-1.7c-3-0.8-5.9,1.9-9,0.2c-1.5-0.8-4.3,0.9-5.3-0.7
				c-0.8-1.4-0.2-3.7-0.2-5.6c0-1.2,0-2.3,0-3.5c0-0.8,0.3-1.1,1.2-1.2c2.2-0.2,4.7,0.8,6.6-1.1c0.1-0.1,0.5,0.1,0.7,0.2
				c1.8,1.7,4,0.7,6,1c1.3,0.2,2.9-0.1,2.9-1.6c0-1.4-1.6-1.6-2.9-1.6c-4,0-8,0-12,0c-3.7,0-5.8,2.1-5.8,5.8c0,2.2,0,4.5,0,6.7
				c0,0.7-0.1,1.6,0.5,2.1c0.9,0.8,0.9,1.5,0,2.3c-0.7,0.6-0.5,1.4-0.5,2.1c0,2.2,0,4.3,0,6.5c0,4.1,1.9,6,6,6
				C376.9,459.3,378.6,459.3,380.4,459.3z"/>
			<path class="st5" d="M239.6,343.5c0.1,3.4-1.3,5.8-3.7,7.9c-5.1,4.4-10.1,8.9-15.1,13.4c-0.9,0.8-1.6,1.2-2.7,0.2
				c-5.2-4.8-10.5-9.5-15.7-14.2c-3.3-3-4.1-6.6-2.8-10.6c1.3-4.1,4.5-6.2,8.5-6.7c4.3-0.5,7.9,1.1,10.1,4.9
				c1.1,1.9,1.5,1.3,2.4-0.1c4.3-6.6,13.6-6.5,17.7,0.1C239.4,340,239.7,341.7,239.6,343.5z"/>
			<path class="st5" d="M426.6,349.8c0,7.1-6,12.9-13.1,12.9c-7.3,0-13.3-6-13.3-13.1c0-6.9,6.2-12.8,13.3-12.7
				C420.7,336.9,426.6,342.7,426.6,349.8z"/>
			<path class="st6" d="M463,349.7c0,7.1-5.8,12.8-13.1,12.9c-7.3,0.1-13.2-5.7-13.3-12.8c0-7.1,5.9-12.9,13.1-12.9
				C457,336.9,463,342.6,463,349.7z"/>
			<path class="st7" d="M471.5,349.9c0-7.2,5.8-13,13.2-13c7.1,0,13.2,6,13.3,13.1c0,6.5-6.6,12.8-13.3,12.7
				C477.3,362.6,471.5,356.9,471.5,349.9z"/>
			<path class="st8" d="M359.1,591c-2.2,3.2-5.1,5.7-7.9,8.2c-4.7,4.2-9,8.7-13.4,13.1c-1.6,1.6-2.5,1.5-4,0
				c-6.5-6.5-13.1-12.8-19.6-19.2c-0.6-0.6-1.5-1.1-1.7-2.1c4.7-0.3,9.4-0.3,14.1,0c2.3,3.4,5.6,5.8,8.3,8.7c0.5,0.6,1.2,0.6,1.8,0
				c2.8-2.9,6-5.4,8.3-8.7C349.7,590.7,354.4,590.7,359.1,591z"/>
			<path class="st6" d="M345,591c-2.3,3.4-5.6,5.8-8.3,8.7c-0.5,0.6-1.2,0.6-1.8,0c-2.8-2.9-6-5.4-8.3-8.7
				C332.7,590.8,338.9,590.8,345,591z"/>
			<path class="st9" d="M413.4,212.2c15.3,0,27.6,11.9,27.6,26.7s-12.3,26.8-27.6,26.8c-15.2,0-27.5-11.9-27.5-26.8
				C385.9,224,398,212.2,413.4,212.2z"/>
			<path class="st9" d="M245.7,212.2c15.3,0,27.5,12,27.4,26.9c-0.1,14.8-12.4,26.7-27.7,26.6c-15.2,0-27.4-12.1-27.4-27
				C218,224,230.3,212.2,245.7,212.2z"/>
			<path class="st10" d="M329.1,278.5c-17.8,0-33.5-1-49.2-2.5c-1.5-0.1-2.5-0.4-2.3-2.4c0.2-1.8,0.8-2.4,2.7-2.2
				c12.4,1.4,24.9,2.1,37.4,2.4c20.7,0.5,41.3-0.5,61.8-3.4c1.7-0.2,2.2,0.3,2.4,1.9c0.2,1.5,0.2,2.4-1.8,2.6
				C362.5,277.5,344.8,278.5,329.1,278.5z"/>
			<path class="st11" d="M353.1,448.6c0-0.8,0-1.7-0.1-2.5c-0.2-1.9-1.1-2.4-2.7-1.4s-3.2,0.5-4.8,0.5c-1.6,0-2.2,0.5-2.1,2.1
				c0.1,2.4,0,4.8,0.1,7.2c0,1.1-0.3,1.9-0.9,2.7c-0.5,0-1,0-1.5,0c-0.7-0.9-1.1-1.8-1-3c0.5-3.5-1-7,1.1-10.5
				c0.5-0.9-1.2-2.2-1.1-3.8c0.2-2.9,0-5.8,0-8.7c0.2-0.3,0.4-0.6,0.6-0.9c1.9-2.3,4.5-2.7,7.3-2.5c3.1,0.2,6.3,0.1,9.4,0
				c1.3,0,2.4,0.2,3.4,1.1c0.3,0.8,0.9,1.3,1.6,1.6c0.9,3.7,0.4,7.4,0.4,11.1c0,1.5-3.1,3.6-4.8,3.7c-3.1,0.1-3.1,0.1-1.4,2.8
				c0.8,1.3,1.5,2.6,2.4,3.8c0.6,0.9,0.7,1.8,0.6,2.8c0,0.6,0.1,1.3-0.7,1.4c-0.6,0.1-1.1-0.1-1.5-0.7c-1.1-1.7-2.3-3.5-3.4-5.2
				C354,449.6,353.6,449.1,353.1,448.6z M359.6,436.5c0-5.3,0-5-5.1-5.7c-2.1-0.3-4-0.2-6,0c-5,0.5-5,0.3-5,5.5c0,0.2,0,0.3,0,0.5
				c0,5,0,4.8,5,5.3c2.1,0.2,4,0.3,6.1,0c5-0.6,5.1-0.3,5.1-5.4C359.6,436.7,359.6,436.6,359.6,436.5z"/>
			<path class="st11" d="M380.4,459.3c-1.7,0-3.5,0-5.2,0c-4.2,0-6-1.9-6-6c0-2.2,0-4.3,0-6.5c0-0.7-0.2-1.5,0.5-2.1
				c0.9-0.8,0.9-1.5,0-2.3c-0.6-0.6-0.5-1.4-0.5-2.1c0-2.2,0-4.5,0-6.7c0-3.7,2.1-5.8,5.8-5.8c4,0,8,0,12,0c1.4,0,2.9,0.3,2.9,1.6
				c0,1.5-1.6,1.7-2.9,1.6c-2-0.2-4.2,0.7-6-1c-0.2-0.1-0.6-0.3-0.7-0.2c-1.9,2-4.4,0.9-6.6,1.1c-0.9,0.1-1.2,0.4-1.2,1.2
				c0,1.2,0,2.3,0,3.5c0,1.9-0.6,4.2,0.2,5.6c1,1.7,3.7-0.1,5.3,0.7c3.1,1.7,6-0.9,9-0.2c1.2,0.3,2.8,0.2,2.8,1.7
				c0,1.2-1.4,1.7-2.7,1.6c-2.1-0.2-4.4,0.8-6.2-1.1c-0.1-0.1-0.6-0.2-0.7-0.1c-1.8,2-4.2,1-6.4,1.2c-1.1,0.1-1.4,0.5-1.4,1.5
				c0,2.6,0.1,5.2,0,7.7c-0.1,1.5,0.6,1.6,1.8,1.6c2,0.1,4.2-0.7,5.9,1.1c0.1,0.1,0.7,0.1,0.9-0.1c2.1-1.9,4.6-0.7,6.9-0.9
				c0.9-0.1,1.9,0.7,1.9,1.6s-0.9,1.5-2,1.5C385.4,459.3,382.9,459.3,380.4,459.3z"/>
			<path class="st11" d="M314.5,459.4c-2.6-1.7-4-4.1-3.4-7.3c0.1-0.7,0.1-1.5,0-2.2c-0.5-3.1,0.3-5.7,2.9-7.6c2.3,0,4.7-0.1,7-0.1
				c0.1,0.2,0.2,0.2,0.4,0.2c0.7,1.4,1.4,1.4,2.2,0c0.2,0,0.3-0.1,0.4-0.2c2.2,0,4.4,0,6.5,0c4.9,3,2.8,7.8,3.3,12
				c0.3,2.8-1.9,3.8-3.4,5.3C325.2,459.4,319.9,459.4,314.5,459.4z M330.5,450.8c0-1.3,0-2.7,0-4c0-0.7,0.1-1.4-0.9-1.5
				c-2.4-0.3-5,0.7-7.1-1.3c-0.1-0.1-0.3,0-0.4,0.2c-1.6,1.7-3.7,1.1-5.7,1.1c-1.7,0-2.2,0.6-2.1,2.2c0.1,2.2,0.1,4.5,0,6.7
				c-0.1,1.5,0.5,2,2,2.1c1.9,0,4-0.6,5.7,1c0.4,0.4,0.9,0.1,1.3-0.3c0.6-0.7,1.5-0.7,2.3-0.7c4.8-0.2,4.8-0.2,4.8-5.1
				C330.6,451,330.6,450.9,330.5,450.8z"/>
			<path class="st11" d="M285.2,445.8c0.1,3.4,0.2,6.8,0.3,10.1c0.3,1,1.1,0.8,1.8,0.8c1.6,0,3.3,0,4.9,0c0.8,0.7,1.5,0.8,2.3,0
				c2.4,0,4.9-0.1,7.3-0.1c0.5,0.4,1.2,0.7,0.8,1.5c-0.4,0.7-0.9,1.2-1.8,1.2c-5,0-9.9,0.1-14.9,0c-1.7,0-2.4-1.8-3.6-2.8
				c0.1-3.8,0.3-7.7-0.1-11.5c0.2-0.2,0.5-0.5,0.7-0.7c0.4,0,0.9,0,1.3,0.1c0.2,0.1,0.2,0.2,0.3,0.3
				C284.6,445.1,284.7,445.5,285.2,445.8z"/>
			<path d="M301,430.9c-2.3-0.2-4.8,0.9-6.9-0.8c0-0.5-0.3-0.8-0.7-0.8c-0.6,0-0.9,0.3-0.9,0.9c-1.9,1.6-4.2,0.5-6.3,0.7
				c-1.9-0.4-1.5,1.1-1.6,2c-0.1,3.2-0.1,6.5-0.2,9.7l0,0c-0.5,0-1,0.1-1.5,0.1c-0.2-0.3-0.5-0.5-0.7-0.8c0.4-0.9,0.2-2,0.3-2.9
				c0.2-3-0.4-6,0.4-8.9l0,0c1.1-0.2,1.8-0.8,2.1-1.9c2.6-0.9,5.2-0.3,7.8-0.4c2.7-0.1,5.4,0.1,8.1,0.1
				C301.7,429,302,429.9,301,430.9z"/>
			<path class="st12" d="M314.5,459.4c5.3,0,10.7,0,16,0c-0.1,0.9-0.8,0.9-1.5,0.9c-4.3,0-8.6,0-13,0
				C315.4,460.3,314.7,460.3,314.5,459.4z"/>
			<path class="st1" d="M284.5,442.7c0.1-3.2,0.1-6.5,0.2-9.7c0-1-0.3-2.4,1.6-2c-0.8,0.6-0.8,1.6-0.8,2.5c0,2.3,0,4.6,0,7
				C285.4,441.3,285.6,442.3,284.5,442.7z"/>
			<path class="st1" d="M283,430.2c-0.8,2.9-0.3,5.9-0.4,8.9c-0.1,1,0.2,2-0.3,2.9c-0.9-3.6-0.4-7.2-0.3-10.8
				C282,430.7,282.4,430.3,283,430.2z"/>
			<path class="st1" d="M282.3,445c0.4,3.8,0.2,7.7,0.1,11.5C281.5,452.6,281.6,448.8,282.3,445z"/>
			<path class="st12" d="M321.1,442.1c-2.3,0-4.7,0.1-7,0.1C315.4,440.9,319.4,440.8,321.1,442.1z"/>
			<path class="st1" d="M301.8,456.6c-2.4,0-4.9,0.1-7.3,0.1C296.9,455.4,299.3,455.6,301.8,456.6z"/>
			<path class="st12" d="M330.6,442c-2.2,0-4.4,0-6.5,0C326.2,440.7,328.4,440.8,330.6,442z"/>
			<path class="st1" d="M292.2,456.7c-1.6,0-3.3,0-4.9,0c-0.7,0-1.5,0.2-1.8-0.8C287.7,456.4,290.1,455.1,292.2,456.7z"/>
			<path class="st1" d="M301,430.9c1-1,0.6-1.9-0.1-2.9c1.1-0.1,1.8,0.6,1.8,1.5C302.8,430.2,302.2,431.1,301,430.9z"/>
			<path class="st1" d="M285.1,428.3c-0.2,1.1-0.9,1.8-2.1,1.9C283.5,429.3,284.1,428.6,285.1,428.3z"/>
			<path class="st1" d="M283,442.8c0.5,0,1-0.1,1.5-0.1c0,0.5-0.1,1.1-0.1,1.6c-0.4,0-0.9,0-1.3-0.1C283,443.8,283,443.3,283,442.8z
				"/>
			<path class="st12" d="M362.5,430.4c-0.7-0.3-1.3-0.8-1.6-1.6C362,428.8,362.5,429.3,362.5,430.4z"/>
			<path class="st12" d="M341,457.3c0.5,0,1,0,1.5,0c-0.1,0.5-0.2,1-0.9,0.9C341.2,458.1,341.1,457.7,341,457.3z"/>
			<path class="st12" d="M323.6,442.3c-0.7,1.4-1.4,1.4-2.2,0C322.2,442.3,322.9,442.3,323.6,442.3z"/>
			<path class="st1" d="M292.5,430.2c0-0.6,0.3-0.9,0.9-0.9c0.5,0,0.7,0.3,0.7,0.8C293.6,430.2,293.1,430.2,292.5,430.2z"/>
			<path class="st12" d="M353.1,448.6c0.5,0.4,0.9,0.9,1,1.6C353,450.2,353,449.4,353.1,448.6z"/>
			<path class="st1" d="M285.2,445.8c-0.5-0.2-0.5-0.7-0.5-1.1C285.3,444.8,285.5,445.2,285.2,445.8z"/>
			<path class="st12" d="M340.7,430.3c-0.2,0.3-0.4,0.6-0.6,0.9C339.3,430.3,340.1,430.4,340.7,430.3z"/>
			<path class="st12" d="M359.6,436.5c0,0.1,0,0.2,0,0.2c0,5.1,0,4.8-5.1,5.4c-2.1,0.3-4,0.2-6.1,0c-5-0.5-5-0.3-5-5.3
				c0-0.2,0-0.3,0-0.5c0-5.2,0-5,5-5.5c2.1-0.2,3.9-0.3,6,0C359.5,431.6,359.6,431.3,359.6,436.5z"/>
			<path class="st12" d="M330.5,450.8c0,0.1,0,0.2,0,0.2c0,4.9,0,4.9-4.8,5.1c-0.8,0-1.7,0.1-2.3,0.7c-0.4,0.4-0.9,0.7-1.3,0.3
				c-1.7-1.6-3.8-1-5.7-1c-1.5,0-2.1-0.6-2-2.1c0.1-2.2,0.1-4.5,0-6.7c-0.1-1.6,0.4-2.2,2.1-2.2c1.9,0,4,0.6,5.7-1.1
				c0.1-0.1,0.4-0.2,0.4-0.2c2.1,2.1,4.7,1,7.1,1.3c0.9,0.1,0.9,0.9,0.9,1.5C330.6,448.1,330.5,449.5,330.5,450.8z"/>
		</g>
	</g>
</g>
</svg>
