<svg xmlns="http://www.w3.org/2000/svg" viewBox="0 0 629.37 629.36">
  <defs>
    <style>
      .cls-1 {
        fill: #015943;
      }

      .cls-2 {
        fill: #fcfdfd;
      }

      .cls-3 {
        fill: #232121;
      }
    </style>
  </defs>
  <title>binghamton</title>
  <g id="Layer_2" data-name="Layer 2">
    <g id="Layer_1-2" data-name="Layer 1">
      <g id="UNbuKS">
        <g>
          <path class="cls-1" d="M.3.3Q308.39.3,616.48,0c10.77,0,12.9,2.11,12.88,12.88q-.62,301.8,0,603.61c0,10.77-2.11,12.9-12.88,12.88q-301.8-.62-603.61,0C2.11,629.39,0,627.25,0,616.49Q.62,308.4.3.3ZM283.18,63.24c-51.33,0-102.67.38-154-.29-11.63-.15-13.87,3.66-12.57,14.14,4.14,33.23,8.26,66.48,11.06,99.84,1.17,13.93,4.82,25.42,16.55,33.37,10.74,7.28,9.91,15.13,5.13,26.5-37,88-73,176.39-109.8,264.43-3.85,9.19-3.35,14.66,4.14,21.33,12.1,10.78,23.42,22.51,34.5,34.36,5.52,5.9,11.5,7.84,19.39,7.81,73.85-.28,147.71-.16,221.56-.33,16.76,0,33.48-1.11,49.95-4.62,50-10.64,91.11-34,113.93-81.91,10.31-21.64,18.74-44.18,27.55-66.5,7.53-19.08,7-38.7,3.36-58.64-1.86-10.12-13.23-20.37-8.35-28.14,5.12-8.16,18.1-11.4,27.66-16.74q8.89-5,17.86-9.8c4.66-2.51,8.94-5.24,11.06-10.53,10.46-26.15,22.16-51.88,31.26-78.49,9.33-27.27,4.9-52.49-17.16-73.33-12.55-11.86-24.4-24.49-36.13-37.17C526.59,83.85,510,74.73,490.95,69.4c-18.64-5.23-38-5.21-56.93-5.71C383.77,62.37,333.46,63.24,283.18,63.24Z"/>
          <path class="cls-2" d="M283.18,63.24c50.28,0,100.59-.87,150.84.45,18.91.5,38.29.47,56.93,5.71,19,5.34,35.64,14.46,49.22,29.13,11.73,12.68,23.58,25.31,36.13,37.17,22.06,20.84,26.49,46.06,17.16,73.33-9.11,26.61-20.8,52.34-31.26,78.49-2.12,5.29-6.4,8-11.06,10.53q-9,4.83-17.86,9.8c-9.57,5.35-22.54,8.59-27.66,16.74-4.88,7.77,6.48,18,8.35,28.14,3.68,19.94,4.18,39.57-3.36,58.64-8.81,22.32-17.25,44.87-27.55,66.5-22.83,47.92-64,71.27-113.93,81.91-16.47,3.51-33.19,4.58-49.95,4.62-73.85.17-147.71.06-221.56.33-7.89,0-13.88-1.91-19.39-7.81-11.08-11.85-22.4-23.58-34.5-34.36-7.49-6.67-8-12.14-4.14-21.33,36.84-88,72.81-176.45,109.8-264.43,4.78-11.37,5.61-19.22-5.13-26.5-11.73-7.95-15.38-19.44-16.55-33.37-2.8-33.36-6.92-66.61-11.06-99.84-1.31-10.48.93-14.29,12.57-14.14C180.51,63.61,231.85,63.24,283.18,63.24ZM148,191.51l25,26Q116.69,354.39,60.54,491.29c-2.65,6.48-9.6,12.59-4.29,20.89,10.16,10.5,20.42,20.9,30.44,31.53,3.93,4.17,8.41,5.32,14,5.31,76.36-.19,152.74.8,229.08-.59,50.27-.91,96.75-15.09,127.67-58.1,20.75-28.87,32.35-63.05,42-97a68.9,68.9,0,0,0-13.37-63.71c-7.8-9.48-3.69-13.06,4.69-16,45.45-15.89,71.64-48.48,82.6-94.47.35-1.48,1.45-2.77,2-4.23,15-39.58,2-71.79-37.18-92.18C520.27,91,490,79.78,456.79,79.38c-105.07-1.26-210.17-.38-315.26-.66-8.34,0-9.05,2.39-8,9.84,3.17,22.73,5.24,45.61,8,68.4C142.94,168.6,140.6,181,148,191.51Z"/>
          <path class="cls-3" d="M538.18,122.75c39.16,20.39,52.16,52.61,37.18,92.18-.55,1.45-1.65,2.74-2,4.23-11,46-37.15,78.58-82.6,94.47-8.39,2.93-12.49,6.52-4.69,16a68.9,68.9,0,0,1,13.37,63.71c-9.64,33.94-21.25,68.13-42,97-30.92,43-77.4,57.19-127.67,58.1-76.34,1.39-152.72.4-229.08.59-5.59,0-10.07-1.14-14-5.31-10-10.63-20.28-21-30.43-31.53,5.7-3.83,12.15-2.46,18.32-2.47,45-.08,90,.44,134.92-.18,36.51-.5,73.14,2.95,109.54-3,56.4-9.24,97.55-37.68,118.26-92.52,5.35-14.16,10.75-28.36,17.22-42,11.12-23.47,9-46.38.1-69.84-3-8-16.19-13.47-10.51-22.25,4.57-7.05,15.38-10.1,23.49-14.81,7.22-4.2,14.13-9.36,21.89-12.12,14.82-5.28,21.7-16.53,26.95-30.13,5.83-15.09,13.26-29.58,18.63-44.82C541.4,160.09,544.24,141.56,538.18,122.75Z"/>
          <path class="cls-1" d="M538.18,122.75c6.06,18.81,3.22,37.34-3.1,55.25-5.37,15.23-12.81,29.73-18.63,44.82-5.25,13.6-12.13,24.85-26.95,30.13-7.75,2.76-14.66,7.92-21.89,12.12-8.11,4.71-18.92,7.76-23.49,14.81-5.68,8.78,7.46,14.21,10.51,22.25,8.89,23.46,11,46.38-.1,69.84-6.48,13.66-11.87,27.86-17.22,42C416.6,468.84,375.45,497.28,319,506.52c-36.4,6-73,2.51-109.54,3-45,.62-89.95.1-134.92.18-6.17,0-12.62-1.35-18.32,2.47-5.32-8.31,1.63-14.42,4.28-20.89q56-137,112.45-273.75c6.13-15.37,21-20.3,34.35-27.29-20.3.3-40-4.38-59.31,1.26-7.43-10.52-5.1-22.91-6.51-34.55-2.77-22.79-4.84-45.67-8-68.4-1-7.45-.32-9.87,8-9.84,105.09.29,210.19-.6,315.26.66C490,79.78,520.27,91,538.18,122.75ZM413.36,278.13c10.16-5.68,19.56-12.7,30.11-16.54,40.87-14.85,63.21-44.16,76.52-85,13.86-42.52,1.67-69.38-42.41-79-29.51-6.47-59.48-3.36-89.23-3.53-74.89-.43-149.78.08-224.67-.38-10.9-.07-14.73,2.15-12.86,13.68,2.77,17,5.24,34.26,5.52,51.45.22,13.84,6.17,15.59,18,15.34,35.83-.73,71.68-.27,107.52-.27-25,13.5-50.65,24.62-76.6,34.85-9.91,3.9-15.93,9.53-20,19.76-15.52,39.29-32.17,78.14-48.3,117.19-20.27,49-40.46,98.13-61.37,148.87,66.11,0,130.41.06,194.7-.05,12,0,24.19.19,36.08-1.31,57.11-7.17,101.23-31.75,119.51-90.54,2.93-9.42,7.56-18.3,11.32-27.46C455.12,331.6,449.75,309.37,413.36,278.13Z"/>
          <path class="cls-3" d="M148,191.51c19.34-5.64,39-1,59.31-1.26-13.39,7-28.22,11.92-34.35,27.29Z"/>
          <path class="cls-2" d="M413.36,278.13c36.38,31.24,41.76,53.47,23.89,97-3.76,9.16-8.39,18-11.32,27.46-18.28,58.79-62.4,83.38-119.51,90.54-11.9,1.49-24,1.29-36.08,1.31-64.3.12-128.6.05-194.7.05,20.91-50.74,41.1-99.82,61.37-148.87,16.14-39,32.78-77.9,48.3-117.19,4-10.23,10.06-15.86,20-19.76,26-10.23,51.57-21.35,76.6-34.85-35.84,0-71.69-.47-107.52.27-11.86.24-17.8-1.5-18-15.34-.28-17.19-2.74-34.43-5.52-51.45-1.88-11.52,2-13.75,12.86-13.68,74.89.46,149.78,0,224.67.38,29.76.17,59.73-2.94,89.23,3.53,44.08,9.67,56.27,36.52,42.41,79-13.31,40.84-35.65,70.15-76.52,85C432.92,265.43,423.52,272.45,413.36,278.13ZM230.5,413.54c56.52,4.61,76.44-3.78,90.23-41.47,14.25-38.93-20.25-55.69-39.36-81.77ZM426.26,177l-1.17-3.19H337.66c-4.25,0-8.19,0-10.25,5-11.47,28.15-23.13,56.21-36.16,87.78Z"/>
          <path class="cls-1" d="M230.5,413.54,281.38,290.3c19.11,26.08,53.61,42.83,39.36,81.77C306.94,409.76,287,418.15,230.5,413.54Zm34.62-14c18.5.06,33.09-11.06,40.83-30,6.68-16.36-.06-29.23-10.55-41.2-6.46-7.37-11-8.28-15.07,2.49-7.05,18.44-14.89,36.59-22.86,54.66C253.12,395.31,252.62,401.72,265.13,399.54Z"/>
          <path class="cls-1" d="M426.26,177l-135,89.64c13-31.56,24.7-59.63,36.16-87.78,2.07-5.07,6-5,10.25-5h87.43Zm-99,46.41c17.76-8.13,32.9-19.93,47.74-32.6-9.27-1.86-17.62-1.5-25.91-2-7.38-.42-11.55,2.25-14,9.41-2.82,8.37-7.65,16.07-7.75,25.28l-.64.82Z"/>
          <path class="cls-3" d="M265.13,399.54c-12.5,2.18-12-4.23-7.66-14.09,8-18.07,15.81-36.22,22.86-54.66,4.12-10.77,8.62-9.86,15.07-2.49,10.49,12,17.23,24.84,10.55,41.2C298.21,388.48,283.63,399.59,265.13,399.54Z"/>
          <path class="cls-3" d="M327.33,223.56c.09-9.2,4.93-16.91,7.75-25.28,2.41-7.17,6.59-9.83,14-9.41,8.3.47,16.64.11,25.91,2-14.85,12.67-30,24.47-47.74,32.6Z"/>
          <path class="cls-3" d="M327.21,223.44l-.52.94.64-.82Z"/>
        </g>
      </g>
    </g>
  </g>
</svg>
