<svg xmlns="http://www.w3.org/2000/svg" viewBox="0 0 511.82 511.91">
  <defs>
    <style>
      .cls-1 {
        fill: #fff;
      }
    </style>
  </defs>
  <title>terminal</title>
  <g id="Layer_2" data-name="Layer 2">
    <g id="Layer_1-2" data-name="Layer 1">
      <g>
        <path d="M0,511.91V0H511.82V511.91ZM166.57,279.07q36.22,0,72.45,0c6.46,0,8.74-2.23,8.74-8.66q.05-56.21,0-112.42c0-6.74-2.32-9-9-9q-72.45,0-144.89,0c-6.69,0-8.92,2.27-8.93,9q0,56,0,111.92c0,7.22,1.93,9.18,9.15,9.18Q130.35,279.09,166.57,279.07Zm178.72,0q36,0,72,0c7.43,0,9.42-2,9.43-9.49q0-55.46,0-110.92c0-7.7-2.05-9.7-9.8-9.7H273.49c-7.51,0-9.55,2-9.56,9.3q0,55.71,0,111.42c0,7.52,1.87,9.39,9.41,9.39Q309.32,279.05,345.3,279ZM238.57,314.6c-3.55.5-6.34.76-9.07,1.31-9.67,1.95-19.13,4.56-27.17,10.62-9,6.78-9.25,15.58-.27,22.28a49.87,49.87,0,0,0,13.13,7c22.43,7.86,45.36,8.11,68.45,3.39,9.85-2,19.41-5,26.88-12.25,5.64-5.44,6.17-11.92.93-17.25-11-11.15-25.44-13-40.41-15a58.48,58.48,0,0,0,0,7.27c.75,5.35-2,8.09-6.68,9.51a31.14,31.14,0,0,1-20.09-.33c-3.88-1.4-6.13-3.75-5.78-8.16C238.73,320.47,238.57,318,238.57,314.6Z"/>
        <path class="cls-1" d="M166.57,279.07q-36.22,0-72.45,0c-7.22,0-9.15-2-9.15-9.18q0-56,0-111.92c0-6.75,2.24-9,8.93-9q72.45,0,144.89,0c6.65,0,9,2.3,9,9q0,56.21,0,112.42c0,6.44-2.28,8.66-8.74,8.66Q202.8,279.1,166.57,279.07Z"/>
        <path class="cls-1" d="M345.3,279q-36,0-72,0c-7.54,0-9.41-1.87-9.41-9.39q0-55.71,0-111.42c0-7.33,2-9.3,9.56-9.3h143.4c7.75,0,9.8,2,9.8,9.7q0,55.46,0,110.92c0,7.48-2,9.48-9.43,9.49Q381.27,279,345.3,279Z"/>
        <path class="cls-1" d="M238.57,314.6c0,3.37.16,5.86,0,8.33-.35,4.41,1.9,6.76,5.78,8.16a31.14,31.14,0,0,0,20.09.33c4.7-1.42,7.43-4.16,6.68-9.51a58.48,58.48,0,0,1,0-7.27c15,2.05,29.45,3.9,40.41,15,5.24,5.33,4.71,11.81-.93,17.25-7.48,7.21-17,10.24-26.88,12.25-23.08,4.72-46,4.47-68.45-3.39a49.87,49.87,0,0,1-13.13-7c-9-6.7-8.74-15.5.27-22.28,8-6.06,17.5-8.67,27.17-10.62C232.23,315.36,235,315.11,238.57,314.6Z"/>
      </g>
    </g>
  </g>
</svg>
