<?xml version="1.0" encoding="utf-8"?>
<!-- Generator: Adobe Illustrator 21.0.0, SVG Export Plug-In . SVG Version: 6.00 Build 0)  -->
<svg version="1.1" id="Layer_1" xmlns="http://www.w3.org/2000/svg" xmlns:xlink="http://www.w3.org/1999/xlink" x="0px" y="0px"
	 viewBox="0 0 500 500" style="enable-background:new 0 0 500 500;" xml:space="preserve">
<style type="text/css">
	.st0{fill:#FDFDFC;}
	.st1{fill:#0075B7;}
	.st2{fill:#184294;}
	.st3{fill:#FDC001;}
	.st4{fill:#8AD5EF;}
	.st5{fill:#FBFCF8;}
	.st6{fill:#C2F0FB;}
	.st7{fill:#FA8504;}
	.st8{fill:#C3EEF9;}
	.st9{fill:#F6BD04;}
	.st10{fill:#C5EFF9;}
	.st11{fill:#0777A5;}
	.st12{fill:#0979A1;}
	.st13{fill:#0F769F;}
	.st14{fill:#0C75A0;}
	.st15{fill:#FBE56B;}
	.st16{fill:#137392;}
	.st17{fill:#CCE9D1;}
	.st18{fill:#08729F;}
	.st19{fill:#FAE980;}
	.st20{fill:#ABEEFC;}
	.st21{fill:#F9BD01;}
	.st22{fill:#147A9D;}
	.st23{fill:#AEA87B;}
	.st24{fill:#204682;}
	.st25{fill:#2B87AC;}
	.st26{fill:#2B82A5;}
	.st27{fill:#BECEC5;}
	.st28{fill:#CEE7CB;}
	.st29{fill:#B0F0FA;}
	.st30{fill:#287361;}
	.st31{fill:#CFC45C;}
	.st32{fill:#337E7B;}
	.st33{fill:#E8C119;}
	.st34{fill:#F4C50C;}
	.st35{fill:#0675A1;}
	.st36{fill:#0D749C;}
	.st37{fill:#0B769B;}
	.st38{fill:#287C9F;}
	.st39{fill:#2E86AB;}
	.st40{fill:#FAF1B6;}
	.st41{fill:#F1D67B;}
	.st42{fill:#F0DE82;}
	.st43{fill:#E9D332;}
	.st44{fill:#EEDD6E;}
	.st45{fill:#FAF6C0;}
	.st46{fill:#EAD57C;}
	.st47{fill:#F8FBE9;}
	.st48{fill:#EDDC76;}
	.st49{fill:#1E4579;}
	.st50{fill:#254775;}
	.st51{fill:#CAB562;}
	.st52{fill:#FDEA80;}
	.st53{fill:#0E7988;}
	.st54{fill:#FEE75D;}
	.st55{fill:#E8D136;}
	.st56{fill:#ECD574;}
	.st57{fill:#247369;}
	.st58{fill:#B0C993;}
	.st59{fill:#F9DB5A;}
	.st60{fill:#40764D;}
	.st61{fill:#F6D755;}
	.st62{fill:#F7BC01;}
	.st63{fill:#B8EFFC;}
	.st64{fill:#0284C0;}
	.st65{fill:#C7F0F9;}
	.st66{fill:#4BD8FD;}
	.st67{fill:#66DAF8;}
	.st68{fill:#49E2FD;}
	.st69{fill:#B4EEFC;}
	.st70{fill:#C7EFF8;}
	.st71{fill:#B2A489;}
	.st72{fill:#AEA87E;}
	.st73{fill:#0579A7;}
	.st74{fill:#00B2E9;}
	.st75{fill:#0F7397;}
	.st76{fill:#3A7485;}
	.st77{fill:#426E70;}
	.st78{fill:#5D6B5E;}
	.st79{fill:#78E5F9;}
	.st80{fill:#83F1FC;}
	.st81{fill:#73EAFB;}
	.st82{fill:#FC8502;}
	.st83{fill:#F5860D;}
	.st84{fill:#C4D4CA;}
	.st85{fill:#F78707;}
	.st86{fill:#F3890F;}
	.st87{fill:#F6B767;}
	.st88{fill:#FBD48F;}
	.st89{fill:#6CB2FF;}
	.st90{fill:#FEC805;}
	.st91{fill:#FEBC01;}
	.st92{fill:#FE8E02;}
	.st93{fill:#FEAD01;}
	.st94{fill:#FEC702;}
	.st95{fill:#FE9D03;}
	.st96{fill:#FEC804;}
	.st97{fill:#FEC905;}
	.st98{fill:#FEC806;}
	.st99{fill:#FEC807;}
	.st100{fill:#FEC605;}
	.st101{fill:#FED516;}
	.st102{fill:#FEC904;}
	.st103{fill:#FE9C12;}
	.st104{fill:#FEDB41;}
	.st105{fill:#FED28C;}
</style>
<g id="rSTWCM_1_">
	<g>
		<path class="st0" d="M200.3,497.8c-9.1-4.6-18.2-9.2-27.3-13.9c-1.7-3.8-3.3-7.7-4.8-11.6c-4.3-11.6-3.6-13,6.3-20.1
			c5.9-4.2,11.4-5,17.6,0.4c3.1,2.7,6.3,3.9,9.7,1.4c2.5-4,2-9,4.3-13.1c1.1-1.9,2.2-4,4.8-3.9c2.8,0.1,3.7,2.6,4.7,4.6
			c1.7,3.2,2.7,6.6,4,9.9c1.2,2.9,2.2,5.9,3.9,8.6c-2.1-6-4.1-12-7-17.7c-1.5-2.9-3-5.9-0.5-8.7c5.2-3.2,9.7,0,14.4,2.2
			c6.6,3.5,11.2,9.6,18.4,13.2c-1.4-3.1-4.2-4.5-6-6.7c-5-5.2-14.1-5.6-17-13.3c-0.3-1.5,0.1-2.8,1.1-3.9c6.9-2.2,14.2,1.3,21.9,0.1
			c-5.7-1.2-10.9-0.3-16-2c-2.8-1.2-5.4-2.5-6.1-5.7c0.1-4.3,5.1-4.1,6.9-6.7c-2.9,2.4-7,3.3-10.2,5.5c-5.3,3.2-0.3,10.7-5.4,14
			c-4.3,2.6-8.2,1.2-10.8-2.7c-2.7-4.3,0.2-7.4,3.2-10.1c5.2-4.1,3.5-10.4,4.9-15.6c-2.3,4.1,1.6,12.7-5,12.9
			c-7.1,0.2-6.2-8.5-9.1-13.2c-1-1.6-1.7-3.5-2-5.4c0.4-3.9,4-4.5,6.9-5.3c17.4-4.9,34.9-9.6,52.4-14.2c7.6-2,12.7,0.6,16,7.9
			c11,23.9,20.4,48.3,28.9,73c1,2.8,1.8,5.5,1.3,8.4c-0.8,3.3-3.2,5.8-6.5,6.1c-12.2,1.4-22.9,6.6-34.5,9.5
			c-17.2,4.3-34.6,8.2-51.3,14C208.6,497,204.6,497.8,200.3,497.8z"/>
		<path class="st1" d="M303.5,465.5c-10.3-26.8-20.6-53.7-30.7-80.5c-2.3-6.2-6.1-8-12.3-6.3c-20.2,5.7-40.4,11.2-60.6,16.8
			c-0.2,0.3-0.5,0.7-0.7,1.1c-5.2,3.3-11.6,3.8-17.4,5.8c-2.1,0.6-4.3,1.1-6.4,1.8c-5,1.4-10,2.7-15,4.1
			c-11.4,3.2-12.6,5.3-8.4,16.1c6.6,16.9,12.6,33.9,18.3,50.9c0.8,2.5,3.4,5.2,0.9,7.8c-4.2-2.2-8.5-4.3-12.7-6.5
			c-2.1-3-3.8-6.1-5.1-9.5c-6.5-16.3-11.7-32.9-18.5-49c-6-14.2-3.9-17.6,10.5-21.7c43-12.1,86.1-23.7,129.3-35.1
			c10.1-2.7,13.9-0.9,17.8,8.8c12.9,31.5,25.8,63.1,36.8,95.1c2.6,7.5-0.4,11.9-7.3,13.5c-26.5,6.5-52,15.5-78.8,21.1
			c-8.9,1.9-17.3,5.3-26.5,6.3c-4.2-2.2-8.5-4.3-12.7-6.5c6.3-5.1,14.7-7.5,22.3-8.9c23.6-4.4,45.6-13.2,69.1-17.7
			C299.1,472.3,304.8,471.8,303.5,465.5z"/>
		<path class="st1" d="M-61,336c15.7-0.5,29.4-6.8,44-10.3c16.7-4,33.1-9,49.7-13.3c11.1-2.9,15.4-0.3,19.6,10.5
			c12.7,33.2,25.3,66.5,38.4,99.6c3.3,8.4,1.4,13.3-6.9,16c-7.3-3.7-14.6-7.4-21.8-11.1c-8.3-30-22-58.7-32.5-88.1
			c-2.3-6.5-7.1-7.2-12.9-5.7c-13.8,3.6-27.5,7.4-41.2,11.2c-0.8,0.3-1.7,0.5-2.6,0.7c-0.4,0.1-0.9,0.2-1.3,0.3
			c-5.6,1.2-10.9,3.1-16.6,3.9c-1.7,0.3-3.3,1-4.9,1.7c-6.3,1.2-12,7.1-19.4,1C-66.6,347-63.8,341.5-61,336z"/>
		<path class="st2" d="M-25.9,343.4c14.6-4.1,29.1-8.4,43.7-12.3c6.5-1.8,11-0.3,13.8,7.1c9.6,26.3,19.9,52.4,29.9,78.6
			c1.4,3.7,2.9,7.3,0.4,10.8c-33.4-17-66.7-33.9-100.1-50.9c-0.1-2.3,1.6-2.9,3.4-3.5c1.9-0.3,3.8,0,5.3,1.5c6.9,8,16,7.7,25.1,7.5
			c3.4-1.4,7.5,0.2,10.9-1.3c0.1-0.1,0.1-0.6-0.1-0.8c-0.1-0.3-0.4-0.5-0.7-0.7c-4.6-1.8-9.2-0.9-13.8-1.2c-3.1-0.2-6.2-1-7.4-4.1
			c-1.2-3,1.6-4.3,3.5-5.7c1.5-1.1,3.4-1.8,4.5-3.3c1.1-1.4,4.7-2.5,1.7-4.9c-1.8-1.4-3.4,1-5,1.7c-2.4,1.4-4.9,2.8-7.5,3.9
			c-3.3,1.4-5.9,5.9-10.1,3.4c-3.7-2.2-0.6-6.4-1.7-9.6c-0.1-0.9,0-1.8,0.1-2.7C-29,352.2-25.9,348.3-25.9,343.4z"/>
		<path class="st3" d="M437.1,496c-4.2,8.2-8.4,16.5-12.6,24.7c-8.3,3.8-16.4,9.9-26.4,1.2c-6.1-8.8-7.1-19.3-13-28.2
			c-1.1-2-1.9-4.1-2.4-6.4c0-7.9-5-15.4-4.4-23.4c1.4-3.5,4.8-4.6,8.2-5.5c23.2-6.4,46.4-12.7,69.7-18.9c2.9-0.8,6.1-2.4,9.2,0.5
			c-3.9,7.7-7.8,15.4-11.7,23.1c-2.5,1.3-4,3.7-6.2,5.4c-3,2.3-6.6,5.4-10.3,2.6c-3.3-2.5,0.7-5.8,0-8.5c-0.7,4.4-2.1,8.8-0.3,14.5
			c2,6.3-1.3,7.9-8.8,5.3c-3.1-9.5-3.1-9.5-9.4-12.1c4.5,3,7.5,6.1-0.3,8.3c-3.2,0.9-6.6-0.3-9.8,0c-3.1,0.3-6.4-0.6-9.8,0.2
			c5.8-0.3,11.4,0.3,16.9,0.4c3.6,0.1,6.7,0.5,7.7,4.6c-0.1,0.9-0.6,1.6-1.3,2.1c-3.1,0.9-5.1,3.5-8.7,5.2c4.2-1.4,5.8-5.3,10-5.1
			c6.7,4.7,2,9.9,1.6,14.6c-0.2,3.1-2.5,5.9-4,8.8c2.3-4.6,4.6-9.1,5.4-14.4c0.5-3.2-0.7-9,5.1-8.3
			C436.8,487.3,436.4,492.3,437.1,496z"/>
		<path class="st4" d="M216.7,506.2c6.3-5.2,14.8-5.6,22.6-7.7c27.5-7.4,55.1-14.5,82.6-21.8c6.2-1.6,7.7-5.1,5.3-11.3
			c-12.3-31.4-24.4-62.8-36.1-94.3c-3.1-8.4-7.9-10.4-16-8.2c-44.9,12.2-89.9,24.2-134.9,36.4c-8.6,2.3-6.4,8.9-4.3,14.6
			c6.5,17.9,13.3,35.7,19.9,53.6c1.1,3,3.3,5.8,2.8,9c-1.8-0.9-3.6-1.8-5.5-2.8c-7.1-18.8-14.1-37.5-21.2-56.3
			c-5.3-14.1-3.6-16.8,10.3-22.6c17-7.1,36-8.2,53.4-14.1c26.7-9.1,55.3-13.6,81.9-23.2c7.7-2.8,13.8,0.7,17.5,10.2
			c8.7,22.3,17.1,44.8,25.6,67.2c3.3,8.8,6.9,17.5,10.1,26.3c4.3,12,1.2,17.4-11.2,20.8c-32.4,8.9-64.8,18-97.2,26.9
			C220.3,508,218.5,507.1,216.7,506.2z"/>
		<path class="st5" d="M171.2,483c-6.6-18.3-13.3-36.6-19.9-54.8c-1.2-3.3-2.6-6.6-3.7-9.9c-1.8-5.5,0-9.1,5.7-10.6
			c7.5-1.9,15-3.8,22.4-5.6c8.6,3.3,14.6,11.1,23.8,13.4c1,0.4,1.9,0.9,2.7,1.6c1.1,1.2,1.6,2.5,1.6,4.1c-0.3,1.4-1,2.5-2.3,3.2
			c-9,0.9-18.4-2.2-27-0.2c6.5-0.8,13.4-0.8,20.3,1.3c3.5,2.3,2.9,4.8,0.5,6.8c-2.1,1.8-4,3.7-5.7,5.9c-4.1,4.1-9.5,6.6-12.4,9.4
			c5.7-4.1,13.6-8.2,19.9-14.2c2.6-1.8,5-4.6,9-1.5c2.5,5.4-0.5,10.1-1.1,15.1c-0.4,2.8-3.1,5.4-0.3,8.6c-4.7,2.2-9,7.1-14.2-1.2
			c-1.9-2.9-6.6-6-11-1.9c-4.5,4.2-13.8,4.7-10.9,14.4c1.7,5.7,6.4,11,4.5,17.3C172.4,483.7,171.8,483.4,171.2,483z"/>
		<path class="st6" d="M384.8,487.9c0.7,1.5,1.3,3,2,4.6c2.6,10.3,6.1,20.3,11.6,29.8c1,1.4,2.1,2.8,3.3,4.1
			c1.8,4.1,7.7,4.4,9.3,8.7c-7.6,7.6-19.9,5.5-23.3-6.7c-2.9-10.4-7.6-20.4-11.5-30.6c-1.8-4.7-3.6-9.4-5.4-14.2
			c-3-6.8-4.3-14.1-7.7-20.9c-3.7-7.3-0.9-13.1,7.1-15.3c32.3-9,64.7-17.9,97.2-26.3c2.4-0.6,5.1-1.7,7.4,0.9
			c-1.4,2.7-2.8,5.5-4.2,8.2c-3.7,2.4-7.9,3.8-12.3,5.1c-24.5,7.1-49.5,12.8-74.2,19.4c-7.1,1.9-9.6,5.9-7.3,12.5
			C379.2,474.1,381,481.2,384.8,487.9z"/>
		<path class="st7" d="M335,566.3c-21.2-10.8-42.5-21.6-63.7-32.4c-0.1-1.8,1.1-2.9,2.7-3.4c12.5-4.2,25.3-7.5,38.3-10.5
			c2.3-0.5,4.6-0.1,6.7,1.3C328.2,535.3,334.2,550.2,335,566.3z"/>
		<path class="st8" d="M-7.4,230.7c0.8-1.6,1.7-3.3,2.5-4.9c16.4-6.9,34.1-10.5,51.4-15c3.4-0.9,6.8-1.8,10.1-3
			c7.8-2.5,12.6,0.6,15.4,8c5.8,15.4,11.8,30.7,17.6,46.1c4,10.8,0.2,15.2-12.4,14.8c-3.6-2.6-1.8-5.9-2.1-9
			c-1.1-11.4-7.9-21.3-12.1-31.8c-0.3-0.9-0.4-1.7-0.5-2.6c0.1-2.9-0.6-5.6-1.9-8.3c-2.7-5.6-6.2-7.6-12.7-5.5
			c-14.3,4.7-29.2,7.7-43.5,12.3C0.6,233.1-3.8,235.6-7.4,230.7z"/>
		<path class="st9" d="M-24.2,263.6c1.1-2.2,2.2-4.4,3.3-6.6c6.6-1.4,13.1-2.3,20,0.4c2.7,2.3,2.5,4.6,0.6,7c2.1-1,2.8-4,6-3.2
			c6.6,6.1-1.8,10.2-0.8,15.1c2.5-5.2,1.5-13.7,11.8-13.3c11.6,2.7,17.1,7.7,17.7,15.9c-5.8,6.5-15.6,5.2-22.8,8.8
			c-8.2,1.1-15.9,6.8-25.1,1.3C-18.8,281-20.9,272.1-24.2,263.6z"/>
		<path class="st10" d="M347.7,572.8c-3-1.5-6.1-3.1-9.1-4.6c-4.8-14.2-11.3-28-15.2-42.4c-2.4-8.8-9.5-8.7-16.4-9.4
			c-1.9-1.1-3.1-2.6-2.7-4.7c4.8-4.5,11.7-4.9,17.9-6.1c5.5-1,9.4,2.8,11.4,7.9c6.5,16.6,12.9,33.3,19.1,50
			C354.6,568.2,354.4,572.3,347.7,572.8z"/>
		<path class="st11" d="M474.8,421.9c-23.2,4.6-46,10.5-68.2,17.6c-11.9,3.8-24.5,5.9-36.3,10.1c-6.5,2.4-8.4,6-5.1,12.2
			c3.7,7,5.9,14.3,7.6,21.8c-0.5,1.9-1.6,2.2-3.4,1c-4.6-7.7-7.2-16-9.9-24.2c-2.3-7.1-0.3-13.2,6.9-15.1
			c35.9-9.8,71.9-19.1,108-28.5c0.9-0.2,2,0.1,2.9,0.2C476.5,418.6,475.6,420.2,474.8,421.9z"/>
		<path class="st12" d="M384.8,487.9c-7.6-7.3-10.2-16.2-11.4-25.6c-0.6-4.7,2.6-8,6.6-9.1c30.1-7.9,60.4-15.5,90.6-23.1
			c-0.8,1.6-1.7,3.3-2.5,4.9c-5.1,3.4-11.3,4.4-17.2,6c-21.2,5.7-42.3,11.7-63.6,17.3c-3.7,1-8,1.3-8.6,6
			C381,472.1,385.6,479.6,384.8,487.9z"/>
		<path class="st13" d="M347.7,572.8c4.2-1.5,4.4-4.4,2.9-8.3c-6.6-17.1-13.1-34.2-19.5-51.4c-2-5.4-6-6.8-11.1-5.6
			c-5,1.2-9.8,2.9-14.7,4.3c-15.9,7.1-32.8,11.5-50.5,13.7c-1.2-0.6-2.4-1.2-3.6-1.8c13.8-5.8,28.8-8.6,43.3-12.7
			c6.5-1.9,13.2-3.3,19.7-5.2c16.9-4.7,17.3-4.6,23.7,12.2c5.6,14.4,10.7,29,16.5,43.4c2.2,5.4,1.3,9.8-1.3,14.1
			C351.4,574.6,349.5,573.7,347.7,572.8z"/>
		<path class="st14" d="M303.5,465.5c6.6,5.2,0.6,6.4-2.6,7.3c-11.8,3.7-23.9,7-35.8,10.4c-18.1,5.1-37,8.5-54.5,15.2
			c-2,0.8-4.4,0.8-6.7,1.2c-1.2-0.6-2.4-1.2-3.6-1.8c20-9.2,42.5-12.4,63.8-18.7c10.8-3.2,21.3-7.4,32.8-8.8
			C300,469.9,302,468,303.5,465.5z"/>
		<path class="st15" d="M428.7,481.2c4.1,2.7,7.8,2.6,7.2-2.5c-1.1-10-1.3-12.5,2.5-20.1c1.4,4.2-0.9,7.7-1,11.9
			c7.4-0.1,9.9-7.4,16.5-7.5c-1.1,2.2-2.2,4.4-3.3,6.6c-1.5,2.7-7.6,3-4.2,8.2c-3.1,6-6.1,12.1-9.2,18.1c-1.8-2.7-3.6-5.3-6.6-9.8
			c-2.4,10.1-2.8,19.5-9.8,27c-2.8-7.4,3.5-12.1,3.6-18.3c0.1-3.4,2.1-6.7-2.7-8.9l0,0c0.3-0.6,0.6-1.1,1-1.7
			C424.4,482.9,425.9,481,428.7,481.2z"/>
		<path class="st16" d="M308.4,515.6c8.6-3.4,13.6,0.1,16.5,8.4c4.3,11.8,8.9,23.4,13.4,35.2c1.1,3,2.2,6.1,0.3,9
			c-1.2-0.6-2.4-1.2-3.6-1.8c-3.9-15.3-10-30-16.4-44.7c-4.3-3.3-8.3-1-12.3-0.1c-13.6,3-26.3,8.6-40.5,9.6
			c-1.2-0.6-2.4-1.2-3.6-1.8c-0.1-1.4,0.6-2.5,1.8-2.9C278.5,521.9,292.6,516.3,308.4,515.6z"/>
		<path class="st17" d="M378.8,464.3c-1.9-4.1,0.3-5.6,3.9-6.5c28.6-7.2,56.2-17.1,85.4-22.8c-0.8,1.6-1.7,3.3-2.5,4.9
			c-22.8,3.8-44.2,11.5-66.3,17.1C392.2,458.9,384.3,459.2,378.8,464.3z"/>
		<path class="st18" d="M377.5,496.6c3.9,9.5,8.1,18.9,11.7,28.5c5.2,13.9,6.8,14.7,21.3,9.4c1.4-4.1,4.2-4.7,8.2-2.3
			c-1.1,2.2-2.2,4.4-3.3,6.6c-23.5,5.2-24,5.1-32.7-17.7c-3-7.9-5.4-15.9-8.1-23.8C375,495.6,375.9,495.1,377.5,496.6z"/>
		<path class="st19" d="M-1,258.5c-6.6-1.4-13.2,1-19.8-1.5c0.3-0.5,0.6-1.1,0.8-1.6c3.1-1.7,6-3.6,10-3.3c10.3,2.5,2.3-4.8,3.8-7
			c3.5-2.6,7.3-0.9,11,0.1c9.7,4.2,7.4,13.4,11,20.2c-9.2,0-6.1,9.8-11.8,13.1c-1-4.1,0.2-7.6,1.9-11c1-2,1.8-4.1-1.7-5.1
			C2.9,260.4,1.5,258.7-1,258.5z"/>
		<path class="st20" d="M308.4,515.6c-15.4,4.6-30.8,9.1-46.2,13.7c-2.4-1.2-4.9-2.5-7.3-3.7c16.4-5.8,33.5-9.5,50.5-13.7
			C305.5,513.7,306.9,514.7,308.4,515.6z"/>
		<path class="st21" d="M-10.1,254c-3.3,0.5-6.6,0.9-9.9,1.4c2.8-5.5,5.6-11,8.4-16.5c4.5-1.3,8.7-3.2,13.7-3
			c4.6,1.8,10.4-0.6,13.9,4.7c-0.6,9.8-0.6,9.8-11.2,6.7c-3.7-0.4-7.4-2.6-11.2-1.4C-6.8,249-6.1,252.6-10.1,254z"/>
		<path class="st22" d="M-7.4,230.7c13.8,0.3,25.2-6.7,38.2-8.9c5.1-0.9,10-2.4,14.9-4c10.8-3.5,14.7-1.7,17.9,9.2
			c0.7,2.3,2.7,4.7,0.8,7.1c-5.9-1.3-4.5-8.3-9.4-10.3c-4.5-2.4-8.5-0.4-12.5,0.6c-14.8,3.8-29.3,8.3-44.2,11.6
			c-2.7,0.6-5.5,2.4-8.3-0.5C-9.1,234-8.3,232.3-7.4,230.7z"/>
		<path class="st23" d="M-34.5,374.3c-1.2,0.8-2.4,1.6-3.6,2.3c-5.5-2.8-10.9-5.5-16.4-8.3c-0.3-1,0-1.7,0.9-2.1
			c3.8-0.2,6.2-1.2,4.7-5.7c-1.1-3.4-3.9-7-1-10.6c1-0.7,2-1.3,3-2c6.3,5.4,7.7,12.2,8.7,19.6c1.3-4.9,2.4-9.8,3.8-14.7
			c1-3.5,1.6-7.2,6.1-8.3l-0.2,0.2c6.5,5.4-1.6,9.1-0.7,13.8l0-0.1C-29.6,364.3-28.7,370.6-34.5,374.3z"/>
		<path class="st24" d="M-49.9,350c1.2,3.6,2.4,7.2,3.5,10.8c0.8,2.6,3.3,5.5,0.6,7.7c-2.8,2.3-5.3-1.6-8.1-1.7
			c-5.6-3.8-13-4.9-17.1-10.9c0.6-1.1,1.1-2.2,1.7-3.3C-62.1,355.2-56.6,349.9-49.9,350z"/>
		<path class="st25" d="M56.2,209.1c-20,6.5-40.4,12-61.1,16.6c0.8-1.6,1.7-3.3,2.5-4.9c19.9-2.8,37.9-10.9,57.6-14.1
			C55.9,207.4,56.2,208.2,56.2,209.1z"/>
		<path class="st26" d="M5.6,299.4c-22.1,8.3-24,7.5-32.5-14c-1.2-2.9-1-6.4-3.9-8.7c0.8-1.6,1.7-3.3,2.5-4.9
			c7.7,4.3,7.1,12.3,10.1,18.6c2.6,5.5,5.6,8.6,11.9,6.4c3.5-0.6,6.7-2.2,10.5-0.8C5.5,296.9,5.9,298.1,5.6,299.4z"/>
		<path class="st27" d="M265.8,531.1c14.2-4,28.4-8.2,42.7-12c3.2-0.9,7.7-3.1,10.1,2.4c-16.6,1.7-31.9,7.3-47.3,12.3
			C269.5,533,267.6,532.1,265.8,531.1z"/>
		<path class="st28" d="M-9.9,235.6c17.3-4.5,34.6-9.1,52-13.6c4.6-1.2,9.1-3.4,14.2-0.4c0.7,0.8,0.7,1.5,0,2.2
			c-12.1,2.8-24,6.2-35.9,9.5c-6.3,1.5-12.3,3.7-19,3.9c-4.2,1.1-8.1,3.5-12.9,1.7C-11,237.8-10.5,236.7-9.9,235.6z"/>
		<path class="st29" d="M-4.6,298.4c-8.5,3.9-13.4,1.3-16-7.8c-1.9-6.4-5.1-12.6-7.7-18.8c1.1-2.2,2.2-4.4,3.3-6.6
			c5.9,2.9,4.1,8.7,6.3,13c1.7,3.4,3.2,6.9,4.8,10.4c0.8,1.1,1.8,2,2.7,3.1C-9,294-5.5,295.1-4.6,298.4z"/>
		<path class="st30" d="M401.3,528.6c-1.4-1.4-2.8-2.8-4.1-4.2c-0.2-1.9,0.5-3.2,2.5-3.6c4.3,4.7,9,2.7,13.7,1.8
			c3.7-0.7,7-3.1,11.2-2c-0.8,1.6-1.7,3.3-2.5,4.9C415.7,528.9,409.6,533.2,401.3,528.6z"/>
		<path class="st31" d="M401.3,528.6c7.7,2.2,13.6-3.3,20.8-3c-1.1,2.2-2.2,4.4-3.3,6.6c-2.7,0.8-5.5,1.5-8.2,2.3
			C407.1,533,402.6,533.2,401.3,528.6z"/>
		<path class="st32" d="M-14.8,289.7c-5.5-7.5-6.3-16.5-10.2-24.5c0.3-0.5,0.6-1.1,0.8-1.6c7.3,6.8,8,15.8,11.1,24
			C-13,288.8-13.6,289.5-14.8,289.7z"/>
		<path class="st33" d="M-71,355.8c6.4,2.6,12.7,5.3,17.1,10.9c-0.2,0.6-0.4,1.1-0.6,1.6c-5.2-2.6-10.2-5.6-15.5-7.8
			C-73.9,359-71.7,357.5-71,355.8z"/>
		<path class="st34" d="M446.3,477.9c-1.9,0-4.9,0.7-5.6-0.2c-1.5-1.9,0.7-3.2,2.3-4.1c2.4-1.4,5-2.6,7.5-3.9
			C449.1,472.4,447.7,475.1,446.3,477.9z"/>
		<path class="st35" d="M228.1,348.6c-2,3.7-5.1,5.1-8.6,6.1c-35.3,9.5-70.6,19.1-105.8,28.7c-6.5,1.8-11.5-0.6-13.9-6.5
			c-8.2-20.4-16.3-40.9-23.8-61.5c-2.9-7.8,0.3-12.5,9.2-14.8c35.1-9,70-18.6,104.8-28.5c8-2.3,12.7,1.1,15.2,7.1
			c8.2,20.4,15.7,41.1,23.4,61.7C229.6,343.7,229.5,346.5,228.1,348.6z"/>
		<path class="st36" d="M323.6,376.3c-12.6-23.4-11.9-27.2,12.5-33.6c27.9-7.2,55.8-14.3,83.3-22.6c5.5-1.7,9.5,1.5,11.3,5.9
			c7.5,19,14.8,38,21.5,57.2c2.1,5.9-2.5,9-8,10.6c-25.7,7.5-51.4,15.1-77.8,20.8c-2-0.2-2.2-1.5-2.2-3c3.5-5.6,10.4-5.5,16.2-7
			c18.2-4.6,36.1-9.8,54-14.9c11-3,11-3,8.1-14c-3.8-14.7-10.4-28.5-16.7-42.5c-2.6-5.7-6.5-7.2-12-5.4c-27.8,7.2-55.3,15.1-83,22.3
			c-7.1,1.9-9.4,5-6.4,12.1c2.1,4.8,5.3,10.1,1.2,15.1C324.8,377.7,324.1,377.2,323.6,376.3z"/>
		<path class="st37" d="M5.6,299.4c-0.3-0.9-0.6-1.9-0.9-2.8c0.6-2.9,3.2-3.5,5.7-4.2c20.4-5.7,40.8-11.3,61.4-16.6
			c1.6-0.4,3.2-0.3,4.9,0c14.6-2.5,14.8-2.7,9.7-16.1c-5.4-14.1-11.5-28.1-16.3-42.3c-2.5-7.6-6.5-10-13.9-8.3
			c-0.3-0.8-0.7-1.6-1-2.5c10.4-4.7,14.1-3.5,18.2,6.7c6.8,17.2,13,34.5,19.5,51.7c2.9,7.6-1.1,11.2-7.8,13.1
			C58.8,285.6,32.7,293.8,5.6,299.4z"/>
		<path class="st38" d="M365.3,412.1c0.4,0.9,0.8,1.7,1.2,2.6c-25.9,9-25.9,9-35.4-16.7c-2.7-7.2-5-14.5-7.5-21.7
			c0.8,0.3,1.7,0.6,2.5,1c7.8,7.8,10.4,17.8,13.6,27.3c2.3,6.9,5.6,10,13,8C357.1,413.5,360.7,408.8,365.3,412.1z"/>
		<path class="st39" d="M377.5,496.6c-0.9,0.2-1.9,0.5-2.8,0.7c-1.7-4.2-3.5-8.5-5.2-12.7c1.1-0.3,2.2-0.6,3.4-1
			C374.3,487.9,375.9,492.3,377.5,496.6z"/>
		<path class="st40" d="M187.5,437.4c1.4-2.7,2.7-5.4,6.1-6.6c3.1-1.1,2.7-2.9-0.1-4.6c0.9-4.9,6-0.7,8.2-2.9
			c0.4-0.9,0.8-1.8,1.2-2.7c2.8-3,5.9-5.3,10.8-3.1c-1.2,3.4-8.2,4.6-4.2,9.7c1.9,2.5,5.5,4.3,8.3,0.7c3-1.3,5.9-4.2,9.1,0.4
			c4.2,6.8,14.1,6.5,18.2,13.4c-5.3,2.3-9-4.8-14.2-3.2c-4.9-1.1-9-7-14.6-3.1c-3.6-0.1-6.7-2.7-10.3-2.9c-3.7-2.2-4.6,2.6-7.6,2.2
			C193.8,433.3,192.6,440.9,187.5,437.4z"/>
		<path class="st41" d="M205.8,432.5c4.8-4.9,7.3,0.2,10.3,2.9c3.6,10.2,9.4,19.8,10.3,30.7c-9.6-7.1-8.8-18.7-15.2-28.1
			c-5.1,4.9-4.7,11.6-6.5,17.4c-2.5-0.3-4-2.3-3.1-3.9C205,445.7,203.4,438.6,205.8,432.5z"/>
		<path class="st42" d="M213.5,417.5c-4.2-0.4-6.5,3.9-10.8,3.1c-0.3-0.9-0.7-1.8-1-2.8c-0.1-7.4-6.8-14.6-2.7-22.1
			c0,0,0.8-0.2,0.8-0.2c5.7,5,5.1,12.4,9.8,18.9c5.2-6.2,1.7-15.5,8.9-20.4C216.2,401.7,218.1,410.3,213.5,417.5z"/>
		<path class="st43" d="M230.7,438.5c0-1.9-0.1-3.9,2.9-2.5c3.8,1.8,7.5,3.8,11.3,5.7c1,0.9,2.2,1.6,3,2.6c2.2,2.6,8.5,5,5.9,7.7
			c-3,3.2-7.6-1.2-10.9-3.6C238.7,445.3,234.8,441.8,230.7,438.5z"/>
		<path class="st44" d="M234.3,421.8c4.9,0.2,9.8,0.4,14.8,0.7c2.2,0.1,5.2-0.1,5.1,3c0,2.3-2.5,2.1-4.5,2.2
			c-7.2,0.4-14.3-0.5-21.5-2.3c-1.8-0.2-3.4-0.9-3.4-2.8c0-1.3,1.3-1.8,2.7-2.1C230,420.1,231.9,422.6,234.3,421.8z"/>
		<path class="st45" d="M234.3,421.8c-1.7,1.3-3.7,0-5.6,0c-4.8,0.2-2.3,2-0.5,3.6c-0.5,0.9-1,1.9-1.5,2.8c-3.1-1.8-6.1-0.2-9.1-0.4
			c3.5-3.9-4.4-12.2,5-13.8c0.5,1.2,0.3,2.4-0.2,3.5c0.9-0.3,1.1-1.2,1.9-1.6c1.2-0.5,2.3-0.7,3.5,0.3
			C228.4,419.8,231.7,420.4,234.3,421.8z"/>
		<path class="st46" d="M227.8,416.3c-2.5-0.2-3.8,3.2-6.6,1.6c-0.2-0.1,0.9-2.5,1.4-3.8c5.4-1.5,9.1-6.1,15.8-6.4
			C237.5,413.9,231.7,414.2,227.8,416.3z"/>
		<path class="st47" d="M199,395.7c-1.6,7.5,7.5,14.6,2.7,22.1c0,0-0.8-0.4-0.8-0.4c-7.9-4.3-16.2-8.2-20.4-16.6
			C186.7,399.1,192.9,397.4,199,395.7z"/>
		<path class="st48" d="M180.6,400.8c7,5.3,14.9,9.6,20.4,16.6c-11.1-0.9-18.2-8-25.3-15.3C177,400.8,178.7,400.4,180.6,400.8z"/>
		<path class="st49" d="M-28.3,344.6c-5.5,7.1-4.1,17-9.1,25.3c-5-7.2-6.5-14.8-9.6-21.9C-40.4,347.8-35,344-28.3,344.6z"/>
		<path class="st50" d="M-29.1,358.6c-2-4.9,5-8.7,0.7-13.8c0.9-0.5,1.7-0.9,2.6-1.4C-20,350.3-28.2,353.5-29.1,358.6z"/>
		<path class="st50" d="M-12,360.7c2.1-3.5,5.2-6.5,9.4-2.9c4.8,4.1-0.6,6.1-2.6,8.8c-2.3,3.1-7.2,2.9-9,7
			c7.3,5.5,16.5-1.2,23.6,4.7c-10.5,4.2-21.3,3-32.3-0.9c-0.7-0.7-1.2-1.5-1.4-2.4c1.7-6.8,9-7.9,13.7-11.7c1-0.8,0.1,0.4,0.7-0.6
			c0.9-1.3-1.1-0.6-1.4-1.2C-11.6,361.4-11.8,361-12,360.7z"/>
		<path class="st51" d="M-23.8,375.7c11,3.8,22.1,2.6,33.1,2.7c1.1,2.7,2.9,5.6-2.5,5.2c-3.2-0.2-6.5,0-9.7,0.1
			c-6.1,1.7-12.1-1.8-18.2-2.1C-24,381.6-28.3,379.5-23.8,375.7z"/>
		<path class="st50" d="M-34.5,374.3c1.8-5.3,3.6-10.5,5.3-15.8c3.9,3,0.7,6.3,1.3,10.1c5.7-2.5,9.6-7.2,15.8-7.9
			c0.1,0.3,0.3,0.6,0.4,0.9c-3,7.5-11,9.5-17.4,13.3c-0.5-0.1-0.9-0.2-1.4-0.3C-31.7,374.5-33.1,374.4-34.5,374.3z"/>
		<path class="st50" d="M-23.8,375.7c-1.4,4.7,1.9,4.9,5.5,5.4c5.2,0.7,10.3,1.8,15.4,2.7c-11.9,3.4-24.1-0.7-27.4-9.2
			c0,0,0.9-0.1,0.9-0.1c1.8,0.7,3.9-1,5.5,1.1L-23.8,375.7z"/>
		<path class="st52" d="M428.7,481.2c-1.2,2.3-3.1,3.5-6.1,3.2c-3.2-6.5-8.9-2.5-13.3-3.5c-5.6-1.3-11.6-0.5-17.5-1.4
			c8.9-5.8,20.2-0.5,30-3.6c-1.8-5.4-10-4.6-11.2-10.4C429.7,470.2,429.7,470.2,428.7,481.2z"/>
		<path class="st53" d="M399.7,520.8c-0.8,1.2-1.7,2.4-2.5,3.6c-5-10.3-11.6-20.3-10.4-32C394.1,500.8,394.9,511.5,399.7,520.8z"/>
		<path class="st54" d="M421.6,486c-2.2,5.3-7.4,7-12.4,9C411.6,489.8,415.5,486.6,421.6,486C421.6,486,421.6,486,421.6,486z"/>
		<path class="st55" d="M187.5,437.4c3.2-1.7,6.3-3.7,9.7-4.9c2.3-0.8,0.6,1.4,1,2.2c-5.6,8-15.9,10.1-23.6,18.7
			C175,442.7,183.2,441.7,187.5,437.4z"/>
		<path class="st56" d="M201.6,423.2c-1.7,3.2-5.9,0.9-8.2,2.9c-7.6-0.4-15.1-0.8-22.7-1.2C180.8,421.5,191,421.2,201.6,423.2z"/>
		<path class="st57" d="M10.4,285.8c7.3-2.2,14.6-4.5,21.9-6.7c2.8-1.7,4.9-4.4,8.5-4.9c7.5-1.9,14.8-4.5,22.5-5.7
			c5.7-0.9,6-3.7,4.9-8.6c-1.7-7.9-7.9-15.3-5.6-23.7c0.4-0.2,0.8-0.4,1.2-0.6c8,10,11.5,21.4,13.5,33.2c-1.6,3.8-4.1,6.7-8.5,7.9
			c-17.4,4.7-34.7,9.4-52.1,14.1c-2.2,0.6-4.4,0.9-6.7-0.4C8.4,288.5,7.9,286.9,10.4,285.8z"/>
		<path class="st58" d="M10.8,289.6c19.6-5.3,39.2-10.6,58.8-15.9c3.2-0.9,5.6-2.8,7.7-5.1c-0.2,2.4-0.4,4.8-0.7,7.2
			c-24,6.9-48,13.9-71.9,20.8c-3.1,0.6-6.2,1.2-9.3,1.8c-3.1-1.8-7.2-2.2-8.6-6.2C-5,292.2,2.3,287.9,10.8,289.6z"/>
		<path class="st57" d="M56.1,223.2c0.1-0.5,0.1-1.1,0.1-1.6c5.7,2.6,4.5,8.9,8.1,12.5c0,0-0.2,0.7-0.2,0.7s-0.4,0.6-0.4,0.6
			c0,0-0.9,0.3-0.9,0.3C56,233.5,55.5,228.6,56.1,223.2z"/>
		<path class="st59" d="M40.8,276c-2.8,1-5.7,2-8.5,3c-0.7-9.8-8.2-12.1-16.5-13.7c-7.2-4.3-2.7-14.2-11-18
			c6.7,1.6,9.6-1.5,10.5-7.1c4.1,4.8,8.2,4,12.4,1.1c6.9,0.1,5.1,3.4,3.2,6.6c-1,1.7-4.4,3.3-1.6,5.4c8.8,6.7,1.6,7.3-3.1,8.4
			C29.9,268.1,37.7,269.9,40.8,276z"/>
		<path class="st60" d="M10.8,289.6c-8.2-0.2-14.8,7.8-24.1,2.6c-0.5-0.8-1-1.7-1.6-2.5c0.6-0.7,1.2-1.4,1.8-2.1
			c8.8,5.2,15.5-2,23.4-1.9C9.9,287.1,9.7,288.4,10.8,289.6z"/>
		<path class="st61" d="M-1,258.5c2.8-0.2,7.2-2.4,5.2,3.7c-2.2,3.7-5.3,6.2-10.4,6.4C-7.2,263.4,2.7,264.6-1,258.5z"/>
		<path class="st62" d="M-10.1,254c2.5-2.1-0.3-6.8,3.8-8.1c3.1,2.5,6.2,5.1,11,9C-1.4,254.5-5.8,254.3-10.1,254z"/>
		<path class="st62" d="M27.9,242.4c-3.6,2.6-7.2,5.2-11,8c-2.3-3.8,4.2-7.3-1.5-10.2c-4.5-2.1-9.8,0.9-14.1-3.1
			c5.6-2.9,11.8-4.3,18.1-5.3C22.3,235.3,29,236.2,27.9,242.4z"/>
		<path class="st21" d="M27.9,242.4c-0.4-5.1-10.5-3.8-8.4-10.5c12.1-3.2,23.5-8.6,36.7-8.7c2.6,4,2.8,9.1,6.7,12.5
			c1.4,8.8,5.5,17,8.5,25.4c2,5.6,0.7,8-5.2,9.1c-8.6,1.6-16.9,3.8-25.4,5.8c-8.6-3.1-14-10.2-21.1-15.8c3.5-3.6,9.3,1.7,12.4-2.3
			c-0.2-0.3-0.3-0.8-0.5-0.8c-8.4-2-12.1-4.6-2.9-10C30.6,246,34.7,243.4,27.9,242.4z"/>
		<path class="st63" d="M117.6,377.4c-12.3,4-12.3,4-16.6-7.2c-6.9-18.1-13.6-36.3-20.8-54.4c-2.3-5.9-1.1-8.7,4.9-10.3
			c20.5-5.6,41-11.5,61.5-17.3c11.5-3.2,22.9-6.5,34.5-9.6c4-1.1,7.9-2.9,12.4-1.7c2.6,5.1-0.6,8.1-3.5,11.3
			c-5.7-1.1-11-0.3-16.3,1.3c-26.4,8.3-54.1,13.4-80.4,22.1c-4.1,2.7-4.1,6.6-2.2,10.7c5.9,12.9,9.7,26.4,15.1,39.5
			c2.2,5.2,6.3,9.1,10.4,13C117.2,375.6,117.5,376.4,117.6,377.4z"/>
		<path class="st64" d="M115.4,375.9c-6.3-2.6-9.1-7.8-11.3-13.2c-5.4-13.5-10.6-27.1-15.9-40.6c-2.1-5.3-2-9.9,3.6-12.7
			c1.7,1,3,2.4,3.4,4.3c-1.5,5.4,0.7,10.5,2.7,15.6c3.6,9.3,7.5,18.6,10.7,28.1c2.4,7.2,6.4,8.8,13.5,6.8c27.9-8,56.2-15,84-23.2
			c1.8,1.4,3.6,2.7,5.9,3.4c1.2,4-1.2,6.2-4.1,8.1c-4.7,3.7-11.4,1.7-16.5,4.3c-5.4,0-10,2.3-15.1,3.3c-14.8,4.1-29.6,8.1-44.4,12.1
			C126.5,373.3,121.6,376.6,115.4,375.9z"/>
		<path class="st65" d="M208,352.6c1.1-3,3.9-5.5,2.2-9.3c-6.8-16.1-12.6-32.5-18.9-48.7c-0.9-2.4-2-4.8-0.8-7.3
			c-2-4.4,3.6-6.4,3-10.4c3.4-0.5,5.6,0.7,6.9,4.1c7.7,20.5,15.6,41.1,23.5,61.6c1.5,3.8,0.1,6.1-3.6,7.2
			C216.3,350.8,212.1,351.6,208,352.6z"/>
		<path class="st66" d="M131.3,371.6c14.9-4.8,29.9-9.1,45.4-12.2c0.6,1.1,0.3,1.8-0.9,2.2c-14,3.9-28.1,7.7-42.1,11.6
			C132.5,373.3,131.7,372.8,131.3,371.6z"/>
		<path class="st67" d="M131.3,371.6c0.8,0.5,1.6,1,2.5,1.6c-5.4,1.3-9.8,5.4-16.2,4.2c-0.7-0.5-1.4-0.9-2.2-1.4
			C120.7,374.5,126,373,131.3,371.6z"/>
		<path class="st68" d="M175.9,361.5c0.3-0.7,0.6-1.4,0.9-2.2c4.6-1.9,9.2-4.3,14.8-2.4C186.8,359.6,181.3,360.6,175.9,361.5z"/>
		<path class="st69" d="M354.3,414.5c-11.7,2.7-12.4,2-16.4-8.8c-3.5-9.6-7.8-19-11.7-28.5c-0.6-6-2.8-11.7-5.4-17.3
			c-2.4-5.1-1.7-8.2,4.2-9.8c29.5-7.9,59-16,88.5-24.1c1.2,1.7,1.2,3.5,0.6,5.2c-4.3,4-10.2,4.9-15.7,6.5
			c-19.8,5.7-39.9,10.5-59.8,16c-10.9,3-11,3.5-7.1,14.5c5.8,13.2,8.3,27.4,17,39.7C350.5,410.1,353.5,411.4,354.3,414.5z"/>
		<path class="st70" d="M413.9,331.2c-1.3-1.7-1.1-3.4-0.4-5.1c7.9-3.3,12.2-1.1,15.6,7.4c5.6,14.1,11.5,28.1,16.2,42.5
			c4.4,13.2,4.2,13.3-10,15.8c-1.2-1.5-1.3-3.2-1.3-4.9c0.9-5.5-1.6-10.5-3.6-15.6C425.2,357.7,420.3,344.2,413.9,331.2z"/>
		<path class="st71" d="M435.3,387.5c0,1.4-0.1,2.8-0.1,4.2c-23.3,6.8-46.6,13.6-69.9,20.4c-3.7,0.8-7.4,1.6-11.1,2.3
			c-2.8-1.6-6.6-2-7.9-5.6c0.4-0.3,0.7-0.5,1.1-0.8c7.4-0.3,14.1-2.5,21-4.5c18.6-4.9,37-10.1,55.6-15
			C427.6,387.7,431.1,385.8,435.3,387.5z"/>
		<path class="st72" d="M-23.9,375.6c-1.8-0.8-4.2,3.3-5.5-1.1c5.9-4.3,11.9-8.6,17.8-12.9c2.6-0.4,4.1-4.1,8.3-1.4
			C-8.4,367.4-18.7,368.7-23.9,375.6z"/>
		<path class="st73" d="M190.5,287.3c6.9,18.6,16.7,36.5,19.7,56c-3.9,4.9-2.1-2.1-3.7-1.8c-6.3-7.6-7.4-17-11.3-25.4
			c-3.7-7.9-4.9-16.5-10.5-23.7c-3.4-1.7-6.6-1-9.7-0.2c-25.8,6.7-51.3,13.7-76.4,22.2c-1.4,0.4-2.7,0.5-3.9-0.8
			c-1.7-1-2.9-2.2-2.8-4.2c26.5-7.2,53-14.4,79.5-21.5C177.5,286.3,183.3,280.9,190.5,287.3z"/>
		<path class="st74" d="M186.3,290.1c8.6,16.6,14.5,33.9,20.1,51.3c-1.3,2.9-4.4,3.3-7.2,4c-26.2,7.1-52.5,14.1-78.6,21.6
			c-7.2,2.1-10.8,0.8-13.3-6.6C103,347.7,97.9,335,93,322.4c-1.4-3.5-2.6-6.7,1.7-8.7c0.9-0.2,1.7-0.5,2.6-0.7
			c24.7-5.4,48.3-13.8,72.9-19.7C175.4,291.9,180.7,290.4,186.3,290.1z"/>
		<path class="st75" d="M413.9,331.2c8.3,5.3,8.8,13.8,11.6,21.4c2.3,6.3,4.6,12.5,6.9,18.7c-1.4,0.5-2.9,0.2-4.2-0.5
			c-6.4-5.3-6.8-13-9.9-19.7c-2-4.4-3.2-9.2-8.7-11.3c-2-0.8-3.9-1-5.8-0.4c-16.9,5.1-34.8,7.5-50.6,15.2c-2.6,1.8-5.6,2.7-9,2.5
			c-4.5,0.1-9.9-1.4-10.6,5.1c0,1.8,0,3.5-0.8,5.1c-0.7,1.2-1.7,2.1-3.3,2.3c-5.4-13-5-14.1,9.1-18
			C363.6,344.6,388.8,337.9,413.9,331.2z"/>
		<path class="st76" d="M329.4,369.6c0.8-1.3,1.5-2.6,2.3-3.9c5.5,2,5,7.1,7.2,10.9c2.9,9.1,7.7,17.8,9.4,27.2c0,1.7,0,3.5-1.5,4.7
			c0,0-0.5,0.5-0.5,0.5C337.4,396.8,335.7,382.5,329.4,369.6z"/>
		<path class="st77" d="M427.8,369.3c1.5,0.7,3,1.3,4.6,2c3.1,5.2,5.6,10.5,3,16.2c-22.2,6-44.3,12-66.5,18c-2-0.2-2.2-1.5-2.1-2.9
			c5-7.4,14.2-6.6,21.9-8.6c3.8-0.9,7.7-1.8,11.1-3.7c6.7-3,13.8-5,21.1-6.2c6.3-1,9.5-2.8,6.5-9.5
			C426.6,372.9,426.5,370.9,427.8,369.3z"/>
		<path class="st78" d="M367.7,402.2c0.4,1.1,0.8,2.2,1.1,3.3c-7.2,1.5-13.5,7.2-22,2.9c0-1.4-0.1-2.8-0.1-4.2
			c3-1.4,6.3-1.8,9.6-2.4C360.1,402.1,363.8,399.9,367.7,402.2z"/>
		<path class="st79" d="M186.3,290.1c-27.8,7.8-55.6,15.5-83.4,23.3c-1.9,0.5-3.8,0.7-5.7-0.5c12.9-5.5,26.6-8.9,40.1-12.8
			c12.1-3.5,24.2-6.9,36.5-10C177.8,289.1,182,287.7,186.3,290.1z"/>
		<path class="st80" d="M134.7,334c-4.8,2.7-9.5,5.4-14.7,8.3c-0.1-5.3,7.1-4.5,7.1-10.1c-8.5-0.3-16.8-0.6-27.2-1
			c10-5.8,20.3-0.4,29.1-3.4c-4-3.3-7.8-6.3-12-9.8c6.5-0.4,8.4,6.6,13.9,7.2c1.3-4.5-3.8-8.6-2.2-14.5
			C133.1,319,136.3,326.1,134.7,334L134.7,334z"/>
		<path class="st81" d="M134.7,334c7.6-4.1,15.6-6,25.5-3.1c-4.9,5-11.9-1.4-16.6,2.5c4,6.1,11.7,8.4,16.4,14.4
			c-6.1-0.3-9-5.1-13.1-7.9c-6.9-4.7-10.8-3.7-12.9,3.4c-1.6,5.5-1.4,11.8-7.3,17.6C127.8,350.2,130,341.7,134.7,334
			C134.7,334,134.7,334,134.7,334z"/>
		<path class="st80" d="M141.1,325.3c5.8-3.8,11.5-7.6,17.3-11.3C155.2,320.9,148.8,323.9,141.1,325.3z"/>
		<path class="st82" d="M427.8,369.3c4,14,4,14-10.1,17.9c-5.9,1.6-11.9,3.2-17.8,4.7c-10.8,0-15.8-8.6-22.7-14.5
			c-0.5-0.4-0.4-1.2-0.6-1.8c-1.4-3.9,5.2-1.5,4.2-4.8c-1.1-3.9-1.2-3.8,4.7-8.2c-4.9,3.7-10.8,4.5-17.2,4c-2-0.8-3.2-2.3-4.1-4.1
			c-1.7-10.3-1.7-10.3,13.7-16.1c11.1-2.8,21.1-8.8,33.3-8.8c7.8,3.2,7.9,10.7,10.8,16.5C424.4,359.1,425.9,364.3,427.8,369.3z"/>
		<path class="st83" d="M379.3,347.8c-1.5,2.2-4.1,2.7-6.5,3c-6.9,0.8-8.8,4.5-7.1,10.6c-0.7,8.3-6,2.8-9.7,2.2
			c0.3,0.3,0.9,0.4,1.5,0.8c2.5,1.5,6.5,2.4,5.9,5.8c-0.6,3.4-4.4,2.5-7.3,2.7c-5.4,0.5-11.3-0.9-16,2.5c-0.9,0.9-1.9,1.7-3.3,1.8
			c-1.7-3.9-3.5-7.7-5.2-11.6c-0.2-1.4-0.4-2.7-0.6-4.1c2.9-4.9,8.1-5.7,13.7-5.8c2.2-0.6,4.3-1.2,6.5-1.8
			C360.1,350.3,368.4,345.2,379.3,347.8z"/>
		<path class="st84" d="M379.3,347.8c-10,0.1-18.3,5.3-28.1,6.2c0.6-1,1-2.5,2-2.8c17.8-5.1,35.6-10.1,53.5-15
			c1.6-0.4,3.2,0.2,4.5,1.5C400.6,341.1,389.9,344.5,379.3,347.8z"/>
		<path class="st84" d="M344.8,355.8c-4.6,1.9-9.1,3.8-13.7,5.8C332.3,353.5,338.2,354,344.8,355.8z"/>
		<path class="st85" d="M336.9,377.2c0.7-1.1,1.3-2.3,2-3.4c5.4-2.3,11.5-1.4,17.3-1.5c1.8,0,4.1,0.3,5.6,1.8
			c2.8,2.6-0.4,3.6-1.3,5.2c5.4-2.9,6.3,0.3,6.3,4.4c0,3.8-1.7,7.1-2.4,10.8c-0.4,2.1-1,4.2-2.3,6c-1.3,2.2-4.2,2-6.1,3.3
			c-2.9,1.8-6,1.7-9.4,0.5C343.4,395.2,340.2,386.2,336.9,377.2z"/>
		<path class="st86" d="M356,403.7c1.5-1.6,3.1-3.2,4.6-4.8c5.7-4.6,3.2-12.9,7.8-17.9c1.3-3.4,3.9,4.5,7.1-0.7
			c2.4-3.9,8.6,2.6,12.2,5.5c2.6,2.1,8.9,5.2,2.3,9.3c-7.2,3.1-15.7,2.9-22.3,7.1C363.8,402.7,359.9,403.2,356,403.7z"/>
		<path class="st87" d="M390,395.1c2.1-10.1-7.7-10.5-13.2-14.7c-2.3,3.4,1.6,6.3,0.5,9.7c-4.7-1.5-3.1-7.7-7.6-9.1
			c-5.3-5.1-4.5-10.2-1.3-15.3c7.4-2,15.4-2.4,21.4-8c1.1,3.5-1,4.3-2,5.7c-1.7,2.3-7,2.3-5.9,6.1c1,3.8,6.3,0.8,8.6,3.8
			c-2.8,5-8,0.7-13.2,1.6c7.8,6.7,13.7,13.6,22.7,17.1C397,394,393.6,394.8,390,395.1z"/>
		<path class="st88" d="M368.3,365.6c0.4,5.1-0.6,10.2,1.3,15.3c-4.2,5.4-0.5,14.7-9,18c1.6-6.4,3.1-12.7,4.8-19.4
			c-5.6-0.3-6.8,5.7-12.9,4.1c3.3-2.7,6.2-5.2,9.7-8.1c-8.5-2.5-15.9-1.1-23.4-1.7c6.2-6.4,15.3-1.7,23.5-3.8
			c-2.5-3.3-7.7-4.3-8.4-8.7c3.9-0.5,8.3,6.3,11.7,0.1C366.6,362.8,367.4,364.2,368.3,365.6z"/>
	</g>
</g>
<g id="RnG1l3_1_">
	<g>
		<path class="st89" d="M73.1,142c4.8,2.1,10,2.9,14.6,5.8c2.4,1.6,3.5,2.6,1.3,5.2c-2.1,2.5-3.4,6.3-6,7.9c-3,1.8-5.5-2.3-8.6-3.1
			c-3.7-0.9-7.4-2.1-11.2-1.4c-1.8,0.3-3.6,1.1-4.1,3.2c-0.5,2.2,0.5,3.9,2.3,5.1c2.5,1.7,5.4,2.5,8.3,3.3c4.5,1.2,9,2.4,13.1,4.6
			c12.8,6.9,13.4,23.1,0.8,30.7c-11,6.6-22.4,4.6-33.7,0.5c-0.2-0.1-0.3-0.2-0.4-0.2c-3.3-1.7-8.9-3.2-8.7-6.3
			c0.3-3.4,4.5-6.7,7.1-9.8c1.6-1.9,2.7,0.2,3.7,0.9c5.6,3.7,11.7,5.5,18.4,5c2.6-0.2,5.1-0.8,5.6-3.9c0.4-2.9-1.4-4.8-3.9-5.7
			c-5.8-2-11.8-3.5-17.5-5.8c-9.9-4-13.6-11.4-11.2-21.1c1.6-6.5,6.1-10.4,12.1-13c1.6-0.7,3.7-0.2,4.9-1.9
			C64.4,142,68.8,142,73.1,142z"/>
		<path class="st90" d="M389.1,293c-2.5-2-1-4.2-0.7-6.5c1-6.8,3-13.6,4.6-20.2c1.6-6.5,4.1-13.3,6.9-19.7c1.7-4,1.9-8.5,4.6-12.1
			c0.5-0.7,0.9-1.4,1.9-1.3c-4,20.3-12.1,39.5-16.4,59.8C389.8,293,389.4,293,389.1,293z"/>
		<path class="st89" d="M192.1,142c0,0.3,0,0.7,0,1c-5,2.4-10,2.4-15,0c0-0.3,0-0.6,0-1C182.1,142,187.1,142,192.1,142z"/>
		<path class="st89" d="M240.1,206c-14,0.9-14,0.9-14-12.8c0-15.1,0.1-30.3-0.1-45.4c0-3.5,0.5-5.1,4.5-4.8
			c9.9,0.7,19.9-0.8,29.8,0.9c-10.1,1.3-20.2,0.4-30.2,0.4c-0.4,0-0.5,0-0.4,0.4c10.5-0.8,21,0.6,31.5-0.7c9,1.5,15.2,6.8,17.1,15.1
			c2.1,9.4,0.2,17.6-7.8,23.5c-2.7,2-2.9,3-1,5.6c4.1,5.6,7.8,11.4,12.2,17.9c-6,0-11.2-0.1-16.4,0c-2.1,0.1-2.8-1.4-3.8-2.7
			c-2.9-4.2-5.7-8.5-8.6-12.8c-0.9-1.3-1.6-2.6-3.7-2.8c-6.9-0.7-7.1-0.5-7.3,6.4c-0.1,3.8,1.2,7.8-0.7,11.5
			c-1.1-5.4-0.1-11-0.8-16.4c-0.3-0.6-1.2,0.1-0.6-0.1c0.3-0.1,0.4,0,0.4,0.2C240.8,195,241,200.5,240.1,206z"/>
		<path class="st89" d="M343.9,146c-6.2,7.2-12.3,14.4-18.7,21.4c-2.2,2.3-2,3.8-0.3,6.3c6.4,9.1,12.6,18.4,18.8,27.7
			c0.9,1.3,2.3,2.4,2.4,4.7c-5.5,0-10.9-0.1-16.4,0c-2.2,0-2.8-1.6-3.7-2.9c-4-5.8-8-11.5-11.8-17.3c-1.6-2.5-2.2-3-4.9-0.7
			c-5.3,4.6-4.5,10.4-4.3,16c0.1,3.6-0.4,5.3-4.7,5.1c-11.3-0.3-11.3-0.1-11.3-11.4c0-15.8,0.1-31.7-0.1-47.5c0-3.3,0.8-4.2,4.1-4.2
			c11.8,0,11.8-0.1,11.8,11.9c0,4.3,0,8.7,0,14c8.1-8.8,15.6-16.9,23.1-25.1c3.8,0.2,7.5,0,11.3,0.1
			C341.1,144.1,343.1,143.7,343.9,146z"/>
		<path class="st89" d="M177.1,143c5,0,10,0,15,0c8.8,20.9,17.5,41.7,26.3,62.7c-0.8,0.3-1.1,0.4-1.4,0.5
			c-10.2,1.8-17.9-0.5-20.1-12c-7.8-1.1-15.7-1.1-23.5,0c-0.7,0.9-1.7,1.8-1.9,2.8c-1.6,8.5-7,10.5-14.7,9.2c-1.8-0.3-3.6,0-6.3,0
			C159.5,184.8,168.3,163.9,177.1,143z"/>
		<path class="st89" d="M135.1,144c10.3,1.2,17.2,7.7,18.8,17.6c1.6,10.1-3.2,19.2-12.1,23.6c-5.9,2.9-12.2,3.1-18.5,2.8
			c-3.1-0.2-4.8,0.6-4.2,4c0.1,0.3,0,0.7,0,1c-0.1,13.9-0.1,13.9-13.9,12.9c-1.3-1.6-1-3.5-1-5.3c0-16.8,0-33.6,0-50.4
			c0-6,0.2-6.2,6.2-6.2C118.6,144,126.8,144.1,135.1,144z"/>
		<path class="st91" d="M304.1,220.1c13.4-2.1,26.9,0.1,40.3-1.1c3-0.3,6-0.1,8.9-0.7c2.4-0.4,5-0.9,7.3,0.5c2.8,1.8,5.3,2.5,9,1.3
			c7.5-2.5,15.5-0.7,23.3-0.8c2,0,3.4,1.2,4.7,2.5c0.7,0.8,1,2.2-0.5,2.1c-5.1-0.2-9.8,2.1-15,2.3c-3.8,0.2-7.2-1-10.9-1.1
			c-4.1-0.1-8.5,2.8-12.5-0.6c-2.6,5.9-6.9-1.1-10.6,1.5c-3.7,2.6-8.6,1-12.9,0.9c-4.6-0.1-9.4,0.8-13.9,0c-3.1-0.6-6.1,0.4-9.1-0.6
			c-3.2-1.1-5.9,3.3-9.3,0.9c0.6-0.7,1.3-1,2.7-0.5c-1.2-0.6-2-0.5-2.7-0.7c-1.5-0.4-3.7-0.6-3.7-2.6c0-2,2.1-2.2,3.6-2.6
			C303.2,220.6,303.7,220.4,304.1,220.1z"/>
		<path class="st92" d="M166.2,223.4c0.4,2.7,0.2,1.7-2.1,2.2c-3.4,0.7-7-1.3-9.9,0.5c-3.2,2-5.7,0.3-8.4-0.5
			c-1.7-0.5-3.4-3-5.3,0.3c-0.8,1.4-2.3-0.5-3.3-1.2c-2.6-1.9-5.1-3.7-9.3-2.6c3,1.7,5.6,3.1,8.2,4.5c0,0.6-0.1,1.1-0.1,1.7
			c-7.9-4.1-15.6-1.4-23.4-0.7c-0.5-1.8,2.1-4.1-0.7-5.5c-1.5-0.7-3.8,1.2-5.1,3.4c-0.6,1.1-1.8,1.6-3.3,1
			c-7.5-2.9-15.2-2.8-22.9-1.3c-2,0.4-2.9-1.3-4.4-1.8c-5.7-1.8-11.8,0.1-17.4-2.1c-1.8,3.3-5,3.4-8.2,3.5c-1,0.1-2.4,0.3-2.8-0.2
			c-3.1-3.5-6.6-2.9-10.4-1.5c-0.4,0.1-1.1-0.6-1.6-0.9c0-1.1-2.5-0.2-1.6-2c4.4,0,8.8-0.8,13.1,1c0.9,0.4,1.9,0.4,2.9,0.1
			c11.1-3.8,22.6,0.2,33.8-1.3c9.7-1.3,19.3-2.2,29.1-0.4c9.8,1.7,19.7-0.2,29.6,0.2c7.8,0.3,15.6,0.5,23.3,2.2
			C166.7,222.4,166.7,222.9,166.2,223.4z"/>
		<path class="st93" d="M304.1,220.1c-0.7,2-3,1.6-4.8,3.2c2.5,1,4.7,1.9,6.8,2.7c-0.8,1.7-2.3,0.6-3.3,1.1
			c-6.9-0.5-13.9-2.1-20.5-1.1c-4.6,0.7-8.9-0.5-13.3,0.4c-8.6,1.6-17.1,0.7-25.6-1.1c-0.6-0.1-1.4-0.3-2-0.1
			c-6.6,2.3-12.9,0.5-19.3-1c-1.7-0.3-4.1,0-3.1-3.1c11.3-1.5,22.4,0.3,33.7,0.4c3.5,0,7.5,0.2,11-2.1c2.5-1.6,5.9-1.7,8.9-1.1
			c9.1,1.9,18.4,0.7,27.5,1.5C301.5,220,302.8,220,304.1,220.1z"/>
		<path class="st94" d="M469.6,172.1c-2.6,6.8-7.6,11.6-13.1,15.9c-12.9,10.2-26.1,20.1-39.2,30c-1.1,0.9-2.2,3.4-3.9,1.4
			c-1.3-1.6-0.1-3.3,1.5-4.6c3.6-2.9,7-6.1,10.7-8.9c12.9-9.6,25.5-19.4,37.2-30.4c1.5-1.4,3.5-2.5,5.2-3.7
			C468.6,171.6,469.1,171.6,469.6,172.1z"/>
		<path class="st95" d="M219.1,221c-0.2,2.2,2.4,1.7,3.1,3.1c-3,2.7-6.6,2.7-10,1.8c-3.3-0.9-6.4-1.6-9.4,0.2
			c-2.3,1.4-4-0.8-6.1-0.9c-7.4-0.4-14.6,1.1-22.1,0.4c-3.2-0.3-4.9-4.4-8.4-2.4c0-0.4-0.1-0.9-0.1-1.3c1-0.6,1.7-1.8,3-1.6
			c10.9,1.8,21.8-0.9,32.8-0.4c3.7,0.2,7.5-0.8,11.3-1.2C215.9,218.6,217.5,219.3,219.1,221z"/>
		<path class="st94" d="M403.8,214.5c-9.2-22.6-17.9-44.7-23.4-67.9C385.1,148.8,406.2,208.7,403.8,214.5z"/>
		<path class="st96" d="M361.8,255.6c1.8-1,3.2-1.6,4.6-3c3.2-3.2,6.8-6,10.9-8.4c6.8-3.9,13.2-8.6,18.5-14.6
			c0.8-0.9,1.2-2.9,2.9-1.4c1.3,1.1,0.3,2.4-0.4,3.6c-1.6,2.5-4.5,3.3-6.5,5.4c-6.9,7.7-15.8,12.9-23.7,19.3
			C365.4,258.7,363.8,256.4,361.8,255.6z"/>
		<path class="st97" d="M424.1,164.3c0.7,7.9-2.3,14.7-4.2,21.6c-2.6,9.5-5.4,19-7.3,28.8c-0.2,1.2,0.2,3.6-2,3.1
			c-2.1-0.5-1.5-2.4-1-4.2c4-15.5,7.8-31,13.4-46C423.4,166.6,422.5,165.3,424.1,164.3z"/>
		<path class="st98" d="M401.9,216.6c-3.4,3.6-6.4,0.4-8.7-1.2c-9-6.3-17.7-13.1-26.6-19.7C379.5,200.6,389.8,210.1,401.9,216.6z"/>
		<path class="st99" d="M454,222.8c-1.5,2-3.7,1.2-5.6,1.1c-8.9-0.1-17.8-0.4-26.6-0.5c-1.9,0-3.9,0.3-5.8-0.1
			c10.4-4.2,21.3-2,32-2.4C450.1,221.4,453.1,218.5,454,222.8z"/>
		<path class="st89" d="M135.1,144c-2,1.9-4.4,0.9-6.7,0.9c-6.1,0.1-12.3,0.3-18.5,0c-4.1-0.2-5,1.4-5,5.1
			c0.2,18.6,0.1,37.3,0.1,55.9c-0.3,0-0.7,0-1,0c-0.8-1.2-0.5-2.6-0.5-3.9c0-17.9,0.1-35.9-0.1-53.8c0-3.6,0.7-5,4.6-4.8
			c8.4,0.5,16.9-0.3,25.4,0.4C134.1,143.9,134.6,144,135.1,144z"/>
		<path class="st89" d="M133.5,143.9c-8.3,0.1-16.6,0.3-24.9,0.1c-3.5-0.1-4.5,1-4.5,4.5c0.1,19.1,0.1,38.3,0,57.4
			c-1.8-1-0.9-2.6-0.9-3.9c-0.1-18,0.1-36-0.1-54c0-3.6,0.6-5.1,4.6-4.8C116.3,143.8,124.9,142.6,133.5,143.9z"/>
		<path class="st100" d="M415.3,225.4c12,7.7,23.1,15.5,33.8,23.8C443.7,248.4,416.9,229.5,415.3,225.4z"/>
		<path class="st98" d="M414.4,244.9c2.2,5.8,4.5,11.7,6.6,17.5c0.8,2.1,1.5,4.3,2.1,6.5c0.3,1.3,0.6,2.8-1.1,3.3
			c-1.7,0.4-1.6-1.1-2-2.2c-2.7-8.2-5.4-16.5-7-25.1C413.5,244.6,413.9,244.6,414.4,244.9z"/>
		<path class="st89" d="M343.9,146c-3.3-1.8-6.8-0.6-10.2-1c-1.9-0.2-4,0.8-5.6-1.1c5.3-1.1,10.7-0.6,16-0.4
			C347.1,143.7,344.4,145.2,343.9,146z"/>
		<path class="st89" d="M261.1,144c-1,1.3-2.4,1-3.7,1c-9.8,0-19.5,0-29.3-1.1c10.7,0,21.4,0,32.2,0
			C260.6,143.7,260.9,143.8,261.1,144z"/>
		<path class="st101" d="M454,222.8c-1.3-3.1-4.3-0.4-6.1-1.9c4.7-1.3,9.5-0.9,15-0.9C460.1,223,457.2,223.2,454,222.8z"/>
		<path class="st102" d="M414.4,244.9c-0.5,0-0.9,0.1-1.4,0.1c-1.3-3.8-2.7-7.7-4-11.5C412.6,236.6,415.7,239.8,414.4,244.9z"/>
		<path class="st89" d="M173.4,194.2c-0.4-0.4-0.4-1.1,0.1-1.1c7.7-0.1,15.5,0,23.2,0c0.1,0,0.3,0.2,0.3,0.3c0,0.3-0.1,0.6-0.2,0.9
			C189,194.6,181.2,194.6,173.4,194.2z"/>
		<path class="st103" d="M27.8,224.8c-2.1-0.2-4.1-0.4-6-0.5c-3.2,0-0.4-2.7-1.6-3.4c-0.9-0.5-0.7-1.2-0.1-1.2
			c1.1,0,2.7,0.4,2.7,1.5C23.1,224.9,27.6,221.1,27.8,224.8z"/>
		<path class="st89" d="M240.1,206c0-5.6,0-11.1,0-16.7c0.3,0,0.7,0,1,0c0,5.5,0,11.1,0,16.6C240.8,205.9,240.4,205.9,240.1,206z"/>
		<path class="st104" d="M469.6,172.1c-0.5,0-1-0.1-1.6-0.1c1.8-2,3.9-3.6,6.4-4.6C473.4,169.5,471.7,171,469.6,172.1z"/>
		<path class="st105" d="M34.3,220.2c0.5,0.7,1.1,1.3,1.6,2c-0.5,0-1-0.1-1.4,0c-1.1,0.1-2.2,1.9-3.2-0.1c-0.3-0.5-0.6-1.4-0.4-1.8
			C31.8,218.8,33.1,220.3,34.3,220.2z"/>
		<path class="st89" d="M241.9,165.1c0-7.8,0-7.9,7.8-7.8c2.3,0,4.7,0,6.9,0.5c4.7,0.9,6.8,4.1,6.4,9.1c-0.3,4.5-2.8,6.9-7.3,7.3
			c-1.5,0.1-3,0.2-4.5,0.2C241.9,174.4,241.9,174.4,241.9,165.1z"/>
		<path class="st89" d="M243.2,175.3c3.9,0,7.8,0,11.7,0c0,0.1,0,0.2,0,0.4c-3.9,0-7.8,0-11.7,0
			C243.2,175.6,243.2,175.5,243.2,175.3z"/>
		<path class="st89" d="M185,161.4c2.5,6.4,4.5,11.7,6.7,17.1c0.6,1.5,0.7,2.2-1.4,2.5c-12.6,1.6-13.3,0.8-8.8-10.7
			C182.5,167.6,183.6,165,185,161.4z"/>
		<path class="st89" d="M119,165.9c0-8.3,0-8.3,5.8-8.3c10.1,0,13.3,2,13.4,8.4c0,6.5-3.3,8.6-13.8,8.6
			C119,174.7,119,174.7,119,165.9z"/>
		<path class="st89" d="M130.8,156.7c-3.6,0-7.1,0-10.7,0c0-0.2,0-0.3,0-0.5c3.6,0,7.2,0,10.7,0
			C130.9,156.4,130.8,156.6,130.8,156.7z"/>
	</g>
</g>
</svg>
