<?xml version="1.0" encoding="utf-8"?>
<!-- Generator: Adobe Illustrator 21.0.0, SVG Export Plug-In . SVG Version: 6.00 Build 0)  -->
<svg version="1.1" id="Layer_1" xmlns="http://www.w3.org/2000/svg" xmlns:xlink="http://www.w3.org/1999/xlink" x="0px" y="0px"
	 viewBox="0 0 500 500" style="enable-background:new 0 0 500 500;" xml:space="preserve">
<style type="text/css">
	.st0{fill:#FEFDFD;}
	.st1{fill:#01ADEE;}
	.st2{fill:#FDFDFD;}
	.st3{fill:#FDFDFE;}
	.st4{fill:#FCFCFC;}
	.st5{fill:#EC1F26;}
	.st6{fill:#01ADEE;stroke:#01ADEE;stroke-miterlimit:10;}
	.st7{font-family:'MicrosoftSansSerif';}
	.st8{font-size:31.0358px;}
</style>
<path class="st0" d="M429.3,410.8H69.5c-5.9,0-10.8-4.9-10.8-10.8V257.5c0-5.9,4.9-10.8,10.8-10.8h359.8c5.9,0,10.8,4.9,10.8,10.8
	V400C440.1,405.9,435.3,410.8,429.3,410.8z"/>
<path class="st0" d="M389.4,451.4h-270c-5.9,0-10.8-4.9-10.8-10.8v-28.9c0-5.9,4.9-10.8,10.8-10.8h270c5.9,0,10.8,4.9,10.8,10.8
	v28.9C400.2,446.5,395.3,451.4,389.4,451.4z"/>
<path class="st0" d="M289.8,469h-72.3c-5.9,0-10.8-4.9-10.8-10.8v-5.4c0-5.9,4.9-10.8,10.8-10.8h72.3c5.9,0,10.8,4.9,10.8,10.8v5.4
	C300.6,464.2,295.7,469,289.8,469z"/>
<g id="vjFgBE.tif">
	<g>
		<path class="st1" d="M500.7,232.7c0,12.2,0,24.4,0,36.7c-0.7,0.2-0.6,0.8-0.7,1.3c-0.6,8.4-1.8,16.7-3.3,25
			c-6.6,36.8-21,70.2-42.6,100.6c-5.9,8.2-12.5,15.8-18.9,23.6c-0.2,0.2-0.4,0.4-0.6,0.6c-0.3,0.3-0.7,0.7-1,1
			c-0.9,0.9-1.9,1.9-2.8,2.8l0,0l-0.1,0.2c-4.2,4-8.3,8.1-12.5,12.1c-8,6.2-15.4,13.2-23.9,18.9c-15.5,10.5-31.7,19.7-49.1,26.7
			c-22,9-44.8,14.8-68.5,17.1c-3.5,0.9-7.2-0.1-10.7,1.1c-10.4,0-20.9,0-31.3,0c-2.8-1.2-5.8-0.1-8.7-0.9c-0.5-0.1-0.9-0.1-1.4-0.2
			c-4.6-0.5-9.3-1.1-13.9-1.6l0,0c-1.2-0.9-2.7-0.3-4-0.7l0,0c-2.1-0.8-4.4-1.2-6.7-1.3l-0.1,0c-0.9-0.9-2.2-0.4-3.3-0.7l0,0
			c-1.7-0.6-3.4-1.3-5.3-1.1c-0.1-0.2-0.3-0.3-0.6-0.2c-0.6-0.7-1.3-0.4-2.1-0.4c-0.1-0.2-0.2-0.2-0.4-0.1c-0.6-0.8-1.5-0.6-2.3-0.6
			c-0.5-0.2-1-0.5-1.5-0.7c-14-3.9-27.5-8.8-40.6-15c-34.6-16.4-63.9-39.5-88-69.2c-19.3-23.7-33.6-50.1-43.2-79.1
			c-5.6-17-9.3-34.4-11.1-52.2c-0.8-3.3,0.1-6.8-1.1-10c0-10.7,0-21.3,0-32c1.1-9.3,2.3-18.7,3.4-28c0,0,0,0,0,0c1-3.3,1.6-6.6,2-10
			l0,0c0.9-1.9,1.1-4,1.4-6l0,0.1c0.7-0.6,0.4-1.3,0.4-2c0.1-0.2,0.2-0.4,0.3-0.6c0.6-0.6,0.4-1.4,0.5-2.1c0.2-0.5,0.5-1,0.6-1.5
			c10.9-39.3,30.2-74,57.9-103.9c23.7-25.6,51.7-45.5,83.8-59.4C174.5,11,199.1,4.5,224.7,1.8c2.6-0.3,5.5,0.2,8-1.2c12,0,24,0,36,0
			c4.5,1.5,9.3,1.3,13.9,1.9c26.1,3.3,51.2,10.4,74.9,21.9c56,27,96.7,69,122.2,125.6c10.7,23.8,17.2,48.7,19.8,74.7
			C499.8,227.3,499.3,230.2,500.7,232.7z M452.8,332.8c-4.1,0-8.2,0-12.3,0c-1.1,0-2.2-0.1-3.3-0.1c-124.3,0-248.6,0-372.9,0
			c-1.1,0-2.2,0.1-3.3,0.1c-4.1,0-8.2,0-12.3,0c-2.3,0-4.7,0-7-0.2c-2.6-0.2-3.3,0.3-2.2,3c3.5,8.2,7.2,16.4,11.6,24.2
			c22.7,40.9,54.8,72.2,96.4,93.5c40.7,20.9,84,28.4,129.5,23.3c25.5-2.9,49.9-9.8,72.9-21.2c51.1-25.3,87.9-64.2,110.7-116.5
			c2.8-6.3,2.7-6.4-4-6.3C455.2,332.7,454,332.8,452.8,332.8z M33.1,235.1c3.8,0,7.7,0,11.5,0c14.8,0,29.6,0,44.4,0
			c1.2,0,2.4,0.1,3.7,0.1c26.1,0,52.2,0,78.3,0c76.6,0,153.2,0,229.8-0.1c3.9,0,7.8,0,11.6-0.1c14.8,0,29.6,0,44.4,0
			c3.8,0,7.7,0,11.5,0c2.6,0,5.1,0,7.7,0.1c1.4,0,1.8-0.4,1.7-2c-0.7-9.4-1.9-18.8-3.9-27.9C460.2,143,427,94,373.4,59.3
			c-46.9-30.4-98.5-41.2-153.9-34c-24.1,3.1-47.1,10.1-68.8,21C102.4,70.4,66.6,107,43.8,156c-11.4,24.4-17.9,50.1-20,77
			c-0.1,1.8,0.2,2.4,2,2.3C28.2,235.1,30.6,235.1,33.1,235.1z M250.6,244c-74.7,0-149.3,0-224-0.1c-2.9,0-3.6,0.7-3.7,3.7
			c-0.3,25,3.5,49.4,11,73.3c0.7,2.3,1.8,3.2,4.4,3.2c141.5-0.1,283.1-0.1,424.6,0c2.6,0,3.6-1,4.3-3.3c7.6-23.7,11.2-48,11-72.9
			c0-3.3-0.9-3.9-4-3.9C399.7,244,325.2,244,250.6,244z"/>
		<path class="st2" d="M190.9,493.9c0.2-0.1,0.4,0,0.6,0.2c1.7,0.7,3.4,1.2,5.3,1.1c0,0,0,0,0,0c0.9,1,2.2,0.7,3.3,0.7
			c0,0,0.1,0,0.1,0c2.1,0.9,4.4,1.4,6.7,1.3c0,0,0,0,0,0c1.2,1.1,2.7,0.6,4,0.7c0,0,0,0,0,0c4.5,1.3,9.1,2.3,13.9,1.6
			c0.5,0.1,0.9,0.1,1.4,0.2c0,0.3,0,0.6,0,0.9c-74.2,0-148.3,0-222.5,0.1c-2.4,0-2.9-0.5-2.9-2.9c0.1-73.7,0.1-147.4,0.1-221.2
			c0.4,0,0.7,0,1.1,0c1.8,17.8,5.4,35.2,11.1,52.2c9.6,29,24,55.4,43.2,79.1c24.1,29.7,53.4,52.8,88,69.2
			c13.1,6.2,26.6,11.1,40.6,15c0.5,0.1,1,0.4,1.5,0.7c0.7,0.6,1.5,0.5,2.3,0.6c0.2-0.1,0.3,0,0.4,0.1
			C189.4,494,190.1,494,190.9,493.9z"/>
		<path class="st3" d="M276.7,499.5c23.7-2.4,46.5-8.1,68.5-17.1c17.4-7.1,33.6-16.2,49.1-26.7c8.5-5.7,15.9-12.7,23.9-18.9
			c1,0.6,1.8,0.2,2.7-0.4c4-3,7.1-6.8,10.7-10.2c1.1-1,0.2-1.5-0.7-1.7c0.9-0.9,1.9-1.9,2.8-2.8c0.1,0.2,0.3,0.3,0.4,0.5
			c0,0.2-0.1,0.4-0.1,0.6c0,0.1-0.1,0.1-0.1,0.2c0,0,0.1,0.1,0.1,0.1c0.1,0,0.1-0.1,0.2-0.2c0.2-0.2,0.3-0.4,0.5-0.6l0.2-0.1
			c1.7-1.2,1.7-1.2,0.5-2c6.4-7.8,13-15.4,18.9-23.6c21.6-30.4,36-63.8,42.6-100.6c1.5-8.3,2.6-16.6,3.3-25c0-0.5,0-1.1,0.7-1.3
			c0,76.2,0,152.3,0.1,228.5c0,2.4-0.5,2.9-2.9,2.9c-73.7-0.1-147.4-0.1-221.2-0.1C276.7,500.3,276.7,499.9,276.7,499.5z"/>
		<path class="st4" d="M0.7,219.3c2.4-1.5,1.2-4.2,1.9-6.3c0.7-2,0.4-4.4,1.5-6.4c-1.1,9.3-2.3,18.7-3.4,28c0-3.1,0-6.2,0-9.3
			c1-1.6,1-3.1,0-4.7C0.7,220.2,0.7,219.8,0.7,219.3z"/>
		<path class="st4" d="M276.7,499.5c0,0.4,0,0.8,0,1.1c-3.6,0-7.1,0-10.7,0C269.5,499.5,273.2,500.4,276.7,499.5z"/>
		<path class="st4" d="M1.8,276.7c-0.4,0-0.7,0-1.1,0c0-3.3,0-6.7,0-10C1.8,269.9,1,273.4,1.8,276.7z"/>
		<path class="st4" d="M226,500.7c0-0.3,0-0.6,0-0.9c2.9,0.7,5.9-0.4,8.7,0.9C231.8,500.7,228.9,500.7,226,500.7z"/>
		<path class="st3" d="M0.7,220.7c1,1.6,1,3.1,0,4.7C0.7,223.8,0.7,222.2,0.7,220.7z"/>
		<path class="st5" d="M412.4,235.1c-3.9,0-7.8,0.1-11.6,0.1c-76.6,0-153.2,0-229.8,0.1c-26.1,0-52.2,0-78.3,0
			c-1.2,0-2.4-0.1-3.7-0.1c0-32.1,0-64.2-0.1-96.3c0-2.8,0.9-3.3,3.4-3.2c28.5,0.1,57.1,0.1,85.6,0c2.8,0,3.5,0.7,3.5,3.5
			c-0.1,27.7-0.1,55.3,0,83c0,1.1-0.4,2.3,1,3.9c0.4-2.2,0.9-4,2.7-4.5c1.7-0.4,1.9-1.5,1.9-2.9c0-5.2,0.2-10.4,0.2-15.6
			c0-23.3-0.2-46.6-0.2-70c0-2.9-0.6-3.7-3.6-3.7c-29.7,0.1-59.3,0.1-89,0.1c-5.3,0-5.3,0-5.5-5.4c0-0.4,0.1-0.9-0.8-1
			c-25.5,33.1-40.4,70.4-43.5,112.3c-3.8,0-7.7,0-11.5,0c0.7-11.7,2.3-23.4,5.2-34.7c16.1-63.8,53.1-111.7,111-142.9
			c34.7-18.7,72.1-26.3,111.4-24.8c1,0,1.9,0.3,2.8,0.8c-4.9,1-9.8,2.1-14.7,3.1c-2,0.4-4.5,0.2-6,1.3c-2.1,1.5,0.6,4-0.1,6.1
			c-11.5,0.5-23,1.8-34.2,4.2c-38.8,8.3-72.6,26.2-101.3,53.7c-4.4,4.2-8.6,8.5-12.8,13.7c9.8,0,18.9,0,28,0c18,0,36-0.1,54-0.2
			c4.7,0,8.5-3.7,8.5-8.3c0-3.4,0.1-6.9,0-10.3c-0.1-2.1,0.5-2.9,2.7-2.8c4.8,0.2,9.6-0.2,14.3,0.1c4.3,0.3,7.8-1,11.2-3.6
			c8.9-6.8,18.1-13.2,27.1-19.8c2.2-1.6,6.2-0.3,6.9-3.1c0.7-2.4-0.7-5.4-1.1-8.1c1.3-0.2,2.6-0.3,3.8-0.5c0.5,3,1,5.9,1.5,8.9
			c0.1,0.9,0.3,1.7,1.2,2.2c11.1,7,21.3,15.3,31.9,22.9c1.3,0.9,2.5,1.2,4,1.2c6.7,0,13.3,0.1,20-0.1c2.9-0.1,3.6,0.8,3.4,3.5
			c-0.2,3.8-0.1,7.5-0.1,11.3c0,5.1,1.4,6.5,6.7,6.5c29.3,0,58.5,0,88,0c-0.6-1.8-1.8-2.7-2.7-3.7c-7.7-8.5-16-16.3-25-23.4
			c-29.1-22.8-61.9-37-98.5-42.2c-0.8-4-1.6-7.9-2.4-11.9c1.1,0.2,2.2,0.4,3.3,0.5c28,3.7,54.4,12.4,78.5,26.9
			c65.3,39.5,101.9,97.3,108.8,173.6c-3.8,0-7.7,0-11.5,0c-0.3-5.8-1.1-11.5-2-17.1c-4.7-30.5-16-58.3-33.3-83.8
			c-2.7-4-5.4-7.9-8.9-11.9c-0.1,1-0.2,1.4-0.2,1.9c-0.2,5-0.2,5-5.2,5c-32.2,0-64.4,0-96.6,0c-2.4,0-3.4,0.3-3.4,3.1
			c-0.1,29.2-0.2,58.4,0.1,87.6c0,0.9-0.3,2.4,0.3,2.4c2.2,0.1,3,2.1,4.6,2.8c0.6,0.3,0.9-0.3,0.9-1c0-0.9,0-1.8,0-2.7
			c0-27.4,0-54.9-0.1-82.3c0-2.8,0.5-3.8,3.6-3.8c30.7,0.1,61.3,0.1,92,0c2.8,0,3.8,0.5,3.8,3.6
			C412.3,171.1,412.4,203.1,412.4,235.1z M290.7,176.3c0,0-0.1,0-0.1,0c0-14.8-0.1-29.5,0.1-44.3c0-2.4-0.8-3-3-2.9
			c-3.9,0.2-7.8,0.2-11.6,0c-2.6-0.2-3.3,0.6-3.3,3.3c0.1,27.5,0,55,0.1,82.6c0,3.1-1.4,6.9,3.3,8.2c0.1,0,0.2,0.2,0.2,0.2
			c1.4,1.5,8.5,3,10,1.6c2.3-2,4.8-3.6,4.7-7.8C290.4,203.7,290.7,190,290.7,176.3z M256,175.7c0-14.4-0.1-28.8,0.1-43.3
			c0-2.7-0.8-3.3-3.3-3.2c-3.8,0.2-7.6,0.2-11.3,0c-2.6-0.1-3.4,0.6-3.3,3.3c0.1,26.8-0.1,53.7,0,80.5c0,3.5-1.5,7.5,3.4,10.2
			c1.8,1,3.2,2.2,5.4,2.2c2.4-0.1,4.4-0.2,6.6-2.2c2-1.8,2.5-3.2,2.5-5.5C256,203.6,256,189.6,256,175.7z M221.4,175.4
			c0-14.4-0.1-28.9,0.1-43.3c0-2.3-0.6-3.1-3-2.9c-3.4,0.2-6.9,0.1-10.3,0.1c-4.6,0-4.7,0-4.7,4.6c0,27.4,0,54.9,0,82.3
			c0,2.4-0.3,4.9,3,5.7c0.8,0.2,1.4,1.2,1.4,2.1c0.1,1.1,0.7,1.6,1.7,1.4c3.1-0.5,6.9,1.7,8.8-2.8c0.1-0.3,0.7-0.6,1.1-0.7
			c2-0.3,1.9-1.6,1.9-3.2C221.4,204.3,221.4,189.8,221.4,175.4z M128.7,202.9c0,3.5,0,7.1,0,10.6c0,1.4,0.3,2,1.8,2
			c3.8-0.1,7.5-0.1,11.3,0c1.6,0,2.1-0.5,2.1-2.1c-0.1-7-0.1-14,0-20.9c0-1.7-0.5-2.4-2.2-2.3c-3.5,0.1-7.1,0.1-10.6,0
			c-2-0.1-2.4,0.7-2.4,2.5C128.8,196,128.7,199.4,128.7,202.9z M100,202.5c0,3.7,0.1,7.3,0,11c0,1.4,0.4,2,1.9,1.9
			c3.8-0.1,7.5-0.1,11.3,0c1.6,0,2.1-0.5,2.1-2.1c-0.1-7.1-0.1-14.2,0-21.3c0-1.6-0.5-2.1-2.1-2.1c-3.7,0.1-7.3,0.1-11,0
			c-1.8-0.1-2.2,0.6-2.2,2.3C100.1,195.6,100,199,100,202.5z M372,163c0-3.4-0.1-6.9,0-10.3c0.1-1.8-0.6-2.3-2.3-2.2
			c-3.5,0.1-7.1,0.1-10.6,0c-2-0.1-2.4,0.8-2.3,2.5c0.1,6.8,0.1,13.5,0,20.3c0,1.8,0.3,2.7,2.3,2.6c3.5-0.1,7.1-0.1,10.6,0
			c1.7,0.1,2.3-0.5,2.3-2.2C371.9,170.1,372,166.6,372,163z M399.9,163.7c0-3.4-0.1-6.9,0-10.3c0-1.7-0.4-2.4-2.2-2.4
			c-3.7,0.1-7.3,0.1-11,0c-1.6,0-2.1,0.6-2.1,2.1c0.1,7,0.1,14,0,21c0,1.8,0.6,2.3,2.3,2.2c3.5-0.1,7.1-0.1,10.6,0
			c1.7,0,2.4-0.5,2.3-2.3C399.8,170.6,399.9,167.1,399.9,163.7z M384.1,202.3c0,3.4,0.1,6.9,0,10.3c0,1.7,0.4,2.4,2.2,2.4
			c3.7-0.1,7.3-0.1,11,0c1.6,0,2.1-0.6,2.1-2.1c-0.1-7-0.1-14,0-21c0-1.8-0.6-2.3-2.3-2.2c-3.5,0.1-7.1,0.1-10.6,0
			c-1.7,0-2.4,0.5-2.3,2.3C384.2,195.4,384.1,198.9,384.1,202.3z M156.6,203.4c0,3.4,0.1,6.9,0,10.3c0,1.6,0.2,2.5,2.1,2.4
			c3.6-0.1,7.3-0.1,11,0c1.6,0,2.1-0.6,2-2.1c-0.1-7.1-0.1-14.2,0-21.2c0-1.6-0.6-2.1-2.1-2c-3.6,0.1-7.3,0.1-11,0
			c-1.7,0-2.1,0.6-2,2.1C156.6,196.3,156.6,199.8,156.6,203.4z M356.4,201.9c0,3.3,0.1,6.6,0,10c-0.1,1.9,0.3,2.9,2.5,2.7
			c3.4-0.2,6.9-0.1,10.3,0c1.7,0.1,2.3-0.5,2.3-2.3c-0.1-7-0.1-14,0-20.9c0-1.5-0.3-2.2-2-2.2c-3.7,0.1-7.3,0.1-11,0
			c-1.9-0.1-2.2,0.8-2.2,2.4C356.4,195,356.4,198.4,356.4,201.9z M327.9,201.3c0,3.5,0.1,7.1,0,10.6c0,1.5,0.3,2.2,2,2.2
			c3.7-0.1,7.3-0.1,11,0c1.7,0.1,2-0.8,2-2.2c0-7-0.1-14,0-20.9c0-1.8-0.7-2.3-2.3-2.2c-3.4,0.1-6.9,0.1-10.3,0
			c-1.7-0.1-2.3,0.5-2.3,2.3C328,194.5,327.9,197.9,327.9,201.3z M343.4,162.8c0-3.4-0.1-6.9,0-10.3c0.1-1.9-0.6-2.5-2.5-2.4
			c-3.3,0.1-6.6,0.1-10,0c-2-0.1-2.7,0.5-2.7,2.6c0.1,6.9,0.1,13.7,0,20.6c0,2,0.7,2.4,2.5,2.4c3.3-0.1,6.6-0.1,10,0
			c2,0.1,2.8-0.4,2.7-2.6C343.3,169.7,343.4,166.2,343.4,162.8z M100.7,163.9c0,3.5,0.1,7.1,0,10.6c0,1.5,0.2,2.2,2,2.2
			c3.6-0.1,7.3-0.1,11,0c1.6,0,2.1-0.5,2.1-2.1c-0.1-7.1-0.1-14.2,0-21.2c0-1.5-0.3-2.2-2-2.2c-3.6,0.1-7.3,0.1-11,0
			c-1.6,0-2.1,0.6-2,2.1C100.7,156.8,100.7,160.4,100.7,163.9z M129.2,164.2c0,3.3,0.1,6.6,0,10c-0.1,1.9,0.3,2.8,2.5,2.7
			c3.4-0.2,6.9-0.1,10.3,0c1.7,0,2.4-0.4,2.3-2.2c-0.1-7-0.1-14,0-20.9c0-1.8-0.7-2.3-2.4-2.2c-3.5,0.1-7.1,0.1-10.6,0
			c-1.6,0-2.2,0.5-2.1,2.1C129.3,157.1,129.2,160.6,129.2,164.2z M172.1,165c0-3.7-0.1-7.3,0-11c0-1.6-0.5-2.1-2.1-2
			c-3.6,0.1-7.3,0.1-11,0c-1.6,0-2.1,0.5-2.1,2.1c0.1,7.1,0.1,14.2,0,21.2c0,1.6,0.6,2.1,2.1,2c3.6-0.1,7.3-0.1,11,0
			c1.6,0,2.1-0.5,2-2.1C172,171.8,172.1,168.4,172.1,165z"/>
		<path class="st0" d="M250.6,244c74.5,0,149.1,0,223.6-0.1c3.1,0,4,0.7,4,3.9c0.2,24.9-3.5,49.2-11,72.9c-0.7,2.3-1.7,3.3-4.3,3.3
			c-141.5-0.1-283.1-0.1-424.6,0c-2.6,0-3.6-0.9-4.4-3.2c-7.6-23.8-11.3-48.2-11-73.3c0-2.9,0.7-3.7,3.7-3.7
			C101.3,244,176,244,250.6,244z M100.8,277.5c0.1,0,0.2,0,0.3,0.1c0,8,0,15.9,0,23.9c0,7.9,0,7.8,7.9,7.9c2.5,0,3.2-0.5,3.1-3.1
			c-0.1-13.8-0.1-27.5-0.1-41.3c0-7.2,0-7.2-7.3-7.2c-8.1,0-8.1,0-10.3,7.9c-2.7,9.5-5.4,19-8.1,28.6c-1.2-0.7-1.1-1.7-1.3-2.5
			c-2.4-7.6-4.6-15.3-7-22.9c-1.1-3.6-1.3-8.3-3.7-10.4c-2.6-2.2-7.4-0.4-11.3-0.7c-2.7-0.3-3.6,0.6-3.6,3.4
			c0.2,13.4,0.1,26.9,0.1,40.3c0,8,0,8,8,7.8c1.8,0,2.5-0.5,2.4-2.4c-0.1-3.9,0-7.8,0-11.7c0-6,0-12,0-18c2.6,8.3,5.5,16.5,8.1,24.7
			c2.4,7.5,2.5,7.4,10.3,7.3c1.7,0,2.5-0.5,3-2.2c1.4-4.8,3.1-9.5,4.6-14.3C97.6,287.8,99.2,282.7,100.8,277.5z M196.7,308.7
			c-3.2-5.8-6.4-11.7-9.6-17.6c-2.8-5-2.8-5,1.1-9.4c2.6-3,5.2-6.1,7.9-9.2c-0.6-0.3-0.7-0.4-0.8-0.4c-10.7-0.5-10.7-0.5-17.5,7.6
			c-1.5,1.8-2.6,4-5,5.2c0-6.4,0-12.6,0-18.7c0-8.5,0-8.4-8.4-8.5c-2.7,0-3,0.9-3,3.3c0.1,13.4,0,26.9,0,40.3c0,8,0,7.9,8.1,8
			c2.6,0,3.6-0.6,3.3-3.3c-0.5-4.4-0.2-8.7,4.5-11.3c1,1.8,2.4,3.6,3.1,5.7C183,308.5,188.2,311.4,196.7,308.7z M355.4,309.3
			c-0.9-3.5-0.9-6.6-1-9.7c-0.2-6,0.5-12-0.4-17.9c-0.6-4.5-2.9-8-7.5-9.3c-8.5-2.3-16.5-0.8-23.6,4.4c-0.6,0.4-1.6,0.9-1,1.8
			c1.3,1.9,2.5,4.1,4.2,5.5c1,0.8,2.3-1.2,3.6-1.7c1.1-0.4,2.2-1.1,3.3-1.5c2.6-0.7,5.1-1.5,7.8-0.5c1.6,0.7,2.5,2,2.4,3.6
			c-0.1,2-1.9,1.1-2.9,1.3c-4.9,0.8-9.9,1.5-14.3,4c-5.3,3.1-7.5,8.8-5.5,14.2c1.8,4.8,7,7.1,13,6.1c3.7-0.6,6.7-2.6,9.9-5.3
			c-0.6,4.5,1.5,5.5,5,5C350.6,309.1,352.9,309.3,355.4,309.3z M154.4,309.3c-0.2-1.9-0.6-3.5-0.6-5.1c-0.1-6.8-0.1-13.5-0.3-20.3
			c-0.2-5-1.8-9.5-6.9-11.2c-8.8-2.9-17.1-1.3-24.6,4.2c-0.5,0.4-1.4,0.9-1.1,1.5c1.2,2,2.5,4,4.2,5.6c1.2,1.1,2.1-0.9,3.3-1.3
			c1.6-0.6,3-1.5,4.6-1.9c2.1-0.6,4.3-1.1,6.6-0.4c1.8,0.5,2.9,1.8,2.9,3.6c0,2.2-1.9,1.3-3.1,1.5c-4.7,0.7-9.4,1.5-13.7,3.8
			c-5.6,3-8,8.8-6,14.3c1.8,4.9,7.1,7.2,13.3,6.1c3.6-0.6,6.4-2.6,9.7-5.3c-0.7,5.1,2.1,5.3,5.4,5
			C150.1,309.2,152.2,309.3,154.4,309.3z M287.9,283.6c0,7.8,0,15.5,0,23.3c0,1-0.5,2.4,1.3,2.4c3.2-0.1,6.9,0.8,9.4-0.5
			c1.8-0.9,0.3-4.9,0.6-7.6c0.1-0.9,0-1.8,0-2.7c0.2-3.2-1.4-7.4,0.7-9.2c1.8-1.6,5.9-0.5,9-0.5c6.6,0,6.6,0,6.4-6.7
			c0-1.7-0.4-2.3-2.2-2.3c-3.9,0.1-7.8,0-11.7,0.1c-1.7,0-2.4-0.5-2.3-2.3c0.1-2.5,0.2-5.1,0-7.7c-0.2-2.2,0.8-2.6,2.7-2.5
			c4.3,0.1,8.7,0,13,0c7.3,0,7.2,0,7-7.2c0-1.8-0.5-2.5-2.4-2.5c-9.8,0.1-19.5,0.1-29.3,0c-2,0-2.4,0.7-2.4,2.5
			C287.9,268.1,287.9,275.8,287.9,283.6z M429.3,293.9c3.4,0,6.9,0,10.3,0c1.3,0,2.1-0.2,2.1-1.8c-0.2-6.8-1-13.5-7.1-17.8
			c-5.9-4.1-12.4-3.8-18.7-0.9c-8.1,3.8-11.8,13.4-9.2,23.7c1.5,6.2,5.4,10.4,11.6,12c5.7,1.5,11.4,1.2,17-1.1
			c6.2-2.6,6.3-3.3,2.7-8.7c-1.1-1.6-1.7-1.3-3.1-0.4c-3,2.2-6.5,3.4-10.3,3c-3.4-0.3-5.7-2.1-6.8-5.5c-0.6-1.9-0.6-2.9,1.8-2.7
			C422.9,294,426.1,293.9,429.3,293.9z M220.1,293.9c3.4,0,6.9,0,10.3,0c1,0,1.9,0.1,2.1-1.4c1.3-7-3.2-16.8-9.4-19.5
			c-7-3-13.9-2.2-19.7,2.6c-7.1,5.7-7.7,13.6-5.8,21.9c1.7,7.2,6.7,11.1,13.8,12.2c5,0.8,9.9,0.4,14.7-1.6c6.2-2.6,6.3-3.2,2.7-8.7
			c-1-1.6-1.7-1.5-3-0.5c-3,2.2-6.5,3.4-10.3,3.1c-3.7-0.3-6.1-2.5-7-6.1c-0.4-1.7,0-2.2,1.7-2.1C213.5,294,216.8,293.9,220.1,293.9
			z M391.8,277.3c-0.7-5.2-0.7-5.2-6.2-5.2c-1,0-2,0.1-3,0c-2.1-0.3-2.6,0.6-2.6,2.6c0.1,8.7,0,17.3,0,26c0,8.8,0,8.7,8.8,8.7
			c2.4,0,2.7-0.9,2.6-2.9c-0.1-5.2,0-10.4,0-15.6c0-5.5,2.5-8.4,8-9.4c1.6-0.3,3.8,0.9,4.6-0.6c0.7-1.4,0.3-3.5,0.3-5.2
			c0-0.6-0.1-1.1,0-1.7c0.3-2.2-0.7-2.7-2.7-2.4C397.7,272.1,394.7,274.4,391.8,277.3z M250.5,277.2c-0.7-5.1-0.7-5.1-5.9-5.1
			c-0.8,0-1.6,0.1-2.3,0c-2.7-0.4-3.6,0.5-3.6,3.4c0.2,8.4,0.1,16.9,0.1,25.3c0,8.8,0,8.7,8.9,8.6c2.2,0,2.5-0.8,2.5-2.7
			c-0.1-5.3,0-10.7,0-16c0-5.4,2.4-8.1,7.8-9.3c1.6-0.4,3.9,1.1,4.7-0.9c0.7-1.5,0.3-3.5,0.4-5.3c0-0.4,0-0.9,0-1.3
			c0.4-2.5-1-2.7-3-2.4C256.2,272.2,253.2,274.3,250.5,277.2z M372.7,290.8c0-3.4,0-6.9,0-10.3c0-8.7,0-8.6-8.7-8.5
			c-2,0-2.6,0.6-2.6,2.6c0.1,8.6,0,17.3,0,25.9c0,9.1,0,9,9,8.8c1.7-0.1,2.3-0.5,2.2-2.2C372.6,301.7,372.7,296.3,372.7,290.8z
			 M366.8,267.3c1,0,2-0.1,3,0c2.7,0.5,3.1-0.8,3-3.2c-0.1-6.1,0-6.1-6.1-6.1c-0.6,0-1.1,0.1-1.7,0c-3-0.5-4,0.6-3.8,3.7
			C361.5,267.3,361.3,267.3,366.8,267.3z"/>
		<path class="st4" d="M263.5,33.5c-0.9-0.5-1.7-0.8-2.8-0.8c-39.3-1.5-76.7,6.1-111.4,24.8c-57.9,31.3-94.9,79.1-111,142.9
			c-2.9,11.4-4.5,23-5.2,34.7c-2.4,0-4.9,0-7.3,0.1c-1.8,0.1-2.2-0.5-2-2.3c2.1-26.9,8.7-52.6,20-77c22.9-49,58.6-85.6,106.9-109.7
			c21.7-10.9,44.7-17.8,68.8-21c55.4-7.2,107,3.6,153.9,34C427,94,460.2,143,473.8,205.3c2,9.2,3.2,18.5,3.9,27.9
			c0.1,1.5-0.3,2-1.7,2c-2.6-0.1-5.1-0.1-7.7-0.1c-6.8-76.3-43.4-134.1-108.8-173.6C335.4,47,309,38.3,281,34.6
			c-1.1-0.1-2.2-0.4-3.3-0.5c-0.1-2.3-1-3.2-3.5-2.5C270.7,32.5,267.1,32.9,263.5,33.5z"/>
		<path class="st5" d="M60.9,332.8c32.3,75.4,107.8,124.8,190,124.7c84.3-0.1,157.8-51,189.6-124.7c4.1,0,8.2,0,12.3,0
			c-3,8.2-6.8,16.1-11.2,23.6c-37.3,63.9-92.3,101.3-165.9,110.9c-23.1,3-46.3,2-69.1-2.9c-56.2-12.1-101-41.6-134.5-88.3
			c-9.6-13.4-17.7-27.8-23.5-43.3C52.7,332.8,56.8,332.8,60.9,332.8z"/>
		<path class="st4" d="M48.6,332.8c5.9,15.5,13.9,29.9,23.5,43.3c33.5,46.7,78.3,76.2,134.5,88.3c22.8,4.9,45.9,5.9,69.1,2.9
			c73.6-9.6,128.6-47,165.9-110.9c4.4-7.6,8.2-15.4,11.2-23.6c1.2,0,2.4-0.1,3.7-0.1c6.7,0,6.8,0,4,6.3
			c-22.8,52.3-59.6,91.2-110.7,116.5c-23,11.4-47.3,18.4-72.9,21.2c-45.5,5.1-88.7-2.4-129.5-23.3c-41.6-21.3-73.7-52.7-96.4-93.5
			c-4.4-7.8-8.1-16-11.6-24.2c-1.1-2.7-0.4-3.2,2.2-3C43.9,332.8,46.3,332.7,48.6,332.8z"/>
		<path class="st0" d="M412.4,235.1c0-32,0-64,0.1-96c0-3.1-1-3.6-3.8-3.6c-30.7,0.1-61.3,0.1-92,0c-3.1,0-3.6,1-3.6,3.8
			c0.1,27.4,0.1,54.9,0.1,82.3c0,0.9,0,1.8,0,2.7c0,0.6-0.3,1.2-0.9,1c-1.7-0.7-2.4-2.8-4.6-2.8c-0.6,0-0.3-1.6-0.3-2.4
			c-0.3-29.2-0.2-58.4-0.1-87.6c0-2.8,1-3.2,3.4-3.1c32.2,0.1,64.4,0,96.6,0c5,0,5,0,5.2-5c0-0.4,0.1-0.9,0.2-1.9
			c3.5,3.9,6.2,7.9,8.9,11.9c17.3,25.5,28.6,53.3,33.3,83.8c0.9,5.7,1.7,11.4,2,17.1C442,235.1,427.2,235.1,412.4,235.1z"/>
		<path class="st0" d="M44.5,235.1c3.1-41.9,18-79.2,43.5-112.3c0.9,0.1,0.8,0.6,0.8,1c0.3,5.4,0.2,5.4,5.5,5.4
			c29.7,0,59.3,0.1,89-0.1c3,0,3.6,0.8,3.6,3.7c0,23.3,0.1,46.6,0.2,70c0,5.2-0.2,10.4-0.2,15.6c0,1.5-0.2,2.5-1.9,2.9
			c-1.9,0.5-2.4,2.3-2.7,4.5c-1.4-1.5-1-2.8-1-3.9c0-27.7-0.1-55.3,0-83c0-2.8-0.7-3.5-3.5-3.5c-28.5,0.1-57.1,0.1-85.6,0
			c-2.5,0-3.4,0.5-3.4,3.2C89,170.9,89,203,89,235.1C74.2,235.1,59.4,235.1,44.5,235.1z"/>
		<path class="st4" d="M430.8,424.4c1,0.3,1.8,0.7,0.7,1.7c-3.6,3.4-6.7,7.3-10.7,10.2c-0.9,0.6-1.7,1-2.7,0.4
			c4.2-4,8.3-8.1,12.5-12.1c0.1,0,0.2,0,0.3-0.1C430.9,424.5,430.8,424.5,430.8,424.4L430.8,424.4z"/>
		<path class="st4" d="M224.6,499.6c-4.8,0.7-9.4-0.3-13.9-1.6C215.3,498.5,219.9,499,224.6,499.6z"/>
		<path class="st4" d="M4,206.7c0-3.5,0.5-6.9,2-10C5.6,200.1,5.1,203.4,4,206.7z"/>
		<path class="st4" d="M6,196.7c-0.1-2.2,0.1-4.2,1.4-6C7.1,192.7,6.9,194.8,6,196.7z"/>
		<path class="st4" d="M206.7,497.3c-2.3,0.1-4.6-0.4-6.7-1.3C202.3,496.1,204.6,496.4,206.7,497.3z"/>
		<path class="st4" d="M196.7,495.3c-1.9,0.1-3.6-0.4-5.3-1.1C193.3,494,195,494.7,196.7,495.3z"/>
		<path class="st4" d="M435.2,419.9c1.2,0.8,1.2,0.8-0.5,2c0-0.5-0.1-0.9-0.1-1.4C434.8,420.3,435,420.1,435.2,419.9z"/>
		<path class="st4" d="M210.7,498c-1.4-0.1-2.8,0.4-4-0.7C208,497.6,209.5,497,210.7,498z"/>
		<path class="st4" d="M200,496c-1.1-0.1-2.4,0.3-3.3-0.7C197.7,495.6,199,495.1,200,496z"/>
		<path class="st4" d="M188.4,493.4c-0.8-0.1-1.7,0.1-2.3-0.6C186.9,492.8,187.8,492.6,188.4,493.4z"/>
		<path class="st4" d="M8.1,188.2C8,187.4,8,186.7,8.6,186C8.5,186.8,8.7,187.6,8.1,188.2z"/>
		<path class="st4" d="M190.9,493.9c-0.7,0-1.5,0.1-2.1-0.4C189.5,493.5,190.3,493.3,190.9,493.9z"/>
		<path class="st4" d="M7.4,190.8c-0.1-0.7-0.1-1.4,0.4-2C7.8,189.5,8.1,190.2,7.4,190.8z"/>
		<path class="st3" d="M434.6,420.5c0,0.5,0.1,0.9,0.1,1.4c0,0-0.2,0.1-0.2,0.1c-0.2,0-0.3-0.1-0.5-0.1c-0.1-0.2-0.3-0.3-0.4-0.5
			C433.9,421.2,434.3,420.9,434.6,420.5z"/>
		<path class="st3" d="M430.8,424.4c0,0.1,0.1,0.1,0.1,0.2c-0.1,0-0.2,0-0.3,0.1L430.8,424.4z"/>
		<path class="st4" d="M434,422.7c0,0.1-0.1,0.1-0.2,0.2c0,0-0.1-0.1-0.1-0.1c0-0.1,0.1-0.1,0.1-0.2
			C433.9,422.6,434,422.7,434,422.7z"/>
		<path class="st4" d="M434,422c0.2,0,0.3,0,0.5,0.1c-0.2,0.2-0.3,0.4-0.5,0.6c0,0-0.1-0.1-0.1-0.1C434,422.4,434,422.2,434,422z"/>
		<path class="st0" d="M280.1,46c36.6,5.3,69.4,19.5,98.5,42.2c9,7.1,17.4,14.9,25,23.4c1,1.1,2.1,2,2.7,3.7c-29.4,0-58.7,0-88,0
			c-5.3,0-6.7-1.4-6.7-6.5c0-3.8-0.2-7.6,0.1-11.3c0.2-2.7-0.5-3.6-3.4-3.5c-6.7,0.2-13.3,0-20,0.1c-1.5,0-2.7-0.3-4-1.2
			C273.7,85.2,263.5,77,252.5,70c-0.9-0.6-1-1.3-1.2-2.2c-0.5-3-1-5.9-1.5-8.9c8.1-1.5,16.2-3.1,24.3-4.7c2.2-0.4,5.2-0.3,6.5-1.7
			C282,51,279.9,48.3,280.1,46z"/>
		<path class="st3" d="M246,59.4c0.4,2.7,1.8,5.7,1.1,8.1c-0.7,2.7-4.7,1.4-6.9,3.1c-9,6.7-18.2,13-27.1,19.8
			c-3.5,2.6-6.9,3.9-11.2,3.6c-4.8-0.3-9.6,0-14.3-0.1c-2.3-0.1-2.8,0.7-2.7,2.8c0.2,3.4,0,6.9,0,10.3c0,4.6-3.8,8.3-8.5,8.3
			c-18,0.1-36,0.1-54,0.2c-9.1,0-18.2,0-28,0c4.2-5.3,8.4-9.6,12.8-13.7c28.7-27.4,62.5-45.4,101.3-53.7c11.3-2.4,22.7-3.7,34.2-4.2
			C243.8,49.1,244.9,54.2,246,59.4z"/>
		<path class="st1" d="M246,59.4c-1.1-5.1-2.2-10.3-3.3-15.4c0.6-2.1-2-4.6,0.1-6.1c1.5-1.1,4-0.9,6-1.3c4.9-1,9.8-2.1,14.7-3.1
			c3.6-0.6,7.2-1,10.7-1.9c2.6-0.7,3.4,0.2,3.5,2.5c0.8,4,1.6,7.9,2.4,11.9c-0.1,2.3,1.9,5,0.5,6.5c-1.3,1.4-4.3,1.2-6.5,1.7
			c-8.1,1.6-16.2,3.1-24.3,4.7C248.5,59,247.2,59.2,246,59.4z"/>
		<path class="st1" d="M110.5,365.3c1.2-5.6,2.5-11.2,3.6-16.8c0.4-2.2,1.6-2.8,3.7-2.6c1.9,0.2,4.1-0.8,4.7,2.5
			c1.1,5.7,2.6,11.4,4.7,17.1c1.2-5.5,2.4-10.9,3.6-16.4c0.6-2.8,4.2-4.4,6.8-3.1c1,0.5,0.6,1.4,0.5,2c-2.5,9.7-5.1,19.4-7.6,29.2
			c-0.8,3-3.1,1.3-4.7,1.7c-1.9,0.5-2.5-0.7-2.9-2.3c-1.4-6.2-2.8-12.5-4.8-18.8c-1.4,5.7-2.8,11.3-4.1,17c-0.6,2.7-1.2,4.6-4.9,4.3
			c-2.4-0.2-3.2-1-3.7-3.1c-2.3-9-4.6-18-7.1-26.9c-0.7-2.6-0.2-3.1,2.4-3.2c3.3-0.2,4.9,0.6,5.4,4.2c0.8,5.2,2.3,10.2,3.5,15.3
			C109.9,365.3,110.2,365.3,110.5,365.3z"/>
		<path class="st1" d="M253.3,362.2c0-4.6,0.1-9.1-0.1-13.7c-0.1-2.3,0.7-3,2.8-2.7c0.9,0.1,1.8,0.1,2.7,0c1.7-0.2,2.4,0.5,2.3,2.3
			c-0.1,2.7,0.1,5.3-0.1,8c-0.1,1.9,0.7,2.5,2.5,2.4c2.5-0.1,5.1-0.1,7.7,0c1.7,0.1,2.4-0.6,2.3-2.3c-0.1-2.6,0.1-5.1-0.1-7.7
			c-0.2-2.3,0.8-3,2.9-2.7c0.7,0.1,1.3,0.1,2,0c2.3-0.3,3,0.6,3,2.9c-0.1,9.1-0.1,18.2,0,27.3c0,2.3-0.7,2.8-2.8,2.7
			c-5.9-0.2-4.8,0.6-5-5c-0.1-2.9,1.2-6.6-0.5-8.4c-1.9-2-5.7-0.4-8.6-0.7c-2.6-0.3-3.6,0.7-3.4,3.3c0.2,2.6-0.1,5.3,0.1,8
			c0.2,2.3-0.8,3-2.9,2.7c-0.7-0.1-1.3-0.1-2,0c-2.3,0.3-3.1-0.6-3-2.9C253.5,371.3,253.3,366.8,253.3,362.2z"/>
		<path class="st1" d="M169.1,362.4c0,4.6-0.1,9.1,0,13.7c0.1,2.2-0.6,3.1-2.8,2.8c-0.8-0.1-1.6-0.1-2.3,0c-2.3,0.3-2.8-0.8-2.7-2.8
			c0.1-2.9,0-5.8,0.1-8.7c0.1-1.8-0.3-2.7-2.4-2.6c-2.7,0.2-5.3,0.1-8,0c-1.8-0.1-2.3,0.7-2.3,2.4c0.1,3.1,0,6.2,0,9.3
			c0,1.6-0.3,2.5-2.2,2.4c-1.1-0.1-2.2-0.1-3.3,0c-1.4,0.1-2-0.3-2-1.8c0-9.8,0-19.5,0-29.3c0-1.2,0.4-1.9,1.7-1.8
			c1.1,0.1,2.2,0.1,3.3,0c1.9-0.2,2.6,0.5,2.5,2.4c-0.1,2.7,0,5.3-0.1,8c-0.1,1.7,0.6,2.4,2.3,2.3c2.7-0.1,5.3-0.1,8,0
			c1.7,0.1,2.4-0.5,2.3-2.3c-0.1-2.7,0.1-5.3-0.1-8c-0.1-1.9,0.5-2.7,2.4-2.5c1,0.1,2,0.1,3,0c2-0.2,2.4,0.7,2.4,2.5
			C169,353,169.1,357.7,169.1,362.4z"/>
		<path class="st1" d="M316.1,361.7c0.1,7.5-2.1,13.2-8.6,16.3c-5.8,2.7-11.5,2.2-16.6-1.7c-6.9-5.2-8.1-18.3-2.3-25.6
			c5-6.3,15.2-7.4,21.8-2.1C314.9,352,316.3,356.9,316.1,361.7z M308.7,362.5c0.1-1.8,0-3.6-0.6-5.3c-1.3-3.6-4-5.8-7.3-5.8
			c-3.5-0.1-6.3,2.1-7.4,6c-1.2,4-1.2,8.1,0.8,11.9c1.3,2.6,3.5,4.2,6.6,4.1c3.2,0,5.2-1.6,6.6-4.2
			C308.4,367.1,308.9,364.8,308.7,362.5z"/>
		<path class="st1" d="M319.6,357.6c0-3,0.1-6,0-9c-0.1-1.9,0.4-2.8,2.5-2.8c6.2,0.2,4.9-0.4,5,4.9c0.1,5.5,0,11.1,0.3,16.6
			c0.2,4.2,2.3,6,6,6c3.3-0.1,5.4-2.2,5.5-6.2c0.1-6.1,0.3-12.2,0-18.3c-0.2-3.6,2-2.9,4-3c2.1-0.1,3.9-0.3,3.7,3
			c-0.4,6.8,0.4,13.5-0.4,20.3c-0.7,6.4-5,10.1-11.4,10.2c-2.3,0-4.6,0.2-6.9-0.5c-5.3-1.7-8-5.4-8.2-11.9
			C319.5,363.8,319.6,360.7,319.6,357.6z"/>
		<path class="st1" d="M363.2,379.5c-5.5,0.1-10-1.8-13.2-6.4c-0.7-1-1.4-2.2,0.2-2.6c1.7-0.4,3-4.1,5.1-1.3
			c2.6,3.3,5.8,4.7,9.9,4.1c1.7-0.2,3.3-0.8,3.6-2.9c0.3-2-0.8-3.2-2.5-3.8c-2.7-0.9-5.5-1.8-8.2-2.7c-6.2-2.1-8.4-5.2-7.6-10.7
			c0.7-4.6,4.6-7.7,10.3-8.1c5.3-0.3,9.9,0.9,13.4,5.1c0.8,1,1.7,2.2-0.1,2.8c-1.6,0.6-2.4,4.1-4.9,1.5c-2.2-2.3-4.8-3.6-8-3.2
			c-1.6,0.2-3.1,0.8-3.4,2.6c-0.3,1.9,0.7,2.9,2.3,3.6c3.6,1.7,7.7,2.1,11.2,3.9c3.1,1.6,4.9,4.2,5,7.7c0,3.5-1.4,6.4-4.6,8.3
			c-1.7,1-3.6,1.6-5.6,1.8C365.1,379.4,364.1,379.4,363.2,379.5z"/>
		<path class="st1" d="M215.6,362.3c0-4.7,0.1-9.3,0-14c0-1.9,0.6-2.5,2.5-2.5c6,0.1,12,0.2,18,0c2.7-0.1,2.5,1.4,2.5,3.2
			c0,1.8,0.1,3.3-2.5,3.1c-3.4-0.2-6.9,0.1-10.3-0.1c-2.9-0.2-2.4,1.6-2.3,3.2c0.1,1.6-1,4.1,2.4,3.8c1.7-0.1,3.3,0,5,0
			c3.3,0,4.3,1.5,3.4,4.8c-0.3,1.1-0.9,1.1-1.7,1.1c-1.3,0-2.7,0-4,0c-5,0-6.3,1.8-5.1,6.7c0.4,1.6,1.4,1.1,2.3,1.1
			c3.7,0.1,7.3,0.2,11,0c2.7-0.2,2.5,1.4,2.5,3.1c0,1.8,0.1,3.2-2.5,3.1c-6.2-0.2-12.4-0.1-18.6,0c-2,0-2.4-0.7-2.4-2.5
			C215.6,371.6,215.6,367,215.6,362.3z"/>
		<path class="st1" d="M380.2,362.2c0-4.7,0.1-9.3,0-14c0-1.7,0.5-2.4,2.3-2.3c6.1,0.1,12.2,0.1,18.3,0c2.8-0.1,2.3,1.6,2.3,3.3
			c0,1.6,0.2,3.1-2.3,3c-3.5-0.2-7.1,0.1-10.6-0.1c-2.6-0.2-2.4,1.5-2.1,2.9c0.2,1.5-1.4,4.2,2.1,4c1.8-0.1,3.6,0.2,5.3,0
			c2.9-0.4,3.5,0.9,3.4,3.6c-0.1,1.9-0.7,2.5-2.5,2.4c-1-0.1-2,0-3,0c-5.6,0-6.3,0.9-5.4,6.5c0.2,1.5,1.1,1.4,2.1,1.4
			c3.8,0,7.6,0.2,11.3,0c2.7-0.2,2.7,1.3,2.7,3.3c0,2-0.2,3-2.6,3c-6.2-0.2-12.4-0.1-18.6,0c-2.1,0-2.6-0.8-2.6-2.7
			C380.3,371.5,380.2,366.8,380.2,362.2z"/>
		<path class="st1" d="M195.3,365.2c0-3.8,0-7.5,0-11.3c0-1.4-0.4-2-1.9-1.9c-1.4,0.1-2.9-0.2-4.3,0.1c-3,0.4-3.8-0.7-3.7-3.6
			c0.1-2.1,0.8-2.6,2.8-2.6c7.3,0.1,14.6,0.2,22,0c2.6-0.1,2.5,1.3,2.5,3.1c-0.1,1.6,0.5,3.4-2.3,3.2c-2.4-0.2-5.5-1.1-7,0.5
			c-1.6,1.7-0.5,4.9-0.5,7.4c-0.1,5.4-0.2,10.9,0,16.3c0.2,3.6-2.3,2.4-4,2.5c-1.8,0.1-3.8,0.7-3.6-2.6
			C195.5,372.6,195.3,368.9,195.3,365.2z"/>
		<path class="st1" d="M182.1,362.5c0,4.5-0.1,9.1,0,13.6c0,1.9-0.4,2.7-2.5,2.7c-5,0-5,0.1-5-4.9c0-8.2,0.2-16.4-0.1-24.6
			c-0.1-3.1,1-3.7,3.7-3.6c2.5,0.1,4.2,0,3.9,3.4C181.9,353.6,182.1,358.1,182.1,362.5z"/>
		<path class="st5" d="M100.8,277.5c-1.6,5.1-3.2,10.3-4.8,15.4c-1.5,4.8-3.2,9.5-4.6,14.3c-0.5,1.7-1.3,2.2-3,2.2
			c-7.8,0.1-7.9,0.2-10.3-7.3c-2.6-8.2-5.5-16.3-8.1-24.7c0,6,0,12,0,18c0,3.9-0.1,7.8,0,11.7c0.1,1.9-0.6,2.4-2.4,2.4
			c-8,0.1-8,0.2-8-7.8c0-13.4,0.1-26.9-0.1-40.3c0-2.9,0.8-3.7,3.6-3.4c3.8,0.4,8.7-1.5,11.3,0.7c2.4,2.1,2.6,6.8,3.7,10.4
			c2.3,7.6,4.6,15.3,7,22.9c0.2,0.8,0.2,1.8,1.3,2.5c2.7-9.6,5.5-19.1,8.1-28.6c2.2-7.9,2.2-7.9,10.3-7.9c7.3,0,7.3,0,7.3,7.2
			c0,13.8-0.1,27.5,0.1,41.3c0,2.5-0.7,3.1-3.1,3.1c-7.9-0.1-7.9,0-7.9-7.9c0-8,0-15.9,0-23.9C101.1,277.6,101,277.6,100.8,277.5z"
			/>
		<path class="st5" d="M196.7,308.7c-8.5,2.7-13.7-0.2-16.3-8.2c-0.7-2.1-2.1-3.9-3.1-5.7c-4.7,2.6-5,6.9-4.5,11.3
			c0.3,2.7-0.7,3.3-3.3,3.3c-8.1-0.1-8.1,0-8.1-8c0-13.4,0.1-26.9,0-40.3c0-2.3,0.4-3.3,3-3.3c8.4,0.1,8.4,0,8.4,8.5
			c0,6.1,0,12.2,0,18.7c2.4-1.2,3.5-3.4,5-5.2c6.8-8.1,6.8-8.1,17.5-7.6c0.1,0,0.2,0.1,0.8,0.4c-2.7,3.1-5.3,6.2-7.9,9.2
			c-3.8,4.4-3.8,4.4-1.1,9.4C190.3,297,193.6,302.9,196.7,308.7z"/>
		<path class="st5" d="M355.4,309.3c-2.5,0-4.7-0.2-6.9,0.1c-3.5,0.4-5.6-0.5-5-5c-3.2,2.7-6.2,4.7-9.9,5.3c-6,1-11.2-1.3-13-6.1
			c-2-5.4,0.1-11.1,5.5-14.2c4.4-2.6,9.4-3.3,14.3-4c1-0.2,2.8,0.7,2.9-1.3c0.1-1.7-0.7-3-2.4-3.6c-2.7-1.1-5.3-0.3-7.8,0.5
			c-1.2,0.3-2.2,1.1-3.3,1.5c-1.3,0.5-2.5,2.5-3.6,1.7c-1.8-1.4-3-3.5-4.2-5.5c-0.6-0.9,0.4-1.4,1-1.8c7.2-5.2,15.1-6.7,23.6-4.4
			c4.5,1.2,6.8,4.7,7.5,9.3c0.8,6,0.2,12,0.4,17.9C354.5,302.7,354.4,305.8,355.4,309.3z M343.1,294.6c-0.5-0.6,1.4-3-0.9-2.9
			c-3.4,0.1-6.9,0.7-9.7,3c-2,1.6-2.2,4.5-0.3,5.7c2.8,1.8,5.6,0.7,8.3-0.4C342.8,299.2,343.9,297.6,343.1,294.6z"/>
		<path class="st5" d="M154.4,309.3c-2.1,0-4.2-0.2-6.3,0c-3.3,0.3-6.1,0.1-5.4-5c-3.2,2.7-6.1,4.6-9.7,5.3
			c-6.2,1.1-11.5-1.3-13.3-6.1c-2-5.5,0.4-11.3,6-14.3c4.3-2.3,9-3,13.7-3.8c1.1-0.2,3.1,0.7,3.1-1.5c0-1.8-1.1-3.1-2.9-3.6
			c-2.2-0.6-4.4-0.2-6.6,0.4c-1.6,0.5-3,1.4-4.6,1.9c-1.1,0.4-2.1,2.4-3.3,1.3c-1.7-1.5-2.9-3.6-4.2-5.6c-0.4-0.6,0.6-1.1,1.1-1.5
			c7.5-5.5,15.8-7.1,24.6-4.2c5.1,1.7,6.7,6.2,6.9,11.2c0.2,6.8,0.2,13.5,0.3,20.3C153.8,305.8,154.1,307.5,154.4,309.3z
			 M142.3,294.6c-0.4-0.6,1.4-2.9-1.1-2.8c-3.3,0.1-6.6,0.8-9.4,2.9c-2.2,1.7-2.4,4.7-0.4,5.9c2.8,1.7,5.5,0.6,8.2-0.4
			C142,299.2,143,297.5,142.3,294.6z"/>
		<path class="st5" d="M287.9,283.6c0-7.8,0-15.5,0-23.3c0-1.8,0.4-2.5,2.4-2.5c9.8,0.1,19.5,0.1,29.3,0c1.9,0,2.4,0.7,2.4,2.5
			c0.1,7.2,0.2,7.2-7,7.2c-4.3,0-8.7,0.1-13,0c-1.9-0.1-2.9,0.4-2.7,2.5c0.2,2.5,0.1,5.1,0,7.7c-0.1,1.8,0.6,2.3,2.3,2.3
			c3.9-0.1,7.8,0.1,11.7-0.1c1.8-0.1,2.2,0.6,2.2,2.3c0.2,6.7,0.2,6.7-6.4,6.7c-3.1,0-7.2-1-9,0.5c-2.2,1.8-0.5,6-0.7,9.2
			c-0.1,0.9,0,1.8,0,2.7c-0.2,2.6,1.2,6.6-0.6,7.6c-2.5,1.3-6.2,0.5-9.4,0.5c-1.9,0-1.3-1.4-1.3-2.4
			C287.8,299.2,287.9,291.4,287.9,283.6z"/>
		<path class="st5" d="M429.3,293.9c-3.2,0-6.4,0.1-9.7,0c-2.4-0.1-2.5,0.8-1.8,2.7c1.1,3.3,3.3,5.1,6.8,5.5c3.8,0.4,7.3-0.8,10.3-3
			c1.3-0.9,2-1.2,3.1,0.4c3.7,5.4,3.5,6.1-2.7,8.7c-5.5,2.3-11.2,2.6-17,1.1c-6.2-1.6-10.1-5.8-11.6-12c-2.6-10.4,1.1-20,9.2-23.7
			c6.3-2.9,12.8-3.2,18.7,0.9c6.1,4.3,6.9,11,7.1,17.8c0,1.6-0.8,1.8-2.1,1.8C436.2,293.9,432.7,293.9,429.3,293.9z M424.4,287.2
			c1.7,0,3.3-0.1,5,0c2,0.1,2.2-0.7,1.7-2.4c-0.9-2.9-2.5-4.9-5.8-5.1c-3.3-0.2-5.5,1.2-6.9,4.1c-1.4,3-1.2,3.4,2,3.4
			C421.7,287.2,423.1,287.2,424.4,287.2z"/>
		<path class="st5" d="M220.1,293.9c-3.3,0-6.7,0.1-10,0c-1.7,0-2.1,0.4-1.7,2.1c0.9,3.6,3.3,5.7,7,6.1c3.8,0.3,7.3-0.9,10.3-3.1
			c1.4-1,2-1.1,3,0.5c3.6,5.5,3.5,6.1-2.7,8.7c-4.8,2-9.7,2.4-14.7,1.6c-7.1-1.1-12.1-5.1-13.8-12.2c-1.9-8.2-1.3-16.1,5.8-21.9
			c5.9-4.8,12.7-5.6,19.7-2.6c6.2,2.6,10.7,12.5,9.4,19.5c-0.3,1.5-1.1,1.4-2.1,1.4C227,293.9,223.6,293.9,220.1,293.9z
			 M215.1,287.2c1.6,0,3.1-0.1,4.7,0c2.7,0.3,2.7-1.1,2-3c-0.9-2.4-2.4-4.2-5.2-4.5c-2.9-0.3-5.3,0.6-6.8,3.2
			c-0.7,1.1-1.6,2.4-1,3.7c0.6,1.3,2.2,0.4,3.3,0.6C213,287.3,214.1,287.2,215.1,287.2z"/>
		<path class="st5" d="M391.8,277.3c2.8-2.9,5.8-5.2,9.8-5.8c2-0.3,3,0.2,2.7,2.4c-0.1,0.5,0,1.1,0,1.7c-0.1,1.8,0.4,3.8-0.3,5.2
			c-0.8,1.6-3,0.3-4.6,0.6c-5.5,1.1-8,3.9-8,9.4c0,5.2-0.1,10.4,0,15.6c0,2-0.2,2.9-2.6,2.9c-8.8,0-8.8,0.1-8.8-8.7
			c0-8.7,0.1-17.3,0-26c0-2,0.5-2.9,2.6-2.6c1,0.1,2,0,3,0C391.1,272.1,391.1,272.1,391.8,277.3z"/>
		<path class="st5" d="M250.5,277.2c2.7-2.9,5.7-5,9.5-5.7c2-0.3,3.4-0.2,3,2.4c-0.1,0.4,0,0.9,0,1.3c-0.1,1.8,0.3,3.7-0.4,5.3
			c-0.9,2-3.1,0.5-4.7,0.9c-5.4,1.2-7.8,3.9-7.8,9.3c0,5.3-0.1,10.7,0,16c0,1.9-0.3,2.7-2.5,2.7c-8.9,0.1-8.9,0.2-8.9-8.6
			c0-8.4,0.1-16.9-0.1-25.3c-0.1-2.9,0.9-3.8,3.6-3.4c0.8,0.1,1.6,0,2.3,0C249.8,272.1,249.8,272.1,250.5,277.2z"/>
		<path class="st5" d="M372.7,290.8c0,5.4-0.1,10.9,0,16.3c0,1.7-0.5,2.2-2.2,2.2c-9,0.3-9,0.3-9-8.8c0-8.6,0.1-17.3,0-25.9
			c0-2,0.6-2.6,2.6-2.6c8.7-0.1,8.7-0.2,8.7,8.5C372.7,284,372.7,287.4,372.7,290.8z"/>
		<path class="st5" d="M366.8,267.3c-5.5,0-5.3,0-5.6-5.5c-0.2-3.1,0.9-4.2,3.8-3.7c0.5,0.1,1.1,0,1.7,0c6.1,0,6,0,6.1,6.1
			c0,2.4-0.4,3.6-3,3.2C368.9,267.2,367.8,267.3,366.8,267.3z"/>
		<path class="st4" d="M343.1,294.6c0.7,3-0.4,4.6-2.6,5.4c-2.7,1-5.5,2.2-8.3,0.4c-1.9-1.2-1.7-4.1,0.3-5.7c2.8-2.3,6.3-2.9,9.7-3
			C344.6,291.7,342.7,294.1,343.1,294.6z"/>
		<path class="st4" d="M142.3,294.6c0.7,2.9-0.3,4.6-2.6,5.5c-2.7,1.1-5.5,2.2-8.2,0.4c-2-1.3-1.8-4.2,0.4-5.9
			c2.7-2.1,6.1-2.8,9.4-2.9C143.7,291.7,141.9,294,142.3,294.6z"/>
		<path class="st4" d="M424.4,287.2c-1.3,0-2.7,0-4,0c-3.2,0-3.4-0.4-2-3.4c1.4-2.9,3.7-4.3,6.9-4.1c3.2,0.2,4.9,2.2,5.8,5.1
			c0.5,1.6,0.3,2.5-1.7,2.4C427.7,287.1,426,287.2,424.4,287.2z"/>
		<path class="st4" d="M215.1,287.2c-1,0-2,0.1-3,0c-1.1-0.1-2.7,0.7-3.3-0.6c-0.6-1.2,0.4-2.6,1-3.7c1.5-2.6,3.9-3.5,6.8-3.2
			c2.8,0.3,4.3,2,5.2,4.5c0.7,1.9,0.7,3.3-2,3C218.2,287.1,216.6,287.2,215.1,287.2z"/>
	</g>
</g>
<text transform="matrix(1 0 0 1 144.1396 418.1006)" class="st6 st7 st8">Honored Maker</text>
</svg>
