<?xml version="1.0" encoding="utf-8"?>
<!-- Generator: Adobe Illustrator 25.0.0, SVG Export Plug-In . SVG Version: 6.00 Build 0)  -->
<svg version="1.1" xmlns="http://www.w3.org/2000/svg" xmlns:xlink="http://www.w3.org/1999/xlink" x="0px" y="0px"
	 viewBox="0 0 8640 8640" style="enable-background:new 0 0 8640 8640;" xml:space="preserve">
<style type="text/css">
	.st0{fill:#2D2D2D;stroke:#000000;stroke-miterlimit:10;}
	.st1{fill:#162E47;stroke:#010101;stroke-width:40;stroke-miterlimit:10;}
	.st2{fill:none;stroke:#8799BA;stroke-width:45;stroke-miterlimit:10;}
	.st3{fill:none;stroke:#FFFFFF;stroke-width:45;stroke-miterlimit:10;}
	.st4{fill:#85C54C;stroke:#010101;stroke-width:40;stroke-miterlimit:10;}
</style>
<g id="Layer_2">
	<rect class="st0" width="8640" height="8640"/>
</g>
<g id="Layer_1">
	<path class="st1" d="M1245.3,5502.1c-457.7,993.4,40,1179,619,1210c306.6,311.6,639,313,878-35c58,646,1065,1077,1461,231
		c379.8,194.1,744,153,936-352c255.1,189.1,454,187.7,568-102c383,330.1,727.3,258.4,1029.9-249c284.4,383.9,578.4,486.3,885.1,218
		c635,270,586.9-388.2,403.5-921c294.5-108.7,398.8-270.7,258.5-501c541-227,264.3-1076.8-325-999c109.4-397.9,116.4-736.7-165-909
		c247-934-536.8-909.8-720-223c-55-253-273.7-383.6-431-310c266-1396-1379-1775-1547-599c-180.1-221.8-352-256.8-513-43
		c-501.8-1225-1911-402-1743,650c-746.8-710.3-1649,327-1183,1140c-277-62-406.3,323.7-536.9,705
		C690.2,4748.6,711.7,5110.4,1245.3,5502.1z"/>
	<path class="st2" d="M1365.3,5464.6c-444,963.7,38.8,1143.8,600.5,1173.9c297.5,302.3,619.9,303.7,851.8-34
		c56.3,626.7,1033.2,1044.9,1417.4,224.1c368.5,188.3,721.8,148.4,908.1-341.5c247.4,183.4,440.4,182.1,551-99
		c371.5,320.3,705.6,250.7,999.1-241.6c275.9,372.4,561.1,471.8,858.7,211.5c616,261.9,569.4-376.7,391.5-893.5
		c285.7-105.5,386.9-262.6,250.8-486c524.9-220.2,256.4-1044.7-315.3-969.2c106.1-386,112.9-714.7-160.1-881.9
		c239.6-906.1-520.8-882.7-698.5-216.3c-53.4-245.4-265.5-372.1-418.1-300.7c258.1-1354.3-1337.8-1722-1500.8-581.1
		c-174.8-215.1-341.5-249.1-497.7-41.7c-486.8-1188.4-1854-390-1691,630.6c-724.5-689.1-1599.8,317.2-1147.7,1106
		c-268.8-60.1-394.1,314-520.9,684C826.8,4733.5,847.6,5084.6,1365.3,5464.6z"/>
	<path class="st3" d="M3682.3,7094.5c105.8-111.5,239-356,157.4-400.1c-108.4-55.9-213.8,54.9-318.9,175.9
		c104.9-130.1,212.5-270.9,135.5-351.9c-119.7-57.9-197,66.7-271,205l58-84l316,341"/>
	<path class="st3" d="M4202.3,6648.5c-40.6-150.8-104-374-73-380c83,26,230,289,261,274c29-13-39.2-231.1-95-380"/>
	<g>
		<path class="st3" d="M4640.3,6105.5c-171.9-160.5-260,360-31,364c125.6-8.8,147.1-112,132-249c31.8,123.4,54.9,236.8,42,309"/>
		<line class="st3" x1="4841.3" y1="6140.5" x2="4609.3" y2="6295.2"/>
	</g>
	<g>
		<line class="st3" x1="4918" y1="6405.5" x2="4911.3" y2="5849.5"/>
		<line class="st3" x1="5093.1" y1="5827.8" x2="5093.1" y2="6381.9"/>
		<line class="st3" x1="5161.3" y1="6008.5" x2="4868.9" y2="6127.5"/>
	</g>
	<line class="st3" x1="4028" y1="6799.2" x2="3866.8" y2="6407.9"/>
	<g>
		<polyline class="st3" points="5218.8,6342 5340.8,5864 5404.5,5827.8 5343.8,5870 5526.7,6302.1 		"/>
		<line class="st3" x1="5176.3" y1="6193.5" x2="5553.3" y2="6090.5"/>
	</g>
	<path class="st3" d="M5599.3,6263.5l-31-489c-23.5-18.2-50.9-12.8-79.4,0c89.1,75.2,206.9,198,234.4,171c32.5-41.6,57-210,86-218
		c24-15,103.9,254.6,156,424"/>
	<g>
		<line class="st3" x1="6123" y1="6127.5" x2="6123" y2="5677.6"/>
		<line class="st3" x1="5943.3" y1="5712.5" x2="6508.7" y2="5592.3"/>
	</g>
	<path class="st3" d="M6373.3,5748.5c-163,0-153,260-20.8,260C6480.3,6008.5,6508.3,5748.5,6373.3,5748.5z"/>
	<path class="st3" d="M6518.8,6008.5c35.9-169.8,75.1-402.1,101.6-388c30-28,104.4,282.4,149,306c26-5,90.8-219.1,139-359"/>
	<path class="st4" d="M4175.8,5841l328-381l-328-366.7c35.5-88.5,92.7-140.7,164-168.8l377,400.6l168-169
		c-286.5-1039.9-523.2-2024.1-632-2865c-292.9,49.9-499.9,191.4-689,352c89,498.5,164.8,996.5,424,1500l-121,139.9
		c-88.8-179-224.2-452.1-366-737.9l-428,179.8C3401.8,4506.4,3676.7,5394.5,4175.8,5841z"/>
	<path class="st4" d="M65.4,4586l609.5,998l149-284l2012,1145c77-20,195.9-359.6,298-413c-81.7-174.4-130.8-346.3-155.9-516.5
		l663.9,698.5c-50.4-494.8,34-847.6,225-1088c-389-405-737.7-1197.5-1072-2129c-217.2,236.8-420,483.1-589,752
		c221.7,528.8,436.5,1018.7,603,1233l-454-95l271,569l-1544-779l33-271L65.4,4586z"/>
	<path class="st4" d="M6342.8,2918.8V5334c179.1-86,394.6-128.7,686-81l155-461l378,1189l-228,185l685,844
		c155.9-433.7,319.2-841.1,514-1136l-344,15c-170.2-1135.8-129-2332.1-54-3538l-697,383.4L7387.6,4230l-247.5-262.9L6960.8,4278
		c-87.7-292.4-114.1-793.2-127-1340L6342.8,2918.8z"/>
	<path class="st4" d="M5005.8,5364c1016.5,10.2,2119-1715,1093-2640l234-252l-1043-332l61,1088l230-203c532,840,358,1561-575,1696
		V5364z"/>
	<path class="st4" d="M4785.8,5577l539-81l-117.5-910c16.1-30.9,47.5-34.4,90.5-17l536,816l509-51l-663-958
		c343-330,163-1072-301-1057c-330.2,65.7-625.6,135.5-795,220L4785.8,5577z"/>
	<path class="st1" d="M5045.8,4230c-53.7-149.3-85.7-300.5-91-454c280.4-115.1,458.8-93.6,525,78
		C5537.9,4029,5390.8,4153.8,5045.8,4230z"/>
</g>
</svg>
