<?xml version="1.0" encoding="utf-8"?>
<!-- Generator: Adobe Illustrator 25.0.0, SVG Export Plug-In . SVG Version: 6.00 Build 0)  -->
<svg version="1.1" xmlns="http://www.w3.org/2000/svg" xmlns:xlink="http://www.w3.org/1999/xlink" x="0px" y="0px"
	 viewBox="0 0 110.7 110.3" style="enable-background:new 0 0 110.7 110.3;" xml:space="preserve">
<style type="text/css">
	.st0{fill:#01ABEC;}
	.st1{fill:none;stroke:#000000;stroke-width:0.25;stroke-miterlimit:10;}
</style>
<g id="Layer_1">
</g>
<g id="Layer_2">
	<g>
		<path class="st0" d="M101.5,110.5c-1.4-0.5-2.9-0.4-4.4-0.5c-0.7,0-1.1-0.3-1.2-1c-0.8-3.4-1.9-4.5-5.4-5
			c-1.1-0.2-2.2-0.2-3.3-0.2c-8.7,0-17.3,0-26-0.1c-4.3-0.1-8.6-0.7-12.6-2.5c-5.8-2.6-8.6-7.5-9.6-13.5c-0.3-1.5-0.4-3.1-0.6-4.6
			c1.7-4.7,3.4-9.5,5.2-14.2c0.1,0,0.2,0.1,0.3,0.1c-0.2,4.5,0.1,8.9,0.9,13.4c1.1,6.3,4.7,10.4,10.7,12.5c3.3,1.1,6.6,1.5,10,1.6
			c8,0.1,15.9,0.1,23.9,0.1c1,0,2.1,0.1,3.1,0.3c2.9,0.6,3.7,1.5,4.1,4.5c0.1,0.5,0.1,0.7,0.7,0.7c2.2,0.1,4.4,0.6,6.6,0.5
			c-0.2,2.4-0.5,4.8-0.7,7.2c0,0.6-0.5,0.6-0.7,1C102,110.5,101.7,110.5,101.5,110.5z"/>
		<path class="st0" d="M34.8,63c2.9-5.6,3.2-11.6,2.2-17.7c-0.7-4.5-3.9-7.4-8.4-7.8c-3.1-0.3-6.2-0.8-9.1-1.8
			c-6.3-2.1-9.8-6.5-10.8-13C7.5,15.4,9,8.6,12.9,2.2c0.5-0.7,0.9-1.5,1.3-2.3c0.8,0,1.6,0,2.4,0c0.7,1.7,1.3,3.4,3,4.4
			c-2.7,5.4-3.8,11.1-3,17.2c0.9,6.4,4.2,10.7,10.4,12.7c2.6,0.8,5.2,1.3,7.9,1.5c4.3,0.3,7.2,3,7.9,7.2c0.2,1.1,0.3,2.3,0.3,3.5
			c0.2,4.3-0.4,8.5-2.7,12.3C39.1,60.8,37.3,62.5,34.8,63z"/>
		<path class="st0" d="M29.8,93.6c-0.7,2.1-1.5,4.1-2.2,6.2c-0.2,0.7-0.6,1-1.4,1c-8.7,0-17.4-0.1-26.1-0.1c0-0.4,0-0.8,0-1.2
			c0.7-0.6,0.5-1.5,0.7-2.2c1.9-8.8,3.8-17.6,5.6-26.4c0.3-1.3,0.8-1.7,2.1-1.7c1.8,0.1,3.5,0.1,5.3,0.1c0,0.2,0,0.3,0,0.5
			c-1.6,7.3-3.1,14.7-4.7,22c-0.4,1.8-0.4,1.8,1.4,1.8C16.8,93.5,23.3,93.5,29.8,93.6z"/>
		<path class="st1" d="M29.8,93.6c-6.5,0-12.9,0-19.4-0.1c-1.8,0-1.8,0-1.4-1.8c1.5-7.5,3.4-15,4.7-22.5c0.3-1.6,0.7-3.1,1-4.7
			c0.1-0.7,0.4-0.9,1.2-0.9c5,0,10,0,14.9,0c1.3,0,2.7-0.1,4-0.6c7.9-2.2,8.9-13.3,7.9-20.2c-0.6-4.2-3.6-6.9-7.9-7.2
			c-9.2-0.6-17.1-4.2-18.2-14.2c-0.8-6.1,0.2-11.7,3-17.2c0.7-1.1,1.4-2.1,2-3.2c0.3-0.5,0.7-0.6,1.3-0.7c1.4-0.1,2.2,0.1,2.7,1.7
			C26,4,27.7,5,29.6,5.5c6.3,1.7,13,0.9,19.1,3.4c17,0.4,34.1,0,51.2,0.1c1.5,0,2.9-0.2,3.9-1.4c0.4-0.4,0.9-0.3,1.3-0.2
			c1.6,0.3,3.2,0.7,4.8,1c0.6,0.1,0.7,0.4,0.6,1c-1.4,6.1-2.8,12.2-4.2,18.3c-0.2,0.8-0.6,1.5-1,2.2c-0.1,0.1-0.2,0.2-0.3,0.4
			c0,0,0,0,0,0c-2.2,1.3-4.8,1.1-7.2,1.2c-14.5,0-29,0-43.5,0c-1.2,0-1.7,0.3-1.3,1.5c0.6,6.8,1.2,13.6,1.9,20.4
			c0.1,0.7,0.3,1.4,0.8,2c1.5,1.8,3,3.7,4.6,5.5c2.8,3.2,4.6,6.8,5.2,10.9c0.1,0.9,0.5,1.2,1.4,1.2c9.9,0.4,19.7,0.1,29.6,0.2
			c4.7-0.1,9.6,1.3,9.4,6.9c-0.4,7.5-1.6,14.9-2.3,22.4c-2.2,0.1-4.4-0.3-6.6-0.5c-0.5,0-0.6-0.3-0.7-0.7c-0.3-3-1.2-3.8-4.1-4.5
			c-1-0.2-2-0.3-3.1-0.3c-8,0-15.9,0-23.9-0.1c-18.9-0.5-22.2-10.4-21.6-27.4c-0.1,0-0.2-0.1-0.3-0.1c-2.8,7.8-5.7,15.5-8.5,23.3
			C34.2,94.5,31.6,93.2,29.8,93.6z"/>
		<path class="st0" d="M53,32.8c-0.3-1.2,0.2-1.5,1.3-1.5c14.5,0,29,0,43.5,0c1.5,0,3-0.2,4.5-0.2c1,0,1.8-0.6,2.7-1
			c-0.2,1.4-1.2,1.9-2.3,2.2c-1.9,0.5-3.9,0.5-5.8,0.5C82.3,32.8,67.7,32.8,53,32.8z"/>
		<path class="st0" d="M105.1,30.2c0.1-0.1,0.2-0.2,0.3-0.4C105.4,30,105.4,30.2,105.1,30.2z"/>
	</g>
</g>
</svg>
