<?xml version="1.0" encoding="utf-8"?>
<!-- Generator: Adobe Illustrator 25.0.0, SVG Export Plug-In . SVG Version: 6.00 Build 0)  -->
<svg version="1.1" id="Layer_1" xmlns="http://www.w3.org/2000/svg" xmlns:xlink="http://www.w3.org/1999/xlink" x="0px" y="0px"
	 viewBox="0 0 339 339" style="enable-background:new 0 0 339 339;" xml:space="preserve">
<style type="text/css">
	.st0{fill:#4399FF;}
	.st1{fill:#1A237E;}
	.st2{fill-rule:evenodd;clip-rule:evenodd;fill:#EEEEEE;}
	.st3{fill-rule:evenodd;clip-rule:evenodd;fill:#1A237E;}
</style>
<g id="Layer_2_1_">
	<rect y="0" class="st0" width="339" height="339"/>
</g>
<g>
	<g id="Gear_1_">
		<path id="svg_2" class="st1" d="M26.3,232.6c0-0.7,2.1-12.6,2.2-13c0.1-0.7,0.2-0.9,0.9-0.8c0.9,0.1,12.5,1.2,13.2,1.3
			c0.6,0,0.8-0.2,0.9-0.7c0-0.2,2.5-9.8,2.5-9.9c0.3-0.8,0.3-1-0.5-1.4c-0.6-0.3-11.2-5.5-11.6-5.6c-0.6-0.2-1.3-1-1.3-1.7
			c0-0.2,0-0.4,0.1-0.6c0.1-0.1,3.2-10.1,3.5-10.9c0.1-0.3,0.3-0.6,0.7-0.4c0.4,0.1,13.9,4.1,14.1,4.1c0.7,0.2,1,0,1.3-0.7
			c0.1-0.2,4.1-8.4,4.4-8.8c0.4-0.6,0.3-0.8-0.2-1.3c-0.6-0.5-11.1-8.9-10.8-9.7c0.1-0.4,5.7-9.2,6.4-10.2c0.4-0.6,0.6-0.6,1.3-0.4
			c0.4,0.1,10.9,6.2,11.4,6.7c0.4,0.3,0.8,0.3,1.1-0.2c0.8-1,5.5-7.1,6.3-7.9c0.5-0.5,0.5-1,0-1.5c-0.3-0.3-7.9-9.4-8.5-10.1
			c-0.4-0.5-0.4-1.1,0-1.6c1.3-1.3,6.7-7,8.2-8.6c0.4-0.4,0.9-0.4,1.4,0c1.1,1,9.1,8.3,9.7,8.9c0.6,0.6,1,0.6,1.6,0
			c0.3-0.3,6.5-6.6,6.9-7.2c0.5-0.6,0.5-1.1,0-1.8c-0.2-0.3-4.8-9.2-5.5-10.2c-0.1-0.2-0.2-0.3-0.2-0.5c-0.2-0.6-0.1-0.9,0.3-1.3
			c0.9-0.7,9.5-6.6,9.8-6.7c0.7-0.2,0.9-0.1,1.3,0.4c1,1.1,6.9,9.7,7.8,10.9c0.5,0.6,0.7,0.7,1.3,0.2c0.7-0.6,8.2-4.5,8.9-4.7
			c0.6-0.1,0.7-0.6,0.3-1.1c-0.2-0.3-3.8-12-4.1-12.6c-0.3-0.7-0.1-1.4,0.6-1.7c1.1-0.5,10-4.1,10.9-4.4c0.9-0.2,1.2-0.1,1.6,0.7
			c0,0.1,5.1,11.6,5.4,12.2c0.3,0.7,0.6,0.8,1.2,0.5c0.2-0.1,8.5-2.3,9.4-2.6c0.7-0.3,0.9-0.3,0.8-1.1c0-0.8-1.1-12.7-1.2-13.6
			c0-0.7,0.1-0.9,0.7-1c0.3,0,10.5-1.8,11.5-1.9c0.2,0,0.3,0,0.5,0c0.6,0,0.7,0.2,0.7,0.7c0.1,0.7,2.7,12.6,3,13.5
			c0.1,0.4,0.3,0.6,0.7,0.7c0.1,0,0.3,0,0.4,0c1.1-0.1,9.9-0.6,10-0.6c0.2,0,0.4-0.2,0.4-0.4c0-0.6,1.7-13.5,1.7-14.2
			c0-0.6,0.2-0.7,0.7-0.7c0.1,0,0.3,0,0.4,0c1.3,0,10.5,0.6,11.6,0.6c0.6,0,0.7,0.2,0.7,0.8c0,0.1,0,0.1,0,0.2
			c0,4.4,0.1,8.9,0.1,13.4c0,0.2,0,0.4,0.1,0.6c0.1,0.2,0.2,0.4,0.4,0.5c0.4,0.1,9.5,1.7,10.1,1.7c0.8,0,1-0.1,1.2-0.9
			c0.1-0.4,4.1-12.3,4.2-12.7c0.1-0.5,0.3-0.6,0.7-0.6c0.5,0,11.2,3.1,11.7,3.2c0.5,0.1,0.6,0.3,0.6,0.8c0,0.1-2,12.8-2.4,13.8
			c-0.2,0.4,0,0.7,0.3,1c0.3,0.3,8.6,3.6,9.5,3.8c0.6,0.2,0.7,0.2,1-0.3c0.3-0.4,6.7-11.6,6.8-12c0.1-0.3,0.3-0.4,0.7-0.4
			c0.3,0,11.6,6.1,11.6,6.5c0,0.4-5.4,13.3-5.6,13.6c-0.2,0.3-5.6,2.7-6.1,2.9c-0.5,0.2-1,0.4-1.4,0.6c-0.7,0.4-1.4,0.9-2.2,1.3
			c-0.2,0.1-0.3,0.3-0.6,0.4c-0.5,0.2-1,0.5-1.5,0.8c-1,0.7-2.1,1.1-3,2c0,0-2.1,1.4-2.3,1.6c-0.6,0.5-1.2,0.9-1.7,1.4
			c-0.3,0.3-0.7,0.5-1,0.7c-0.4,0.3-0.7,0.8-1.2,1.1c-0.3,0.2-0.6,0.4-0.8,0.6c-0.3,0.2-0.8,0.9-0.8,1c-0.3,0.4-0.8,0.7-1.2,1
			c-0.3,0.3-0.6,0.7-1,1c-0.5,0.3-3.8,4.1-4.2,4.6c-0.4,0.4-0.8,0.8-1.1,1.3c-0.3,0.7-0.8,1.4-1.4,2c-0.3,0.3-0.8,1.3-0.9,1.4
			c-0.3,0.3-0.4,0.6-0.6,0.9c-0.1,0.2-0.3,0.3-0.4,0.6c-0.4,0.6-0.9,1-1.2,1.7c-0.2,0.3-1.4,2.3-1.6,2.8c-0.4,0.8-0.9,1.7-1.4,2.4
			c-0.2,0.3-0.7,1.8-1.1,2.2c-0.2,0.3-1,2-1.2,2.5c0,0.1-0.9,1.7-1,1.8c-0.3,0.9-0.9,1.6-1.2,2.5c0,0.1-1.4,3-1.7,3.5
			c-0.3,0.7-0.7,1.2-0.9,1.9c0,0-1,2.5-1.2,2.7c-0.2,0.2-0.3,0.5-0.3,0.7c-0.1,0.3-0.5,1-0.6,1.1c-0.1,0.3-0.6,1-0.6,1.1
			c-0.3,0.6-1.7,3-2.2,3.4c-0.1,0.1-0.8,1.9-1.1,2.2c-0.2,0.2-1.3,2.4-1.4,2.7c-0.3,0.7-0.7,1.4-1.2,2c-0.1,0.1-0.3,0.9-0.6,1.1
			s-1.3,2.3-1.4,2.4c-0.5,0.9-1,1.7-1.5,2.7c-0.3,0.6-0.7,1.1-1,1.7c-0.3,0.6-0.7,1.2-1.2,1.6c-0.5,0.4-0.8,0.9-1.1,1.4
			c-0.1,0.2-0.3,0.3-0.3,0.4c-0.3,0.3-1.5,1.3-1.8,1.7c-0.7,0.7-1.4,1.5-2,2.2c-0.4,0.5-0.9,1-1.3,1.5c-0.5,0.5-5.2,3.8-6,4.3
			c0,0,0,0-0.1,0.1c-0.4,0.3-2.8,1.4-3.6,1.8c-0.8,0.4-6.3,2.4-6.6,2.5c-0.5,0.3-3.3,1.2-4.1,1.5c-0.1,0-5.5,1.7-6,1.7
			c-0.8,0.1-1.6,0.3-2.4,0.5c-0.5,0.1-6.6,1.2-6.9,1.3c-0.7,0.3-4.3,0.7-5.3,1c-0.7,0.2-3.4,0.7-4,0.8c-0.5,0-1.8,0.1-2.1,0.3
			c-0.2,0.1-1.7,0.1-2.2,0.3c-0.2,0.1-4.1,0.7-4.2,0.7c-0.9,0-3.8,0.6-4,0.6c-0.6,0-7.3,0.8-8.5,1.2c-0.3,0.1-5,0.7-5.4,0.8
			c-0.2,0-0.3,0-0.5,0c-0.3,0-2.5,0.3-2.7,0.3c-0.6,0.1-4.3,0.7-4.8,0.7c-0.4,0-3.8,0.5-4.4,0.7c-0.2,0-4.1,0.5-4.6,0.6
			c-0.8,0.1-5.5,0.6-6.5,0.6c-0.5,0-7.9,1.2-8.5,1c-0.1,0-9,0.9-9.3,1c-0.6,0.1-5.5,0.5-6,0.6c-0.4,0.1-8.9,0.8-9.3,0.8
			c-0.3,0-0.4-0.1-0.3-0.4c0-0.2,0.1-1.6,0.1-2.2c0-0.6-0.2-0.8-0.7-0.9C40,236,26.7,232.8,26.3,232.6L26.3,232.6z"/>
	</g>
	<g id="Helmet">
		<g id="svg_24">
			<path id="svg_25" class="st2" d="M10.2,241.8c0.7-0.1,3.1-0.3,3.6-0.3c0.6,0,3.1-0.3,3.8-0.2c0.6,0,9.4-0.9,9.6-0.9
				c0.7,0,3-0.3,3.4-0.3c0.6,0,13-1.2,13.7-1.2c0.7,0,3.9-0.3,4.1-0.3c0.8-0.1,9.1-0.7,10.4-1.1c0.7-0.1,5.8-0.7,6.4-0.7
				c1.2,0.1,6.6-0.7,7.3-0.9c0,0,0.1,0,0.1,0c1.7-0.2,3.4-0.3,5-0.6c1.1-0.2,6.3-0.7,6.6-0.7c0.3,0,2.9-0.5,3.9-0.6
				c0.6,0,1.2-0.2,1.7-0.2c0.6,0,4.3-0.5,5-0.7c0.9-0.2,2.9-0.5,3-0.5c0.4,0,3.8-0.5,4.2-0.7c1.4-0.3,6.8-1.1,8.2-1.2
				c0.9-0.1,5-0.7,6.1-0.9c0.9-0.1,7.4-1,8.1-1.3c0.9-0.3,4.2-0.6,4.9-0.8c1-0.3,4.2-0.7,4.8-1c0.9-0.3,7.2-1.6,7.7-1.7
				c1-0.3,2-0.5,2.9-0.8c1.4-0.4,2.9-0.8,4.3-1.2c1.2-0.4,5.7-2.1,6.7-2.5c0.6-0.2,6.6-3.1,7.2-3.5c1.3-0.9,2.6-1.7,3.8-2.7
				c0.6-0.5,1.2-1,1.7-1.5c1.5-1.7,3.2-3.2,4.7-4.9c0.7-0.8,3.8-5.2,4.6-6.5c0.7-1.3,1.6-2.4,2.2-3.8c0.1-0.3,1.7-3,2.2-4
				c0.4-1,2.7-4.7,3.2-5.7c0.7-1.3,1.4-2.5,2.1-3.8c0.8-1.6,1.4-3.4,2.3-5c0.8-1.5,1.5-3.1,2.2-4.6c0.4-0.9,1-1.7,1.4-2.6
				c0.5-1.1,4-7.7,4.5-8.9c0.3-0.6,1.5-2.6,1.8-3c1.1-1.6,2.3-3.1,3.4-4.6c0.5-0.7,2.9-3.8,3.4-4.2c1.8-1.7,3.5-3.6,5.4-5.3
				c1-0.9,2-1.8,3.1-2.7c1-0.8,2-1.6,3-2.4c1.3-1,2.6-1.8,4-2.7c0.8-0.5,1.7-1,2.5-1.4c0.9-0.6,1.9-1,2.8-1.6
				c1.4-0.8,5.8-2.6,6.4-2.9c0.7-0.3,1.5-0.7,2.2-0.9c1.2-0.4,2.4-0.8,3.7-1.2c0,0,2.2-0.6,3.2-1c0.5-0.2,3.4-0.7,4.2-0.9
				c0.9-0.2,1.8-0.2,2.7-0.4c1-0.2,2.1-0.3,3.2-0.5c0.3-0.1,0.7-0.2,1.1-0.1c1,0.1,4.8-0.4,5.2-0.3c0.7,0.1,1.4,0,2.1,0
				c0.3,0,7.6,0.6,9.2,0.7c0.8,0.1,5,0.7,6.3,1c2,0.6,3.9,1,5.8,1.7c2,0.7,4,1.4,5.9,2.2c1.5,0.6,2.9,1.3,4.4,2
				c1,0.5-0.4-0.2,2.8,1.3c0.7,0.3,5.9,1.6,9.9,7.3c0,0,11.7,30.8,12.1,31.8c0.3,0.8,0.1,1.2-0.7,1.2c-1.2,0-48.4,0-50.1,0
				c-0.1,0-0.3,0-0.4,0.1c-0.2,0.2-0.3,0.4-0.3,0.7c0.1,0.5,0.5,0.5,0.8,0.6c0.4,0,54.9,12.4,55.5,12.4c0.7,0.1,1.2,0.3,1.6,1
				c0.5,1.1,5.4,13.8,5.8,14.3c0.2,0.3,0.2,0.7,0.1,1c-0.1,0.3-0.3,0.5-0.4,0.7c-0.7,1.1-21.8,33.5-22.8,35.1
				c-0.3,0.5-0.7,0.7-1.2,0.6c-1.5,0-291.6,0-295.6,0H9.3c-1,0-0.2-0.7-0.1-0.7C9.6,241.8,9.9,241.8,10.2,241.8L10.2,241.8z"/>
		</g>
		<g id="Layer_1_1_">
			<path id="svg_26" class="st3" d="M288.2,195.1L288.2,195.1c-0.5-0.3-1.1-0.2-1.4,0.2l-9.9,15.4c-0.3,0.4-0.2,1,0.3,1.3l0.1,0
				c0.4,0.3,1,0.2,1.3-0.3l9.9-15.4C288.8,195.9,288.7,195.4,288.2,195.1z"/>
			<path id="svg_27" class="st3" d="M278.7,192.2L278.7,192.2c-0.4-0.3-1-0.2-1.3,0.3l-7.3,11.5c-0.3,0.4-0.2,1,0.3,1.3l0,0
				c0.4,0.3,1,0.2,1.3-0.3l7.3-11.5C279.2,193.1,279.1,192.5,278.7,192.2z"/>
			<path id="svg_28" class="st3" d="M269.2,189.5L269.2,189.5c-0.4-0.3-1-0.2-1.3,0.3l-4.3,6.7c-0.3,0.4-0.2,1,0.3,1.3l0,0
				c0.4,0.3,1,0.2,1.3-0.3l4.3-6.7C269.7,190.4,269.7,189.8,269.2,189.5z"/>
			<path id="svg_29" class="st3" d="M298.1,197.8L298.1,197.8c-0.4-0.3-1-0.2-1.3,0.3l-13,20.4c-0.3,0.4-0.2,1,0.3,1.3l0,0
				c0.4,0.3,1,0.2,1.3-0.3l13-20.4C298.7,198.7,298.5,198.1,298.1,197.8z"/>
			<path id="svg_30" class="st3" d="M308,200.8L308,200.8c-0.4-0.3-1-0.2-1.3,0.3l-16,25.1c-0.3,0.4-0.2,1,0.3,1.3l0,0
				c0.4,0.3,1,0.2,1.3-0.3l16-25.1C308.6,201.7,308.5,201.1,308,200.8z"/>
			<path id="svg_31" class="st3" d="M317.6,203.7L317.6,203.7c-0.4-0.3-1-0.2-1.3,0.3l-18.5,29c-0.3,0.4-0.2,1,0.3,1.3l0,0
				c0.4,0.3,1,0.2,1.3-0.3l18.5-29C318.1,204.6,318.1,204,317.6,203.7z"/>
		</g>
	</g>
</g>
</svg>
