<?xml version="1.0" encoding="utf-8"?>
<!-- Generator: Adobe Illustrator 21.0.0, SVG Export Plug-In . SVG Version: 6.00 Build 0)  -->
<svg version="1.1" id="Layer_1" xmlns="http://www.w3.org/2000/svg" xmlns:xlink="http://www.w3.org/1999/xlink" x="0px" y="0px"
	 viewBox="0 0 500 500" style="enable-background:new 0 0 500 500;" xml:space="preserve">
<style type="text/css">
	.st0{fill:#095696;}
	.st1{fill:#FFFFFF;}
</style>
<rect class="st0" width="500" height="500"/>
<g>
	<g id="zlyvt3.tif">
		<g>
			<path d="M245.4,107.9c-52.9,0-105.8,0.4-158.7-0.2c-19.2-0.2-33.2,14.5-33.1,33c0.4,74.1,0.2,148.2,0.2,222.2
				c0,20.7,12.4,33,33.3,33c105.8,0,211.6,0,317.3,0c21.1,0,33.5-12.3,33.5-33.4c0-73.8-0.2-147.6,0.2-221.3
				c0.1-19.6-14.2-33.8-33.5-33.6C351.5,108.3,298.4,107.9,245.4,107.9z"/>
			<path d="M245.4,107.9c53,0,106.1,0.4,159.1-0.2c19.4-0.2,33.6,14,33.5,33.6c-0.4,73.8-0.2,147.6-0.2,221.3
				c0,21.1-12.3,33.4-33.5,33.4c-105.8,0-211.6,0-317.3,0c-20.9,0-33.3-12.3-33.3-33c0-74.1,0.2-148.2-0.2-222.2
				c-0.1-18.6,13.9-33.2,33.1-33C139.6,108.3,192.5,107.9,245.4,107.9z M161.6,336c12.3,0,24.6,0,36.9,0c12.5,0,20.6-6.2,22.5-18.6
				c2.4-16-0.3-31.6-7.3-46.2c-3.3-6.8-9.3-11-16.8-12.7c-3.3-0.8-6-0.3-8.9,2.1c-14.2,12.2-36.4,12.8-50.8,1
				c-5.2-4.3-9.7-3.9-15-1.6c-6.9,3-11.4,8.3-14.1,15.2c-4.9,12.5-6.7,25.4-6,38.7c0.8,13.8,9.8,22,23.7,22
				C137.6,336,149.6,336,161.6,336z M413.9,155.8c0-4.7,0-9.2,0-13.6c0-9-1.3-10.3-10.2-10.3c-105.3,0-210.6,0-315.9,0
				c-1.3,0-2.7-0.1-4,0.1c-3.4,0.3-5.7,2.1-5.8,5.6c-0.2,6-0.1,12-0.1,18.2C189.9,155.8,301.6,155.8,413.9,155.8z M162,263.9
				c20.1-0.2,36.1-16.4,35.8-36.3c-0.3-19.9-16.5-35.7-36.2-35.5c-20,0.2-35.8,16.1-35.8,35.9C125.9,248.1,141.9,264,162,263.9z
				 M317.9,228c21.2,0,42.4,0,63.6,0c6.5,0,8.4-1.9,8.4-8.5c0-2.2,0-4.4,0-6.7c0-7.1-1.8-8.8-9-8.8c-29.3,0-58.7,0-88,0
				c-12.9,0-25.8,0-38.7,0c-6.5,0-8.3,1.9-8.4,8.5c0,2.2,0,4.4,0,6.7c0,7.2,1.7,8.8,8.9,8.8C275.8,228,296.8,228,317.9,228z
				 M317.9,300c-1,0-2.1,0-3.1,0c-20.3,0-40.6,0-60.9,0c-6,0-8,2-8,7.9c0,2.5,0,5,0,7.6c0,6.7,1.8,8.5,8.4,8.5
				c42.4,0,84.7,0,127.1,0c0.4,0,0.9,0,1.3,0c4.9-0.2,7-2.2,7.2-7c0.1-2.7,0-5.3,0-8c0-7.2-1.8-9-8.9-9
				C359.9,300,338.9,300,317.9,300z M281.9,252c-9.6,0-19.3-0.1-28.9,0c-4.9,0-7,2.2-7.1,7c-0.1,3.6-0.1,7.1,0,10.7
				c0.1,3.9,2.3,6.2,6.1,6.2c19.8,0.1,39.7,0.1,59.5,0c4.1,0,6.2-2.5,6.3-6.5c0.1-3.1,0.1-6.2,0-9.3c-0.1-6-2.1-8-8-8.1
				C300.5,251.9,291.2,252,281.9,252z M365.9,252c-5.8,0-11.6-0.1-17.3,0c-4.4,0.1-6.5,2.2-6.6,6.6c-0.1,3.7-0.1,7.4,0,11.1
				c0.1,3.9,2.3,6.1,6.1,6.2c11.8,0.1,23.7,0.1,35.5,0c4.1,0,6.2-2.5,6.3-6.6c0.1-3.3,0.1-6.5,0-9.8c-0.1-5.4-2.2-7.5-7.6-7.6
				C376.8,251.9,371.3,252,365.9,252z"/>
			<path class="st1" d="M161.6,336c-12,0-24,0-36,0c-13.9,0-22.9-8.2-23.7-22c-0.7-13.3,1.1-26.3,6-38.7c2.7-6.9,7.2-12.2,14.1-15.2
				c5.3-2.3,9.8-2.7,15,1.6c14.5,11.8,36.6,11.2,50.8-1c2.9-2.5,5.6-2.9,8.9-2.1c7.5,1.7,13.5,5.8,16.8,12.7
				c7.1,14.6,9.7,30.2,7.3,46.2c-1.8,12.4-10,18.6-22.5,18.6C186.2,336,173.9,336,161.6,336z"/>
			<path class="st1" d="M413.9,155.8c-112.3,0-223.9,0-336,0c0-6.2-0.2-12.2,0.1-18.2c0.1-3.4,2.4-5.3,5.8-5.6
				c1.3-0.1,2.7-0.1,4-0.1c105.3,0,210.6,0,315.9,0c8.9,0,10.2,1.3,10.2,10.3C413.9,146.6,413.9,151,413.9,155.8z"/>
			<path class="st1" d="M317.9,228c-21,0-42.1,0-63.1,0c-7.3,0-8.9-1.6-8.9-8.8c0-2.2,0-4.4,0-6.7c0-6.7,1.8-8.5,8.4-8.5
				c12.9,0,25.8,0,38.7,0c29.3,0,58.7,0,88,0c7.2,0,9,1.8,9,8.8c0,2.2,0,4.4,0,6.7c0,6.6-1.9,8.5-8.4,8.5
				C360.2,228,339.1,228,317.9,228z"/>
			<path class="st1" d="M317.9,300c21,0,42.1,0,63.1,0c7.1,0,8.8,1.8,8.9,9c0,2.7,0.1,5.3,0,8c-0.2,4.8-2.3,6.9-7.2,7
				c-0.4,0-0.9,0-1.3,0c-42.4,0-84.7,0-127.1,0c-6.6,0-8.3-1.8-8.4-8.5c0-2.5,0-5,0-7.6c0.1-6,2-7.9,8-7.9c20.3,0,40.6,0,60.9,0
				C315.8,300,316.8,300,317.9,300z"/>
			<path class="st1" d="M281.9,252c9.3,0,18.7,0,28,0c5.9,0,7.9,2.1,8,8.1c0,3.1,0.1,6.2,0,9.3c-0.1,4-2.2,6.5-6.3,6.5
				c-19.8,0.1-39.7,0.1-59.5,0c-3.8,0-6-2.3-6.1-6.2c-0.1-3.6-0.1-7.1,0-10.7c0.1-4.9,2.2-7,7.1-7C262.6,251.9,272.2,252,281.9,252z
				"/>
			<path class="st1" d="M365.9,252c5.5,0,11-0.1,16.4,0c5.4,0.1,7.4,2.2,7.6,7.6c0.1,3.3,0.1,6.5,0,9.8c-0.1,4-2.2,6.5-6.3,6.6
				c-11.8,0.1-23.7,0.1-35.5,0c-3.8,0-6-2.3-6.1-6.2c-0.1-3.7-0.1-7.4,0-11.1c0.2-4.4,2.3-6.5,6.6-6.6
				C354.3,251.9,360.1,252,365.9,252z"/>
		</g>
	</g>
	<g id="V0u6Mj.tif">
		<g>
			<path class="st1" d="M157,158.9c3.3,0,6.5,0,9.8,0c7,2.8,9.6,8.1,6.6,13.4c-1.8,3.2-4.8,4.4-8.4,4.6c0,4.5,0,8.7,0,13.2
				c11.3,0,22.5,0,34,0c0,6.1,0,11.8,0,17.7c1.4,0,2.4,0,3.4,0c6,0.1,9.3,3.2,9.4,9.2c0.1,4.6,0.1,9.2,0,13.7
				c-0.1,6-3.3,9.2-9.3,9.3c-1.1,0-2.2,0-3.6,0c0,6,0,11.6,0,17.5c-24.7,0-49.1,0-74,0c0-5.8,0-11.5,0-17.2
				c-10.1-1.2-10.4-1.4-13.1-7.5c0-5.9,0-11.8,0-17.7c1.8-6.7,6.9-8.1,13.2-7.3c0-6.3,0-11.9,0-17.9c11.4,0,22.6,0,33.8,0
				c0-4.6,0-8.9,0-13.2c-6.3-0.7-10-4.5-9.5-9.6C149.7,162.6,152.8,160.2,157,158.9z M133,198.1c-0.1,1.1-0.1,1.9-0.1,2.7
				c0,15.3,0,30.5-0.1,45.8c0,2.6,0.7,3.2,3.3,3.2c17.2-0.1,34.4-0.1,51.6,0c2.6,0,3.2-0.8,3.2-3.3c-0.1-15.2,0-30.3-0.1-45.5
				c0-1-0.1-1.9-0.2-3C171.4,198.1,152.4,198.1,133,198.1z M119.9,215.9c0,4.2,0,8.2,0,12.3c0,4.4,0.1,4.4,4.6,3.5
				c0-5.2,0-10.4,0-15.8C123,215.9,121.6,215.9,119.9,215.9z M199.3,215.8c0,5.6,0,10.8,0,16c1.6,0,2.9,0,4.3,0c0-5.5,0-10.7,0-16
				C202.1,215.8,200.8,215.8,199.3,215.8z M162.1,164.9c-1.4,0-3-0.3-4.2,0.1c-1.1,0.4-2.7,1.7-2.6,2.6c0,1.1,1.3,3.1,2.2,3.2
				c2.9,0.4,5.9,0.4,8.8,0c1-0.1,2.3-2,2.3-3.2c0-0.9-1.5-2.2-2.6-2.7C164.8,164.5,163.4,164.9,162.1,164.9z"/>
			<path class="st1" d="M158.4,224.8c0,5.9-4.8,10.6-10.7,10.5c-5.8-0.1-10.4-4.7-10.4-10.5c0-5.9,4.7-10.7,10.5-10.8
				C153.6,214.1,158.4,218.9,158.4,224.8z M152.5,224.9c0.1-2.5-2-4.7-4.5-4.8c-2.5-0.1-4.7,2-4.8,4.5c-0.1,2.5,2,4.7,4.5,4.7
				C150.3,229.4,152.4,227.4,152.5,224.9z"/>
			<path class="st1" d="M186.5,224.8c-0.1,5.9-4.8,10.6-10.8,10.5c-5.8-0.1-10.4-4.7-10.4-10.6c0-5.9,4.8-10.7,10.6-10.7
				C181.8,214.1,186.5,218.9,186.5,224.8z M175.9,220.1c-2.5,0-4.6,2.2-4.6,4.7c0,2.6,2.1,4.6,4.7,4.5c2.6,0,4.7-2.1,4.6-4.7
				C180.6,222.1,178.4,220,175.9,220.1z"/>
		</g>
	</g>
</g>
</svg>
