<?xml version="1.0" encoding="utf-8"?>
<!-- Generator: Adobe Illustrator 21.0.0, SVG Export Plug-In . SVG Version: 6.00 Build 0)  -->
<svg version="1.1" id="Layer_1" xmlns="http://www.w3.org/2000/svg" xmlns:xlink="http://www.w3.org/1999/xlink" x="0px" y="0px"
	 viewBox="0 0 4343.4 4343.4" style="enable-background:new 0 0 4343.4 4343.4;" xml:space="preserve">
<style type="text/css">
	.st0{fill:#43D9AF;}
	.st1{fill:#02A0A8;}
	.st2{fill:#3FD0AC;}
	.st3{fill:#687E7B;}
	.st4{fill:#04A2A8;}
</style>
<rect class="st0" width="4342" height="4351.1"/>
<title>jotter1500px</title>
<g id="Layer_2">
	<g id="Layer_1-2">
		<circle class="st1" cx="2171.7" cy="2171.7" r="1697"/>
		<g id="POlz2g.tif">
			<g>
				<path class="st0" d="M2154.7,2354.1c137.2-114.3,175.2-267.4,256.2-410.7c52.4,74.3,31.1,136.1,8,195.8
					c-41.4,107-107.6,199-195.9,270.2c-87.9,71-120.9,161-130.8,268.4c-15.4,166.2-48,329.8-112.6,484.1
					c-32.1,76.8-68.9,177.2-174.8,155.2c-104.7-21.8-161-110.2-171.9-218c-17.9-176.3,59.8-323.9,182.4-431.8
					c129.5-114,152.8-253,169.6-406.2c24-218.9,61.5-436.1,113.7-650.2c8.9-36.5,11.4-95,61.8-91.7c53.4,3.5,60.9,60.8,64.9,105
					c17.3,191.1-40.9,374.1-64.9,560.8C2154.3,2233.5,2138.8,2280.9,2154.7,2354.1z M1791.4,3171c85-139.5,119.7-290.9,118.8-451.2
					C1786.3,2847.7,1741.5,2996.8,1791.4,3171z"/>
				<path class="st2" d="M2517.9,1744.5c79-137.5,203.9-236.4,302.5-357.4c26.3-32.2,68.9-58.4,106.4-31.1
					c47.3,34.3,8.3,73.5-15.9,102.8c-102.3,124-206,246.9-330.3,350.2C2549.9,1797,2525.2,1779.2,2517.9,1744.5z"/>
				<path class="st0" d="M2306.8,1379.1c-1.4,44.4-12.7,88.3-63.5,85.7c-70-3.6-96.6-56-99.5-120.1c-2.1-45.7,15.6-83.1,67.9-76.8
					C2274.1,1275.3,2299.8,1321.5,2306.8,1379.1z"/>
				<path class="st3" d="M2517.9,1744.5c7.3,34.7,32,52.4,62.7,64.4c-25,47.2-68.5,89.6-111.9,47.2
					C2414.8,1803.3,2488.4,1777.2,2517.9,1744.5z"/>
				<path class="st4" d="M1791.4,3171c-49.9-174.2-5.2-323.3,118.8-451.2C1911.1,2880.1,1876.5,3031.6,1791.4,3171z"/>
			</g>
		</g>
	</g>
</g>
</svg>
