<?xml version="1.0" encoding="utf-8"?>
<!-- Generator: Adobe Illustrator 21.0.0, SVG Export Plug-In . SVG Version: 6.00 Build 0)  -->
<svg version="1.1" id="Layer_1" xmlns="http://www.w3.org/2000/svg" xmlns:xlink="http://www.w3.org/1999/xlink" x="0px" y="0px"
	 viewBox="0 0 500 500" style="enable-background:new 0 0 500 500;" xml:space="preserve">
<style type="text/css">
	.st0{fill:#010100;}
	.st1{fill:none;stroke:#FFFFFF;stroke-width:6;stroke-miterlimit:10;}
	.st2{fill:none;stroke:#FFFFFF;stroke-width:6;stroke-linecap:round;stroke-miterlimit:10;}
</style>
<rect class="st0" width="500" height="500"/>
<path class="st1" d="M177.6,271.3c9-9.4,23.8-9.4,33.2-0.4c11.7,11.2,11.7,30,0.4,41.7c-14.3,14.3-37.6,14.8-52,0.4
	c-17.9-17.9-18.4-46.6-0.4-65c22.4-22.4,58.7-22.9,81.1-0.4c28.2,27.8,28.7,73.1,0.9,101.3c-34.5,35.4-91.4,35.9-126.8,0.9
	c-43.9-43.5-44.8-114.3-1.3-158.2c54.2-55.6,143-56,198.1-1.8c69,67.7,69.9,178.8,1.8,247.4"/>
<path class="st1" d="M85.3,336.3c-17.5,9-27.8,22.9-25.1,46.2c1.8,36.3,19.3,53.3,49.7,54.2H369c26.4,0,51.1-11.7,51.1-45.7V105.5
	c0.9-13.4-7.2-42.6-35.4-42.6h-34.5C330,62.9,313,79,313,101.4v89.6"/>
<circle class="st2" cx="369" cy="104.1" r="9.4"/>
<circle class="st2" cx="373" cy="103.7" r="4.9"/>
</svg>
