<?xml version="1.0" encoding="utf-8"?>
<svg viewBox="0 0 110.71 110.29" xmlns="http://www.w3.org/2000/svg">
  <defs>
    <style>
      .cls-1 {
        fill: #00aeef;
      }

      .cls-2 {
        fill: #231f20;
        stroke: #000;
        stroke-miterlimit: 10;
      }
    </style>
  </defs>
  <title>logo</title>
  <g id="Layer_2" data-name="Layer 2">
    <g id="Layer_1-2" data-name="Layer 1">
      <path class="cls-1" d="M37.43,51.95V48.59q0-5.23-2.67-8.2a9,9,0,0,0-7-3q-10.57-1.09-15-5.83T8.3,18a30.85,30.85,0,0,1,6-18h2.47q.69,5.33,9.28,6.32l9.09,1q9.58,1,12.1,5.53a17.52,17.52,0,0,1,2.52,8.39q0,4.64-3.56,15.7a38,38,0,0,0-1.28,10,15.75,15.75,0,0,0,1.58,7.31Q48.1,57.28,57,67.65a23.63,23.63,0,0,1,4.35,14q0,10.57-7.11,21H52.15L39.21,68.54h-.4l-11.75,32.2H0l6.72-31.5h15.7q5.73,0,8.49-1.83a13.67,13.67,0,0,0,4.64-5.93A22.7,22.7,0,0,0,37.43,51.95Z"/>
      <path class="cls-1" d="M96,109.87c0-4.65-2.75-6.13-9.73-6.12l-21.77,0c-20.92,0-26.21-8-26.22-24.92l0-30.64c0-15.64-2.34-15.85-12.48-16.05L28.76,9.32l68.68-.05c4.44,0,5.07-.22,6.76-1.91l6.13,1.26-4.21,18.81c-1.26,5.28-1.9,5.28-13.73,5.29L47,32.77c1.91,12,2.34,22.61,2.77,33,.43,11,5.72,13.73,18.19,13.72l26.42,0c7.82,0,11.62,1.68,10.78,9.29l-2.31,21.56Z"/>
      <path class="cls-2" d="M43.46,48.44V45.37A10.8,10.8,0,0,0,41,37.87a8.21,8.21,0,0,0-6.41-2.71q-9.66-1-13.73-5.33T16.82,17.37A28.21,28.21,0,0,1,22.33.94h2.26q.63,4.88,8.49,5.78l8.31.9q8.76.9,11.06,5.06a16,16,0,0,1,2.3,7.68q0,4.25-3.25,14.36a34.72,34.72,0,0,0-1.17,9.12,14.4,14.4,0,0,0,1.44,6.68q1.44,2.8,9.57,12.28a21.61,21.61,0,0,1,4,12.82q0,9.66-6.5,19.23h-1.9L45.08,63.61h-.36L34,93H9.23l6.14-28.81H29.73q5.24,0,7.77-1.67a12.49,12.49,0,0,0,4.24-5.42A20.76,20.76,0,0,0,43.46,48.44Z" style="fill: rgb(0, 0, 0);"/>
      <path class="cls-2" d="M97,101.39c0-4.25-2.52-5.6-8.89-5.6H68.25c-19.13,0-24-7.32-24-22.78l0-28c0-14.3-2.14-14.49-11.41-14.68L35.52,9.46l62.8,0c4.06,0,4.64-.2,6.18-1.74l5.6,1.16L106.26,26c-1.16,4.83-1.74,4.83-12.56,4.84l-41.55,0A249.77,249.77,0,0,1,54.69,61c.39,10,5.23,12.56,16.63,12.55l24.15,0c7.15,0,10.63,1.54,9.86,8.5l-2.11,19.71Z" style="fill: rgb(0, 0, 0);"/>
    </g>
  </g>
</svg>