<?xml version="1.0" encoding="utf-8"?>
<!-- Generator: Adobe Illustrator 25.0.0, SVG Export Plug-In . SVG Version: 6.00 Build 0)  -->
<svg version="1.1" id="Layer_1" xmlns="http://www.w3.org/2000/svg" xmlns:xlink="http://www.w3.org/1999/xlink" x="0px" y="0px"
	 viewBox="0 0 1080 1080" style="enable-background:new 0 0 1080 1080;" xml:space="preserve">
<style type="text/css">
	.st0{stroke:#000000;stroke-miterlimit:10;}
	.st1{fill:#FFFFFF;}
</style>
<rect class="st0" width="1080" height="1080"/>
<g>
	<path class="st1" d="M183.7,396.8H225v253.8h-41.3V396.8z M303.5,517c5.3,0.7,10.9,2.4,16.9,5.2c6,2.8,11.5,6.7,16.7,11.7
		c5.2,5.1,9.5,11.2,12.9,18.4c3.4,7.2,5.2,15.6,5.2,25c0,11.5-1.7,21.3-5.2,29.6c-3.4,8.3-7.7,15.1-12.9,20.5
		c-5.2,5.4-10.8,9.6-16.9,12.7c-6.1,3.1-11.9,5.5-17.6,7.1c-5.6,1.6-10.6,2.6-15,2.9c-4.4,0.3-7.2,0.5-8.6,0.5h-39.9v-30.3h37.5
		c12.2,0,21.7-3.9,28.6-11.7c6.9-7.8,10.3-18.2,10.3-31.3c0-12.4-3.6-22.8-10.7-31.3c-7.1-8.5-17.6-12.7-31.3-12.7h-34.4v-27.9h16.5
		c5,0,10.2-0.1,15.5-0.3c5.3-0.2,10.2-1.5,14.8-3.8c4.6-2.3,8.3-6.2,11.2-11.7c2.9-5.5,4.3-13.4,4.3-23.8c0-4.1-0.6-8.4-1.7-12.9
		c-1.2-4.5-3.4-8.5-6.9-12.2c-3.4-3.7-8.4-6.7-14.8-9c-6.4-2.3-14.9-3.4-25.5-3.4h-13.4v-31.3h17.6c10.8,0,21.2,1.3,31.3,3.8
		c10.1,2.5,19.1,6.5,26.9,12.1c7.8,5.5,14,12.7,18.6,21.5c4.6,8.8,6.9,19.3,6.9,31.5c0,7.1-1.2,13.6-3.4,19.5
		c-2.3,5.9-5.2,11-8.6,15.3c-3.4,4.4-7.4,8-11.9,10.8C312,514.2,307.7,516.1,303.5,517z"/>
	<path class="st1" d="M416.8,604.1c3.2,1.8,7.3,3.6,12.2,5.3c4.9,1.7,10,3.3,15.3,4.8c5.3,1.5,10.6,2.7,15.8,3.6
		c5.3,0.9,10.2,1.4,14.8,1.4h1V652h-0.7c-5.5,0-11.2-0.3-17-0.9c-5.9-0.6-11.8-1.5-17.7-2.9c-6-1.4-11.7-3.3-17-5.7
		c-5.4-2.4-10-5.3-13.9-8.8L416.8,604.1z M411.3,463.6c0-10.1,1.7-19.2,5.2-27.2c3.4-8,8.1-15.1,13.9-21.2
		c5.9-6.1,12.7-10.9,20.7-14.5c7.9-3.6,16.2-5.9,25-7.1v36.2c-7.3,2.5-13.4,6.9-18.2,13.3c-4.8,6.3-7.2,12.7-7.2,19.1
		c0,9,2.4,16.2,7.2,21.7c4.8,5.5,10.9,10.3,18.2,14.5v39.3c-7.6-3.7-15.2-7.6-22.7-11.9c-7.6-4.2-14.5-9.2-20.7-15
		c-6.2-5.7-11.3-12.4-15.3-20C413.3,483.3,411.3,474.2,411.3,463.6z M530.1,436.1c-1.2-0.5-2.5-1.3-4.1-2.4
		c-1.6-1.1-3.9-2.2-6.9-3.3c-3-1-6.8-1.9-11.4-2.6c-4.6-0.7-10.4-0.8-17.6-0.3v-34.8c10.1,0.2,20.4,1.3,30.8,3.3
		c10.4,2,18.9,5,25.3,9.1c-1.4,3-3,6.3-4.8,9.8c-1.8,3.6-3.6,6.9-5.2,10c-1.6,3.1-3,5.7-4.1,7.7C531,434.7,530.3,435.9,530.1,436.1z
		 M490.2,505.3c7.6,3.4,15.3,7.1,23.2,11c7.9,3.9,15.1,8.7,21.5,14.3c6.4,5.6,11.7,12.5,15.8,20.5c4.1,8,6.2,18,6.2,30
		c0,8.3-1.5,16.3-4.6,24.1c-3.1,7.8-7.5,14.9-13.1,21.2c-5.6,6.3-12.6,11.7-20.8,16c-8.3,4.4-17.7,7.2-28.2,8.6v-33.1
		c18.8-4.6,28.2-17.1,28.2-37.5c0-8-2.6-14.7-7.9-20c-5.3-5.3-12.1-10.2-20.3-14.8V505.3z"/>
	<path class="st1" d="M603.5,604.1c3.2,1.8,7.3,3.6,12.2,5.3c4.9,1.7,10,3.3,15.3,4.8c5.3,1.5,10.6,2.7,15.8,3.6
		c5.3,0.9,10.2,1.4,14.8,1.4h1V652H662c-5.5,0-11.2-0.3-17-0.9c-5.9-0.6-11.8-1.5-17.7-2.9c-6-1.4-11.7-3.3-17-5.7
		c-5.4-2.4-10-5.3-13.9-8.8L603.5,604.1z M597.9,463.6c0-10.1,1.7-19.2,5.2-27.2c3.4-8,8.1-15.1,13.9-21.2
		c5.9-6.1,12.7-10.9,20.7-14.5c7.9-3.6,16.2-5.9,25-7.1v36.2c-7.3,2.5-13.4,6.9-18.2,13.3c-4.8,6.3-7.2,12.7-7.2,19.1
		c0,9,2.4,16.2,7.2,21.7c4.8,5.5,10.9,10.3,18.2,14.5v39.3c-7.6-3.7-15.2-7.6-22.7-11.9c-7.6-4.2-14.5-9.2-20.7-15
		c-6.2-5.7-11.3-12.4-15.3-20C599.9,483.3,597.9,474.2,597.9,463.6z M716.7,436.1c-1.2-0.5-2.5-1.3-4.1-2.4
		c-1.6-1.1-3.9-2.2-6.9-3.3c-3-1-6.8-1.9-11.4-2.6c-4.6-0.7-10.4-0.8-17.6-0.3v-34.8c10.1,0.2,20.4,1.3,30.8,3.3
		c10.4,2,18.9,5,25.3,9.1c-1.4,3-3,6.3-4.8,9.8c-1.8,3.6-3.6,6.9-5.2,10c-1.6,3.1-3,5.7-4.1,7.7C717.7,434.7,717,435.9,716.7,436.1z
		 M676.8,505.3c7.6,3.4,15.3,7.1,23.2,11c7.9,3.9,15.1,8.7,21.5,14.3c6.4,5.6,11.7,12.5,15.8,20.5c4.1,8,6.2,18,6.2,30
		c0,8.3-1.5,16.3-4.6,24.1c-3.1,7.8-7.5,14.9-13.1,21.2c-5.6,6.3-12.6,11.7-20.8,16c-8.3,4.4-17.7,7.2-28.2,8.6v-33.1
		c18.8-4.6,28.2-17.1,28.2-37.5c0-8-2.6-14.7-7.9-20c-5.3-5.3-12.1-10.2-20.3-14.8V505.3z"/>
	<path class="st1" d="M829,396.8v222.4h116.7v31.3H787V396.8H829z"/>
</g>
</svg>
