<svg id="Layer_1" data-name="Layer 1" xmlns="http://www.w3.org/2000/svg" viewBox="0 0 658.13 658.13"><defs><style>.cls-1{fill:#231f20;}.cls-2{fill:#fff;}</style></defs><rect class="cls-1" width="658.13" height="658.13"/><path class="cls-2" d="M50.25,455H99c35,9.65,25.38,49.48,0,54.78h-81c-13.54-6.59-20-15.3-20.75-25.71V352.59c4.07-19.78,40.36-32.38,52.83,0" transform="translate(36.03 -99.24)"/><path class="cls-2" d="M164.9,353v90.56h14.62V353c11.57-30.71,46.32-24.47,53.13,0V461.7c0,28.62-55.27,74.23-105.3,28.62,2.49-16.75-2.67-28.16-14.87-35.58V353C123.72,325.37,156.1,324.46,164.9,353Z" transform="translate(36.03 -99.24)"/><path class="cls-2" d="M235,344.25c8.65-14.11,30.21-18,44.78,0l46.81,82.86,49-82.86c13-17.88,41.67-15.52,48.37,8.71V484.21c-2.93,34.07-48.29,31.59-52.18,0V461.14l-18.36,29.18c-11.45,27.92-42.58,19.34-50.84,0l-18.81-30.07v27.32c-7.92,28.79-51.14,29.47-52.62-4.48Z" transform="translate(36.03 -99.24)"/><path class="cls-2" d="M430.92,449.28V486c-1.27,4.16-2.68,8.1-4.25,11.87C437.18,514.63,460,511.8,471,491.82L507.73,419l36.95,74.13c21.65,28.18,59,14.59,51.51-19.49L534.38,351.19c-12-25.81-41.2-23.71-51.51-2.46Z" transform="translate(36.03 -99.24)"/></svg>