<?xml version="1.0" encoding="utf-8"?>
<svg version="1.1" id="Layer_1" x="0px" y="0px" viewBox="0 0 450.7 513.9" style="enable-background:new 0 0 450.7 513.9;" xmlns="http://www.w3.org/2000/svg">
  <style type="text/css">
	.techColor0{fill:#DDAE92;}
	.techColor1{fill:#E5B59C;}
	.techColor2{fill:none;stroke:#930000;stroke-width:2;stroke-miterlimit:10;}
	.techColor3{fill:#FF0000;}
	.techColor4{fill:#B1EDF2;}
	.techColor5{fill:#FFFFFF;}
  .techColor3{
    animation: techFlash 1s infinite;
  }
  @keyframes techFlash {
    0%   {fill: #000;}
    50%  {fill: #000;}
    50%  {fill: #F00}
    80% {fill: #F00;}
    100% {fill: #000;}
  }
</style>
  <polygon class="techColor0" points="0,293.3 171.3,358.1 214.3,384.7 441.6,358.9 "/>
  <polygon class="techColor0" points="239.3,273.7 441.6,339 441.6,358.9 194.8,353.7 0,293.3 "/>
  <path class="techColor1" d="M180.3,513.9l-0.6-160.5l38.3-0.6v10.8l156.4-9.3l3.1,0.9l7.4,0.3v-2.7h30.9v-9.6h5.2l28.8-1.5 c0.3,49.9,0.6,99.7,0.9,149.6C360.5,498.9,270.4,506.4,180.3,513.9z"/>
  <polyline class="techColor0" points="0,293.3 0,403.6 106.6,467.7 180.3,513.9 179.7,353.4 171.7,349.7 171.3,358.1 106.6,333.6 &#10;&#9;20.3,299.9 "/>
  <g>
    <line class="techColor2" x1="156.8" y1="79.1" x2="172.4" y2="76.7"/>
    <line class="techColor2" x1="154.2" y1="103.7" x2="175.4" y2="99.5"/>
    <line class="techColor2" x1="151.3" y1="127.2" x2="178.3" y2="121.6"/>
    <line class="techColor2" x1="149" y1="152.9" x2="181.4" y2="145"/>
    <line class="techColor2" x1="146.8" y1="177.5" x2="184.4" y2="168.4"/>
    <line class="techColor2" x1="144" y1="200" x2="187.6" y2="192.1"/>
    <line class="techColor2" x1="141" y1="227.8" x2="191.3" y2="216.8"/>
    <line class="techColor2" x1="138.8" y1="248.7" x2="194" y2="235.4"/>
    <line class="techColor2" x1="137.3" y1="273.7" x2="196.6" y2="260.1"/>
  </g>
  <g>
    <line class="techColor2" x1="172.4" y1="76.7" x2="158.4" y2="73.7"/>
    <line class="techColor2" x1="175.4" y1="99.5" x2="155.6" y2="98.8"/>
    <line class="techColor2" x1="178.3" y1="121.6" x2="153.5" y2="120.6"/>
    <line class="techColor2" x1="181.4" y1="145" x2="149.9" y2="144"/>
    <line class="techColor2" x1="184.6" y1="169.1" x2="147.4" y2="167.5"/>
    <line class="techColor2" x1="187.6" y1="192.1" x2="144.9" y2="191"/>
    <line class="techColor2" x1="190.9" y1="214" x2="143.4" y2="213.4"/>
    <line class="techColor2" x1="193.4" y1="235.5" x2="141.1" y2="235.9"/>
    <line class="techColor2" x1="196.6" y1="260.1" x2="137.2" y2="259.4"/>
  </g>
  <g>
    <polygon class="techColor2" points="134.2,292.3 163.9,12.6 201.1,294 &#9;"/>
    <circle class="techColor3" cx="163.5" cy="7.3" r="5.1"/>
  </g>
  <polygon class="techColor0" points="103.8,332.4 103.8,282.4 81.4,276.9 77.4,275.8 77.4,279.9 75.7,279.4 76.1,294.5 67.9,293.2 &#10;&#9;67.9,318.4 "/>
  <polygon class="techColor1" points="188.5,332.4 188.5,278.7 163.8,278.7 163.8,216.4 94.3,217.1 81.3,215 81.3,276.9 103.6,282.4 &#10;&#9;103.6,305.7 103.6,332.4 "/>
  <polygon class="techColor4" points="81.3,215 98,198.6 100.4,197.7 100.2,191.8 131.4,192.3 131.6,196.7 94.3,217.1 "/>
  <polygon class="techColor4" points="163.8,216.4 131.6,196.7 94.3,217.1 "/>
  <path class="techColor1" d="M94.3,217.1"/>
  <polygon class="techColor0" points="103.6,282.4 103.8,217.1 94.3,217.1 81.3,215 81.3,276.9 "/>
  <polygon class="techColor1" points="182.8,345.9 121.3,322.6 310.9,311.8 383.3,334.3 "/>
  <polygon class="techColor1" points="267.7,293.3 238.1,281 188.5,284.8 188.5,299.6 "/>
  <polygon class="techColor0" points="188.5,318.8 121.3,322.6 147.1,332.4 103.6,332.4 103.6,316.3 188.5,311.8 "/>
</svg>