<?xml version="1.0" encoding="utf-8"?>
<!-- Generator: Adobe Illustrator 21.0.0, SVG Export Plug-In . SVG Version: 6.00 Build 0)  -->
<svg version="1.1" id="Layer_1" xmlns="http://www.w3.org/2000/svg" xmlns:xlink="http://www.w3.org/1999/xlink" x="0px" y="0px"
	 viewBox="0 0 500 500" style="enable-background:new 0 0 500 500;" xml:space="preserve">
<style type="text/css">
	.st0{fill:#EC1945;}
	.st1{fill:#015F9B;}
	.st2{fill:#FFFFFF;}
	.st3{fill:#FDFDFD;}
	.st4{fill:#F00506;}
	.st5{fill:#080462;}
</style>
<rect x="0" y="0" class="st0" width="500" height="157.9"/>
<rect x="0" y="344.4" class="st1" width="500" height="155.6"/>
<rect x="0" y="157.9" class="st2" width="500" height="186.6"/>
<g>
	<path class="st2" d="M61.1,284.4c-7.7,7.7-14.4,14.4-21.1,21.1c-8.1,8.1-8.1,12.7,0.2,21c16,16,32.1,32,48.1,48.1
		c30.1,30,60.1,60.1,90.2,90.1c9.2,9.1,20,13.2,32.8,9.6c9.2-2.6,16.6-8.4,23.2-15.1c76.6-76.6,153.2-153.2,229.8-229.8
		c15-15,14.9-36.4,0-51.3C417.8,131.6,371.5,85.3,325.2,39c-17.1-17-37.5-17-54.5,0C219,90.7,167.2,142.5,115.5,194.2
		c-21.2,21.2-42.4,42.4-63.6,63.6c-6.8,6.8-6.8,12,0.2,18.8C54.7,279.3,57.8,281.6,61.1,284.4z"/>
	<path d="M61.1,284.4c-3.3-2.8-6.4-5.1-9.1-7.7c-6.9-6.8-6.9-12-0.2-18.8c21.2-21.2,42.4-42.4,63.6-63.6
		C167.2,142.5,218.9,90.7,270.7,39c17-17,37.4-17.1,54.5,0c46.3,46.3,92.6,92.6,138.9,138.9c14.9,14.9,15,36.4,0,51.3
		C387.6,306,310.9,382.5,234.3,459.1c-6.7,6.7-14,12.5-23.2,15.1c-12.8,3.6-23.6-0.4-32.8-9.6c-30.1-30-60.1-60.1-90.2-90.1
		c-16-16-32.1-32.1-48.1-48.1c-8.3-8.2-8.3-12.8-0.2-21C46.6,298.8,53.3,292.1,61.1,284.4z M234.3,430.3c0.9-1.3,1.7-3,3-4.3
		c69.8-69.9,139.7-139.8,209.6-209.7c9.4-9.4,9.4-15.9-0.1-25.4c-45.4-45.4-90.7-90.7-136.1-136.1c-9.6-9.6-16.1-9.5-25.8,0.2
		c-69.4,69.4-138.8,138.8-208.2,208.2c-1.2,1.2-2.4,2.6-4.3,4.6c2.6,2.3,5,4.2,7.1,6.3c47.3,47.2,94.5,94.5,141.7,141.8
		C225.4,420,229.2,424.6,234.3,430.3z M60.4,316.3c0.8,0.8,1.5,1.7,2.4,2.5c37,37,73.9,73.9,110.9,110.9
		c7.2,7.2,14.3,14.5,21.7,21.4c4.4,4.2,12.1,3.5,16.3-0.9c3.6-3.7,3-10.4-1.2-14.9c-1.1-1.2-2.3-2.4-3.5-3.6
		c-42.7-42.7-85.5-85.5-128.2-128.2c-1-1-2.2-2-3.1-2.8C70.6,306,65.7,311,60.4,316.3z"/>
	<path class="st2" d="M234.3,430.3c-5.1-5.7-8.9-10.2-13.1-14.4C174,368.5,126.7,321.3,79.5,274c-2.1-2.1-4.5-4-7.1-6.3
		c1.9-2,3.1-3.3,4.3-4.6C146.1,193.8,215.5,124.4,284.9,55c9.7-9.7,16.2-9.7,25.8-0.2c45.4,45.4,90.7,90.7,136.1,136.1
		c9.5,9.5,9.5,16,0.1,25.4C377,286.2,307.1,356.1,237.3,426C236,427.3,235.2,429,234.3,430.3z M156.4,294.8c1.4-1.1,2.6-2,3.6-3
		c54.4-54.4,108.8-108.8,163.3-163.2c2.9-2.8,2.6-4.7-0.1-7.4c-7.5-7.3-15.1-14.6-22.2-22.3c-3.5-3.7-5.7-3.5-9.2,0
		c-20.1,20.4-40.4,40.6-60.7,60.8c-33.7,33.7-67.3,67.4-101.1,101c-3,3-3.5,5-0.2,8.1c7.8,7.5,15.3,15.3,23,22.9
		C153.8,292.9,155,293.7,156.4,294.8z M359.6,226.7c3.8-0.6,7.6-0.1,9.9-1.8c8.1-6.1,12.3-14.3,10.6-24.8c-2-12.3-9.4-21.1-19-28.3
		c-12.7-9.5-27.1-9.9-40.5-1.4c-9,5.7-16.2,13.4-21.2,22.8c-13.9,25.9,1,62.2,29.1,71.4c16.3,5.3,39.8-3.2,48.8-18
		c0.9-1.4,0-3.9-0.1-5.9c-2.1,0.1-4.7-0.5-6.1,0.5c-4.7,3.4-8.6,8-13.4,11.1c-10,6.5-20.9,7.3-31.1,0.9c-14-8.7-23.5-20.9-23.7-38.1
		s9.6-28.9,23.2-37.8c6.4-4.2,13.7-5.8,21-3c12,4.6,20.2,13.3,24.5,25.4c2.3,6.4,0.2,12.3-4.8,15.7c-0.3-0.2-0.6-0.3-0.8-0.5
		c-4.9-6.1-9.9-12.1-14.8-18.2c-7.9-9.8-18-10.4-27-1.5c-14.9,14.6-6.6,43.1,14.2,49.3c8.5,2.5,18-2.7,20.4-11.3
		C359.2,230.8,359.4,228.3,359.6,226.7z M258.8,248.4c-1.5-1.9-2.6-4.5-4.1-4.8c-2.2-0.4-5.6-0.1-7.1,1.4
		c-22.2,21.8-44.1,43.8-66.1,65.8c-2.7,2.7-3.5,5.9-0.6,8.8c3.1,3.1,6.3,2.3,9.2-0.6c21.8-21.8,43.5-43.5,65.2-65.3
		C256.6,252.4,257.4,250.5,258.8,248.4z M311.7,301.1c-1.6-1.9-2.8-4.6-4.2-4.7c-2.5-0.2-5.8,0.4-7.5,2
		c-21.9,21.6-43.6,43.4-65.4,65.2c-2.9,2.9-3.8,6.1-0.7,9.1c3.1,3.1,6.3,2,9.2-0.8c21.8-21.8,43.5-43.5,65.2-65.3
		C309.6,305.1,310.3,303.2,311.7,301.1z M212.9,347.8c1.1-0.8,3.3-2,4.9-3.7c21-20.9,42-41.9,62.9-62.9c1.2-1.2,2.7-2.4,3-3.9
		c0.4-1.7,0.5-4.3-0.5-5.5c-1.2-1.4-3.7-2.7-5.4-2.5c-1.9,0.2-3.8,1.9-5.3,3.4c-21.1,21-42.2,42.1-63.3,63.2c-0.9,0.9-2,1.8-2.7,3
		C204.1,343,206.9,347.8,212.9,347.8z"/>
	<path class="st2" d="M60.4,316.3c5.3-5.3,10.1-10.3,15.2-15.5c0.9,0.8,2.1,1.8,3.1,2.8c42.7,42.7,85.5,85.5,128.2,128.2
		c1.2,1.2,2.4,2.3,3.5,3.6c4.2,4.5,4.7,11.2,1.2,14.9c-4.2,4.4-11.9,5-16.3,0.9c-7.4-7-14.5-14.2-21.7-21.4
		c-37-37-73.9-73.9-110.9-110.9C62,318,61.2,317.1,60.4,316.3z"/>
	<path d="M156.4,294.8c-1.4-1.1-2.6-1.9-3.6-3c-7.7-7.6-15.2-15.4-23-22.9c-3.3-3.1-2.8-5.1,0.2-8.1c33.8-33.6,67.4-67.3,101.1-101
		c20.3-20.3,40.6-40.4,60.7-60.8c3.5-3.6,5.7-3.8,9.2,0c7.2,7.7,14.7,15,22.2,22.3c2.7,2.6,3,4.5,0.1,7.4
		C268.8,183,214.4,237.4,160,291.8C159,292.9,157.8,293.7,156.4,294.8z"/>
	<path d="M258.8,248.4c-1.4,2.2-2.2,4-3.5,5.3c-21.7,21.8-43.5,43.5-65.2,65.3c-2.9,2.9-6.1,3.7-9.2,0.6c-2.9-2.9-2.1-6.1,0.6-8.8
		c22-22,43.9-44,66.1-65.8c1.5-1.5,4.8-1.8,7.1-1.4C256.2,243.9,257.3,246.5,258.8,248.4z"/>
	<path d="M311.7,301.1c-1.3,2.2-2.1,4.1-3.4,5.4c-21.7,21.8-43.5,43.5-65.2,65.3c-2.9,2.9-6,3.9-9.2,0.8c-3.1-3.1-2.2-6.3,0.7-9.1
		c21.8-21.8,43.5-43.6,65.4-65.2c1.6-1.6,5-2.2,7.5-2C308.9,296.4,310.1,299.2,311.7,301.1z"/>
	<path d="M212.9,347.8c-5.9,0.1-8.7-4.8-6.3-8.9c0.7-1.1,1.7-2,2.7-3c21.1-21.1,42.2-42.2,63.3-63.2c1.5-1.5,3.4-3.2,5.3-3.4
		c1.8-0.2,4.3,1,5.4,2.5c1,1.2,1,3.7,0.5,5.5c-0.4,1.4-1.9,2.7-3,3.9c-21,21-41.9,42-62.9,62.9C216.1,345.7,214,346.9,212.9,347.8z"
		/>
	<path class="st2" d="M353,220.5c-0.4,5-1.2,9.3-5.9,11.2c-4.5,1.8-7.9-0.7-10.4-3.8c-3.2-4-6.1-8.2-8.3-12.8
		c-2.3-4.7-0.6-9.6,3.2-12.4c2.9-2.2,6.2-2.5,8.6,0c4.3,4.6,8.1,9.6,12,14.6C353,218.2,352.9,219.7,353,220.5z"/>
</g>
<g id="NEuQGn_1_">
	<g>
		<path class="st3" d="M304.6,225.8c-0.8,1.6-1.9,3-3,4.3c-1.7,2-3.4,4.1-5.4,5.8c-0.1,0.1-0.3,0.3-0.3,0.5c0.1,0.3,0.4,0.4,0.6,0.4
			c1.1-0.1,2.4-0.2,3.3-0.9c2.3-1.8,4.5-3.7,6.5-5.9c0.5-0.6,1.1-1.1,1.7-1.6c-0.7,1.5-1.8,2.6-2.8,3.8c-1.2,1.5-2.3,2.9-3.7,4.3
			c-0.1,0.1-0.3,0.3-0.2,0.5c0.1,0.2,0.2,0.3,0.5,0.3c1.4-0.2,2.8-0.5,3.9-1.4c1.3-1,2.5-2.1,3.7-3.3c1.9-1.9,4-3.7,5.8-5.7
			c0.3-0.3,0.6-0.6,1.2-0.7c-0.9,1.4-1.7,2.6-2.6,3.9c-1,1.4-2.2,2.5-3.3,3.7c-0.8,0.8-1.6,1.7-2.4,2.5c-0.1,0.1-0.3,0.2-0.2,0.4
			c0.1,0.1,0.3,0.1,0.4,0c0.9-0.2,1.8-0.5,2.7-0.9c1.3-0.6,2.1-1.8,3.1-2.8c2.1-2.1,4-4.3,6.2-6.3c0.3-0.3,0.7-0.6,1.1-0.7
			c-0.3,0.8-0.7,1.5-1.2,2.2c-1.6,2.2-3.4,4.3-5.4,6.2c-0.5,0.4-1,0.9-1.4,1.3c-0.1,0.1-0.3,0.2-0.2,0.4c0.1,0.2,0.3,0.2,0.4,0.2
			c0.5,0,0.9-0.1,1.4-0.2c1.1-0.2,2.1-0.4,2.9-1.2c1.9-1.8,3.7-3.7,5.5-5.5c1.1-1.1,2.2-2.3,3.4-3.4c0.1-0.1,0.2-0.3,0.4-0.2
			c0.2,0.1,0.1,0.3,0,0.4c-0.2,0.3-0.3,0.7-0.5,1.1c-0.9,1.4-1.9,2.8-3.1,4c-1,1-2,2.1-3,3.2c-0.1,0.1-0.3,0.3-0.2,0.5
			c0.1,0.2,0.3,0.1,0.5,0c2.4-0.5,4.4-1.8,6.1-3.4c1.7-1.6,3.2-3.5,5-5.1c0.1-0.1,0.2-0.4,0.4-0.3c0.2,0.1,0.1,0.4,0,0.5
			c-0.6,1.5-1.4,3-2.4,4.3c-0.5,0.6-1.1,1-1.6,1.7c2.1-0.7,3.9-1.5,5.4-3c0.8-0.8,1.6-1.6,2.5-2.2c0.5-0.3,0.8-0.9,1.4-1.1
			c0,0.4-0.1,0.6-0.2,0.9c-0.4,0.6-0.8,1.2-1.1,1.8c-0.1,0.2-0.4,0.3-0.3,0.5c0.2,0.2,0.5,0.1,0.7,0c2-0.7,3.9-1.4,6-1.8
			c0.6-0.1,1.2,0.2,1.3,0.8c0.3,1.7,0.3,3.3,0.3,5c0,1,0.1,2,0,3c-0.1,0.9,0.1,1.8-0.1,2.7s0.1,1.3,1.1,1.3c1.2,0.1,2.5,0.1,3.7,0.1
			c1.4,0,2.7-0.2,4-0.5c0.4-0.1,0.5-0.3,0.3-0.7c-0.6-1.4-0.8-2.8-1.3-4.2c-0.3-0.6-0.4-1.3-0.6-2s-0.6-1.4-0.7-2.1
			c-0.1-1-0.9-1.2-1.7-1.3c-0.2,0-0.3,0-0.5-0.1c-2-0.8-3.8-2.1-5.5-3.5c-1.9-1.4-3.4-3.2-5.2-4.8c-1.5-1.4-2.8-2.9-4.3-4.3
			c-0.4-0.4-0.5-0.7-0.2-1.2c0.6-1,1.2-2,1.8-3.1c0.8-1.3,1.6-2.7,2.5-4c0.6-0.9,1.2-1.8,1.7-2.8c0.3-0.7,0.8-1.1,1.5-1.4
			c0.2-0.1,0.4-0.1,0.5-0.2c1.4-1.2,3-2.1,4.5-3.2c1.4-0.9,2.7-1.9,4.1-2.8c0.5-0.3,0.8-0.3,1.2,0c1.1,0.9,2.1,1.8,3.1,2.8
			c2.1,2.2,4.7,4.1,6.7,6.5c1.6,1.9,3.3,3.8,4,6.3c0.1,0.3,0.2,0.7,0.7,0.8c2.7,0.5,5.3,1.4,8,2c1.3,0.3,1.3,0.3,1.5-0.9
			c0.5-2.5,0.3-5-0.3-7.4c-0.1-0.3-0.2-0.4-0.5-0.4c-1.2-0.2-2.5,0-3.7,0.1c-2.2,0.1-4.5,0.3-6.7,0.3c-1.4,0-1.7-0.3-1.6-1.2
			c0.1-1.5,0.5-3,0.9-4.5c0.2-0.8,0.7-1.6,0.7-2.5c-1.2,0.4-1.9,1.7-3.4,2c0.9-1.2,1.6-2.2,2.4-3.1c0.8-0.9,1.6-1.9,2.2-3
			c0.5-1.1,0.9-2.2,1.1-3.4c-1.5,1.7-3.1,3.2-5.3,4c-0.2,0.1-0.5,0.4-0.8,0.1c-0.2-0.3,0.2-0.5,0.3-0.7c1.9-2.3,4.3-4.3,5.9-6.9
			c0.9-1.4,1.3-2.8,1.7-4.4c0-0.1,0-0.3-0.1-0.4c-0.2-0.2-0.3,0.1-0.4,0.2c-0.6,0.6-1.2,1.2-1.7,1.8c-1.2,1.3-2.4,2.5-3.7,3.7
			c-0.8,0.7-1.6,1.3-2.8,1.6c0.3-0.7,0.8-1,1.1-1.4c2.2-2.6,4.6-5,6.8-7.6c1.3-1.5,1.6-3.2,1.7-5.1c0-0.1,0-0.3-0.1-0.4
			c-0.2-0.1-0.3,0.1-0.4,0.2c-0.4,0.4-0.9,0.9-1.2,1.3c-1.3,1.9-3.1,3.2-4.7,4.8c-0.7,0.8-1.7,1.3-2.6,2c-0.2,0.1-0.4,0.3-0.8,0.2
			c0.6-0.9,1.3-1.7,2-2.5c2.1-2.2,4-4.5,6.1-6.6c1.2-1.2,1.5-2.8,1.9-4.3c0-0.1,0-0.3-0.1-0.4c-0.2-0.1-0.2,0.1-0.3,0.2
			c-0.3,0.2-0.5,0.6-0.8,0.8c-1.7,1.8-3.3,3.8-5.3,5.3c-1,0.8-2,1.7-3.2,2.3c0-0.3,0.2-0.4,0.3-0.6c0.9-1,1.7-2,2.6-3
			c1.5-1.8,3-3.7,4.6-5.5c0.8-0.9,1.7-1.8,2-3c0.2-0.9,0.6-1.8,0.5-2.8c0-0.2-0.1-0.4-0.3-0.5c-0.2-0.1-0.3,0.1-0.4,0.2
			c-1.4,1.4-2.9,2.9-4.3,4.3c-0.8,0.8-1.7,1.6-2.8,2.3c0.1-0.4,0.3-0.5,0.5-0.7c0.7-0.8,1.4-1.6,2.1-2.4c1.1-1.3,2.1-2.8,3.2-4.1
			c0.9-1.1,1.3-2.5,1.2-3.9c0-0.3,0-0.7-0.3-0.8s-0.5,0.3-0.7,0.5c0,0,0,0-0.1,0.1c-2.6,2.8-5.2,5.5-8.2,7.8c-0.3,0.2-0.5,0.5-1,0.6
			c1.6-1.8,3.2-3.7,4.8-5.4c1.3-1.4,2.6-2.8,3.7-4.4c0.3-0.5,0.8-0.9,0.8-1.6c-0.1-0.9,0.2-1.9-0.3-2.8c-0.1-0.1,0.1-0.4-0.1-0.4
			s-0.4,0.1-0.5,0.3c-0.8,1.1-1.8,2-2.7,3c-1.6,1.9-3.4,3.7-5,5.5c-1.1,1.2-2.3,2.3-3.3,3.6c-2.6,3.2-5.7,6-8.2,9.3
			c-1,1.3-2,2.6-2.4,4.2c-0.7,2.6-1,5.3-1,8.1c0,2.9,0.5,5.7,0.3,8.6c-0.1,1.4-0.6,1.9-1.9,1.5s-2.5-1-3.6-1.8
			c-1.6-1.2-3.2-2.6-5-3.6c-0.3-0.2-0.9-0.4-0.7-0.9c0.1-0.6-0.1-1.1,0.1-1.6c0-0.1,0.1-0.3-0.1-0.4c-0.2-0.1-0.3,0.1-0.4,0.2
			c-0.4,0.4-0.7,0.9-1.2,1.1c-2.3,0.8-4,2.3-4.9,4.5c-0.4,0.8-0.5,1.7,0.2,2.5c0.3,0.4,0.3,0.8-0.1,1.2s-0.9,0.8-1.3,1.2
			c-0.8,0.7-0.7,2.1,0.2,2.6c0.4,0.2,0.9,0.5,1.5,0.4c-0.9-1.3-0.9-1.5-0.2-2.2c0.9-0.9,1.8-1.9,2.8-2.8c0.6-0.5,0.7-1.1,0.7-1.8
			c0-0.2-0.1-0.3-0.2-0.4c-0.2-0.1-0.3,0.1-0.4,0.2c-0.4,0.6-0.9,1.1-1.3,1.6c-0.2,0.2-0.5,0.4-0.8,0.3c-0.3-0.2-0.3-0.6-0.2-0.9
			c0.1-0.3,0.3-0.5,0.4-0.7c0.7-0.8,1.6-1.4,2.3-2.3c1.1-1.3,1.3-0.8,2.4-0.4c0.2,0.1,0.3,0.3,0.4,0.4c1.3,1,2.5,2,3.8,3
			c1.2,0.9,2.4,1.7,3.6,2.6c0.4,0.3,0.7,0.9,0.3,1.2c-0.4,0.3-0.6,0.7-0.9,1.1c-0.4,0.4-0.9,0.7-1.2,1.1c-0.7,1.2-2,1.7-2.8,2.6
			c-0.2,0.2-0.4,0.1-0.5-0.2c-0.4-1.4-1.1-2.7-1.7-4.1c-0.3-0.8-0.8-1.4-1.4-1.9c-0.2-0.2-0.4-0.2-0.6-0.2c-0.7,0.1-1.3,0.4-1.7,0.8
			c-0.7,0.6-1.3,1.3-2.1,1.8c-0.1,0.1-0.3,0.2-0.3,0.4c0.1,0.2,0.2,0.1,0.4,0.2c0.9,0.2,1.5-0.2,2.1-0.7c0.9-0.7,2-0.7,2.4,0.2
			c0.3,0.7,0.7,1.4,0.8,2.1c0.3,1.4,0.7,2.7,0.2,4.2c-0.2,0.6-0.6,0.9-1.2,1c-3,0.2-6.1,0-9.1,0.1c-0.6,0-1.2,0-1.8,0.2
			c-0.8,0.2-1.6,0.4-2.4,0.5c-2.1,0.2-4.2,0.8-5.8,2.1c-2.7,2-5,4.5-7.3,6.9c-2,2-3.9,4-5.8,6.1c-2.1,2.2-4.2,4.5-6.4,6.7
			c-0.9,0.9-1.8,1.9-2.7,2.7c-0.2,0.2-0.6,0.6-0.1,0.7c1.4,0.3,2.9,0.5,4.1-0.5c1.4-1.1,2.7-2.4,4-3.6
			C300.6,229.9,302.5,227.9,304.6,225.8z M298.7,215c-2.4,2.3-3.8,5.1-5.2,7.8c-0.7,1.5-1.2,3-1.7,4.6s-0.6,3.2-0.4,4.8
			c0.1,0.7,0.3,0.8,0.8,0.3c1-0.8,2-1.7,2.8-2.6c0.1-0.2,0.2-0.3,0.3-0.5c0.1-1.1,0.4-2.1,0.6-3.2c0.6-2.6,1.7-5,3.4-7
			c2.4-2.9,5.2-5.4,8.5-7.4c2.5-1.5,5.2-2.6,8.2-2.7c0.5,0,0.6-0.3,0.4-0.8c-0.9-1.6-2.3-2.9-3.3-4.5c-0.5-0.7-1.2-1.3-1.6-2
			c-1.1-1.9-2.2-3.8-3-5.8c-0.8-1.9-1.6-3.7-2.3-5.6c-0.7-2-1.6-3.9-2.3-5.8c-0.7-1.8-1.2-3.7-1.7-5.5c-0.5-1.7-0.8-3.4-1.4-5
			c-0.7-2.1-1.3-4.1-1.8-6.2c-0.2-0.7,0-0.9,0.7-0.7c1.5,0.3,3,0.6,4.5,1c2.4,0.6,4.7,1.1,7.1,1.9c1.9,0.6,3.8,1.1,5.7,1.5
			c2.6,0.6,5.1,1.5,7.6,2.3c2.1,0.7,4.3,1.5,6.3,2.4c2.3,1,4.4,2.4,6.5,3.9c1.1,0.8,2.2,1.5,3.3,2.2c0.1,0.1,0.3,0.1,0.5,0.2
			c0.4,0.1,0.6-0.1,0.6-0.5c0-0.9,0-1.7,0.1-2.6c0.2-1.7,0.8-3.2,1.4-4.7c0.8-1.9,2-3.6,3.2-5.3c1.6-2.1,3.2-4.1,5.4-5.6
			c2.1-1.4,4.3-2.4,6.8-3c0.8-0.2,1.7-0.2,2.3-0.9c0.7-0.9,1.5-1.8,2.1-2.7c0.3-0.5,0.2-0.7-0.3-0.7c-1.1-0.1-2.2-0.1-3.3,0.2
			c-1.8,0.5-3.4,1.1-5.1,1.9c-1.7,0.9-3.4,1.9-4.9,3c-1.6,1.2-3.1,2.6-4.3,4.2c-1.1,1.4-2.2,2.8-3,4.4c-1,1.9-2,3.9-2.7,6
			c-0.1,0.5-0.3,1.1-0.8,1.3c-0.4,0.2-0.5-0.6-0.8-0.8c-0.1,0-0.1-0.1-0.2-0.1c-1.4-1-3-1.9-4.6-2.7c-2.2-1-4.4-1.9-6.6-2.7
			c-1.5-0.6-3.1-1.1-4.7-1.6c-0.9-0.3-1.8-0.6-2.7-0.7c-2.7-0.4-5.3-1.3-7.9-2c-2.2-0.6-4.4-1.3-6.5-2c-2.4-0.7-4.8-1.4-7.2-2.1
			c-1.3-0.4-2.5-0.8-3.8-1.1c-0.4-0.1-0.5,0-0.4,0.5s0.4,1.1,0.5,1.6c0.7,2,1.4,3.9,2,5.9c0.4,1.3,0.9,2.5,1.3,3.8
			c0.7,2.1,1.2,4.3,2,6.3c1.3,2.9,2.1,6,3,9.1c0.5,1.4,0.9,2.9,1.5,4.2c1.1,2.7,2.2,5.4,3.7,8c1,1.7,2,3.4,3.4,4.8
			c0.8,0.8,0.8,0.8-0.2,1.3c-0.3,0.2-0.5,0.4-0.8,0.5c-2,0.8-3.8,1.9-5.6,3C302.1,211.8,300.1,213.3,298.7,215z M348.1,214.1
			L348.1,214.1c1.8-2,3.7-3.9,5.5-5.8c0.8-0.8,1.6-1.6,2.4-2.5c0.1-0.1,0.4-0.3,0.2-0.5c-0.8-0.7-1.4-1.5-2.1-2.2
			c-0.9-0.8-1.8-1.5-2.6-2.3c-0.4-0.4-0.8-0.4-1.1-0.1c-0.7,0.8-1.7,1.3-2.5,2c-1.5,1.1-3,2.2-4.6,3.2c-0.7,0.4-1.5,0.7-1.9,1.5
			c-0.6,1.3-1.4,2.5-2.1,3.7c-1.1,1.7-2.2,3.4-3.4,5.1c-0.4,0.5-0.4,0.9,0.2,1.3c0.5,0.3,0.9,0.8,1.3,1.2c0.9,1.1,2,2,3,2.9
			c0.4,0.4,0.6,0.2,0.9-0.1C343.5,219,345.8,216.5,348.1,214.1z M380.8,221C380.8,221,380.7,221,380.8,221c-0.1,0-0.1,0.1-0.1,0.1
			c-1.1,1.3-2.2,1.9-4,1c-1.1-0.6-1.3-0.6-1.1-1.7c0.1-0.6-0.3-0.7-0.6-0.8c-1.8-0.6-3.6-1.4-5.4-2c-1.1-0.4-2.2-1.1-3.3-1.4
			c-0.7-0.2-0.7-0.1-0.6,0.6c0.4,1.8,0.6,3.5,0.5,5.3c-0.1,0.8,0.2,1.5,1,1.8c1.8,0.8,3.6,1.6,5.5,2.3c0.7,0.2,1.1,0,1.3-0.7
			c0.1-0.6,0.4-1.1,0.6-1.6s0.4-0.8,1-0.7s1.4,0.1,1.7,0.7c0.2,0.4,0,0.7-0.2,1.1c-0.4,0.6-1,1.1-1.3,1.8c-0.3,0.8,0.3,2.2,1.1,2.4
			c0.2,0.1,0.4,0,0.6-0.2c0.1-0.2,0-0.3-0.1-0.4c-0.7-0.6-0.7-1.1-0.1-1.8c1.1-1.2,2.3-2.5,3.4-3.7c1-1.1,2-2.2,2.9-3.3
			c0.4-0.5,0.6-0.6,1,0c0.1,0.1,0.1,0.2,0.2,0.3c0.3,0.4,0.6,0.3,0.7-0.1c0.2-0.5-0.1-1.5-0.7-1.8c-0.7-0.4-1.3-0.3-1.8,0.3
			C382.2,219.3,381.5,220.2,380.8,221z M365.2,241.8c0.3-0.5,0.1-0.8-0.2-1c-1.1-0.8-1.9-0.9-3,0.3c-0.4,0.4-0.9,1-1.6,0.8
			s-0.7-1-0.9-1.6c0,0,0,0,0-0.1c0-0.4,0.1-0.7,0.5-0.9c0.6-0.2,1-0.6,1.6-0.7c0.4-0.1,1-0.4,0.7-0.9c-0.2-0.6-0.4-1.2-0.7-1.7
			c-0.8-1.3-1.1-2.8-1.8-4.1c-0.3-0.5-0.5-1.2-1.3-1.1c-2,0.4-4,0.4-6,0c-0.2-0.1-0.6-0.2-0.7,0.1c-0.1,0.2,0.1,0.5,0.2,0.7
			c0.8,1.1,1.2,2.4,1.8,3.6c0.8,1.6,1.4,3.3,2,4.9c0.2,0.4,0.3,0.6,0.8,0.4c0.9-0.2,1.4,0,1.7,0.7c0.2,0.6,0.4,1.1,0.6,1.7
			c0.2,0.6,0,1.2-0.4,1.6c-1,1.2-2.1,2.3-3.2,3.3c-0.5,0.5-0.8,1-0.7,1.7c0.1,0.5,1.1,1,1.7,1c0.3,0,0.7-0.1,0.8-0.4
			c0.1-0.4-0.3-0.4-0.6-0.5c-0.6-0.3-0.7-0.5-0.2-1c0.4-0.4,0.9-0.8,1.3-1.2c1.8-1.8,3.5-3.6,5.3-5.4
			C363.8,241,364.3,241,365.2,241.8z M303,171.2c2.2,2.2,4.1,4.5,6.1,6.6c1.7,1.7,3.4,3.6,5,5.4c1.9,2.1,3.9,4,5.7,6.2
			c1.5,1.8,3.3,3.3,4.8,5.1c0.3,0.4,0.6,0.4,0.9,0.1c0.7-0.7,1.3-1.4,2-2.1c0.4-0.4,0.3-0.7,0-1c-0.2-0.2-0.4-0.3-0.5-0.5
			c-1.5-1.2-3-2.4-4.5-3.6c-1.2-1-2.3-2.1-3.5-3c-2.4-1.8-4.6-3.8-6.9-5.7c-2.4-1.9-4.6-4-7-5.9C304.5,172.2,304,171.5,303,171.2z
			 M313.4,250.2c0.2-1.1,0.3-2.2,0.5-3.3c0.1-1.2,0.2-1.3,1.4-1.5c1.1-0.2,2.1-0.4,3.1-0.6c0.2,0,0.4,0,0.4-0.2
			c0-0.1-0.1-0.2-0.2-0.3c-1-0.4-2.1-0.9-3.1-1.2c-0.6-0.2-1-0.4-0.9-1.2c0.1-0.9,0.2-1.9,0.3-2.8c0-0.2,0.1-0.4-0.1-0.5
			s-0.3,0.1-0.5,0.2c-0.6,0.7-1.3,1.3-1.9,2c-0.4,0.5-1,0.6-1.4,0.3c-0.6-0.4-1.4-0.5-2-0.8c-0.2-0.1-0.3-0.2-0.5,0s-0.1,0.4,0,0.5
			c0.3,0.5,0.5,1.1,0.9,1.7c0.4,0.5,0.4,1-0.1,1.6c-0.6,0.7-1.3,1.4-1.9,2.1c-0.1,0.1-0.4,0.2-0.3,0.5c0.1,0.2,0.4,0.1,0.5,0.1
			c0.9-0.1,1.8-0.3,2.6-0.4c0.8-0.1,1.1,0.2,1.5,1C312.1,248.2,312.6,249.3,313.4,250.2z M371.5,173.1c0.4,0.8,0.7,1.6,1.1,2.3
			c0.4,0.5,0.2,0.9-0.1,1.3c-0.6,0.7-1.3,1.4-2,2.1c-0.1,0.2-0.4,0.3-0.3,0.5c0.1,0.3,0.4,0.1,0.7,0.1c0.9-0.1,1.7-0.3,2.6-0.4
			c0.4,0,0.8-0.1,1,0.4c0.6,1.1,1.2,2.2,1.7,3.3c0.1,0.1,0.1,0.4,0.3,0.4c0.3,0,0.2-0.3,0.2-0.5c0.1-1.2,0.3-2.3,0.4-3.5
			c0-0.5,0.2-0.8,0.8-0.9c1.2-0.2,2.5-0.5,3.7-0.7c0.1,0,0.3,0,0.3-0.2c0-0.1-0.1-0.2-0.2-0.2c-1.1-0.5-2.1-1-3.2-1.3
			c-0.5-0.2-0.7-0.5-0.7-1c0.1-1,0.1-2,0.2-3c0-0.2,0-0.4-0.1-0.5c-0.2-0.1-0.4,0.1-0.5,0.2c-0.5,0.6-1.2,1.1-1.6,1.8
			c-0.5,0.7-1,0.8-1.7,0.5C373.1,173.5,372.4,173,371.5,173.1z M357.4,221L357.4,221c-1.8-1.7-3.7-3.4-5.5-5.2
			c-1.3-1.2-1.2-1.3-2.4,0.1c-0.4,0.4-0.3,0.7,0.1,1c1.3,1.1,2.4,2.2,3.6,3.4c2.7,2.6,5.4,5.1,8.1,7.7c0.2,0.2,0.5,0.5,0.8,0.7
			c0.3,0.3,1.7,0.1,1.7-0.3c0.1-0.6,0.3-1.2-0.3-1.7C361.5,224.8,359.5,222.9,357.4,221z M367.6,232.1c1.2-1.3,2.1-2.6,3.1-3.9
			c0.3-0.5,0.3-0.7-0.3-0.8c-0.5-0.1-0.8-0.4-1.2-0.6c-0.9-0.4-1.8-1-2.8-1.2c-0.2,0-0.5-0.2-0.5,0.2c0.1,0.8-0.3,1.6-0.4,2.4
			c-0.1,0.8-0.5,1.4-1.3,1.6c-0.5,0.1-1,0.3-1.6,0.4c-1.5,0.3-1.5,0.3-0.9,1.6c0,0.1,0.1,0.2,0.2,0.3c0.6,0.9,1,1.9,1.4,2.8
			c0.2,0.6,0.5,0.6,0.8,0.3C365.2,234,366.7,233.2,367.6,232.1z M352.4,213c-0.9,0.8-0.9,0.8,0,1.6c0.1,0.1,0.2,0.2,0.4,0.4
			c2.5,2.3,5,4.7,7.4,7c1.2,1.1,2.5,2.1,3.5,3.3c0.1,0.1,0.3,0.4,0.5,0.1c0.4-0.6,0.2-2.5-0.4-3c-1.1-1-2.2-2.1-3.3-3.1
			c-2.2-2.1-4.4-4.2-6.6-6.4C353.3,212.2,353.3,212.2,352.4,213z M356.5,228.2L356.5,228.2c0.2,0.2,0.5,0.4,0.7,0.7
			c0.5,0.6,1.2,0.8,2,0.7c0.2-0.1,0.5-0.1,0.7-0.1s0.6,0,0.7-0.2c0.1-0.3-0.2-0.4-0.4-0.6c-2.8-2.6-5.6-5.2-8.3-7.9
			c-1-1-2.2-1.9-3.1-3.1c-0.2-0.2-0.4-0.3-0.6-0.1c-0.4,0.4-0.8,0.8-1.1,1.2c-0.2,0.2-0.1,0.5,0.2,0.7
			C350.4,222.3,353.4,225.2,356.5,228.2z M355.5,229.8c-0.1-0.5-0.4-0.7-0.6-0.9c-2.2-2.1-4.4-4.1-6.6-6.2c-0.7-0.7-1.5-1.4-2.1-2.2
			c-0.2-0.3-0.5-0.3-0.7-0.1c-0.4,0.4-0.8,0.7-1.1,1.1c-0.3,0.3-0.4,0.6,0,1c2.2,1.9,4.4,3.9,6.4,6
			C352.1,230,353.8,229.6,355.5,229.8z M359.1,215.6c1.9,1.8,3.3,3.1,4.7,4.4c0.1,0.1,0.3,0.4,0.5,0.2c0.2-0.1,0-0.3,0-0.5
			c-0.1-0.6-0.1-1.2-0.3-1.7c-0.2-0.6,0-1.2-0.5-1.7c-2.2-1.9-4.2-3.9-6.3-5.8c-1.2-1.2-1.2-1.1-2.4-0.1c-0.6,0.5-0.4,0.8,0,1.1
			C356.5,212.9,357.9,214.6,359.1,215.6z M362.8,214.2c-1-2.3-2.1-4.3-3.9-5.9c-0.3-0.3-0.4-0.8-0.9-0.9c-0.5-0.1-0.6,0.6-1,0.7
			c-0.7,0.3-0.4,0.6,0,1c1.6,1.5,3.3,2.8,4.8,4.5C362,213.9,362.3,214.1,362.8,214.2z M344.5,223.8c-0.1-0.1-0.2-0.2-0.3-0.3
			c-0.9-0.9-0.9-0.9-1.8,0.1c-0.2,0.3-0.2,0.5,0,0.7c0.8,0.8,1.7,1.5,2.6,2.2c1,0.7,2.2,1.2,3.3,1.7c0.2,0.1,0.3,0.3,0.5,0.1
			c0.1-0.2-0.1-0.3-0.2-0.4C347.3,226.6,345.9,225.2,344.5,223.8z"/>
		<path class="st4" d="M391.2,255.1c-0.8,0-1.7,0.1-2.5,0.1c-1.4,0-2.7-0.2-4-0.4c-1.2-0.2-2.4-0.4-3.7-0.6
			c-2.3-0.3-4.5-0.9-6.7-1.7c-0.9-0.3-1.8-0.5-2.6-0.8c-0.4-0.1-0.6,0-0.7,0.4c-0.7,2.2-2,4.1-3.6,5.7c-1.9,1.8-4,3.2-6.5,4.1
			c-2.2,0.8-4.5,1.3-6.9,1.2c-2.9-0.1-5.6-0.9-8.1-2.6c-1.6-1-3.1-2.1-4.4-3.4c-1.9-1.9-3.5-4.1-5.1-6.3c-0.4-0.6-0.8-1.1-1.1-1.7
			c-0.1-0.2-0.4-0.3-0.2-0.5c0.2-0.2,0.4,0,0.5,0.1c0.8,0.6,1.7,1.1,2.7,1.5c1.9,0.8,3.8,1.4,5.9,1c2.5-0.4,4.3-1.8,5.5-4.1
			c0.7-1.4,1.4-2.8,1.6-4.4c0-0.2,0.2-0.4,0.5-0.3c0.7,0.1,1.4,0,2.2,0c0.5,0,0.8,0.4,0.6,0.9c-0.4,1.4-0.8,2.9-1.5,4.2
			c-1.7,3.3-4.1,5.7-7.8,6.5c-0.8,0.2-1.6,0.4-2.4,0c-0.1-0.1-0.3-0.1-0.5,0.1c-0.1,0.2,0.1,0.3,0.2,0.4c0.4,0.5,0.9,1,1.4,1.5
			c1.3,1.1,2.8,2,4.5,2.7c1.8,0.7,3.6,1.2,5.5,1.4c3.8,0.4,7-0.7,9.9-3.2c1.4-1.2,2.4-2.6,3.3-4.1s1.4-3.1,1.4-4.8
			c0-0.4,0-0.5,0.5-0.4c1.3,0.4,2.4,1.2,3.9,1.2c0.1,0,0.1,0,0.2,0c3.9,1.7,8.2,2.1,12.3,3c0.7,0.1,1.4,0,2.1,0c0.5,0,1-0.6,0.9-1.1
			c-0.2-1.4-0.3-2.8-0.7-4.1c-0.5-1.8-1-3.6-1.6-5.4c-0.7-1.8-1.3-3.7-2-5.5c-0.3-0.9-0.7-1.8-1-2.7c-0.1-0.4-0.2-0.7,0.4-0.8
			c1.8-0.3,3.5-1,5-2c2.2-1.5,3.9-3.5,5-5.9c1.2-2.6,1.3-5.3,0.7-8.1c-0.4-2-1.2-3.9-2.2-5.7c-0.9-1.7-2.1-3.4-3.8-4.4
			c-0.1-0.1-0.3-0.2-0.4-0.1c-0.1,0.1-0.1,0.2,0,0.3c0.6,0.9,0.2,2,0.1,2.9c-0.3,1.9-1.2,3.5-2.4,4.9c-1.5,1.6-3.2,2.8-5.3,3.6
			c-0.7,0.3-1.4,0.6-2.2,0.8c-0.5,0.2-0.9,0.1-0.8-0.6c0-0.6,0-1.3-0.1-2c0-0.4,0.1-0.6,0.5-0.7c1.7-0.4,3.3-1.3,4.7-2.3
			c2.4-1.6,3.5-5,2.7-7.8c-0.3-1.2-0.8-2.3-1.3-3.4c-0.4-0.8-0.9-1.5-1.3-2.2c-0.1-0.1-0.3-0.3-0.1-0.4c0.2-0.2,0.4-0.1,0.5,0
			c0.9,0.6,2,1,2.9,1.7c0.5,0.4,1.1,0.6,1.6,1c3.3,2.4,6.3,5.1,8.3,8.7c1.8,3.2,2.4,6.6,2,10.2c-0.2,2-0.7,3.9-1.5,5.6
			c-0.9,2.1-2.3,3.9-3.9,5.5c-1.2,1.1-2.5,2-4,2.5c-0.6,0.2-0.8,0.7-0.5,1.3c0.6,1.3,1,2.7,1.4,4c0.9,2.8,1.8,5.6,2.4,8.6
			c0.3,1.5,0.6,3.1,0.7,4.6c0,0.6-0.2,1.1,0,1.7C391.7,254.6,391.4,254.9,391.2,255.1z"/>
		<path class="st4" d="M381.3,165.3c0,0.5,0.3,0.8,0.6,1.1c2.3,2.6,3.9,5.5,4.7,9c0.8,3.2,1,6.4,0.9,9.6c-0.1,2.9-0.6,5.8-1.3,8.7
			c0,0.2-0.1,0.4-0.3,0.4c-0.2,0-0.2-0.1-0.3-0.3c-1.2-1.6-2.9-2.6-4.6-3.6c-2.4-1.4-4.9-1.9-7.6-1.8c-1.2,0.1-2.4,0.3-3.6,0.7
			c-0.2,0.1-0.4,0.3-0.7,0c-0.2-0.2-0.1-0.4,0-0.6c0.6-2.3,1.5-2.9,4.2-3.4c2.2-0.4,4.4,0,6.4,1c1.1,0.5,2.3,1,3.3,1.6
			c0.5,0.3,0.8,0,0.9-0.5c0.3-0.9,0.4-1.9,0.4-2.9c0-1.8-0.2-3.6-0.6-5.3c-0.5-2.1-1-4.3-2.1-6.2c-0.3-0.6-0.7-1.2-1-1.9
			c-1.5-2.9-3.7-5-6.3-6.9c-1-0.7-2-1.5-3.2-2.1c-0.5-0.2-0.8-0.7-0.9-1.3c-0.1-0.9-0.3-1.9-0.7-2.7c-0.2-0.4-0.1-0.7,0.5-0.5
			c1,0.3,1.9,0.9,2.8,1.4c1.3,0.7,2.6,1.5,3.7,2.5c0.2,0.2,0.4,0.3,0.6,0.3C378.6,162.8,380,164.1,381.3,165.3z"/>
		<path class="st4" d="M298.4,247.8c0-0.3-0.3-0.4-0.5-0.6c-1.8-1.7-3.2-3.7-4.5-5.8c-0.3-0.5-0.6-1-0.9-1.6
			c-0.2-0.4-0.1-0.7,0.4-0.6c1.1,0.2,2.3,0.4,3.4,0.6c0.6,0.1,0.9,0.7,1.1,1.2c0.6,1.5,1.8,2.4,2.7,3.6c1.2,1.6,2.8,2.8,4.5,3.9
			c1.1,0.7,2.3,1.3,3.6,1.8c2.5,1,5,1.6,7.7,1.9c2.3,0.3,4.5,0.3,6.8-0.2c1.1-0.3,1.4-0.5,0.7-1.6c-1-1.6-1.8-3.2-2.3-5
			c-0.6-2-0.6-4-0.1-6c0.4-1.6,1.5-2.3,2.9-2.8c0.5-0.2,0.7,0,0.5,0.5c-0.4,1.5-0.5,3-0.5,4.5c0.1,1.9,0.4,3.7,1.3,5.5
			c1.1,2.3,2.6,4.3,4.6,5.9c0.5,0.4,0.5,0.6-0.1,0.8c-2.1,0.7-4.2,1.2-6.3,1.6c-2.7,0.5-5.5,0.7-8.2,0.5c-1.9-0.1-3.9-0.4-5.8-1
			c-1.6-0.5-3.1-1.1-4.5-1.9c-1.6-1-3.2-2-4.5-3.4c-0.1-0.1-0.2-0.3-0.4-0.2C299.4,248.7,298.9,248.2,298.4,247.8z"/>
		<path class="st5" d="M304.6,225.8c-2.1,2.1-4.1,4.1-6.1,6c-1.3,1.2-2.6,2.5-4,3.6c-1.2,1-2.7,0.8-4.1,0.5
			c-0.5-0.1-0.1-0.6,0.1-0.7c1-0.8,1.8-1.8,2.7-2.7c2.2-2.2,4.3-4.4,6.4-6.7c1.9-2,3.8-4.1,5.8-6.1c2.4-2.4,4.7-4.8,7.3-6.9
			c1.7-1.3,3.7-2,5.8-2.1c0.8-0.1,1.6-0.3,2.4-0.5c0.6-0.1,1.2-0.1,1.8-0.2c3-0.1,6.1,0.1,9.1-0.1c0.6,0,1-0.3,1.2-1
			c0.5-1.4,0.1-2.8-0.2-4.2c-0.2-0.7-0.5-1.4-0.8-2.1c-0.4-0.9-1.6-1-2.4-0.2c-0.6,0.5-1.2,0.9-2.1,0.7c-0.1,0-0.3,0-0.4-0.2
			s0.1-0.3,0.3-0.4c0.8-0.5,1.4-1.2,2.1-1.8c0.5-0.4,1.1-0.7,1.7-0.8c0.2,0,0.4,0,0.6,0.2c0.6,0.5,1.1,1.2,1.4,1.9
			c0.5,1.4,1.3,2.7,1.7,4.1c0.1,0.3,0.4,0.3,0.5,0.2c0.9-1,2.1-1.5,2.8-2.6c0.3-0.4,0.8-0.7,1.2-1.1c0.3-0.3,0.5-0.7,0.9-1.1
			c0.4-0.3,0.1-0.9-0.3-1.2c-1.2-0.9-2.4-1.7-3.6-2.6c-1.3-1-2.5-2-3.8-3c-0.2-0.1-0.3-0.3-0.4-0.4c-1.2-0.5-1.4-0.9-2.4,0.4
			c-0.7,0.8-1.6,1.4-2.3,2.3c-0.2,0.2-0.4,0.4-0.4,0.7c-0.1,0.3-0.1,0.7,0.2,0.9c0.3,0.2,0.6,0,0.8-0.3c0.5-0.5,1-1,1.3-1.6
			c0.1-0.1,0.2-0.3,0.4-0.2c0.2,0.1,0.2,0.2,0.2,0.4c0,0.7-0.1,1.3-0.7,1.8c-1,0.9-1.9,1.9-2.8,2.8c-0.8,0.8-0.8,1,0.2,2.2
			c-0.6,0.1-1.1-0.2-1.5-0.4c-0.9-0.5-1-1.9-0.2-2.6c0.5-0.4,0.9-0.8,1.3-1.2s0.4-0.7,0.1-1.2c-0.6-0.8-0.5-1.7-0.2-2.5
			c1-2.2,2.6-3.8,4.9-4.5c0.6-0.2,0.9-0.7,1.2-1.1c0.1-0.1,0.2-0.3,0.4-0.2c0.1,0.1,0.1,0.3,0.1,0.4c-0.2,0.5,0.1,1.1-0.1,1.6
			c-0.1,0.5,0.4,0.7,0.7,0.9c1.8,1,3.3,2.4,5,3.6c1.1,0.8,2.3,1.4,3.6,1.8c1.3,0.4,1.8-0.1,1.9-1.5c0.1-2.9-0.3-5.8-0.3-8.6
			c0-2.7,0.3-5.4,1-8.1c0.4-1.6,1.4-2.9,2.4-4.2c2.5-3.3,5.6-6.1,8.2-9.3c1-1.3,2.3-2.4,3.3-3.6c1.7-1.9,3.4-3.6,5-5.5
			c0.9-1,2-1.9,2.7-3c0.1-0.2,0.2-0.3,0.5-0.3c0.3,0.1,0.1,0.3,0.1,0.4c0.4,0.9,0.2,1.9,0.3,2.8c0,0.6-0.5,1.1-0.8,1.6
			c-1.1,1.6-2.4,3-3.7,4.4c-1.6,1.8-3.2,3.6-4.8,5.4c0.5,0,0.7-0.4,1-0.6c3-2.3,5.7-5,8.2-7.8c0,0,0,0,0.1-0.1
			c0.2-0.2,0.4-0.6,0.7-0.5c0.3,0.1,0.3,0.6,0.3,0.8c0.1,1.4-0.3,2.8-1.2,3.9c-1.1,1.4-2.1,2.8-3.2,4.1c-0.7,0.8-1.3,1.7-2.1,2.4
			c-0.2,0.2-0.4,0.3-0.5,0.7c1-0.8,2-1.5,2.8-2.3c1.4-1.4,2.9-2.9,4.3-4.3c0.1-0.1,0.2-0.3,0.4-0.2c0.2,0.1,0.3,0.3,0.3,0.5
			c0.1,1-0.2,1.9-0.5,2.8c-0.3,1.2-1.1,2.1-2,3c-1.6,1.8-3.1,3.6-4.6,5.5c-0.8,1-1.7,2-2.6,3c-0.1,0.1-0.3,0.2-0.3,0.6
			c1.2-0.6,2.1-1.6,3.2-2.3c2-1.5,3.6-3.5,5.3-5.3c0.3-0.3,0.5-0.6,0.8-0.8c0.1-0.1,0.1-0.3,0.3-0.2c0.1,0.1,0.2,0.2,0.1,0.4
			c-0.4,1.5-0.7,3.1-1.9,4.3c-2.1,2.2-4,4.4-6.1,6.6c-0.7,0.7-1.4,1.5-2,2.5c0.3,0.1,0.5,0,0.8-0.2c0.9-0.6,1.9-1.2,2.6-2
			c1.5-1.6,3.4-3,4.7-4.8c0.3-0.5,0.8-0.9,1.2-1.3c0.1-0.1,0.2-0.3,0.4-0.2c0.1,0.1,0.2,0.2,0.1,0.4c-0.1,1.8-0.3,3.6-1.7,5.1
			c-2.2,2.6-4.6,5-6.8,7.6c-0.4,0.4-0.8,0.8-1.1,1.4c1.2-0.2,2.1-0.9,2.8-1.6c1.3-1.2,2.5-2.4,3.7-3.7c0.6-0.6,1.1-1.3,1.7-1.8
			c0.1-0.1,0.2-0.3,0.4-0.2c0.1,0.1,0.1,0.3,0.1,0.4c-0.3,1.5-0.8,3-1.7,4.4c-1.6,2.6-4,4.6-5.9,6.9c-0.2,0.2-0.5,0.4-0.3,0.7
			c0.2,0.4,0.5,0,0.8-0.1c2.1-0.8,3.7-2.4,5.3-4c-0.1,1.2-0.6,2.3-1.1,3.4c-0.5,1.1-1.4,2.1-2.2,3c-0.8,0.9-1.5,1.9-2.4,3.1
			c1.5-0.3,2.2-1.6,3.4-2c0,0.9-0.4,1.7-0.7,2.5c-0.4,1.5-0.8,3-0.9,4.5c-0.1,0.9,0.2,1.2,1.6,1.2c2.2,0,4.5-0.1,6.7-0.3
			c1.2-0.1,2.5-0.3,3.7-0.1c0.3,0.1,0.4,0.1,0.5,0.4c0.6,2.4,0.8,4.9,0.3,7.4c-0.3,1.2-0.2,1.2-1.5,0.9c-2.7-0.5-5.3-1.4-8-2
			c-0.5-0.1-0.6-0.4-0.7-0.8c-0.7-2.5-2.3-4.4-4-6.3c-2-2.4-4.5-4.2-6.7-6.5c-1-1-2-1.9-3.1-2.8c-0.4-0.4-0.7-0.3-1.2,0
			c-1.4,0.9-2.7,1.8-4.1,2.8c-1.5,1-3.1,2-4.5,3.2c-0.2,0.1-0.3,0.2-0.5,0.2c-0.7,0.3-1.2,0.7-1.5,1.4c-0.4,1-1.1,1.9-1.7,2.8
			c-0.9,1.3-1.7,2.7-2.5,4c-0.6,1-1.2,2-1.8,3.1c-0.3,0.6-0.2,0.9,0.2,1.2c1.5,1.3,2.8,2.9,4.3,4.3c1.7,1.6,3.3,3.4,5.2,4.8
			c1.7,1.3,3.5,2.6,5.5,3.5c0.2,0.1,0.3,0.1,0.5,0.1c0.8,0.1,1.6,0.3,1.7,1.3c0.1,0.7,0.5,1.4,0.7,2.1c0.2,0.7,0.4,1.3,0.6,2
			c0.5,1.4,0.7,2.9,1.3,4.2c0.2,0.4,0.1,0.6-0.3,0.7c-1.3,0.4-2.6,0.5-4,0.5c-1.2,0-2.5,0-3.7-0.1c-0.9,0-1.3-0.4-1.1-1.3
			c0.2-0.9,0-1.8,0.1-2.7c0.1-1,0-2,0-3c0-1.7,0-3.3-0.3-5c-0.1-0.7-0.6-0.9-1.3-0.8c-2.1,0.3-4.1,1-6,1.8c-0.2,0.1-0.5,0.3-0.7,0
			c-0.1-0.2,0.1-0.4,0.3-0.5c0.4-0.6,0.8-1.2,1.1-1.8c0.2-0.2,0.3-0.5,0.2-0.9c-0.6,0.2-0.9,0.8-1.4,1.1c-0.9,0.7-1.7,1.4-2.5,2.2
			c-1.5,1.5-3.3,2.3-5.4,3c0.5-0.8,1.1-1.2,1.6-1.7c1-1.3,1.8-2.7,2.4-4.3c0.1-0.2,0.2-0.4,0-0.5c-0.3-0.2-0.3,0.2-0.4,0.3
			c-1.8,1.5-3.3,3.4-5,5.1c-1.7,1.7-3.7,2.9-6.1,3.4c-0.2,0-0.4,0.2-0.5,0s0.1-0.3,0.2-0.5c1-1.1,2-2.1,3-3.2c1.2-1.2,2.2-2.5,3.1-4
			c0.2-0.3,0.3-0.7,0.5-1.1c0.1-0.2,0.2-0.3,0-0.4c-0.2-0.1-0.3,0.1-0.4,0.2c-1.1,1.1-2.2,2.3-3.4,3.4c-1.8,1.8-3.6,3.7-5.5,5.5
			c-0.8,0.8-1.8,1-2.9,1.2c-0.4,0.1-0.9,0.1-1.4,0.2c-0.2,0-0.4,0-0.4-0.2c-0.1-0.2,0.1-0.3,0.2-0.4c0.5-0.4,1-0.9,1.4-1.3
			c2-1.9,3.7-4,5.4-6.2c0.5-0.7,0.8-1.4,1.2-2.2c-0.5,0.1-0.8,0.4-1.1,0.7c-2.1,2-4.1,4.2-6.2,6.3c-1,1-1.8,2.2-3.1,2.8
			c-0.9,0.4-1.7,0.7-2.7,0.9c-0.1,0-0.3,0.1-0.4,0c-0.1-0.2,0.1-0.3,0.2-0.4c0.8-0.8,1.6-1.6,2.4-2.5c1.1-1.2,2.4-2.3,3.3-3.7
			c0.9-1.2,1.7-2.5,2.6-3.9c-0.6,0.1-0.9,0.4-1.2,0.7c-1.8,2.1-3.9,3.8-5.8,5.7c-1.2,1.2-2.4,2.3-3.7,3.3c-1.1,0.9-2.5,1.1-3.9,1.4
			c-0.2,0-0.4-0.1-0.5-0.3s0.1-0.4,0.2-0.5c1.3-1.3,2.5-2.8,3.7-4.3c1-1.2,2.2-2.3,2.8-3.8c-0.6,0.5-1.2,1-1.7,1.6
			c-1.9,2.2-4.2,4.1-6.5,5.9c-0.9,0.7-2.1,0.8-3.3,0.9c-0.2,0-0.5-0.1-0.6-0.4c-0.1-0.2,0.1-0.4,0.3-0.5c2-1.8,3.7-3.8,5.4-5.8
			C302.7,228.8,303.8,227.5,304.6,225.8z"/>
		<path class="st4" d="M298.7,215c1.5-1.8,3.4-3.2,5.4-4.5c1.8-1.2,3.6-2.2,5.6-3c0.3-0.1,0.5-0.3,0.8-0.5c0.9-0.5,0.9-0.5,0.2-1.3
			c-1.4-1.4-2.4-3.1-3.4-4.8c-1.5-2.5-2.5-5.3-3.7-8c-0.6-1.4-1-2.8-1.5-4.2c-1-3-1.8-6.1-3-9.1c-0.9-2-1.4-4.2-2-6.3
			c-0.4-1.3-0.8-2.5-1.3-3.8c-0.7-2-1.4-3.9-2-5.9c-0.2-0.5-0.4-1-0.5-1.6c-0.1-0.5,0-0.6,0.4-0.5c1.3,0.4,2.5,0.8,3.8,1.1
			c2.4,0.7,4.8,1.4,7.2,2.1c2.2,0.6,4.3,1.3,6.5,2c2.6,0.7,5.2,1.6,7.9,2c0.9,0.1,1.8,0.4,2.7,0.7c1.6,0.5,3.1,1,4.7,1.6
			c2.2,0.9,4.5,1.7,6.6,2.7c1.6,0.7,3.1,1.7,4.6,2.7c0.1,0,0.1,0.1,0.2,0.1c0.3,0.2,0.4,0.9,0.8,0.8c0.5-0.2,0.6-0.8,0.8-1.3
			c0.7-2.1,1.7-4.1,2.7-6c0.8-1.6,1.9-3,3-4.4c1.3-1.6,2.7-3,4.3-4.2c1.6-1.1,3.2-2.1,4.9-3c1.6-0.8,3.3-1.4,5.1-1.9
			c1.1-0.3,2.2-0.3,3.3-0.2c0.5,0,0.6,0.3,0.3,0.7c-0.7,0.9-1.4,1.8-2.1,2.7c-0.6,0.8-1.5,0.7-2.3,0.9c-2.4,0.6-4.7,1.6-6.8,3
			c-2.2,1.5-3.9,3.5-5.4,5.6c-1.2,1.7-2.4,3.3-3.2,5.3c-0.6,1.5-1.2,3.1-1.4,4.7c-0.1,0.9-0.2,1.7-0.1,2.6c0,0.4-0.2,0.6-0.6,0.5
			c-0.2,0-0.3-0.1-0.5-0.2c-1.1-0.7-2.2-1.5-3.3-2.2c-2.1-1.5-4.1-2.9-6.5-3.9c-2.1-0.9-4.2-1.7-6.3-2.4c-2.5-0.8-5-1.7-7.6-2.3
			c-1.9-0.5-3.9-1-5.7-1.5c-2.3-0.7-4.7-1.2-7.1-1.9c-1.5-0.4-3-0.7-4.5-1c-0.8-0.2-0.9-0.1-0.7,0.7c0.5,2.1,1.1,4.2,1.8,6.2
			c0.6,1.7,0.9,3.3,1.4,5c0.5,1.9,1.1,3.7,1.7,5.5c0.7,2,1.6,3.9,2.3,5.8c0.7,1.9,1.5,3.8,2.3,5.6c0.9,2,1.9,3.9,3,5.8
			c0.4,0.8,1.2,1.3,1.6,2c1,1.6,2.4,2.9,3.3,4.5c0.2,0.4,0.1,0.8-0.4,0.8c-3,0.1-5.7,1.1-8.2,2.7c-3.2,2-6.1,4.5-8.5,7.4
			c-1.7,2-2.8,4.4-3.4,7c-0.2,1.1-0.5,2.1-0.6,3.2c0,0.2-0.1,0.4-0.3,0.5c-0.9,1-1.8,1.8-2.8,2.6c-0.5,0.4-0.8,0.3-0.8-0.3
			c-0.2-1.6-0.1-3.2,0.4-4.8s0.9-3.1,1.7-4.6C294.9,220.1,296.3,217.3,298.7,215z"/>
		<path class="st5" d="M348.1,214.1c-2.3,2.5-4.7,4.9-7,7.4c-0.3,0.3-0.5,0.4-0.9,0.1c-1-0.9-2.1-1.8-3-2.9
			c-0.4-0.5-0.8-0.9-1.3-1.2c-0.6-0.4-0.6-0.8-0.2-1.3c1.3-1.6,2.3-3.4,3.4-5.1c0.8-1.2,1.5-2.4,2.1-3.7c0.4-0.8,1.2-1.1,1.9-1.5
			c1.6-1,3.1-2.1,4.6-3.2c0.9-0.6,1.8-1.2,2.5-2c0.4-0.4,0.7-0.3,1.1,0.1c0.8,0.8,1.7,1.5,2.6,2.3c0.8,0.7,1.4,1.5,2.1,2.2
			c0.2,0.2-0.1,0.4-0.2,0.5c-0.8,0.8-1.6,1.6-2.4,2.5C351.8,210.2,350,212.1,348.1,214.1L348.1,214.1z M340.5,213.4
			c-0.4-0.7-0.8-0.1-1.2-0.2c-0.3,0-0.3,0.2-0.3,0.5c0,0.2,0,0.4-0.2,0.6c-0.1,0.1-0.1,0.3,0,0.3c0.4,0,0.6,0.5,0.9,0.5
			c0.6,0.1,0.4-0.8,1.1-0.8c0.1,0,0.2-0.2,0.1-0.4C340.8,213.7,340.6,213.5,340.5,213.4z M342,217.1c0.5,0.1,0.9,0.1,1.2,0.5
			c0.2,0.1,0.4-0.7,0.9-0.9c0.4-0.1,0.4-0.3,0.1-0.5c-0.1-0.1-0.3-0.1-0.3-0.3s-0.2-0.6-0.4-0.4c-0.3,0.3-1,0-1.1,0.6
			C342.4,216.5,342.3,216.8,342,217.1z M349,210c-0.3-0.2-0.5,0.3-0.8,0.1c-0.3-0.1-0.6,0-0.5,0.4c0,0.2,0,0.3-0.1,0.4
			c-0.2,0.2-0.2,0.4,0.1,0.5c0.2,0.1,0.4,0.2,0.5,0.3s0.3,0.3,0.3,0.1c0.2-0.5,0.6-0.6,1-0.9c0.1-0.1,0.1-0.2,0-0.2
			C349.2,210.7,349.1,210.3,349,210z M341.3,211.7c1,0.9,0.9-0.7,1.5-0.4c0.4-0.7-0.5-0.7-0.7-1.1c-0.1-0.4-0.9,0.1-1,0.3
			C340.7,210.9,340.6,211.5,341.3,211.7z M345.6,207.6c0.1,0.2,0.5,0.3,0.5,0.1c-0.1-0.6,1.6-0.8,0.3-1.6c-0.2-0.1,0-0.7-0.5-0.4
			c-0.3,0.2-0.8,0.1-0.8,0.3c0,0.4-0.7,0.9,0.2,1.2C345.4,207.3,345.5,207.5,345.6,207.6z M343.4,209.3c0.2-0.2,0-0.6,0.4-0.8
			c0.2-0.1,0.6-0.2,0.4-0.4c-0.4-0.2-0.3-1-0.8-0.9c-0.3,0.1-0.9,0.1-0.9,0.2c0.1,0.5-0.7,1.3,0.4,1.5c0.1,0,0.2,0.2,0.3,0.3
			C343.2,209.4,343.3,209.4,343.4,209.3z M337.7,217.7c0.2,0.3,0.3,0.3,1.1-0.4c0.6-0.6-0.3-0.7-0.5-1.1c-0.2-0.5-1-0.1-1,0
			C337.1,216.7,336.8,217.4,337.7,217.7z M346.1,214.6c0.6-0.6,0.7-1.7,0.3-1.9c-0.3-0.1-1,0.1-1.1,0.4c-0.2,0.3-0.7,0.8-0.3,1.1
			C345.2,214.4,345.7,214.8,346.1,214.6z M340.2,220.1c0.3,0.3,0.7,0.2,1.2-0.5c0.4-0.5-0.6-0.6-0.5-1.2c-0.4-0.1-1,0.1-1,0.3
			C339.7,219.2,339.2,219.9,340.2,220.1z M349,203.9c-0.1,0-0.1-0.1-0.1-0.1c-0.3,0.2-0.8,0.2-1,0.4s-0.4,0.7-0.3,0.9
			c0.2,0.4,0.7,0.6,1.1,0.9c0,0,0.1-0.1,0.2-0.1c0.1-0.4,0.4-0.6,0.7-0.8c0.1,0,0.2-0.2,0.1-0.3C349.3,204.6,348.9,204.4,349,203.9z
			 M351.6,208.7c0-0.3,0.6-0.3,0.4-0.7c-0.2-0.2-0.3-0.5-0.5-0.7c-0.3-0.3-0.7,0.2-1,0.2c0.1,0.4-0.6,0.8-0.3,1.1
			c0.2,0.2,0.6,0.4,1,0.5C351.3,209.1,351.5,208.8,351.6,208.7z M354.5,205.7c0.2-0.2,0.1-0.9-0.3-1.2c-0.3-0.2-0.8,0.1-1.2,0.2
			c0.1,0.4-0.6,0.8-0.3,1.1c0.2,0.2,0.6,0.5,1,0.5C354.1,206.4,354.2,205.8,354.5,205.7z M350,203.5c0.5,0,0.8,0.1,1,0.4
			c0.1,0.1,0.2,0.2,0.4,0.1c0.7-0.4,0.8-1,0.3-1.6c-0.2-0.3-0.4-0.2-0.7-0.2c-0.3,0.1-0.6,0.1-0.6,0.5
			C350.4,203,350.2,203.1,350,203.5z"/>
		<path class="st5" d="M380.8,221c0.7-0.9,1.5-1.7,2.2-2.6c0.5-0.6,1.1-0.7,1.8-0.3c0.6,0.3,0.9,1.3,0.7,1.8
			c-0.2,0.4-0.4,0.5-0.7,0.1c-0.1-0.1-0.1-0.2-0.2-0.3c-0.4-0.6-0.6-0.5-1,0c-0.9,1.1-1.9,2.2-2.9,3.3c-1.1,1.3-2.3,2.5-3.4,3.7
			c-0.6,0.7-0.6,1.1,0.1,1.8c0.1,0.1,0.2,0.2,0.1,0.4s-0.3,0.3-0.6,0.2c-0.8-0.2-1.4-1.6-1.1-2.4c0.3-0.7,0.9-1.1,1.3-1.8
			c0.2-0.3,0.4-0.7,0.2-1.1c-0.4-0.6-1.1-0.6-1.7-0.7c-0.5-0.1-0.8,0.3-1,0.7c-0.2,0.5-0.5,1-0.6,1.6c-0.2,0.7-0.6,0.9-1.3,0.7
			c-1.9-0.6-3.7-1.4-5.5-2.3c-0.8-0.4-1.1-1-1-1.8c0.2-1.8-0.1-3.6-0.5-5.3c-0.1-0.7-0.1-0.8,0.6-0.6c1.2,0.3,2.2,1,3.3,1.4
			c1.8,0.6,3.6,1.4,5.4,2c0.4,0.1,0.7,0.2,0.6,0.8c-0.2,1.2,0,1.2,1.1,1.7c1.7,0.9,2.9,0.3,4-1C380.7,221.1,380.7,221,380.8,221
			C380.7,221,380.8,221,380.8,221z"/>
		<path class="st5" d="M365.2,241.8c-0.9-0.8-1.4-0.7-2.2,0.1c-1.8,1.8-3.5,3.6-5.3,5.4c-0.4,0.4-0.9,0.8-1.3,1.2
			c-0.5,0.5-0.4,0.7,0.2,1c0.2,0.1,0.6,0.2,0.6,0.5c-0.1,0.3-0.4,0.4-0.8,0.4c-0.7,0-1.6-0.5-1.7-1c-0.1-0.7,0.1-1.2,0.7-1.7
			c1.2-1,2.2-2.2,3.2-3.3c0.4-0.5,0.5-1,0.4-1.6s-0.4-1.1-0.6-1.7c-0.2-0.7-0.8-0.9-1.7-0.7c-0.5,0.1-0.7-0.1-0.8-0.4
			c-0.7-1.6-1.3-3.3-2-4.9c-0.6-1.2-1-2.5-1.8-3.6c-0.1-0.2-0.3-0.5-0.2-0.7c0.1-0.3,0.4-0.1,0.7-0.1c2,0.4,4,0.5,6,0
			c0.9-0.2,1,0.5,1.3,1.1c0.7,1.3,1.1,2.8,1.8,4.1c0.3,0.5,0.4,1.1,0.7,1.7c0.2,0.5-0.4,0.8-0.7,0.9c-0.6,0.1-1.1,0.5-1.6,0.7
			c-0.4,0.1-0.5,0.5-0.5,0.9c0,0,0,0,0,0.1c0.2,0.6,0.2,1.4,0.9,1.6c0.7,0.2,1.1-0.4,1.6-0.8c1.2-1.2,2-1.1,3-0.3
			C365.3,241,365.5,241.3,365.2,241.8z"/>
		<path class="st4" d="M303,171.2c1,0.2,1.5,0.9,2.1,1.4c2.4,1.9,4.6,4,7,5.9c2.3,1.9,4.5,3.9,6.9,5.7c1.2,0.9,2.3,2,3.5,3
			c1.5,1.2,3,2.4,4.5,3.6c0.2,0.2,0.4,0.3,0.5,0.5c0.4,0.3,0.4,0.6,0,1c-0.7,0.7-1.3,1.4-2,2.1c-0.3,0.4-0.6,0.3-0.9-0.1
			c-1.5-1.8-3.3-3.3-4.8-5.1c-1.8-2.1-3.8-4.1-5.7-6.2c-1.7-1.8-3.3-3.6-5-5.4C307,175.7,305.2,173.4,303,171.2z"/>
		<path class="st4" d="M313.4,250.2c-0.8-0.9-1.3-1.9-1.7-3c-0.3-0.8-0.6-1.1-1.5-1s-1.8,0.3-2.6,0.4c-0.2,0-0.4,0.2-0.5-0.1
			c-0.1-0.2,0.1-0.3,0.3-0.5c0.7-0.7,1.3-1.4,1.9-2.1c0.5-0.6,0.5-1.1,0.1-1.6s-0.6-1.1-0.9-1.7c-0.1-0.2-0.2-0.3,0-0.5
			c0.2-0.1,0.3-0.1,0.5,0c0.6,0.4,1.4,0.4,2,0.8c0.4,0.3,1,0.2,1.4-0.3c0.6-0.7,1.2-1.4,1.9-2c0.1-0.1,0.2-0.4,0.5-0.2
			c0.2,0.1,0.1,0.3,0.1,0.5c-0.1,0.9-0.1,1.9-0.3,2.8c-0.1,0.8,0.3,1,0.9,1.2c1,0.4,2.1,0.8,3.1,1.2c0.1,0,0.2,0.1,0.2,0.3
			s-0.2,0.2-0.4,0.2c-1,0.2-2.1,0.4-3.1,0.6c-1.1,0.2-1.2,0.3-1.4,1.5C313.7,247.9,313.5,249.1,313.4,250.2z"/>
		<path class="st4" d="M371.5,173.1c1-0.1,1.7,0.4,2.4,0.7c0.8,0.3,1.2,0.2,1.7-0.5c0.5-0.6,1.1-1.2,1.6-1.8
			c0.1-0.1,0.3-0.3,0.5-0.2s0.2,0.3,0.1,0.5c-0.1,1-0.1,2-0.2,3c0,0.5,0.2,0.8,0.7,1c1.1,0.4,2.1,0.9,3.2,1.3c0.1,0,0.2,0.1,0.2,0.2
			c0,0.2-0.2,0.2-0.3,0.2c-1.2,0.2-2.5,0.5-3.7,0.7c-0.5,0.1-0.7,0.4-0.8,0.9c-0.1,1.2-0.3,2.3-0.4,3.5c0,0.2,0,0.4-0.2,0.5
			c-0.2,0-0.2-0.2-0.3-0.4c-0.5-1.2-1.1-2.2-1.7-3.3c-0.2-0.4-0.6-0.4-1-0.4c-0.9,0.1-1.7,0.3-2.6,0.4c-0.2,0-0.5,0.2-0.7-0.1
			c-0.1-0.2,0.2-0.4,0.3-0.5c0.6-0.7,1.3-1.4,2-2.1c0.4-0.4,0.5-0.7,0.1-1.3C372.1,174.7,371.8,173.9,371.5,173.1z"/>
		<path class="st4" d="M357.4,221c2,1.9,4,3.8,6.1,5.7c0.6,0.6,0.4,1.1,0.3,1.7c0,0.3-1.4,0.5-1.7,0.3c-0.3-0.2-0.5-0.5-0.8-0.7
			c-2.7-2.6-5.4-5.1-8.1-7.7c-1.2-1.1-2.3-2.3-3.6-3.4c-0.4-0.3-0.4-0.6-0.1-1c1.2-1.4,1.1-1.3,2.4-0.1
			C353.8,217.6,355.6,219.3,357.4,221L357.4,221z"/>
		<path class="st5" d="M367.6,232.1c-0.9,1.1-2.3,1.9-3.4,3.1c-0.3,0.3-0.6,0.4-0.8-0.3c-0.4-1-0.8-1.9-1.4-2.8
			c-0.1-0.1-0.1-0.2-0.2-0.3c-0.6-1.4-0.6-1.4,0.9-1.6c0.5-0.1,1-0.2,1.6-0.4c0.9-0.2,1.3-0.8,1.3-1.6c0.1-0.8,0.4-1.6,0.4-2.4
			c0-0.4,0.3-0.2,0.5-0.2c1,0.2,1.9,0.8,2.8,1.2c0.4,0.2,0.8,0.5,1.2,0.6c0.6,0.1,0.7,0.4,0.3,0.8
			C369.7,229.5,368.8,230.8,367.6,232.1z"/>
		<path class="st4" d="M352.4,213c0.8-0.8,0.8-0.8,1.5-0.1c2.1,2.2,4.4,4.3,6.6,6.4c1.1,1,2.2,2.1,3.3,3.1c0.6,0.5,0.8,2.4,0.4,3
			c-0.2,0.3-0.4,0-0.5-0.1c-1-1.2-2.4-2.2-3.5-3.3c-2.5-2.3-4.9-4.7-7.4-7c-0.1-0.1-0.2-0.2-0.4-0.4
			C351.5,213.8,351.5,213.8,352.4,213z"/>
		<path class="st4" d="M356.5,228.2c-3.1-2.9-6.2-5.8-9.3-8.7c-0.2-0.2-0.3-0.5-0.2-0.7c0.3-0.4,0.7-0.9,1.1-1.2
			c0.2-0.2,0.5-0.1,0.6,0.1c0.9,1.2,2,2.1,3.1,3.1c2.7,2.7,5.5,5.3,8.3,7.9c0.2,0.2,0.5,0.3,0.4,0.6s-0.4,0.2-0.7,0.2
			c-0.2,0-0.5,0.1-0.7,0.1c-0.8,0.2-1.5,0-2-0.7C357,228.6,356.7,228.4,356.5,228.2L356.5,228.2z"/>
		<path class="st4" d="M355.5,229.8c-1.7-0.2-3.3,0.2-4.7-1.3c-2-2.1-4.2-4.1-6.4-6c-0.4-0.4-0.4-0.7,0-1c0.4-0.4,0.7-0.8,1.1-1.1
			c0.2-0.2,0.5-0.3,0.7,0.1c0.6,0.8,1.3,1.5,2.1,2.2c2.2,2.1,4.4,4.1,6.6,6.2C355.1,229.1,355.4,229.3,355.5,229.8z"/>
		<path class="st4" d="M359.1,215.6c-1.2-1-2.6-2.7-4.4-4c-0.4-0.3-0.6-0.6,0-1.1c1.3-1,1.2-1.1,2.4,0.1c2.1,2,4.1,4,6.3,5.8
			c0.5,0.5,0.4,1.1,0.5,1.7c0.2,0.5,0.2,1.1,0.3,1.7c0,0.2,0.2,0.4,0,0.5c-0.2,0.2-0.3-0.1-0.5-0.2
			C362.4,218.7,361,217.4,359.1,215.6z"/>
		<path class="st4" d="M362.8,214.2c-0.5-0.1-0.8-0.3-1-0.6c-1.4-1.7-3.2-3-4.8-4.5c-0.4-0.4-0.7-0.6,0-1c0.4-0.2,0.5-0.8,1-0.7
			s0.6,0.6,0.9,0.9C360.7,209.9,361.8,212,362.8,214.2z"/>
		<path class="st4" d="M344.5,223.8c1.3,1.4,2.7,2.8,4.1,4.1c0.1,0.1,0.3,0.2,0.2,0.4c-0.2,0.2-0.3,0-0.5-0.1
			c-1.1-0.5-2.3-1-3.3-1.7c-1-0.6-1.8-1.3-2.6-2.2c-0.2-0.3-0.3-0.4,0-0.7c0.8-1,0.8-1,1.8-0.1C344.3,223.6,344.4,223.7,344.5,223.8
			z"/>
		<path class="st3" d="M340.5,213.4c0.1,0.1,0.3,0.3,0.4,0.5c0.1,0.1,0,0.4-0.1,0.4c-0.6,0-0.5,0.9-1.1,0.8c-0.3,0-0.5-0.5-0.9-0.5
			c-0.1,0-0.1-0.2,0-0.3c0.2-0.2,0.2-0.4,0.2-0.6c0-0.2,0-0.5,0.3-0.5C339.7,213.3,340.1,212.7,340.5,213.4z"/>
		<path class="st3" d="M342,217.1c0.3-0.3,0.4-0.6,0.5-1.1s0.8-0.2,1.1-0.6c0.1-0.1,0.3,0.2,0.4,0.4c0,0.2,0.2,0.2,0.3,0.3
			c0.3,0.2,0.3,0.4-0.1,0.5c-0.5,0.1-0.7,1-0.9,0.9C342.8,217.3,342.5,217.2,342,217.1z"/>
		<path class="st3" d="M349,210c0.1,0.3,0.2,0.6,0.6,0.8c0.1,0,0.1,0.2,0,0.2c-0.4,0.2-0.8,0.4-1,0.9c-0.1,0.1-0.3,0-0.3-0.1
			c-0.1-0.2-0.3-0.3-0.5-0.3c-0.4-0.1-0.4-0.3-0.1-0.5c0.1-0.1,0.2-0.2,0.1-0.4c-0.1-0.4,0.1-0.6,0.5-0.4
			C348.5,210.3,348.7,209.8,349,210z"/>
		<path class="st3" d="M341.3,211.7c-0.6-0.2-0.6-0.8-0.2-1.3c0.2-0.2,0.9-0.6,1-0.3c0.2,0.4,1,0.5,0.7,1.1
			C342.2,211,342.3,212.7,341.3,211.7z"/>
		<path class="st3" d="M345.6,207.6c-0.1-0.1-0.2-0.3-0.3-0.4c-0.9-0.3-0.2-0.8-0.2-1.2c0-0.3,0.5-0.1,0.8-0.3
			c0.5-0.3,0.3,0.3,0.5,0.4c1.3,0.8-0.4,1-0.3,1.6C346.1,207.9,345.8,207.9,345.6,207.6z"/>
		<path class="st3" d="M343.4,209.3c-0.1,0.1-0.2,0-0.3,0c-0.1-0.1-0.2-0.3-0.3-0.3c-1.1-0.2-0.3-1-0.4-1.5c0-0.2,0.6-0.2,0.9-0.2
			c0.5-0.1,0.4,0.6,0.8,0.9c0.2,0.1-0.2,0.3-0.4,0.4C343.4,208.7,343.6,209.1,343.4,209.3z"/>
		<path class="st3" d="M337.7,217.7c-0.9-0.3-0.6-0.9-0.3-1.5c0,0,0.8-0.5,1,0c0.1,0.4,1.1,0.5,0.5,1.1
			C337.9,218,337.9,217.9,337.7,217.7z"/>
		<path class="st3" d="M346.1,214.6c-0.4,0.2-0.8-0.2-1.1-0.4c-0.4-0.3,0.1-0.8,0.3-1.1c0.1-0.3,0.8-0.5,1.1-0.4
			C346.8,213,346.7,214,346.1,214.6z"/>
		<path class="st3" d="M340.2,220.1c-1-0.2-0.5-0.9-0.3-1.4c0.1-0.2,0.6-0.3,1-0.3c-0.1,0.5,0.9,0.6,0.5,1.2
			C340.9,220.3,340.5,220.4,340.2,220.1z"/>
		<path class="st3" d="M349,203.9c-0.1,0.4,0.3,0.7,0.5,0.9c0.1,0.1,0,0.2-0.1,0.3c-0.4,0.1-0.6,0.4-0.7,0.8c0,0-0.1,0.1-0.2,0.1
			c-0.4-0.3-0.8-0.5-1.1-0.9c-0.1-0.2,0.1-0.7,0.3-0.9c0.3-0.2,0.7-0.1,1-0.4C348.8,203.8,348.9,203.9,349,203.9z"/>
		<path class="st3" d="M351.6,208.7c-0.1,0.2-0.3,0.5-0.4,0.4c-0.4-0.1-0.8-0.3-1-0.5c-0.3-0.3,0.4-0.7,0.3-1.1c0.4,0,0.8-0.4,1-0.2
			s0.3,0.5,0.5,0.7C352.3,208.4,351.7,208.4,351.6,208.7z"/>
		<path class="st3" d="M354.5,205.7c-0.4,0.1-0.4,0.7-0.7,0.7c-0.3,0-0.8-0.3-1-0.5c-0.3-0.3,0.3-0.7,0.3-1.1
			c0.4-0.1,0.8-0.4,1.2-0.2C354.6,204.8,354.7,205.5,354.5,205.7z"/>
		<path class="st3" d="M350,203.5c0.2-0.4,0.4-0.5,0.4-0.8c0-0.4,0.3-0.4,0.6-0.5c0.3-0.1,0.4-0.1,0.7,0.2c0.5,0.7,0.5,1.2-0.3,1.6
			c-0.2,0.1-0.3,0-0.4-0.1C350.8,203.5,350.5,203.4,350,203.5z"/>
	</g>
</g>
</svg>
