<?xml version="1.0" encoding="utf-8"?>
<!-- Generator: Adobe Illustrator 21.0.0, SVG Export Plug-In . SVG Version: 6.00 Build 0)  -->
<svg version="1.1" id="Layer_1" xmlns="http://www.w3.org/2000/svg" xmlns:xlink="http://www.w3.org/1999/xlink" x="0px" y="0px"
	 viewBox="0 0 4343.4 4343.4" style="enable-background:new 0 0 4343.4 4343.4;" xml:space="preserve">
<style type="text/css">
	.st0{fill:#333333;}
	.st1{fill:#F39C38;}
	.st2{fill:#F39C38;stroke:#000000;stroke-width:2;stroke-miterlimit:10;}
	.st3{font-family:'ProximaNova-BoldIt';}
	.st4{font-size:414.9492px;}
</style>
<rect class="st0" width="4342" height="4351.1"/>
<title>jotter1500px</title>
<g>
	<g>
		<path d="M2267.5,3324.7l-767.8-1584.9l-352.2,1584.9H647.4l517.7-2349.2h514.2L2426,2504.1l341.6-1528.6h500.1L2750,3324.7H2267.5
			z"/>
	</g>
	<g>
		<path class="st1" d="M2544.2,3324.7l-767.8-1584.9l-352.2,1584.9H924l517.7-2349.2H1956l746.7,1528.6l341.6-1528.6h500.1
			l-517.7,2349.2H2544.2z"/>
	</g>
	<circle cx="1862.9" cy="3050.5" r="325"/>
	<circle class="st1" cx="1959.7" cy="3009" r="325"/>
	<g>
		<path d="M2215.6,3009c0,33.5-6.6,67-19.4,98c-12.8,31-31.8,59.4-55.5,83.1c-23.7,23.7-52.1,42.7-83,55.6
			c-31,12.9-64.5,19.5-98,19.5c-33.5,0-67.1-6.6-98.1-19.4c-31-12.8-59.4-31.8-83.2-55.5c-23.7-23.7-42.8-52.1-55.6-83.1
			c-12.9-31-19.5-64.5-19.5-98.1c0-33.6,6.6-67.1,19.5-98.1c12.9-31,31.9-59.4,55.6-83.1c23.7-23.7,52.2-42.7,83.2-55.5
			c31-12.9,64.5-19.4,98.1-19.4c33.5,0,67.1,6.6,98,19.5c31,12.8,59.3,31.9,83,55.6c23.7,23.7,42.7,52.1,55.5,83.1
			C2209,2942,2215.6,2975.5,2215.6,3009z M2215.6,3009c0-33.5-6.6-67-19.5-97.9c-12.8-30.9-31.8-59.3-55.5-82.9
			c-23.7-23.7-52.1-42.6-83-55.4c-30.9-12.8-64.4-19.4-97.9-19.4c-33.5,0-66.9,6.6-97.8,19.5c-30.9,12.8-59.2,31.8-82.9,55.5
			c-23.6,23.7-42.6,52-55.4,82.9c-12.8,30.9-19.4,64.3-19.4,97.8c0,33.4,6.5,66.9,19.4,97.8c12.8,30.9,31.7,59.2,55.4,82.9
			c23.6,23.7,52,42.7,82.9,55.5c30.9,12.9,64.3,19.5,97.8,19.5c33.5,0,66.9-6.5,97.9-19.4c30.9-12.8,59.3-31.8,83-55.4
			c23.7-23.7,42.7-52,55.5-82.9C2208.9,3076,2215.5,3042.5,2215.6,3009z"/>
	</g>
	<text transform="matrix(0.9382 0.3461 -0.3461 0.9382 1785.6949 3106.0801)" class="st2 st3 st4">$</text>
</g>
</svg>
