<?xml version="1.0" encoding="utf-8"?>
<!-- Generator: Adobe Illustrator 21.0.0, SVG Export Plug-In . SVG Version: 6.00 Build 0)  -->
<svg version="1.1" id="Layer_1" xmlns="http://www.w3.org/2000/svg" xmlns:xlink="http://www.w3.org/1999/xlink" x="0px" y="0px"
	 viewBox="0 0 200 200" style="enable-background:new 0 0 200 200;" xml:space="preserve">
<rect x="-1" shape-rendering="optimizeSpeed" width="6.1" height="6.1"/>
<rect x="5.1" shape-rendering="optimizeSpeed" width="6.1" height="6.1"/>
<rect x="11.1" shape-rendering="optimizeSpeed" width="6.1" height="6.1"/>
<rect x="17.2" shape-rendering="optimizeSpeed" width="6.1" height="6.1"/>
<rect x="23.2" shape-rendering="optimizeSpeed" width="6.1" height="6.1"/>
<rect x="29.3" shape-rendering="optimizeSpeed" width="6.1" height="6.1"/>
<rect x="35.4" shape-rendering="optimizeSpeed" width="6.1" height="6.1"/>
<rect x="47.5" shape-rendering="optimizeSpeed" width="6.1" height="6.1"/>
<rect x="53.5" shape-rendering="optimizeSpeed" width="6.1" height="6.1"/>
<rect x="59.6" shape-rendering="optimizeSpeed" width="6.1" height="6.1"/>
<rect x="65.7" shape-rendering="optimizeSpeed" width="6.1" height="6.1"/>
<rect x="77.8" shape-rendering="optimizeSpeed" width="6.1" height="6.1"/>
<rect x="83.8" shape-rendering="optimizeSpeed" width="6.1" height="6.1"/>
<rect x="108.1" shape-rendering="optimizeSpeed" width="6.1" height="6.1"/>
<rect x="120.2" shape-rendering="optimizeSpeed" width="6.1" height="6.1"/>
<rect x="126.3" shape-rendering="optimizeSpeed" width="6.1" height="6.1"/>
<rect x="132.3" shape-rendering="optimizeSpeed" width="6.1" height="6.1"/>
<rect x="156.6" shape-rendering="optimizeSpeed" width="6.1" height="6.1"/>
<rect x="162.6" shape-rendering="optimizeSpeed" width="6.1" height="6.1"/>
<rect x="168.7" shape-rendering="optimizeSpeed" width="6.1" height="6.1"/>
<rect x="174.8" shape-rendering="optimizeSpeed" width="6.1" height="6.1"/>
<rect x="180.8" shape-rendering="optimizeSpeed" width="6.1" height="6.1"/>
<rect x="186.9" shape-rendering="optimizeSpeed" width="6.1" height="6.1"/>
<rect x="192.9" shape-rendering="optimizeSpeed" width="6.1" height="6.1"/>
<rect x="-1" y="6.1" shape-rendering="optimizeSpeed" width="6.1" height="6.1"/>
<rect x="35.4" y="6.1" shape-rendering="optimizeSpeed" width="6.1" height="6.1"/>
<rect x="47.5" y="6.1" shape-rendering="optimizeSpeed" width="6.1" height="6.1"/>
<rect x="65.7" y="6.1" shape-rendering="optimizeSpeed" width="6.1" height="6.1"/>
<rect x="96" y="6.1" shape-rendering="optimizeSpeed" width="6.1" height="6.1"/>
<rect x="102" y="6.1" shape-rendering="optimizeSpeed" width="6.1" height="6.1"/>
<rect x="108.1" y="6.1" shape-rendering="optimizeSpeed" width="6.1" height="6.1"/>
<rect x="120.2" y="6.1" shape-rendering="optimizeSpeed" width="6.1" height="6.1"/>
<rect x="126.3" y="6.1" shape-rendering="optimizeSpeed" width="6.1" height="6.1"/>
<rect x="144.5" y="6.1" shape-rendering="optimizeSpeed" width="6.1" height="6.1"/>
<rect x="156.6" y="6.1" shape-rendering="optimizeSpeed" width="6.1" height="6.1"/>
<rect x="192.9" y="6.1" shape-rendering="optimizeSpeed" width="6.1" height="6.1"/>
<rect x="-1" y="12.1" shape-rendering="optimizeSpeed" width="6.1" height="6.1"/>
<rect x="11.1" y="12.1" shape-rendering="optimizeSpeed" width="6.1" height="6.1"/>
<rect x="17.2" y="12.1" shape-rendering="optimizeSpeed" width="6.1" height="6.1"/>
<rect x="23.2" y="12.1" shape-rendering="optimizeSpeed" width="6.1" height="6.1"/>
<rect x="35.4" y="12.1" shape-rendering="optimizeSpeed" width="6.1" height="6.1"/>
<rect x="53.5" y="12.1" shape-rendering="optimizeSpeed" width="6.1" height="6.1"/>
<rect x="77.8" y="12.1" shape-rendering="optimizeSpeed" width="6.1" height="6.1"/>
<rect x="89.9" y="12.1" shape-rendering="optimizeSpeed" width="6.1" height="6.1"/>
<rect x="102" y="12.1" shape-rendering="optimizeSpeed" width="6.1" height="6.1"/>
<rect x="108.1" y="12.1" shape-rendering="optimizeSpeed" width="6.1" height="6.1"/>
<rect x="114.2" y="12.1" shape-rendering="optimizeSpeed" width="6.1" height="6.1"/>
<rect x="126.3" y="12.1" shape-rendering="optimizeSpeed" width="6.1" height="6.1"/>
<rect x="144.5" y="12.1" shape-rendering="optimizeSpeed" width="6.1" height="6.1"/>
<rect x="156.6" y="12.1" shape-rendering="optimizeSpeed" width="6.1" height="6.1"/>
<rect x="168.7" y="12.1" shape-rendering="optimizeSpeed" width="6.1" height="6.1"/>
<rect x="174.8" y="12.1" shape-rendering="optimizeSpeed" width="6.1" height="6.1"/>
<rect x="180.8" y="12.1" shape-rendering="optimizeSpeed" width="6.1" height="6.1"/>
<rect x="192.9" y="12.1" shape-rendering="optimizeSpeed" width="6.1" height="6.1"/>
<rect x="-1" y="18.2" shape-rendering="optimizeSpeed" width="6.1" height="6.1"/>
<rect x="11.1" y="18.2" shape-rendering="optimizeSpeed" width="6.1" height="6.1"/>
<rect x="17.2" y="18.2" shape-rendering="optimizeSpeed" width="6.1" height="6.1"/>
<rect x="23.2" y="18.2" shape-rendering="optimizeSpeed" width="6.1" height="6.1"/>
<rect x="35.4" y="18.2" shape-rendering="optimizeSpeed" width="6.1" height="6.1"/>
<rect x="65.7" y="18.2" shape-rendering="optimizeSpeed" width="6.1" height="6.1"/>
<rect x="71.7" y="18.2" shape-rendering="optimizeSpeed" width="6.1" height="6.1"/>
<rect x="77.8" y="18.2" shape-rendering="optimizeSpeed" width="6.1" height="6.1"/>
<rect x="83.8" y="18.2" shape-rendering="optimizeSpeed" width="6.1" height="6.1"/>
<rect x="89.9" y="18.2" shape-rendering="optimizeSpeed" width="6.1" height="6.1"/>
<rect x="102" y="18.2" shape-rendering="optimizeSpeed" width="6.1" height="6.1"/>
<rect x="126.3" y="18.2" shape-rendering="optimizeSpeed" width="6.1" height="6.1"/>
<rect x="132.3" y="18.2" shape-rendering="optimizeSpeed" width="6.1" height="6.1"/>
<rect x="144.5" y="18.2" shape-rendering="optimizeSpeed" width="6.1" height="6.1"/>
<rect x="156.6" y="18.2" shape-rendering="optimizeSpeed" width="6.1" height="6.1"/>
<rect x="168.7" y="18.2" shape-rendering="optimizeSpeed" width="6.1" height="6.1"/>
<rect x="174.8" y="18.2" shape-rendering="optimizeSpeed" width="6.1" height="6.1"/>
<rect x="180.8" y="18.2" shape-rendering="optimizeSpeed" width="6.1" height="6.1"/>
<rect x="192.9" y="18.2" shape-rendering="optimizeSpeed" width="6.1" height="6.1"/>
<rect x="-1" y="24.2" shape-rendering="optimizeSpeed" width="6.1" height="6.1"/>
<rect x="11.1" y="24.2" shape-rendering="optimizeSpeed" width="6.1" height="6.1"/>
<rect x="17.2" y="24.2" shape-rendering="optimizeSpeed" width="6.1" height="6.1"/>
<rect x="23.2" y="24.2" shape-rendering="optimizeSpeed" width="6.1" height="6.1"/>
<rect x="35.4" y="24.2" shape-rendering="optimizeSpeed" width="6.1" height="6.1"/>
<rect x="47.5" y="24.2" shape-rendering="optimizeSpeed" width="6.1" height="6.1"/>
<rect x="65.7" y="24.2" shape-rendering="optimizeSpeed" width="6.1" height="6.1"/>
<rect x="71.7" y="24.2" shape-rendering="optimizeSpeed" width="6.1" height="6.1"/>
<rect x="83.8" y="24.2" shape-rendering="optimizeSpeed" width="6.1" height="6.1"/>
<rect x="102" y="24.2" shape-rendering="optimizeSpeed" width="6.1" height="6.1"/>
<rect x="108.1" y="24.2" shape-rendering="optimizeSpeed" width="6.1" height="6.1"/>
<rect x="126.3" y="24.2" shape-rendering="optimizeSpeed" width="6.1" height="6.1"/>
<rect x="132.3" y="24.2" shape-rendering="optimizeSpeed" width="6.1" height="6.1"/>
<rect x="156.6" y="24.2" shape-rendering="optimizeSpeed" width="6.1" height="6.1"/>
<rect x="168.7" y="24.2" shape-rendering="optimizeSpeed" width="6.1" height="6.1"/>
<rect x="174.8" y="24.2" shape-rendering="optimizeSpeed" width="6.1" height="6.1"/>
<rect x="180.8" y="24.2" shape-rendering="optimizeSpeed" width="6.1" height="6.1"/>
<rect x="192.9" y="24.2" shape-rendering="optimizeSpeed" width="6.1" height="6.1"/>
<rect x="-1" y="30.3" shape-rendering="optimizeSpeed" width="6.1" height="6.1"/>
<rect x="35.4" y="30.3" shape-rendering="optimizeSpeed" width="6.1" height="6.1"/>
<rect x="47.5" y="30.3" shape-rendering="optimizeSpeed" width="6.1" height="6.1"/>
<rect x="53.5" y="30.3" shape-rendering="optimizeSpeed" width="6.1" height="6.1"/>
<rect x="59.6" y="30.3" shape-rendering="optimizeSpeed" width="6.1" height="6.1"/>
<rect x="71.7" y="30.3" shape-rendering="optimizeSpeed" width="6.1" height="6.1"/>
<rect x="77.8" y="30.3" shape-rendering="optimizeSpeed" width="6.1" height="6.1"/>
<rect x="83.8" y="30.3" shape-rendering="optimizeSpeed" width="6.1" height="6.1"/>
<rect x="156.6" y="30.3" shape-rendering="optimizeSpeed" width="6.1" height="6.1"/>
<rect x="192.9" y="30.3" shape-rendering="optimizeSpeed" width="6.1" height="6.1"/>
<rect x="-1" y="36.4" shape-rendering="optimizeSpeed" width="6.1" height="6.1"/>
<rect x="5.1" y="36.4" shape-rendering="optimizeSpeed" width="6.1" height="6.1"/>
<rect x="11.1" y="36.4" shape-rendering="optimizeSpeed" width="6.1" height="6.1"/>
<rect x="17.2" y="36.4" shape-rendering="optimizeSpeed" width="6.1" height="6.1"/>
<rect x="23.2" y="36.4" shape-rendering="optimizeSpeed" width="6.1" height="6.1"/>
<rect x="29.3" y="36.4" shape-rendering="optimizeSpeed" width="6.1" height="6.1"/>
<rect x="35.4" y="36.4" shape-rendering="optimizeSpeed" width="6.1" height="6.1"/>
<rect x="47.5" y="36.4" shape-rendering="optimizeSpeed" width="6.1" height="6.1"/>
<rect x="59.6" y="36.4" shape-rendering="optimizeSpeed" width="6.1" height="6.1"/>
<rect x="71.7" y="36.4" shape-rendering="optimizeSpeed" width="6.1" height="6.1"/>
<rect x="83.8" y="36.4" shape-rendering="optimizeSpeed" width="6.1" height="6.1"/>
<rect x="96" y="36.4" shape-rendering="optimizeSpeed" width="6.1" height="6.1"/>
<rect x="108.1" y="36.4" shape-rendering="optimizeSpeed" width="6.1" height="6.1"/>
<rect x="120.2" y="36.4" shape-rendering="optimizeSpeed" width="6.1" height="6.1"/>
<rect x="132.3" y="36.4" shape-rendering="optimizeSpeed" width="6.1" height="6.1"/>
<rect x="144.5" y="36.4" shape-rendering="optimizeSpeed" width="6.1" height="6.1"/>
<rect x="156.6" y="36.4" shape-rendering="optimizeSpeed" width="6.1" height="6.1"/>
<rect x="162.6" y="36.4" shape-rendering="optimizeSpeed" width="6.1" height="6.1"/>
<rect x="168.7" y="36.4" shape-rendering="optimizeSpeed" width="6.1" height="6.1"/>
<rect x="174.8" y="36.4" shape-rendering="optimizeSpeed" width="6.1" height="6.1"/>
<rect x="180.8" y="36.4" shape-rendering="optimizeSpeed" width="6.1" height="6.1"/>
<rect x="186.9" y="36.4" shape-rendering="optimizeSpeed" width="6.1" height="6.1"/>
<rect x="192.9" y="36.4" shape-rendering="optimizeSpeed" width="6.1" height="6.1"/>
<rect x="47.5" y="42.4" shape-rendering="optimizeSpeed" width="6.1" height="6.1"/>
<rect x="53.5" y="42.4" shape-rendering="optimizeSpeed" width="6.1" height="6.1"/>
<rect x="120.2" y="42.4" shape-rendering="optimizeSpeed" width="6.1" height="6.1"/>
<rect x="132.3" y="42.4" shape-rendering="optimizeSpeed" width="6.1" height="6.1"/>
<rect x="-1" y="48.5" shape-rendering="optimizeSpeed" width="6.1" height="6.1"/>
<rect x="5.1" y="48.5" shape-rendering="optimizeSpeed" width="6.1" height="6.1"/>
<rect x="11.1" y="48.5" shape-rendering="optimizeSpeed" width="6.1" height="6.1"/>
<rect x="29.3" y="48.5" shape-rendering="optimizeSpeed" width="6.1" height="6.1"/>
<rect x="35.4" y="48.5" shape-rendering="optimizeSpeed" width="6.1" height="6.1"/>
<rect x="47.5" y="48.5" shape-rendering="optimizeSpeed" width="6.1" height="6.1"/>
<rect x="53.5" y="48.5" shape-rendering="optimizeSpeed" width="6.1" height="6.1"/>
<rect x="65.7" y="48.5" shape-rendering="optimizeSpeed" width="6.1" height="6.1"/>
<rect x="71.7" y="48.5" shape-rendering="optimizeSpeed" width="6.1" height="6.1"/>
<rect x="83.8" y="48.5" shape-rendering="optimizeSpeed" width="6.1" height="6.1"/>
<rect x="89.9" y="48.5" shape-rendering="optimizeSpeed" width="6.1" height="6.1"/>
<rect x="96" y="48.5" shape-rendering="optimizeSpeed" width="6.1" height="6.1"/>
<rect x="102" y="48.5" shape-rendering="optimizeSpeed" width="6.1" height="6.1"/>
<rect x="114.2" y="48.5" shape-rendering="optimizeSpeed" width="6.1" height="6.1"/>
<rect x="120.2" y="48.5" shape-rendering="optimizeSpeed" width="6.1" height="6.1"/>
<rect x="138.4" y="48.5" shape-rendering="optimizeSpeed" width="6.1" height="6.1"/>
<rect x="144.5" y="48.5" shape-rendering="optimizeSpeed" width="6.1" height="6.1"/>
<rect x="150.5" y="48.5" shape-rendering="optimizeSpeed" width="6.1" height="6.1"/>
<rect x="156.6" y="48.5" shape-rendering="optimizeSpeed" width="6.1" height="6.1"/>
<rect x="162.6" y="48.5" shape-rendering="optimizeSpeed" width="6.1" height="6.1"/>
<rect x="168.7" y="48.5" shape-rendering="optimizeSpeed" width="6.1" height="6.1"/>
<rect x="186.9" y="48.5" shape-rendering="optimizeSpeed" width="6.1" height="6.1"/>
<rect x="192.9" y="48.5" shape-rendering="optimizeSpeed" width="6.1" height="6.1"/>
<rect x="-1" y="54.5" shape-rendering="optimizeSpeed" width="6.1" height="6.1"/>
<rect x="29.3" y="54.5" shape-rendering="optimizeSpeed" width="6.1" height="6.1"/>
<rect x="47.5" y="54.5" shape-rendering="optimizeSpeed" width="6.1" height="6.1"/>
<rect x="71.7" y="54.5" shape-rendering="optimizeSpeed" width="6.1" height="6.1"/>
<rect x="77.8" y="54.5" shape-rendering="optimizeSpeed" width="6.1" height="6.1"/>
<rect x="89.9" y="54.5" shape-rendering="optimizeSpeed" width="6.1" height="6.1"/>
<rect x="114.2" y="54.5" shape-rendering="optimizeSpeed" width="6.1" height="6.1"/>
<rect x="120.2" y="54.5" shape-rendering="optimizeSpeed" width="6.1" height="6.1"/>
<rect x="126.3" y="54.5" shape-rendering="optimizeSpeed" width="6.1" height="6.1"/>
<rect x="138.4" y="54.5" shape-rendering="optimizeSpeed" width="6.1" height="6.1"/>
<rect x="156.6" y="54.5" shape-rendering="optimizeSpeed" width="6.1" height="6.1"/>
<rect x="174.8" y="54.5" shape-rendering="optimizeSpeed" width="6.1" height="6.1"/>
<rect x="186.9" y="54.5" shape-rendering="optimizeSpeed" width="6.1" height="6.1"/>
<rect x="192.9" y="54.5" shape-rendering="optimizeSpeed" width="6.1" height="6.1"/>
<rect x="-1" y="60.6" shape-rendering="optimizeSpeed" width="6.1" height="6.1"/>
<rect x="5.1" y="60.6" shape-rendering="optimizeSpeed" width="6.1" height="6.1"/>
<rect x="17.2" y="60.6" shape-rendering="optimizeSpeed" width="6.1" height="6.1"/>
<rect x="23.2" y="60.6" shape-rendering="optimizeSpeed" width="6.1" height="6.1"/>
<rect x="35.4" y="60.6" shape-rendering="optimizeSpeed" width="6.1" height="6.1"/>
<rect x="41.4" y="60.6" shape-rendering="optimizeSpeed" width="6.1" height="6.1"/>
<rect x="47.5" y="60.6" shape-rendering="optimizeSpeed" width="6.1" height="6.1"/>
<rect x="53.5" y="60.6" shape-rendering="optimizeSpeed" width="6.1" height="6.1"/>
<rect x="59.6" y="60.6" shape-rendering="optimizeSpeed" width="6.1" height="6.1"/>
<rect x="71.7" y="60.6" shape-rendering="optimizeSpeed" width="6.1" height="6.1"/>
<rect x="89.9" y="60.6" shape-rendering="optimizeSpeed" width="6.1" height="6.1"/>
<rect x="114.2" y="60.6" shape-rendering="optimizeSpeed" width="6.1" height="6.1"/>
<rect x="138.4" y="60.6" shape-rendering="optimizeSpeed" width="6.1" height="6.1"/>
<rect x="150.5" y="60.6" shape-rendering="optimizeSpeed" width="6.1" height="6.1"/>
<rect x="156.6" y="60.6" shape-rendering="optimizeSpeed" width="6.1" height="6.1"/>
<rect x="168.7" y="60.6" shape-rendering="optimizeSpeed" width="6.1" height="6.1"/>
<rect x="192.9" y="60.6" shape-rendering="optimizeSpeed" width="6.1" height="6.1"/>
<rect x="-1" y="66.7" shape-rendering="optimizeSpeed" width="6.1" height="6.1"/>
<rect x="17.2" y="66.7" shape-rendering="optimizeSpeed" width="6.1" height="6.1"/>
<rect x="23.2" y="66.7" shape-rendering="optimizeSpeed" width="6.1" height="6.1"/>
<rect x="29.3" y="66.7" shape-rendering="optimizeSpeed" width="6.1" height="6.1"/>
<rect x="41.4" y="66.7" shape-rendering="optimizeSpeed" width="6.1" height="6.1"/>
<rect x="59.6" y="66.7" shape-rendering="optimizeSpeed" width="6.1" height="6.1"/>
<rect x="65.7" y="66.7" shape-rendering="optimizeSpeed" width="6.1" height="6.1"/>
<rect x="71.7" y="66.7" shape-rendering="optimizeSpeed" width="6.1" height="6.1"/>
<rect x="96" y="66.7" shape-rendering="optimizeSpeed" width="6.1" height="6.1"/>
<rect x="108.1" y="66.7" shape-rendering="optimizeSpeed" width="6.1" height="6.1"/>
<rect x="114.2" y="66.7" shape-rendering="optimizeSpeed" width="6.1" height="6.1"/>
<rect x="120.2" y="66.7" shape-rendering="optimizeSpeed" width="6.1" height="6.1"/>
<rect x="138.4" y="66.7" shape-rendering="optimizeSpeed" width="6.1" height="6.1"/>
<rect x="144.5" y="66.7" shape-rendering="optimizeSpeed" width="6.1" height="6.1"/>
<rect x="162.6" y="66.7" shape-rendering="optimizeSpeed" width="6.1" height="6.1"/>
<rect x="174.8" y="66.7" shape-rendering="optimizeSpeed" width="6.1" height="6.1"/>
<rect x="29.3" y="72.7" shape-rendering="optimizeSpeed" width="6.1" height="6.1"/>
<rect x="35.4" y="72.7" shape-rendering="optimizeSpeed" width="6.1" height="6.1"/>
<rect x="53.5" y="72.7" shape-rendering="optimizeSpeed" width="6.1" height="6.1"/>
<rect x="59.6" y="72.7" shape-rendering="optimizeSpeed" width="6.1" height="6.1"/>
<rect x="77.8" y="72.7" shape-rendering="optimizeSpeed" width="6.1" height="6.1"/>
<rect x="83.8" y="72.7" shape-rendering="optimizeSpeed" width="6.1" height="6.1"/>
<rect x="89.9" y="72.7" shape-rendering="optimizeSpeed" width="6.1" height="6.1"/>
<rect x="120.2" y="72.7" shape-rendering="optimizeSpeed" width="6.1" height="6.1"/>
<rect x="132.3" y="72.7" shape-rendering="optimizeSpeed" width="6.1" height="6.1"/>
<rect x="144.5" y="72.7" shape-rendering="optimizeSpeed" width="6.1" height="6.1"/>
<rect x="156.6" y="72.7" shape-rendering="optimizeSpeed" width="6.1" height="6.1"/>
<rect x="162.6" y="72.7" shape-rendering="optimizeSpeed" width="6.1" height="6.1"/>
<rect x="174.8" y="72.7" shape-rendering="optimizeSpeed" width="6.1" height="6.1"/>
<rect x="186.9" y="72.7" shape-rendering="optimizeSpeed" width="6.1" height="6.1"/>
<rect x="192.9" y="72.7" shape-rendering="optimizeSpeed" width="6.1" height="6.1"/>
<rect x="5.1" y="78.8" shape-rendering="optimizeSpeed" width="6.1" height="6.1"/>
<rect x="11.1" y="78.8" shape-rendering="optimizeSpeed" width="6.1" height="6.1"/>
<rect x="17.2" y="78.8" shape-rendering="optimizeSpeed" width="6.1" height="6.1"/>
<rect x="41.4" y="78.8" shape-rendering="optimizeSpeed" width="6.1" height="6.1"/>
<rect x="59.6" y="78.8" shape-rendering="optimizeSpeed" width="6.1" height="6.1"/>
<rect x="77.8" y="78.8" shape-rendering="optimizeSpeed" width="6.1" height="6.1"/>
<rect x="89.9" y="78.8" shape-rendering="optimizeSpeed" width="6.1" height="6.1"/>
<rect x="96" y="78.8" shape-rendering="optimizeSpeed" width="6.1" height="6.1"/>
<rect x="102" y="78.8" shape-rendering="optimizeSpeed" width="6.1" height="6.1"/>
<rect x="114.2" y="78.8" shape-rendering="optimizeSpeed" width="6.1" height="6.1"/>
<rect x="120.2" y="78.8" shape-rendering="optimizeSpeed" width="6.1" height="6.1"/>
<rect x="138.4" y="78.8" shape-rendering="optimizeSpeed" width="6.1" height="6.1"/>
<rect x="144.5" y="78.8" shape-rendering="optimizeSpeed" width="6.1" height="6.1"/>
<rect x="156.6" y="78.8" shape-rendering="optimizeSpeed" width="6.1" height="6.1"/>
<rect x="162.6" y="78.8" shape-rendering="optimizeSpeed" width="6.1" height="6.1"/>
<rect x="174.8" y="78.8" shape-rendering="optimizeSpeed" width="6.1" height="6.1"/>
<rect x="192.9" y="78.8" shape-rendering="optimizeSpeed" width="6.1" height="6.1"/>
<rect x="-1" y="84.8" shape-rendering="optimizeSpeed" width="6.1" height="6.1"/>
<rect x="17.2" y="84.8" shape-rendering="optimizeSpeed" width="6.1" height="6.1"/>
<rect x="29.3" y="84.8" shape-rendering="optimizeSpeed" width="6.1" height="6.1"/>
<rect x="35.4" y="84.8" shape-rendering="optimizeSpeed" width="6.1" height="6.1"/>
<rect x="41.4" y="84.8" shape-rendering="optimizeSpeed" width="6.1" height="6.1"/>
<rect x="47.5" y="84.8" shape-rendering="optimizeSpeed" width="6.1" height="6.1"/>
<rect x="65.7" y="84.8" shape-rendering="optimizeSpeed" width="6.1" height="6.1"/>
<rect x="89.9" y="84.8" shape-rendering="optimizeSpeed" width="6.1" height="6.1"/>
<rect x="114.2" y="84.8" shape-rendering="optimizeSpeed" width="6.1" height="6.1"/>
<rect x="126.3" y="84.8" shape-rendering="optimizeSpeed" width="6.1" height="6.1"/>
<rect x="132.3" y="84.8" shape-rendering="optimizeSpeed" width="6.1" height="6.1"/>
<rect x="138.4" y="84.8" shape-rendering="optimizeSpeed" width="6.1" height="6.1"/>
<rect x="144.5" y="84.8" shape-rendering="optimizeSpeed" width="6.1" height="6.1"/>
<rect x="150.5" y="84.8" shape-rendering="optimizeSpeed" width="6.1" height="6.1"/>
<rect x="162.6" y="84.8" shape-rendering="optimizeSpeed" width="6.1" height="6.1"/>
<rect x="168.7" y="84.8" shape-rendering="optimizeSpeed" width="6.1" height="6.1"/>
<rect x="180.8" y="84.8" shape-rendering="optimizeSpeed" width="6.1" height="6.1"/>
<rect x="186.9" y="84.8" shape-rendering="optimizeSpeed" width="6.1" height="6.1"/>
<rect x="192.9" y="84.8" shape-rendering="optimizeSpeed" width="6.1" height="6.1"/>
<rect x="-1" y="90.9" shape-rendering="optimizeSpeed" width="6.1" height="6.1"/>
<rect x="17.2" y="90.9" shape-rendering="optimizeSpeed" width="6.1" height="6.1"/>
<rect x="29.3" y="90.9" shape-rendering="optimizeSpeed" width="6.1" height="6.1"/>
<rect x="53.5" y="90.9" shape-rendering="optimizeSpeed" width="6.1" height="6.1"/>
<rect x="77.8" y="90.9" shape-rendering="optimizeSpeed" width="6.1" height="6.1"/>
<rect x="89.9" y="90.9" shape-rendering="optimizeSpeed" width="6.1" height="6.1"/>
<rect x="96" y="90.9" shape-rendering="optimizeSpeed" width="6.1" height="6.1"/>
<rect x="108.1" y="90.9" shape-rendering="optimizeSpeed" width="6.1" height="6.1"/>
<rect x="114.2" y="90.9" shape-rendering="optimizeSpeed" width="6.1" height="6.1"/>
<rect x="144.5" y="90.9" shape-rendering="optimizeSpeed" width="6.1" height="6.1"/>
<rect x="168.7" y="90.9" shape-rendering="optimizeSpeed" width="6.1" height="6.1"/>
<rect x="174.8" y="90.9" shape-rendering="optimizeSpeed" width="6.1" height="6.1"/>
<rect x="186.9" y="90.9" shape-rendering="optimizeSpeed" width="6.1" height="6.1"/>
<rect x="5.1" y="97" shape-rendering="optimizeSpeed" width="6.1" height="6.1"/>
<rect x="35.4" y="97" shape-rendering="optimizeSpeed" width="6.1" height="6.1"/>
<rect x="41.4" y="97" shape-rendering="optimizeSpeed" width="6.1" height="6.1"/>
<rect x="47.5" y="97" shape-rendering="optimizeSpeed" width="6.1" height="6.1"/>
<rect x="53.5" y="97" shape-rendering="optimizeSpeed" width="6.1" height="6.1"/>
<rect x="59.6" y="97" shape-rendering="optimizeSpeed" width="6.1" height="6.1"/>
<rect x="65.7" y="97" shape-rendering="optimizeSpeed" width="6.1" height="6.1"/>
<rect x="71.7" y="97" shape-rendering="optimizeSpeed" width="6.1" height="6.1"/>
<rect x="77.8" y="97" shape-rendering="optimizeSpeed" width="6.1" height="6.1"/>
<rect x="96" y="97" shape-rendering="optimizeSpeed" width="6.1" height="6.1"/>
<rect x="114.2" y="97" shape-rendering="optimizeSpeed" width="6.1" height="6.1"/>
<rect x="120.2" y="97" shape-rendering="optimizeSpeed" width="6.1" height="6.1"/>
<rect x="138.4" y="97" shape-rendering="optimizeSpeed" width="6.1" height="6.1"/>
<rect x="156.6" y="97" shape-rendering="optimizeSpeed" width="6.1" height="6.1"/>
<rect x="162.6" y="97" shape-rendering="optimizeSpeed" width="6.1" height="6.1"/>
<rect x="174.8" y="97" shape-rendering="optimizeSpeed" width="6.1" height="6.1"/>
<rect x="192.9" y="97" shape-rendering="optimizeSpeed" width="6.1" height="6.1"/>
<rect x="-1" y="103" shape-rendering="optimizeSpeed" width="6.1" height="6.1"/>
<rect x="5.1" y="103" shape-rendering="optimizeSpeed" width="6.1" height="6.1"/>
<rect x="23.2" y="103" shape-rendering="optimizeSpeed" width="6.1" height="6.1"/>
<rect x="53.5" y="103" shape-rendering="optimizeSpeed" width="6.1" height="6.1"/>
<rect x="59.6" y="103" shape-rendering="optimizeSpeed" width="6.1" height="6.1"/>
<rect x="71.7" y="103" shape-rendering="optimizeSpeed" width="6.1" height="6.1"/>
<rect x="89.9" y="103" shape-rendering="optimizeSpeed" width="6.1" height="6.1"/>
<rect x="96" y="103" shape-rendering="optimizeSpeed" width="6.1" height="6.1"/>
<rect x="102" y="103" shape-rendering="optimizeSpeed" width="6.1" height="6.1"/>
<rect x="114.2" y="103" shape-rendering="optimizeSpeed" width="6.1" height="6.1"/>
<rect x="120.2" y="103" shape-rendering="optimizeSpeed" width="6.1" height="6.1"/>
<rect x="132.3" y="103" shape-rendering="optimizeSpeed" width="6.1" height="6.1"/>
<rect x="138.4" y="103" shape-rendering="optimizeSpeed" width="6.1" height="6.1"/>
<rect x="144.5" y="103" shape-rendering="optimizeSpeed" width="6.1" height="6.1"/>
<rect x="156.6" y="103" shape-rendering="optimizeSpeed" width="6.1" height="6.1"/>
<rect x="162.6" y="103" shape-rendering="optimizeSpeed" width="6.1" height="6.1"/>
<rect x="174.8" y="103" shape-rendering="optimizeSpeed" width="6.1" height="6.1"/>
<rect x="180.8" y="103" shape-rendering="optimizeSpeed" width="6.1" height="6.1"/>
<rect x="186.9" y="103" shape-rendering="optimizeSpeed" width="6.1" height="6.1"/>
<rect x="192.9" y="103" shape-rendering="optimizeSpeed" width="6.1" height="6.1"/>
<rect x="-1" y="109.1" shape-rendering="optimizeSpeed" width="6.1" height="6.1"/>
<rect x="5.1" y="109.1" shape-rendering="optimizeSpeed" width="6.1" height="6.1"/>
<rect x="11.1" y="109.1" shape-rendering="optimizeSpeed" width="6.1" height="6.1"/>
<rect x="29.3" y="109.1" shape-rendering="optimizeSpeed" width="6.1" height="6.1"/>
<rect x="35.4" y="109.1" shape-rendering="optimizeSpeed" width="6.1" height="6.1"/>
<rect x="41.4" y="109.1" shape-rendering="optimizeSpeed" width="6.1" height="6.1"/>
<rect x="53.5" y="109.1" shape-rendering="optimizeSpeed" width="6.1" height="6.1"/>
<rect x="59.6" y="109.1" shape-rendering="optimizeSpeed" width="6.1" height="6.1"/>
<rect x="71.7" y="109.1" shape-rendering="optimizeSpeed" width="6.1" height="6.1"/>
<rect x="77.8" y="109.1" shape-rendering="optimizeSpeed" width="6.1" height="6.1"/>
<rect x="83.8" y="109.1" shape-rendering="optimizeSpeed" width="6.1" height="6.1"/>
<rect x="89.9" y="109.1" shape-rendering="optimizeSpeed" width="6.1" height="6.1"/>
<rect x="114.2" y="109.1" shape-rendering="optimizeSpeed" width="6.1" height="6.1"/>
<rect x="120.2" y="109.1" shape-rendering="optimizeSpeed" width="6.1" height="6.1"/>
<rect x="126.3" y="109.1" shape-rendering="optimizeSpeed" width="6.1" height="6.1"/>
<rect x="138.4" y="109.1" shape-rendering="optimizeSpeed" width="6.1" height="6.1"/>
<rect x="144.5" y="109.1" shape-rendering="optimizeSpeed" width="6.1" height="6.1"/>
<rect x="150.5" y="109.1" shape-rendering="optimizeSpeed" width="6.1" height="6.1"/>
<rect x="156.6" y="109.1" shape-rendering="optimizeSpeed" width="6.1" height="6.1"/>
<rect x="162.6" y="109.1" shape-rendering="optimizeSpeed" width="6.1" height="6.1"/>
<rect x="168.7" y="109.1" shape-rendering="optimizeSpeed" width="6.1" height="6.1"/>
<rect x="174.8" y="109.1" shape-rendering="optimizeSpeed" width="6.1" height="6.1"/>
<rect x="192.9" y="109.1" shape-rendering="optimizeSpeed" width="6.1" height="6.1"/>
<rect x="11.1" y="115.2" shape-rendering="optimizeSpeed" width="6.1" height="6.1"/>
<rect x="17.2" y="115.2" shape-rendering="optimizeSpeed" width="6.1" height="6.1"/>
<rect x="41.4" y="115.2" shape-rendering="optimizeSpeed" width="6.1" height="6.1"/>
<rect x="65.7" y="115.2" shape-rendering="optimizeSpeed" width="6.1" height="6.1"/>
<rect x="71.7" y="115.2" shape-rendering="optimizeSpeed" width="6.1" height="6.1"/>
<rect x="83.8" y="115.2" shape-rendering="optimizeSpeed" width="6.1" height="6.1"/>
<rect x="108.1" y="115.2" shape-rendering="optimizeSpeed" width="6.1" height="6.1"/>
<rect x="150.5" y="115.2" shape-rendering="optimizeSpeed" width="6.1" height="6.1"/>
<rect x="162.6" y="115.2" shape-rendering="optimizeSpeed" width="6.1" height="6.1"/>
<rect x="174.8" y="115.2" shape-rendering="optimizeSpeed" width="6.1" height="6.1"/>
<rect x="186.9" y="115.2" shape-rendering="optimizeSpeed" width="6.1" height="6.1"/>
<rect x="192.9" y="115.2" shape-rendering="optimizeSpeed" width="6.1" height="6.1"/>
<rect x="-1" y="121.2" shape-rendering="optimizeSpeed" width="6.1" height="6.1"/>
<rect x="5.1" y="121.2" shape-rendering="optimizeSpeed" width="6.1" height="6.1"/>
<rect x="11.1" y="121.2" shape-rendering="optimizeSpeed" width="6.1" height="6.1"/>
<rect x="35.4" y="121.2" shape-rendering="optimizeSpeed" width="6.1" height="6.1"/>
<rect x="41.4" y="121.2" shape-rendering="optimizeSpeed" width="6.1" height="6.1"/>
<rect x="47.5" y="121.2" shape-rendering="optimizeSpeed" width="6.1" height="6.1"/>
<rect x="53.5" y="121.2" shape-rendering="optimizeSpeed" width="6.1" height="6.1"/>
<rect x="59.6" y="121.2" shape-rendering="optimizeSpeed" width="6.1" height="6.1"/>
<rect x="77.8" y="121.2" shape-rendering="optimizeSpeed" width="6.1" height="6.1"/>
<rect x="83.8" y="121.2" shape-rendering="optimizeSpeed" width="6.1" height="6.1"/>
<rect x="114.2" y="121.2" shape-rendering="optimizeSpeed" width="6.1" height="6.1"/>
<rect x="120.2" y="121.2" shape-rendering="optimizeSpeed" width="6.1" height="6.1"/>
<rect x="138.4" y="121.2" shape-rendering="optimizeSpeed" width="6.1" height="6.1"/>
<rect x="144.5" y="121.2" shape-rendering="optimizeSpeed" width="6.1" height="6.1"/>
<rect x="156.6" y="121.2" shape-rendering="optimizeSpeed" width="6.1" height="6.1"/>
<rect x="23.2" y="127.3" shape-rendering="optimizeSpeed" width="6.1" height="6.1"/>
<rect x="47.5" y="127.3" shape-rendering="optimizeSpeed" width="6.1" height="6.1"/>
<rect x="53.5" y="127.3" shape-rendering="optimizeSpeed" width="6.1" height="6.1"/>
<rect x="77.8" y="127.3" shape-rendering="optimizeSpeed" width="6.1" height="6.1"/>
<rect x="83.8" y="127.3" shape-rendering="optimizeSpeed" width="6.1" height="6.1"/>
<rect x="89.9" y="127.3" shape-rendering="optimizeSpeed" width="6.1" height="6.1"/>
<rect x="96" y="127.3" shape-rendering="optimizeSpeed" width="6.1" height="6.1"/>
<rect x="114.2" y="127.3" shape-rendering="optimizeSpeed" width="6.1" height="6.1"/>
<rect x="126.3" y="127.3" shape-rendering="optimizeSpeed" width="6.1" height="6.1"/>
<rect x="138.4" y="127.3" shape-rendering="optimizeSpeed" width="6.1" height="6.1"/>
<rect x="150.5" y="127.3" shape-rendering="optimizeSpeed" width="6.1" height="6.1"/>
<rect x="156.6" y="127.3" shape-rendering="optimizeSpeed" width="6.1" height="6.1"/>
<rect x="162.6" y="127.3" shape-rendering="optimizeSpeed" width="6.1" height="6.1"/>
<rect x="174.8" y="127.3" shape-rendering="optimizeSpeed" width="6.1" height="6.1"/>
<rect x="192.9" y="127.3" shape-rendering="optimizeSpeed" width="6.1" height="6.1"/>
<rect x="-1" y="133.3" shape-rendering="optimizeSpeed" width="6.1" height="6.1"/>
<rect x="5.1" y="133.3" shape-rendering="optimizeSpeed" width="6.1" height="6.1"/>
<rect x="11.1" y="133.3" shape-rendering="optimizeSpeed" width="6.1" height="6.1"/>
<rect x="17.2" y="133.3" shape-rendering="optimizeSpeed" width="6.1" height="6.1"/>
<rect x="23.2" y="133.3" shape-rendering="optimizeSpeed" width="6.1" height="6.1"/>
<rect x="35.4" y="133.3" shape-rendering="optimizeSpeed" width="6.1" height="6.1"/>
<rect x="65.7" y="133.3" shape-rendering="optimizeSpeed" width="6.1" height="6.1"/>
<rect x="89.9" y="133.3" shape-rendering="optimizeSpeed" width="6.1" height="6.1"/>
<rect x="96" y="133.3" shape-rendering="optimizeSpeed" width="6.1" height="6.1"/>
<rect x="102" y="133.3" shape-rendering="optimizeSpeed" width="6.1" height="6.1"/>
<rect x="114.2" y="133.3" shape-rendering="optimizeSpeed" width="6.1" height="6.1"/>
<rect x="120.2" y="133.3" shape-rendering="optimizeSpeed" width="6.1" height="6.1"/>
<rect x="126.3" y="133.3" shape-rendering="optimizeSpeed" width="6.1" height="6.1"/>
<rect x="132.3" y="133.3" shape-rendering="optimizeSpeed" width="6.1" height="6.1"/>
<rect x="138.4" y="133.3" shape-rendering="optimizeSpeed" width="6.1" height="6.1"/>
<rect x="150.5" y="133.3" shape-rendering="optimizeSpeed" width="6.1" height="6.1"/>
<rect x="156.6" y="133.3" shape-rendering="optimizeSpeed" width="6.1" height="6.1"/>
<rect x="162.6" y="133.3" shape-rendering="optimizeSpeed" width="6.1" height="6.1"/>
<rect x="168.7" y="133.3" shape-rendering="optimizeSpeed" width="6.1" height="6.1"/>
<rect x="174.8" y="133.3" shape-rendering="optimizeSpeed" width="6.1" height="6.1"/>
<rect x="180.8" y="133.3" shape-rendering="optimizeSpeed" width="6.1" height="6.1"/>
<rect x="192.9" y="133.3" shape-rendering="optimizeSpeed" width="6.1" height="6.1"/>
<rect x="17.2" y="139.4" shape-rendering="optimizeSpeed" width="6.1" height="6.1"/>
<rect x="47.5" y="139.4" shape-rendering="optimizeSpeed" width="6.1" height="6.1"/>
<rect x="59.6" y="139.4" shape-rendering="optimizeSpeed" width="6.1" height="6.1"/>
<rect x="77.8" y="139.4" shape-rendering="optimizeSpeed" width="6.1" height="6.1"/>
<rect x="114.2" y="139.4" shape-rendering="optimizeSpeed" width="6.1" height="6.1"/>
<rect x="144.5" y="139.4" shape-rendering="optimizeSpeed" width="6.1" height="6.1"/>
<rect x="150.5" y="139.4" shape-rendering="optimizeSpeed" width="6.1" height="6.1"/>
<rect x="156.6" y="139.4" shape-rendering="optimizeSpeed" width="6.1" height="6.1"/>
<rect x="186.9" y="139.4" shape-rendering="optimizeSpeed" width="6.1" height="6.1"/>
<rect x="-1" y="145.5" shape-rendering="optimizeSpeed" width="6.1" height="6.1"/>
<rect x="5.1" y="145.5" shape-rendering="optimizeSpeed" width="6.1" height="6.1"/>
<rect x="17.2" y="145.5" shape-rendering="optimizeSpeed" width="6.1" height="6.1"/>
<rect x="29.3" y="145.5" shape-rendering="optimizeSpeed" width="6.1" height="6.1"/>
<rect x="35.4" y="145.5" shape-rendering="optimizeSpeed" width="6.1" height="6.1"/>
<rect x="41.4" y="145.5" shape-rendering="optimizeSpeed" width="6.1" height="6.1"/>
<rect x="53.5" y="145.5" shape-rendering="optimizeSpeed" width="6.1" height="6.1"/>
<rect x="65.7" y="145.5" shape-rendering="optimizeSpeed" width="6.1" height="6.1"/>
<rect x="71.7" y="145.5" shape-rendering="optimizeSpeed" width="6.1" height="6.1"/>
<rect x="77.8" y="145.5" shape-rendering="optimizeSpeed" width="6.1" height="6.1"/>
<rect x="89.9" y="145.5" shape-rendering="optimizeSpeed" width="6.1" height="6.1"/>
<rect x="96" y="145.5" shape-rendering="optimizeSpeed" width="6.1" height="6.1"/>
<rect x="108.1" y="145.5" shape-rendering="optimizeSpeed" width="6.1" height="6.1"/>
<rect x="114.2" y="145.5" shape-rendering="optimizeSpeed" width="6.1" height="6.1"/>
<rect x="138.4" y="145.5" shape-rendering="optimizeSpeed" width="6.1" height="6.1"/>
<rect x="144.5" y="145.5" shape-rendering="optimizeSpeed" width="6.1" height="6.1"/>
<rect x="150.5" y="145.5" shape-rendering="optimizeSpeed" width="6.1" height="6.1"/>
<rect x="156.6" y="145.5" shape-rendering="optimizeSpeed" width="6.1" height="6.1"/>
<rect x="162.6" y="145.5" shape-rendering="optimizeSpeed" width="6.1" height="6.1"/>
<rect x="168.7" y="145.5" shape-rendering="optimizeSpeed" width="6.1" height="6.1"/>
<rect x="174.8" y="145.5" shape-rendering="optimizeSpeed" width="6.1" height="6.1"/>
<rect x="186.9" y="145.5" shape-rendering="optimizeSpeed" width="6.1" height="6.1"/>
<rect x="47.5" y="151.5" shape-rendering="optimizeSpeed" width="6.1" height="6.1"/>
<rect x="53.5" y="151.5" shape-rendering="optimizeSpeed" width="6.1" height="6.1"/>
<rect x="71.7" y="151.5" shape-rendering="optimizeSpeed" width="6.1" height="6.1"/>
<rect x="89.9" y="151.5" shape-rendering="optimizeSpeed" width="6.1" height="6.1"/>
<rect x="120.2" y="151.5" shape-rendering="optimizeSpeed" width="6.1" height="6.1"/>
<rect x="126.3" y="151.5" shape-rendering="optimizeSpeed" width="6.1" height="6.1"/>
<rect x="144.5" y="151.5" shape-rendering="optimizeSpeed" width="6.1" height="6.1"/>
<rect x="168.7" y="151.5" shape-rendering="optimizeSpeed" width="6.1" height="6.1"/>
<rect x="186.9" y="151.5" shape-rendering="optimizeSpeed" width="6.1" height="6.1"/>
<rect x="-1" y="157.6" shape-rendering="optimizeSpeed" width="6.1" height="6.1"/>
<rect x="5.1" y="157.6" shape-rendering="optimizeSpeed" width="6.1" height="6.1"/>
<rect x="11.1" y="157.6" shape-rendering="optimizeSpeed" width="6.1" height="6.1"/>
<rect x="17.2" y="157.6" shape-rendering="optimizeSpeed" width="6.1" height="6.1"/>
<rect x="23.2" y="157.6" shape-rendering="optimizeSpeed" width="6.1" height="6.1"/>
<rect x="29.3" y="157.6" shape-rendering="optimizeSpeed" width="6.1" height="6.1"/>
<rect x="35.4" y="157.6" shape-rendering="optimizeSpeed" width="6.1" height="6.1"/>
<rect x="59.6" y="157.6" shape-rendering="optimizeSpeed" width="6.1" height="6.1"/>
<rect x="71.7" y="157.6" shape-rendering="optimizeSpeed" width="6.1" height="6.1"/>
<rect x="77.8" y="157.6" shape-rendering="optimizeSpeed" width="6.1" height="6.1"/>
<rect x="83.8" y="157.6" shape-rendering="optimizeSpeed" width="6.1" height="6.1"/>
<rect x="89.9" y="157.6" shape-rendering="optimizeSpeed" width="6.1" height="6.1"/>
<rect x="96" y="157.6" shape-rendering="optimizeSpeed" width="6.1" height="6.1"/>
<rect x="102" y="157.6" shape-rendering="optimizeSpeed" width="6.1" height="6.1"/>
<rect x="108.1" y="157.6" shape-rendering="optimizeSpeed" width="6.1" height="6.1"/>
<rect x="114.2" y="157.6" shape-rendering="optimizeSpeed" width="6.1" height="6.1"/>
<rect x="126.3" y="157.6" shape-rendering="optimizeSpeed" width="6.1" height="6.1"/>
<rect x="132.3" y="157.6" shape-rendering="optimizeSpeed" width="6.1" height="6.1"/>
<rect x="144.5" y="157.6" shape-rendering="optimizeSpeed" width="6.1" height="6.1"/>
<rect x="156.6" y="157.6" shape-rendering="optimizeSpeed" width="6.1" height="6.1"/>
<rect x="168.7" y="157.6" shape-rendering="optimizeSpeed" width="6.1" height="6.1"/>
<rect x="174.8" y="157.6" shape-rendering="optimizeSpeed" width="6.1" height="6.1"/>
<rect x="180.8" y="157.6" shape-rendering="optimizeSpeed" width="6.1" height="6.1"/>
<rect x="192.9" y="157.6" shape-rendering="optimizeSpeed" width="6.1" height="6.1"/>
<rect x="-1" y="163.6" shape-rendering="optimizeSpeed" width="6.1" height="6.1"/>
<rect x="35.4" y="163.6" shape-rendering="optimizeSpeed" width="6.1" height="6.1"/>
<rect x="47.5" y="163.6" shape-rendering="optimizeSpeed" width="6.1" height="6.1"/>
<rect x="53.5" y="163.6" shape-rendering="optimizeSpeed" width="6.1" height="6.1"/>
<rect x="59.6" y="163.6" shape-rendering="optimizeSpeed" width="6.1" height="6.1"/>
<rect x="65.7" y="163.6" shape-rendering="optimizeSpeed" width="6.1" height="6.1"/>
<rect x="71.7" y="163.6" shape-rendering="optimizeSpeed" width="6.1" height="6.1"/>
<rect x="83.8" y="163.6" shape-rendering="optimizeSpeed" width="6.1" height="6.1"/>
<rect x="89.9" y="163.6" shape-rendering="optimizeSpeed" width="6.1" height="6.1"/>
<rect x="132.3" y="163.6" shape-rendering="optimizeSpeed" width="6.1" height="6.1"/>
<rect x="138.4" y="163.6" shape-rendering="optimizeSpeed" width="6.1" height="6.1"/>
<rect x="144.5" y="163.6" shape-rendering="optimizeSpeed" width="6.1" height="6.1"/>
<rect x="168.7" y="163.6" shape-rendering="optimizeSpeed" width="6.1" height="6.1"/>
<rect x="174.8" y="163.6" shape-rendering="optimizeSpeed" width="6.1" height="6.1"/>
<rect x="192.9" y="163.6" shape-rendering="optimizeSpeed" width="6.1" height="6.1"/>
<rect x="-1" y="169.7" shape-rendering="optimizeSpeed" width="6.1" height="6.1"/>
<rect x="11.1" y="169.7" shape-rendering="optimizeSpeed" width="6.1" height="6.1"/>
<rect x="17.2" y="169.7" shape-rendering="optimizeSpeed" width="6.1" height="6.1"/>
<rect x="23.2" y="169.7" shape-rendering="optimizeSpeed" width="6.1" height="6.1"/>
<rect x="35.4" y="169.7" shape-rendering="optimizeSpeed" width="6.1" height="6.1"/>
<rect x="53.5" y="169.7" shape-rendering="optimizeSpeed" width="6.1" height="6.1"/>
<rect x="59.6" y="169.7" shape-rendering="optimizeSpeed" width="6.1" height="6.1"/>
<rect x="77.8" y="169.7" shape-rendering="optimizeSpeed" width="6.1" height="6.1"/>
<rect x="83.8" y="169.7" shape-rendering="optimizeSpeed" width="6.1" height="6.1"/>
<rect x="89.9" y="169.7" shape-rendering="optimizeSpeed" width="6.1" height="6.1"/>
<rect x="114.2" y="169.7" shape-rendering="optimizeSpeed" width="6.1" height="6.1"/>
<rect x="138.4" y="169.7" shape-rendering="optimizeSpeed" width="6.1" height="6.1"/>
<rect x="144.5" y="169.7" shape-rendering="optimizeSpeed" width="6.1" height="6.1"/>
<rect x="150.5" y="169.7" shape-rendering="optimizeSpeed" width="6.1" height="6.1"/>
<rect x="156.6" y="169.7" shape-rendering="optimizeSpeed" width="6.1" height="6.1"/>
<rect x="162.6" y="169.7" shape-rendering="optimizeSpeed" width="6.1" height="6.1"/>
<rect x="168.7" y="169.7" shape-rendering="optimizeSpeed" width="6.1" height="6.1"/>
<rect x="-1" y="175.8" shape-rendering="optimizeSpeed" width="6.1" height="6.1"/>
<rect x="11.1" y="175.8" shape-rendering="optimizeSpeed" width="6.1" height="6.1"/>
<rect x="17.2" y="175.8" shape-rendering="optimizeSpeed" width="6.1" height="6.1"/>
<rect x="23.2" y="175.8" shape-rendering="optimizeSpeed" width="6.1" height="6.1"/>
<rect x="35.4" y="175.8" shape-rendering="optimizeSpeed" width="6.1" height="6.1"/>
<rect x="53.5" y="175.8" shape-rendering="optimizeSpeed" width="6.1" height="6.1"/>
<rect x="59.6" y="175.8" shape-rendering="optimizeSpeed" width="6.1" height="6.1"/>
<rect x="77.8" y="175.8" shape-rendering="optimizeSpeed" width="6.1" height="6.1"/>
<rect x="83.8" y="175.8" shape-rendering="optimizeSpeed" width="6.1" height="6.1"/>
<rect x="89.9" y="175.8" shape-rendering="optimizeSpeed" width="6.1" height="6.1"/>
<rect x="96" y="175.8" shape-rendering="optimizeSpeed" width="6.1" height="6.1"/>
<rect x="120.2" y="175.8" shape-rendering="optimizeSpeed" width="6.1" height="6.1"/>
<rect x="132.3" y="175.8" shape-rendering="optimizeSpeed" width="6.1" height="6.1"/>
<rect x="150.5" y="175.8" shape-rendering="optimizeSpeed" width="6.1" height="6.1"/>
<rect x="168.7" y="175.8" shape-rendering="optimizeSpeed" width="6.1" height="6.1"/>
<rect x="174.8" y="175.8" shape-rendering="optimizeSpeed" width="6.1" height="6.1"/>
<rect x="186.9" y="175.8" shape-rendering="optimizeSpeed" width="6.1" height="6.1"/>
<rect x="192.9" y="175.8" shape-rendering="optimizeSpeed" width="6.1" height="6.1"/>
<rect x="-1" y="181.8" shape-rendering="optimizeSpeed" width="6.1" height="6.1"/>
<rect x="11.1" y="181.8" shape-rendering="optimizeSpeed" width="6.1" height="6.1"/>
<rect x="17.2" y="181.8" shape-rendering="optimizeSpeed" width="6.1" height="6.1"/>
<rect x="23.2" y="181.8" shape-rendering="optimizeSpeed" width="6.1" height="6.1"/>
<rect x="35.4" y="181.8" shape-rendering="optimizeSpeed" width="6.1" height="6.1"/>
<rect x="47.5" y="181.8" shape-rendering="optimizeSpeed" width="6.1" height="6.1"/>
<rect x="65.7" y="181.8" shape-rendering="optimizeSpeed" width="6.1" height="6.1"/>
<rect x="89.9" y="181.8" shape-rendering="optimizeSpeed" width="6.1" height="6.1"/>
<rect x="114.2" y="181.8" shape-rendering="optimizeSpeed" width="6.1" height="6.1"/>
<rect x="120.2" y="181.8" shape-rendering="optimizeSpeed" width="6.1" height="6.1"/>
<rect x="132.3" y="181.8" shape-rendering="optimizeSpeed" width="6.1" height="6.1"/>
<rect x="162.6" y="181.8" shape-rendering="optimizeSpeed" width="6.1" height="6.1"/>
<rect x="168.7" y="181.8" shape-rendering="optimizeSpeed" width="6.1" height="6.1"/>
<rect x="174.8" y="181.8" shape-rendering="optimizeSpeed" width="6.1" height="6.1"/>
<rect x="180.8" y="181.8" shape-rendering="optimizeSpeed" width="6.1" height="6.1"/>
<rect x="186.9" y="181.8" shape-rendering="optimizeSpeed" width="6.1" height="6.1"/>
<rect x="192.9" y="181.8" shape-rendering="optimizeSpeed" width="6.1" height="6.1"/>
<rect x="-1" y="187.9" shape-rendering="optimizeSpeed" width="6.1" height="6.1"/>
<rect x="35.4" y="187.9" shape-rendering="optimizeSpeed" width="6.1" height="6.1"/>
<rect x="47.5" y="187.9" shape-rendering="optimizeSpeed" width="6.1" height="6.1"/>
<rect x="59.6" y="187.9" shape-rendering="optimizeSpeed" width="6.1" height="6.1"/>
<rect x="77.8" y="187.9" shape-rendering="optimizeSpeed" width="6.1" height="6.1"/>
<rect x="89.9" y="187.9" shape-rendering="optimizeSpeed" width="6.1" height="6.1"/>
<rect x="96" y="187.9" shape-rendering="optimizeSpeed" width="6.1" height="6.1"/>
<rect x="132.3" y="187.9" shape-rendering="optimizeSpeed" width="6.1" height="6.1"/>
<rect x="144.5" y="187.9" shape-rendering="optimizeSpeed" width="6.1" height="6.1"/>
<rect x="162.6" y="187.9" shape-rendering="optimizeSpeed" width="6.1" height="6.1"/>
<rect x="168.7" y="187.9" shape-rendering="optimizeSpeed" width="6.1" height="6.1"/>
<rect x="174.8" y="187.9" shape-rendering="optimizeSpeed" width="6.1" height="6.1"/>
<rect x="-1" y="193.9" shape-rendering="optimizeSpeed" width="6.1" height="6.1"/>
<rect x="5.1" y="193.9" shape-rendering="optimizeSpeed" width="6.1" height="6.1"/>
<rect x="11.1" y="193.9" shape-rendering="optimizeSpeed" width="6.1" height="6.1"/>
<rect x="17.2" y="193.9" shape-rendering="optimizeSpeed" width="6.1" height="6.1"/>
<rect x="23.2" y="193.9" shape-rendering="optimizeSpeed" width="6.1" height="6.1"/>
<rect x="29.3" y="193.9" shape-rendering="optimizeSpeed" width="6.1" height="6.1"/>
<rect x="35.4" y="193.9" shape-rendering="optimizeSpeed" width="6.1" height="6.1"/>
<rect x="47.5" y="193.9" shape-rendering="optimizeSpeed" width="6.1" height="6.1"/>
<rect x="59.6" y="193.9" shape-rendering="optimizeSpeed" width="6.1" height="6.1"/>
<rect x="65.7" y="193.9" shape-rendering="optimizeSpeed" width="6.1" height="6.1"/>
<rect x="71.7" y="193.9" shape-rendering="optimizeSpeed" width="6.1" height="6.1"/>
<rect x="77.8" y="193.9" shape-rendering="optimizeSpeed" width="6.1" height="6.1"/>
<rect x="96" y="193.9" shape-rendering="optimizeSpeed" width="6.1" height="6.1"/>
<rect x="114.2" y="193.9" shape-rendering="optimizeSpeed" width="6.1" height="6.1"/>
<rect x="120.2" y="193.9" shape-rendering="optimizeSpeed" width="6.1" height="6.1"/>
<rect x="132.3" y="193.9" shape-rendering="optimizeSpeed" width="6.1" height="6.1"/>
<rect x="144.5" y="193.9" shape-rendering="optimizeSpeed" width="6.1" height="6.1"/>
<rect x="174.8" y="193.9" shape-rendering="optimizeSpeed" width="6.1" height="6.1"/>
<rect x="192.9" y="193.9" shape-rendering="optimizeSpeed" width="6.1" height="6.1"/>
</svg>
