<?xml version="1.0" encoding="utf-8"?>
<!-- Generator: Adobe Illustrator 21.0.0, SVG Export Plug-In . SVG Version: 6.00 Build 0)  -->
<svg version="1.1" id="Layer_1" xmlns="http://www.w3.org/2000/svg" xmlns:xlink="http://www.w3.org/1999/xlink" x="0px" y="0px"
	 viewBox="0 0 500 500" style="enable-background:new 0 0 500 500;" xml:space="preserve">
<style type="text/css">
	.st0{fill:#010100;}
	.st1{fill:#095596;}
	.st2{fill:#F6F2F0;}
	.st3{fill:#CFA45D;}
	.st4{fill:#9C7831;}
	.st5{fill:#A0A2A5;}
</style>
<rect class="st0" width="500" height="500"/>
<g>
	<g id="_x33_1IuZb.tif">
		<g>
			<path class="st0" d="M175.1,238.2c-2.8-0.1-5.6,0-8.4,0.4c-4.6,0.7-8.5,2.5-11.3,6.3c-1,0.5-2,1-3,1.6c-3.1,2-3.6,4.5-1.5,7.6
				c1.4,2,3.3,3.5,5.5,4.8c0.1-1-0.2-1.7-0.5-2.4c-0.5-1.4-1.2-2.7-1.5-4.2c-0.2-0.9-0.6-2.2,0.3-2.6c0.6-0.3,1.2,0.9,1.8,1.4
				c0.2,0.1,0.3,0.4,0.5,0.5c3.1,3.7,5.6,3.9,8.9,0.5c2.8-2.9,5.9-5.3,9.3-7.5c6.2-4,13.6-3.2,18.9,2c2.5,2.5,4.1,5.3,4.4,9
				c-2.7-0.4-3.8-4.1-7.2-2.7c1.6,2.3,3,4.6,3.9,7.1c1,3,1.4,6,1.5,9.1c0.1,2.9,1.4,3.8,4.2,3.4c0.8-0.1,1.5-0.3,2.3-0.2
				c1.3,0.1,1.7,1,1.2,2.2c-0.9,0.3-1.8,0.7-2.7,1c-2.5-0.1-4.7,0.8-6.7,2c-2.7,1.5-5.4,3.2-8.1,4.8c-1.3,0.7-2.6,1.3-4.1,0.6
				c-5.3-2.2-10.7-4.1-17-3.7c0.7-0.6,1-0.9,1.4-1.2c2.5-1.9,3.2-4.5,2.4-7.5c-0.5-1.9-1.3-3.7-2.1-5.5c-0.9-1.9-1.9-2.2-3.7-1.1
				c-6.7,4.2-12.7,9.3-18.1,14.9c-1.8,1.9-1.7,3.1,0.4,4.7c3.2,2.4,6.2,5,9.1,7.8c2.4,2.4,4.8,4.8,7.2,7.2c1.3,2.9,1.5,5.9,0.6,8.9
				c-1.1,3.7-2.4,7.3-3.6,11c-0.5,1.4-1.3,2.7-2.3,3.7c-0.9,0.9-1.9,1.6-3.3,1.1c-1.4-0.5-1.9-1.6-2-2.9c-0.2-2.2-0.2-4.4-0.2-6.6
				c0-0.7,0.1-1.6,1.2-1.8c0.1,0.2,0.2,0.4,0.2,0.7c0.1,0.8,0.4,1.5,1.3,1.4c0.8-0.1,0.6-1,0.6-1.5c0.2-3,0.6-5.9,0.5-8.9
				c0-0.9-0.1-1.9-1.1-2.2c-1-0.4-1.8,0.2-2.4,1.1c-2.3,3.4-4.2,7-5.8,10.8c-0.4,0.9-0.4,1.8-0.1,2.7c1.1,3.2,1,6.4-0.1,9.6
				c-0.8,2.4-2.3,4.4-3.4,6.6c-2.3,1.8-3.6,4-3,6.9c0.3,1.3,1,1.7,2.2,1c1.3-0.7,2.4-1.8,3.2-3c0.6-1,1.2-1,1.9,0
				c1,1.5,2,2.9,3.1,4.4c0.9-1,0.7-2.4,1.8-2.9c1.1-0.5,1.9-1.4,2.7-2.3c2.6-2.7,3.8-2.6,5.8,0.5c0.1,0.2,0.2,0.4,0.4,0.6
				c0.6,1,1.5,1.1,2.2,0.3c1.9-2.1,4.9-2.9,6.7-5.2c0.9-1.2,2.1-0.9,3,0.2c0.8,1,1.5,2,1.9,3.2c0.4,1.2,1.1,1.5,2.4,1.1
				c6.7-2.4,9.9-11.6,6-17.6c-0.5-0.8-0.8-0.7-1.4-0.1c-1,1.1-1.6,2.4-2.2,3.6c-0.7,1.4-1.4,2.9-2.8,4c0-2.9,0.6-5.7,1.1-8.4
				c1-5.4,1.6-10.8-0.8-16.1c0.1-0.1,0.2-0.2,0.3-0.3c1,1.1,2,2.2,2.9,3.3c3.5,4.2,7,8.4,11.8,11.3c1.2,0.7,1.7,1.1,2.1-0.8
				c1.7-7.8,6.1-13,14.4-14.6c4.9-0.9,7-3.8,7.2-8.8c0-0.7,0-1.4,0-2.1c1.7-4.5,2.2-9.2,2.3-14c0.2-8.4-1-16.7-1.8-25
				c-0.5-5-3.8-8.4-8.7-9.3c-3.1-0.6-6.3-1.1-9.5-1.6C190,238.5,182.6,237.8,175.1,238.2z M151.2,415.6c0.3,0.7-0.3,1.1-0.6,1.5
				c-0.4,0.5-0.8,0.9-1,1.4c-0.3,0.7-0.4,1.6,0.3,2.1c0.6,0.4,1-0.3,1.5-0.7c12.1-8.5,24.5-16.7,37.1-24.4c2.5-1.5,4-3.7,4.5-6.5
				c0.2-1,0.3-2,0.4-3c0.3-2.4,0-2.7-2.4-2.7c-1,0-2.4,0.5-2.8-0.5c-0.5-1,0.9-1.7,1.4-2.4c1.8-2.1,2.8-4.4,1.8-7.2
				c-0.3-0.8-0.5-1.3-1.6-1c-1.8,0.5-3.7,0.9-5.6,1.2c-4,0.8-7.9,1.6-11.2,4.3c-0.5,0.4-1,0.4-1.5,0.2c-4.1-0.9-4.5-0.8-6.8,2.5
				c-3.8,0-7.1,1.6-10.4,3.4c-4.2,2.4-4.3,2.6-3,7.3c2.1,7.6,2.4,15.1-0.7,22.5C150.4,414.5,150.6,415.1,151.2,415.6z M348.3,340.4
				c0.6-2.2,1.8-4.1,3.2-5.9c1.9-2.5,3.8-5,5.3-7.8c1.2-2.2,1.1-3.3-0.5-5.2c-1.3-1.4-2.7-2.7-4.1-3.9c-1.6-1.3-2.7-1.1-3.6,0.7
				c-2.6,5.3-6,10.1-8.7,15.3c-1.8,3.4-4.6,5-8.5,4.7c-0.5,0-1.1,0.1-1.3-0.4c-0.2-0.5,0.3-0.9,0.5-1.2c2.8-4.2,5.5-8.5,7.9-12.9
				c2-3.7,3.9-7.5,5.5-11.4c0.7-1.7,0.2-2.8-1.3-3.3c-1.4-0.4-2,0.2-2.5,1.5c-3.6,9.8-9.2,18.4-16.4,25.8c-3,3.1-3.1,4.2-0.6,7.7
				c8.7,12.3,17.4,24.5,26.1,36.8c0.9,1.2,1.9,2.4,2.5,4c-6.2,0-12.2,0-18.2,0c-0.1,0-0.3,0-0.4,0c-0.3,0-0.7,0-1,0
				c-1.2-0.3-2.5-0.2-3.7-0.1c-4.7,0.4-9.3,1.4-13.9,2.3c-4.1,0.8-5.5,0-7.1-3.8c-5.4-13.5-11-26.9-16.9-40.1c-1.4-3.1-1.3-6,0.5-9
				c2.3-3.8,4.4-7.6,6.6-11.4c5.8-10.2,11.1-20.5,14.1-31.9c0.7-2.7,0.3-3.8-2.1-5.2c-4.9-2.8-9.8-5.6-14.8-8.3
				c-4.7-2.6-9.5-5.1-14.7-6.8c-1.2-0.7-2.3-1.5-3.5-2.2c-2-1.1-2.9-0.7-3.6,1.5c-0.7,2.3-1.3,4.7-1.9,7.1
				c-3.9,15.7-7.2,31.5-11.9,47c-3.8,12.6-3.5,24.9,0.4,37.4c4.3,13.9,11.2,26.6,17.9,39.4c0.9,1.7,2.3,2.8,4.3,2.9
				c7.9,0.2,15.7,0.3,23.5-1.3c11.3-2.4,22.5-5.7,33.9-7.8c9.2-1.7,18.5-2.9,27.8-2.7c8,0.4,16,0.9,24.3,1.3
				C376.9,375.4,362.6,357.9,348.3,340.4z M104.6,354c0.3-0.2,0.5-0.5,0.8-0.7c5.5-6.7,10.8-13.5,16.6-19.9
				c3.8-4.1,4.9-8.9,4.3-14.2c-1.3-12.3-1.4-24.5,0.8-36.6c2.4-13.1,7.1-25.3,15.4-35.9c7-8.8,15.9-14.1,27.2-15.5
				c7.2-0.9,14.4,0,21.5,1.1c12.2,1.7,24.1,4.9,35.8,8.6c17.4,5.6,34.1,12.6,50.6,20.4c20.1,9.4,39.5,20.1,57.4,33.2
				c8.4,6.1,16.4,12.8,24,20c2,1.8,4.2,3.6,7,2.6c4.9-1.8,8.3-5.2,9.6-10.4c1-2,1.7-4,2.2-6.2c0.5-2.1-0.1-3.9-1.5-5.4
				c-1.7-1.8-3.7-3.2-5.7-4.6c-42.1-30.9-88-54.5-138.1-69.5c-25.8-7.7-52.1-11.8-79-12.3c-2.8,0-3.7-0.7-4.4-3.4
				c-1.4-5.8-2.8-11.6-4.2-17.5c-1-4.2-2.1-8.4-3.2-13c-0.5,1.1-0.7,1.7-1,2.4c-8,19.7-15.4,39.6-22,59.8
				c-6.9,21.1-12.8,42.5-17.3,64.3c-3.2,15.1-5.7,30.4-7.4,45.7c-0.7,6.6-1.4,13.1-1.7,19.7c0,0.7-0.1,1.3,0.7,1.6
				c0.6,0.2,1,0.1,1.4-0.4C97.8,363.2,101.3,358.6,104.6,354z M213.8,437.8c-0.1-0.1-0.2-0.2-0.3-0.3c0.3-1,0.5-2.1,0.8-3.1
				c3.5-12.7,7.3-25.2,9.8-38.1c3-15.1,5.8-30.2,8.3-45.4c2.4-14.2,4.6-28.4,6.7-42.6c1.8-11.9,3.5-23.9,5.3-35.8
				c0.6-4.3,1.5-8.6,1.5-12.9c0-2.3-0.7-4.2-2.8-5.4c-3.4-1.9-7.1-3-10.9-3.9c-1.5-0.4-2.4,0.4-2.8,1.8c-0.2,0.6-0.3,1.3-0.5,1.9
				c-2.2,13-4.3,25.9-6.5,38.9c-3.4,19.7-7.3,39.3-11.8,58.7c-5.9,25.3-12.9,50.3-23,74.2c-9.2,21.8-17.8,43.8-27.1,65.5
				c-0.2,0.4-0.2,0.7,0.1,1c0.4,0.4,0.6-0.1,0.9-0.3c2.3-1.5,4.5-3.3,6.6-5.1c12.5-10.3,25-20.6,37.5-30.9
				c15.4-12.7,30.8-25.3,46.3-38c1.6-1.3,2.5-2.8,2.1-5c-0.2-1-0.4-2-0.7-3c-2.9-11.1-5-22.4-5.8-33.9c-1-13.9,1-27.5,4-41.1
				c4.6-20.5,9.9-40.9,15.4-61.2c0.6-2.1,1.2-4.1,1.8-6.2c0.5-1.9-0.1-3.2-1.9-3.5c-1.8-0.3-2.6,0.4-2.8,2.5
				c-0.1,0.8-0.2,1.5-0.3,2.3c-5.5,21.9-10.9,43.8-16.4,65.7c-3.4,13.5-5.8,27.2-6.1,41.2c-0.2,9.4,0.8,18.6,2.9,27.8
				c1.1,5,0.8,9.8-2.9,13.9c-1.5,1.6-3.2,2.9-5,4c-3.6,2.2-6.9,4.6-10.3,7.1C221.8,431.8,218,435.1,213.8,437.8z M308.9,171.4
				c3.9,1.5,7.6,3.3,10.9,5.9c13.4,10.5,24.9,22.7,33.5,37.4c9.7,16.6,13.4,34.5,11.1,53.6c-0.7,5.8,1.2,10.6,6.5,13.5
				c0.7,0.4,1.4,0.8,2.1,1.3c2.4,1.9,3.3,1.6,3.8-1.5c1-5.8,1.5-11.6,1.6-17.4c0.1-10.2-1.9-20.1-4.6-29.8
				c-7.2-25.7-21.1-47-43.4-62.1c-23.9-16.2-50.5-24.3-79.5-23.7c-11.3,0.3-22.3,2.5-32.9,6.4c-13.2,4.8-25.1,12-35.9,20.9
				c-8.2,6.8-15.8,14.1-21.2,23.4c-0.3,0.6-1,1.1-0.7,1.9c2.8,0.2,5.5,0,8.2,0.7c4.8,1.2,8.3-0.4,11.2-4.2
				c5.6-7.5,11.9-14.3,19.3-20c18.2-14.1,39.1-19.6,61.7-19.1c-0.1,0.5-0.6,0.5-1,0.7c-4.8,2.8-9.6,5.6-14.4,8.3
				c-11.7,6.7-22,15.1-29.8,26.2c-2.4,3.4-4.6,6.8-6.3,10.6c-0.9,1.9-0.4,2.8,1.6,3.5c0.4,0.1,0.8,0.2,1.2,0.3
				c15.3,3.5,30.4,7.8,45.2,13.1c21.7,7.7,42.6,17.3,62.8,28.4c4.1,2.3,5.3,1.7,5.9-3c1.7-11.7,1.9-23.5-0.4-35.2
				c-2.4-12.5-7.1-24.1-14.4-34.7C310.1,175.4,309.1,173.6,308.9,171.4z M385.2,131c-0.1-0.1-0.1-0.1-0.2-0.2c0.2-0.5,0.4-1,0.7-1.4
				c3.6-6.2,7.3-12.4,10.9-18.7c1.6-2.7,1.5-4.6-0.4-6.7c-2.2-2.5-4.4-5-6.7-7.4c-9.5-10-20-18.9-31.3-26.7
				c-4.2-2.9-8.4-5.6-12.8-8.1c-2-1.1-3-0.7-3.8,1.4c-0.1,0.4-0.3,0.8-0.4,1.2c-2.7,9.1-5.4,18.1-8.2,27.2c-0.4,1.4-1,2.7-2.2,4
				c-0.1-1.9,0.1-3.5,0.2-5.1c0.5-9.7,1.7-19.4,2.5-29.1c0.3-4-0.7-6.1-4.3-7.8c-13.1-6.2-26.7-10.7-40.7-14.1
				c-12.1-2.9-24.4-4.5-36.7-6.1c-3.6-0.5-4.7,0.6-4.4,4.2c0,0.4,0,0.7,0.1,1.1c1,4.2,1.9,8.3,2.6,12.6c0.7,4.2,1.1,8.5,0.7,13.3
				c-0.3-0.7-0.5-0.9-0.6-1.2c-3.5-8.5-7-16.9-10.5-25.4c-1.8-4.5-3.7-5.8-8.6-5.7c-4.2,0.1-8.3,0.5-12.5,0.7
				c-6.7,0.3-13.4,1-20.1,1.9c-9.9,1.3-19.8,3.1-29.6,5.6c-6.2,1.6-12.5,3.2-18.5,5.3c-3.5,1.2-3.8,2.7-1.5,5.6
				c0.1,0.1,0.2,0.2,0.2,0.3c4.4,5.4,9.3,10.6,13.4,16.3c1.6,2.3,3.3,4.6,4.6,7.3c-1-0.1-1.5-0.6-2-0.9c-4.8-3.1-9-6.8-13.3-10.5
				c-3.7-3.2-7.2-6.6-11.3-9.3c-3.2-2.2-6.6-2.5-10.1-0.8c-9.4,4.6-18.8,9.3-27.8,14.6c-2.7,1.6-5.4,3.3-8.4,5.1
				c0.8,0.4,1.2,0.6,1.6,0.7c9.1,3.7,18.4,7,27.2,11.2c14.4,6.9,27.8,15.5,40.2,25.5c10.3,8.3,20.8,16.4,29.3,26.6
				c0.6,0.7,1.1,0.5,1.7,0.2c2.2-1.3,4.4-2.6,6.7-3.8c18.9-10.4,38.9-15.8,60.6-14.8c12.5,0.6,24.6,3.1,36.4,7.3
				c18.5,6.5,35.2,16,49.5,29.6c10,9.4,18.4,20.1,25.9,31.6c11.2,17.2,19.7,35.6,23.7,55.9c1.2,6.1,1.9,12.2,2.3,18.4
				c0.3,6,0.5,11.9-0.4,17.8c-0.3,1.9-0.7,3.7-0.9,5.6c-0.2,2-0.1,3.8,2.1,4.8c0.8,0.4,1,1.2,1.4,2c5.6,13.9,11.2,27.8,16.8,41.8
				c0.7,1.6,1.4,3.2,2.5,4.8c0.8-1.2,1.6-2.2,2.2-3.3c0.9-1.7,1.9-3.3,2.6-5.1c6.3-15.5,11.5-31.4,15-47.8c0.6-2.7-0.1-5-2.3-6.9
				c-3.5-3.1-7-6.2-10.1-9.6c-1.5-1.6-3.2-3-4.2-5l0,0c0.8-0.1,1.5,0,2.3,0.2c3.4,0.8,6.1,2.8,8.8,4.9c1.5,1.2,3,2.6,4.8,3.4
				c1.6,0.8,2.6,0.3,3.1-1.4c0.4-1.4,0.3-2.8,0.4-4.3c0.6-6.6,1.5-13.2,1.4-19.9c-0.1-4.8-1-6-5.6-6.9c-4.6-1-9.2-2.2-13.9-3.8
				c0.9-0.4,1.6-0.5,2.3-0.5c4-0.1,8,0,11.9,0.9c2.5,0.6,4.2-0.2,4.9-2.1c0.4-1,0.4-2.1,0.3-3.2c-0.4-6.9-1.2-13.8-2.2-20.7
				c-1.1-7.9-2.7-15.8-4.7-23.6c-0.9-3.5-2.4-4.1-5.7-2.5c-2.5,1.2-4.9,2.5-7.3,3.7c-2.5,1.2-5.2,1.8-8.3,1.2c0.5-0.4,0.7-0.6,1-0.8
				c4.3-3,8.5-6.1,12.8-9.1c3.4-2.4,4-4.2,2.7-8.1c-6.7-18.9-16-36.5-27.8-52.7c-1.3-1.8-1.3-1.7-3-0.2c-3.7,3.3-6.5,7.4-10.1,10.8
				C390.1,128.1,388,130.1,385.2,131z M454.1,265.7c0.1-0.4,0.2-0.6,0.2-0.9c2.1-11.9,3.1-23.8,3.1-35.9c0-14-1.2-27.9-3.7-41.7
				c-3.1-17.5-8.2-34.3-15.6-50.4c-16.4-35.8-40.8-64.9-73.1-87.4c-21.3-14.9-44.6-25.5-69.8-32c-12.2-3.1-24.7-5.1-37.3-6
				c-9.2-0.7-18.3-0.7-27.5-0.2c-10.9,0.7-21.7,2.2-32.5,4.2c-19.6,3.5-38.8,8.8-57.4,15.8c-29.8,11.2-57.4,26.4-83.1,45
				c-2.4,1.7-4.8,3.6-7.1,5.8c0.9,0.1,1.5,0.2,2.2,0.2C61.3,83,70,83.8,78.8,85c15.1,2.1,29.7,5.9,43.9,11.1
				c0.9,0.3,2.2,0.9,2.6,0.1c0.5-1.1-0.8-1.8-1.7-2.3c-3.3-1.9-6.7-3.8-10.1-5.7c-10-5.6-20.4-10.6-31.1-15.2c0.4-0.3,0.7-0.5,1-0.7
				C103.5,58.5,125.4,48,148.5,40c25.6-8.8,52-13.7,78.9-16.1c10.1-0.9,20.3-1.4,30.5-1.2c10.8,0.2,21.6,1.2,32.2,3.5
				c15.2,3.3,29.8,8.3,44,14.8c29.5,13.5,54.2,33,73.8,59c12.6,16.7,22.3,35.1,30,54.5c7.1,17.9,12,36.3,13.7,55.5
				c1,10.7,1.4,21.4,1.4,32.1c0,6.8,0.4,13.6-0.3,20.4C452.6,263.7,452.9,264.8,454.1,265.7z M137.2,367.2c2.2-0.9,4.3-1.8,6.3-2.6
				c1.2-0.5,1.8-1.4,2-2.9c0.3-2.6,0.8-5.1,1.2-7.7c0.6-3.9,0.7-7.7-1-11.3c-0.5-1-0.9-1.1-1.7-0.3c-2.7,2.5-4.6,5.4-5.6,8.9
				C136.8,356.4,137.3,361.7,137.2,367.2z M171.8,346.4c0.3-2.2-0.4-4.6-0.4-6.9c0-0.9-0.2-1.8-1.1-2.2c-1-0.5-1.9-0.2-2.7,0.4
				c-0.5,0.4-1,0.9-1.4,1.4c-3.8,4.9-4.2,10.8-4.6,16.7c-0.1,1,0.6,1.5,1.6,1.5c1.3,0.1,2.6-0.2,3.9-0.5c2.7-0.6,4-2,4.4-4.7
				C171.7,350.2,172,348.4,171.8,346.4z M149.5,356.2c0,4.6,0,4.6,3.8,4.3c0.3,0,0.6,0,0.9,0c2.2-0.3,3.1-1.2,3.3-3.5
				c0.1-0.8,0.2-1.5,0.3-2.3c0.7-4.5,1.6-9,0.5-13.6c-0.5-1.9-2-2.6-3.6-1.4c-1,0.7-1.6,1.8-2.1,2.8
				C150,347.1,149.9,352.1,149.5,356.2z M200.5,344c0-1.8,0.1-3.6-0.4-5.3c-0.6-2.2-2.8-4.2-4.8-4.2c-2.2,0-3.1,1.6-4,3.3
				c-1.8,3.5-1.5,7.4-1.6,11.1c0,0.8,0.6,1.4,1.4,1.2c2.2-0.4,4.4,0.1,6.6,0c1.8-0.1,2.7-0.9,2.9-2.7
				C200.6,346.3,200.5,345.2,200.5,344z M170,359.8c-5.3,0-7.5,3.4-5.1,8.2c1.2,2.4,2.8,4.5,4.9,6c3,2.1,5.8,1,6.4-2.6
				c0.4-2.3-0.6-4.4-0.8-6.7C175.2,361.1,173.6,359.8,170,359.8z M186.5,347.1c-0.2-2.9-0.8-6.1-1.3-9.2c-0.3-1.9-1.6-2.5-3.4-1.7
				c-0.9,0.4-1.5,1-2,1.8c-2.8,4.6-3.7,9.5-3,14.9c0.1,0.8,0.4,1,1.1,0.9c1.6-0.4,3.3-0.6,4.9-1.1
				C185.9,351.6,186.6,350.5,186.5,347.1z M136.3,280.4c0.8-1,1.7-2,2.5-3c3.2-3.8,6.4-7.5,9.5-11.3c2.1-2.6,1.9-4.4-0.6-6.5
				c-0.7-0.6-1.5-1.2-2.2-1.8c-1.1-0.9-2-0.6-2.5,0.6c-1.8,3.8-3.9,7.5-5.1,11.5C136.8,273.3,136,276.7,136.3,280.4z M187.5,361.8
				c0-4.4-0.6-5.1-5-5.2c-0.5,0-1.1,0-1.6,0c-2.4,0.1-3.8,1.5-3.5,3.9c0.4,3.9,2.1,7.2,5,9.7c2.1,1.9,4.5,0.9,5.2-1.9
				C188.3,366.1,187.4,364,187.5,361.8z M200.8,358.4C200.8,358.4,200.8,358.4,200.8,358.4c0-0.4,0-0.8,0-1.2
				c0.3-2.9-0.7-3.9-3.6-3.4c-1.4,0.2-2.8,0.5-4.2,0.4c-1.4-0.1-2.5,0.8-2.4,2.3c0.2,2.7,0.3,5.5,1.7,7.9c1,1.7,2.6,2.5,4.7,2.2
				c1.9-0.3,3-1.5,3.3-3.3C200.6,361.7,200.6,360,200.8,358.4z M161.4,377.7c2,0,4.4-2.4,3.6-3.8c-1.6-3.1-2.9-6.2-5-9
				c-0.7-0.9-1.5-1.3-2.6-0.9c-1.5,0.6-3,1.1-4.5,1.7c-1,0.4-1,1.2-0.6,1.9c1.5,3.1,3,6.2,5.7,8.5
				C159.1,376.9,160.1,377.7,161.4,377.7z M151.3,382.2c2.1,0.2,3-0.6,3.7-1.7c0.3-0.6,0.6-1.1,0.1-1.8c-2.6-2.8-4.5-6.1-6.3-9.5
				c-0.3-0.6-0.7-0.7-1.3-0.5c-1.6,0.6-3.2,1.2-4.8,2c-0.9,0.4-1.3,1.1-0.7,2.2c1.3,2.1,2.4,4.2,4.1,6
				C147.7,380.7,149.6,382,151.3,382.2z"/>
			<path class="st1" d="M424,260.7c1,2,2.7,3.4,4.2,5c3.2,3.4,6.7,6.5,10.1,9.6c2.2,1.9,2.9,4.1,2.3,6.9c-3.5,16.4-8.7,32.3-15,47.8
				c-0.7,1.8-1.7,3.4-2.6,5.1c-0.6,1.1-1.4,2.1-2.2,3.3c-1.1-1.6-1.8-3.2-2.5-4.8c-5.6-13.9-11.2-27.8-16.8-41.8
				c-0.3-0.8-0.6-1.7-1.4-2c-2.2-1-2.3-2.8-2.1-4.8c0.2-1.9,0.6-3.8,0.9-5.6c0.9-5.9,0.7-11.9,0.4-17.8c-0.3-6.2-1.1-12.3-2.3-18.4
				c-4-20.3-12.5-38.6-23.7-55.9c-7.5-11.5-15.9-22.1-25.9-31.6c-14.3-13.5-31-23.1-49.5-29.6c-11.8-4.1-23.9-6.7-36.4-7.3
				c-21.7-1-41.7,4.4-60.6,14.8c-2.2,1.2-4.4,2.5-6.7,3.8c-0.6,0.3-1.1,0.5-1.7-0.2c-8.5-10.2-19-18.3-29.3-26.6
				c-12.4-10-25.8-18.6-40.2-25.5C114.3,81,105.1,77.7,96,74c-0.4-0.2-0.8-0.4-1.6-0.7c3-1.8,5.7-3.5,8.4-5.1
				c9-5.3,18.4-10.1,27.8-14.6c3.5-1.7,6.9-1.5,10.1,0.8c4,2.8,7.6,6.1,11.3,9.3c4.3,3.7,8.5,7.4,13.3,10.5c0.5,0.3,1,0.8,2,0.9
				c-1.3-2.7-3-5-4.6-7.3c-4.1-5.7-9-10.8-13.4-16.3c-0.1-0.1-0.2-0.2-0.2-0.3c-2.2-2.8-1.9-4.3,1.5-5.6c6-2.2,12.3-3.8,18.5-5.3
				c9.8-2.4,19.6-4.2,29.6-5.6c6.7-0.9,13.3-1.6,20.1-1.9c4.2-0.2,8.3-0.5,12.5-0.7c4.8-0.2,6.7,1.2,8.6,5.7
				c3.5,8.5,7,16.9,10.5,25.4c0.1,0.3,0.2,0.5,0.6,1.2c0.3-4.7,0-9-0.7-13.3c-0.7-4.2-1.6-8.4-2.6-12.6c-0.1-0.3-0.1-0.7-0.1-1.1
				c-0.3-3.6,0.8-4.7,4.4-4.2c12.3,1.6,24.6,3.1,36.7,6.1c14,3.4,27.7,8,40.7,14.1c3.6,1.7,4.6,3.8,4.3,7.8
				c-0.8,9.7-2,19.4-2.5,29.1c-0.1,1.6-0.3,3.2-0.2,5.1c1.2-1.3,1.7-2.6,2.2-4c2.7-9,5.5-18.1,8.2-27.2c0.1-0.4,0.2-0.8,0.4-1.2
				c0.8-2.2,1.8-2.6,3.8-1.4c4.4,2.5,8.7,5.2,12.8,8.1c11.4,7.8,21.8,16.7,31.3,26.7c2.3,2.4,4.5,4.9,6.7,7.4c1.9,2.2,2,4,0.4,6.7
				c-3.6,6.2-7.3,12.4-10.9,18.7c-0.3,0.5-0.4,1-0.7,1.4c-0.1,0.1-0.2,0.2-0.2,0.2c0.2,0.2,0.3,0.1,0.4-0.1c2.8-0.9,4.9-2.9,7-4.8
				c3.6-3.4,6.4-7.5,10.1-10.8c1.7-1.5,1.7-1.6,3,0.2c11.8,16.2,21.1,33.8,27.8,52.7c1.4,3.9,0.7,5.7-2.7,8.1c-4.3,3-8.6,6-12.8,9.1
				c-0.3,0.2-0.5,0.4-1,0.8c3.1,0.5,5.8-0.1,8.3-1.2c2.5-1.1,4.9-2.5,7.3-3.7c3.3-1.6,4.8-1,5.7,2.5c2,7.8,3.6,15.6,4.7,23.6
				c1,6.9,1.8,13.8,2.2,20.7c0.1,1.1,0.1,2.1-0.3,3.2c-0.7,1.8-2.5,2.6-4.9,2.1c-3.9-0.9-7.9-1-11.9-0.9c-0.7,0-1.4,0.1-2.3,0.5
				c4.6,1.6,9.2,2.9,13.9,3.8c4.6,1,5.6,2.2,5.6,6.9c0.1,6.7-0.8,13.3-1.4,19.9c-0.1,1.4,0,2.9-0.4,4.3c-0.5,1.7-1.5,2.2-3.1,1.4
				c-1.8-0.9-3.2-2.2-4.8-3.4c-2.7-2.1-5.4-4.1-8.8-4.9C425.6,260.7,424.8,260.6,424,260.7c0-0.1,0-0.1,0-0.1c0,0-0.1,0.1-0.1,0.1
				C424,260.7,424,260.7,424,260.7z M167.4,75.7c0,0,0.1-0.1,0.1-0.1c0,0-0.1-0.1-0.1-0.1c0,0-0.1,0.1-0.1,0.1
				C167.4,75.7,167.4,75.7,167.4,75.7z"/>
			<path class="st2" d="M454.1,265.7c-1.2-0.9-1.4-2-1.3-3.1c0.6-6.8,0.3-13.6,0.3-20.4c0-10.7-0.5-21.4-1.4-32.1
				c-1.7-19.2-6.6-37.6-13.7-55.5c-7.7-19.4-17.3-37.8-30-54.5c-19.6-26-44.3-45.5-73.8-59c-14.1-6.5-28.8-11.5-44-14.8
				c-10.6-2.3-21.4-3.3-32.2-3.5c-10.2-0.2-20.4,0.3-30.5,1.2c-26.9,2.4-53.3,7.3-78.9,16.1c-23.1,8-45,18.4-65.2,32.3
				c-0.3,0.2-0.6,0.4-1,0.7c10.8,4.6,21.1,9.5,31.1,15.2c3.4,1.9,6.7,3.8,10.1,5.7c0.9,0.5,2.2,1.2,1.7,2.3
				c-0.4,0.8-1.7,0.2-2.6-0.1c-14.2-5.3-28.9-9.1-43.9-11.1c-8.7-1.2-17.5-2-26.3-2.8c-0.6-0.1-1.3-0.1-2.2-0.2
				c2.3-2.3,4.7-4.1,7.1-5.8c25.8-18.6,53.4-33.8,83.1-45c18.7-7,37.8-12.3,57.4-15.8c10.8-1.9,21.6-3.5,32.5-4.2
				c9.2-0.6,18.3-0.5,27.5,0.2c12.6,0.9,25,2.9,37.3,6c25.2,6.4,48.5,17.1,69.8,32c32.2,22.6,56.7,51.7,73.1,87.4
				c7.4,16.1,12.5,32.9,15.6,50.4c2.4,13.8,3.7,27.7,3.7,41.7c0,12-1.1,24-3.1,35.9C454.3,265,454.2,265.2,454.1,265.7z"/>
			<path class="st2" d="M260.7,158.8c-22.7-0.5-43.5,5-61.7,19.1c-7.4,5.7-13.7,12.5-19.3,20c-2.9,3.8-6.4,5.5-11.2,4.2
				c-2.7-0.7-5.4-0.5-8.2-0.7c-0.3-0.8,0.4-1.3,0.7-1.9c5.4-9.3,13-16.6,21.2-23.4c10.8-8.9,22.7-16.1,35.9-20.9
				c10.6-3.9,21.6-6.1,32.9-6.4c29-0.7,55.5,7.5,79.5,23.7c22.3,15.1,36.2,36.3,43.4,62.1c2.7,9.7,4.7,19.6,4.6,29.8
				c-0.1,5.8-0.6,11.6-1.6,17.4c-0.5,3-1.4,3.4-3.8,1.5c-0.7-0.5-1.4-0.9-2.1-1.3c-5.4-3-7.2-7.8-6.5-13.5
				c2.3-19.1-1.4-37-11.1-53.6c-8.6-14.7-20.2-26.9-33.5-37.4c-3.3-2.6-7-4.4-10.9-5.9c-0.3-0.6-0.8-1-1.3-1.4
				c-3.2-2.5-7-3.4-10.6-5.1c-2.3-1.1-3.5-0.3-3.8,2.2c-0.6,7.4-1.3,14.8-1.8,22.2c-0.4,7.2-1,14.4-2.2,21.5
				c-0.8,4.5-1.8,9-3.3,13.3c-1,2.9-2.6,3.5-5.4,2.3c-0.4-0.2-0.8-0.4-1.1-0.5c-9.9-5.2-20.3-8.9-30.9-12c-4.7-1.3-5-2-2.9-6.5
				c6.8-14.3,15.9-27,27-38.2c2.8-2.8,5.6-5.7,8.3-8.5c-0.5-0.4-0.9-0.5-1.3-0.5c-3.4-0.5-6.8-1.1-10.3-1.4
				C266.5,158.6,263.6,158.1,260.7,158.8z"/>
			<path class="st3" d="M213.8,437.8c4.2-2.8,7.9-6.1,12-9c3.3-2.5,6.7-4.9,10.3-7.1c1.8-1.1,3.6-2.4,5-4c3.7-4.1,4-8.9,2.9-13.9
				c-2.1-9.2-3.1-18.4-2.9-27.8c0.3-14,2.7-27.7,6.1-41.2c5.5-21.9,10.9-43.8,16.4-65.7c0.2-0.7,0.3-1.5,0.3-2.3
				c0.3-2.1,1.1-2.8,2.8-2.5c1.8,0.3,2.4,1.6,1.9,3.5c-0.6,2.1-1.3,4.1-1.8,6.2c-5.5,20.3-10.8,40.7-15.4,61.2
				c-3,13.5-5,27.1-4,41.1c0.8,11.5,2.9,22.7,5.8,33.9c0.3,1,0.5,2,0.7,3c0.4,2.1-0.5,3.7-2.1,5c-15.4,12.7-30.8,25.3-46.3,38
				c-12.5,10.3-25,20.6-37.5,30.9c-2.2,1.8-4.3,3.6-6.6,5.1c-0.3,0.2-0.5,0.7-0.9,0.3c-0.3-0.3-0.2-0.7-0.1-1
				c9.3-21.7,17.9-43.8,27.1-65.5c10.1-23.9,17.1-48.9,23-74.2c4.6-19.4,8.4-39,11.8-58.7c2.2-12.9,4.3-25.9,6.5-38.9
				c0.1-0.6,0.3-1.3,0.5-1.9c0.4-1.4,1.4-2.2,2.8-1.8c3.8,0.9,7.5,2,10.9,3.9c2.1,1.2,2.8,3.1,2.8,5.4c0,4.4-0.8,8.6-1.5,12.9
				c-1.7,11.9-3.5,23.9-5.3,35.8c-2.1,14.2-4.3,28.4-6.7,42.6c-2.5,15.2-5.3,30.3-8.3,45.4c-2.5,12.9-6.3,25.5-9.8,38.1
				c-0.3,1-0.5,2.1-0.8,3.1c0,0.2-0.1,0.4,0,0.4C213.7,438.2,213.8,438,213.8,437.8z M239.7,266.1c-0.1-1.1,0-2.3-0.7-3.3
				c-0.7-1.1-1.7-1.5-2.9-1.2c-1.2,0.3-1.2,1.3-1.2,2.3c0,1,0,2-0.1,3c-1.3,7.7-2.6,15.5-4,23.2c-2.6,14.3-5.3,28.7-8.4,42.9
				c-6.3,29.2-13.4,58.2-23.4,86.5c-4.5,12.9-9.3,25.8-15.5,38c-0.8,1.7-1.4,3.4-1.9,5.2c-0.2,0.8-0.1,1.1,0.9,0.8
				c1-0.3,1.8-0.9,2.5-1.6c6.1-6,12.3-12,18.4-18c2-1.9,3.3-4,3.9-6.7c1.6-6.2,3.3-12.3,4.9-18.5c5.8-23.2,10.1-46.6,14.3-70.1
				c3.7-20.9,7.2-41.7,10.6-62.6C238.3,279.5,238.9,272.8,239.7,266.1z"/>
			<path class="st3" d="M260.7,158.8c2.9-0.7,5.8-0.1,8.7,0.1c3.4,0.3,6.8,0.9,10.3,1.4c0.4,0.1,0.8,0.1,1.3,0.5
				c-2.8,2.8-5.5,5.7-8.3,8.5c-11.1,11.2-20.1,24-27,38.2c-2.1,4.4-1.8,5.1,2.9,6.5c10.7,3.1,21.1,6.8,30.9,12
				c0.4,0.2,0.7,0.4,1.1,0.5c2.8,1.3,4.4,0.7,5.4-2.3c1.5-4.3,2.5-8.8,3.3-13.3c1.3-7.1,1.8-14.3,2.2-21.5
				c0.5-7.4,1.1-14.8,1.8-22.2c0.2-2.5,1.5-3.3,3.8-2.2c3.6,1.7,7.4,2.6,10.6,5.1c0.5,0.4,1.1,0.7,1.3,1.4c0.2,2.1,1.1,3.9,2.4,5.7
				c7.3,10.5,12,22.1,14.4,34.7c2.3,11.7,2.1,23.4,0.4,35.2c-0.7,4.7-1.8,5.2-5.9,3c-20.2-11.1-41.1-20.6-62.8-28.4
				c-14.8-5.3-29.9-9.6-45.2-13.1c-0.4-0.1-0.8-0.2-1.2-0.3c-2-0.7-2.4-1.6-1.6-3.5c1.7-3.7,3.9-7.2,6.3-10.6
				c7.8-11.2,18.1-19.5,29.8-26.2c4.8-2.8,9.6-5.5,14.4-8.3C260,159.3,260.5,159.2,260.7,158.8z"/>
			<path class="st3" d="M375.8,306.5c-1.2,5.3-4.6,8.7-9.6,10.4c-2.8,1-5.1-0.7-7-2.6c-7.6-7.2-15.6-13.8-24-20
				c-18-13.1-37.3-23.7-57.4-33.2c-16.5-7.7-33.3-14.8-50.6-20.4c-11.7-3.8-23.6-6.9-35.8-8.6c-7.1-1-14.3-1.9-21.5-1.1
				c-11.2,1.4-20.2,6.7-27.2,15.5c-8.4,10.5-13,22.7-15.4,35.9c-2.2,12.2-2.2,24.4-0.8,36.6c0.6,5.3-0.5,10.1-4.3,14.2
				c-5.8,6.4-11.1,13.2-16.6,19.9c-0.2,0.3-0.5,0.5-0.8,0.7c-0.1-0.7-0.3-1.4-0.3-2.1c-0.6-12.8,0.4-25.4,1.9-38.1
				c1.5-12.2,3.4-24.4,6.1-36.4c4.6-20.7,11.2-40.7,18.8-60.5c2.7-6.9,5.6-13.7,8.7-20.6c0.2,0.5,0.4,0.8,0.5,1.1
				c1.6,4.4,3.1,8.7,4.7,13.1c1,2.9,2.6,4,5.6,4c1.9,0,3.8-0.3,5.7-0.3c7-0.1,14,0.5,21,1.5c20.5,2.8,40.6,7.5,60.3,13.8
				c16.9,5.4,33.3,11.8,49.5,19c21.8,9.7,42.5,21.3,61.7,35.5C358.4,291,367.2,298.6,375.8,306.5z M110.2,340.5
				c1.8-2.2,3.4-4.1,5-6.1c4.8-5.9,7.4-12.4,6.2-20.2c-1.5-10.5-1.2-21,0.8-31.4c2.7-13.9,7.8-26.9,16.3-38.3
				c7.8-10.5,18.2-16.7,31.4-18c9.3-0.9,18.4-0.1,27.5,2c19,4.4,37.7,10.2,55.9,17.2c25.2,9.6,49.3,21.6,71.8,36.6
				c12.8,8.5,25,17.9,36.5,28.2c3.1,2.8,5.5,2.5,7.5-0.7c0.9-1.4,0.8-2.7-0.6-3.5c-3.5-2.1-6.4-5-9.5-7.6
				c-23.6-19.4-49.2-35.6-76.9-48.4c-22.4-10.3-45.7-18.1-69.6-24.1c-15.2-3.8-30.6-6-46.3-5.7c-4.7,0.1-9.4,0.5-14.1,0.5
				c-7,0.1-10.5-2.7-12.3-9.5c-0.2-0.7-0.2-1.4-1.2-1.5c-1.1-0.1-1,0.9-1.2,1.4c-4,10.9-7.9,22-11.3,33.1
				c-5.5,17.7-10.1,35.6-12.9,53.9c-1.4,8.9-2.3,17.8-2.7,26.8C110.2,330.2,109.9,335.1,110.2,340.5z"/>
			<path class="st4" d="M280.3,270.7c5.2,1.7,10,4.2,14.7,6.8c5,2.7,9.8,5.6,14.8,8.3c2.4,1.4,2.8,2.4,2.1,5.2
				c-3,11.4-8.3,21.8-14.1,31.9c-2.2,3.8-4.3,7.7-6.6,11.4c-1.8,3-1.9,5.8-0.5,9c5.9,13.3,11.4,26.7,16.9,40.1
				c1.5,3.8,2.9,4.5,7.1,3.8c4.6-0.9,9.2-1.8,13.9-2.3c1.2-0.1,2.5-0.3,3.7,0.1c-0.6,0.8-1.5,0.7-2.2,0.8
				c-12.3,2.7-24.6,5.3-36.9,7.9c-2.7,0.6-4,0.1-5.2-2.4c-4.9-9.6-9.8-19.2-14.7-28.8c-3.3-6.4-6.3-12.8-9.8-19
				c-2.1-3.8-2.3-7.3-0.3-11.1c2.5-4.7,4.7-9.6,6.6-14.6c2.5-6.5,5.1-13.1,6.7-19.9C278.3,288.9,279,279.8,280.3,270.7z"/>
			<path class="st3" d="M280.3,270.7c-1.3,9.1-2,18.3-4.1,27.2c-1.6,6.9-4.1,13.4-6.7,19.9c-1.9,5-4.1,9.9-6.6,14.6
				c-2,3.8-1.8,7.3,0.3,11.1c3.5,6.2,6.6,12.7,9.8,19c4.9,9.6,9.8,19.2,14.7,28.8c1.3,2.5,2.5,3,5.2,2.4c12.3-2.6,24.6-5.2,36.9-7.9
				c0.8-0.2,1.7-0.1,2.2-0.8c0.3,0,0.7,0,1,0c0.1,0,0.3,0,0.4,0c6,0,12,0,18.2,0c-0.6-1.7-1.6-2.8-2.5-4
				c-8.7-12.3-17.4-24.6-26.1-36.8c-2.5-3.5-2.4-4.6,0.6-7.7c7.3-7.5,12.9-16,16.4-25.8c0.5-1.3,1.1-2,2.5-1.5
				c1.5,0.5,2,1.6,1.3,3.3c-1.7,3.9-3.5,7.7-5.5,11.4c-2.4,4.4-5.1,8.7-7.9,12.9c-0.3,0.4-0.7,0.7-0.5,1.2c0.2,0.5,0.8,0.3,1.3,0.4
				c3.9,0.3,6.7-1.2,8.5-4.7c2.7-5.2,6.1-10,8.7-15.3c0.9-1.8,2-2,3.6-0.7c1.5,1.2,2.8,2.5,4.1,3.9c1.7,1.8,1.7,3,0.5,5.2
				c-1.5,2.8-3.5,5.3-5.3,7.8c-1.4,1.8-2.5,3.7-3.2,5.9c-3.9-0.8-7.7-1.3-11.7-1c-1.3,0.1-1.7,0.3-0.9,1.6
				c7.8,12.5,15.7,25,23.4,37.6c2.7,4.4,5.7,8.7,8.1,13.2c-9.4-0.2-18.6,1-27.8,2.7c-11.4,2.1-22.5,5.4-33.9,7.8
				c-7.7,1.7-15.6,1.6-23.5,1.3c-1.9-0.1-3.4-1.2-4.3-2.9c-6.7-12.8-13.6-25.5-17.9-39.4c-3.8-12.4-4.2-24.8-0.4-37.4
				c4.7-15.5,8-31.3,11.9-47c0.6-2.4,1.2-4.7,1.9-7.1c0.7-2.2,1.6-2.6,3.6-1.5C278,269.2,279.2,270,280.3,270.7z"/>
			<path class="st2" d="M375.8,306.5c-8.6-8-17.4-15.5-26.8-22.5c-19.2-14.2-39.9-25.8-61.7-35.5c-16.2-7.2-32.6-13.6-49.5-19
				c-19.7-6.3-39.8-11-60.3-13.8c-7-1-14-1.6-21-1.5c-1.9,0-3.8,0.2-5.7,0.3c-3.1,0.1-4.6-1-5.6-4c-1.6-4.4-3.1-8.7-4.7-13.1
				c-0.1-0.3-0.3-0.6-0.5-1.1c-3.1,6.9-6,13.7-8.7,20.6c-7.7,19.7-14.2,39.8-18.8,60.5c-2.7,12-4.6,24.2-6.1,36.4
				c-1.6,12.7-2.6,25.3-1.9,38.1c0,0.7,0.2,1.4,0.3,2.1c-3.4,4.6-6.8,9.2-10.2,13.7c-0.4,0.5-0.7,0.7-1.4,0.4
				c-0.8-0.3-0.7-0.9-0.7-1.6c0.4-6.6,1-13.2,1.7-19.7c1.7-15.4,4.2-30.6,7.4-45.7c4.6-21.8,10.4-43.2,17.3-64.3
				c6.6-20.2,14-40.1,22-59.8c0.3-0.6,0.5-1.3,1-2.4c1.2,4.7,2.2,8.9,3.2,13c1.4,5.8,2.8,11.6,4.2,17.5c0.7,2.7,1.6,3.4,4.4,3.4
				c26.9,0.5,53.3,4.5,79,12.3c50.1,15,96,38.6,138.1,69.5c2,1.4,4,2.8,5.7,4.6c1.4,1.5,2,3.3,1.5,5.4
				C377.5,302.5,376.8,304.5,375.8,306.5z"/>
			<path class="st2" d="M142.2,332.2c1.1-2.2,2.6-4.2,3.4-6.6c1.1-3.2,1.2-6.4,0.1-9.6c-0.3-1-0.3-1.8,0.1-2.7
				c1.6-3.8,3.6-7.4,5.8-10.8c0.6-0.9,1.3-1.4,2.4-1.1c1,0.3,1.1,1.3,1.1,2.2c0.1,3-0.3,5.9-0.5,8.9c0,0.5,0.2,1.4-0.6,1.5
				c-0.9,0.1-1.2-0.6-1.3-1.4c0-0.2-0.1-0.4-0.2-0.7c-1.1,0.2-1.2,1-1.2,1.8c0,2.2,0,4.4,0.2,6.6c0.1,1.3,0.7,2.4,2,2.9
				c1.4,0.5,2.4-0.2,3.3-1.1c1.1-1.1,1.9-2.3,2.3-3.7c1.3-3.6,2.5-7.3,3.6-11c0.9-3,0.7-6-0.6-8.9c0.4-0.6,0.3-1.2,0.3-1.9
				c0.1-1.9-0.5-3.7-0.9-5.6c-0.5-2,0.6-3.1,2.4-2.8c2.5,0.4,2.5,0.4,2.4-2.1c0-0.1,0-0.2,0-0.4c0-3.2,1-4,4.1-3.4
				c3.8,0.8,7.4,2.1,10.9,3.9c2,1,3.6,0.9,5.4-0.4c2.7-2,5.6-3.8,8.4-5.8c2.1-1.5,4.4-2.7,6.3-4.6c0.9-0.3,1.8-0.7,2.7-1
				c2.5,0.8,4.8,0.2,7-1c0.4-0.2,1.2-0.2,1.2-0.8c0-0.5-0.6-0.7-1-1c-2.5-1.8-5.2-2.7-8.3-2.5c-2.3,0.1-3.6-0.8-3.7-2.4
				c-0.1-1-0.1-2.2,0.7-2.8c0.9-0.6,1.8,0.3,2.5,0.8c0.6,0.5,1.3,1.1,2.1,0.7c0.7-0.4,0.4-1.3,0.4-2c0.2-6.9-2.4-13-5.8-18.8
				c-0.8-1.4-1.9-2.6-2.1-4.3c3.2,0.5,6.3,1,9.5,1.6c4.9,1,8.2,4.3,8.7,9.3c0.8,8.3,2,16.6,1.8,25c-0.1,4.7-0.6,9.5-2.3,14
				c-2.4-0.1-4.9,0-7.3,0.2c-7.7,0.7-14.5,3.4-20,9.1c-3.4,3.5-4.3,3.5-7.5-0.3c-0.2-0.2-0.3-0.5-0.5-0.7c-2.1-2.7-3.4-5.9-5.1-8.8
				c-0.9-1.6-1.2-1.6-2.2-0.1c-1,1.5-1.5,3.1-1.6,4.8c-0.1,2.2-0.5,2.5-2.7,2.2c-0.5-0.1-0.7,0-0.9,0.5c-0.7,2.4,0,4.1,2.2,5.1
				c0.1,0.2-0.1,0.5,0.3,0.4l0,0c0,3.7-1,7.1-2.9,10.2c-1.2,2-2.4,3.9-3.6,5.9c-0.6,0.2-1,0.6-1.4,1c-1.6,1.5-1.4,2.6,0.6,3.6
				c0.4,0.2,0.9,0.3,1.3,0.5l0,0c-0.1,1.4,0,2.7,0.6,4c0.6,1.2,0.7,2.4-0.4,3.4c-1.2,1.1-2.4,1-3.8,0.3c-1.5-0.7-3-1.5-4.6-2
				c-3.1-1.1-3.2-1-3.3,2.3c0,2.6-0.6,3.1-3.1,2.2C146.9,333.4,144.6,332.7,142.2,332.2z"/>
			<path class="st5" d="M142.2,332.2c2.4,0.4,4.7,1.1,7,2c2.5,0.9,3.1,0.4,3.1-2.2c0-3.3,0.1-3.4,3.3-2.3c1.6,0.6,3.1,1.3,4.6,2
				c1.4,0.7,2.6,0.8,3.8-0.3c1.1-1,1-2.2,0.4-3.4c-0.6-1.3-0.8-2.6-0.6-4c1.7,1,2.6,0.3,3.2-1.4c0.7-1.8,1.8-3.5,3.1-5
				c4.4-5.1,4.3-9.7-0.2-14.7c0,0,0,0,0,0c-0.1-0.1-0.2-0.2-0.3-0.4c-2.2-1-2.9-2.7-2.2-5.1c0.2-0.5,0.4-0.6,0.9-0.5
				c2.2,0.3,2.5,0,2.7-2.2c0.1-1.8,0.6-3.4,1.6-4.8c1.1-1.5,1.3-1.5,2.2,0.1c1.7,2.9,3,6.1,5.1,8.8c0.2,0.2,0.3,0.5,0.5,0.7
				c3.2,3.7,4.1,3.8,7.5,0.3c5.5-5.7,12.2-8.4,20-9.1c2.4-0.2,4.9-0.3,7.3-0.2c0,0.7,0,1.4,0,2.1c-0.1,5-2.3,7.8-7.2,8.8
				c-8.2,1.6-12.6,6.8-14.4,14.6c-0.4,1.9-1,1.5-2.1,0.8c-4.8-2.9-8.2-7.1-11.8-11.3c-1-1.1-2-2.2-2.9-3.3c-0.1-0.3-0.4-0.4-0.6-0.2
				c0.1,0.2,0.3,0.3,0.4,0.5c2.4,5.3,1.7,10.7,0.8,16.1c-0.5,2.7-1.1,5.4-1.1,8.4c1.5-1.1,2.1-2.5,2.8-4c0.6-1.3,1.3-2.6,2.2-3.6
				c0.6-0.6,0.9-0.7,1.4,0.1c3.8,5.9,0.7,15.2-6,17.6c-1.2,0.4-2,0.1-2.4-1.1c-0.4-1.2-1.1-2.2-1.9-3.2c-0.9-1.2-2.1-1.4-3-0.2
				c-1.8,2.3-4.8,3.1-6.7,5.2c-0.7,0.8-1.6,0.8-2.2-0.3c-0.1-0.2-0.2-0.4-0.4-0.6c-2-3.1-3.2-3.2-5.8-0.5c-0.8,0.9-1.6,1.8-2.7,2.3
				c-1.2,0.5-1,1.9-1.8,2.9c-1.1-1.5-2.1-2.9-3.1-4.4c-0.7-1-1.3-1-1.9,0c-0.8,1.3-1.9,2.3-3.2,3c-1.2,0.7-1.9,0.3-2.2-1
				C138.7,336.2,140,334,142.2,332.2z"/>
			<path class="st2" d="M367.2,391.9c-2.4-4.6-5.4-8.8-8.1-13.2c-7.8-12.6-15.6-25.1-23.4-37.6c-0.8-1.3-0.4-1.5,0.9-1.6
				c4-0.3,7.8,0.2,11.7,1c14.3,17.5,28.7,35,43.3,52.7C383.2,392.7,375.2,392.3,367.2,391.9z"/>
			<path class="st5" d="M164.8,380.5c2.4-3.3,2.7-3.4,6.8-2.5c0.5,0.1,1,0.2,1.5-0.2c3.3-2.7,7.2-3.5,11.2-4.3
				c1.9-0.4,3.7-0.7,5.6-1.2c1.1-0.3,1.3,0.2,1.6,1c1,2.8-0.1,5.1-1.8,7.2c-0.6,0.7-1.9,1.4-1.4,2.4c0.5,1,1.8,0.5,2.8,0.5
				c2.3,0,2.7,0.4,2.4,2.7c-0.1,1-0.2,2-0.4,3c-0.6,2.8-2,5-4.5,6.5c-12.6,7.7-25,15.9-37.1,24.4c-0.4,0.3-0.9,1.1-1.5,0.7
				c-0.7-0.5-0.6-1.4-0.3-2.1c0.2-0.5,0.7-1,1-1.4c0.3-0.5,0.9-0.8,0.6-1.5c0.7,0.1,1-0.5,1.4-0.9c4.7-6.1,7.6-13,8.7-20.6
				c0.2-1.4-0.1-3,0.8-4.4c0.6,0.2,0.9,0.6,1.1,1c0.3,0.4,0.5,1.1,1.2,0.9c0.7-0.2,0.4-0.9,0.4-1.4
				C164.8,387,164.8,383.8,164.8,380.5z"/>
			<path class="st5" d="M201.7,275.6c-1.9,1.8-4.2,3-6.3,4.6c-2.8,2-5.6,3.8-8.4,5.8c-1.8,1.3-3.4,1.5-5.4,0.4
				c-3.4-1.8-7.1-3.1-10.9-3.9c-3.1-0.6-4.2,0.2-4.1,3.4c0,0.1,0,0.2,0,0.4c0.1,2.6,0.1,2.6-2.4,2.1c-1.9-0.3-2.9,0.8-2.4,2.8
				c0.4,1.9,1,3.7,0.9,5.6c0,0.6,0.1,1.3-0.3,1.9c-2.4-2.4-4.8-4.8-7.2-7.2c-2.8-2.8-5.9-5.4-9.1-7.8c-2.1-1.6-2.3-2.8-0.4-4.7
				c5.5-5.6,11.4-10.8,18.1-14.9c1.8-1.1,2.8-0.8,3.7,1.1c0.9,1.8,1.6,3.6,2.1,5.5c0.8,3,0.1,5.5-2.4,7.5c-0.4,0.3-0.7,0.6-1.4,1.2
				c6.3-0.4,11.7,1.5,17,3.7c1.5,0.6,2.8,0.1,4.1-0.6c2.7-1.6,5.4-3.3,8.1-4.8C197,276.4,199.2,275.5,201.7,275.6z"/>
			<path class="st5" d="M197.3,240.5c0.3,1.6,1.4,2.9,2.1,4.3c3.4,5.8,6,11.9,5.8,18.8c0,0.7,0.3,1.6-0.4,2
				c-0.8,0.4-1.4-0.2-2.1-0.7c-0.8-0.6-1.6-1.4-2.5-0.8c-0.8,0.6-0.8,1.8-0.7,2.8c0.2,1.7,1.4,2.5,3.7,2.4c3.1-0.2,5.8,0.7,8.3,2.5
				c0.4,0.3,1,0.5,1,1c0,0.7-0.8,0.6-1.2,0.8c-2.2,1.1-4.5,1.8-7,1c0.4-1.2,0.1-2.1-1.2-2.2c-0.8-0.1-1.5,0.1-2.3,0.2
				c-2.8,0.4-4.1-0.5-4.2-3.4c-0.1-3.1-0.5-6.2-1.5-9.1c-0.9-2.5-2.2-4.8-3.9-7.1c3.3-1.4,4.5,2.4,7.2,2.7c-0.3-3.6-1.9-6.5-4.4-9
				c-5.3-5.3-12.7-6.1-18.9-2c-3.4,2.2-6.5,4.6-9.3,7.5c-3.3,3.5-5.8,3.3-8.9-0.5c-0.2-0.2-0.3-0.4-0.5-0.5
				c-0.6-0.5-1.2-1.7-1.8-1.4c-0.9,0.5-0.5,1.8-0.3,2.6c0.4,1.4,1,2.8,1.5,4.2c0.3,0.7,0.6,1.4,0.5,2.4c-2.2-1.3-4.1-2.8-5.5-4.8
				c-2.1-3-1.6-5.6,1.5-7.6c0.9-0.6,2-1.1,3-1.6c0.9,1.3,2.1,2.2,3.2,3.2c1.1,1.1,2.5,1.1,3.8,0.3c3.5-2.3,7.2-4.4,10.4-7.2
				c0.9-0.8,2.1-1.6,2.3-3C182.6,237.8,190,238.5,197.3,240.5z"/>
			<path class="st2" d="M164.8,380.5c0,3.2,0,6.4,0,9.6c0,0.5,0.3,1.2-0.4,1.4c-0.6,0.2-0.9-0.5-1.2-0.9c-0.3-0.4-0.5-0.8-1.1-1
				c-0.8,1.3-0.6,2.9-0.8,4.4c-1.1,7.6-3.9,14.5-8.7,20.6c-0.4,0.5-0.7,1-1.4,0.9c-0.6-0.5-0.8-1-0.5-1.8c3.1-7.4,2.7-14.9,0.7-22.5
				c-1.3-4.7-1.2-4.9,3-7.3C157.6,382.1,160.9,380.5,164.8,380.5z"/>
			<path class="st2" d="M137.2,367.2c0.1-5.5-0.4-10.8,1.1-16c1-3.5,2.9-6.4,5.6-8.9c0.9-0.8,1.3-0.7,1.7,0.3
				c1.7,3.7,1.6,7.5,1,11.3c-0.4,2.6-1,5.1-1.2,7.7c-0.1,1.4-0.7,2.3-2,2.9C141.5,365.4,139.5,366.3,137.2,367.2z"/>
			<path class="st2" d="M171.8,346.4c0.1,2-0.1,3.9-0.4,5.7c-0.4,2.7-1.7,4.2-4.4,4.7c-1.3,0.3-2.6,0.6-3.9,0.5
				c-1-0.1-1.7-0.5-1.6-1.5c0.4-5.9,0.8-11.8,4.6-16.7c0.4-0.5,0.8-1,1.4-1.4c0.8-0.6,1.7-0.9,2.7-0.4c1,0.4,1.1,1.3,1.1,2.2
				C171.4,341.8,172.1,344.1,171.8,346.4z"/>
			<path class="st2" d="M149.5,356.2c0.4-4.1,0.5-9.1,3.1-13.7c0.6-1,1.2-2.1,2.1-2.8c1.6-1.2,3.1-0.5,3.6,1.4
				c1.1,4.6,0.2,9.1-0.5,13.6c-0.1,0.8-0.2,1.5-0.3,2.3c-0.2,2.2-1.1,3.1-3.3,3.5c-0.3,0-0.6,0-0.9,0
				C149.5,360.8,149.5,360.8,149.5,356.2z"/>
			<path class="st2" d="M200.5,344c0,1.1,0.1,2.3,0,3.4c-0.1,1.8-1.1,2.7-2.9,2.7c-2.2,0.1-4.4-0.4-6.6,0c-0.8,0.2-1.4-0.4-1.4-1.2
				c0.1-3.8-0.3-7.6,1.6-11.1c0.9-1.7,1.8-3.3,4-3.3c2,0,4.2,2,4.8,4.2C200.6,340.5,200.5,342.3,200.5,344z"/>
			<path class="st2" d="M170,359.8c3.6,0,5.1,1.3,5.5,4.9c0.2,2.2,1.2,4.4,0.8,6.7c-0.6,3.6-3.4,4.8-6.4,2.6c-2.2-1.6-3.7-3.6-4.9-6
				C162.6,363.3,164.7,359.8,170,359.8z"/>
			<path class="st2" d="M186.5,347.1c0.1,3.5-0.6,4.6-3.7,5.4c-1.6,0.4-3.2,0.7-4.9,1.1c-0.8,0.2-1-0.1-1.1-0.9
				c-0.7-5.3,0.2-10.3,3-14.9c0.5-0.8,1.1-1.4,2-1.8c1.8-0.8,3-0.1,3.4,1.7C185.7,341,186.3,344.1,186.5,347.1z"/>
			<path class="st5" d="M136.3,280.4c-0.3-3.7,0.5-7.1,1.5-10.5c1.2-4.1,3.4-7.7,5.1-11.5c0.6-1.2,1.4-1.5,2.5-0.6
				c0.7,0.6,1.5,1.2,2.2,1.8c2.6,2.1,2.8,3.9,0.6,6.5c-3.1,3.8-6.3,7.6-9.5,11.3C138,278.4,137.2,279.4,136.3,280.4z"/>
			<path class="st2" d="M187.5,361.8c-0.1,2.2,0.8,4.3,0.2,6.5c-0.8,2.8-3.1,3.8-5.2,1.9c-2.9-2.6-4.7-5.9-5-9.7
				c-0.2-2.5,1.1-3.8,3.5-3.9c0.5,0,1.1,0,1.6,0C186.9,356.7,187.6,357.4,187.5,361.8z"/>
			<path class="st2" d="M175.1,238.2c-0.1,1.5-1.3,2.2-2.3,3c-3.2,2.8-6.8,4.9-10.4,7.2c-1.3,0.8-2.6,0.8-3.8-0.3
				c-1.1-1-2.4-1.9-3.2-3.2c2.8-3.9,6.7-5.6,11.3-6.3C169.5,238.2,172.3,238.1,175.1,238.2z"/>
			<path class="st2" d="M200.8,358.4c-0.2,1.6-0.3,3.3-0.6,4.9c-0.3,1.8-1.4,3-3.3,3.3c-2.1,0.3-3.7-0.5-4.7-2.2
				c-1.4-2.5-1.5-5.2-1.7-7.9c-0.1-1.4,1-2.3,2.4-2.3c1.4,0.1,2.8-0.2,4.2-0.4c2.9-0.5,3.8,0.5,3.6,3.4
				C200.8,357.5,200.8,357.9,200.8,358.4C200.8,358.4,200.8,358.4,200.8,358.4z"/>
			<path class="st2" d="M161.4,377.7c-1.3,0-2.4-0.7-3.3-1.5c-2.7-2.3-4.3-5.4-5.7-8.5c-0.3-0.7-0.4-1.6,0.6-1.9
				c1.5-0.6,3-1.2,4.5-1.7c1.1-0.4,1.9-0.1,2.6,0.9c2.1,2.7,3.5,5.9,5,9C165.8,375.3,163.4,377.7,161.4,377.7z"/>
			<path class="st2" d="M151.3,382.2c-1.8-0.3-3.6-1.6-5.2-3.3c-1.7-1.8-2.8-3.9-4.1-6c-0.6-1-0.2-1.8,0.7-2.2
				c1.6-0.7,3.2-1.3,4.8-2c0.6-0.2,1-0.1,1.3,0.5c1.8,3.4,3.7,6.6,6.3,9.5c0.6,0.6,0.3,1.2-0.1,1.8
				C154.3,381.7,153.4,382.4,151.3,382.2z"/>
			<path class="st4" d="M333.6,385c-0.1,0-0.3,0-0.4,0C333.3,385,333.5,385,333.6,385z"/>
			<path class="st0" d="M424,260.7c0,0-0.1,0-0.1,0c0,0,0.1-0.1,0.1-0.1C424,260.6,424,260.7,424,260.7
				C424.1,260.7,424,260.7,424,260.7z"/>
			<path class="st0" d="M385.2,131c-0.1,0.1-0.2,0.3-0.4,0.1c0,0,0.1-0.2,0.2-0.2C385.1,130.9,385.1,130.9,385.2,131z"/>
			<path class="st0" d="M167.4,75.7c0,0-0.1-0.1-0.1-0.1c0,0,0.1-0.1,0.1-0.1c0,0,0.1,0.1,0.1,0.1C167.5,75.7,167.5,75.7,167.4,75.7
				z"/>
			<path class="st2" d="M239.7,266.1c-0.8,6.7-1.4,13.4-2.5,20c-3.4,20.9-6.9,41.8-10.6,62.6c-4.2,23.5-8.5,47-14.3,70.1
				c-1.5,6.2-3.3,12.3-4.9,18.5c-0.7,2.6-2,4.8-3.9,6.7c-6.2,5.9-12.3,12-18.4,18c-0.7,0.7-1.5,1.3-2.5,1.6
				c-0.9,0.3-1.1-0.1-0.9-0.8c0.4-1.8,1-3.6,1.9-5.2c6.2-12.2,11-25.1,15.5-38c9.9-28.2,17.1-57.3,23.4-86.5
				c3.1-14.3,5.8-28.6,8.4-42.9c1.4-7.7,2.7-15.5,4-23.2c0.2-1,0.1-2,0.1-3c0-1,0-2,1.2-2.3c1.2-0.3,2.2,0.2,2.9,1.2
				C239.7,263.8,239.6,264.9,239.7,266.1z"/>
			<path class="st0" d="M213.8,437.8c-0.1,0.1-0.2,0.3-0.3,0.2c-0.1-0.1,0-0.3,0-0.4C213.6,437.7,213.7,437.8,213.8,437.8z"/>
			<path class="st0" d="M110.2,340.5c-0.3-5.3,0-10.3,0.2-15.3c0.4-9,1.3-17.9,2.7-26.8c2.8-18.3,7.4-36.2,12.9-53.9
				c3.5-11.1,7.3-22.1,11.3-33.1c0.2-0.6,0-1.5,1.2-1.4c1,0.1,1,0.8,1.2,1.5c1.8,6.8,5.3,9.6,12.3,9.5c4.7-0.1,9.4-0.5,14.1-0.5
				c15.7-0.3,31.1,1.9,46.3,5.7c23.9,6,47.2,13.8,69.6,24.1c27.7,12.8,53.3,29,76.9,48.4c3.1,2.6,6,5.4,9.5,7.6
				c1.4,0.9,1.5,2.1,0.6,3.5c-2,3.3-4.4,3.5-7.5,0.7c-11.5-10.3-23.6-19.6-36.5-28.2c-22.5-15-46.5-27-71.8-36.6
				c-18.3-7-36.9-12.8-55.9-17.2c-9-2.1-18.2-2.9-27.5-2c-13.2,1.3-23.6,7.5-31.4,18c-8.5,11.4-13.6,24.4-16.3,38.3
				c-2,10.4-2.3,20.9-0.8,31.4c1.1,7.7-1.4,14.3-6.2,20.2C113.6,336.3,112,338.3,110.2,340.5z"/>
			<path class="st0" d="M169.7,302.9c4.5,5,4.6,9.6,0.2,14.7c-1.3,1.5-2.4,3.1-3.1,5c-0.6,1.8-1.5,2.4-3.2,1.4l0,0
				c-0.2-1.7-0.3-3.4-0.5-5c1.2-2,2.4-3.9,3.6-5.9C168.7,310,169.8,306.6,169.7,302.9z"/>
			<path class="st5" d="M163.2,319c0.2,1.7,0.3,3.4,0.5,5c-0.4-0.1-0.9-0.2-1.3-0.5c-1.9-1-2.1-2-0.6-3.6
				C162.2,319.6,162.6,319.1,163.2,319z"/>
			<path class="st0" d="M169.5,302.6c0.1,0.1,0.2,0.2,0.3,0.4C169.4,303.1,169.5,302.8,169.5,302.6z"/>
			<path class="st0" d="M176.3,302.4c-0.1-0.2-0.3-0.3-0.4-0.5c0.3-0.2,0.5-0.1,0.6,0.2C176.5,302.3,176.4,302.3,176.3,302.4z"/>
		</g>
	</g>
</g>
</svg>
