<?xml version="1.0" encoding="utf-8"?>
<!-- Generator: Adobe Illustrator 21.0.0, SVG Export Plug-In . SVG Version: 6.00 Build 0)  -->
<svg version="1.1" id="Layer_1" xmlns="http://www.w3.org/2000/svg" xmlns:xlink="http://www.w3.org/1999/xlink" x="0px" y="0px"
	 viewBox="0 0 4343.4 4343.4" style="enable-background:new 0 0 4343.4 4343.4;" xml:space="preserve">
<style type="text/css">
	.st0{fill:#FC2C04;}
	.st1{fill:#FDF9F7;}
	.st2{fill:#FDF9F8;}
	.st3{fill:#FEF8F5;}
	.st4{fill:#FDF4EF;}
	.st5{fill:#F68163;}
</style>
<rect class="st0" width="4342" height="4351.1"/>
<title>jotter1500px</title>
<g id="MzLzaw_1_">
	<g>
		<path class="st1" d="M2530.6,2208.7c5-156.2,34.1-303.9,149-419.5c142.6-143.5,319-161.7,503.5-116.8
			c430.1,104.5,754,588.7,693.2,1027.8c-41,296.1-278.3,473.3-573.3,426.6c-247.2-39.1-434.9-173.7-580.7-370.9
			C2602.4,2593.5,2533.8,2412.1,2530.6,2208.7z M3543,2475.3c-21.6-193.5-98.4-369.1-296.9-467.6c-176.1-87.3-351-0.8-391.1,189.3
			c-42.1,200,75.2,458.8,252.7,557.5c206,114.5,383.8,32,428.3-199.4C3540,2534.3,3539.9,2512.6,3543,2475.3z"/>
		<path class="st2" d="M1165.9,2214c9.9,1.3,19.9,2.7,29.8,4c9.7,9.1,20.4,11.7,32.5,4.7c5.7,0.9,11.3,1.7,17,2.6
			c14.3,12.4,30.4,17.7,49.2,12c23.4,9.7,46.8,19.5,70.1,29.2c3,8.9,9.7,11.5,18.4,10.9c0,0,3.7,2.9,3.7,2.9
			c0.7,6.2,4.1,8.2,9.9,6.3c0,0,1.3,0.8,1.3,0.8c88.1,88,98,195.8,82.9,312c-10,76.9-36.9,148.2-61.4,220.5
			c-5.3,9.9-10.7,19.9-16,29.8c-6.2,1.3-8.5,5-6.8,11.1c-5,7.1-9.9,14.2-14.9,21.2c-5.9,0.9-8.1,4.1-6.2,9.8c0,0-1.7,2.3-1.7,2.3
			c-6.5,1.7-7.9,6.2-6.8,12.2c0,0-0.4,0.5-0.4,0.5c-8.7,0.9-12.8,6.1-13.4,14.5c-2.2,1.2-3.6,3-4.2,5.4c-5.5,0.3-7.4,3.1-5.5,8.3
			c0,0-1.7,2-1.7,2c-6.4,1-9.1,4.9-8.6,11.2c-3.4,3.6-6.8,7.3-10.2,10.9c-12.3,2.2-19.3,9.6-21.1,22c0,0-0.2,0.1-0.2,0.1
			c-12.2,1.4-19.9,8.1-23,20c-5.7,5-11.4,10-17.1,15c-10.5-0.6-15.3,5.1-16.6,14.8c-12.5,9.3-25,18.5-37.5,27.8
			c-12.4-0.2-21.3,5.1-25.7,17c-6.8,3.8-13.6,7.7-20.4,11.5c-37.9,13.8-75.6,28-107.5,53.9c-5.6,2.4-11.3,4.8-16.9,7.2
			c-73.6,17.9-147.3,35.9-220.9,53.8c-12.2,0.6-24.3,1.2-36.5,1.8c-7.8-7-16.2-9.2-25.5-2.9c-6.7-0.3-13.4-0.5-20.2-0.8
			c-10.1-10.5-22-12.1-35.1-6.7c-6.2-1.8-12.5-3.5-18.7-5.3c-37.8-26.6-75.6-53.2-113.3-79.8c0,0-1.1-1.5-1.1-1.5
			c-19.4-48.6-38.9-97.1-58.3-145.7c0.1-45.5-8.5-91.3,3.9-136.5c41-9,81.2-20.2,116.7-43.9c0,0,0.5-0.1,0.5-0.1
			c59.7-8.1,112.6-37.7,169.3-55.1c19.6-6,36.6-12.3,49,10.2c0.7,6.9,1.5,13.7,2.2,20.6c-3.7,22.6,0.3,42.5,20.4,56.6
			c0,0,0.9,1.7,0.9,1.7c30.2,48.2,57.4,56.5,115.4,35c10.7-4.5,21.4-9,32.2-13.6c6.6,0,9.8-3.4,10.2-9.8c2.5-1.3,4.8-2.9,6.8-4.9
			c26-10.2,45.1-26.9,51.2-55.5c1.4-2.6,2.5-5.4,3.5-8.2c31.3-31.8,40.5-69.1,27.9-111.8c-1.3-3.3-2.6-6.7-4-10
			c-9.4-45.9-44.8-46.7-80.8-46.5c-10-1.1-20-2.2-30-3.4c-17.6-11.8-36.3-14.1-56.2-6.7c-5.9-0.6-11.9-1.2-17.8-1.8
			c-97.3-20-199.9-11.9-292.7-55.6c-5-3.1-10-6.2-14.9-9.4c-4.7-10.3-11.8-17.1-23.8-17.2c-3.3-4-6.5-8-9.8-11.9
			c0.8-6.7-2.2-9.7-8.8-9.2l-2-2.4c-58.5-95.3-60.9-197.6-39.8-303.6c14.1-70.6,52-131.5,77.1-197.6c8.8-12.8,17.6-25.7,26.4-38.5
			c13.6-5.6,20.1-16.3,21.9-30.4c0,0,1.8-2.1,1.8-2.1c6.1,0.6,8.9-2.2,8.3-8.3c0,0,2.5-2.5,2.5-2.5c6.4-1.3,8.5-5.5,7.6-11.6
			c3.3-3.7,6.7-7.5,10-11.2c23.5-12.4,43.1-28.7,52.9-54.5c0,0,0.3-0.3,0.3-0.2c13.2-0.7,21.3-7,22.1-20.9c4.1-3,8.1-6,12.2-9.1
			c7,0.3,10.6-3,11.2-9.9c2.4-1.4,4.5-3.1,6.4-5.1c12.8-0.1,21.3-5.8,24.5-18.5c3.9-3.1,7.9-6.2,11.8-9.3c5.4,2.1,8.8,0.5,9.8-5.5
			c2.3-0.7,4.1-2,5.3-4.1c12.9-2.4,24.1-7.1,29.3-20.4c2.5-1.1,4.7-2.6,6.7-4.4c3.9-1.6,7.8-3.2,11.7-4.7c2.4-0.2,4.3-1.3,5.6-3.3
			c14.3-6.7,28.7-13.2,42.9-20.2c132.9-65.4,268.6-99.7,413.3-38.2c1.8,1.9,4,3.4,6.5,4.4c3.7,12.2,11.9,18.4,24.8,18.2c0,0,0,0,0,0
			c0.7,6.7,4.4,10.1,11.1,10.3c0,0,0.1,0.1,0.1,0.1c1.6,18,13,28.1,28.1,35.2c0,0,0.5,0.8,0.5,0.8c21.5,62.2,40.8,125,48,190.8
			c-0.7,3.2-1.4,6.3-2.1,9.4c-3.3,3.9-6.6,7.7-9.9,11.6c0,0-0.1,0.1-0.1,0.1c-71.4,20.8-141,45.9-206.5,81.6c0,0-1.7,0.5-1.7,0.5
			c-46.7,8.2-89.7,26.2-130.1,50.6c-5.3-1.6-10.7-3.2-16-4.8c-2.1-28.8-2.4-58.5-33.8-74c0,0-0.1-0.2-0.1-0.2
			c-41.5-32-78.3-27.2-131.5,17.4c-3.8,3.6-7.6,7.1-11.3,10.7c-6.4-1.1-9.9,1.5-9.9,8.2c0,0-2.9,2.9-2.9,2.9
			c-6.7-0.2-9.4,3.1-8.5,9.6c-3.7,3.7-7.3,7.5-11,11.2c-11.9,4.5-18.6,12.5-17.2,25.9c-2.9,5.8-5.8,11.6-8.7,17.4
			c-5.6,3.2-6.7,7.8-3.9,13.5c-5.8,17-7.8,34.3-3.8,52.1c-5.7,13.7-0.5,22.1,13,26.3c0,0,0.6,0.8,0.6,0.8
			c44.9,39.5,98.8,37.3,153.1,33.1c9,1.2,18,2.4,27,3.6C1095.4,2219.7,1130.3,2221.8,1165.9,2214z"/>
		<path class="st3" d="M1880.1,2110.1c0-31.5,0-50.8,0-70.1c0.1-290,1.2-580.1-0.6-870.1c-0.3-40.6,11.3-64.6,49.5-75.8
			c1.7-0.5,3.5-1.2,4.8-2.4c89.3-77.6,164.6-21.6,240.6,25.5c22.2,13.8,26.8,35.8,26.8,60.6c0.6,290,1.3,580.1,2.9,870.1
			c0.2,34.1-9.8,43.8-40.1,24.8c-1.5-1-3.4-1.6-4.5-2.8c-86.6-92.7-165.8-65.8-242.2,14.5
			C1910.1,2091.8,1900.1,2096.4,1880.1,2110.1z"/>
		<path class="st4" d="M1880.2,2598.1c0-117.9,0-219.5,0-321.2c0-15.2,5-27.8,17.4-37.4c9.9-7.7,19-16.3,28.8-24.2
			c117.3-95.6,116.8-95,239.8-4.9c25.7,18.8,38.6,40.7,38.7,71.7c0.2,84.1,0.3,168.2,1.5,252.3c0.5,32.7-12.5,39.5-38.3,22.2
			c-26.7-17.9-53.8-35.9-77.5-57.5c-37-33.8-67.7-37.4-103.6,3.4C1958.9,2534.2,1923.8,2559.6,1880.2,2598.1z"/>
		<path class="st5" d="M613.3,1971c-25,66.1-63,127-77.1,197.6c-21.1,105.9-18.8,208.3,39.8,303.6c-42.6-23.7-50.8-67.2-57.8-108.7
			C494.3,2219.7,525.1,2088.2,613.3,1971z"/>
		<path class="st5" d="M1357.8,1638c-144.6-61.5-280.4-27.2-413.3,38.2c-14.2,7-28.6,13.5-42.9,20.2c22.8-42,67.8-48.4,106-63.6
			c87.5-34.8,178-53.2,272.7-34.4C1310,1604.2,1340.6,1607.9,1357.8,1638z"/>
		<path class="st5" d="M635.4,2522.3c92.8,43.7,195.4,35.6,292.7,55.6C825.3,2586.8,724.4,2586.2,635.4,2522.3z"/>
		<path class="st5" d="M846.4,2736.1c-12.5-22.5-29.5-16.2-49-10.2c-56.8,17.4-109.6,47-169.3,55.1c58.6-39.2,127-54,192.5-75.5
			C840,2699,861.8,2705.5,846.4,2736.1z"/>
		<path class="st5" d="M815.7,3202.3c73.6-17.9,147.3-35.9,220.9-53.8C969.6,3193.8,893.8,3202.8,815.7,3202.3z"/>
		<path class="st5" d="M1258.3,2000.7c65.5-35.7,135.1-60.8,206.5-81.6C1402.2,1962.1,1332.1,1986.1,1258.3,2000.7z"/>
		<path class="st5" d="M1476.9,1897.9c-7.2-65.8-26.6-128.6-48-190.8C1474.3,1763.3,1492.7,1826.3,1476.9,1897.9z"/>
		<path class="st5" d="M506.8,2961.5c19.4,48.6,38.9,97.1,58.3,145.7C521.1,3068.4,502.7,3019.5,506.8,2961.5z"/>
		<path class="st5" d="M1034.6,2202.1c-54.3,4.1-108.2,6.4-153.1-33.1C932.5,2180,983.6,2191,1034.6,2202.1z"/>
		<path class="st5" d="M566.3,3108.6c37.8,26.6,75.6,53.2,113.3,79.8C627.8,3181.8,584.2,3163.4,566.3,3108.6z"/>
		<path class="st5" d="M945.1,1990.4c53.2-44.6,90-49.4,131.5-17.4C1030,1957.8,988.1,1978.5,945.1,1990.4z"/>
		<path class="st5" d="M1126.5,2051.9c40.4-24.5,83.3-42.5,130.1-50.6C1218,2030.4,1175.3,2048.9,1126.5,2051.9z"/>
		<path class="st5" d="M985.2,2850c-57.9,21.5-85.1,13.2-115.4-35C903.7,2841.8,944.5,2845.7,985.2,2850z"/>
		<path class="st5" d="M1053.5,3141.3c31.8-25.9,69.5-40.2,107.5-53.9C1133.2,3121.3,1095.3,3135.1,1053.5,3141.3z"/>
		<path class="st5" d="M627.5,2781.1c-35.5,23.6-75.7,34.9-116.7,43.9C544,2795.3,584.1,2783.9,627.5,2781.1z"/>
		<path class="st5" d="M1165.9,2214c-35.6,7.8-70.4,5.7-104.3-8.3C1097.1,2198.6,1132.3,2196.9,1165.9,2214z"/>
		<path class="st5" d="M1032.1,2589.7c36-0.2,71.3,0.6,80.8,46.5C1086,2620.7,1059.1,2605.2,1032.1,2589.7z"/>
		<path class="st5" d="M1116.8,2646.2c12.6,42.7,3.4,80-27.9,111.8C1098.3,2720.8,1107.6,2683.5,1116.8,2646.2z"/>
		<path class="st5" d="M1085.5,2766.2c-6.1,28.6-25.2,45.3-51.2,55.5C1044.6,2796.9,1062.2,2778.9,1085.5,2766.2z"/>
		<path class="st5" d="M744.8,1812c-9.8,25.8-29.4,42-52.9,54.5C699.2,1838.3,718.8,1822,744.8,1812z"/>
		<path class="st5" d="M1076.7,1973.1c31.4,15.5,31.7,45.2,33.8,74C1087.9,2027.7,1085.7,1998.9,1076.7,1973.1z"/>
		<path class="st5" d="M945.9,2579.7c19.9-7.4,38.6-5.1,56.2,6.7C981.9,2596.8,963.2,2594.3,945.9,2579.7z"/>
		<path class="st5" d="M868.9,2813.3c-20.1-14.1-24.1-34-20.4-56.6C861.7,2773.3,869.1,2792,868.9,2813.3z"/>
		<path class="st5" d="M1294.3,2237.3c-18.8,5.7-34.9,0.4-49.2-12C1264.5,2216.9,1280.8,2221.4,1294.3,2237.3z"/>
		<path class="st5" d="M1428.4,1706.2c-15.2-7.1-26.6-17.2-28.1-35.2C1418.5,1675.7,1430.7,1685.2,1428.4,1706.2z"/>
		<path class="st5" d="M698.4,3193.7c13.2-5.4,25-3.8,35.1,6.7C719.4,3210.8,708.2,3205.8,698.4,3193.7z"/>
		<path class="st5" d="M1228.1,2222.7c-12.1,7-22.7,4.4-32.5-4.7C1208.1,2208.8,1218.6,2212,1228.1,2222.7z"/>
		<path class="st5" d="M661.7,1902.1c-1.8,14.1-8.3,24.8-21.9,30.4C640.2,1917.4,645.7,1906,661.7,1902.1z"/>
		<path class="st5" d="M1278.3,3001.2c3.1-11.9,10.8-18.6,23-20C1300.2,2995.4,1291.3,3000.6,1278.3,3001.2z"/>
		<path class="st5" d="M1181.4,3075.8c4.4-11.9,13.3-17.2,25.7-17C1202.9,3071.1,1194.3,3076.8,1181.4,3075.8z"/>
		<path class="st5" d="M1301.6,2981.1c1.8-12.4,8.8-19.7,21.1-22C1322,2972.5,1315.5,2980.3,1301.6,2981.1z"/>
		<path class="st5" d="M1389.1,1660.6c-12.9,0.2-21.1-6-24.8-18.2C1377.8,1641.4,1386.5,1646.8,1389.1,1660.6z"/>
		<path class="st5" d="M877.7,1708.9c-5.2,13.3-16.4,18.1-29.3,20.4C851.4,1712.9,862.7,1708.3,877.7,1708.9z"/>
		<path class="st5" d="M821.5,1748.3c-3.2,12.7-11.7,18.5-24.5,18.5C800.7,1754.8,809.4,1749.3,821.5,1748.3z"/>
		<path class="st5" d="M767.2,1790.9c-0.9,13.8-8.9,20.1-22.1,20.9C746.9,1798.9,755.3,1793.1,767.2,1790.9z"/>
		<path class="st5" d="M880.9,2168.1c-13.4-4.3-18.6-12.6-13-26.3C877.4,2147.9,882.7,2156.2,880.9,2168.1z"/>
		<path class="st5" d="M884.2,2058.8c-1.4-13.4,5.3-21.3,17.2-25.9C902,2045.8,895.8,2054.1,884.2,2058.8z"/>
		<path class="st5" d="M596.7,2495.8c12,0.1,19.2,6.9,23.8,17.2C606.5,2515.6,599.2,2509,596.7,2495.8z"/>
		<path class="st5" d="M753.7,3201.2c9.3-6.4,17.7-4.1,25.5,2.9C769.9,3210.1,761.4,3208.8,753.7,3201.2z"/>
		<path class="st5" d="M1352.9,2921.3c0.6-8.4,4.7-13.6,13.4-14.5C1366.2,2915.7,1363.1,2921.8,1352.9,2921.3z"/>
		<path class="st5" d="M1244.6,3031.1c1.2-9.7,6.1-15.5,16.6-14.8C1259.4,3025.4,1254.4,3030.8,1244.6,3031.1z"/>
		<path class="st5" d="M1382.8,2277.4c-8.6,0.6-15.4-1.9-18.4-10.9C1373.9,2264.5,1380.8,2266.9,1382.8,2277.4z"/>
		<path class="st5" d="M1400.2,1670.9c-6.7-0.2-10.4-3.7-11.1-10.3C1396.1,1660.5,1399.9,1663.8,1400.2,1670.9z"/>
		<path class="st5" d="M896.1,1699.8c-3.9,1.6-7.8,3.2-11.7,4.7C886.5,1698.6,890.4,1697,896.1,1699.8z"/>
		<path class="st5" d="M578,2474.6c6.7-0.5,9.6,2.6,8.8,9.2C579.9,2484.5,577.1,2481.4,578,2474.6z"/>
		<path class="st5" d="M843.1,1733.5c-0.9,6-4.4,7.5-9.8,5.5C834.2,1732.9,837.5,1731.1,843.1,1733.5z"/>
		<path class="st5" d="M1396.4,2286.6c-5.8,1.9-9.2-0.1-9.9-6.3C1392.4,2278.3,1395.7,2280.4,1396.4,2286.6z"/>
		<path class="st5" d="M790.6,1771.9c-0.6,6.8-4.2,10.2-11.2,9.9C783.1,1778.5,786.8,1775.2,790.6,1771.9z"/>
		<path class="st5" d="M681.9,1877.7c0.9,6.1-1.2,10.3-7.6,11.6C676.8,1885.4,679.4,1881.5,681.9,1877.7z"/>
		<path class="st5" d="M671.8,1891.7c0.6,6.1-2.2,8.9-8.3,8.3C662.9,1893.8,665.6,1891.1,671.8,1891.7z"/>
		<path class="st5" d="M1332.9,2948.2c-0.5-6.3,2.2-10.2,8.6-11.2C1342,2943.4,1339.2,2947.1,1332.9,2948.2z"/>
		<path class="st5" d="M1343.2,2935c-1.9-5.2,0-8,5.5-8.3C1351,2932.2,1349.3,2935,1343.2,2935z"/>
		<path class="st5" d="M1366.7,2906.3c-1-5.9,0.3-10.5,6.8-12.2C1375.2,2900.5,1372.6,2904.3,1366.7,2906.3z"/>
		<path class="st5" d="M1375.2,2891.9c-1.8-5.7,0.3-9,6.2-9.8C1383.7,2888,1381.8,2891.4,1375.2,2891.9z"/>
		<path class="st5" d="M1396.3,2860.8c-1.7-6.1,0.7-9.8,6.8-11.1C1405.3,2856.1,1403.2,2859.9,1396.3,2860.8z"/>
		<path class="st5" d="M1027.6,2826.6c-0.4,6.4-3.6,9.8-10.2,9.8C1017.7,2830,1021.1,2826.8,1027.6,2826.6z"/>
		<path class="st5" d="M1464.9,1919c3.3-3.9,6.6-7.7,9.9-11.6C1475.6,1914.7,1472.3,1918.6,1464.9,1919z"/>
		<path class="st5" d="M923.9,2009.2c0-6.7,3.5-9.3,9.9-8.2C933.6,2007.6,930.2,2010.2,923.9,2009.2z"/>
		<path class="st5" d="M912.4,2021.7c-0.9-6.5,1.9-9.8,8.5-9.6C921.8,2018.6,919,2021.8,912.4,2021.7z"/>
		<path class="st5" d="M871.7,2089.6c-2.8-5.7-1.7-10.2,3.9-13.5C874.3,2080.7,873,2085.1,871.7,2089.6z"/>
		<path class="st0" d="M3543,2475.3c-3.1,37.2-2.9,58.9-6.9,79.8c-44.6,231.3-222.4,313.9-428.3,199.4
			c-177.6-98.7-294.9-357.5-252.7-557.5c40-190,214.9-276.6,391.1-189.3C3444.5,2106.2,3521.4,2281.8,3543,2475.3z"/>
	</g>
</g>
</svg>
