<svg xmlns="http://www.w3.org/2000/svg" viewBox="0 0 577.04 577.04"><defs><style>.cls-1{fill:#ebecea;}.cls-2{fill:#1a6342;}.cls-3{fill:#171717;}.cls-4{fill:#196342;}</style></defs><g id="Layer_2" data-name="Layer 2"><g id="Layer_1-2" data-name="Layer 1"><g id="kWdtxq.tif"><path class="cls-1" d="M23.9,136.31q24.24,12,48.48,24.06c2.54,1.25,5.19,3,7.2-.93,2.29-4.4-1.67-4.66-3.89-5.6-15.46-6.54-31-12.91-46.49-19.34A62.1,62.1,0,0,0,13,127.79c-1.53-.44-2.86-1.7-3.65.37s1.09,2.39,2.56,3C15.94,132.79,19.91,134.58,23.9,136.31ZM505.31.87c2.12,10.21,4.19,19.71,6.07,29.23,13.71,69.62,5,132.51-54.49,180-6,4.8-7.46,10.32-5.22,17.69a161.92,161.92,0,0,1,6.5,37.52c.32,5.37-.1,12.05-4.5,14.87-3.4,2.19-7.83-2.82-11.41-5.16-21.55-14.05-44.61-20.37-70.65-17.3-25.73,3-42.45,13.16-48,41-5.3,26.6-21.29,47.26-46.92,59-5.61,2.58-11.16,5.3-16.73,8l.31,1.76h9c99.38,0,198.76-.11,298.14.22,8.2,0,9.69-2.29,9.68-10q-.4-173.61-.19-347.23a44.61,44.61,0,0,1,0-4.77C577.27,2,575.71.79,572,.81,549.76.94,527.52.87,505.31.87Zm-379,162c6-3.3,11.5-.4,16.25-3.32-4.75-5.21-9.12-9.81-13.27-14.6-3.74-4.33-2.3-7.45,2.68-9.47,11.81-4.81,29.69,2.33,34.84,14.07a97.46,97.46,0,0,1,8.28,36c.16,4.56,1.48,6.24,5.94,7.72,9.4,3.14,17.51,9,25.3,15.06,8.63,6.71,7.75,12-2.42,16.57-15.1,6.8-35,2.78-47.41-10.24-5.11-5.36-10.94-8.1-18-9.68-25.74-5.72-52.31-7.42-77.48-15.89-1.59-.53-3.12-.22-3.5,1.84.91,2.59,3.39,2.63,5.33,3.48a459.09,459.09,0,0,0,57.39,20.36c23.77,6.89,37.57,23.63,43.86,47.09,3,11.31,5,22.92,9.4,33.85C178.83,309,188,318,202.17,321.26c42.47,9.95,67.93-4.24,81.32-45.26a48,48,0,0,0,2.32-9.23c1.2-10.55,5.84-19.5,12.93-27.08,15.19-16.24,30.48-31.85,54.59-35.13,10.42-1.42,20.83-5.75,32-12.44-4.74-.27-7.3-.89-9.67-.47-13.78,2.42-27.5,5.26-41.29,7.62-9.51,1.63-18.93,2.79-23.53,13.27-.91,2.06-3.58,3.67-5.79,4.79-14.33,7.26-29.67,7.09-44.79,4.27-8.71-1.63-10.29-9.73-3.74-15.79a36.74,36.74,0,0,1,11.9-7.76c13.41-4.83,19.11-12.48,18.65-28-.61-20.64,15.63-36.94,34-38.67,4.41-.42,9.81-1.29,11.89,3.59,1.88,4.44-2.6,7.14-5.46,10.05-4.46,4.53-10.82,7.22-14.11,13.63l16.32.93L307.4,173.91l17.64,4-22,12.33c23.29,6.25,46.13-5,54.95-25.57,11.45-26.77-3.55-48.7-32.6-47.78a48,48,0,0,0-15.87,3c-5.85,2.27-11.33,4.39-16.5-1.49-1.88-2.14-4.82-1.47-7.19-.38-10,4.58-17.58,11.51-23,23.15,4.21-1.72,6.76-2.8,9.33-3.81,2.81-1.09,4.91.34,6.87,2.08s1.51,3.68.68,6c-7.86,22-41.21,45.91-67.23,32.41-4.21-2.18-9-3.18-13.31-5.22-11.57-5.47-18-19.09-15.12-31.17,4.17-.23,7.5,4.83,13.77,1.55-6.89-6-13.19-11.19-19.11-16.77-4.83-4.55-10.29-6.19-16.63-4.9-6.72,1.36-13.08.18-19.7-1.23-24.21-5.17-45.67,11.65-45.12,34.88.5,21,22.65,42.08,43.63,41.3,3.54-.13,7.74.61,10.25-3.68-6-5-14.7-5.55-20.49-12,5.64-3,11.67-.78,18.43-3.38Zm227.39,53.47c-11.57,1.41-20.76,4.27-26.75,13.54-1.53,2.38-2.35,5.46-5.79,5.72-5.67.43-7.77,4.67-10.29,8.82-10,16.5-16.05,34.63-20.79,53.1-5.91,23-20.91,35.62-43.45,40.12-49.53,9.88-78.47-2.68-90.73-52.27-3.57-14.44-6.89-29.09-13.56-42.56-8.18-16.49-24-22.8-42-16.46L118,236.2c-4.18,3.44-7.72,1.74-11,1.59-23.4-1.1-46.5-.47-68.39,9.54-3.14,1.43-6.82,6.32-9.79,2.89-2.84-3.28-1-8.54,1.31-12.57,2.87-5.06,7.13-8.94,11.47-12.68,6.46-5.56,13-11,20.1-16.9-21.08-10.91-39.6-23.86-55.9-41.35-1.41,18.51-4.5,35.63,14.78,46.15,6.28,3.42,4.42,10.2,1.44,16.19-6.8,13.67-6.85,28.07-3.71,42.7,1.13,5.22,2.93,6,7.42,2.46,22.63-18.06,48.82-23.9,77.11-20.92,23.8,2.5,33.22,5.5,39.92,32.23,13.56,54.05,40.78,74.48,91.8,72.34,40.24-1.68,58-14.53,72-52.15,3.09-8.31,6.34-16.61,8.78-25.13,4.83-16.89,16.77-26,33-29.49,31.9-6.87,63.29-7.19,92.25,11,5,3.17,6.36,1.89,6.47-3.61a66.15,66.15,0,0,0-7.21-31.25c-6.37-12.82-6.44-13,5-21.75,44.78-34.44,63.35-80,60.24-135.95-1.24-22.44-10.42-43.16-10.95-65.48C494,.86,491.77.85,489.47.85H430.22c16.83,11.08,32.86,8.57,50.06,3.39-.95,3.9-1.48,6.6-2.26,9.21-4.28,14.39-12.94,26-23.1,36.76-2.39,2.54-8.22,4.75-5.61,8.59,2.26,3.33,6.92-.71,10.4-1.66a218.88,218.88,0,0,0,21.76-7c5.65-2.22,7.54-1.7,7.73,5.08,1.77,64.17-32.84,119.36-91.6,145.49-1.29.58-3.21.36-3.89,3,13,8.66,27.05,16.75,34.05,34.06-30.08-10-59.27-9-90.07-2.5C341.67,226.66,349.12,223.74,353.69,216.38ZM5.14,271c0,28.09,0,53.75,0,79.41,0,12.55,4.59,17.08,17.29,17.08q83.55,0,167.11,0c2.5,0,5-.36,7.52-.55-26.22-7.91-44-24.49-55.42-48.34a167.72,167.72,0,0,1-12.44-37.95c-1.76-8.3-6.22-13.17-15.13-14.7-33-5.64-63.47-2.33-88.1,23.35-4.65,4.85-8.95,4.32-12.24-1.52C11.13,283.09,8.85,278.25,5.14,271Zm201.3-142.37c0-8.78.06-17,0-25.16-.14-17.11-11.5-33.26-28.16-36.82A205,205,0,0,1,125.73,47.3c-7.6-4-14.9-3.59-20.87,2.87-4.8,5.2-6.89,2.6-9.48-2A58,58,0,0,1,88.73,7.66c1.08-5.59-.38-6.82-5.94-7-7.43-.29-13.86,1-18.54,6.85-2.7-2.4,2.81-6.25-1.92-6.37C56.87,1,50.44-1.62,46,3.41c-4,4.56-6.44,4-10.7.13C27.51-3.48,9,.65,5.89,9.67,4.78,12.88,3.09,17,10,15.05c4.31-1.22,8,1.29,11.09,4.23C30.4,28.06,36.52,38,37,51.57c.77,20.51,5.31,40.05,20.93,57,3.12-15.31,5.95-29.23,9.17-45,3.69,4.15,5.87,7.34,8.74,9.69C87,82.3,92.75,92.37,83.24,106c-.14.19.46.91.73,1.4a6,6,0,0,0,1.82.13c9.85-2.44,19.63-5.2,29.55-7.31,6-1.26,5.41-3.62,2.69-7.69-2.94-4.41-5.42-9.14-.16-14.36,1.72,2.19,3.27,4.15,4.8,6.12q15.42,19.95,38.83,11.21c13.5-5,18.85-3.13,25.65,9.67,2.07,3.9,3.37,8.21,5.23,12.25C195,123.12,198.87,127.38,206.44,128.61Zm166.84-23.43c-2-3.77-3.41-5.85-4.2-8.15-1.39-4-6.9-7.77-3.89-12,4.92-6.84,10.31-18.37,16.85-17.77,7.37.66,8.09,12.9,8.84,21,.65,7.08.14,14.26.14,24,13.55-16.88,22.38-32.81,25.68-51.75,3.42-19.67-7.13-41.83,13.56-59.27H388.31c2.48,4.24,1,8.28,1,13.29-3.88-4.33-7.18-8-10.45-11.68C375.8-.63,371.6.44,368.22,1.24s-.75,4.3-.87,6.54c-.57,9.86-1.4,19.6-5.93,28.66-1.82,3.63-3.74,5.11-7,1.74-7.05-7.26-14.35-5.1-21.53-.42a306.37,306.37,0,0,1-47,25.1c-12.26,5.25-20,14.23-25.48,25.73-5.28,11.17-4.19,23.63-6.47,35.42-1.05,5.47,3.16,3.31,5.46,2.15,8-4,12.9-11.07,17-18.75,4.69-8.82,11.47-15.1,22-13.19,20.65,3.72,33.68-4.67,40.93-23.62.14-.37,1.09-.43,1.74-.67,6.43,8.95.66,15.36-4.43,22-1.35,1.77-5.62,4.64,0,5.94C348.24,100.6,360,102.59,373.28,105.18Zm-149.81-83h-.55c.34,5.37.35,10.79,1.08,16.11,2.26,16.53,2.35,16.49,16,7,5-3.49,10.68-6.73,8-14.27-3-8.39-5.6-16.85-6-25.81-.16-3.17-1.61-4.1-4.72-4.44-10.1-1.11-13.42,1.57-13.75,12C223.38,15.85,223.47,19,223.47,22.17ZM373.76,164.52c26.35-5.13,49-13.69,71.44-29.79-4,0-5.37-.33-6.48.05-18.31,6.12-36.57,12.37-54.88,18.48C379.28,154.78,376.56,157.9,373.76,164.52ZM448,111.08c-3.37-2-4.63-.9-6-.07a228.87,228.87,0,0,1-55.44,25.17,14.54,14.54,0,0,0-5.07,2.44c-1.57,1.3-4.13,2.66-2.88,5.32s3.59,1.47,5.77.89A166.82,166.82,0,0,0,419,131.5C429.39,126.09,439.18,119.89,448,111.08ZM83.07,138.34,4.28,100C13.24,114.34,68.28,142,83.07,138.34Zm8,41.18c-.45-2.61-3-3.47-5.18-4.58-21-10.89-44.9-13.76-66-24.26-1.3-.65-2.52-.69-3.09.76-.88,2.22.21,3.35,2.36,4.22q33.12,13.43,66.16,27C88.54,184,90.1,182.94,91.1,179.52Zm334-20.08c-20.72,10.52-46.54,5.63-65.34,22C383.44,179.82,405.64,173.75,425.11,159.44Zm-419.46,78c2.14-7.1,8.36-14.14,0-22.5Z"/><path class="cls-2" d="M505.31.87c22.21,0,44.45.07,66.69-.06,3.71,0,5.27,1.2,4.88,4.91a44.61,44.61,0,0,0,0,4.77q0,173.61.19,347.23c0,7.69-1.48,10-9.68,10-99.38-.33-198.76-.22-298.14-.22h-9l-.31-1.76c5.57-2.65,11.12-5.37,16.73-8,25.63-11.79,41.62-32.45,46.92-59,5.55-27.81,22.27-37.94,48-41,26-3.07,49.1,3.25,70.65,17.3,3.58,2.34,8,7.35,11.41,5.16,4.4-2.82,4.82-9.5,4.5-14.87a161.92,161.92,0,0,0-6.5-37.52c-2.24-7.37-.79-12.89,5.22-17.69,59.49-47.52,68.2-110.41,54.49-180C509.5,20.58,507.43,11.08,505.31.87Z"/><path class="cls-3" d="M126.3,162.91l22.78,14.29c-6.76,2.6-12.79.34-18.43,3.38,5.79,6.48,14.44,7.06,20.49,12-2.51,4.29-6.71,3.55-10.25,3.68-21,.78-43.13-20.31-43.63-41.3-.55-23.23,20.91-40.05,45.12-34.88,6.62,1.41,13,2.59,19.7,1.23,6.34-1.29,11.8.35,16.63,4.9,5.92,5.58,12.22,10.75,19.11,16.77-6.27,3.28-9.6-1.78-13.77-1.55-2.92,12.08,3.55,25.7,15.12,31.17,4.3,2,9.1,3,13.31,5.22,26,13.5,59.37-10.41,67.23-32.41.83-2.33,1.33-4.21-.68-6s-4.06-3.17-6.87-2.08c-2.57,1-5.12,2.09-9.33,3.81,5.42-11.64,13-18.57,23-23.15,2.37-1.09,5.31-1.76,7.19.38,5.17,5.88,10.65,3.76,16.5,1.49a48,48,0,0,1,15.87-3c29.05-.92,44.05,21,32.6,47.78-8.82,20.61-31.66,31.82-54.95,25.57l22-12.33-17.64-4,22.31-14.32-16.32-.93c3.29-6.41,9.65-9.1,14.11-13.63,2.86-2.91,7.34-5.61,5.46-10.05-2.08-4.88-7.48-4-11.89-3.59-18.33,1.73-34.57,18-34,38.67.46,15.51-5.24,23.16-18.65,28a36.74,36.74,0,0,0-11.9,7.76c-6.55,6.06-5,14.16,3.74,15.79,15.12,2.82,30.46,3,44.79-4.27,2.21-1.12,4.88-2.73,5.79-4.79,4.6-10.48,14-11.64,23.53-13.27,13.79-2.36,27.51-5.2,41.29-7.62,2.37-.42,4.93.2,9.67.47-11.21,6.69-21.62,11-32,12.44-24.11,3.28-39.4,18.89-54.59,35.13-7.09,7.58-11.73,16.53-12.93,27.08a48,48,0,0,1-2.32,9.23c-13.39,41-38.85,55.21-81.32,45.26C188,318,178.83,309,173.46,295.71c-4.44-10.93-6.36-22.54-9.4-33.85-6.29-23.46-20.09-40.2-43.86-47.09a459.09,459.09,0,0,1-57.39-20.36c-1.94-.85-4.42-.89-5.33-3.48.38-2.06,1.91-2.37,3.5-1.84,25.17,8.47,51.74,10.17,77.48,15.89,7.09,1.58,12.92,4.32,18,9.68,12.41,13,32.31,17,47.41,10.24,10.17-4.58,11-9.86,2.42-16.57-7.79-6.05-15.9-11.92-25.3-15.06-4.46-1.48-5.78-3.16-5.94-7.72a97.46,97.46,0,0,0-8.28-36c-5.15-11.74-23-18.88-34.84-14.07-5,2-6.42,5.14-2.68,9.47,4.15,4.79,8.52,9.39,13.27,14.6C137.8,162.51,132.33,159.61,126.3,162.91Zm47.23,82.18c3.79,6.85,6.87,12.7,10.25,18.36,1.34,2.24,1.81,6.4,5.22,5.7,3.13-.64,2.82-4.59,3.24-7.28,1.3-8.36,3.29-15.56,14.43-11.31,2,.76,3.8,0,5.41-1,7.66-5.13,16.5-5.59,24.83-4.07,11.59,2.13,27.53-2.55,30.46,16.23.2,1.33,1.53,2.61,2.66,1.72,4.71-3.69,9.94-7.2,10.69-13.86.64-5.56-3.15-7.9-7.69-9.32-13-4.06-26.08-8-39.12-12.07-2.92-.91-5.22-1-7.38,2-7.11,10-17.91,12.47-29.25,13.42C189.76,244.21,182.22,244.55,173.53,245.09Zm53.3,21.4c-4.94-8.12-4.93-8-14.69-6.47a30.76,30.76,0,0,1-7.53-.26c-2.36-.23-4.4,0-5.64,2.31-3.63,6.89,1.87,19.41,9.46,22.05,14.26,4.95,27.37.72,40-5.25,5.74-2.71,6.92-8.66,6.94-14.65,0-6.18-5.51-6.19-9.19-8C235.75,251,232.72,260.72,226.83,266.49Zm-38.44,13.27c-4.28,13.14-3.15,21,4.86,24.32,21.49,8.8,43.17,10.38,64.17-2,5.77-3.4,7-8.82,5.55-14.87-.93-3.86-3.06-5.84-6.17-1.5-7.25,10.1-17.55,11.47-28.88,10.6-7.17-.55-14.21-2.66-21.66-.64-3.78,1-7.15-2.26-9.68-5.18C193.92,287.42,191.61,284,188.39,279.76Zm41.11-74.43c1.88-.31,2.58-.26,3.11-.55,11.92-6.56,23.88-13.06,35.68-19.84,1.77-1,3.53-3.43,2.25-5.68-1.5-2.6-4.5-2.26-6.78-1.21-7.47,3.44-15,6.85-22.15,10.89-7.85,4.44-15.26,4.92-23.44.79-6.19-3.13-12.91-5.2-19.42-7.67-1.4-.53-3.23-1.51-4.28.18-1.41,2.29.62,3.35,2.24,4.29q11.49,6.69,23,13.32C223.26,201.87,226.82,203.83,229.5,205.33Z"/><path class="cls-3" d="M353.69,216.38c-4.57,7.36-12,10.28-16,18.9,30.8-6.52,60-7.49,90.07,2.5-7-17.31-21.07-25.4-34.05-34.06.68-2.67,2.6-2.45,3.89-3C456.36,174.56,491,119.37,489.2,55.2c-.19-6.78-2.08-7.3-7.73-5.08a218.88,218.88,0,0,1-21.76,7c-3.48,1-8.14,5-10.4,1.66-2.61-3.84,3.22-6,5.61-8.59,10.16-10.75,18.82-22.37,23.1-36.76.78-2.61,1.31-5.31,2.26-9.21-17.2,5.18-33.23,7.69-50.06-3.39h59.25c2.3,0,4.56,0,4.64,3.25.53,22.32,9.71,43,10.95,65.48,3.11,56-15.46,101.51-60.24,136-11.41,8.77-11.34,8.93-5,21.75a66.15,66.15,0,0,1,7.21,31.25c-.11,5.5-1.45,6.78-6.47,3.61-29-18.23-60.35-17.91-92.25-11-16.2,3.49-28.14,12.6-33,29.49-2.44,8.52-5.69,16.82-8.78,25.13-14,37.62-31.8,50.47-72,52.15-51,2.14-78.24-18.29-91.8-72.34-6.7-26.73-16.12-29.73-39.92-32.23-28.29-3-54.48,2.86-77.11,20.92-4.49,3.58-6.29,2.76-7.42-2.46-3.14-14.63-3.09-29,3.71-42.7,3-6,4.84-12.77-1.44-16.19C1.29,202.35,4.38,185.23,5.79,166.72c16.3,17.49,34.82,30.44,55.9,41.35C54.63,214,48.05,219.41,41.59,225c-4.34,3.74-8.6,7.62-11.47,12.68-2.28,4-4.15,9.29-1.31,12.57,3,3.43,6.65-1.46,9.79-2.89,21.89-10,45-10.64,68.39-9.54,3.25.15,6.79,1.85,11-1.59l-17.62-9.81c18-6.34,33.81,0,42,16.46,6.67,13.47,10,28.12,13.56,42.56,12.26,49.59,41.2,62.15,90.73,52.27,22.54-4.5,37.54-17.08,43.45-40.12,4.74-18.47,10.76-36.6,20.79-53.1,2.52-4.15,4.62-8.39,10.29-8.82,3.44-.26,4.26-3.34,5.79-5.72C332.93,220.65,342.12,217.79,353.69,216.38Z"/><path class="cls-2" d="M5.14,271c3.71,7.27,6,12.11,8.61,16.76,3.29,5.84,7.59,6.37,12.24,1.52,24.63-25.68,55.06-29,88.1-23.35,8.91,1.53,13.37,6.4,15.13,14.7a167.72,167.72,0,0,0,12.44,37.95c11.45,23.85,29.2,40.43,55.42,48.34-2.51.19-5,.55-7.52.55q-83.57.06-167.11,0c-12.7,0-17.27-4.53-17.29-17.08C5.11,324.73,5.14,299.07,5.14,271Z"/><path class="cls-3" d="M206.44,128.61c-7.57-1.23-11.44-5.49-14.06-11.17-1.86-4-3.16-8.35-5.23-12.25-6.8-12.8-12.15-14.72-25.65-9.67q-23.37,8.76-38.83-11.21c-1.53-2-3.08-3.93-4.8-6.12-5.26,5.22-2.78,10,.16,14.36,2.72,4.07,3.26,6.43-2.69,7.69-9.92,2.11-19.7,4.87-29.55,7.31a5.71,5.71,0,0,1-1.82-.14c-.27-.48-.87-1.2-.73-1.39C92.75,92.37,87,82.3,75.87,73.2c-2.87-2.35-5.05-5.54-8.74-9.69-3.22,15.81-6,29.73-9.17,45C42.34,91.62,37.8,72.08,37,51.57c-.51-13.54-6.63-23.51-16-32.29-3.13-2.94-6.78-5.45-11.09-4.23C3.09,17,4.78,12.88,5.89,9.67,9,.65,27.51-3.48,35.34,3.54,39.6,7.36,42,8,46,3.41c4.4-5,10.83-2.44,16.29-2.3,4.73.12-.78,4,1.92,6.37C68.93,1.62,75.36.34,82.79.63c5.56.21,7,1.44,5.94,7a58,58,0,0,0,6.65,40.49c2.59,4.62,4.68,7.22,9.48,2,6-6.46,13.27-6.85,20.87-2.87a205,205,0,0,0,52.54,19.33c16.66,3.56,28,19.71,28.16,36.82C206.5,111.64,206.44,119.83,206.44,128.61ZM164,75.38c-13.06,6.58-23.31,7.3-30-5.57-.39-.76-2.38-1.37-3.27-1-1.81.64-1.48,2.47-1.15,4,1.58,7.59,5.73,12.45,13.81,13.56S159.47,88.06,164,75.38Z"/><path class="cls-3" d="M373.28,105.18c-13.28-2.59-25-4.58-36.64-7.28-5.61-1.3-1.34-4.17,0-5.94,5.09-6.67,10.86-13.08,4.43-22-.65.24-1.6.3-1.74.67-7.25,19-20.28,27.34-40.93,23.62-10.57-1.91-17.35,4.37-22,13.19-4.08,7.68-8.95,14.7-17,18.75-2.3,1.16-6.51,3.32-5.46-2.15,2.28-11.79,1.19-24.25,6.47-35.42,5.44-11.5,13.22-20.48,25.48-25.73a306.37,306.37,0,0,0,47-25.1c7.18-4.68,14.48-6.84,21.53.42,3.27,3.37,5.19,1.89,7-1.74,4.53-9.06,5.36-18.8,5.93-28.66.12-2.24-2.57-5.73.87-6.54s7.58-1.87,10.67,1.61c3.27,3.68,6.57,7.35,10.45,11.68,0-5,1.45-9-1-13.29h41.95c-20.69,17.44-10.14,39.6-13.56,59.27-3.3,18.94-12.13,34.87-25.68,51.75,0-9.7.51-16.88-.14-24-.75-8.09-1.47-20.33-8.84-21-6.54-.6-11.93,10.93-16.85,17.77-3,4.18,2.5,7.92,3.89,12C369.87,99.33,371.3,101.41,373.28,105.18ZM299.84,76.91c5.8,9.31,13.85,11,22.17,5.65,8-5.13,9.25-12.28,2.66-21.51C322.09,75.09,313.69,80.24,299.84,76.91Z"/><path class="cls-3" d="M223.47,22.17c0-3.16-.09-6.32,0-9.47C223.82,2.32,227.14-.36,237.24.75c3.11.34,4.56,1.27,4.72,4.44.44,9,3,17.42,6,25.81,2.7,7.54-2.95,10.78-8,14.27-13.67,9.51-13.76,9.55-16-7-.73-5.32-.74-10.74-1.08-16.11Z"/><path class="cls-3" d="M373.76,164.52c2.8-6.62,5.52-9.74,10.08-11.26,18.31-6.11,36.57-12.36,54.88-18.48,1.11-.38,2.45-.05,6.48-.05C422.78,150.83,400.11,159.39,373.76,164.52Z"/><path class="cls-3" d="M448,111.08c-8.79,8.81-18.58,15-28.94,20.42a166.82,166.82,0,0,1-34.64,13.33c-2.18.58-4.48,1.87-5.77-.89s1.31-4,2.88-5.32a14.54,14.54,0,0,1,5.07-2.44A228.87,228.87,0,0,0,442,111C443.34,110.18,444.6,109.11,448,111.08Z"/><path class="cls-3" d="M83.07,138.34C68.28,142,13.24,114.34,4.28,100Z"/><path class="cls-3" d="M91.1,179.52c-1,3.42-2.56,4.5-5.77,3.18q-33-13.63-66.16-27c-2.15-.87-3.24-2-2.36-4.22.57-1.45,1.79-1.41,3.09-.76,21.12,10.5,45.05,13.37,66,24.26C88.06,176.05,90.65,176.91,91.1,179.52Z"/><path class="cls-3" d="M425.11,159.44c-19.47,14.31-41.67,20.38-65.34,22C378.57,165.07,404.39,170,425.11,159.44Z"/><path class="cls-3" d="M29.2,134.5c15.51,6.43,31,12.8,46.49,19.34,2.22.94,6.18,1.2,3.89,5.6-2,3.89-4.66,2.18-7.2.93q-24.25-12-48.47-24.06C25.13,134.12,27.35,134.83,29.2,134.5Z"/><path class="cls-2" d="M5.65,237.45V215C14,223.31,7.79,230.35,5.65,237.45Z"/><path class="cls-2" d="M29.2,134.5c-1.85.33-4.07-.38-5.29,1.81-4-1.73-8-3.52-12-5.16-1.47-.6-3.33-1-2.56-3s2.12-.81,3.65-.37A62.1,62.1,0,0,1,29.2,134.5Z"/><path class="cls-1" d="M173.53,245.09c8.69-.54,16.23-.88,23.75-1.52,11.34-.95,22.14-3.42,29.25-13.42,2.16-3,4.46-2.9,7.38-2,13,4.05,26.09,8,39.12,12.07,4.54,1.42,8.33,3.76,7.69,9.32-.75,6.66-6,10.17-10.69,13.86-1.13.89-2.46-.39-2.66-1.72-2.93-18.78-18.87-14.1-30.46-16.23-8.33-1.52-17.17-1.06-24.83,4.07-1.61,1.07-3.43,1.79-5.41,1-11.14-4.25-13.13,2.95-14.43,11.31-.42,2.69-.11,6.64-3.24,7.28-3.41.7-3.88-3.46-5.22-5.7C180.4,257.79,177.32,251.94,173.53,245.09Z"/><path class="cls-1" d="M226.83,266.49c5.89-5.77,8.92-15.54,19.39-10.3,3.68,1.84,9.21,1.85,9.19,8,0,6-1.2,11.94-6.94,14.65-12.67,6-25.78,10.2-40,5.25-7.59-2.64-13.09-15.16-9.46-22.05,1.24-2.35,3.28-2.54,5.64-2.31a30.76,30.76,0,0,0,7.53.26C221.9,258.48,221.89,258.37,226.83,266.49Z"/><path class="cls-1" d="M188.39,279.76c3.22,4.26,5.53,7.66,8.19,10.75,2.53,2.92,5.9,6.21,9.68,5.18,7.45-2,14.49.09,21.66.64,11.33.87,21.63-.5,28.88-10.6,3.11-4.34,5.24-2.36,6.17,1.5,1.45,6,.22,11.47-5.55,14.87-21,12.36-42.68,10.78-64.17,2C185.24,300.8,184.11,292.9,188.39,279.76Z"/><path class="cls-1" d="M229.5,205.33c-2.68-1.5-6.24-3.46-9.76-5.48q-11.53-6.63-23-13.32c-1.62-.94-3.65-2-2.24-4.29,1.05-1.69,2.88-.71,4.28-.18,6.51,2.47,13.23,4.54,19.42,7.67,8.18,4.13,15.59,3.65,23.44-.79,7.15-4,14.68-7.45,22.15-10.89,2.28-1.05,5.28-1.39,6.78,1.21,1.28,2.25-.48,4.67-2.25,5.68-11.8,6.78-23.76,13.28-35.68,19.84C232.08,205.07,231.38,205,229.5,205.33Z"/><path class="cls-1" d="M164,75.38c-4.56,12.68-12.38,12.1-20.57,11s-12.23-6-13.81-13.56c-.33-1.57-.66-3.4,1.15-4,.89-.32,2.88.29,3.27,1C140.72,82.68,151,82,164,75.38Z"/><path class="cls-1" d="M299.84,76.91c13.85,3.33,22.25-1.82,24.83-15.86,6.59,9.23,5.38,16.38-2.66,21.51C313.69,87.87,305.64,86.22,299.84,76.91Z"/></g><rect class="cls-4" y="362.47" width="577.04" height="214.57"/><rect class="cls-4" y="270.98" width="7.77" height="191.3"/></g></g></svg>