<?xml version="1.0" encoding="utf-8"?>
<!-- Generator: Adobe Illustrator 21.0.0, SVG Export Plug-In . SVG Version: 6.00 Build 0)  -->
<svg version="1.1" id="Layer_1" xmlns="http://www.w3.org/2000/svg" xmlns:xlink="http://www.w3.org/1999/xlink" x="0px" y="0px"
	 viewBox="0 0 500 500" style="enable-background:new 0 0 500 500;" xml:space="preserve">
<style type="text/css">
	.st0{fill:#005942;}
	.st1{fill:#FFFFFF;}
</style>
<rect class="st0" width="500" height="500"/>
<g id="RVLTTN_1_">
	<g>
		<path d="M370.8,113.9c10.9,3.9,14.6,12,14.5,23.1c-0.2,53.3-0.1,106.5-0.1,159.8c0,16.5-5.8,22.2-22.2,22.3
			c-11.6,0-23.3,0.3-34.9-0.1c-8.1-0.3-8,6.3-10.2,10.9c-2.2,4.5-0.2,8.5,3.8,10.4c4.7,2.3,9.9,3.7,15,5c12.2,3,22.8,2.3,33.5-2.4
			c9-3.9,16.9-2.5,24.4,3.5c1.5,1.2,2.9,2.6,4.3,3.9c10.9,10.3,11,10.6,3.3,23.8c-9.6,16.6-23.6,28.5-40.4,37.4
			c-22.9-20-30.7-22.2-10.9-55.1c-4.2-1.5-8.2-3-12.2-4.4c-2.3-0.8-4.7-1.2-7-1.8c-19.7-5.1-23-11.1-16-31c-12,0-23.7-0.2-35.3,0.3
			c-1.1,0-3,4-2.9,6c0.5,14.3,4.2,28.8,26.7,31.3c0,5.4,0,10.9,0,17c-35.5,0-71.1,0-107.2,0c0-5.5,0-10.9,0-16.4
			c20.8-6.2,28.8-17.3,26.2-38.3c-2.4,0-5,0-7.5,0c-26.4,0-52.8,0-79.2,0c-14,0-20.4-6.3-20.4-20.4c-0.1-54.7,0.1-109.4-0.1-164.1
			c0-10.4,4.8-16.7,13.9-20.6C210.1,113.9,290.4,113.9,370.8,113.9z M233.4,227.1c3-1.9,5.1-3.5,7.4-4.7c3.4-1.8,7.2-5.1,10.2-4.5
			c4.8,1,7.2-1.1,10.2-3.4c5.3-4.2,10.7-8.3,16-12.5c3.1-2.4,6.1-4.8,9.2-7.1c0.5,0.7,1.1,1.3,1.6,2c-1.7,1.4-3.3,2.9-5,4.2
			c-6.3,4.9-12.6,9.8-18.9,14.7c-3.4,2.7-8.1,4.5-5.5,10.7c0.5,1.2-1.8,4.4-3.6,5.7c-8.6,6.2-17.3,12.3-26.3,18
			c-6.7,4.2-11.7,1.2-12-6.9c-0.2-4.1,0.2-8.2-0.2-12.3c-0.1-1.1-1.9-2-2.9-3c-0.9,0.9-2.5,1.8-2.5,2.8c-0.2,14.9-0.1,29.8-0.1,44.9
			c52.1,0,103.3,0,154.7,0c0-47.5,0-94.5,0-141.8c-77.1,0-153.7,0-230.4,0c-0.2,1.9-0.5,3.3-0.5,4.7c0,43.8,0,87.6,0,131.4
			c0,1.2-0.2,2.5,0.2,3.6c0.4,0.9,1.7,2.3,2.3,2.1c1.1-0.2,2.6-1.3,2.9-2.2c0.5-1.8,0.2-3.8,0.2-5.8c0.1-14.5-0.3-29.1,0.5-43.5
			c0.6-11.4,6.7-17.9,16.7-20c14.9-3.2,19-1.7,26.2,9.8c0.7,1.2,1.6,2.3,3.4,4.9c4.4-17.9,16.3-17.9,29.5-14.4
			C227.4,207.3,231.9,213.4,233.4,227.1z M387.6,382.6c-1.1-2.7-1.2-3.9-1.8-4.4c-7.7-6.9-15.4-13.9-23.4-20.5
			c-1.1-0.9-4.7-0.3-5.6,0.8c-1.2,1.5-1.9,5.3-1,6.2c7.7,7.3,15.7,14.3,24.1,20.8C381,386.3,384.9,383.7,387.6,382.6z M262.7,297.4
			c0.3-5.8-4.8-11.5-10.5-11.9c-5.6-0.3-11.3,4.9-11.7,10.8c-0.3,5.8,4.8,11.5,10.5,11.9C256.7,308.6,262.4,303.3,262.7,297.4z
			 M157.8,227.6c-0.7,0.4-1.3,0.9-2,1.3c0,14.4-0.1,28.8,0.1,43.2c0,1.2,1.9,2.4,3,3.6c0.9-1.2,2.5-2.3,2.5-3.5
			c0.2-13.5,0.2-27-0.1-40.5C161.4,230.4,159.1,229,157.8,227.6z"/>
		<path d="M399.9,440.7c-13.4-3.8-22-14-32.2-23.4c21-12.6,38-28.2,47.4-51.7c12.3,10.4,25.5,19.4,26.1,37.7
			c0.6,17-9.3,31.2-25.6,36c-1.4,0.4-2.7,1-4.1,1.4C407.6,440.7,403.7,440.7,399.9,440.7z"/>
		<path class="st1" d="M233.4,227.1c-1.5-13.7-6-19.8-16.8-22.7c-13.1-3.5-25-3.6-29.5,14.4c-1.9-2.7-2.7-3.7-3.4-4.9
			c-7.2-11.6-11.3-13.1-26.2-9.8c-10,2.2-16.1,8.6-16.7,20c-0.8,14.5-0.4,29-0.5,43.5c0,1.9,0.3,4-0.2,5.8c-0.3,1-1.8,2-2.9,2.2
			c-0.6,0.1-1.9-1.2-2.3-2.1c-0.4-1.1-0.2-2.4-0.2-3.6c0-43.8,0-87.6,0-131.4c0-1.4,0.3-2.8,0.5-4.7c76.7,0,153.3,0,230.4,0
			c0,47.2,0,94.3,0,141.8c-51.3,0-102.6,0-154.7,0c0-15.1,0-30,0.1-44.9c0-0.9,1.6-1.8,2.5-2.8c1,1,2.8,2,2.9,3
			c0.4,4.1,0,8.2,0.2,12.3c0.3,8.1,5.3,11.1,12,6.9c9-5.7,17.7-11.8,26.3-18c1.8-1.3,4.1-4.5,3.6-5.7c-2.6-6.2,2.2-8,5.5-10.7
			c6.3-5,12.6-9.8,18.9-14.7c1.7-1.3,3.3-2.8,5-4.2c-0.5-0.7-1.1-1.3-1.6-2c-3.1,2.4-6.1,4.7-9.2,7.1c-5.4,4.2-10.7,8.3-16,12.5
			c-3,2.3-5.4,4.4-10.2,3.4c-3-0.6-6.8,2.7-10.2,4.5C238.5,223.5,236.4,225.1,233.4,227.1z M301.1,157.4
			c-15.7,0.2-27.6,6.5-36.3,18.6c-7.6,10.6-9.9,22.4-6.2,36.2c8-6.3,15.1-12.2,22.6-17.3c2.1-1.5,5.8-0.7,8.8-1
			c-1,2.8-1.2,6.5-3.2,8.2c-8,6.9-16.6,13.2-24.9,19.7c12.2,20.3,33,28.3,53.6,21.1c20.1-7,31.4-28.9,28.3-42.3c-13.9,0-28,0-42.7,0
			C301.1,185.8,301.1,171.9,301.1,157.4z M206.7,180.3c0-11.4-9.1-20.8-20.5-21.1c-11.4-0.3-21.5,9.5-21.6,20.9
			c-0.1,11.1,9.5,20.8,20.7,21C197.1,201.3,206.7,192,206.7,180.3z M308.6,188.2c0.5,0.3,1.1,0.6,1.6,0.9c8.6-9,17.3-18.1,27.5-28.8
			c-10.5-4.2-19.3-7.8-29.1-11.7C308.6,163.1,308.6,175.6,308.6,188.2z"/>
		<path class="st1" d="M387.6,382.6c-2.8,1.1-6.6,3.7-7.7,2.8c-8.4-6.5-16.4-13.5-24.1-20.8c-0.9-0.9-0.2-4.7,1-6.2
			c0.9-1.1,4.5-1.6,5.6-0.8c8,6.6,15.7,13.6,23.4,20.5C386.4,378.8,386.5,379.9,387.6,382.6z"/>
		<path class="st1" d="M262.7,297.4c-0.3,5.9-6,11.1-11.6,10.8c-5.7-0.4-10.9-6.1-10.5-11.9c0.3-5.8,6-11.1,11.7-10.8
			C257.9,285.9,263,291.6,262.7,297.4z"/>
		<path class="st1" d="M157.8,227.6c1.2,1.4,3.5,2.8,3.6,4.2c0.3,13.5,0.2,27,0.1,40.5c0,1.2-1.6,2.3-2.5,3.5c-1-1.2-3-2.4-3-3.6
			c-0.2-14.4-0.1-28.8-0.1-43.2C156.5,228.5,157.2,228.1,157.8,227.6z"/>
		<path d="M301.1,157.4c0,14.4,0,28.4,0,43.2c14.7,0,28.8,0,42.7,0c3.1,13.4-8.1,35.2-28.3,42.3c-20.6,7.2-41.4-0.9-53.6-21.1
			c8.3-6.5,16.9-12.8,24.9-19.7c2-1.7,2.2-5.4,3.2-8.2c-3,0.3-6.6-0.5-8.8,1c-7.5,5.1-14.6,11.1-22.6,17.3
			c-3.8-13.7-1.5-25.5,6.2-36.2C273.4,164,285.3,157.6,301.1,157.4z"/>
		<path d="M206.7,180.3c0,11.7-9.6,21-21.4,20.8c-11.2-0.2-20.8-9.9-20.7-21c0.1-11.4,10.2-21.2,21.6-20.9
			C197.6,159.4,206.7,168.9,206.7,180.3z"/>
		<path d="M308.6,188.2c0-12.5,0-25.1,0-39.6c9.8,4,18.6,7.5,29.1,11.7c-10.2,10.7-18.8,19.7-27.5,28.8
			C309.6,188.8,309.1,188.5,308.6,188.2z M312.1,153.8c0,9.7,0,18.1,0,28c6.7-7.2,12.4-13.3,19-20.4
			C324.3,158.7,318.5,156.4,312.1,153.8z"/>
		<path class="st1" d="M312.1,153.8c6.4,2.6,12.2,4.9,19,7.6c-6.7,7.1-12.3,13.2-19,20.4C312.1,171.9,312.1,163.5,312.1,153.8z"/>
	</g>
</g>
<g id="GFjjL3.tif">
	<g>
		<path class="st1" d="M489.4,237.4c0,9.4,0,18.9,0,28.3c-0.1,0.8-0.3,1.6-0.4,2.4c-1.2,20.6-5.5,40.6-12.4,60
			c-17.7,50.3-48.4,90.8-92.5,120.6C349,472.5,310,486.3,267.5,489c-14,0.9-28.2,0.7-42.2-0.4c-19-1.4-37.5-6.3-55.5-12.6
			c-37.1-13-69-34.2-95.5-63.1C35.9,371.1,14.5,321.8,11.1,265c-1.2-19.6-0.7-39.2,3.2-58.6c11-55.6,37.6-102.2,80.8-139
			c38.2-32.6,82.6-51.3,132.4-55.9C255.2,9,282.9,11,310.1,18c72.3,18.6,133.5,71.7,161.6,140.9c8.9,22,15.2,44.8,16.9,68.6
			C488.8,230.8,489.1,234.1,489.4,237.4z M224.8,54.9c-26.3,3.4-50.4,11.9-73,24.8c-35.4,20.4-61.9,49.3-79.5,86.2
			c-8.8,18.6-14.7,38-17.5,58.9c25.4,0,50.2,0,75.2,0c0,17,0,33.7,0,50.7c-25,0-49.9,0-74.7,0c0,1.4-0.2,2.5,0,3.5
			c1.4,6.8,2.6,13.7,4.3,20.5c10.9,41.4,33,75.7,66.1,102.9c26.8,22,57.5,35.5,91.5,41.9c2.4,0.5,4.9,0.5,7.7,0.8
			c0-25.3,0-50.1,0-74.8c17,0,33.7,0,50.6,0c0,25,0,49.8,0,74.5c14.1,1.1,54.3-12.7,77.1-26.8c35.3-21.8,61.4-51.8,78-89.8
			c7.4-16.8,12.3-34.3,14.6-52.8c-25.4,0-50.2,0-75.1,0c0-16.9,0-33.6,0-50.7c25,0,49.9,0,75.3,0c-7.3-48.2-28.3-88.7-64.2-121.1
			c-30.1-27.1-65.4-42.9-105.9-48.8c0,25.6,0,50.4,0,75.3c-17,0-33.8,0-50.6,0C224.8,105.1,224.8,80.4,224.8,54.9z"/>
	</g>
</g>
</svg>
