<?xml version="1.0" encoding="utf-8"?>
<svg version="1.1" id="Layer_1" x="0px" y="0px" style="enable-background:new 0 0 43.1 18.2;" viewBox="0 0 45 45" xmlns="http://www.w3.org/2000/svg">
  <style type="text/css">
	.st0{fill:#020202;}
	.st1{enable-background:new    ;}
</style>
  <title>Fairly Logo</title>
  <rect x="-0.078" y="-0.033" width="45.255" height="45.36" style="fill: rgb(108, 98, 255);"/>
  <g id="Layer_2" transform="matrix(1, 0, 0, 1, 1.410227, 13.695124)">
    <g id="Layer_1-2">
      <g>
        <g>
          <path class="st0" d="M40.2,7.4l1.5-3.8L38,2l-1.5,3.8" style="fill: rgb(255, 255, 255);"/>
          <path class="st0" d="M36.6,1.4c-0.1,0.2-0.2,0.3-0.3,0.5C35.9,3,35.5,4,35.1,5.1c-0.1,0.2-0.1,0.4,0,0.5 c0.1,0.2,0.4,0.4,0.6,0.2c0.1,0,0.1-0.1,0.2-0.2C36,5.6,36,5.5,36,5.5l1.3-3.3c0.2-0.5,0-0.8-0.5-0.8L36.6,1.4z" style="fill: rgb(255, 255, 255);"/>
          <path class="st0" d="M42.3,3.6c-0.1,0.1-0.2,0.2-0.2,0.3c-0.5,1.2-0.9,2.3-1.4,3.5c-0.1,0.2-0.1,0.6,0.2,0.7c0,0,0,0,0,0 c0.3,0.1,0.6-0.1,0.7-0.3c0,0,0,0,0,0c0.5-1.2,0.9-2.3,1.4-3.5c0.1-0.2,0.1-0.4-0.1-0.6C42.8,3.5,42.5,3.5,42.3,3.6z" style="fill: rgb(255, 255, 255);"/>
        </g>
        <g class="st1">
          <path class="st0" d="M0.5,13.5c-0.2-0.2-0.3-0.4-0.3-0.8V3.4c0-0.3,0.1-0.6,0.3-0.7s0.4-0.3,0.7-0.3h5.7c0.7,0,1,0.3,1,0.8 c0,0.5-0.3,0.8-1,0.8H2.3v3.1h4.3c0.7,0,1,0.3,1,0.8c0,0.5-0.3,0.8-1,0.8H2.3v4c0,0.3-0.1,0.6-0.3,0.8c-0.2,0.2-0.4,0.3-0.7,0.3 C0.9,13.8,0.7,13.7,0.5,13.5z" style="fill: rgb(255, 255, 255);"/>
        </g>
        <g class="st1">
          <path class="st0" d="M14.7,6.5C15.2,7,15.5,7.8,15.5,9v3.9c0,0.3-0.1,0.5-0.3,0.7c-0.2,0.2-0.4,0.2-0.7,0.2 c-0.3,0-0.5-0.1-0.7-0.3c-0.2-0.2-0.3-0.4-0.3-0.7v-0.4c-0.2,0.4-0.5,0.7-0.9,1c-0.4,0.2-0.8,0.4-1.4,0.4c-0.5,0-1-0.1-1.4-0.3 c-0.4-0.2-0.8-0.5-1-0.9c-0.2-0.4-0.4-0.8-0.4-1.3c0-0.6,0.1-1,0.4-1.4c0.3-0.3,0.8-0.6,1.4-0.7s1.6-0.2,2.8-0.2h0.4V8.7 c0-0.5-0.1-0.9-0.3-1.2c-0.2-0.2-0.6-0.4-1.1-0.4c-0.3,0-0.6,0-1,0.1c-0.3,0.1-0.7,0.2-1.1,0.4C9.8,7.9,9.6,7.9,9.4,7.9 C9.3,7.9,9.1,7.9,9,7.7S8.8,7.4,8.8,7.2c0-0.2,0-0.3,0.1-0.5C9,6.6,9.2,6.4,9.4,6.3c0.4-0.2,0.8-0.4,1.3-0.5 c0.5-0.1,1-0.2,1.5-0.2C13.4,5.7,14.2,5.9,14.7,6.5z M13.1,11.9c0.3-0.4,0.5-0.8,0.5-1.4v-0.3h-0.3c-0.7,0-1.3,0-1.7,0.1 s-0.7,0.2-0.9,0.3c-0.2,0.2-0.3,0.4-0.3,0.7c0,0.3,0.1,0.6,0.4,0.8c0.2,0.2,0.5,0.3,0.9,0.3C12.3,12.4,12.7,12.2,13.1,11.9z" style="fill: rgb(255, 255, 255);"/>
          <path class="st0" d="M17.7,4c-0.2-0.2-0.3-0.5-0.3-0.8s0.1-0.6,0.3-0.8c0.2-0.2,0.5-0.3,0.9-0.3c0.4,0,0.6,0.1,0.9,0.3 s0.3,0.5,0.3,0.8S19.6,3.8,19.4,4c-0.2,0.2-0.5,0.3-0.9,0.3C18.2,4.3,17.9,4.2,17.7,4z M17.8,13.6c-0.2-0.2-0.3-0.4-0.3-0.7V6.6 c0-0.3,0.1-0.5,0.3-0.7c0.2-0.2,0.4-0.2,0.7-0.2s0.5,0.1,0.7,0.2c0.2,0.2,0.3,0.4,0.3,0.7v6.2c0,0.3-0.1,0.6-0.3,0.7 c-0.2,0.2-0.4,0.2-0.7,0.2S18,13.8,17.8,13.6z" style="fill: rgb(255, 255, 255);"/>
          <path class="st0" d="M26.7,5.9C26.9,6,27,6.2,27,6.5c0,0.3-0.1,0.5-0.2,0.6S26.3,7.4,26,7.4l-0.5,0c-0.6,0.1-1.1,0.3-1.4,0.6 s-0.4,0.8-0.4,1.4v3.4c0,0.3-0.1,0.6-0.3,0.7c-0.2,0.2-0.4,0.2-0.7,0.2s-0.5-0.1-0.7-0.2c-0.2-0.2-0.3-0.4-0.3-0.7V6.6 c0-0.3,0.1-0.5,0.3-0.7c0.2-0.2,0.4-0.2,0.7-0.2c0.3,0,0.5,0.1,0.7,0.2c0.2,0.2,0.3,0.4,0.3,0.7v0.6c0.2-0.5,0.5-0.8,0.9-1.1 c0.4-0.3,0.9-0.4,1.3-0.4l0.2,0C26.3,5.7,26.5,5.7,26.7,5.9z" style="fill: rgb(255, 255, 255);"/>
          <path class="st0" d="M28.1,13.6c-0.2-0.2-0.3-0.4-0.3-0.7V3.2c0-0.3,0.1-0.5,0.3-0.7c0.2-0.2,0.4-0.2,0.7-0.2s0.5,0.1,0.7,0.2 s0.3,0.4,0.3,0.7v9.6c0,0.3-0.1,0.6-0.3,0.7c-0.2,0.2-0.4,0.2-0.7,0.2S28.3,13.8,28.1,13.6z" style="fill: rgb(255, 255, 255);"/>
          <path class="st0" d="M37.8,5.8c0.1-0.1,0.3-0.1,0.5-0.1c0.2,0,0.5,0.1,0.7,0.2c0.2,0.2,0.3,0.4,0.3,0.6c0,0.1,0,0.2-0.1,0.4 l-4.4,9.2c-0.2,0.4-0.5,0.5-0.9,0.5c-0.2,0-0.5-0.1-0.7-0.2c-0.2-0.2-0.3-0.4-0.3-0.6c0-0.1,0-0.3,0.1-0.4l1.1-2.3l-3-6.2 C31.1,6.8,31,6.7,31,6.6c0-0.2,0.1-0.5,0.3-0.6c0.2-0.2,0.4-0.3,0.7-0.3c0.2,0,0.3,0,0.5,0.1c0.2,0.1,0.3,0.2,0.4,0.4l2.3,5 l2.2-5C37.5,6.1,37.6,5.9,37.8,5.8z" style="fill: rgb(255, 255, 255);"/>
        </g>
      </g>
    </g>
  </g>
</svg>