<?xml version="1.0" encoding="utf-8"?>
<!-- Generator: Adobe Illustrator 25.0.0, SVG Export Plug-In . SVG Version: 6.00 Build 0)  -->
<svg version="1.1" xmlns="http://www.w3.org/2000/svg" xmlns:xlink="http://www.w3.org/1999/xlink" x="0px" y="0px"
	 viewBox="0 0 339 339" style="enable-background:new 0 0 339 339;" xml:space="preserve">
<style type="text/css">
	.st0{fill:#2A1966;}
	.st1{fill:#FFFFFF;}
	.st2{fill:#AE47A9;}
</style>
<g id="Layer_2">
	<rect class="st0" width="339" height="339"/>
</g>
<g id="Layer_1">
	<path class="st1" d="M103.6,216.3c0.5,0.4,1.1,0.7,1.9,0.7h5.1c0.7,0,1.3-0.2,1.7-0.7c0.5-0.5,0.8-1.1,0.8-1.9v-45.6h14.1
		c0.7,0,1.3-0.2,1.7-0.7c0.5-0.5,0.8-1.1,0.8-1.9v-3.7c0-0.7-0.3-1.3-0.8-1.7c-0.4-0.5-1-0.8-1.7-0.8h-14.1v-4.9
		c0-3.5,0.7-6.1,2-7.8s3.6-2.6,6.9-2.6h6.3c0.7,0,1.3-0.2,1.7-0.7c0.5-0.5,0.8-1.1,0.8-1.9v-3.7c0-0.7-0.3-1.3-0.8-1.7
		c-0.4-0.5-1-0.8-1.7-0.8h-6.6c-11.9,0-18.2,5.6-18.8,16.9v19.1l0,0v42.5C102.9,215.1,103.1,215.8,103.6,216.3z M141.2,215.8
		c3.1,1.5,6.4,2.2,10,2.2c4.7,0,8.6-0.8,11.7-2.4c3.1-1.6,5.4-3.6,7-5.9v4.7c0,0.7,0.2,1.3,0.7,1.9c0.5,0.4,1.1,0.7,1.9,0.7h5
		c0.7,0,1.3-0.2,1.7-0.7c0.5-0.5,0.8-1.1,0.8-1.9V179c0-5.7-1.8-10.4-5.4-14.2c-3.6-3.9-9.4-5.8-17.6-5.8c-4.8,0-8.9,0.8-12.1,2.5
		c-3.3,1.6-5.7,3.5-7.3,5.8c-1.5,2.2-2.3,4.2-2.4,5.9c0,0.7,0.2,1.2,0.7,1.7c0.5,0.4,1.1,0.7,1.7,0.7h4.7c0.6,0,1-0.1,1.3-0.4
		c0.4-0.3,0.7-0.8,0.9-1.4c1-1.8,2.6-3.4,4.6-4.7c2-1.4,4.7-2.1,7.9-2.1c8.5,0,12.8,3.7,12.8,11.2v3.2l-16.3,2.3
		c-6.8,0.9-12.2,3-16.2,6.1c-3.9,3.1-5.9,7-5.9,11.8c0,3.1,0.9,5.9,2.6,8.4C135.7,212.4,138.1,214.4,141.2,215.8z M165,205.2
		c-3,3.1-6.9,4.6-11.6,4.6c-3.3,0-6.1-0.8-8.5-2.3c-2.4-1.6-3.6-3.9-3.6-6.8c0-2.6,1.3-4.8,3.9-6.5c2.6-1.7,6.5-3,11.7-3.7l12.7-1.9
		v3.1C169.6,197.6,168.1,202.1,165,205.2z M194,149.4c-0.7,0-1.3-0.2-1.9-0.7c-0.4-0.5-0.7-1.1-0.7-1.9V141c0-0.7,0.2-1.3,0.7-1.9
		c0.5-0.5,1.1-0.8,1.9-0.8h6.9c0.7,0,1.3,0.3,1.9,0.8s0.8,1.1,0.8,1.9v5.9c0,0.7-0.3,1.3-0.8,1.9c-0.5,0.4-1.1,0.7-1.9,0.7H194
		V149.4z M194.8,216.9c-0.7,0-1.3-0.2-1.9-0.7c-0.4-0.5-0.7-1.1-0.7-1.9v-51.7c0-0.7,0.2-1.3,0.7-1.7c0.5-0.5,1.1-0.8,1.9-0.8h5.2
		c0.7,0,1.3,0.3,1.7,0.8c0.5,0.4,0.8,1,0.8,1.7v51.8c0,0.7-0.3,1.3-0.8,1.9c-0.4,0.4-1,0.7-1.7,0.7L194.8,216.9L194.8,216.9z
		 M216.2,216.3c0.5,0.4,1.1,0.7,1.9,0.7h5.4c0.7,0,1.3-0.2,1.9-0.7c0.5-0.5,0.8-1.1,0.8-1.9v-32.1c0-3.9,1.1-7,3.4-9.3
		c2.3-2.3,5.4-3.5,9.3-3.5h6.6c0.7,0,1.3-0.2,1.7-0.7c0.5-0.4,0.8-1,0.8-1.7v-4.5c0-0.7-0.3-1.3-0.8-1.7c-0.4-0.5-1-0.8-1.7-0.8H241
		c-7.2,0-12.3,2.5-15.3,7.4v-4.8c0-0.7-0.3-1.3-0.8-1.9c-0.5-0.5-1.1-0.8-1.9-0.8h-5c-0.7,0-1.3,0.3-1.9,0.8
		c-0.4,0.5-0.7,1.1-0.7,1.9v51.7C215.5,215.1,215.7,215.8,216.2,216.3z M256.4,216.9c-0.7,0-1.3-0.2-1.9-0.7
		c-0.4-0.5-0.7-1.1-0.7-1.9v-72.5c0-0.7,0.2-1.3,0.7-1.7c0.5-0.5,1.1-0.8,1.9-0.8h5.1c0.7,0,1.3,0.3,1.7,0.8c0.5,0.4,0.8,1,0.8,1.7
		v72.6c0,0.7-0.3,1.3-0.8,1.9c-0.4,0.4-1,0.7-1.7,0.7L256.4,216.9L256.4,216.9z M285.5,237c0.4,0.4,0.9,0.7,1.5,0.7h5.1
		c1.2,0,2.1-0.6,2.7-1.9l31.2-71.6c0.4-1.1,0.5-1.7,0.5-2c0-0.6-0.2-1.1-0.7-1.5c-0.5-0.4-1-0.7-1.6-0.7h-5.1
		c-1.2,0-2.2,0.6-2.7,1.9l-17.1,39.8l-16.6-39.8c-0.6-1.2-1.5-1.9-2.6-1.9h-5.4c-0.7,0-1.2,0.2-1.6,0.7s-0.7,1-0.7,1.6
		c0,0.3,0.2,0.9,0.5,1.9l20.9,49.3l-8.4,20c-0.4,0.8-0.5,1.5-0.5,2C284.9,236.1,285.1,236.6,285.5,237z"/>
	<path class="st2" d="M55.1,142.1c-3.2-2.6-7.8-2.6-10.9,0.1l-28.8,24.1c-1.9,1.6-3.1,4-3.1,6.6v35.6c0,4.7,3.8,8.6,8.6,8.6h58.6
		c3.4,0,6.4-2,7.8-4.9c0.2-0.3,0.4-0.7,0.4-1.1c0.2-0.8,0.4-1.7,0.4-2.5V173c0-0.8-0.1-1.6-0.3-2.4v-24.5c0-1.6-1.3-2.9-2.9-2.9
		h-4.6c-1.6,0-2.9,1.3-2.9,2.9v14L55.1,142.1z M23.2,174l26.5-22.2l27.4,22.3v32.1H23.2V174z"/>
	<path class="st1" d="M45.1,179.3h10.3c1.7,0,3.1,1.4,3.1,3.1v6.2c0,1.7-1.4,3.1-3.1,3.1H45.1c-1.7,0-3.1-1.4-3.1-3.1v-6.2
		C42,180.7,43.4,179.3,45.1,179.3z"/>
</g>
</svg>
