<?xml version="1.0" encoding="utf-8"?>
<!-- Generator: Adobe Illustrator 21.0.0, SVG Export Plug-In . SVG Version: 6.00 Build 0)  -->
<svg version="1.1" id="Layer_1" xmlns="http://www.w3.org/2000/svg" xmlns:xlink="http://www.w3.org/1999/xlink" x="0px" y="0px"
	 viewBox="0 0 500 500" style="enable-background:new 0 0 500 500;" xml:space="preserve">
<style type="text/css">
	.st0{fill:#FEFEFE;}
	.st1{fill:#76BE02;}
	.st2{fill:none;stroke:#76BE02;stroke-width:8;stroke-miterlimit:10;}
</style>
<path class="st0" d="M0,0v500h500V0H0z M298.8,320.7c-17.8,48-53.9,74.4-103.4,82.2c-40.3,6.4-81.1,1.6-121.7,2.9
	c-8.1,0.3-5.7-5.3-5.7-9.3c-0.1-45.2-0.1-90.4-0.1-135.6c0-44.4,0.2-88.7-0.2-133.1c-0.1-8.2,1.2-11.5,10.5-11.1
	c38.9,1.5,78-2.8,116.8,2.3c70.7,9.2,109.4,51.5,113.9,123.3C310.5,269.1,308.1,295.5,298.8,320.7z"/>
<g id="K2yBQx_1_">
	<g>
		<path class="st1" d="M324.1,357.6c-0.1-26.9,21.1-48.8,47.4-48.8c26.2,0,47.6,22.1,47.4,48.9c-0.2,26.3-21.1,47.7-46.9,47.9
			C345.5,405.9,324.2,384.5,324.1,357.6z"/>
		<path class="st0" d="M222,304.4c-10,27.6-46.9,45.5-73.6,37c-5.8-1.8-3.2-6.1-3.2-9.2c-0.3-23.6-0.2-47.3-0.2-70.9
			c0-24.1,0.3-48.1-0.2-72.2c-0.2-7.8,2.2-10.3,9.8-9.5c6.2,0.7,12.5,0,18.6,0.7c30.1,3,45.8,16.3,52.6,45.7
			C231.9,252.3,231.2,278.8,222,304.4z"/>
	</g>
</g>
<circle class="st2" cx="250" cy="250" r="250"/>
</svg>
