<?xml version="1.0" encoding="utf-8"?>
<!-- Generator: Adobe Illustrator 25.0.0, SVG Export Plug-In . SVG Version: 6.00 Build 0)  -->
<svg version="1.1" id="Layer_1" xmlns="http://www.w3.org/2000/svg" xmlns:xlink="http://www.w3.org/1999/xlink" x="0px" y="0px"
	 viewBox="0 0 500 500" style="enable-background:new 0 0 500 500;" xml:space="preserve">
<style type="text/css">
	.st0{fill:#A3C3D9;}
	.st1{fill:#FE5C66;}
	.st2{fill:#FEE64E;}
	.st3{fill:#6FF07A;}
	.st4{fill:#38A9FE;}
</style>
<rect y="0" class="st0" width="500" height="500"/>
<g id="KptFl1.tif">
	<g>
		<path class="st1" d="M14.1,248.3c0-25.5,0.1-51-0.1-76.5c0-3.6,0.8-4.8,4.8-4.9c17.9-0.1,35.8-0.5,53.7,0.2
			c15.4,0.6,30.9,0.6,45.4,6.7c27.9,11.7,44.7,32.4,49,62.4c2.9,20.2,0,39.7-11.1,57.2c-13.2,21-32.2,33.5-57,36.5
			c-15.2,1.9-30.5,0.7-45.8,0.4c-11.4-0.2-22.7-0.5-34.1-0.4c-3.8,0-5-1.1-5-4.9C14.1,299.6,14.1,273.9,14.1,248.3z M26.3,214.8
			c0.2,0,0.5,0,0.7,0c0,21.4,0,42.9,0,64.3c0,11.9,0.2,23.8,0.1,35.7c0,2.9,0.8,3.7,3.7,3.8c20.4,0.8,40.7,1,61.1-0.1
			c17.9-0.9,33.4-7.9,45-21.6c20.1-23.5,22.8-50.6,11.6-78.5c-8.2-20.4-24.7-33.2-46.4-37c-23.9-4.2-48.3-4.7-72.6-4.9
			c-2.3,0-3.2,0.6-3.2,3.1C26.4,191.3,26.3,203,26.3,214.8z"/>
		<path class="st2" d="M301.3,309.3c-7.1,7.7-14.6,14.1-24,17.9c-20.9,8.5-40.8,6.6-58.5-7.7c-8.9-7.2-13.9-17.2-14.1-28.7
			c-0.4-26.5-0.1-53.1-0.2-79.6c0-2.1,0.6-2.9,2.8-3c8.9-0.3,8.9-0.4,8.9,8.7c0,22.3,0,44.7-0.1,67c-0.1,18.5,13.7,33.4,32.2,36
			c12.9,1.8,24.7,0.2,35.2-7.9c10.3-7.9,15.5-18.5,16.7-31.1c1.8-17.9,0.4-35.8,0.8-53.7c0.1-5.5,0.1-11,0-16.5c0-2.2,0.6-3,2.9-3
			c10.7,0.2,8.7-1.2,8.7,8.2c0.1,36.6,0,73.2,0.1,109.8c0,3.9-1.1,5.2-4.9,4.7c-1-0.2-2.1-0.1-3.1,0c-2.5,0.3-3.5-0.7-3.4-3.3
			C301.4,321.3,301.3,315.3,301.3,309.3z"/>
		<path class="st3" d="M426.1,263.2c0-13.5-0.1-26.9,0.1-40.4c0-3.4-1-4.2-4.2-4.1c-5,0.3-9.9,0-14.9,0.1c-2.2,0-3-0.7-3-2.9
			c0.2-9.9-0.9-7.8,7.7-8c3.9-0.1,7.8-0.1,11.8,0c2.5,0.1,3.1-0.9,3.1-3.2c-0.1-6.5,0.1-13.1-0.1-19.6c-0.1-2.8,0.5-3.9,3.6-3.8
			c8.7,0.1,8.7,0,8.7,8.7c0,4.4,0.3,8.9-0.1,13.3c-0.3,3.8,1.2,4.6,4.7,4.5c10.1-0.2,20.1,0.1,30.2-0.2c3.2-0.1,4,1,3.9,4
			c-0.3,7.5,0.9,6.3-6.5,6.4c-9.5,0.1-19.1,0.1-28.6-0.1c-3.1-0.1-4.2,0.6-4.2,4c0.2,25,0.1,49.9,0.1,74.9c0,8.9,1.3,17.2,10.3,21.6
			c9.6,4.7,19.2,4.5,28.4-1.1c1.7-1.1,3.5-3.2,4.7,0.3c0.9,2.5,5.6,4.7,0.6,7.9c-13.9,9.1-28.3,9.3-42.8,2.1
			c-9.4-4.7-13.2-13.5-13.4-23.7C425.9,290.4,426.1,276.8,426.1,263.2L426.1,263.2z"/>
		<path class="st4" d="M362.6,269.3c0-19.2,0.1-38.4-0.1-57.6c0-3,0.8-3.7,3.7-3.7c8.4,0.1,8.5,0,8.5,8.3c0,36.8,0,73.7,0.1,110.5
			c0,3.3-0.9,4.2-4.1,4.1c-8-0.2-8,0-8-7.9C362.6,305.1,362.6,287.2,362.6,269.3z"/>
		<path class="st2" d="M278.2,164.5c5.5,0.1,9.1,3.2,9.1,8c0,5.6-3.3,9.3-8.3,9.2c-5.3-0.1-9.4-4.5-9.2-10
			C269.9,167.4,273.4,164.5,278.2,164.5z"/>
		<path class="st2" d="M238.1,164.6c5.5,0,8.9,3.4,8.9,8.7c0,4.7-4,8.4-8.9,8.4c-4.8,0-8.4-3.9-8.3-8.9
			C229.8,167.7,233,164.5,238.1,164.6z"/>
	</g>
</g>
</svg>
