<svg id="Layer_1" data-name="Layer 1" xmlns="http://www.w3.org/2000/svg" viewBox="0 0 262.1 262.1"><defs><style>.cls-1{fill:#93c5fd;}</style></defs><rect class="cls-1" width="262.1" height="262.1"/><g id="ImnH64.tif"><path d="M209.26,94.12c1.56,1.6,3.11,3,4.47,4.61a28.58,28.58,0,0,1-32.83,44.89l-90-37.72a23.9,23.9,0,0,1,16.79-44.71,17.83,17.83,0,0,0,1.85.44c.1-22,25.77-32.82,42-17.09,8.94-9.31,19.85-13.8,32.82-12.39a36.93,36.93,0,0,1,23.26,11.63C219.42,56.22,222.6,77,209.26,94.12Zm-21.89,33.32a11.15,11.15,0,0,0,14.69-5.72,11.32,11.32,0,0,0-5.87-14.9,11.51,11.51,0,0,0-14.74,6A11.27,11.27,0,0,0,187.37,127.44Z"/></g><polygon points="127.3 121.17 152.99 131.93 142.65 156.61 120.81 136.64 127.3 121.17"/><polygon points="142.24 230.2 142.24 155.36 114.38 145.38 114.38 230.2 142.24 230.2"/></svg>