<svg xmlns="http://www.w3.org/2000/svg" viewBox="0 0 452.59 451.86"><defs><style>.cls-1{fill:#fff;}.cls-2{fill:#231f20;}.cls-3{fill:#ffcf04;}.cls-4{fill:#2898d5;}</style></defs><g id="Layer_2" data-name="Layer 2"><g id="Layer_1-2" data-name="Layer 1"><g id="YmWBI5.tif"><g id="LwNQlV.tif"><path class="cls-1" d="M308.21,334.48v0c24.19,0,48.39-.21,72.58.07,20.78.24,37.59-7.63,50.69-23.54,9-11,14.21-23.86,17.62-37.51A105.52,105.52,0,0,0,452.58,246c-.27-16.21-.08-32.43-.08-48.64a19,19,0,0,0-.06-2.26,159.7,159.7,0,0,0-6.79-31c-4.34-12.82-10.39-24.66-20.24-34.19-10.56-10.2-23-15.87-37.93-15.64-11.37.18-22.75.07-34.12,0-1.55,0-2,.37-2,2,.05,16.78,0,33.56,0,50.33A80.4,80.4,0,0,1,348,190.66c-5,16.23-14.29,28.94-30.09,36.19a66.69,66.69,0,0,1-28,5.79q-54.57.11-109.15,0a77,77,0,0,0-26.39,4.53c-14.3,5.19-25.45,14-31.73,28.2-3.82,8.65-5.06,17.8-5,27.19q.06,48.45,0,96.9c0,.69,0,1.38,0,2.07-.76,8.17,1.33,15.69,5.27,22.75,5.79,10.35,14.69,17.36,25,22.69,14.31,7.36,29.77,10.81,45.59,12.81a305.39,305.39,0,0,0,52.28,1.62c8.2-.37,16.35-1.09,24.47-2.26a150.34,150.34,0,0,0,32.38-8C312.77,437.31,322,432,329,423.48a32.76,32.76,0,0,0,7.87-22.05c-.24-16.4-.15-32.8-.1-49.2,0-1.82-.45-2.26-2.27-2.26q-52.59.09-105.19,0a9.68,9.68,0,0,0-1.32,0c-1.11.13-1.37-.39-1.36-1.42,0-3.89.12-7.79,0-11.68-.07-1.9.36-2.5,2.4-2.5C255.42,334.51,281.82,334.48,308.21,334.48Z"/><path class="cls-2" d="M0,213.43c.75-2.15.52-4.42.69-6.63C1.76,193,4,179.53,8.71,166.5c4.95-13.77,12.19-26,23.7-35.39a59.61,59.61,0,0,1,38.2-13.81c19.73-.09,39.46,0,59.2,0q47.79,0,95.58,0c1.77,0,2.2-.5,2.14-2.19-.12-3.57,0-7.16,0-10.74,0-2.63,0-2.63-2.55-2.63q-52.5,0-105,0c-2,0-2.45-.51-2.45-2.45,0-17-.18-33.94-.17-50.9,0-9,4-16.33,10.09-22.65,7.1-7.43,16-12.09,25.46-15.63,12.19-4.54,24.86-6.91,37.74-8.38A314.93,314.93,0,0,1,233.7.1c12.88.3,25.74,1.17,38.39,3.74C286,6.67,299.75,10.31,312,18c9.73,6.15,17.59,14,21.95,24.84a38.45,38.45,0,0,1,2.87,14.5q-.07,43.17-.1,86.34c0,6.09.1,12.19,0,18.29-.24,9.7-2,19.08-6.64,27.75-6.56,12.34-16.94,20.11-29.84,24.82a76.16,76.16,0,0,1-26.38,4.61c-36.51,0-73-.09-109.53,0-12.1,0-23.7,2.58-34.13,9.11-12.63,7.9-20,19.64-24.14,33.64a77.66,77.66,0,0,0-3.14,22.29c.06,17,0,34.06.08,51.09,0,1.89-.56,2.23-2.31,2.22-12.26-.07-24.51.06-36.76-.05-12.08-.12-22.47-4.83-31.61-12.43C21.53,316.17,14.78,304.51,10,291.63a153.41,153.41,0,0,1-8.47-37.91C1,249.1.59,244.47.37,239.83c0-.31,0-.64-.37-.76Zm164.93-139A19.8,19.8,0,1,0,145.05,54.8,19.72,19.72,0,0,0,164.93,74.39Z"/><path class="cls-3" d="M308.21,334.48c-26.39,0-52.79,0-79.18-.05-2,0-2.47.6-2.4,2.5.14,3.89.07,7.79,0,11.68,0,1,.25,1.55,1.36,1.42a9.68,9.68,0,0,1,1.32,0q52.59,0,105.19,0c1.82,0,2.27.44,2.27,2.26-.05,16.4-.14,32.8.1,49.2A32.76,32.76,0,0,1,329,423.48c-7,8.47-16.25,13.83-26.41,17.71a150.34,150.34,0,0,1-32.38,8c-8.12,1.17-16.27,1.89-24.47,2.26a305.39,305.39,0,0,1-52.28-1.62c-15.82-2-31.28-5.45-45.59-12.81-10.35-5.33-19.25-12.34-25-22.69-3.94-7.06-6-14.58-5.27-22.75.06-.69,0-1.38,0-2.07q0-48.45,0-96.9c0-9.39,1.23-18.54,5-27.19,6.28-14.2,17.43-23,31.73-28.2a77,77,0,0,1,26.39-4.53q54.59,0,109.15,0a66.69,66.69,0,0,0,28-5.79c15.8-7.25,25.1-20,30.09-36.19a80.4,80.4,0,0,0,3.43-24.14c-.05-16.77,0-33.55,0-50.33,0-1.58.42-2,2-2,11.37.07,22.75.18,34.12,0,14.94-.23,27.37,5.44,37.93,15.64,9.85,9.53,15.9,21.37,20.24,34.19a159.7,159.7,0,0,1,6.79,31,19,19,0,0,1,.06,2.26c0,16.21-.19,32.43.08,48.64a105.52,105.52,0,0,1-3.48,27.54c-3.41,13.65-8.59,26.53-17.62,37.51-13.1,15.91-29.91,23.78-50.69,23.54-24.19-.28-48.39-.07-72.58-.07Zm-19,82.55A19.79,19.79,0,1,0,269.63,397C269.5,407,277.56,417.31,289.19,417Z"/></g><path class="cls-4" d="M215.18,286.34a2.77,2.77,0,0,1-.83-2.15q-4.56-36.67-9.1-73.36-8.12-65.52-16.17-131c-.22-1.78-.84-2.18-2.53-2-7.64.8-15.29,1.48-22.93,2.2q-40.14,3.8-80.27,7.55c-1.69.16-2.07.68-1.8,2.32Q87.82,127,94,164.07L110.84,265q9.57,57.33,19.1,114.65c.35,2.13,1.1,2.73,3.22,2.72q58.82-.09,117.63,0a4.17,4.17,0,0,0,3.8-1.82C276.86,351,298.08,320.73,317.06,289c17.48-29.25,33.15-59.39,44.11-91.78,8.69-25.69,14-51.87,11.26-79.2A111,111,0,0,0,357.9,72.69a2.65,2.65,0,0,0-3.42-1.47c-7.41,1.61-14.87,3-22.3,4.55Q296.62,83,261.05,90.15c-1.48.29-2.25.45-1.4,2.31,6.22,13.52,8.54,27.9,9.28,42.64,1,19.87-3.24,38.88-9.37,57.56-10,30.6-24.19,59.3-40.39,87C217.87,281.91,216.53,284.09,215.18,286.34Z"/></g></g></g></svg>