<?xml version="1.0" encoding="utf-8"?>
<!-- Generator: Adobe Illustrator 25.0.0, SVG Export Plug-In . SVG Version: 6.00 Build 0)  -->
<svg version="1.1" id="Layer_1" xmlns="http://www.w3.org/2000/svg" xmlns:xlink="http://www.w3.org/1999/xlink" x="0px" y="0px"
	 viewBox="0 0 511.8 511.9" style="enable-background:new 0 0 511.8 511.9;" xml:space="preserve">
<style type="text/css">
	.st0{fill:#232F3E;}
	.st1{fill:#FF9900;}
	.st2{fill-rule:evenodd;clip-rule:evenodd;}
	.st3{fill-rule:evenodd;clip-rule:evenodd;fill:#FFFFFF;}
</style>
<rect class="st0" width="511.9" height="511.9"/>
<g>
	<path class="st1" d="M422.8,400.9c-187.4,89.2-303.8,14.6-378.2-30.8c-4.6-2.9-12.4,0.7-5.6,8.5c24.8,30.1,106.1,102.6,212.2,102.6
		c106.2,0,169.4-57.9,177.3-68.1C436.3,403.2,430.8,397.6,422.8,400.9L422.8,400.9z M475.5,371.9c-5-6.6-30.6-7.8-46.7-5.8
		c-16.1,1.9-40.3,11.8-38.2,17.7c1.1,2.2,3.3,1.2,14.4,0.2c11.1-1.1,42.2-5,48.7,3.4c6.5,8.5-9.9,49.2-12.9,55.7
		c-2.9,6.6,1.1,8.2,6.6,3.9c5.4-4.4,15.1-15.7,21.6-31.7C475.4,399.3,479.3,376.9,475.5,371.9L475.5,371.9z"/>
	<path class="st2" d="M296.8,218.9c0,23.4,0.6,42.9-11.2,63.7c-9.5,16.9-24.7,27.3-41.6,27.3c-23.1,0-36.5-17.6-36.5-43.5
		c0-51.2,45.9-60.5,89.3-60.5V218.9z M357.4,365.4c-4,3.5-9.7,3.8-14.2,1.4c-19.9-16.6-23.5-24.3-34.5-40.1
		c-33,33.6-56.3,43.7-99,43.7c-50.5,0-89.9-31.2-89.9-93.6c0-48.8,26.5-82,64.1-98.2c32.6-14.4,78.2-16.9,113-20.9V150
		c0-14.3,1.1-31.2-7.3-43.5c-7.4-11.1-21.4-15.6-33.7-15.6c-22.9,0-43.3,11.7-48.3,36.1c-1,5.4-5,10.7-10.4,11l-58.3-6.3
		c-4.9-1.1-10.3-5.1-9-12.6c13.4-70.6,77.2-91.9,134.4-91.9c29.2,0,67.4,7.8,90.5,29.9c29.2,27.3,26.4,63.7,26.4,103.3V254
		c0,28.1,11.7,40.5,22.6,55.7c3.9,5.4,4.7,11.9-0.2,16c-12.3,10.2-34.1,29.2-46.1,39.9L357.4,365.4"/>
	<path class="st1" d="M422.8,400.9c-187.4,89.2-303.8,14.6-378.2-30.8c-4.6-2.9-12.4,0.7-5.6,8.5c24.8,30.1,106.1,102.6,212.2,102.6
		c106.2,0,169.4-57.9,177.3-68.1C436.3,403.2,430.8,397.6,422.8,400.9L422.8,400.9z M475.5,371.9c-5-6.6-30.6-7.8-46.7-5.8
		c-16.1,1.9-40.3,11.8-38.2,17.7c1.1,2.2,3.3,1.2,14.4,0.2c11.1-1.1,42.2-5,48.7,3.4c6.5,8.5-9.9,49.2-12.9,55.7
		c-2.9,6.6,1.1,8.2,6.6,3.9c5.4-4.4,15.1-15.7,21.6-31.7C475.4,399.3,479.3,376.9,475.5,371.9L475.5,371.9z"/>
	<path class="st3" d="M296.8,218.9c0,23.4,0.6,42.9-11.2,63.7c-9.5,16.9-24.7,27.3-41.6,27.3c-23.1,0-36.5-17.6-36.5-43.5
		c0-51.2,45.9-60.5,89.3-60.5V218.9z M357.4,365.4c-4,3.5-9.7,3.8-14.2,1.4c-19.9-16.6-23.5-24.3-34.5-40.1
		c-33,33.6-56.3,43.7-99,43.7c-50.5,0-89.9-31.2-89.9-93.6c0-48.8,26.5-82,64.1-98.2c32.6-14.4,78.2-16.9,113-20.9V150
		c0-14.3,1.1-31.2-7.3-43.5c-7.4-11.1-21.4-15.6-33.7-15.6c-22.9,0-43.3,11.7-48.3,36.1c-1,5.4-5,10.7-10.4,11l-58.3-6.3
		c-4.9-1.1-10.3-5.1-9-12.6c13.4-70.6,77.2-91.9,134.4-91.9c29.2,0,67.4,7.8,90.5,29.9c29.2,27.3,26.4,63.7,26.4,103.3V254
		c0,28.1,11.7,40.5,22.6,55.7c3.9,5.4,4.7,11.9-0.2,16c-12.3,10.2-34.1,29.2-46.1,39.9L357.4,365.4"/>
</g>
</svg>
