<?xml version="1.0" encoding="UTF-8" standalone="no"?>
<!-- Created with Keyshape -->
<svg xmlns="http://www.w3.org/2000/svg" viewBox="0 0 630.21 507.48">
    <defs>
        <clipPath id="ClipPath-1">
            <rect width="630.251" height="257.126" fill="#dddddd" stroke="none" transform="translate(315.125,128.563) translate(-315.125,-128.563)"/>
        </clipPath>
    </defs>
    <style>
@keyframes Gear_t { 0% { transform: translate(330.595px,247.54px) rotate(0deg) rotate(0deg) translate(-330.595px,-247.54px); } 100% { transform: translate(330.595px,247.54px) rotate(0deg) rotate(360deg) translate(-330.595px,-247.54px); } }
@keyframes a0_f { 0% { fill: #bcbcbc; } 100% { fill: #bcbcbc; } }
@keyframes a1_f { 0% { fill: #bcbcbc; } 100% { fill: #bcbcbc; } }
@keyframes a2_f { 0% { fill: #bcbcbc; } 100% { fill: #bcbcbc; } }
@keyframes a3_f { 0% { fill: #bcbcbc; } 100% { fill: #bcbcbc; } }
@keyframes a4_f { 0% { fill: #bcbcbc; } 100% { fill: #bcbcbc; } }
@keyframes a5_f { 0% { fill: #bcbcbc; } 100% { fill: #bcbcbc; } }
@keyframes a6_f { 0% { fill: #bcbcbc; } 100% { fill: #bcbcbc; } }
@keyframes a7_f { 0% { fill: #bcbcbc; } 100% { fill: #bcbcbc; } }
@keyframes a8_f { 0% { fill: #bcbcbc; } 100% { fill: #bcbcbc; } }
@keyframes a9_f { 0% { fill: #bcbcbc; } 100% { fill: #bcbcbc; } }
@keyframes a10_f { 0% { fill: #bcbcbc; } 100% { fill: #bcbcbc; } }
@keyframes a11_f { 0% { fill: #bcbcbc; } 100% { fill: #bcbcbc; } }
@keyframes a12_f { 0% { fill: #bcbcbc; } 100% { fill: #bcbcbc; } }
@keyframes a13_f { 0% { fill: #bcbcbc; } 100% { fill: #bcbcbc; } }
@keyframes a14_f { 0% { fill: #bcbcbc; } 100% { fill: #bcbcbc; } }
@keyframes a15_f { 0% { fill: #bcbcbc; } 100% { fill: #bcbcbc; } }
@keyframes a16_f { 0% { fill: #bcbcbc; } 100% { fill: #bcbcbc; } }
@keyframes a17_f { 0% { fill: #bcbcbc; } 100% { fill: #bcbcbc; } }
@keyframes a18_f { 0% { fill: #bcbcbc; } 100% { fill: #bcbcbc; } }
@keyframes a19_f { 0% { fill: #bcbcbc; } 100% { fill: #bcbcbc; } }
@keyframes a20_f { 0% { fill: #bcbcbc; } 100% { fill: #bcbcbc; } }
@keyframes a21_f { 0% { fill: #bcbcbc; } 100% { fill: #bcbcbc; } }
@keyframes a22_f { 0% { fill: #bcbcbc; } 100% { fill: #bcbcbc; } }
@keyframes a23_f { 0% { fill: #bcbcbc; } 100% { fill: #bcbcbc; } }
@keyframes a24_f { 0% { fill: #bcbcbc; } 100% { fill: #bcbcbc; } }
@keyframes a25_f { 0% { fill: #bcbcbc; } 100% { fill: #bcbcbc; } }
@keyframes a26_f { 0% { fill: #bcbcbc; } 100% { fill: #bcbcbc; } }
@keyframes a27_f { 0% { fill: #bcbcbc; } 100% { fill: #bcbcbc; } }
@keyframes a28_f { 0% { fill: #bcbcbc; } 100% { fill: #bcbcbc; } }
@keyframes a29_f { 0% { fill: #bcbcbc; } 100% { fill: #bcbcbc; } }
@keyframes a30_f { 0% { fill: #bcbcbc; } 100% { fill: #bcbcbc; } }
    </style>
    <title>334logo_1</title>
    <g id="Layer_2" data-name="Layer 2">
        <g id="Layer_1-2" data-name="Layer 1">
            <g>
                <g id="Helmet">
                    <g id="gearlayer" clip-path="url(#ClipPath-1)">
                        <g id="Gear" transform="translate(330.595,247.54) translate(-330.595,-247.54)" style="animation: 60s linear infinite both Gear_t;">
                            <ellipse class="cls-1" rx="221.69" ry="221.69" fill="#bcbcbc" transform="translate(0,0) translate(330.59,247.54)" style="animation: 60s linear infinite both a0_f;"/>
                            <path class="cls-1" d="M332.16,26.09L336.08,0L360.17,1.15L360.17,33.01L331.68,31.88" fill="#bcbcbc" style="animation: 60s linear infinite both a1_f;"/>
                            <path class="cls-1" d="M286.09,30.6L284.49,4.27L308.3,0.39L314.92,31.55L286.82,36.37" fill="#bcbcbc" style="animation: 60s linear infinite both a2_f;"/>
                            <path class="cls-1" d="M241.96,44.6L234.92,19.17L257.4,10.42L270.36,39.52L243.87,50.08" fill="#bcbcbc" style="animation: 60s linear infinite both a3_f;"/>
                            <path class="cls-1" d="M201.7,67.46L189.53,44.05L209.7,30.82L228.42,56.59L204.71,72.43" fill="#bcbcbc" style="animation: 60s linear infinite both a4_f;"/>
                            <path class="cls-1" d="M167.07,98.19L150.31,77.83L167.28,60.69L190.96,82.01L171.05,102.43" fill="#bcbcbc" style="animation: 60s linear infinite both a5_f;"/>
                            <path class="cls-1" d="M139.6,135.46L118.96,119.02L132,98.73L159.59,114.66L144.37,138.77" fill="#bcbcbc" style="animation: 60s linear infinite both a6_f;"/>
                            <path class="cls-1" d="M120.47,177.62L96.86,165.83L105.41,143.27L135.7,153.12L125.83,179.86" fill="#bcbcbc" style="animation: 60s linear infinite both a7_f;"/>
                            <path class="cls-1" d="M110.52,222.83L84.98,216.21L88.65,192.37L120.33,195.7L116.23,223.91" fill="#bcbcbc" style="animation: 60s linear infinite both a8_f;"/>
                            <path class="cls-1" d="M110.19,269.13L83.84,267.96L82.47,243.88L114.15,240.55L116,269" fill="#bcbcbc" style="animation: 60s linear infinite both a9_f;"/>
                            <path class="cls-1" d="M119.5,314.48L93.48,318.82L87.13,295.55L117.42,285.7L125.15,313.15" fill="#bcbcbc" style="animation: 60s linear infinite both a10_f;"/>
                            <path class="cls-1" d="M138.03,356.9L113.48,366.56L102.43,345.12L130.02,329.19L143.28,354.43" fill="#bcbcbc" style="animation: 60s linear infinite both a11_f;"/>
                            <path class="cls-1" d="M164.98,394.55L142.97,409.1L127.7,390.42L151.38,369.11L169.6,391.04" fill="#bcbcbc" style="animation: 60s linear infinite both a12_f;"/>
                            <path class="cls-1" d="M199.16,425.77L180.66,444.58L161.84,429.49L180.57,403.71L202.95,421.37" fill="#bcbcbc" style="animation: 60s linear infinite both a13_f;"/>
                            <path class="cls-1" d="M239.09,449.2L224.9,471.44L203.36,460.59L216.32,431.49L241.88,444.11" fill="#bcbcbc" style="animation: 60s linear infinite both a14_f;"/>
                            <path class="cls-1" d="M283.02,463.82L273.77,488.53L250.44,482.39L257.06,451.23L284.69,458.26" fill="#bcbcbc" style="animation: 60s linear infinite both a15_f;"/>
                            <path class="cls-1" d="M329.03,468.99L325.11,495.08L301.02,493.93L301.02,462.07L329.51,463.2" fill="#bcbcbc" style="animation: 60s linear infinite both a16_f;"/>
                            <path class="cls-1" d="M375.1,464.47L376.7,490.81L352.89,494.69L346.27,463.53L374.37,458.71" fill="#bcbcbc" style="animation: 60s linear infinite both a17_f;"/>
                            <path class="cls-1" d="M419.23,450.48L426.27,475.9L403.79,484.65L390.83,455.55L417.32,445" fill="#bcbcbc" style="animation: 60s linear infinite both a18_f;"/>
                            <path class="cls-1" d="M459.49,427.62L471.66,451.02L451.49,464.25L432.76,438.48L456.48,422.65" fill="#bcbcbc" style="animation: 60s linear infinite both a19_f;"/>
                            <path class="cls-1" d="M494.11,396.88L510.88,417.25L493.9,434.38L470.23,413.07L490.13,392.65" fill="#bcbcbc" style="animation: 60s linear infinite both a20_f;"/>
                            <path class="cls-1" d="M521.59,359.62L542.23,376.05L529.18,396.35L501.6,380.42L516.82,356.31" fill="#bcbcbc" style="animation: 60s linear infinite both a21_f;"/>
                            <path class="cls-1" d="M540.72,317.46L564.32,329.24L555.78,351.8L525.49,341.96L535.36,315.21" fill="#bcbcbc" style="animation: 60s linear infinite both a22_f;"/>
                            <path class="cls-1" d="M550.67,272.25L576.2,278.86L572.54,302.71L540.86,299.38L544.96,271.16" fill="#bcbcbc" style="animation: 60s linear infinite both a23_f;"/>
                            <path class="cls-1" d="M550.99,225.95L577.35,227.12L578.72,251.2L547.04,254.53L545.19,226.07" fill="#bcbcbc" style="animation: 60s linear infinite both a24_f;"/>
                            <path class="cls-1" d="M541.69,180.6L567.71,176.26L574.06,199.53L543.76,209.37L536.03,181.93" fill="#bcbcbc" style="animation: 60s linear infinite both a25_f;"/>
                            <path class="cls-1" d="M523.16,138.17L547.71,128.52L558.76,149.96L531.17,165.89L517.9,140.65" fill="#bcbcbc" style="animation: 60s linear infinite both a26_f;"/>
                            <path class="cls-1" d="M496.21,100.53L518.22,85.98L533.49,104.65L509.81,125.97L491.59,104.04" fill="#bcbcbc" style="animation: 60s linear infinite both a27_f;"/>
                            <path class="cls-1" d="M462.03,69.3L480.53,50.5L499.34,65.59L480.62,91.36L458.23,73.7" fill="#bcbcbc" style="animation: 60s linear infinite both a28_f;"/>
                            <path class="cls-1" d="M422.1,45.87L436.28,23.63L457.83,34.48L444.87,63.58L419.3,50.96" fill="#bcbcbc" style="animation: 60s linear infinite both a29_f;"/>
                            <path class="cls-1" d="M378.17,31.25L387.42,6.55L410.75,12.68L404.13,43.84L376.5,36.82" fill="#bcbcbc" style="animation: 60s linear infinite both a30_f;"/>
                        </g>
                    </g>
                    <path class="cls-3" d="M56,255.35C57.23,255.2,61.45,254.74,62.45,254.74C63.45,254.74,68.05,254.2,69.28,254.36C70.28,254.44,86.08,252.75,86.47,252.75C87.7,252.83,91.76,252.29,92.61,252.29C93.68,252.29,116.01,250.14,117.16,250.06C118.31,249.98,124.16,249.6,124.6,249.45C125.98,249.22,140.87,248.15,143.32,247.53C144.47,247.3,153.83,246.3,154.75,246.38C155.842,246.335,156.933,246.268,158.022,246.178C159.111,246.089,160.199,245.977,161.283,245.843C162.368,245.708,163.449,245.552,164.528,245.373C165.606,245.194,166.68,244.993,167.75,244.77C167.83,244.77,167.9,244.69,167.98,244.69C170.98,244.31,173.98,244.23,176.98,243.69C179.05,243.31,188.26,242.46,188.8,242.46C189.34,242.46,193.94,241.54,195.8,241.46C196.06,241.415,196.321,241.375,196.583,241.34C196.844,241.304,197.107,241.274,197.369,241.248C197.632,241.222,197.895,241.201,198.159,241.185C198.422,241.168,198.686,241.157,198.95,241.15C199.705,241.09,200.459,241.019,201.212,240.937C201.965,240.856,202.717,240.764,203.467,240.662C204.218,240.559,204.967,240.446,205.714,240.322C206.461,240.199,207.207,240.065,207.95,239.92C209.56,239.54,213.09,239.08,213.24,239.08C214.01,239.08,220.15,238.16,220.84,237.93C223.3,237.32,233.04,236.01,235.5,235.7C237.11,235.55,244.4,234.4,246.5,234.17C248.03,234.02,259.7,232.41,261.08,231.87C262.69,231.26,268.68,230.8,269.83,230.41C271.52,229.87,277.43,229.11,278.5,228.72C280.03,228.18,291.31,225.8,292.31,225.57C294,225.11,295.84,224.65,297.53,224.11C300.06,223.34,302.67,222.73,305.2,221.88C307.43,221.19,315.41,218.04,317.2,217.35C318.27,216.97,329.02,211.83,330.2,210.98C332.5,209.45,334.88,207.98,337.11,206.22C337.379,206.012,337.645,205.799,337.908,205.583C338.171,205.367,338.43,205.146,338.686,204.922C338.942,204.698,339.195,204.469,339.444,204.237C339.693,204.005,339.938,203.77,340.18,203.53C342.94,200.46,345.86,197.78,348.62,194.71C349.92,193.25,355.53,185.43,356.91,183.05C357.273,182.499,357.628,181.943,357.977,181.382C358.325,180.822,358.666,180.257,358.999,179.687C359.333,179.118,359.659,178.544,359.977,177.966C360.296,177.388,360.607,176.806,360.91,176.22C361.14,175.76,363.98,170.93,364.82,169.08C365.59,167.39,369.65,160.72,370.57,158.87C371.8,156.49,373.18,154.34,374.33,151.96C375.79,149.04,376.94,145.96,378.4,143.06C379.78,140.3,381.09,137.61,382.31,134.77C383,133.24,384,131.7,384.77,130.17C385.61,128.25,391.98,116.36,392.9,114.29C393.148,113.827,393.403,113.367,393.664,112.911C393.926,112.455,394.195,112.003,394.47,111.556C394.745,111.108,395.027,110.664,395.315,110.225C395.604,109.786,395.899,109.351,396.2,108.92C398.27,106.08,400.27,103.4,402.42,100.63C403.34,99.48,407.56,93.88,408.42,93.03C411.72,89.88,414.79,86.51,418.09,83.52C419.85,81.91,421.7,80.22,423.61,78.76C425.37,77.38,427.14,75.84,428.9,74.54C431.28,72.85,433.58,71.24,436.04,69.78C437.5,68.86,439.04,68.09,440.49,67.17C442.1,66.17,443.87,65.33,445.49,64.33C448,63,455.87,59.76,457,59.14C458.3,58.53,459.69,57.99,461,57.53C463.23,56.76,465.37,56.15,467.6,55.3C467.6,55.3,471.6,54.23,473.28,53.61C474.2,53.23,479.5,52.31,480.8,52.08C482.33,51.77,484.02,51.7,485.63,51.31C487.47,50.93,489.47,50.85,491.31,50.39C491.477,50.3406,491.647,50.2986,491.818,50.2641C491.989,50.2296,492.161,50.2027,492.335,50.1834C492.508,50.1641,492.682,50.1525,492.857,50.1486C493.031,50.1447,493.206,50.1485,493.38,50.16C495.22,50.31,501.9,49.47,502.74,49.62C503.059,49.6459,503.379,49.667,503.699,49.6832C504.019,49.6995,504.339,49.711,504.659,49.7177C504.979,49.7243,505.299,49.7262,505.62,49.7233C505.94,49.7203,506.26,49.7126,506.58,49.7C507.12,49.7,520.24,50.7,523.08,51C524.027,51.1059,524.972,51.2237,525.916,51.3534C526.86,51.4831,527.803,51.6247,528.743,51.7781C529.684,51.9315,530.622,52.0967,531.558,52.2737C532.495,52.4507,533.428,52.6395,534.36,52.84C537.89,53.84,541.42,54.68,544.87,55.84C548.48,56.99,552.01,58.45,555.54,59.84C558.23,60.91,560.76,62.14,563.37,63.37C565.13,64.29,562.6,62.99,568.43,65.67C570.217,66.2425,571.955,66.9595,573.626,67.8137C575.297,68.668,576.895,69.6567,578.406,70.7702C579.917,71.8836,581.334,73.1181,582.645,74.4614C583.955,75.8047,585.154,77.2523,586.23,78.79C586.23,78.79,607.19,134,608,135.8C608.61,137.26,608.23,138.03,606.7,137.95C604.55,137.87,519.99,138.03,516.92,137.87C516.852,137.871,516.784,137.877,516.717,137.887C516.65,137.897,516.584,137.912,516.519,137.932C516.454,137.951,516.39,137.975,516.329,138.003C516.267,138.031,516.207,138.064,516.15,138.1C516.054,138.175,515.969,138.263,515.898,138.361C515.827,138.46,515.771,138.568,515.73,138.683C515.689,138.797,515.665,138.917,515.659,139.039C515.652,139.16,515.662,139.282,515.69,139.4C515.84,140.24,516.53,140.32,517.07,140.4C517.84,140.48,615.52,162.58,616.59,162.65C616.887,162.659,617.181,162.709,617.464,162.797C617.747,162.886,618.017,163.013,618.267,163.174C618.516,163.335,618.742,163.53,618.938,163.752C619.135,163.975,619.3,164.223,619.43,164.49C620.27,166.41,629.1,189.2,629.94,190.2C630.026,190.328,630.096,190.466,630.147,190.611C630.199,190.756,630.231,190.907,630.244,191.06C630.257,191.214,630.251,191.368,630.225,191.52C630.199,191.672,630.153,191.82,630.09,191.96C630.037,192.069,629.982,192.177,629.923,192.283C629.865,192.389,629.803,192.493,629.739,192.596C629.674,192.699,629.607,192.8,629.538,192.899C629.468,192.998,629.395,193.095,629.32,193.19C628.09,195.26,590.11,253.35,588.42,256.03C588.32,256.219,588.191,256.392,588.038,256.541C587.884,256.691,587.709,256.815,587.517,256.911C587.325,257.006,587.12,257.071,586.908,257.103C586.697,257.135,586.481,257.134,586.27,257.1C583.58,257.02,63.27,257.1,55.97,257.1L54.71,257.1C52.87,257.1,54.4,255.95,54.56,255.87C54.6652,255.795,54.7754,255.727,54.8899,255.667C55.0043,255.607,55.1227,255.555,55.2443,255.511C55.3658,255.467,55.4903,255.432,55.6166,255.405C55.743,255.378,55.8711,255.36,56,255.35Z" fill="#065495"/>
                </g>
                <g id="_334_Techknights" data-name="334 Techknights">
                    <g>
                        <path class="cls-4" d="M0,391.7L19.26,364.38L109.19,364.38C117.4,364.38,123.19,361.85,125.99,357.93L130.52,351.71C133.67,347.26,131.67,343.12,123.69,343.12L41.28,343.12L58.47,318.8L141.19,318.8C149.4,318.8,155.19,317.11,158.3,312.8L160.99,309.12C164.67,304.06,161.91,300.12,153.85,300.12L72.85,300.12L57.78,275.84L189.61,275.84C221.07,275.84,223.22,288.5,215.01,300.16L199.74,321.42C194.74,328.25,182.48,335,170.2,335.62C179.79,338.15,186.77,343.98,180.1,353.5L172.43,364.4C153.17,391.72,134.91,391.72,123.09,391.72Z" fill="#bcbcbc"/>
                        <path class="cls-4" d="M171.88,391.7L191.14,364.38L281.07,364.38C289.28,364.38,295.07,361.85,297.87,357.93L302.4,351.71C305.55,347.26,303.55,343.12,295.57,343.12L213.24,343.12L230.43,318.8L313.15,318.8C321.36,318.8,327.15,317.11,330.26,312.8L332.95,309.12C336.63,304.06,333.87,300.12,325.81,300.12L244.81,300.12L229.69,275.8L361.49,275.8C392.95,275.8,395.1,288.46,386.89,300.12L371.62,321.38C366.62,328.21,354.36,334.96,342.08,335.58C351.67,338.11,358.65,343.94,351.98,353.46L344.31,364.36C325,391.7,306.78,391.7,295,391.7Z" fill="#bcbcbc"/>
                        <path class="cls-4" d="M445.74,391.7L472,354.49L364.18,354.49L420,275.84L470.87,275.84L432.2,330.17L488.91,330.17L527.81,275.84L578.68,275.84L540,330.16L568.77,330.16L551.2,354.48L522.94,354.48L496.69,391.7Z" fill="#bcbcbc"/>
                    </g>
                </g>
            </g>
        </g>
    </g>
</svg>
