<svg xmlns="http://www.w3.org/2000/svg" viewBox="0 0 66.1 66.1"><defs><mask id="Mask-1"><rect width="66" height="66" fill="#fff"/></mask></defs><style>
@keyframes a0_f { 0% { fill: #3ed26b; } 5.5% { fill: #3ed26b; } 5.667% { fill: #c73e3e; } 9.667% { fill: #c73e3e; } 9.833% { fill: #3ed26b; } 17.167% { fill: #3ed26b; } 17.333% { fill: #c73e3e; } 25% { fill: #c73e3e; } 25.167% { fill: #3ed26b; } 51.667% { fill: #3ed26b; } 51.833% { fill: #c73e3e; } 55% { fill: #c73e3e; } 55.167% { fill: #3ed26b; } 68.333% { fill: #3ed26b; } 68.5% { fill: #c73e3e; } 78.333% { fill: #c73e3e; } 78.5% { fill: #3ed26b; } 93.667% { fill: #3ed26b; } 93.833% { fill: #c73e3e; } 96.667% { fill: #c73e3e; } 96.833% { fill: #3ed26b; } 100% { fill: #3ed26b; } }
@keyframes a1_t { 0% { transform: translate(58.1px,35.9px); animation-timing-function: cubic-bezier(0,0,1,1); } 100% { transform: translate(11.4px,35.9px); } }
@keyframes a2_t { 0% { transform: translate(11px,35.9px); animation-timing-function: cubic-bezier(0,0,1,1); } 100% { transform: translate(-35.7px,35.9px); } }
@keyframes a3_f { 0% { fill: #3ed26b; } 16.5% { fill: #3ed26b; } 16.667% { fill: #c73e3e; } 33.167% { fill: #c73e3e; } 33.333% { fill: #3ed26b; } 49.833% { fill: #3ed26b; } 50% { fill: #c73e3e; } 66.5% { fill: #c73e3e; } 66.667% { fill: #3ed26b; } 83.167% { fill: #3ed26b; } 83.333% { fill: #c73e3e; } 99.833% { fill: #c73e3e; } 100% { fill: #3ed26b; } }
@keyframes a4_f { 0% { fill: #3ed26b; } 13.833% { fill: #c73e3e; } 18.667% { fill: #3ed26b; } 24.833% { fill: #3ed26b; } 37.833% { fill: #c73e3e; } 46.667% { fill: #3ed26b; } 49.333% { fill: #c73e3e; } 62.167% { fill: #3ed26b; } 70.833% { fill: #3ed26b; } 79% { fill: #c73e3e; } 97% { fill: #c73e3e; } 99.833% { fill: #c73e3e; } 100% { fill: #3ed26b; } }
@keyframes a5_f { 0% { fill: #3ed26b; } 11.833% { fill: #c73e3e; } 13% { fill: #3ed26b; } 27.667% { fill: #3ed26b; } 37.167% { fill: #c73e3e; } 43.167% { fill: #c73e3e; } 51% { fill: #3ed26b; } 52.667% { fill: #3ed26b; } 67.833% { fill: #c73e3e; } 79.333% { fill: #3ed26b; } 89.5% { fill: #c73e3e; } 99.833% { fill: #c73e3e; } 100% { fill: #3ed26b; } }
@keyframes a6_f { 0% { fill: #3ed26b; } 9.667% { fill: #c73e3e; } 20.167% { fill: #3ed26b; } 26.167% { fill: #c73e3e; } 31.333% { fill: #3ed26b; } 58.5% { fill: #3ed26b; } 58.667% { fill: #c73e3e; } 60.833% { fill: #c73e3e; } 61% { fill: #3ed26b; } 95.333% { fill: #3ed26b; } 95.5% { fill: #c73e3e; } 99.833% { fill: #c73e3e; } 100% { fill: #3ed26b; } }
@keyframes a7_f { 0% { fill: #3ed26b; } 16.5% { fill: #3ed26b; } 16.667% { fill: #c73e3e; } 21.167% { fill: #c73e3e; } 21.333% { fill: #3ed26b; } 62.833% { fill: #3ed26b; } 63% { fill: #c73e3e; } 68% { fill: #c73e3e; } 68.167% { fill: #3ed26b; } 70.5% { fill: #3ed26b; } 70.667% { fill: #c73e3e; } 99.833% { fill: #c73e3e; } 100% { fill: #3ed26b; } }
@keyframes a8_f { 0% { fill: #3ed26b; } 8% { fill: #c73e3e; } 16.5% { fill: #3ed26b; } 24.5% { fill: #c73e3e; } 45.167% { fill: #3ed26b; } 50% { fill: #c73e3e; } 61.667% { fill: #3ed26b; } 76.833% { fill: #c73e3e; } 77% { fill: #3ed26b; } 81% { fill: #3ed26b; } 81.167% { fill: #c73e3e; } 99.833% { fill: #c73e3e; } 100% { fill: #3ed26b; } }
@keyframes a9_f { 0% { fill: #3ed26b; } 16.5% { fill: #3ed26b; } 20% { fill: #c73e3e; } 32.667% { fill: #c73e3e; } 33.333% { fill: #3ed26b; } 46% { fill: #3ed26b; } 55.333% { fill: #c73e3e; } 66.667% { fill: #3ed26b; } 69.167% { fill: #c73e3e; } 80.5% { fill: #3ed26b; } 83.333% { fill: #c73e3e; } 99.833% { fill: #c73e3e; } 100% { fill: #3ed26b; } }
@keyframes a10_f { 0% { fill: #3ed26b; } 16.5% { fill: #3ed26b; } 16.667% { fill: #c73e3e; } 29.5% { fill: #3ed26b; } 37.5% { fill: #c73e3e; } 41.667% { fill: #3ed26b; } 49.833% { fill: #c73e3e; } 63% { fill: #3ed26b; } 70% { fill: #c73e3e; } 79.5% { fill: #c73e3e; } 83.167% { fill: #3ed26b; } 96% { fill: #c73e3e; } 100% { fill: #3ed26b; } }
@keyframes a11_f { 0% { fill: #3ed26b; } 16.5% { fill: #3ed26b; } 16.667% { fill: #c73e3e; } 35.667% { fill: #c73e3e; } 35.833% { fill: #3ed26b; } 46.833% { fill: #3ed26b; } 47% { fill: #c73e3e; } 74.167% { fill: #c73e3e; } 74.333% { fill: #3ed26b; } 88.667% { fill: #3ed26b; } 88.833% { fill: #c73e3e; } 99.833% { fill: #c73e3e; } 100% { fill: #3ed26b; } }
@keyframes a12_f { 0% { fill: #3ed26b; } 6% { fill: #3ed26b; } 22.5% { fill: #3ed26b; } 23.333% { fill: #c73e3e; } 55.167% { fill: #3ed26b; } 63.667% { fill: #c73e3e; } 88.167% { fill: #3ed26b; } 88.333% { fill: #c73e3e; } 92.5% { fill: #c73e3e; } 92.667% { fill: #3ed26b; } 95.667% { fill: #3ed26b; } 95.833% { fill: #c73e3e; } 99.833% { fill: #c73e3e; } 100% { fill: #3ed26b; } }
@keyframes a13_f { 0% { fill: #3ed26b; } 5.667% { fill: #3ed26b; } 24.167% { fill: #c73e3e; } 41.333% { fill: #3ed26b; } 55.333% { fill: #c73e3e; } 66.5% { fill: #c73e3e; } 66.667% { fill: #3ed26b; } 74.5% { fill: #3ed26b; } 75% { fill: #c73e3e; } 76.5% { fill: #3ed26b; } 78.833% { fill: #c73e3e; } 86.167% { fill: #3ed26b; } 95.333% { fill: #c73e3e; } 100% { fill: #3ed26b; } }
@keyframes a14_f { 0% { fill: #3ed26b; } 9.833% { fill: #3ed26b; } 10% { fill: #c73e3e; } 13.333% { fill: #c73e3e; } 13.5% { fill: #3ed26b; } 16.833% { fill: #3ed26b; } 17% { fill: #c73e3e; } 20.833% { fill: #3ed26b; } 27.667% { fill: #c73e3e; } 37.333% { fill: #3ed26b; } 44.5% { fill: #c73e3e; } 99.833% { fill: #c73e3e; } 100% { fill: #3ed26b; } }
@keyframes a15_f { 0% { fill: #3ed26b; } 12.833% { fill: #c73e3e; } 19% { fill: #3ed26b; } 29.333% { fill: #c73e3e; } 38.167% { fill: #3ed26b; } 44.833% { fill: #3ed26b; } 45% { fill: #c73e3e; } 61% { fill: #3ed26b; } 71% { fill: #c73e3e; } 73% { fill: #3ed26b; } 88.5% { fill: #c73e3e; } 99.833% { fill: #c73e3e; } 100% { fill: #3ed26b; } }
@keyframes a16_f { 0% { fill: #3ed26b; } 16.5% { fill: #3ed26b; } 16.667% { fill: #c73e3e; } 33.167% { fill: #c73e3e; } 33.333% { fill: #3ed26b; } 49.833% { fill: #3ed26b; } 50% { fill: #c73e3e; } 66.5% { fill: #c73e3e; } 66.667% { fill: #3ed26b; } 83.167% { fill: #3ed26b; } 83.333% { fill: #c73e3e; } 99.833% { fill: #c73e3e; } 100% { fill: #3ed26b; } }
@keyframes a17_f { 0% { fill: #3ed26b; } 10.833% { fill: #c73e3e; } 19.167% { fill: #3ed26b; } 27.333% { fill: #c73e3e; } 36.5% { fill: #3ed26b; } 48% { fill: #c73e3e; } 48.667% { fill: #3ed26b; } 51.333% { fill: #3ed26b; } 68.833% { fill: #3ed26b; } 70.667% { fill: #c73e3e; } 77.667% { fill: #c73e3e; } 94.167% { fill: #c73e3e; } 100% { fill: #3ed26b; } }
@keyframes a18_f { 0% { fill: #3ed26b; } 25.833% { fill: #3ed26b; } 26% { fill: #c73e3e; } 30.833% { fill: #c73e3e; } 31% { fill: #3ed26b; } 41.5% { fill: #c73e3e; } 53.167% { fill: #3ed26b; } 66.667% { fill: #c73e3e; } 72% { fill: #3ed26b; } 94.333% { fill: #3ed26b; } 94.5% { fill: #c73e3e; } 99.833% { fill: #c73e3e; } 100% { fill: #3ed26b; } }
@keyframes a19_f { 0% { fill: #3ed26b; } 10.833% { fill: #c73e3e; } 21.333% { fill: #3ed26b; } 33.167% { fill: #c73e3e; } 37.333% { fill: #3ed26b; } 46.333% { fill: #c73e3e; } 55.333% { fill: #3ed26b; } 59% { fill: #3ed26b; } 66.5% { fill: #c73e3e; } 74.333% { fill: #3ed26b; } 81% { fill: #c73e3e; } 99.833% { fill: #c73e3e; } 100% { fill: #3ed26b; } }
@keyframes a20_f { 0% { fill: #c73e3e; } 26.667% { fill: #c73e3e; } 26.833% { fill: #3ed26b; } 29.167% { fill: #3ed26b; } 29.333% { fill: #c73e3e; } 31.667% { fill: #c73e3e; } 31.833% { fill: #3ed26b; } 72.833% { fill: #3ed26b; } 73% { fill: #c73e3e; } 79.167% { fill: #c73e3e; } 79.333% { fill: #3ed26b; } 99.833% { fill: #c73e3e; } 100% { fill: #3ed26b; } }
@keyframes a21_f { 0% { fill: #c73e3e; } 9.667% { fill: #3ed26b; } 21% { fill: #c73e3e; } 30.5% { fill: #3ed26b; } 33.167% { fill: #c73e3e; } 46% { fill: #3ed26b; } 52.167% { fill: #c73e3e; } 65% { fill: #3ed26b; } 67.833% { fill: #c73e3e; } 83.167% { fill: #3ed26b; } 84.667% { fill: #c73e3e; } 99.833% { fill: #c73e3e; } 100% { fill: #3ed26b; } }
@keyframes a22_f { 0% { fill: #c73e3e; } 11.333% { fill: #c73e3e; } 11.5% { fill: #3ed26b; } 41.833% { fill: #3ed26b; } 42% { fill: #c73e3e; } 46.667% { fill: #c73e3e; } 46.833% { fill: #3ed26b; } 71% { fill: #3ed26b; } 71.167% { fill: #c73e3e; } 76.5% { fill: #c73e3e; } 76.667% { fill: #3ed26b; } 99.833% { fill: #c73e3e; } 100% { fill: #3ed26b; } }
@keyframes a23_f { 0% { fill: #c73e3e; } 7.167% { fill: #c73e3e; } 13.833% { fill: #3ed26b; } 20.833% { fill: #c73e3e; } 35.667% { fill: #3ed26b; } 42.667% { fill: #c73e3e; } 50.167% { fill: #3ed26b; } 64.333% { fill: #c73e3e; } 69.833% { fill: #c73e3e; } 80.5% { fill: #3ed26b; } 86.333% { fill: #3ed26b; } 99.833% { fill: #c73e3e; } 100% { fill: #3ed26b; } }
@keyframes a24_f { 0% { fill: #c73e3e; } 11.833% { fill: #3ed26b; } 12% { fill: #c73e3e; } 30.833% { fill: #c73e3e; } 31% { fill: #3ed26b; } 55.667% { fill: #c73e3e; } 55.833% { fill: #3ed26b; } 61% { fill: #3ed26b; } 61.167% { fill: #c73e3e; } 90.333% { fill: #c73e3e; } 90.5% { fill: #3ed26b; } 99.833% { fill: #c73e3e; } 100% { fill: #3ed26b; } }
@keyframes a25_f { 0% { fill: #c73e3e; } 8.333% { fill: #c73e3e; } 16.833% { fill: #3ed26b; } 20% { fill: #c73e3e; } 21.667% { fill: #c73e3e; } 33.333% { fill: #3ed26b; } 33.5% { fill: #c73e3e; } 45.833% { fill: #3ed26b; } 52.167% { fill: #3ed26b; } 65.167% { fill: #c73e3e; } 86.833% { fill: #c73e3e; } 98.833% { fill: #3ed26b; } 99.833% { fill: #c73e3e; } 100% { fill: #3ed26b; } }
@keyframes a26_f { 0% { fill: #c73e3e; } 8.333% { fill: #3ed26b; } 16.667% { fill: #c73e3e; } 20.833% { fill: #c73e3e; } 24.833% { fill: #3ed26b; } 37.333% { fill: #c73e3e; } 61.5% { fill: #3ed26b; } 66.833% { fill: #c73e3e; } 74.333% { fill: #3ed26b; } 78% { fill: #3ed26b; } 83.333% { fill: #c73e3e; } 90.667% { fill: #c73e3e; } 100% { fill: #3ed26b; } }
@keyframes a27_f { 0% { fill: #c73e3e; } 9.5% { fill: #c73e3e; } 20.667% { fill: #3ed26b; } 26.333% { fill: #3ed26b; } 34.833% { fill: #c73e3e; } 50.167% { fill: #3ed26b; } 62.167% { fill: #c73e3e; } 72.167% { fill: #3ed26b; } 80.5% { fill: #c73e3e; } 83.5% { fill: #3ed26b; } 91.5% { fill: #c73e3e; } 99.833% { fill: #c73e3e; } 100% { fill: #3ed26b; } }
@keyframes a28_f { 0% { fill: #c73e3e; } 24.833% { fill: #c73e3e; } 25% { fill: #3ed26b; } 42% { fill: #3ed26b; } 42.167% { fill: #c73e3e; } 46% { fill: #c73e3e; } 46.167% { fill: #3ed26b; } 58.5% { fill: #3ed26b; } 58.667% { fill: #c73e3e; } 77.833% { fill: #c73e3e; } 78% { fill: #3ed26b; } 99.833% { fill: #c73e3e; } 100% { fill: #3ed26b; } }
@keyframes a29_f { 0% { fill: #c73e3e; } 6.5% { fill: #c73e3e; } 6.667% { fill: #3ed26b; } 20% { fill: #3ed26b; } 20.167% { fill: #c73e3e; } 37.167% { fill: #c73e3e; } 37.333% { fill: #3ed26b; } 80.667% { fill: #3ed26b; } 80.833% { fill: #c73e3e; } 83.333% { fill: #c73e3e; } 83.5% { fill: #3ed26b; } 99.833% { fill: #c73e3e; } 100% { fill: #3ed26b; } }
@keyframes a30_f { 0% { fill: #c73e3e; } 4% { fill: #c73e3e; } 4.167% { fill: #3ed26b; } 47.167% { fill: #3ed26b; } 47.333% { fill: #c73e3e; } 50% { fill: #c73e3e; } 50.167% { fill: #3ed26b; } 75.167% { fill: #3ed26b; } 75.333% { fill: #c73e3e; } 83.333% { fill: #c73e3e; } 83.5% { fill: #3ed26b; } 99.833% { fill: #c73e3e; } 100% { fill: #3ed26b; } }
@keyframes a31_f { 0% { fill: #c73e3e; } 6.333% { fill: #c73e3e; } 6.5% { fill: #3ed26b; } 17.833% { fill: #c73e3e; } 18.5% { fill: #c73e3e; } 33.333% { fill: #3ed26b; } 34.333% { fill: #3ed26b; } 41.833% { fill: #3ed26b; } 42% { fill: #c73e3e; } 64.333% { fill: #3ed26b; } 65.5% { fill: #c73e3e; } 99.833% { fill: #c73e3e; } 100% { fill: #3ed26b; } }
@keyframes a32_f { 0% { fill: #c73e3e; } 5% { fill: #c73e3e; } 5.167% { fill: #3ed26b; } 21.667% { fill: #3ed26b; } 21.833% { fill: #c73e3e; } 31.667% { fill: #c73e3e; } 31.833% { fill: #3ed26b; } 41.667% { fill: #3ed26b; } 41.833% { fill: #c73e3e; } 48% { fill: #c73e3e; } 48.167% { fill: #3ed26b; } 58.333% { fill: #c73e3e; } 58.5% { fill: #3ed26b; } 79.333% { fill: #3ed26b; } 79.5% { fill: #c73e3e; } 99.833% { fill: #c73e3e; } 100% { fill: #3ed26b; } }
</style><title>Asset 3</title><g data-name="Layer 2" mask="url(#Mask-1)"><g data-name="Layer 1"><g data-name="0WeHSm.tif"><path class="cls-1" d="M.1 0v65.8h65.9v-65.8c0 0 0 .1 0 .1c0 0 0 .1 0 .1c0 .1 0 .1 .1 .1c0 .1 0 .1 0 .1c0 2.6 0 5.1 0 7.6v58h-66.1c0-21.8 0-43.6 0-65.4c0-0.1 0-0.1 0-0.2c0 0 0-0.1 0-0.1c.1-0.1 .1-0.1 .1-0.2c0 0 0-0.1 0-0.1Z" fill="#fff"/><path class="cls-1" d="M21.5 35.9h-9.3c-0.9 0-1.1-0.3-1.1-1.2c0-4.8 0-9.6 0-14.3c0-1 .2-1.2 1.2-1.2h18.4c1 0 1.3 .2 1.3 1.3c0 4.7 0 9.4 0 14.1c0 1-0.2 1.3-1.3 1.3Z" fill="#3ed26b" style="animation: 60s linear infinite both a0_f;"/><path d="M0 0l6.1-7.6l4.4 2.3l3.5-7.9h3.5l1.8 3.1l4.4-6.6l1.7 11.4l3.5-3.5l3.5 7.9l5.7-9.4l3.1-0.2l3.5-6.2l1.8 16.7" stroke="#000" fill="none" stroke-linecap="square" transform="translate(58.1,35.9)" style="animation: 60s linear infinite both a1_t;"/><path d="M0 0l6.1-7.6l4.4 2.3l3.5-7.9h3.5l1.8 3.1l4.4-6.6l1.7 11.4l3.5-3.5l3.5 7.9l5.7-9.4l3.1-0.2l3.5-6.2l1.8 16.7" stroke="#000" fill="none" stroke-linecap="square" transform="translate(11.1,35.9)" style="animation: 60s linear infinite both a2_t;"/><path class="cls-1" d="M44.5 35.9h-9.3c-0.9 0-1.1-0.3-1.1-1.2c0-4.8 0-9.5 0-14.3c0-1 .2-1.2 1.2-1.2h18.5c.9 0 1.2 .2 1.2 1.2c0 4.8 0 9.5 0 14.3c0 .9-0.3 1.2-1.2 1.2Z" fill="#fff"/><g transform="translate(34.1,19.1)"><rect width="5" height="3" fill="#3ed26b" style="animation: 60s linear infinite both a3_f;"/><rect width="5" height="3" fill="#3ed26b" transform="translate(10,0)" style="animation: 60s linear infinite both a4_f;"/><rect width="5" height="3" fill="#3ed26b" transform="translate(15,0)" style="animation: 60s linear infinite both a5_f;"/><rect width="5" height="3" fill="#3ed26b" transform="translate(5,3)" style="animation: 60s linear infinite both a6_f;"/><rect width="5" height="3" fill="#3ed26b" transform="translate(15,3)" style="animation: 60s linear infinite both a7_f;"/><rect width="5" height="3" fill="#3ed26b" transform="translate(10,6)" style="animation: 60s linear infinite both a8_f;"/><rect width="5" height="3" fill="#3ed26b" transform="translate(5,9)" style="animation: 60s linear infinite both a9_f;"/><rect width="5" height="3" fill="#3ed26b" transform="translate(15,9)" style="animation: 60s linear infinite both a10_f;"/><rect width="5" height="3" fill="#3ed26b" transform="translate(10,9)" style="animation: 60s linear infinite both a11_f;"/><rect width="5" height="3" fill="#3ed26b" transform="translate(0,12)" style="animation: 60s linear infinite both a12_f;"/><rect width="5" height="3" fill="#3ed26b" transform="translate(10,12)" style="animation: 60s linear infinite both a13_f;"/><rect width="5" height="3" fill="#3ed26b" transform="translate(20,9)" style="animation: 60s linear infinite both a14_f;"/><rect width="5" height="3" fill="#3ed26b" transform="translate(20,3)" style="animation: 60s linear infinite both a15_f;"/><rect width="5" height="3" fill="#3ed26b" transform="translate(20,12)" style="animation: 60s linear infinite both a16_f;"/><rect width="5" height="3" fill="#3ed26b" transform="translate(5,15)" style="animation: 60s linear infinite both a17_f;"/><rect width="5" height="3" fill="#3ed26b" transform="translate(10,15)" style="animation: 60s linear infinite both a18_f;"/><rect width="5" height="3" fill="#3ed26b" transform="translate(15,15)" style="animation: 60s linear infinite both a19_f;"/><rect width="5" height="3" fill="#c73e3e" transform="translate(15,6)" style="animation: 60s linear infinite both a20_f;"/><rect width="5" height="3" fill="#c73e3e" transform="translate(10,3)" style="animation: 60s linear infinite both a21_f;"/><rect width="5" height="3" fill="#c73e3e" transform="translate(5,6)" style="animation: 60s linear infinite both a22_f;"/><rect width="5" height="3" fill="#c73e3e" transform="translate(0,3)" style="animation: 60s linear infinite both a23_f;"/><rect width="5" height="3" fill="#c73e3e" transform="translate(0,6)" style="animation: 60s linear infinite both a24_f;"/><rect width="5" height="3" fill="#c73e3e" transform="translate(0,9)" style="animation: 60s linear infinite both a25_f;"/><rect width="5" height="3" fill="#c73e3e" transform="translate(15,12)" style="animation: 60s linear infinite both a26_f;"/><rect width="5" height="3" fill="#c73e3e" transform="translate(20,0)" style="animation: 60s linear infinite both a27_f;"/><rect width="5" height="3" fill="#c73e3e" transform="translate(20,6)" style="animation: 60s linear infinite both a28_f;"/><rect width="5" height="3" fill="#c73e3e" transform="translate(20,15)" style="animation: 60s linear infinite both a29_f;"/><rect width="5" height="3" fill="#c73e3e" transform="translate(5,12)" style="animation: 60s linear infinite both a30_f;"/><rect width="5" height="3" fill="#c73e3e" transform="translate(0,15)" style="animation: 60s linear infinite both a31_f;"/><rect width="5" height="3" fill="#c73e3e" transform="translate(5,0)" style="animation: 60s linear infinite both a32_f;"/></g><path class="cls-1" d="M30.8 40.4c0 .5 0 .8 0 1.1c0 .2 0 .3 0 .4c.1 .1 .1 .2 .2 .3c0 .1 .1 .1 .2 .2c.1 .1 .2 .1 .3 .1c.2 .1 .4 .2 .6 .2c.3 .1 .5 .1 .7 .1c.2 0 .4 0 .6 0c.3-0.1 .5-0.1 .7-0.2c.1 0 .3 0 .4-0.1c.1-0.1 .3-0.2 .3-0.3c.1-0.1 .2-0.3 .2-0.4c0-0.1 0-0.3 0-0.4c0-0.1 0-0.2 0-0.3c0 0 0-0.1 0-0.2c0-0.1 0-0.2 0-0.2c0-0.1 0-0.2 0-0.3c1.9 .3 3.7 .5 5.1 1.9c.2 .1 .3 .3 .4 .5c.1 .2 .2 .4 .2 .6c0 .3-0.1 .5-0.2 .7c-0.1 .2-0.2 .4-0.4 .5c-0.2 .2-0.5 .4-0.8 .6c-0.3 .2-0.5 .3-0.8 .4c-0.3 .2-0.6 .3-1 .4c-0.3 .1-0.6 .1-0.9 .2c-0.7 .1-1.5 .3-2.2 .3c-0.7 .1-1.5 .1-2.2 .1c-0.7-0.1-1.5-0.2-2.2-0.3c-0.7-0.1-1.4-0.3-2.1-0.6c-0.2 0-0.3-0.1-0.5-0.1c-0.1-0.1-0.3-0.2-0.4-0.2c-0.2-0.1-0.3-0.2-0.4-0.3c-0.2-0.1-0.3-0.2-0.4-0.3c-0.3-0.1-0.5-0.3-0.7-0.6c-0.1-0.2-0.2-0.5-0.2-0.8c0-0.3 .1-0.6 .2-0.8c.2-0.3 .4-0.5 .7-0.7c.2-0.1 .5-0.3 .8-0.4c.3-0.2 .5-0.3 .8-0.4c.3-0.1 .6-0.2 .9-0.3c.3-0.1 .6-0.2 1-0.2c.3-0.1 .7-0.1 1.1-0.2Z" fill="#fff"/><path d="M.1 0h65.9v65.8h-65.9Zm21.4 35.9h9.2c1 0 1.3-0.3 1.3-1.3c0-4.7 0-9.4 0-14.1c0-1-0.3-1.3-1.3-1.3h-18.4c-1 0-1.2 .2-1.2 1.2c-0.1 4.7-0.1 9.5-0.1 14.3c0 .9 .3 1.2 1.2 1.2Zm23 0h9.3c.9 0 1.2-0.3 1.2-1.2c0-4.8 0-9.5 0-14.3c0-1-0.3-1.2-1.2-1.2h-18.5c-1 0-1.2 .2-1.2 1.2c0 4.7 0 9.5 0 14.3c0 .9 .2 1.2 1.1 1.2Zm-13.7 4.5c-0.4 .1-0.8 .1-1.1 .2c-0.4 .1-0.7 .1-1 .2c-0.3 .1-0.6 .2-0.9 .3c-0.3 .1-0.5 .3-0.8 .4c-0.3 .2-0.6 .3-0.8 .5c-0.3 .1-0.5 .3-0.7 .6c-0.1 .3-0.2 .6-0.2 .8c0 .3 .1 .6 .2 .9c.2 .3 .4 .5 .7 .6c.1 .1 .2 .2 .4 .3c.1 .1 .2 .1 .4 .2c.1 .1 .3 .1 .4 .2c.2 .1 .3 .1 .5 .2c.6 .2 1.4 .4 2.1 .5c.7 .2 1.4 .3 2.2 .3c.7 0 1.5 0 2.2 0c.7-0.1 1.5-0.2 2.2-0.4c.3 0 .6-0.1 .9-0.2c.3-0.1 .7-0.2 1-0.3c.2-0.1 .5-0.3 .8-0.5c.3-0.1 .5-0.3 .8-0.6c.2-0.1 .3-0.3 .4-0.5c.1-0.2 .2-0.4 .2-0.6c0-0.2-0.1-0.5-0.2-0.7c-0.1-0.2-0.2-0.3-0.4-0.5c-1.4-1.3-3.2-1.6-5.1-1.8c0 0 0 .1 0 .2c0 .1 0 .1 0 .2c0 .1 0 .2 0 .3c0 0 0 .1 0 .2c0 .1 0 .3 0 .4c0 .2-0.1 .3-0.2 .4c0 .1-0.1 .2-0.3 .3c-0.1 .1-0.3 .1-0.4 .1c-0.2 .1-0.4 .2-0.6 .2c-0.3 0-0.5 0-0.7 0c-0.2 0-0.4 0-0.6-0.1c-0.3 0-0.5-0.1-0.7-0.1c-0.1-0.1-0.2-0.1-0.3-0.2c-0.1 0-0.2-0.1-0.2-0.2c-0.1-0.1-0.1-0.2-0.2-0.3c0-0.1 0-0.2 0-0.3c0-0.4 0-0.7 0-1.2Z"/></g></g></g></svg>