<svg xmlns="http://www.w3.org/2000/svg" viewBox="0 0 99.74 121.44">
  <defs>
    <style>
      .cls-1 {
        fill: #241f20;
      }

      .cls-2 {
        fill: #5d5859;
      }

      .cls-3 {
        fill: #5e595a;
      }

      .cls-4 {
        fill: #5d595a;
      }

      .cls-5 {
        fill: #949191;
      }

      .cls-6 {
        fill: #939092;
      }

      .cls-7 {
        fill: #969192;
      }

      .cls-8 {
        fill: #949091;
      }

      .cls-9 {
        fill: #908c8d;
      }

      .cls-10 {
        fill: #595556;
      }

      .cls-11 {
        fill: #8f8c8e;
      }

      .cls-12 {
        fill: #918c8d;
      }

      .cls-13 {
        fill: #5c5859;
      }

      .cls-14 {
        fill: #595455;
      }

      .cls-15 {
        fill: #908d8d;
      }

      .cls-16 {
        fill: #c8c7c7;
      }

      .cls-17 {
        fill: #c9c6c7;
      }

      .cls-18 {
        fill: #c8c8c7;
      }

      .cls-19 {
        fill: #dcdddf;
      }

      .cls-20 {
        fill: #ed1c3b;
      }

      .cls-21 {
        fill: #241f21;
      }

      .cls-22 {
        fill: #fff;
      }

      .cls-23 {
        fill: #ee2b4b;
      }

      .cls-24 {
        fill: #ef3e5c;
      }

      .cls-25 {
        fill: #ee345a;
      }

      .cls-26 {
        fill: #007bbb;
      }

      .cls-27 {
        fill: #e8e7e9;
      }

      .cls-28 {
        fill: #e8e7e8;
      }

      .cls-29 {
        fill: #e7e7e8;
      }

      .cls-30 {
        fill: #e7e6e7;
      }

      .cls-31 {
        fill: #e7e7e7;
      }

      .cls-32 {
        fill: #e6e6e7;
      }

      .cls-33 {
        fill: #e5e4e5;
      }

      .cls-34 {
        fill: #e1e0e0;
      }

      .cls-35 {
        fill: #e1e1e0;
      }

      .cls-36 {
        fill: #e7e6e6;
      }

      .cls-37 {
        fill: #e0dfdf;
      }

      .cls-38 {
        fill: #dfdedf;
      }

      .cls-39 {
        fill: #e5e5e4;
      }

      .cls-40 {
        fill: #e6e5e5;
      }

      .cls-41 {
        fill: #e5e5e6;
      }

      .cls-42 {
        fill: #e6e5e6;
      }

      .cls-43 {
        fill: #e5e5e5;
      }

      .cls-44 {
        fill: #e3e3e3;
      }

      .cls-45 {
        fill: #e4e4e4;
      }

      .cls-46 {
        fill: #e0dfe0;
      }

      .cls-47 {
        fill: #dededf;
      }

      .cls-48 {
        fill: #dbdadb;
      }

      .cls-49 {
        fill: #cecdce;
      }

      .cls-50 {
        fill: #d1d0d0;
      }

      .cls-51 {
        fill: #dcdbdc;
      }

      .cls-52 {
        fill: #dad9d9;
      }

      .cls-53 {
        fill: #e2e1e2;
      }

      .cls-54 {
        fill: #d6d5d6;
      }

      .cls-55 {
        fill: #dddcdc;
      }

      .cls-56 {
        fill: #dddcdd;
      }

      .cls-57 {
        fill: #d8d7d8;
      }

      .cls-58 {
        fill: #cfcdcd;
      }

      .cls-59 {
        fill: #d5d4d4;
      }

      .cls-60 {
        fill: #c4c2c2;
      }

      .cls-61 {
        fill: #b5b3b3;
      }

      .cls-62 {
        fill: #e1e0e1;
      }

      .cls-63 {
        fill: #d9d7d7;
      }

      .cls-64 {
        fill: #b9b6b7;
      }

      .cls-65 {
        fill: #dad8da;
      }

      .cls-66 {
        fill: #dedede;
      }

      .cls-67 {
        fill: #c1bfbf;
      }

      .cls-68 {
        fill: #cdcccc;
      }

      .cls-69 {
        fill: #cfcece;
      }

      .cls-70 {
        fill: #b7b4b5;
      }

      .cls-71 {
        fill: #bcb9ba;
      }

      .cls-72 {
        fill: #d2d0d0;
      }

      .cls-73 {
        fill: #bbb8b9;
      }

      .cls-74 {
        fill: #c4c3c3;
      }

      .cls-75 {
        fill: #727072;
      }

      .cls-76 {
        fill: #474546;
      }

      .cls-77 {
        fill: #9f9c9d;
      }

      .cls-78 {
        fill: #b2b0b1;
      }

      .cls-79 {
        fill: #d3d0d1;
      }

      .cls-80 {
        fill: #585454;
      }

      .cls-81 {
        fill: #848182;
      }

      .cls-82 {
        fill: #c2c0c0;
      }

      .cls-83 {
        fill: #403e40;
      }

      .cls-84 {
        fill: #cfcbcc;
      }

      .cls-85 {
        fill: #a2a0a1;
      }

      .cls-86 {
        fill: #cecbcc;
      }

      .cls-87 {
        fill: #928e8f;
      }

      .cls-88 {
        fill: #646265;
      }

      .cls-89 {
        fill: #4e4b4c;
      }

      .cls-90 {
        fill: #ed1d3b;
      }

      .cls-91 {
        fill: #f0526d;
      }

      .cls-92 {
        fill: #f6a2b0;
      }

      .cls-93 {
        fill: #333031;
      }

      .cls-94 {
        fill: #2e2a2b;
      }

      .cls-95 {
        fill: #322e2f;
      }

      .cls-96 {
        fill: #3b3839;
      }

      .cls-97 {
        fill: #3d3b3c;
      }

      .cls-98 {
        fill: #434041;
      }

      .cls-99 {
        fill: #302d2e;
      }

      .cls-100 {
        fill: #333032;
      }

      .cls-101 {
        fill: #403d3e;
      }

      .cls-102 {
        fill: #393738;
      }

      .cls-103 {
        fill: #2d2a2b;
      }

      .cls-104 {
        fill: #322f30;
      }

      .cls-105 {
        fill: #383637;
      }

      .cls-106 {
        fill: #686464;
      }

      .cls-107 {
        fill: #454345;
      }

      .cls-108 {
        fill: #4a4748;
      }

      .cls-109 {
        fill: #3e3b3c;
      }

      .cls-110 {
        fill: #2f2c2e;
      }

      .cls-111 {
        fill: #3e3c3d;
      }

      .cls-112 {
        fill: #383638;
      }

      .cls-113 {
        fill: #3a3739;
      }

      .cls-114 {
        fill: #4b4849;
      }

      .cls-115 {
        fill: #4d4c4e;
      }

      .cls-116 {
        fill: #626061;
      }

      .cls-117 {
        fill: #474548;
      }

      .cls-118 {
        fill: #757376;
      }

      .cls-119 {
        fill: #4b494a;
      }

      .cls-120 {
        fill: #aeaeb0;
      }

      .cls-121 {
        fill: #383536;
      }

      .cls-122 {
        fill: #484546;
      }

      .cls-123 {
        fill: #2f2d2e;
      }

      .cls-124 {
        fill: #979698;
      }

      .cls-125 {
        fill: #8e8d8f;
      }

      .cls-126 {
        fill: #757374;
      }

      .cls-127 {
        fill: #514e50;
      }

      .cls-128 {
        fill: #504d4e;
      }

      .cls-129 {
        fill: #2f2c2d;
      }

      .cls-130 {
        fill: #272324;
      }

      .cls-131 {
        fill: #373435;
      }

      .cls-132 {
        fill: #4b4949;
      }

      .cls-133 {
        fill: #363435;
      }

      .cls-134 {
        fill: #7f7d7e;
      }

      .cls-135 {
        fill: #5d5a5b;
      }

      .cls-136 {
        fill: #e4e3e3;
      }

      .cls-137 {
        fill: #cdcbcb;
      }

      .cls-138 {
        fill: #dddadb;
      }

      .cls-139 {
        fill: #252122;
      }

      .cls-140 {
        fill: #262122;
      }

      .cls-141 {
        fill: #e4e3e4;
      }

      .cls-142 {
        fill: #d8d7d7;
      }
.shine {
    animation-name: shine; 
    animation-duration: 15s; 
    animation-iteration-count: infinite;
    animation-timing-function: linear;
    stop-color: #ffffff00
}

@keyframes shine {
    0% {
        stop-color: #ffffff00;
    }
    3.5% {
        stop-color: #ffffffff;
    }
    5% {
        stop-color: #ffffffff;
    }
    8.5% {
        stop-color: #ffffff2d;
    }
    100% {
        stop-color: #ffffff00;
    }
}
    </style>
    <linearGradient id="shine" x1="0%" y1="0%" x2="100%" y2="70%">
      <stop offset="0%"  style="animation-delay: 0;" class="shine"/>
      <stop offset="10%" style="animation-delay: .25s;" class="shine"/>
      <stop offset="20%" style="animation-delay: .5s;" class="shine"/>
      <stop offset="30%" style="animation-delay: .75s;" class="shine"/>
      <stop offset="40%" style="animation-delay: 1s;" class="shine"/>
      <stop offset="50%" style="animation-delay: 1.25s;" class="shine"/>
      <stop offset="60%" style="animation-delay: 1.5s;" class="shine"/>
      <stop offset="70%" style="animation-delay: 1.75s;" class="shine"/>
      <stop offset="80%" style="animation-delay: 2s;" class="shine"/>
      <stop offset="90%" style="animation-delay: 2.25s;" class="shine"/>
      <stop offset="100%" style="animation-delay: 2.5s;" class="shine"/>
    </linearGradient>
  </defs>
  <title>Eaglelogo</title>
  <g id="Layer_2" data-name="Layer 2">
    <g id="Layer_1-2" data-name="Layer 1">
      <g id="Qsib33">
        <g>
          <path class="cls-1" d="M99.67,64.22A70.93,70.93,0,0,1,94.72,87.3a60.58,60.58,0,0,1-12.12,19.23,49,49,0,0,1-14,10.49,42.62,42.62,0,0,1-12.71,4,33,33,0,0,1-3.43.35c-.07,0-.14,0-.16.08h-.16c-.13-.09-.28,0-.42,0s-.33,0-.48,0H48.51c-.16-.09-.33,0-.49,0s-.34,0-.49,0h-.25a2.23,2.23,0,0,0-.94-.14A42.63,42.63,0,0,1,27,114.73a53.33,53.33,0,0,1-16.73-17A66,66,0,0,1,1.63,76.2a74.77,74.77,0,0,1-1.56-12,1.61,1.61,0,0,1,0-.42q0-.28,0-.56a2.81,2.81,0,0,0,0-.75V59a2.79,2.79,0,0,0,0-.75q0-.28,0-.56a1.63,1.63,0,0,1,0-.42A72.42,72.42,0,0,1,2.79,40.6a64,64,0,0,1,10-20.46A51.31,51.31,0,0,1,30,5,42.75,42.75,0,0,1,43.28.51,37.68,37.68,0,0,1,47.15.08c.07,0,.17,0,.21-.08h.16c.16.09.33,0,.49,0s.34,0,.49,0h2.71c.16.09.33,0,.49,0s.34,0,.49,0h.08a2.7,2.7,0,0,0,1.07.14A43.72,43.72,0,0,1,77.31,10,56.56,56.56,0,0,1,92.07,28.34a67.15,67.15,0,0,1,6,16.7,66.44,66.44,0,0,1,1.35,8.79c.09,1.13.17,2.26.25,3.4a1.49,1.49,0,0,1,0,.42q0,.28,0,.56a2.81,2.81,0,0,0,0,.75v3.54a2.79,2.79,0,0,0,0,.75q0,.28,0,.56A1.52,1.52,0,0,1,99.67,64.22Z"/>
          <path class="cls-2" d="M0,62.49c.17.24.05.5.07.75,0,0-.05,0-.07,0Z"/>
          <path class="cls-3" d="M99.66,63.24c0-.25-.09-.51.07-.75v.74S99.69,63.27,99.66,63.24Z"/>
          <path class="cls-4" d="M99.74,59c-.16-.24-.05-.5-.07-.75,0,0,.05,0,.07,0Z"/>
          <path class="cls-2" d="M.07,58.2c0,.25.09.51-.07.75v-.74S0,58.18.07,58.2Z"/>
          <path class="cls-5" d="M99.74,58.21h-.07v-.57s0,0,.07,0Z"/>
          <path class="cls-6" d="M0,63.23H.07v.57s0,0-.07,0Z"/>
          <path class="cls-7" d="M99.66,63.24h.07v.58s0,0-.07,0Z"/>
          <path class="cls-8" d="M.07,58.2H0v-.58s0,0,.07,0Z"/>
          <path class="cls-9" d="M52.21,0c-.14.16-.32.06-.48.07s0,0,0,0,0,0,0,0Z"/>
          <path class="cls-2" d="M51.72,0V.07c-.17,0-.35.08-.5-.07Z"/>
          <path class="cls-10" d="M48.51,0c-.15.16-.33.06-.5.07t0,0l0,0Z"/>
          <path class="cls-11" d="M48,0V.07c-.16,0-.34.09-.48-.07Z"/>
          <path class="cls-12" d="M47.52,121.44c.14-.16.32-.06.48-.07s0,0,0,0,0,0,0,0Z"/>
          <path class="cls-13" d="M48,121.44v-.07c.17,0,.35-.08.5.07Z"/>
          <path class="cls-14" d="M51.22,121.44c.15-.16.33-.06.5-.07t0,.05l0,0Z"/>
          <path class="cls-15" d="M51.72,121.44a.57.57,0,0,1,0-.07c.14,0,.29-.09.4.07Z"/>
          <path class="cls-16" d="M99.66,63.81h.07v.41h-.07Z"/>
          <path class="cls-16" d="M0,63.8H.07v.41H0Z"/>
          <path class="cls-17" d="M.07,57.63H0v-.41H.07Z"/>
          <path class="cls-18" d="M99.74,57.64h-.07v-.41h.07Z"/>
          <path class="cls-19" d="M1.41,60.92A70.07,70.07,0,0,1,6.26,35,59.26,59.26,0,0,1,17.89,16.35,47.7,47.7,0,0,1,31.74,5.9a40.45,40.45,0,0,1,35.73-.25,46.75,46.75,0,0,1,12.32,8.62,56.88,56.88,0,0,1,11.06,15,65.93,65.93,0,0,1,6,17,71.86,71.86,0,0,1,1.45,12.12A72.22,72.22,0,0,1,98,67.92a67.87,67.87,0,0,1-6.52,23.44,57.71,57.71,0,0,1-9.25,13.73,45.79,45.79,0,0,1-21.29,13.6,39.54,39.54,0,0,1-13.64,1.46,41.73,41.73,0,0,1-22.67-8.59A54.32,54.32,0,0,1,9.13,93,66,66,0,0,1,2.54,73.66,70.47,70.47,0,0,1,1.46,63.47C1.44,62.62,1.41,61.77,1.41,60.92Z"/>
          <path class="cls-20" d="M6,60.94a62.5,62.5,0,0,1,6-27.09,48.93,48.93,0,0,1,16.18-19.5A37,37,0,0,1,43.3,8.09a35.52,35.52,0,0,1,22,3.21A44.38,44.38,0,0,1,82.54,26.61a57.79,57.79,0,0,1,8.82,21.13,64.6,64.6,0,0,1,1.32,11.69A62.77,62.77,0,0,1,87.23,87,50.76,50.76,0,0,1,74.52,104.5,38.91,38.91,0,0,1,57,113.6a35.09,35.09,0,0,1-11.27.63,37.71,37.71,0,0,1-20.32-8.72A50.83,50.83,0,0,1,10.86,85.57,60,60,0,0,1,6.73,70.68c-.15-1-.29-2-.39-3.05C6.12,65.4,6,63.17,6,60.94Z"/>
          <path class="cls-19" d="M71.65,37.5a35.83,35.83,0,0,1,4.56,8.45A40.36,40.36,0,0,1,78.7,56.37,41.91,41.91,0,0,1,75,78.88a34,34,0,0,1-7,9.93A26.77,26.77,0,0,1,55,96.14,24.16,24.16,0,0,1,38.9,94.28,30.55,30.55,0,0,1,25.78,81.83a39.29,39.29,0,0,1-5-14.27A42.45,42.45,0,0,1,20.41,58a39.52,39.52,0,0,1,7.33-20.68c.1-.13.2-.26.31-.38s.16.09.19.17c.18.56.4,1.11.53,1.68a.69.69,0,0,1-.24.8.69.69,0,0,0-.21.82A10.4,10.4,0,0,1,28.78,42a1.25,1.25,0,0,1,0,.16,1.13,1.13,0,0,1-.19.5,34.28,34.28,0,0,0-4.25,12.75,39.26,39.26,0,0,0-.4,6.92,37.67,37.67,0,0,0,2.37,12.45,34.23,34.23,0,0,0,6.15,10A25.13,25.13,0,0,0,40.42,91c.28.14.58.24.86.39a18.25,18.25,0,0,0,7.12,1.78,21,21,0,0,0,7.52-.76c.63-.19,1.24-.44,1.85-.67a.67.67,0,0,0,.5-.73c0-1.12,0-2.25,0-3.37a1.24,1.24,0,0,1,.07-.57c.12-.12.16,0,.2.07a1.16,1.16,0,0,1,0,.45c0,1.12,0,2.25,0,3.37,0,.39,0,.4.36.24a23.72,23.72,0,0,0,5.52-3.68,29.25,29.25,0,0,0,6-7.37,32.1,32.1,0,0,0,4-10.17,43,43,0,0,0,.75-7,43.91,43.91,0,0,0-1.35-12.08,30.74,30.74,0,0,0-2.87-7.45,1.07,1.07,0,0,1-.1-.23.71.71,0,0,1,.09-.47,9.54,9.54,0,0,0,.43-1.15,2.07,2.07,0,0,0-.18-1.82,1,1,0,0,1-.07-1,10.48,10.48,0,0,0,.35-1C71.47,37.7,71.5,37.56,71.65,37.5Z"/>
          <path class="cls-21" d="M28.75,42.2c-.13-.65-.43-1.26-.59-1.9a.68.68,0,0,1,.3-.82c.29-.16.28-.37.22-.61A18.54,18.54,0,0,0,28,36.93c0-.21-.06-.43-.09-.64a1.41,1.41,0,0,1,1.9-1.58,1.53,1.53,0,0,1,1,.65,24.09,24.09,0,0,0,1.82,1.93,21.67,21.67,0,0,0,5,3.15,34.5,34.5,0,0,1,3.53,1.93c.3.2.57.43.86.64a1.1,1.1,0,0,1,.47,1.06c0,1.15-.26,2.28-.38,3.43a4,4,0,0,0,.54,2.84,1.81,1.81,0,0,0,2.65.52,3.16,3.16,0,0,0,1.26-1.31,3.16,3.16,0,0,1,.31-.53,2.24,2.24,0,0,0,0-2.5.61.61,0,0,0-.24-.28,3.62,3.62,0,0,1-.79-.65c-.42-.4-.61-.41-1,0-.12.1-.21.12-.32,0a1.78,1.78,0,0,1-.79-1.33.81.81,0,0,1,.59-.92,2.76,2.76,0,0,1,.72-.17,2.72,2.72,0,0,0,1.1-.48,11.8,11.8,0,0,1,1.45-.79,2.67,2.67,0,0,1,1.3,0,27,27,0,0,0,2.94.22,6.29,6.29,0,0,0,1.42-.16c.15,0,.34-.12.46,0s0,.32-.06.47a4.25,4.25,0,0,1-.42.71,1.17,1.17,0,0,0,0,1.51.46.46,0,0,1,.09.23A14.46,14.46,0,0,0,54,47.38a6.61,6.61,0,0,1,.34,1.6,5,5,0,0,0,.92,2.08c.12.21.37.21.6.18a1.43,1.43,0,0,0,.94-.54,3.83,3.83,0,0,0,.9-3.06c-.12-.84-.28-1.67-.36-2.52a3.5,3.5,0,0,1,.14-1.26,1.36,1.36,0,0,1,.59-.67,17,17,0,0,1,3.34-2.14c1.43-.72,2.86-1.43,4.22-2.27a10.79,10.79,0,0,0,1.3-.93,10.21,10.21,0,0,0,1.66-1.56,6.64,6.64,0,0,1,.86-.87.51.51,0,0,1,.4-.18c1.24-.49,1.68-.22,1.84,1.11a4.25,4.25,0,0,1-.09,1.13c-.18.54-.35,1.09-.54,1.62a.4.4,0,0,0,0,.45,2.2,2.2,0,0,1,.33,2c-.14.57-.44,1.08-.6,1.64s-.38,1.28-.55,1.93c-.08.32-.18.63-.25,1a2.76,2.76,0,0,1-.64,1.44.64.64,0,0,0-.16.49,3.34,3.34,0,0,1-1.13,2.59,1.11,1.11,0,0,0-.37.78A3.56,3.56,0,0,1,67,53.12a4.52,4.52,0,0,0-.83,1.72.9.9,0,0,0,0,.41c.28.94-.39,1.47-.89,2a.84.84,0,0,0-.3.58,3.35,3.35,0,0,1-1.42,2.78.81.81,0,0,0-.39.75,2.11,2.11,0,0,1-.26,1,.83.83,0,0,1-.64.52,1.57,1.57,0,0,0-1,.73c-.16.24-.33.47-.48.72a2,2,0,0,1-1.27,1c-.15,0-.3.09-.31.27,0,.81-.27,1.59-.26,2.41a2.28,2.28,0,0,0,.38,1.36.87.87,0,0,1,.18.41,23.81,23.81,0,0,1,.42,3.66,2.26,2.26,0,0,1-1.49,2.11,3.81,3.81,0,0,1-1.1.09A1.3,1.3,0,0,0,56,76.3a.38.38,0,0,1-.34.19.61.61,0,0,1-.16,0,1.8,1.8,0,0,0-1.65.48,1.08,1.08,0,0,1-1,.22,1.56,1.56,0,0,0-1.2.31,5.16,5.16,0,0,1-1.59.73,3,3,0,0,1-2-.36,6.06,6.06,0,0,1-.81-.57A1.67,1.67,0,0,0,45.73,77c-.2,0-.37,0-.48-.17a1,1,0,0,0-1-.52c-.37,0-.74,0-1.11,0a.86.86,0,0,1-.87-.57.45.45,0,0,0-.53-.34,1.59,1.59,0,0,1-.61-.06,1.87,1.87,0,0,1-1.28-.58,1.35,1.35,0,0,1-.37-.89c0-.83-.2-1.66-.21-2.49a3,3,0,0,1,.94-2.6.54.54,0,0,0,.19-.39c.08-.56.14-1.11.21-1.67a1,1,0,0,0-.89-1.29.42.42,0,0,1-.35-.35,2.32,2.32,0,0,0-1.21-1.53,15.62,15.62,0,0,1-1.36-.84,2.17,2.17,0,0,1-.7-.9,1,1,0,0,1-.06-.68c.12-.44,0-.62-.35-.86-.19-.12-.39-.2-.57-.32a1,1,0,0,1-.48-1.08,1.74,1.74,0,0,0-.32-1.43,4.52,4.52,0,0,0-.41-.56,2.93,2.93,0,0,1-.67-2c0-.21,0-.41,0-.62a1.27,1.27,0,0,0-.58-1.11.66.66,0,0,1-.32-.58,4,4,0,0,0-.69-2c-.35-.54-.73-1.06-1-1.63A3.42,3.42,0,0,1,30.15,47a.88.88,0,0,0-.32-.76,2.1,2.1,0,0,1-.59-1.53c0-.34,0-.68,0-1A3.92,3.92,0,0,0,28.75,42.2Z"/>
          <path class="cls-19" d="M69.89,35.25a21.3,21.3,0,0,0-2,1.95,5.4,5.4,0,0,1-.84.71,4.35,4.35,0,0,1-1-.95A21.6,21.6,0,0,0,63,34.18a20.27,20.27,0,0,0-4.3-2.56c-.28-.12-.39-.11-.39.23s0,.26-.23.23c.07-.72-.4-1-1-1.18a19.72,19.72,0,0,0-5.2-1.12,23,23,0,0,0-6.57.4,15,15,0,0,0-4.19,1.52,15.91,15.91,0,0,0-3.36,1.68A24.3,24.3,0,0,0,33,37.1c-.12.12-.23.28-.44.27A11.46,11.46,0,0,1,31,35.67a4,4,0,0,0-1.11-1,27.2,27.2,0,0,1,15-8.86,24.2,24.2,0,0,1,15.47,2A29,29,0,0,1,69.89,35.25Z"/>
          <path class="cls-22" d="M75.23,88.65c1.73,1.89,3.15,4,4.89,5.89.06.06.17.13.09.24a7.08,7.08,0,0,1-.63,1,.31.31,0,0,1-.41.07c-1-.61-2.12-1-3.17-1.51s-2.32-1.15-3.48-1.72c-.08,0-.18,0-.2,0s-.06,0-.06,0,.12.09.17.15l1.28.89a11,11,0,0,1,2.19,1.76A11.09,11.09,0,0,0,78,96.84c.5.36.5.36.1.79a3.56,3.56,0,0,0-.57.8c-.12.24-.22.25-.45.08q-3.61-2.82-7.23-5.62c-.42-.33-.84-.66-1.28-1-.2-.14-.27-.24-.09-.47.44-.57.86-1.17,1.27-1.77a.36.36,0,0,1,.5-.16,31.7,31.7,0,0,1,4.66,2.31c.51.29,1,.56,1.54.84.1,0,.17,0,.1-.1-1.28-1.41-2.59-2.79-3.8-4.25-.26-.32-.52-.64-.79-.95a.27.27,0,0,1,0-.42c.51-.63,1-1.26,1.5-1.9.12-.15.19-.17.35,0l8.57,6.7c.18.14.15.23,0,.39-.26.35-.51.71-.74,1.08s-.23.23-.43.07c-1.93-1.58-4-3-5.83-4.66l-.07,0c-.32-.1-.45-.43-.7-.56C74.83,88.18,75.11,88.34,75.23,88.65Z"/>
          <path class="cls-22" d="M19.32,55.82a14.36,14.36,0,0,1-.25,2.69,2.08,2.08,0,0,1-1.35,1.72,4.51,4.51,0,0,1-3.64-.42c-.22-.13-.23-.38-.38-.56s-.2-.12-.3,0a.53.53,0,0,0-.1.13c-.55,1.1-1.5,1.13-2.52.95a6.42,6.42,0,0,0-1.66-.21.53.53,0,0,1-.39-.19,3.23,3.23,0,0,1-1.06-2.07,13.72,13.72,0,0,1,.08-3.48c0-.24.18-.2.33-.18,2.63.29,5.27.2,7.9.46,1,.1,2,.07,3.07.08.24,0,.3.08.28.31S19.32,55.56,19.32,55.82Z"/>
          <path class="cls-22" d="M89.53,76.13,88.89,78c0,.08,0,.2-.17.17a9.8,9.8,0,0,0-1.91.06c-.91,0-1.83,0-2.75.09-.22,0-.5-.06-.54.33s.12.47.43.56c1.36.4,2.71.83,4.07,1.24.17.05.21.11.13.29-.2.48-.39,1-.54,1.46-.09.28-.22.27-.45.2l-6.06-2L76.91,79c-.26-.08-.31-.15-.15-.4a7.92,7.92,0,0,0,.69-2,6.22,6.22,0,0,1,.67-1.66,2.34,2.34,0,0,1,2.65-1,5.25,5.25,0,0,1,2.76,1.51s.12.1.13.16-.08.35.13.43a2.14,2.14,0,0,0,.89.26c1.26-.12,2.52,0,3.77-.07Z"/>
          <path class="cls-22" d="M30.35,91.75A3.51,3.51,0,0,1,29.49,94a9.1,9.1,0,0,1-1,1.1c-1.24,1.11-2.37,2.35-3.55,3.53a2.4,2.4,0,0,1-3.49.18,5.29,5.29,0,0,1-1.52-2,1.84,1.84,0,0,1,.21-1.57,3,3,0,0,1,.7-1,42,42,0,0,0,3.93-4.18,2.9,2.9,0,0,1,.48-.45c1.35-1,2.65-1.22,4,.13a7.06,7.06,0,0,1,.79.94A1.39,1.39,0,0,1,30.35,91.75Z"/>
          <path class="cls-22" d="M12.83,61.58c.93,0,1.86.05,2.79,0a6.19,6.19,0,0,1,1.57-.09A2.35,2.35,0,0,1,19.47,64a11.2,11.2,0,0,1-.1,1.76,1,1,0,0,1-.3.57,4,4,0,0,1-2.8,1.18c-1.44.13-2.87-.06-4.3,0a9.29,9.29,0,0,0-2,.17,2.09,2.09,0,0,1-2.22-1.4,5.16,5.16,0,0,1-.24-2.06c.18-1.5.57-2.24,2.25-2.35C10.81,61.77,11.82,61.67,12.83,61.58Z"/>
          <path class="cls-22" d="M54.5,110.5h-.45a1.89,1.89,0,0,1-1.93-1.35,6.3,6.3,0,0,1-.47-2,30.32,30.32,0,0,0-.79-4.56,6.41,6.41,0,0,1-.15-1.59,1.51,1.51,0,0,1,.71-1.34,4.43,4.43,0,0,1,4.23-.41.75.75,0,0,1,.41.43A11.35,11.35,0,0,1,57,102.9c.25,1.62.56,3.23.81,4.85s-.75,2.31-2.05,2.66A4,4,0,0,1,54.5,110.5Z"/>
          <path class="cls-22" d="M75.32,21.5a3.34,3.34,0,0,1-1,2.34c-.35.4-.73.77-1.1,1.17a29.16,29.16,0,0,0-2.47,3A5.29,5.29,0,0,1,70,29a2,2,0,0,1-2.28.31,5.92,5.92,0,0,1-2-1.43,2.89,2.89,0,0,1-.4-.62,1.67,1.67,0,0,1,0-1.64A13.72,13.72,0,0,1,67.23,23c.91-1,1.81-2.05,2.62-3.15a3.23,3.23,0,0,1,1.91-1.4,1.23,1.23,0,0,1,.94.12c.45.26.92.48,1.36.75A2.4,2.4,0,0,1,75.32,21.5Z"/>
          <path class="cls-22" d="M29.58,104.58a3.75,3.75,0,0,1-2.36-.86,7,7,0,0,1-1.28-1.38,1.54,1.54,0,0,1,.1-1.87c.69-1.07,1.48-2.07,2.26-3.08,1.13-1.48,2.29-2.94,3.3-4.5.13-.19.23-.24.42-.1.44.32.89.64,1.34,1,.19.13,0,.21,0,.29-1.85,2.49-3.57,5.09-5.5,7.52a.68.68,0,0,0,.15,1.08c.42.34.92.43,1.24,0,1.86-2.47,3.75-4.92,5.62-7.38.22-.28.34-.28.59-.07s.74.57,1.11.84c.13.09.19.17.06.33-1.82,2.31-3.36,4.83-5.4,7-.34.36-.72.67-1.06,1A.63.63,0,0,1,29.58,104.58Z"/>
          <path class="cls-22" d="M70.1,31.16a2,2,0,0,1,.82-1.7c2.34-1.83,4.65-3.7,7-5.57.29-.24.45-.22.65.08a6.93,6.93,0,0,0,.69.87c.23.25.23.41,0,.66a38,38,0,0,1-3.87,3.11,38.81,38.81,0,0,0-3.26,2.56,1,1,0,0,0-.18,1.2.9.9,0,0,0,1,.39,1.3,1.3,0,0,0,.6-.33c2.13-2,4.5-3.7,6.79-5.5.24-.19.33-.15.5.06a7.5,7.5,0,0,1,.79.89.65.65,0,0,1-.17,1,68.42,68.42,0,0,0-5.56,4.28c-.49.37-1,.72-1.5,1.07a1.85,1.85,0,0,1-2.16.09A4,4,0,0,1,70.1,31.16Z"/>
          <path class="cls-22" d="M33.22,26.41a1.39,1.39,0,0,0,1.12-.65c.1-.13,0-.27,0-.39A5.45,5.45,0,0,0,33,23.16c-.13-.13-.22-.1-.35,0a.85.85,0,0,1-.9,0c-.56-.31-.59-.67-.11-1.05a17.61,17.61,0,0,1,1.9-1.29c.2-.12.31-.13.46.09q1.54,2.3,3.11,4.59c.12.17.12.27-.08.38-.37.2-.73.44-1.09.65-.16.09-.31.27-.5,0s-.19.07-.25.14a4.18,4.18,0,0,1-1.75,1.38,1.48,1.48,0,0,1-2-.52A47,47,0,0,1,27,21c-.21-.35-.48-.67-.33-1.15a3,3,0,0,1,.88-1.58c.42-.33.86-.63,1.3-.93a2.31,2.31,0,0,1,1.76-.39.84.84,0,0,1,.34.12,6.45,6.45,0,0,1,1.79,1.85c.11.16.07.23-.08.31-.49.27-1,.54-1.46.83-.18.11-.28.1-.37-.1a8.5,8.5,0,0,0-.45-.83.71.71,0,0,0-.78-.42,1.45,1.45,0,0,0-1,.76c-.06.12,0,.21.08.3a59.7,59.7,0,0,0,4.19,6.42C32.93,26.33,33.06,26.45,33.22,26.41Z"/>
          <path class="cls-22" d="M67.07,92.7a.71.71,0,0,1,.54.23A24.69,24.69,0,0,0,70,95.08c1.85,1.69,3.72,3.35,5.59,5,.19.17.25.26,0,.45a12.67,12.67,0,0,0-1,.93c-.15.15-.25.14-.4,0-.56-.49-1.13-1-1.69-1.44-.16-.14-.27-.17-.45,0-.35.3-.72.59-1.1.86-.19.14-.17.25-.07.43.35.6.67,1.22,1,1.82.12.21.1.32-.1.46a9.54,9.54,0,0,0-.91.71c-.25.22-.38.23-.57-.09-1-1.71-1.89-3.48-2.8-5.24A42.12,42.12,0,0,0,65,94.66c-.11-.17-.17-.25.07-.38a5.88,5.88,0,0,0,1.2-1.11A1.33,1.33,0,0,1,67.07,92.7Z"/>
          <path class="cls-22" d="M28.9,33.06a.77.77,0,0,1-.31.57c-.29.23-.52.7-.83.66s-.44-.51-.66-.79c-2-2.59-4.13-5.1-6.08-7.75-.41-.56-.42-.57,0-1.08s.78-.88,1.16-1.33a.28.28,0,0,1,.44-.07c3.07,2,6.25,3.82,9.28,5.88.34.23.32.4.12.68a9.85,9.85,0,0,1-1,1c-.15.16-.27,0-.39,0-.57-.38-1.14-.75-1.7-1.14-.18-.12-.28-.13-.44,0a12.91,12.91,0,0,1-1,.9.37.37,0,0,0-.09.53,4.78,4.78,0,0,0,.85,1A1.6,1.6,0,0,1,28.9,33.06Z"/>
          <path class="cls-22" d="M80,59.12c0-.41,0-.82,0-1.23,0-.17.05-.23.23-.25,3.4-.51,6.73-1.43,10.12-2,1-.17,1-.19,1,.82a2.5,2.5,0,0,1,0,1.05c-.16.3-.62.1-.94.18a4.65,4.65,0,0,1-1.29.21.24.24,0,0,0-.28.18,3,3,0,0,0,0,1.66c0,.12.09.15.2.15.78,0,1.5.44,2.29.41.16,0,.16.11.16.22,0,.51,0,1,0,1.52,0,.18-.06.24-.24.21-2-.31-4-.63-6-.92-1.57-.23-3.14-.44-4.71-.61-.41,0-.57-.17-.52-.58A8.69,8.69,0,0,0,80,59.12Z"/>
          <path class="cls-22" d="M23.2,80.82c.08.56-.32,1-.82,1.41a4.57,4.57,0,0,1-1.71.76c-.18,0-.24,0-.29-.16-.16-.47-.32-.93-.51-1.38-.08-.2,0-.28.16-.33.33-.1.66-.18,1-.29.58-.2.83-.58.69-1a.9.9,0,0,0-1.24-.58,3.39,3.39,0,0,0-1.82,1.58c-.53.87-.83,1.84-1.29,2.74-.14.28-.3.55-.45.82a2.84,2.84,0,0,1-4.68.16,4.55,4.55,0,0,1-.86-2.6,1.8,1.8,0,0,1,.51-1.22,4.11,4.11,0,0,1,2.08-1.16c.27-.07.49,0,.56.33a6,6,0,0,0,.37,1.09.41.41,0,0,1-.23.6,6.05,6.05,0,0,1-1,.35c-.63.21-.81.45-.73,1a.93.93,0,0,0,1,.79,2,2,0,0,0,1.53-.75,7.33,7.33,0,0,0,1.15-2.16,12.55,12.55,0,0,1,.92-2.05c.87-1.4,2-1.59,3.55-1.53a1.06,1.06,0,0,1,.68.36A4.66,4.66,0,0,1,23.2,80.82Z"/>
          <path class="cls-22" d="M56,23.35a4.82,4.82,0,0,1-2.72-1,1,1,0,0,1-.43-.76A5.28,5.28,0,0,1,53.07,19c.07-.21.15-.31.41-.23a14.59,14.59,0,0,0,1.43.35c.25.05.25.16.17.36a3.66,3.66,0,0,0-.33,1.39,1,1,0,0,0,.83,1,1,1,0,0,0,1.1-.71,2.74,2.74,0,0,0-.35-2.5c-.38-.6-.81-1.17-1.21-1.75a3.3,3.3,0,0,1-.51-3,3.73,3.73,0,0,1,.65-1.52,2,2,0,0,1,1.65-.75,5.23,5.23,0,0,1,2.12.41,2.23,2.23,0,0,1,1.39,2.55A2.15,2.15,0,0,1,60,15.85c-.34.34-.79-.06-1.19-.15-.79-.17-.78-.2-.55-1a5.37,5.37,0,0,0,.19-.75c.07-.49-.07-.78-.44-.9a.84.84,0,0,0-1.05.4,2.5,2.5,0,0,0-.27,2.08,8.76,8.76,0,0,0,1.1,2.1c.31.47.6.94.87,1.44C59.59,20.77,58.47,23.57,56,23.35Z"/>
          <path class="cls-22" d="M43.05,110.51c-.42,0-.85,0-1.27-.1a2.33,2.33,0,0,1-1.38-.83,2.13,2.13,0,0,1-.57-2.39,2,2,0,0,0,.15-.68c0-.4.17-.46.51-.36s.85.19,1.28.28c.18,0,.24.1.24.3a3.4,3.4,0,0,1-.19,1,1.8,1.8,0,0,0-.12.64c0,.45.33.66,1,.78.41.08.56-.19.69-.49a2.82,2.82,0,0,0-.12-2.64,15,15,0,0,0-1.17-1.68,8.35,8.35,0,0,1-.79-1.24,3.31,3.31,0,0,1,.13-3.22,1.67,1.67,0,0,1,.62-.58,3.56,3.56,0,0,1,4.28.46,2.07,2.07,0,0,1,.51,1.84,7.81,7.81,0,0,1-.32,1.31c0,.11,0,.23-.21.15a7.52,7.52,0,0,0-1.37-.26c-.27-.06-.44-.13-.27-.48a2.77,2.77,0,0,0,.31-1.35.73.73,0,0,0-.69-.78.72.72,0,0,0-.92.47,2.87,2.87,0,0,0,.18,2.71,11.16,11.16,0,0,0,1.06,1.51c.19.25.38.5.55.77a3.6,3.6,0,0,1,0,4.13,1.83,1.83,0,0,1-1.56.75,4.83,4.83,0,0,1-.53,0Z"/>
          <path class="cls-22" d="M59.61,22.8A2.1,2.1,0,0,1,60,21.3c.82-1.37,1.41-2.86,2.13-4.29.32-.63.71-1.23,1-1.85a1.83,1.83,0,0,1,1.95-.9A4.38,4.38,0,0,1,68.27,16a1.35,1.35,0,0,1,.16,1.33c-.22.74-.72,1.35-1,2.08,0,.1-.09.12-.18.06A8.89,8.89,0,0,0,66.23,19a.71.71,0,0,1-.3-1.15,8.86,8.86,0,0,0,.5-.79.65.65,0,0,0-.29-1l-.31-.21c-.41-.25-.64-.19-.86.22l-3.4,6.59a1,1,0,0,0-.09.79,1,1,0,0,0,.75.68c.32.08.5-.19.66-.39a5.91,5.91,0,0,0,.73-1.46c.15-.35.31-.53.72-.29a8.9,8.9,0,0,1,.92.44.63.63,0,0,1,.2.93c-.15.28-.28.56-.42.84a1.89,1.89,0,0,1-2.47,1.32,4.65,4.65,0,0,1-2.54-1.25C59.61,23.89,59.61,23.88,59.61,22.8Z"/>
          <path class="cls-22" d="M79.66,65.67a2.8,2.8,0,0,1,.45-1.84,2.3,2.3,0,0,1,2.7-1.09,3.79,3.79,0,0,0,.85.13c.42,0,.46.27.39.58s-.12.39-.17.59a2.35,2.35,0,0,0-.09.4c0,.53-.07.57-.63.49a9.18,9.18,0,0,1-.92-.2c-.65-.15-1,.12-1.17.84-.08.44.26.79.83.86l2.2.24c1.67.18,3.34.37,5,.48.63,0,.93-.24.89-.87a.52.52,0,0,0-.37-.52,5.65,5.65,0,0,0-1.89-.32c-.3,0-.41-.11-.39-.41a7.33,7.33,0,0,1,.28-1.4c0-.11.07-.22.21-.2a9.06,9.06,0,0,1,2.19.25,1.72,1.72,0,0,1,1.21,1.46,6.07,6.07,0,0,1-.51,3.32c-.24.58-.9.71-1.49.78a9.44,9.44,0,0,1-2.52-.28A5.64,5.64,0,0,0,85,68.87a4,4,0,0,1-1.15-.22c-.76-.11-1.52-.15-2.27-.32a2.09,2.09,0,0,1-1.89-2.25Z"/>
          <path class="cls-22" d="M18,93a1.59,1.59,0,0,1-1.22-.44,6.89,6.89,0,0,1-1.18-1.25A3.14,3.14,0,0,1,15.06,89a.94.94,0,0,1,.4-.67,82.3,82.3,0,0,1,7.06-4.72,1.7,1.7,0,0,1,1.89,0,2.73,2.73,0,0,1,.87.86c.31.46.62.93.91,1.41a1.91,1.91,0,0,1-.5,2.26c-.52.36-1.05.69-1.56,1.06-.22.16-.31.1-.44-.1a8.54,8.54,0,0,0-.73-1c-.28-.31-.17-.5.12-.68s.87-.51,1.28-.81a.74.74,0,0,0,.15-1.15,1,1,0,0,0-1-.2,1.69,1.69,0,0,0-.82.37A50.12,50.12,0,0,1,17.86,89c-.32.21-.61.46-.92.69a.62.62,0,0,0-.18.84.81.81,0,0,0,1.26.42c.48-.27,1-.52,1.43-.8.2-.12.32-.13.46.09.23.39.5.75.76,1.12.06.09.18.16,0,.28-.49.32-1,.68-1.45,1A2,2,0,0,1,18,93Z"/>
          <path class="cls-22" d="M17.23,39.81c0,1.31.1,2.55.13,3.79a.46.46,0,0,0,.42.53c1.14.29,2.24.71,3.41.95a1.13,1.13,0,0,1-.78.56c-.59.15-1.19.32-1.77.5a4,4,0,0,0-.67.3,1.08,1.08,0,0,0-.66,1.11,21.23,21.23,0,0,1-.08,2.94,24.48,24.48,0,0,1-1.68-2.14,1.23,1.23,0,0,0-1.66-.61c-.88.28-1.79.47-2.67.78a.44.44,0,0,1-.36,0l.62-.84c.5-.67,1-1.35,1.51-2A.49.49,0,0,0,13,45c-.64-1-1.33-1.91-2.05-2.87a1.55,1.55,0,0,1,.93.07c.6.2,1.18.44,1.78.62a1.37,1.37,0,0,0,1.83-.79,4.87,4.87,0,0,1,.72-1c.17-.19.35-.39.51-.59S17,40.08,17.23,39.81Z"/>
          <path class="cls-22" d="M82.73,41.2A10.87,10.87,0,0,1,83.86,43a8.37,8.37,0,0,0,.94,1.44.36.36,0,0,0,.42.13c1-.26,2.1-.5,3.15-.74l.36-.06a2.7,2.7,0,0,1-.5.67c-.53.65-1,1.3-1.61,1.92a.58.58,0,0,0-.1.73,16.41,16.41,0,0,0,1.65,3l.18.28A3.47,3.47,0,0,1,87.2,50a12.85,12.85,0,0,0-2.42-1,.53.53,0,0,0-.52.13,6.31,6.31,0,0,0-1.09,1.33A5.75,5.75,0,0,1,82,51.92a4.61,4.61,0,0,1,0-1.41,8.66,8.66,0,0,0,.06-1.92,1.47,1.47,0,0,0-.91-1.22c-.66-.3-1.36-.5-2-.74l-.35-.13c-.12-.05-.28-.07-.25-.26s.18-.15.29-.18c1-.25,2-.51,3.06-.74a.39.39,0,0,0,.35-.4c.07-.61.21-1.21.29-1.82S82.66,41.87,82.73,41.2Z"/>
          <path class="cls-22" d="M27,34.86a1.53,1.53,0,0,1-.31.66,30.42,30.42,0,0,0-2.26,3.27c-.15.23-.24.29-.49.12Q19.47,35.82,15,32.76c-.22-.15-.21-.24-.08-.45q1.15-1.73,2.26-3.47c.15-.23.3-.29.54-.17a3.16,3.16,0,0,1,.43.23c.48.35.49.45.17.95S17.6,31,17.22,31.53c-.12.18-.12.26.07.38q1.17.73,2.31,1.49c.17.11.25.08.36-.07.36-.52.74-1,1.09-1.54.15-.23.28-.3.51-.11a3.12,3.12,0,0,0,.34.23c.57.37.58.38.21,1-.25.4-.54.79-.83,1.17a.27.27,0,0,0,0,.44,7.79,7.79,0,0,0,1.23.89,6.7,6.7,0,0,1,1.23.89.43.43,0,0,0,.68,0,2.62,2.62,0,0,0,.62-1,3.8,3.8,0,0,1,.54-1,.55.55,0,0,1,.74-.11C26.63,34.4,26.91,34.57,27,34.86Z"/>
          <path class="cls-22" d="M47.75,21a2,2,0,0,0,.19,1c.12.18-.11.17-.2.2a13.09,13.09,0,0,1-2.33.62,12.9,12.9,0,0,0-2.17.6c-.19.08-.29.08-.33-.17-.47-3.21-1.36-6.33-2.09-9.48-.08-.36-.16-.72-.25-1.08s0-.32.2-.39a28.69,28.69,0,0,1,4.43-1c.15,0,.23,0,.26.16.05.32.11.65.17,1,0,.16,0,.25-.2.25a9.26,9.26,0,0,0-2.35.53c-.14,0-.18.09-.15.22.16.9.33,1.8.47,2.71,0,.24.17.24.35.22a11.44,11.44,0,0,0,2-.23c.22-.06.33,0,.38.22a2.58,2.58,0,0,0,.2.54c.18.35,0,.49-.3.58a8.69,8.69,0,0,1-1.17.21c-.88.14-1.12.55-.78,1.38a6.15,6.15,0,0,1,.55,2.13c0,.21.06.31.32.24a4.36,4.36,0,0,1,.93-.12A5.77,5.77,0,0,0,47.75,21Z"/>
          <path class="cls-22" d="M76.29,79.88c.32.19.67.38,1,.59.12.08,0,.2-.06.29-.29.65-.56,1.3-.88,1.94-.12.24-.11.36.13.52a18,18,0,0,0,2.65,1.18c.2.09.21-.08.26-.17.29-.56.59-1.11.86-1.68.11-.24.24-.29.47-.17s.75.15.85.41-.22.58-.35.88-.33.75-.52,1.11c-.1.2-.06.29.13.38,1,.5,1.94,1,2.91,1.52.21.11.27.06.35-.13.34-.82.88-1.54,1.19-2.38.06-.17.15-.17.31-.1.9.41.9.41.54,1.32a27.22,27.22,0,0,1-1.66,3.47c-.11.19-.18.24-.4.13-3.13-1.63-6.39-3-9.59-4.44-.28-.13-.35-.24-.25-.54a26.29,26.29,0,0,1,1.51-3.27l.36-.74C76.15,80,76.14,79.85,76.29,79.88Z"/>
          <path class="cls-22" d="M19.56,67.16a17.92,17.92,0,0,1,.49,1.89c0,.27-.13.33-.3.41L16.1,71.11l-.33.15,2.3.27a14.31,14.31,0,0,0,2,.17c.2,0,.27.08.3.25.1.5.18,1,.3,1.48.05.22,0,.25-.21.25A9.22,9.22,0,0,1,19,73.53a32.22,32.22,0,0,0-5.93-.72,10.25,10.25,0,0,0-2.47.31,10.68,10.68,0,0,1-1.37.22.42.42,0,0,1-.51-.45,4.07,4.07,0,0,0-.31-1.51,12.34,12.34,0,0,0,3.17-.3,18.29,18.29,0,0,0,5.16-2.24Z"/>
          <path class="cls-22" d="M60.94,102.11a2.59,2.59,0,0,0,1-.3l.29-.14c.82-.39,1-.31,1.06.57a.13.13,0,0,1,0,0c0,.2.29.39.05.56a1.85,1.85,0,0,1-.62.19c-.29.07-.59.12-.87.21-.63.2-.8.55-.54,1.16.45,1.07.91,2.13,1.36,3.2a1.52,1.52,0,0,1,.22.73c0,.26-.42.19-.64.31a4.3,4.3,0,0,1-.83.36c-.41.13-.62,0-.75-.4-1.13-3.35-2.13-6.74-3.55-10-.07-.15-.24-.32.11-.4a24.06,24.06,0,0,0,3.9-1.35c.32-.13.49-.11.59.26s.45.66.31.91-.57.26-.88.36c-.46.16-.92.36-1.36.56a.34.34,0,0,0-.24.44,5.25,5.25,0,0,0,.6,1.56c.17.31.33.63.49.94C60.75,102,60.82,102.14,60.94,102.11Z"/>
          <path class="cls-22" d="M74.06,37.27l4.12-2.5c1.37-.83,2.73-1.67,4.1-2.49.27-.16.31-.28.12-.53A7.2,7.2,0,0,1,82,31c-.32-.55-.32-.55.39-.94.5-.28.78-.22,1,.25.68,1.38,1.51,2.66,2.25,4,.15.27.12.41-.17.52a2.41,2.41,0,0,0-.53.31c-.32.24-.52.11-.68-.19s-.27-.57-.4-.85-.22-.26-.44-.12c-2.63,1.62-5.42,3-8,4.68-.36.23-.53,0-.7-.24A8.28,8.28,0,0,0,74.06,37.27Z"/>
          <path class="cls-22" d="M33.63,14.72A3.12,3.12,0,0,0,35,14.15c.26-.14.41-.12.53.22C36.61,17.29,37.9,20.13,39,23c.1.25.2.25.42.16.64-.26,1.3-.49,1.94-.76.22-.09.3,0,.41.15.48.91.49.9-.43,1.36-1.08.54-2.2,1-3.32,1.4-.22.09-.32.07-.43-.17a91.66,91.66,0,0,1-4-10.26C33.65,14.86,33.65,14.8,33.63,14.72Z"/>
          <path class="cls-22" d="M41.37,98.89c0,.63-.28.85-.84.68-.89-.28-.89-.28-1.31.54-1.3,2.57-2.58,5.15-3.94,7.7-.15.28-.27.34-.55.19a12,12,0,0,0-1.24-.54c-.26-.1-.28-.2-.16-.44.81-1.64,1.7-3.24,2.57-4.85.62-1.14,1.22-2.29,1.78-3.46.14-.29.13-.45-.2-.53-.94-.23-1.09-.53-.44-1.44.18-.25.28-.31.57-.15,1.12.62,2.26,1.22,3.4,1.81C41.25,98.5,41.41,98.64,41.37,98.89Z"/>
          <path class="cls-22" d="M90.44,72c-.09.61-.17,1.17-.24,1.72,0,.17-.13.14-.24.12-3.55-.87-7.19-1.22-10.74-2.11-.35-.09-.46-.22-.36-.57s.2-.85.28-1.28c0-.19.11-.24.3-.19,3,.82,6,1.12,9.06,1.71.55.11,1.1.23,1.64.35C90.28,71.76,90.51,71.76,90.44,72Z"/>
          <path class="cls-23" d="M75.23,88.65l-.86-.87.08-.08.89.84Z"/>
          <path class="cls-24" d="M72.45,92.66,72,92.39a.65.65,0,0,1,.51.19Z"/>
          <path class="cls-25" d="M76.55,92.57l.26.22a.32.32,0,0,1-.36-.12Z"/>
          <path class="cls-20" d="M28.75,42.2A2.4,2.4,0,0,1,29.34,44a7.92,7.92,0,0,0,.09,1.27,1.67,1.67,0,0,0,.65,1.06.36.36,0,0,1,.18.37A4,4,0,0,0,31,49.33c.31.48.64,1,.93,1.45a3.44,3.44,0,0,1,.51,1.79.34.34,0,0,0,.2.35,1.37,1.37,0,0,1,.7,1.18,1.65,1.65,0,0,1,0,.25,3.67,3.67,0,0,0,1,2.89,1.67,1.67,0,0,1,.41,1.64.78.78,0,0,0,.38.91,4,4,0,0,0,.43.24c.71.36.76.45.57,1.21a.71.71,0,0,0,.06.43,2.48,2.48,0,0,0,1.16,1.22c.41.25.83.48,1.23.74A1.92,1.92,0,0,1,39.5,65c0,.17.08.28.29.31a1,1,0,0,1,1,1.09c0,.74-.22,1.46-.19,2.2,0,.1-.09.13-.16.17a2.29,2.29,0,0,0-1,1.82,13.37,13.37,0,0,0,.12,2.57,2,2,0,0,1,0,.37A1.5,1.5,0,0,0,41,75.16l.15.05a1.32,1.32,0,0,1,.07.68,17.12,17.12,0,0,1,0,2.16c-.43.31-.8.2-.92-.29S40.09,77,40,76.59a1.24,1.24,0,0,0-.75-1,4.68,4.68,0,0,0-1.5-.41c-2.23-.28-4.43-.74-6.66-1-.1,0-.21-.06-.33,0,.3.24.67.37,1,.61a1.54,1.54,0,0,1,.47.56c.14.33.09.53-.24.65a.78.78,0,0,0-.54.86,2.07,2.07,0,0,0,.62,1.44,17.49,17.49,0,0,0,1.36,1.31,6.07,6.07,0,0,1,1.51,1.87,2.6,2.6,0,0,0,2.23,1.51c1.16.1,2.31.28,3.46.44.24,0,.5,0,.65.28a1.82,1.82,0,0,1,0,.57q0,3.24,0,6.48c0,.23,0,.47-.14.66a23.32,23.32,0,0,1-7.56-5.28A33.65,33.65,0,0,1,25.7,73.34,37,37,0,0,1,23.89,63a38.74,38.74,0,0,1,3.4-18.12A28.35,28.35,0,0,1,28.75,42.2Z"/>
          <path class="cls-26" d="M58.36,75.5a2.2,2.2,0,0,0,1.42-2,12.7,12.7,0,0,0-.28-2.73c0-.15,0-.3-.06-.45a2,2,0,0,0-.33-1,2.54,2.54,0,0,1-.3-1.82c.06-.65.17-1.3.24-2,0-.17.08-.24.25-.26a1.79,1.79,0,0,0,1.34-.91c.19-.29.37-.58.56-.86a1.56,1.56,0,0,1,1.12-.69.5.5,0,0,0,.41-.28,2.25,2.25,0,0,0,.35-1.41.39.39,0,0,1,.21-.43,3.26,3.26,0,0,0,1.58-3c0-.24,0-.4.29-.49s.37-.42.55-.64a1.54,1.54,0,0,0,.36-1.43,2,2,0,0,1,.41-1.43c.27-.44.57-.87.83-1.32a2.31,2.31,0,0,0,.37-1.33.46.46,0,0,1,.19-.41,3.33,3.33,0,0,0,1.29-2.84c0-.12,0-.24.09-.34A2.53,2.53,0,0,0,70,46a12.71,12.71,0,0,1,.89-2.79,25.44,25.44,0,0,1,2.39,5.48,42.93,42.93,0,0,1,2,12.38,36.67,36.67,0,0,1-1.58,12.14,32.79,32.79,0,0,1-8.54,13.87,23.31,23.31,0,0,1-6.27,4.31l-.3.13s-.05,0-.12,0c0-1.1,0-2.21,0-3.32a4,4,0,0,0,0-1.14.34.34,0,0,1-.13-.29c0-1-.06-2.09,0-3.13.14-.27.41-.25.64-.28,1.66-.19,3.31-.44,5-.72A1.73,1.73,0,0,0,65,81.94a19.36,19.36,0,0,0,1.53-2.57A7.23,7.23,0,0,1,68,77.44a.83.83,0,0,0,.27-.73A4.17,4.17,0,0,1,69,74.24c.39-.6.85-1.15,1.29-1.71.13-.17.31-.31.31-.56-.19-.08-.32.05-.46.12a23.66,23.66,0,0,1-6.08,2.07c-1.06.23-2.13.5-3.19.75a2.23,2.23,0,0,0-1.11.59.64.64,0,0,0-.19.67,4.6,4.6,0,0,1,.14,1.47c0,.42-.13.54-.54.57s-.62.24-.87-.1a16.77,16.77,0,0,1,0-2.39A.35.35,0,0,1,58.36,75.5Z"/>
          <path class="cls-22" d="M58.39,83.55q0,1.76,0,3.51c0,1.41,0,2.82,0,4.23a.48.48,0,0,1-.35.52,20.55,20.55,0,0,1-9.1,1.58A19.2,19.2,0,0,1,42.21,92c-.35-.15-.69-.33-1-.5q0-3.9,0-7.8a.44.44,0,0,1,.42-.11c1.36.17,2.73.2,4.09.27.72,0,1.44,0,2.17,0l.41,0a1.32,1.32,0,0,1,1.34,1.44,4.2,4.2,0,0,1-.28,1.53A8.62,8.62,0,0,0,49,88.13a1.49,1.49,0,0,0,.11.92c.13.26.26.53.62.5a.82.82,0,0,0,.74-.56,1.78,1.78,0,0,0,.11-.89,6,6,0,0,1-.08-1.35,3.61,3.61,0,0,0,0-1.78s0,0,0,0c.2-.95.06-.82.91-.9,1.43-.14,2.86-.25,4.29-.37l2.16-.21C58.06,83.44,58.24,83.39,58.39,83.55Z"/>
          <path class="cls-22" d="M41,31.66a13.54,13.54,0,0,1,4.15-1.57,22,22,0,0,1,6.06-.48,18.54,18.54,0,0,1,6.55,1.46.46.46,0,0,1,.34.52,4.12,4.12,0,0,0,0,.57.74.74,0,0,1,.12.51c.08,3.3.1,6.59.08,9.89a1.08,1.08,0,0,1-.13.67c-1,.71-.72,1.73-.62,2.69.08.71.24,1.4.29,2.11a3.87,3.87,0,0,1-1,2.75,1.39,1.39,0,0,1-1,.55.8.8,0,0,1-.89-.45,6.42,6.42,0,0,1-.88-2.65,9.55,9.55,0,0,0-.67-2.06,5.51,5.51,0,0,1-.26-1,1.48,1.48,0,0,0-.25-.68,1.1,1.1,0,0,1,.06-1.33,3.47,3.47,0,0,0,.63-1.27c-1.8.57-3.58.11-5.35,0a2,2,0,0,0-1.31.4,13.44,13.44,0,0,1-1.47.82,3.27,3.27,0,0,1-.88.18c-.88.16-1.14.74-.69,1.53a3,3,0,0,0,.69.75c.25-.53.66-.63,1.1-.27a4.83,4.83,0,0,0,1,.84c.34.16.6,1.43.48,1.83,0,.09-.21.23.06.29.08,0,0,.16-.06.23-.32.51-.59,1.06-.95,1.52a3.06,3.06,0,0,1-1.87,1.24,1.86,1.86,0,0,1-1.86-.79,4,4,0,0,1-.64-3c.11-1.2.37-2.38.38-3.59a.81.81,0,0,0-.36-.76c-.34-.23-.65-.5-1-.75a1,1,0,0,1-.13-.59q0-4.78,0-9.57A.8.8,0,0,1,41,31.66Z"/>
          <path class="cls-27" d="M53.86,57.14c-.2,0-.3.23-.52.19a.58.58,0,0,1-.51-.86,2.72,2.72,0,0,0,.37-1,1.6,1.6,0,0,0-.57.58c-.18.29-.38.31-.63.09s-.28-.24-.42-.07,0,.3.13.43a4.26,4.26,0,0,0,.85.63c.21.15.49.3.38.61a1,1,0,0,1-.74.59c-.31.06-.51-.18-.66-.41s.07-.31.19-.44.33-.25.27-.55c-.26.19-.5.35-.71.53s-.31.23-.44,0a.16.16,0,0,0-.06-.06c-.12-.07-.24-.25-.38-.13s0,.24.09.36.34.23.21.43a.56.56,0,0,1-.62.22c-.29-.06-.58-.15-.87-.23-.06.05,0,.12,0,.18.14.59,0,.73-.61.73a1.19,1.19,0,0,1-.82-.37s-.06.07-.05.09.2.38.16.44a1.48,1.48,0,0,1-.56.39c-.31.12-.42-.11-.54-.34s.12-.29.23-.35a16,16,0,0,0,2.39-1.42c.07-.05.18-.07.19-.21-.45-.16-.83.35-1.28.15.05.27-.23.61-.62.74a.43.43,0,0,1-.58-.29c-.05-.12-.11-.3-.28-.22s-.07.24,0,.37.07.23.09.35-.06.23-.18.29a.31.31,0,0,1-.34,0,.68.68,0,0,1-.21-1,1,1,0,0,1-.82-.91c0-.12.07-.17.13-.24l.66-.73a.87.87,0,0,1-.27-1.4c.21-.24,0-.32-.16-.44s-.41-.2-.18-.5.41-.14.57.1.11.23.27.22.16-.16.22-.27.06-.1,0-.15c-.34-.18-.33-.5-.33-.82a.49.49,0,0,1,.32-.51c.37-.17.62-.54,1.05-.68a1.13,1.13,0,0,1-.64-.84.5.5,0,0,0-.16.41,5.08,5.08,0,0,1-.09.61.29.29,0,0,1-.37.23c-.22-.07,0-.24,0-.34a3.13,3.13,0,0,1,.95-1.55s.12,0,.08-.15c-.14-.31-.13-.35.11-.6a1.42,1.42,0,0,0,.49-.78c0-.27.49-.41.88-.31l.59.17a.49.49,0,0,0,.47-.07c.26-.27.46-.16.69,0s.3-.14.46-.21c-.55-.07-1.07-.93-1.65,0a2.26,2.26,0,0,1-.23-.24c-.15-.22-.27-.33-.53-.09s-.56.07-.82.22c-.06,0-.1-.11-.11-.19a3.7,3.7,0,0,0-.45-1.35c-.13-.22,0-.29.14-.41s.39-.4.22-.78a1,1,0,0,1-1.21.46,5.63,5.63,0,0,1-1.22-.6.75.75,0,0,1,.93.18.75.75,0,0,0,.77.17c.2-.06.23-.29.26-.48a.38.38,0,0,0,0-.24A2.4,2.4,0,0,0,45.7,44a.59.59,0,0,0,.39.19,4.27,4.27,0,0,1,.51.13.26.26,0,0,1,.18.25c0,.08,0,.14-.1.14s-.31,0-.39,0c-.31-.27-.91-.56-1.13-.48-.4.14-.36.54-.48.88a1.29,1.29,0,0,1-.52-.75.73.73,0,0,1,.7-.95,10.3,10.3,0,0,1,1.11,0s.11,0,.12,0a.26.26,0,0,0,.42.15c.18-.17-.16-.23-.16-.4s.19,0,.28-.07.45-.06.55-.43.52-.52.94-.53a9.45,9.45,0,0,1,2.2.24,6.1,6.1,0,0,0,2.59.05,4.46,4.46,0,0,0-.69.91c-.18.43.06.66.44.89a1.75,1.75,0,0,1-.87-.09c-.18,0-.39-.09-.51,0-.29.3-.55.11-.81,0A12.83,12.83,0,0,0,49,43.54a1.55,1.55,0,0,0-1.84.34c.15.15.34,0,.51.06a.68.68,0,0,1,.26.12.49.49,0,0,0,.53,0l.12-.09a.26.26,0,0,1,.14-.06,1.94,1.94,0,0,1,1.15.48c.57.43,1.13.72,1.81.17.23-.19.81.06,1.08.39a3.11,3.11,0,0,1,.48,1.42,3.42,3.42,0,0,0,.48,1.39,1.69,1.69,0,0,1-.58-.19c-.16-.05-.37-.18-.5,0-.31.37-.5.08-.73-.08l-.27-.2-.26.42c.22.11.43.21.63.32.35.21.68.31,1-.06.13-.16.25,0,.36,0A1.91,1.91,0,0,1,54,49c0,.07,0,.13-.07.14s-.13,0-.13-.11a.59.59,0,0,0,0-.2c-.07-.15-.16-.32-.37-.22a.26.26,0,0,0-.12.41c.14.25.28.5-.11.69.42.11.42.11.49-.38.09,0,.1.06.14.12.2.32-.23.62,0,1s0,.69-.06,1.08l-.19-.16c-.09-.08-.19-.14-.27,0s0,.16.11.23c.26.28.46.18.62-.09a4.77,4.77,0,0,0,.24-.56,1,1,0,0,1,0,1.26c-.07.08,0,.11,0,.16a.84.84,0,0,1,0,.89c0,.1-.08.41-.29.1a.1.1,0,0,0-.15,0c-.05,0,0,.1,0,.15l.36.64c0,.08,0,.11-.09.08s-.25.12-.31.26c-.15.39-.4.46-.74.21-.09-.07-.19-.21-.31-.1s0,.24.1.34a6.43,6.43,0,0,0,.79.77c.32.31.62.64.45,1.14a.51.51,0,0,1-.09.29S53.91,57.18,53.86,57.14Z"/>
          <path class="cls-27" d="M32.8,42.84a15.33,15.33,0,0,1-2.92-3.2,7.56,7.56,0,0,1-1.22-3.53c-.06-.76.41-1.12,1.1-.82a1.44,1.44,0,0,1,.69.5A9.52,9.52,0,0,0,32.84,38a51.47,51.47,0,0,0,8.38,5.21,1.06,1.06,0,0,1,.64,1.08,29.56,29.56,0,0,1-.38,3.34,5.81,5.81,0,0,0,0,1.76,3,3,0,0,0,3.07,2.24.63.63,0,0,0,.49-.24.31.31,0,0,1,.41-.09c.16.12,0,.24-.08.34a2.58,2.58,0,0,0-.52,1.85c.05.36-.25.38-.48.42a2.78,2.78,0,0,1-.47,0c0-.2.17-.22.32-.25a1.38,1.38,0,0,0,.34-.12.18.18,0,0,0,.11-.2c0-.09-.1-.07-.17-.08a8.15,8.15,0,0,1-4.27-2l-.08-.09s0-.06,0-.06c.71-.17.78-.29.45-.93-.22-.42-.49-.82-.72-1.24a1.31,1.31,0,0,1,.3-1.86.45.45,0,0,0,.18-.3A3.22,3.22,0,0,0,39,43.54a18.15,18.15,0,0,0-2.37-1.21,8.06,8.06,0,0,1-2.39-1.68c-1.16-1.2-2.42-2.3-3.64-3.44,0,0-.09-.06-.18,0A3.61,3.61,0,0,0,31,38a26.46,26.46,0,0,0,4.45,4c.41.32.81.65,1.23,1s.37.38.16.7a6.86,6.86,0,0,0-.53,1.06c-.09.21-.17.28-.38.14a7.5,7.5,0,0,0-.67-.4,1.64,1.64,0,0,0-.61-.25c0,.18.17.25.3.32s.38.21.58.3c1.18.56,1.37,1.35.57,2.38-.16.21-.28,0-.39,0a12,12,0,0,1-4.4-2.7,8.71,8.71,0,0,1-2.51-4.43c0-.16-.16-.43,0-.47s.53-.13.74.21a9.64,9.64,0,0,0,3.15,3.06s.11.05.14,0S32.81,42.89,32.8,42.84Z"/>
          <path class="cls-26" d="M58.21,43.24q0-1.89,0-3.77,0-3.65,0-7.3c.12-.26,0-.54.09-.83A17.82,17.82,0,0,1,61,32.73a24.22,24.22,0,0,1,6,5.18,12.69,12.69,0,0,1-2.59,1.71c-1.05.57-2.13,1.11-3.2,1.66A18,18,0,0,0,58.21,43.24Z"/>
          <path class="cls-27" d="M41,59.13A6.27,6.27,0,0,0,43.9,59a1.17,1.17,0,0,0-.65-.12,7.2,7.2,0,0,1-2.38-.34A2.53,2.53,0,0,1,39,56.23a3.64,3.64,0,0,1,1.38.56,2.76,2.76,0,0,0,1.63.44c.11,0,.29.06.3-.11s-.14-.18-.26-.22a9.92,9.92,0,0,0-1.1-.14,1.2,1.2,0,0,1-.46-.16c-.67-.49-1.36-1-2-1.49a2.34,2.34,0,0,1-1-2.06,11.42,11.42,0,0,0,2.08,1.1c.34.13.69.25,1,.35.09,0,.25.15.3-.05s-.12-.17-.23-.2a5.48,5.48,0,0,1-2.34-1,4.39,4.39,0,0,1-1.16-1.42c-.19-.36,0-.73,0-1.09,0-.15,0-.3,0-.52a11.28,11.28,0,0,1,1,1,2.3,2.3,0,0,0,1.27.66,9.62,9.62,0,0,1-2.16-2A4.17,4.17,0,0,1,36.61,47c.56.73,1,1.48,2,1.76a1.07,1.07,0,0,0-.58-.66,1.65,1.65,0,0,1-.74-.89A5.29,5.29,0,0,1,36.93,44a3.32,3.32,0,0,1,.48,1.22c.12.82.76,1.13,1.36,1.47l.09-.07c-.19-.31-.37-.62-.57-.92a4.58,4.58,0,0,1-.78-2c0-.09,0-.23,0-.27s.2,0,.3.06a3,3,0,0,1,1.46,1.45,6,6,0,0,1,.48,2c0,.46-.25.71-.72.78l-.37.06A2.77,2.77,0,0,0,39.31,49a3.77,3.77,0,0,1,.7,1.33c0,.17.08.3-.21.29a4.21,4.21,0,0,0-.87.16c1.13,1.38,2.71,2,4.23,2.81-.2,0-.27.15-.26.3a.34.34,0,0,0,.25.3,3.22,3.22,0,0,0,1.2.36c.3,0,.42.14.38.43a4,4,0,0,1-.1.6,1.47,1.47,0,0,0,0,1.41.11.11,0,0,1,0,.08c-.26,1.08.45,2,.36,3.11,0,.12.1.19.17.27A.36.36,0,0,1,45,61a2.53,2.53,0,0,1-1.34.08,3.16,3.16,0,0,1-2.36-1.22A1.31,1.31,0,0,1,41,59.13Z"/>
          <path class="cls-27" d="M55.59,53.36c0-.29.13-.56.06-.85s-.44-.39-.22-.63.46-.1.69-.17a3,3,0,0,0,2.08-2.64A7.36,7.36,0,0,0,58,45.69a2.29,2.29,0,0,1,1.31-2.94,11.06,11.06,0,0,1,1.57-.57,8.46,8.46,0,0,0,2-1.06,37.84,37.84,0,0,0,6-4.35c.38-.35.75-.72,1.1-1.11a.56.56,0,0,1,.73-.16c.28.14.52.31.49.71a8.15,8.15,0,0,1-2.38,5.09,21.58,21.58,0,0,1-5.19,3.76c-.27.15-.29,0-.34-.19-.13-.48-.13-1-.61-1.36,1.06-.84,2.11-1.65,3.14-2.48a18.72,18.72,0,0,0,2.85-2.71c0-.15-.09,0-.13,0a43.12,43.12,0,0,1-5.85,4.42,9.21,9.21,0,0,1-2.1,1.09,1.39,1.39,0,0,0-.84.95,16,16,0,0,0-.49,1.94,1.15,1.15,0,0,0,.2.78c.11.23.25.45.35.69a.88.88,0,0,1-.22,1.11,3.86,3.86,0,0,0-.74,1.39c-.11.35.08.55.5.59a10.18,10.18,0,0,1-3.69,2.1A.06.06,0,0,1,55.59,53.36Z"/>
          <path class="cls-27" d="M55.55,58.87a.7.7,0,0,0,.72.41c.38,0,.79-.14,1.13.17.08.07.21,0,.31-.06a2.35,2.35,0,0,1,.37-.17.33.33,0,0,1,.35.06c.1.11,0,.23,0,.34a1.12,1.12,0,0,1-.33.46c-.37.3-.74.61-1.13.89a1.17,1.17,0,0,1-.7.19c-.31,0-.63,0-.94,0-.65-.07-.67-.08-.52-.74a10,10,0,0,1,.41-1.28,3,3,0,0,0,.22-1.4.32.32,0,0,1,.06-.31A1.53,1.53,0,0,0,55.8,56c0-.12,0-.24,0-.37,0-.7.2-1,.9-1.11a.94.94,0,0,0,.52-.27c.19-.17.24-.31,0-.48s-.16-.3.07-.42l1.6-.84a4.88,4.88,0,0,0,1.53-1.22c.16-.19.17-.3-.1-.39-.77-.26-.77-.27-.39-1a12.57,12.57,0,0,1,1-1.54c.12-.18.14-.28-.1-.35a.9.9,0,0,1-.25-.14A1,1,0,0,1,60,46.59a3.84,3.84,0,0,1,1.88-2.7.78.78,0,0,1,.41-.15c0,1.21-1,2-1.42,3,.72-.05,1.55-1.16,1.82-2.46a3.25,3.25,0,0,1,.07,2.52c-.16.84-1,1.33-1.55,2,.74-.2,1.15-.83,1.69-1.3.23.62-.08,1.38-.79,2.63-.5.88-1.43,1.2-2,1.91,1-.23,1.55-1.08,2.35-1.56a2.08,2.08,0,0,1-.32,2.09,7.48,7.48,0,0,1-3.38,2.06c1.35.11,2.34-.76,3.49-1.34a3.35,3.35,0,0,1-.93,1.95,7.43,7.43,0,0,1-3.64,1.84l-.32.08c-.09,0-.26,0-.22.15s.16.12.27.11a7.33,7.33,0,0,0,2.52-.8c.15-.07.32-.29.46-.16a.54.54,0,0,1,0,.65c-.57,1-1.22,1.8-2.49,1.78C57.15,58.86,56.4,58.87,55.55,58.87Z"/>
          <path class="cls-20" d="M41,31.66q0,3.18,0,6.36,0,2.19,0,4.39c-1.65-1.06-3.45-1.83-5.16-2.77a14.65,14.65,0,0,1-3.25-2.26,26.12,26.12,0,0,1,7.81-5.51C40.61,31.77,40.79,31.62,41,31.66Z"/>
          <path class="cls-27" d="M44.66,65a3.66,3.66,0,0,0-.4.94,7.66,7.66,0,0,1-3.39,4.07c-.26.16-.27.15-.77,0,.4-.46.78-.92,1.19-1.35a15.46,15.46,0,0,0,3.19-5.25,16.33,16.33,0,0,1,.68-1.49,3.64,3.64,0,0,1,.63-.9,1.28,1.28,0,0,1,1.83-.18,3.73,3.73,0,0,1,1.45,2.56,19.1,19.1,0,0,1,.27,5.27c0,.51.1,1.05-.3,1.49a.91.91,0,0,1-.54-.77c-.24-1.12-.5-2.24-.8-3.34a6.45,6.45,0,0,0,.55,4.2C47.17,69,47,67.36,46.61,65.75a7.63,7.63,0,0,0-.91,1.62,2.81,2.81,0,0,1-1.27,1.36c.12-.86.84-1.48.74-2.37l-.47.83a15,15,0,0,1-2.37,3.33c-.2.19-.38.34-.62.09a.43.43,0,0,1,0-.7,9.54,9.54,0,0,0,2.45-3,5.28,5.28,0,0,0,.52-1.63C44.8,65.09,44.79,65.08,44.66,65Z"/>
          <path class="cls-27" d="M59.09,70.2A2.7,2.7,0,0,1,57,69.14a8,8,0,0,1-1.93-3.34,1.19,1.19,0,0,0-.63-.95,7.15,7.15,0,0,0,1.35,3.45,9,9,0,0,0,1.71,1.77c.13.1.36.15.31.38a.54.54,0,0,1-.42.41.5.5,0,0,1-.59-.18c-.24-.35-.49-.69-.71-1.06-.59-1-1.16-2-1.74-3a1,1,0,0,0-.26-.31c-.07.9.53,1.54.81,2.35-.13.16-.29.1-.49-.08a4.48,4.48,0,0,1-.94-1.43,6.62,6.62,0,0,0-.74-1.34,9.27,9.27,0,0,1-1.55,3.94,7.56,7.56,0,0,0,.53-2,8.18,8.18,0,0,0,.08-1.76,2.25,2.25,0,0,0-.47,1.12c-.13.53-.22,1.07-.34,1.6A3.61,3.61,0,0,1,50.36,70a.28.28,0,0,1-.2.12c-.12,0-.07-.12-.07-.2a41.83,41.83,0,0,1,0-5.17,6,6,0,0,1,1.67-3.95.83.83,0,0,1,.82-.21,2.28,2.28,0,0,1,1.55,1.18,12.45,12.45,0,0,1,.77,1.76,18.46,18.46,0,0,0,3.39,5.52C58.56,69.41,58.79,69.78,59.09,70.2Z"/>
          <path class="cls-22" d="M58.36,75.5v2.7c-.08.18-.26.18-.42.2-1.07.16-2.15.25-3.23.31-1.82.1-3.63.23-5.45.18-2.53-.07-5.06-.19-7.57-.52-.19,0-.42,0-.55-.21q0-1.48,0-3a4.37,4.37,0,0,0,.45,0c.4,0,.76,0,.85.51,0,.26.34.37.61.4a7,7,0,0,0,1.06,0c.52,0,1,0,1.23.63,0,.13.1.13.21.09a1.9,1.9,0,0,1,1.89.48,3.38,3.38,0,0,0,1.6.77,2.53,2.53,0,0,0,1.59-.23c.41-.2.81-.46,1.22-.67A1.41,1.41,0,0,1,53,77.11c.25.09.52-.07.75-.21a3.55,3.55,0,0,0,.42-.32.87.87,0,0,1,.85-.23c.37.09.79.16,1-.38.18-.38.67-.36,1.07-.39A8.43,8.43,0,0,0,58.36,75.5Z"/>
          <path class="cls-27" d="M63.29,46.67c.06-.34.13-.69.18-1s.21-.23.35-.3a20.29,20.29,0,0,0,5.37-3.86,15.13,15.13,0,0,0,1.14-1.29c.19-.24.37-.38.64-.22s.06.37,0,.55a7.88,7.88,0,0,1-2.44,4.18A14.69,14.69,0,0,1,63.8,47.6c-.24.1-.35.06-.38-.19S63.33,46.93,63.29,46.67Z"/>
          <path class="cls-27" d="M49.08,73.64c0,.44-.07.91-.07,1.37a.93.93,0,0,0,.51.92c.15.07.3.1.4-.05a1.47,1.47,0,0,0,.36-1.32,4.63,4.63,0,0,1-.22-1,.54.54,0,0,1,.52-.66c.51-.09.79,0,.95.42a4.25,4.25,0,0,1,.16,1.18,3.87,3.87,0,0,0,.24,1.16,1,1,0,0,1-.11.94,2.28,2.28,0,0,1-2.51,1,4.89,4.89,0,0,1-1-.34,1.53,1.53,0,0,1-1-1.88c.13-.74.46-1.43.54-2.19,0-.23.21-.15.32-.14.34,0,.72-.16,1,.11C49.15,73.22,49.08,73.45,49.08,73.64Z"/>
          <path class="cls-27" d="M29.88,44.83c0-.14,0-.21,0-.28s0-.45.2-.55.3.14.41.24a26,26,0,0,0,2.71,2.19,10.11,10.11,0,0,0,2.71,1.32c.12,0,.26.05.25.21a2.13,2.13,0,0,0,.48,1.28c.13.22.36.5.21.7s-.41-.08-.62-.17a16.58,16.58,0,0,1-4.5-2.39,7.18,7.18,0,0,1-1.49-1.63C30,45.46,29.78,45.17,29.88,44.83Z"/>
          <path class="cls-27" d="M62.84,50.14c.29-.72.54-1.33.78-1.95,0-.12.14-.15.24-.19A17.5,17.5,0,0,0,69,44.62l.21-.19a.41.41,0,0,1,.46-.07c.15.07,0,.22,0,.33a5,5,0,0,1-2.13,3.23A19.06,19.06,0,0,1,62.84,50.14Z"/>
          <path class="cls-27" d="M39.91,60.44A7,7,0,0,1,35.71,59a1.41,1.41,0,0,1-.31-1.35.3.3,0,0,1,.43-.17A9.32,9.32,0,0,0,39,58a1.44,1.44,0,0,1,1.07.51,6,6,0,0,1,1,1.52c.1.21,0,.26-.18.28A7.36,7.36,0,0,1,39.91,60.44Z"/>
          <path class="cls-27" d="M62.54,52.73,63,51.56a1.1,1.1,0,0,0,0-.8c-.1-.24,0-.28.19-.33A14.19,14.19,0,0,0,68,48c.19-.15.3-.07.47,0s.11.25.06.38a5.2,5.2,0,0,1-1.74,2.33A13.45,13.45,0,0,1,62.54,52.73Z"/>
          <path class="cls-27" d="M37.06,52.47c-1.81-.61-3.63-1.15-5-2.63A3.85,3.85,0,0,1,31.16,48c0-.08-.15-.17,0-.25a.28.28,0,0,1,.31,0,7.46,7.46,0,0,1,1,.59,10.1,10.1,0,0,0,3,1.53c.36.13.71.27,1.06.42.09,0,.24.06.17.22a2.06,2.06,0,0,0,.4,1.92S37.06,52.42,37.06,52.47Z"/>
          <path class="cls-27" d="M60.21,60.52a6.81,6.81,0,0,1-1.6-.08c-.31,0-.28-.16-.14-.36A10.52,10.52,0,0,1,59.23,59a1.73,1.73,0,0,1,1.5-.72,10.42,10.42,0,0,0,2.73-.51c.19,0,.39-.21.59,0a.66.66,0,0,1,.08.79,3,3,0,0,1-.86,1A4.8,4.8,0,0,1,60.21,60.52Z"/>
          <path class="cls-27" d="M39.45,62.7a2.89,2.89,0,0,1-2-.71,1.72,1.72,0,0,1-.47-.56c-.32-.66-.06-1.11.66-1.06s1.16.15,1.74.24a4.71,4.71,0,0,0,1.22,0,1.49,1.49,0,0,1,1.71.94.37.37,0,0,1-.18.5A4.66,4.66,0,0,1,39.45,62.7Z"/>
          <path class="cls-27" d="M38.26,57.63a9.27,9.27,0,0,1-2.33-.49,3.91,3.91,0,0,1-1.42-.93,2.37,2.37,0,0,1-.62-1.76.41.41,0,0,1,.19-.39c.19-.1.23.1.31.19a3.74,3.74,0,0,0,1.79.85,9.52,9.52,0,0,1,1.87.58A1.6,1.6,0,0,1,39,57.15C39,57.65,38.95,57.67,38.26,57.63Z"/>
          <path class="cls-27" d="M60.51,57.92a3.79,3.79,0,0,0,.41-1.73c0-.12.05-.17.16-.19a10.53,10.53,0,0,0,4-1.67c.15-.1.22,0,.32.06a1,1,0,0,1,.19,1.23,3.58,3.58,0,0,1-1.48,1.44A8.67,8.67,0,0,1,60.51,57.92Z"/>
          <path class="cls-27" d="M57.1,62.08c.1-.22.19-.4.27-.59.29-.7.6-.95,1.29-.71a4.33,4.33,0,0,0,2.25-.06c.4-.07.82-.1,1.21-.2s.41.11.43.33a1.43,1.43,0,0,1-.45,1.34,3.25,3.25,0,0,1-3.16.57C58.33,62.55,57.73,62.31,57.1,62.08Z"/>
          <path class="cls-27" d="M41.58,65a2.61,2.61,0,0,1-1.49-.36,2,2,0,0,1-.76-1.17.28.28,0,0,1,.31-.37,4.19,4.19,0,0,0,2-.49c.16-.07.33-.14.5-.19a1.45,1.45,0,0,1,1.76.69c.09.15,0,.25,0,.37A2.44,2.44,0,0,1,41.58,65Z"/>
          <path class="cls-27" d="M61.8,55.41a4.45,4.45,0,0,0,.87-2.2c0-.2.16-.23.31-.27l1.76-.55a3.72,3.72,0,0,0,1.58-.92.28.28,0,0,1,.36-.07.28.28,0,0,1,.18.36A2.9,2.9,0,0,1,66.33,53,9.5,9.5,0,0,1,61.8,55.41Z"/>
          <path class="cls-27" d="M60.09,63.51c-.79,2.08-2.86,1.76-4,.88a2.2,2.2,0,0,1-.55-.92c-.09-.21-.06-.46.3-.48a.83.83,0,0,0,.59-.34.54.54,0,0,1,.71-.14C58.1,62.87,59.08,63.23,60.09,63.51Z"/>
          <path class="cls-28" d="M32.84,51.1a19.89,19.89,0,0,0,3.48,1.61c.49.15.82.31.81.94a1.89,1.89,0,0,0,.73,1.52,4.52,4.52,0,0,1-1.74-.47A9,9,0,0,1,33,52.14.91.91,0,0,1,32.84,51.1Z"/>
          <path class="cls-29" d="M54.28,74.65a3,3,0,0,1-.08.79,1.5,1.5,0,0,1-1.66,1.19c-.12,0-.27,0-.24-.18a7.62,7.62,0,0,0-.44-2.9c-.09-.35,0-.33.29-.26a.93.93,0,0,1,.63.87c.06.36.11.73.17,1.09,0,.09,0,.21.14.22s.17-.08.23-.15a1.13,1.13,0,0,0,.19-.7,2.73,2.73,0,0,1,.06-.81.39.39,0,0,1,.35-.3c.19,0,.17.19.21.3A2,2,0,0,1,54.28,74.65Z"/>
          <path class="cls-29" d="M46.11,75.32c.23-.79.19-1.68,1.09-2.16.05,1.21-.66,2.26-.47,3.44A3.49,3.49,0,0,1,45.23,76a1,1,0,0,1-.4-1.13,9.77,9.77,0,0,1,.39-1.21c.09-.25.33-.05.5-.14C45.54,74.16,45.43,74.8,46.11,75.32Z"/>
          <path class="cls-30" d="M54.39,73.47c.84.22.68,1,1,1.42.81-.5.39-1.19.26-1.84.4-.13.59,0,.69.39a3,3,0,0,1,.07,1.41,1.14,1.14,0,0,1-1.57.87c-.13,0-.11-.14-.12-.23,0-.29,0-.57,0-.86A2.13,2.13,0,0,0,54.39,73.47Z"/>
          <path class="cls-31" d="M59.12,73.61a1.22,1.22,0,0,1-.74,1.17,4.25,4.25,0,0,1-.46.17c-.73.25-1,.1-1.08-.65a2.93,2.93,0,0,0-.19-1.08c-.07-.13,0-.19.15-.21a.57.57,0,0,1,.74.51,2.64,2.64,0,0,0,.15.59c.07.14.18.29.33.26a.37.37,0,0,0,.27-.37,2.34,2.34,0,0,0,0-.49c0-.35.16-.48.44-.5s.35.24.38.48A1,1,0,0,1,59.12,73.61Z"/>
          <path class="cls-32" d="M49.58,72.53c-.49,0-1,0-1.48,0s-.38-.34-.41-.6.24-.2.38-.2c1.05,0,2.11-.09,3.16,0,.21,0,.38,0,.33.31s0,.49-.38.47S50.11,72.53,49.58,72.53Z"/>
          <path class="cls-30" d="M42.08,74.88c-.42-.11-.82-.19-1.2-.31A1,1,0,0,1,40,73.32a.54.54,0,0,1,.43-.44c.29-.07.47.12.4.41a1.16,1.16,0,0,0-.06.28c0,.19,0,.42.25.47s.27-.15.35-.28.22-.4.34-.61a.53.53,0,0,1,.42-.29c.27,0,.45,0,.35.38C42.35,73.78,42.22,74.34,42.08,74.88Z"/>
          <path class="cls-29" d="M58.05,68.16a6.56,6.56,0,0,1-1.6-2.86l1.61.24a.29.29,0,0,1,.28.36c-.05.5-.09,1-.14,1.51a2.65,2.65,0,0,0,0,.6C58.16,68.08,58.18,68.18,58.05,68.16Z"/>
          <path class="cls-32" d="M43.48,72.92c0,.54,0,1,0,1.49,0,.14,0,.28.19.32a.29.29,0,0,0,.35-.21c.08-.24.14-.5.21-.75s.09-.32.29-.36.25,0,.17.18a6.66,6.66,0,0,0-.28,1.82c0,.29-.15.33-.39.31a1.41,1.41,0,0,1-1.27-1.51C42.78,73.71,42.81,73.19,43.48,72.92Z"/>
          <path class="cls-33" d="M42.89,65.14a6.39,6.39,0,0,1-1.65,2.62c0-.73,0-1.46,0-2.19,0-.21.14-.19.28-.19A3.12,3.12,0,0,0,42.89,65.14Z"/>
          <path class="cls-30" d="M57.49,72.53h-1.6c-.21,0-.25-.05-.19-.26s.2-.51.63-.44c.68.1,1.39-.07,2.08,0a2.15,2.15,0,0,1,.74.21c.09,0,.22.07.15.27s-.1.21-.27.21Z"/>
          <path class="cls-34" d="M41.73,72.32c-.47,0-.93,0-1.39,0-.31,0-.36-.16-.43-.37s0-.16.13-.18c1.09-.15,2.18,0,3.28-.05.26,0,.17.27.22.42s-.11.18-.23.18Z"/>
          <path class="cls-35" d="M47.69,70.6a1.08,1.08,0,0,0,1.36.22,1.24,1.24,0,0,1,1.45.1c.19.17.37,0,.52-.17s.28-.29.5-.17,0,.31,0,.47-.18.28-.39.28H48.34C47.7,71.33,47.7,71.33,47.69,70.6Z"/>
          <path class="cls-36" d="M44.68,61.4l-.2.48c-.32.75-.32.75-1.09.43a1.71,1.71,0,0,1-.88-.71c-.13-.22-.17-.37.19-.36a4.15,4.15,0,0,1,1,.16A1.2,1.2,0,0,0,44.68,61.4Z"/>
          <path class="cls-32" d="M54.75,61.49A10.33,10.33,0,0,0,57,61.37a2.67,2.67,0,0,1-1.43,1.31c-.26.1-.36-.13-.45-.31A6.92,6.92,0,0,0,54.75,61.49Z"/>
          <path class="cls-32" d="M54.09,54.19l.09-.08c.15.19.32.37.46.57a1.54,1.54,0,0,1,.2.4c.11.33,0,.82-.29.84s-.53-.23-.69-.47a.46.46,0,0,1,.13-.7C54.2,54.6,54.08,54.38,54.09,54.19Z"/>
          <path class="cls-32" d="M53.2,59.12,52.87,59c-.29-.1-.35-.29-.16-.53a5.27,5.27,0,0,0,.47-.61.29.29,0,0,1,.42-.09,1.1,1.1,0,0,1,.34.74C54,58.75,53.5,59.12,53.2,59.12Z"/>
          <path class="cls-32" d="M48.92,59.49l.43-.35c.48-.41.64-.32,1.18.06a.21.21,0,0,1,.09.28.81.81,0,0,1-.53.47,1,1,0,0,1-.7-.17Z"/>
          <path class="cls-37" d="M57.44,71.5a1.5,1.5,0,0,1,1.71-.68c.27.09.11.32.14.49s-.1.19-.23.19Z"/>
          <path class="cls-38" d="M54.72,71.7c-.09,0-.24.1-.26-.07s.17-.11.26-.15.37,0,.34-.26-.22-.14-.37-.15c-.35,0-.17-.34-.23-.51a.22.22,0,0,1,.25-.32c.13,0,.23,0,.24-.12a.21.21,0,0,0-.22-.24c-.18,0-.26-.07-.23-.24s-.1-.37.09-.44a.73.73,0,0,1,.52,0,.11.11,0,0,1,0,.1c0,.08-.11.08-.17,0s-.23-.09-.31.06.11.18.18.23c.38.27.41.45.12.88-.06.09,0,.12,0,.17a1.19,1.19,0,0,1,.16.5C55.22,71.55,55.14,71.77,54.72,71.7Z"/>
          <path class="cls-39" d="M41.81,71.25a4.84,4.84,0,0,1-1.49.11c-.18,0-.39-.07-.43-.26s.18-.29.33-.36A1.21,1.21,0,0,1,41.81,71.25Z"/>
          <path class="cls-40" d="M48.09,59.45a1.09,1.09,0,0,1,.94.76c0,.2-.2.38-.48.33a1.93,1.93,0,0,1-.78-.42c-.15-.11-.1-.3,0-.45A.32.32,0,0,1,48.09,59.45Z"/>
          <path class="cls-41" d="M51.1,60.83c-.24-.17-.49-.15-.69-.28s-.16-.33,0-.48a2,2,0,0,1,.47-.33c.13-.07.23-.33.43-.09s.35.37.18.65S51.23,60.66,51.1,60.83Z"/>
          <path class="cls-42" d="M49.68,60.58c.21.09.58-.17.62.24s-.34.46-.58.6-.78-.29-.79-.55.12-.21.23-.24A3.63,3.63,0,0,1,49.68,60.58Z"/>
          <path class="cls-43" d="M51.16,59c-.31,0-.81-.27-.76-.4a.72.72,0,0,1,.66-.47.55.55,0,0,1,.58.55C51.62,59,51.32,58.92,51.16,59Z"/>
          <path class="cls-44" d="M52.14,59.79c-.21-.06-.53,0-.57-.29s.37-.56.67-.52.56.1.55.43S52.43,59.77,52.14,59.79Z"/>
          <path class="cls-45" d="M53.86,57.14l.08-.05a.44.44,0,0,1,.27-.26c.19,0,.4-.07.46.2a.92.92,0,0,1-.24.86c-.07.08-.15.13-.23,0S53.63,57.55,53.86,57.14Z"/>
          <path class="cls-34" d="M53,69.78l-.52.19c-.09,0-.21,0-.19.16s.1.14.2.18.6,0,.5.36-.41.06-.62.11-.19,0-.19-.18c0-.3,0-.6,0-.9s.19-.54.68-.46c-.16.15-.52,0-.47.28S52.7,69.67,53,69.78Z"/>
          <path class="cls-46" d="M44.23,71.11a2.68,2.68,0,0,0-.13-1c-.08-.39.09-.64.4-.66.07,0,.18-.06.22,0s0,.15-.13.19a.27.27,0,0,0-.13.46c.44.62.43.62-.24.93Z"/>
          <path class="cls-38" d="M56.5,71.44a1.64,1.64,0,0,1-.73-.09c-.26,0-.15-.29-.14-.44s-.11-.46.07-.52.38.17.51.34A1.21,1.21,0,0,1,56.5,71.44Z"/>
          <path class="cls-47" d="M53.27,71.77c0-.34,0-.7.51-.77.08,0,.2-.09.23.06s0,.26-.15.28l-.16,0c-.12,0-.22.09-.22.21s.1.16.2.18.47,0,.36.35-.38.11-.57.13-.16-.24-.2-.39A.35.35,0,0,1,53.27,71.77Z"/>
          <path class="cls-38" d="M53.29,69.29c.22-.15.49-.31.65-.17s.08.51.07.78-.33,0-.41.24.26.3.36.57c-.27-.09-.6,0-.68-.33a.47.47,0,0,1,.42-.62c.13,0,.16-.13.16-.25s-.13-.14-.22-.17Z"/>
          <path class="cls-48" d="M52.13,71.75c0-.61-.13-.53.53-.54.1,0,.24-.07.28.08a.3.3,0,0,1-.16.34c-.07,0-.15.06-.22.09s-.28,0-.28.15.13.23.29.24.22,0,.22.1-.14.09-.22.1C52,72.42,52.12,72.06,52.13,71.75Z"/>
          <path class="cls-49" d="M49.74,73.32c0,.69,0,1.37,0,2,0,.08,0,.17-.1.19a.1.1,0,0,1-.11-.1,4.22,4.22,0,0,1,.11-2.1S49.68,73.34,49.74,73.32Z"/>
          <path class="cls-50" d="M42.63,71.33c.44-.29.48-.78.83-1C43.76,71.09,43.58,71.35,42.63,71.33Z"/>
          <path class="cls-51" d="M45.15,70.58c.1-.26.36-.22.53-.38l-.41-.38a.15.15,0,0,1,0-.19c.06-.08.12,0,.17,0s.49-.09.49.33C45.91,70.66,45.93,70.67,45.15,70.58Z"/>
          <path class="cls-52" d="M54.92,53.69a1.73,1.73,0,0,1,0,.25c0,.09.07.24-.11.26s-.28,0-.31-.19a1.37,1.37,0,0,1,.12-.87c.07-.15.16-.07.21,0A.73.73,0,0,1,54.92,53.69Z"/>
          <path class="cls-53" d="M45.89,71.8c0,.19.11.43-.16.53s-.34-.1-.48-.23-.11-.29.09-.36.31-.08.47-.12S45.91,71.72,45.89,71.8Z"/>
          <path class="cls-54" d="M55.59,53.36l.11,0c.08.3.27.47.75.68-.15.25-.37.21-.6.16s-.29-.22-.31-.42A.71.71,0,0,1,55.59,53.36Z"/>
          <path class="cls-46" d="M46.67,70.78c-.13-.05-.43.11-.4-.16s.43-.3.7-.36.12.14.13.21C47.19,70.87,46.89,70.77,46.67,70.78Z"/>
          <path class="cls-55" d="M46.51,69.16c.69,0,.61-.1.59.88a1.69,1.69,0,0,0-.3-.15,1.45,1.45,0,0,0-.32,0C46.52,69.62,47.06,69.44,46.51,69.16Z"/>
          <path class="cls-56" d="M54.43,59.78c-.63-.16-.69-.3-.37-.72.05-.07.08-.2.21-.14a.26.26,0,0,1,.16.22C54.43,59.34,54.43,59.55,54.43,59.78Z"/>
          <path class="cls-57" d="M46.94,71.78l-.4-.2c-.14-.07-.26-.16-.25-.34s.09-.13.17-.11.43-.12.54.14a1.1,1.1,0,0,1,0,.32C47.07,71.69,47.11,71.79,46.94,71.78Z"/>
          <path class="cls-55" d="M45.89,71.8l-.08-.18c0-.18-.1-.15-.19-.19a.66.66,0,0,1-.47-.5C46,71,46,71.05,45.89,71.8Z"/>
          <path class="cls-58" d="M55.08,55.6a2.89,2.89,0,0,1,.08,1c0,.13-.1.1-.18.07s-.24-.11-.17-.29S55,55.94,55.08,55.6Z"/>
          <path class="cls-59" d="M46.56,68.23l-.18-.49c-.19,0-.22.2-.42.22l.32-.8a1.81,1.81,0,0,1,.35,1C46.67,68.24,46.63,68.25,46.56,68.23Z"/>
          <path class="cls-56" d="M45.29,54.9a3.26,3.26,0,0,0,.08.77c.06.14-.09.25-.19.27s-.12-.12-.14-.21A.9.9,0,0,1,45.29,54.9Z"/>
          <path class="cls-60" d="M47.69,44c-.19,0-.41.12-.56-.11.2.06.4.13.55-.1,0,0,.08-.06.09,0a.91.91,0,0,0,.79,0c.11,0,.14.05.12.15l-.11.1A.93.93,0,0,1,47.69,44Z"/>
          <path class="cls-61" d="M46.94,71.78c.08,0,.07-.12.1-.18a.75.75,0,0,1,0,.15c0,.45-.28.68-.71.49a.12.12,0,0,1-.09-.12c0-.09.08-.1.15-.1s.3,0,.45,0S47,71.88,46.94,71.78Z"/>
          <path class="cls-62" d="M46,59.75c.08-.22,0-.53.26-.59s.25.19.25.33C46.51,59.83,46.16,59.62,46,59.75Z"/>
          <path class="cls-63" d="M53.59,60.34l-.35-.18c-.07,0-.22-.05-.19-.17a.25.25,0,0,1,.46-.09A.56.56,0,0,1,53.59,60.34Z"/>
          <path class="cls-64" d="M44.23,71.11c0,.24.21.29.39.34s.13,0,.13.12-.08.09-.15.1c-.41.08-.49,0-.36-.56Z"/>
          <path class="cls-65" d="M53.29,72.69H54C53.8,73,53.52,73,53.29,72.69Z"/>
          <path class="cls-37" d="M45.13,72.61h.74C45.68,73,45.45,73,45.13,72.61Z"/>
          <path class="cls-59" d="M55.16,72.13a.28.28,0,0,1-.31.22c-.15,0-.35,0-.35-.2s.2-.07.32-.07A2.34,2.34,0,0,1,55.16,72.13Z"/>
          <path class="cls-66" d="M50,62.55c-.05.16-.18.14-.3.15s-.2,0-.19-.18.15-.11.24-.11S50,62.4,50,62.55Z"/>
          <path class="cls-67" d="M54.8,51.89l.38.76A.54.54,0,0,1,54.8,51.89Z"/>
          <path class="cls-68" d="M53.12,74.57a2.3,2.3,0,0,1-.17-1c.16.17.17.17.17.48S53.11,74.38,53.12,74.57Z"/>
          <path class="cls-27" d="M44.45,72c.09,0,.25-.06.27.09s-.15.11-.24.11-.29.07-.29-.1S44.36,72.07,44.45,72Z"/>
          <path class="cls-69" d="M44.76,69.31h-.25c-.12,0-.24.06-.34,0s0-.12,0-.14a.53.53,0,0,1,.39-.06C44.68,69.1,44.75,69.16,44.76,69.31Z"/>
          <path class="cls-70" d="M45.91,69.21a1.84,1.84,0,0,1-.35.11c-.08,0-.16.15-.24,0a.22.22,0,0,1,0-.16c0-.13.15-.08.24-.09A.44.44,0,0,1,45.91,69.21Z"/>
          <path class="cls-50" d="M53.29,67.85l.33.68C53.29,68.48,53.28,68.46,53.29,67.85Z"/>
          <path class="cls-71" d="M52.86,67.74a.45.45,0,0,1,.12-.37c.18.17.29.33,0,.46C52.87,67.85,52.82,67.83,52.86,67.74Z"/>
          <path class="cls-52" d="M45.47,52.59c.12-.11,0-.4.31-.36.07,0,.1.09.06.16S45.69,52.69,45.47,52.59Z"/>
          <path class="cls-72" d="M46.14,74.1a.65.65,0,0,1-.15.43.7.7,0,0,1,.07-.61C46.22,73.93,46.15,74,46.14,74.1Z"/>
          <path class="cls-73" d="M44.28,72.76c.14-.15.27-.21.42-.14a.11.11,0,0,1,0,.1A.32.32,0,0,1,44.28,72.76Z"/>
          <path class="cls-60" d="M45.7,58.42v-.27a.46.46,0,0,1,.07.64C45.58,58.7,45.71,58.54,45.7,58.42Z"/>
          <path class="cls-74" d="M44.92,56.47c-.16-.12-.1-.27-.1-.45C45,56.18,45,56.33,44.92,56.47Z"/>
          <path class="cls-75" d="M58.05,68.16c.17-.22,0-.52.15-.75,0,.24,0,.48,0,.72S58.12,68.25,58.05,68.16Z"/>
          <path class="cls-76" d="M32.8,42.84a.79.79,0,0,1,.36.34.78.78,0,0,1-.45-.26Z"/>
          <path class="cls-77" d="M52.86,67.74l.09.1-.15.45A.82.82,0,0,1,52.86,67.74Z"/>
          <path class="cls-78" d="M45.7,58.42c0,.12,0,.26.08.36L45.7,59A.76.76,0,0,1,45.7,58.42Z"/>
          <path class="cls-79" d="M52.78,72.76s-.07.13-.12.15-.14-.08-.16-.14.07-.08.12-.08S52.75,72.65,52.78,72.76Z"/>
          <path class="cls-69" d="M45.29,57.81a1.21,1.21,0,0,1,0,.59c-.1-.14-.06-.29-.07-.43S45.13,57.8,45.29,57.81Z"/>
          <path class="cls-80" d="M46.13,73.68a.39.39,0,0,1,.11-.36c.1.14,0,.25,0,.36S46.16,73.71,46.13,73.68Z"/>
          <path class="cls-81" d="M45.29,57.81l-.08.16a.43.43,0,0,1,0-.39C45.3,57.62,45.31,57.71,45.29,57.81Z"/>
          <path class="cls-82" d="M45.15,54.16c0-.09,0-.14.07-.15s.11,0,.09.09,0,.15-.08.14S45.17,54.18,45.15,54.16Z"/>
          <path class="cls-83" d="M68.56,38.31c.08-.11.15-.23.32-.23,0,.13-.11.18-.18.24Z"/>
          <path class="cls-84" d="M54.7,58.35a.63.63,0,0,1,0,.52A.76.76,0,0,1,54.7,58.35Z"/>
          <path class="cls-85" d="M46.13,73.68h.07a.55.55,0,0,1-.06.42l-.08-.18Z"/>
          <path class="cls-86" d="M54.88,72.75c-.16,0-.27.08-.41-.07A.56.56,0,0,1,54.88,72.75Z"/>
          <path class="cls-87" d="M46.56,68.23l.07-.08c.09.1.08.22,0,.41Z"/>
          <path class="cls-88" d="M44.66,65s0-.12.08-.13.08.06.07.11a2.69,2.69,0,0,1-.08.26C44.69,65.22,44.76,65.11,44.66,65Z"/>
          <path class="cls-89" d="M54.2,56.83l-.27.26c0-.13.06-.2.14-.28Z"/>
          <path class="cls-20" d="M9.76,56.24l2.83.17c.26,0,.36.11.35.37,0,1-.57,1.86-1.8,1.53a4.48,4.48,0,0,0-1.53-.25A.15.15,0,0,1,9.45,58,2.55,2.55,0,0,1,9,56.64C9.09,56.1,9.48,56.23,9.76,56.24Z"/>
          <path class="cls-20" d="M17.82,56.77a1.35,1.35,0,0,0-.11.87.52.52,0,0,1-.48.64,5.73,5.73,0,0,1-2.12,0c-.35-.07-.58-.22-.55-.62a2.44,2.44,0,0,0,0-.49c-.1-.76-.1-.75.64-.67Z"/>
          <path class="cls-20" d="M80.19,76a.75.75,0,0,1,.45.1,4.55,4.55,0,0,0,1.07.4c.57.18.71.42.62,1-.12.77-.12.78-.88.66A14.37,14.37,0,0,1,79,77.48c-.32-.11-.33-.24-.18-.49C79.09,76.47,79.4,75.95,80.19,76Z"/>
          <path class="cls-20" d="M28.52,91.63a.57.57,0,0,1-.26.56c-1.24,1.1-2.32,2.36-3.46,3.55a17.61,17.61,0,0,1-1.94,1.76.78.78,0,0,1-1-.14c-.3-.29-.31-.5-.06-.85a30.58,30.58,0,0,1,3.71-4c.52-.5,1.05-1,1.55-1.52a.76.76,0,0,1,.9-.27A.86.86,0,0,1,28.52,91.63Z"/>
          <path class="cls-20" d="M15.15,65.48H9.7A.79.79,0,0,1,9,64.34c.08-.17.24-.17.37-.21a13.39,13.39,0,0,1,3.49-.41c1,0,2.05,0,3.07-.1a10.62,10.62,0,0,1,1.38-.1.73.73,0,0,1,.81.78c.06.58-.11.86-.62,1a8.57,8.57,0,0,1-1.92.09h-.41Z"/>
          <path class="cls-20" d="M55.73,108.32c0,.63-.11.74-.66.73-.18,0-.35,0-.53,0a.33.33,0,0,1-.33-.33c-.22-1.75-.72-3.44-1.07-5.17A21,21,0,0,1,52.8,101c0-.49.17-.7.66-.7a1.82,1.82,0,0,1,.75.18.33.33,0,0,1,.23.3,41.42,41.42,0,0,0,1,5.3A17.08,17.08,0,0,1,55.73,108.32Z"/>
          <path class="cls-20" d="M68.17,27.65a1.12,1.12,0,0,1-1-.57c-.12-.16,0-.26.06-.36a18.74,18.74,0,0,1,2.42-3.4c.75-.85,1.52-1.68,2.29-2.52l.26-.26c.45-.4.68-.41,1.05,0a.91.91,0,0,1,.08,1.25l-2.55,3.11-2.09,2.53C68.54,27.57,68.39,27.7,68.17,27.65Z"/>
          <path class="cls-90" d="M67.46,95.47c1,1.3,2.5,2.13,3.68,3.31-.3.24-.58.48-.89.7s-.4.14-.56-.13C68.94,98.06,68.27,96.73,67.46,95.47Z"/>
          <path class="cls-90" d="M23.44,25.91c1.29.82,2.46,1.81,3.78,2.58.12.07.15.14.05.25l-.08.09c-.25.25-.41.72-.71.73s-.46-.44-.68-.7C25,27.92,24.16,27,23.34,26,23.32,25.92,23.34,25.88,23.44,25.91Z"/>
          <path class="cls-91" d="M23.44,25.91l-.09.1a.46.46,0,0,1-.21-.24C23.28,25.72,23.35,25.83,23.44,25.91Z"/>
          <path class="cls-90" d="M82.39,59.12c1.3-.32,2.65-.34,4-.65l.12,0c.22,0,.41-.24.65-.12a2.71,2.71,0,0,1,.23,1.19c-.06.17-.21.1-.32.1a20.78,20.78,0,0,1-2.49-.21A12,12,0,0,0,83,59.27a1.3,1.3,0,0,0-.44,0C82.47,59.23,82.37,59.25,82.39,59.12Z"/>
          <path class="cls-92" d="M82.39,59.12c.16.2.42,0,.59.15h-.64c-.05,0-.16,0-.12-.09S82.32,59.11,82.39,59.12Z"/>
          <path class="cls-21" d="M41.14,78.16a65.57,65.57,0,0,0,7,.55q3.12.09,6.24-.11a37.79,37.79,0,0,0,4-.4l.61-.06c.63-.1.63-.1.64-.76a3.5,3.5,0,0,0-.18-1.29.46.46,0,0,1,.12-.51,3.24,3.24,0,0,1,2-.92,36.25,36.25,0,0,0,8.1-2.4l.84-.43c.09,0,.17-.17.28-.06a.26.26,0,0,1,0,.37l-.78,1a6.84,6.84,0,0,0-1.49,2.61,2.76,2.76,0,0,0-.09,1.17.36.36,0,0,1-.13.4A8.29,8.29,0,0,0,66.33,80a12.42,12.42,0,0,1-1.47,2.32,1.3,1.3,0,0,1-.8.43c-1.88.35-3.78.59-5.68.84l-3.92.36-3.39.29c-.23,0-.33,0-.36.33a1.53,1.53,0,0,0,.13,1.17.25.25,0,0,1,0,.31,1.37,1.37,0,0,0-.19,1,7.41,7.41,0,0,1,0,1.84,1,1,0,0,1-.56.76c-.64.29-1.23-.16-1.26-1a4.44,4.44,0,0,1,.3-1.52,5.56,5.56,0,0,0,.36-1.46c0-1.09-.39-1.56-1.47-1.63-1.34-.09-2.68,0-4-.12-.94-.1-1.88-.14-2.82-.2-1.43-.19-2.87-.41-4.3-.57A2.15,2.15,0,0,1,35.11,82a10,10,0,0,0-2.46-2.88,4.35,4.35,0,0,1-1-1.16,2,2,0,0,1-.3-1.17c0-.41.13-.76.61-.83.32,0,.33-.22.21-.47a1.15,1.15,0,0,0-.37-.48c-.26-.18-.53-.34-.78-.52s-.52-.13-.44-.37.39,0,.6,0c1.65.15,3.26.54,4.9.74.8.1,1.6.21,2.38.38a3.87,3.87,0,0,1,.93.31,1.2,1.2,0,0,1,.76,1c0,.35.17.69.2,1s.18.55.56.51A1.06,1.06,0,0,1,41.14,78.16Z"/>
          <path class="cls-93" d="M48.2,56c-.22.22-.35.6-.68.5a.78.78,0,0,1-.37-1C47.4,55.85,47.51,56.53,48.2,56Z"/>
          <path class="cls-94" d="M47,56.92c-.13.17-.12.48-.38.44-.42-.08-.3-.5-.45-.82C46.44,56.65,46.61,56.94,47,56.92Z"/>
          <path class="cls-95" d="M47.12,54.69c-.06.22-.19.37-.37.38s-.2-.22-.27-.36-.11-.27-.18-.44C46.65,54.31,46.75,54.76,47.12,54.69Z"/>
          <path class="cls-96" d="M51.59,48.57a.26.26,0,0,1,0,.31c-.06.09,0,.3-.19.25a.56.56,0,0,1-.39-.39c0-.1.11-.13.17-.08S51.48,48.67,51.59,48.57Z"/>
          <path class="cls-97" d="M51.08,55.62c.29-.12.41-.4.67-.54C51.68,55.63,51.54,55.75,51.08,55.62Z"/>
          <path class="cls-98" d="M47.21,51.89c.11.29,0,.66.48.56-.15.18-.3.36-.45.19A.62.62,0,0,1,47.21,51.89Z"/>
          <path class="cls-99" d="M50.52,56.53c-.39.5-.66.5-.88,0A1.32,1.32,0,0,0,50.52,56.53Z"/>
          <path class="cls-100" d="M47.71,53.56c.22.19.07.59.55.44-.19.24-.37.23-.46.16S47.68,53.81,47.71,53.56Z"/>
          <path class="cls-101" d="M49.25,55.5c-.42.18-.51.14-.62-.29a1.46,1.46,0,0,0,.62.21s0,0,0,.06Z"/>
          <path class="cls-102" d="M52.87,48.62c0,.2.07.41-.13.52s-.3-.37-.26-.35C52.7,48.93,52.72,48.64,52.87,48.62Z"/>
          <path class="cls-93" d="M47.76,48.86c.17.22.39.28.37.49s-.2.1-.27.06S47.78,49.12,47.76,48.86Z"/>
          <path class="cls-103" d="M52.07,54c.24,0,.39-.16.56,0s0,.16-.08.21S52.24,54.22,52.07,54Z"/>
          <path class="cls-103" d="M48.52,44.07c-.19.29-.42.19-.66.07C48.06,43.92,48.3,44.05,48.52,44.07Z"/>
          <path class="cls-104" d="M49,48.6c-.09.19-.16.31-.32.3s-.1-.11-.08-.16C48.64,48.5,48.82,48.64,49,48.6Z"/>
          <path class="cls-105" d="M53.28,52.52c0,.29,0,.56-.42.3C53,52.77,53.12,52.64,53.28,52.52Z"/>
          <path class="cls-106" d="M48.52,44.07c-.22,0-.45-.06-.66.07a.23.23,0,0,1-.18-.15h.88S48.57,44.07,48.52,44.07Z"/>
          <path class="cls-107" d="M49.15,50.09a.47.47,0,0,1,.39-.46A.88.88,0,0,1,49.15,50.09Z"/>
          <path class="cls-108" d="M48.06,44.65l.62-.11C48.44,44.75,48.44,44.75,48.06,44.65Z"/>
          <path class="cls-109" d="M50.66,54.19c-.1.29-.23.37-.51.3Z"/>
          <path class="cls-110" d="M51.27,51.17a1.05,1.05,0,0,1,.39-.38C51.58,51,51.6,51.2,51.27,51.17Z"/>
          <path class="cls-111" d="M48,50.27c.17-.09.26,0,.34.09a.19.19,0,0,1-.08.11C48.13,50.52,48.11,50.36,48,50.27Z"/>
          <path class="cls-112" d="M49.52,53.05c-.1.11-.18.21-.33.13s0-.09,0-.11S49.37,53,49.52,53.05Z"/>
          <path class="cls-113" d="M50.24,48.77c-.17.23-.24,0-.36-.1h.35A.06.06,0,0,1,50.24,48.77Z"/>
          <path class="cls-114" d="M50.24,48.77v-.1c.08-.06,0-.23.19-.22s.07.06.07.09S50.34,48.7,50.24,48.77Z"/>
          <path class="cls-115" d="M51.91,51.91c.12,0,.25,0,.29.15s0,.06,0,.06S52,52,51.91,51.91Z"/>
          <path class="cls-116" d="M52.81,50.76c0-.1.16-.14.2-.09s0,.1-.1.1S52.84,50.81,52.81,50.76Z"/>
          <path class="cls-117" d="M49.4,55.25c0-.09,0-.17.12-.19a.07.07,0,0,1,.06,0c0,.08,0,.12-.08.17A.06.06,0,0,1,49.4,55.25Z"/>
          <path class="cls-118" d="M49.4,55.25h.1a.48.48,0,0,1-.26.24v-.09Z"/>
          <path class="cls-119" d="M34.12,43.89a.26.26,0,0,1-.29-.12C34,43.68,34,43.79,34.12,43.89Z"/>
          <path class="cls-120" d="M69,38c0-.21.09-.27.2-.3C69.22,37.86,69.11,37.89,69,38Z"/>
          <path class="cls-94" d="M48.53,67.25c-.34-1.16-.42-2.37-.76-3.52A7.13,7.13,0,0,1,48.6,67C48.61,67.09,48.71,67.21,48.53,67.25Z"/>
          <path class="cls-121" d="M48.78,64.13l-.49-1.45c.5.32.43.88.56,1.36C48.89,64.12,48.85,64.13,48.78,64.13Z"/>
          <path class="cls-122" d="M48.53,67.25,48.6,67a1.09,1.09,0,0,1,.08.51c0,.08,0,.1-.08.07Z"/>
          <path class="cls-123" d="M45.64,64.13a.48.48,0,0,1,.11-.43c.07.17,0,.3-.05.43S45.66,64.17,45.64,64.13Z"/>
          <path class="cls-124" d="M45.63,64.46l-.11.39c-.11-.16,0-.27,0-.39S45.6,64.42,45.63,64.46Z"/>
          <path class="cls-125" d="M48.61,67.57l.08-.07a.35.35,0,0,1,.05.34Z"/>
          <path class="cls-126" d="M48.93,64.38c.09.08.1.18,0,.33l-.12-.34S48.9,64.34,48.93,64.38Z"/>
          <path class="cls-127" d="M45.63,64.46h-.08c0-.11,0-.24.08-.33h.06Z"/>
          <path class="cls-128" d="M48.93,64.38h-.08l-.07-.25.07-.09A.46.46,0,0,1,48.93,64.38Z"/>
          <path class="cls-129" d="M45.72,63.6l.12-.3C45.92,63.46,45.86,63.55,45.72,63.6Z"/>
          <path class="cls-130" d="M51.65,63.92c-.09.42-.18.84-.27,1.26-.18.81-.37,1.62-.56,2.43,0,.09,0,.22-.13.21s-.11-.16-.12-.25a4.61,4.61,0,0,1,.22-1.85A8.58,8.58,0,0,1,51.65,63.92Z"/>
          <path class="cls-131" d="M53.75,64.27c-.33-.33-.31-.79-.51-1.29A1.38,1.38,0,0,1,53.75,64.27Z"/>
          <path class="cls-132" d="M50.63,63.77a4.2,4.2,0,0,1,.4-1.33,3.93,3.93,0,0,1-.32,1.45C50.62,63.89,50.61,63.83,50.63,63.77Z"/>
          <path class="cls-133" d="M53.91,65c-.19-.14-.13-.32-.09-.49C53.82,64.64,54,64.77,53.91,65Z"/>
          <path class="cls-134" d="M50.63,64.12l-.08.24c-.13-.13,0-.23,0-.33A.14.14,0,0,1,50.63,64.12Z"/>
          <path class="cls-135" d="M50.63,64.12,50.56,64a.37.37,0,0,1,.07-.27l.08.11Z"/>
          <path class="cls-27" d="M66.9,77.53a5.57,5.57,0,0,0-1.55,2.63,5.84,5.84,0,0,1-.55,1.14,1.94,1.94,0,0,1-1.73,1,12.55,12.55,0,0,0-2.63.36,58.44,58.44,0,0,1-6.27.71c-1.79.11-3.58.15-5.37.12a79.67,79.67,0,0,1-9.58-.68c-.68-.09-1.35-.2-2-.27A1.93,1.93,0,0,1,36,82a12.9,12.9,0,0,1-1.59-2A5.24,5.24,0,0,0,33,78.4a1.49,1.49,0,0,1-.64-.73c0-.09-.09-.2-.06-.27s.2,0,.29,0l3,.6A68.41,68.41,0,0,0,45,79.15c1.79.1,3.57.17,5.36.19,1.33,0,2.65-.17,4-.16a21,21,0,0,0,2.22-.08c1.61-.16,3.21-.35,4.81-.52a30.7,30.7,0,0,0,5.26-1A1.6,1.6,0,0,1,66.9,77.53Z"/>
          <path class="cls-29" d="M67.68,76.09a3.32,3.32,0,0,1-1.55.82,50.53,50.53,0,0,1-5.27,1c-.22,0-.33,0-.3-.24s-.25-.5.15-.6a23.83,23.83,0,0,1,6.42-1Z"/>
          <path class="cls-29" d="M60.38,76a1.16,1.16,0,0,1,.87-.52,48.84,48.84,0,0,0,7.18-1.87l.24-.06c.08,0,.17,0,.22,0s0,.15-.06.22L68,75a.3.3,0,0,1-.3.16,20,20,0,0,0-5.38.7A9,9,0,0,1,60.38,76Z"/>
          <path class="cls-31" d="M32.75,75.21a23.08,23.08,0,0,1,6.56,1.21.82.82,0,0,1-.68.21,11.78,11.78,0,0,1-2-.24c-1-.13-1.95-.26-2.93-.36A1,1,0,0,1,32.75,75.21Z"/>
          <path class="cls-42" d="M33.15,76.7a23.48,23.48,0,0,1,4.74.61,2.36,2.36,0,0,0,.81.09c.38,0,.56.18.75.52a8.15,8.15,0,0,1-2-.14,29.14,29.14,0,0,1-4.19-.9l-.22-.1C33.05,76.7,33.07,76.66,33.15,76.7Z"/>
          <path class="cls-42" d="M49.79,89c-.31,0-.61-.32-.53-.59.19-.64.24-1.31.42-2,0-.11,0-.28.18-.29s.16.17.19.28c.08.32.25.64,0,1-.09.11,0,.26,0,.39a5.71,5.71,0,0,1,.21.57C50.4,88.88,50.28,89,49.79,89Z"/>
          <path class="cls-136" d="M50.12,85.15a4.47,4.47,0,0,1-.42-.56.36.36,0,0,1,.06-.48.51.51,0,0,1,.64.06c.2.14.07.28,0,.42Z"/>
          <path class="cls-137" d="M49.9,85.54a1.62,1.62,0,0,1,.64.25C50.22,85.9,50.09,85.78,49.9,85.54Z"/>
          <path class="cls-138" d="M33.15,76.7l-.1.07-.37-.11A.52.52,0,0,1,33.15,76.7Z"/>
          <path class="cls-139" d="M39.49,82l-1.11-.11c-.14,0-.23,0-.2-.23.08-.64.14-1.27.2-1.91,0-.14,0-.24.21-.21.42.06.85.07,1.25.17a.56.56,0,0,1,.32.92c-.06.09-.13.12,0,.26A.68.68,0,0,1,39.49,82Z"/>
          <path class="cls-139" d="M58,82.11c-.59.06-.61.06-.66-.49s-.41-.28-.66-.31-.23.19-.26.37.24.55-.23.6c-.16,0-.25,0-.27-.2,0-.63-.1-1.25-.16-1.88,0-.21,0-.29.26-.29s.65-.06,1-.08a.7.7,0,0,1,.74.33.62.62,0,0,1-.07.76s-.11.08-.06.12C58,81.31,57.76,81.77,58,82.11Z"/>
          <path class="cls-139" d="M48.32,82.61c-.61,0-.63,0-.62-.54s-.32-.37-.59-.42-.31.17-.33.39.15.6-.35.52c-.14,0-.18-.08-.18-.21,0-.64.06-1.28.07-1.92,0-.21.09-.26.27-.24l1.06.06a.65.65,0,0,1,.62.39.64.64,0,0,1-.11.72s-.17.08-.11.14C48.38,81.82,48.11,82.25,48.32,82.61Z"/>
          <path class="cls-139" d="M62.67,80.55a1,1,0,0,1-.85,1.07c-1,.22-1,.22-1.19-.79-.06-.35-.12-.7-.18-1s0-.37.26-.37a1.68,1.68,0,0,0,.56-.09C62.07,79,62.72,79.64,62.67,80.55Z"/>
          <path class="cls-140" d="M48.78,81.19c0-.19-.18-.66,0-.86s.7-.07,1.07-.08c.16,0,.33,0,.49,0s.2.07.2.22-.05.22-.21.21h-.78c-.18,0-.31,0-.31.27s.16.2.3.2h.66c.16,0,.25,0,.25.21s-.09.22-.25.21h-.57c-.25,0-.36.05-.36.34s.19.27.38.26l.74,0c.17,0,.25,0,.24.23s0,.22-.21.22c-.48,0-1,0-1.43,0-.2,0-.23-.11-.24-.25C48.78,82,48.78,81.69,48.78,81.19Z"/>
          <path class="cls-139" d="M59.57,79.58c.2,0,.41-.13.44.17,0,.14,0,.23-.18.24s-.57.06-.86.08-.27,0-.23.23.07.29.3.24.46,0,.69-.08.24.06.27.21-.1.21-.24.22a5.89,5.89,0,0,1-.61.07c-.26,0-.31.09-.3.34s.16.27.35.24l.82-.09c.18,0,.24,0,.25.21s-.06.2-.21.22l-1.35.15c-.18,0-.32,0-.34-.22,0-.6-.11-1.2-.19-1.8,0-.24.05-.32.27-.34Z"/>
          <path class="cls-140" d="M42,80.34l-.45,0c-.21,0-.2.11-.23.25s.06.2.2.21.46.05.69.06.29,0,.27.24-.17.2-.32.19a3.45,3.45,0,0,1-.53,0c-.25-.05-.36,0-.4.28s.15.29.34.31l.78.05c.17,0,.24.08.21.26s-.09.2-.24.19l-1.39-.12c-.16,0-.27,0-.25-.26.07-.6.11-1.2.14-1.8,0-.23.09-.31.32-.28.43,0,.87.07,1.31.1.15,0,.24,0,.21.22s-.05.24-.23.22l-.45,0Z"/>
          <path class="cls-139" d="M53.26,82.44c.22-.73.45-1.43.63-2.14.07-.28.26-.22.43-.25s.29,0,.37.23c.25.59.53,1.17.78,1.76,0,.08.18.22,0,.26s-.43.19-.5,0c-.17-.55-.57-.31-.9-.31a.18.18,0,0,0-.19.17C53.86,82.5,53.6,82.5,53.26,82.44Z"/>
          <path class="cls-140" d="M44,81.82c0-.57.08-1,.09-1.52,0-.18.06-.24.24-.23.34,0,.68,0,1,.07a.68.68,0,0,1,.63.73.76.76,0,0,1-.67.76.62.62,0,0,1-.25,0c-.46-.13-.58.09-.54.5,0,.17,0,.33-.25.29s-.32-.08-.26-.32A.9.9,0,0,0,44,81.82Z"/>
          <path class="cls-139" d="M51.06,81.33a1.83,1.83,0,0,1,0-.33c0-.25-.19-.57.07-.75a2.2,2.2,0,0,1,1.61.13.74.74,0,0,1,.19.76.65.65,0,0,1-.56.52.67.67,0,0,1-.16,0c-.48-.06-.66.14-.56.61,0,.18,0,.28-.22.28s-.3,0-.3-.26S51.08,81.66,51.06,81.33Z"/>
          <path class="cls-45" d="M39,81c.36.07.72,0,.71.38a.28.28,0,0,1-.42.25c-.19-.08-.61.21-.57-.32C38.75,81,38.85,80.89,39,81Z"/>
          <path class="cls-55" d="M39.25,80.58c-.13-.08-.44.13-.43-.27s.18-.26.36-.23.57-.05.58.28S39.48,80.58,39.25,80.58Z"/>
          <path class="cls-46" d="M56.67,80.9c-.29.07-.35-.05-.36-.32,0-.49.38-.22.57-.3a.28.28,0,0,1,.41.27C57.27,81,56.91,80.86,56.67,80.9Z"/>
          <path class="cls-141" d="M47.27,81.24c-.13-.09-.45.17-.45-.25s.2-.37.47-.35.52,0,.52.31S47.51,81.25,47.27,81.24Z"/>
          <path class="cls-42" d="M62.15,80.51a.67.67,0,0,1-.78.75c-.17,0-.16-.12-.18-.21a4.11,4.11,0,0,1-.1-.69c0-.2-.31-.49.12-.59s.75,0,.88.44C62.12,80.32,62.14,80.44,62.15,80.51Z"/>
          <path class="cls-52" d="M54.29,80.69a1.43,1.43,0,0,1,.24.48c0,.09.14.23,0,.28a.59.59,0,0,1-.43,0c-.12,0,0-.19,0-.28Z"/>
          <path class="cls-53" d="M44.93,81.2c-.27,0-.41-.07-.36-.37s0-.38.28-.32.57,0,.55.38S45.14,81.19,44.93,81.2Z"/>
          <path class="cls-142" d="M51.76,81.29c-.3,0-.17-.26-.19-.42-.06-.39.27-.25.44-.27s.42.06.41.33S52.09,81.27,51.76,81.29Z"/>
        </g>
      </g>
    </g>
  </g>
  <path style="fill:url(#shine);" d="M99.7,64.1c-0.3,7.9-2,15.7-4.9,23.1c-2.8,7.1-6.9,13.6-12.1,19.2c-4,4.3-8.7,7.9-14,10.5c-4,2-8.3,3.3-12.7,4  c-1.1,0.2-2.3,0.3-3.4,0.3c-0.1,0-0.1,0-0.2,0.1h-0.2c-0.1-0.1-0.3,0-0.4,0s-0.3,0-0.5,0h-2.7c-0.2-0.1-0.3,0-0.5,0s-0.3,0-0.5,0  h-0.2c-0.3-0.1-0.6-0.2-0.9-0.1c-6.9-0.6-13.5-2.9-19.3-6.6c-6.8-4.3-12.5-10.1-16.7-17C6.2,91,3.2,83.7,1.6,76.1  c-0.8-4-1.4-8-1.6-12c0-0.1,0-0.3,0-0.4c0-0.2,0-0.4,0-0.6c0-0.2,0-0.5,0-0.8v-3.5c0-0.2,0-0.5,0-0.8c0-0.2,0-0.4,0-0.6  c0-0.1,0-0.3,0-0.4c0.3-5.6,1.2-11.2,2.7-16.7c2.1-7.4,5.5-14.3,10-20.5C17.3,13.7,23.2,8.5,30,4.9c4.1-2.2,8.6-3.7,13.3-4.5  c1.3-0.2,2.6-0.4,3.9-0.4c0.1,0,0.2,0,0.2-0.1h0.2c0.2,0.1,0.3,0,0.5,0s0.3,0,0.5,0h2.7c0.2,0.1,0.3,0,0.5,0s0.3,0,0.5,0h0.1  C52.6,0,53,0,53.4,0c8.8,0.8,17.2,4.2,24,9.9c6.2,5,11.2,11.3,14.8,18.3c2.7,5.3,4.7,10.9,6,16.7c0.6,2.9,1.1,5.8,1.3,8.8  c0.1,1.1,0.2,2.3,0.2,3.4c0,0.1,0,0.3,0,0.4c0,0.2,0,0.4,0,0.6c0,0.2,0,0.5,0,0.8v3.5c0,0.2,0,0.5,0,0.8c0,0.2,0,0.4,0,0.6  C99.7,63.8,99.7,63.9,99.7,64.1z"></path>
</svg>
