<?xml version="1.0" encoding="utf-8"?>
<!-- Generator: Adobe Illustrator 21.0.0, SVG Export Plug-In . SVG Version: 6.00 Build 0)  -->
<svg version="1.1" id="Layer_1" xmlns="http://www.w3.org/2000/svg" xmlns:xlink="http://www.w3.org/1999/xlink" x="0px" y="0px"
	 viewBox="0 0 640 640" style="enable-background:new 0 0 640 640;" xml:space="preserve">
<style type="text/css">
	.st0{fill:#4E4D4B;}
	.st1{fill:#F7FBFD;}
	.st2{fill:#F4FCFD;}
	.st3{fill:#E71D0A;}
	.st4{fill:#E51B09;}
	.st5{fill:#0AAB03;}
	.st6{fill:#FBD715;}
	.st7{fill:#E9790B;}
	.st8{fill:#E9CC0E;}
	.st9{fill:#4F4E4C;}
	.st10{fill:#555452;}
	.st11{fill:#111212;}
	.st12{fill:#131414;}
	.st13{fill:#EEF6F7;}
</style>
<g>
	<path class="st0" d="M69.7,441.7c0-1.9,0-3.8,0-5.8c0.5-0.1,0.5-0.5,0.6-0.9c1.3-6.6,4.8-11.8,10.3-15.6c1.1-0.8,1.5-1.7,1.7-2.9
		c0.4-3.5,0.9-7,1.6-10.4c6.8-32.7,24.2-58.6,51-78.3c2-1.5,2.8-2.9,2.8-5.5c0-38.7,0.1-77.4,0.1-116.1c0-6.9,0.8-13.7,2.2-20.5
		c5.8-27.9,20-50.9,40.4-70.4c20.7-19.8,45.2-33.2,72.2-42.3c0.7-0.2,1.6-0.2,2.1-1.1c-1.1-0.5-2.2-1-3.3-1.5
		c-14.7-6.8-28.1-15.4-40.5-25.9c-1.1-1-1.8-1.5-0.2-2.8c18.3-15.8,38.9-27.3,62-34.4c13.3-4.1,26.9-6.2,40.7-7.3
		c6.6,0,13.1,0,19.7,0c0.6,0.1,1.1,0.1,1.7,0.2c38,2.9,71.5,16.6,100.7,40.9c2.2,1.8,2.2,1.9,0,3.8c-11.4,9.8-23.9,17.9-37.5,24.5
		c-1.1,0.5-2.3,0.9-3.4,2c7.8,2.6,15.4,5.2,22.7,8.4c29.3,12.8,54.5,30.9,73.3,57.1c15.1,21.1,23.8,44.4,23.8,70.6
		c0,33.3,0.1,66.6,0.1,99.8c0,2.9,0.9,4.5,3.1,6.3c29.2,23,46.1,52.8,49.6,89.9c0.2,2.5,0.9,4.1,3.1,5.6c8.2,5.7,11.6,15.8,8.9,25
		c-2.9,9.9-12.9,17.6-24.3,16.9c-10.2-0.7-17.5-5.5-21.3-14.9c-3.6-9.1-1.7-17.5,5.2-24.5c1.8-1.8,2.5-3.4,2.2-6
		c-2-22.3-10.5-41.7-25.1-58.5c-0.3-0.4-0.5-1.1-1.4-0.7c0,0.8,0,1.7,0,2.6c0,19.6-0.1,39.2-0.1,58.8c0,14.1-2.9,27.6-7.9,40.7
		c-9.4,24.1-25,43.6-44.9,59.7c-19.7,16-41.9,27.1-66.1,34.7c-1.8,0.6-2.2,1-1.4,2.9c6.9,15.2-1.4,32.2-17.7,36.4
		c-1.5,0.4-2.9,0.7-4.4,1.1c-6-0.2-11.9-0.2-17.9,0c-4.7,0-9.3,0-14,0c-6.4-0.2-12.8-0.2-19.2,0c-4.6-0.2-9.3-0.2-13.9,0
		c-5.9-0.2-11.8-0.3-17.7,0c-0.7-0.1-1.4-0.2-2.1-0.2c-19.6-0.8-31.5-20.1-24.3-36.4c0.6-1.4,0.1-1.7-1.1-2.1
		c-8.9-2.6-17.7-5.6-26.2-9.2c-28.1-12.1-52.5-29.1-71.3-53.6c-17.2-22.4-26.8-47.6-26.8-76.2c0-14.6-0.1-29.1-0.1-43.7
		c0-0.8,0.3-1.7-0.3-2.5c-0.2,0.1-0.4,0.1-0.5,0.3c-15.6,16.1-25.1,35.1-28.2,57.3c-0.3,1.8,0.2,3.1,1.6,4.3
		c6.8,6.2,9.4,13.9,7.2,22.8c-2.6,10.8-12.4,17.9-23.8,17.7c-11.2-0.2-20.6-7.8-23-18.5C70.3,442.9,70.6,442,69.7,441.7z
		 M326.1,127.2C326.1,127.2,326.1,127.2,326.1,127.2c-18.2,0-36.3,0-54.5,0c-8.3,0-16.4,1.1-24.5,2.9c-14,3.2-27,8.5-38,18
		c-8.9,7.7-15,17.1-15,29.4c-0.1,21,0,42.1,0,63.1c0,6.4,1.7,12.3,5,17.8c5.2,8.5,12.6,14.7,21.1,19.5c16.6,9.3,34.6,13.1,53.4,13.1
		c34.9,0.1,69.8,0,104.6,0c9.7,0,19.3-1.1,28.7-3.5c14.2-3.5,27.3-9.2,38-19.4c8.6-8.1,13.2-17.9,13-30c-0.3-20.1-0.1-40.2-0.1-60.2
		c0-6.9-1.9-13.3-5.6-19c-5.6-8.8-13.6-15-22.7-19.8c-15.8-8.3-32.9-11.8-50.6-11.9C361.5,127.1,343.8,127.2,326.1,127.2z
		 M332,494.4c29.5,0,59,0,88.5,0c13.6,0,24.5-10.3,24.5-23.4c0.1-24.3,0-48.6,0-72.9c0-3.4-0.7-6.7-2.3-9.7
		c-4.8-9.3-12.7-13.7-23-13.7c-44.3,0-88.6,0-132.9,0c-14.3,0-28.6-0.1-42.9,0c-14.2,0.1-24.5,10.5-24.5,24.6c0,23.6,0,47.2,0,70.8
		c0,2.3,0.2,4.6,0.8,6.9c3,10.5,12.4,17.5,23.9,17.5C273.4,494.4,302.7,494.4,332,494.4z M214.5,332.8c-0.4-0.8-0.6-1.2-0.9-1.6
		c-2.1-3.8-5.5-5.7-9.7-5.4c-4.3,0.3-7.6,2.5-9.2,6.6c-1.6,4.2-0.5,7.8,2.8,10.8c5.2,4.6,10.3,9.3,15.5,13.9c1,0.9,1.7,1,2.8,0
		c5.1-4.7,10.4-9.2,15.5-13.9c3.5-3.1,4.4-7.8,2.5-11.8c-1.9-3.9-6.2-6.2-10.7-5.7C219,326.4,216.5,329,214.5,332.8z M479.7,354.9
		c7.4,0,13.2-5.5,13.3-12.6c0.1-7-5.8-12.9-13-12.9c-7.5,0-13.3,5.4-13.3,12.5C466.6,349.2,472.2,354.8,479.7,354.9z M408.5,354.9
		c7.4,0,13.2-5.6,13.3-12.9c0.1-6.7-6.1-12.7-13.3-12.7c-7.1,0-13.2,5.7-13.2,12.5C395.2,349.1,401.1,354.9,408.5,354.9z
		 M458.1,342.3c0-7.1-5.7-12.9-12.9-12.9c-7.4-0.1-13.4,5.7-13.4,12.8c0,7.1,5.9,12.8,13.1,12.8C452.3,355,458,349.4,458.1,342.3z"
		/>
	<path class="st1" d="M326.1,127.2c17.7,0,35.4-0.1,53,0c17.8,0.1,34.8,3.6,50.6,11.9c9.1,4.8,17.1,11,22.7,19.8
		c3.7,5.8,5.6,12.1,5.6,19c-0.1,20.1-0.3,40.2,0.1,60.2c0.2,12.2-4.4,21.9-13,30c-10.8,10.2-23.9,15.8-38,19.4
		c-9.4,2.4-19,3.5-28.7,3.5c-34.9,0-69.8,0.1-104.6,0c-18.8-0.1-36.9-3.8-53.4-13.1c-8.6-4.8-15.9-10.9-21.1-19.5
		c-3.3-5.5-5-11.4-5-17.8c0-21,0-42.1,0-63.1c0-12.3,6.1-21.6,15-29.4c11-9.5,24-14.8,38-18c8-1.9,16.2-2.9,24.5-2.9
		C289.8,127.2,308,127.2,326.1,127.2C326.1,127.2,326.1,127.2,326.1,127.2z M240.6,258c15.2,0,27.6-12,27.6-26.7
		c0-14.8-12.4-26.8-27.8-26.8c-15.2,0-27.4,12-27.4,26.9C213.1,246.2,225.4,258.1,240.6,258z M408.4,258c15.3,0,27.6-11.8,27.7-26.6
		c0.1-14.8-12.2-26.9-27.3-26.9c-15.4-0.1-27.8,11.8-27.8,26.7C381,246.1,393.2,258,408.4,258z M321.6,270.8
		c17.9,0.1,35.8-1.1,53.6-3.4c1.9-0.2,2.1-1,1.8-2.7c-0.2-1.6-0.7-2.1-2.4-1.8c-8.4,1.2-16.8,2.1-25.3,2.6
		c-24.7,1.7-49.4,0.9-74-1.7c-2.2-0.2-2.2,0.8-2.5,2.3c-0.3,1.7,0.4,2,1.9,2.2C290.3,269.8,305.9,270.9,321.6,270.8z"/>
	<path class="st2" d="M332,494.4c-29.3,0-58.5,0-87.8,0c-11.5,0-21-7-23.9-17.5c-0.6-2.3-0.8-4.5-0.8-6.9c0-23.6,0-47.2,0-70.8
		c0-14.1,10.3-24.5,24.5-24.6c14.3-0.1,28.6,0,42.9,0c44.3,0,88.6,0,132.9,0c10.3,0,18.2,4.4,23,13.7c1.6,3,2.3,6.3,2.3,9.7
		c0,24.3,0.1,48.6,0,72.9c0,13.1-10.9,23.4-24.5,23.4C391,494.5,361.5,494.4,332,494.4z M317.9,435.5c-0.2,0-0.4,0-0.6,0
		c-1.3-1.4-3.1-1-4.7-1c-4.5,0-6.3,1.8-6.3,6.2c0,2.2,0,4.3,0,6.5c0,2.1,2.5,4.6,4.5,4.6c4.6,0,9.1,0,13.7,0c1.9,0,4.5-2.5,4.5-4.4
		c0-2.8,0-5.6,0-8.4c0-0.6,0-1.2-0.4-1.8C326.4,434.2,321,433.3,317.9,435.5z M376.4,435.4c-0.5-0.1-0.9,1.4-1.4,0.1
		c-0.5-1.1-1.4-1.1-2.4-1.1c-1,0-1.9-0.1-2.9,0c-1.5,0.1-2.2-0.2-2.1-1.9c0.1-2.4,0.1-4.8,0-7.2c-0.1-1.4,0.3-1.9,1.8-1.9
		c2,0,4.2,0.9,5.9-1.1c0.1-0.1,0.5-0.1,0.6,0c1.8,2,4.2,0.9,6.3,1.2c1.3,0.2,2.8-0.4,2.7-1.6c0-1.2-1.4-1.6-2.8-1.6c-4,0.1-8,0-12,0
		c-4,0-5.9,1.9-5.9,6c0,2.3-0.3,4.7,0.1,6.9c0.4,2,0.4,3.6,0,5.6c-0.6,2.8-0.2,5.7-0.1,8.6c0,1.6,2.5,4.3,4.1,4.3
		c4.8,0.1,9.6,0,14.4,0c1.1,0,2.1-0.7,2.1-1.5c0-1.1-1-1.8-2.2-1.7c-2.3,0.3-4.8-1-6.8,1.2c-0.1,0.1-0.5,0.1-0.6,0
		c-1.7-2-4-1-6.1-1.2c-1.2-0.1-1.7-0.2-1.7-1.6c0.1-2.6,0.1-5.1,0-7.7c-0.1-1.4,0.4-1.7,1.8-1.8c2.1,0,4.5,0.7,6.2-1.3
		c0.1-0.1,0.5,0.2,0.8,0.4c1.4,1.1,6.5,1.4,7.8,0.5c1.1-0.8,1-1.5,0-2.2C383,434,377.7,434.4,376.4,435.4z M350.1,437.8
		c0.7-0.1,1-0.2,1.3-0.2c5.2-0.2,6.6-1.7,6.6-6.9c0-1.8,0-3.5,0-5.3c0-2.8-2.4-5.2-5.3-5.2c-3.8,0-7.5,0-11.3,0
		c-4.3,0-6.2,1.8-6.2,6.1c0,2.2,0,4.3,0,6.5c0,0.7-0.2,1.5,0.5,2c1,0.8,1,1.5,0,2.3c-0.6,0.4-0.5,1.1-0.5,1.8c0,2.8,0,5.6,0,8.4
		c0,1.3,0.5,2.5,1.7,2.5c1.2,0,1.7-1.2,1.6-2.5c-0.1-2.5,0.1-5-0.1-7.4c-0.2-2,0.6-2.4,2.4-2.3c1.5,0,3.3,0.7,4.6-0.5
		c1.7-1.5,2.6-0.1,2.5,1c-0.2,3.5,2.2,5.7,3.7,8.4c0.5,1,1.1,3,2.6,1.9c1-0.7,0.6-2.5-0.1-3.7c-0.2-0.4-0.5-0.8-0.8-1.2
		C352.4,441.6,351.3,439.9,350.1,437.8z M288.4,420.3c-1.7,0-3.4,0-5,0c-4.3,0-6.2,1.9-6.2,6.1c0,2.2-0.4,4.5,0.1,6.7
		c0.4,2,0.5,3.7,0,5.8c-0.6,2.7-0.2,5.6-0.1,8.4c0,1.7,2.5,4.5,4.2,4.5c4.8,0.1,9.6,0,14.4,0c1.1,0,2.1-0.7,2.1-1.5
		c0-1-1-1.8-2.2-1.7c-2.3,0.3-4.8-1-6.8,1.1c-0.1,0.1-0.5,0.2-0.6,0.1c-1.8-2.1-4.2-1-6.3-1.2c-1.1-0.1-1.6-0.3-1.5-1.5
		c0.1-2.2,0-4.5,0-6.7c0-1.5-0.1-2.8-1.1-4.2c-0.4-0.5,1.4-2.4,1.2-4.2c-0.2-2.1,0-4.2-0.1-6.2c-0.1-1.7,0.2-2.4,2.2-2.3
		c1.9,0.1,4,0.8,5.6-1.1c0.1-0.1,0.5-0.1,0.6,0c1.9,2.1,4.4,0.9,6.5,1.2c1.3,0.2,2.5-0.5,2.5-1.6c0-1.1-1.3-1.6-2.5-1.6
		C293,420.3,290.7,420.3,288.4,420.3z"/>
	<path class="st3" d="M372.3,583.4c-1.6,2.9-3.7,5.4-6.1,7.7c-11.3,11.1-22.6,22.1-33.9,33.2c-1,1-1.6,1-2.7,0
		c-11.6-11.4-23.2-22.7-34.7-34.1c-2.1-2-3.8-4.3-5.3-6.8c5.9-0.3,11.8-0.2,17.7,0c6,5.9,12.1,11.8,18.1,17.7c1.4,1.3,2.7,2.7,4.1,4
		c1.1,1,1.8,0.9,2.9-0.2c6.2-6.2,12.6-12.2,18.8-18.4c1.1-1,2.6-1.6,3.1-3.2C360.4,583.2,366.3,583.2,372.3,583.4z"/>
	<path class="st4" d="M214.5,332.8c2.1-3.8,4.6-6.4,8.7-6.9c4.5-0.5,8.8,1.7,10.7,5.7c1.9,4,1,8.6-2.5,11.8
		c-5.2,4.7-10.4,9.2-15.5,13.9c-1.1,1-1.8,0.9-2.8,0c-5.1-4.7-10.3-9.3-15.5-13.9c-3.4-3-4.4-6.7-2.8-10.8c1.5-4.1,4.9-6.4,9.2-6.6
		c4.2-0.3,7.6,1.6,9.7,5.4C213.8,331.6,214.1,332,214.5,332.8z"/>
	<path class="st5" d="M479.7,354.9c-7.5,0-13.1-5.6-13.1-13c0-7.1,5.9-12.5,13.3-12.5c7.2,0,13.1,5.8,13,12.9
		C492.9,349.3,487.1,354.9,479.7,354.9z"/>
	<path class="st4" d="M408.5,354.9c-7.4,0-13.2-5.8-13.2-13c0-6.8,6.1-12.5,13.2-12.5c7.2,0,13.4,5.9,13.3,12.7
		C421.7,349.3,415.9,354.9,408.5,354.9z"/>
	<path class="st6" d="M458.1,342.3c0,7.1-5.8,12.7-13.2,12.6c-7.3,0-13.1-5.7-13.1-12.8c0-7.1,6-12.8,13.4-12.8
		C452.4,329.4,458.1,335.2,458.1,342.3z"/>
	<path class="st7" d="M354.4,583.4c-0.5,1.6-2.1,2.1-3.1,3.2c-6.2,6.2-12.6,12.2-18.8,18.4c-1.1,1.1-1.9,1.2-2.9,0.2
		c-1.4-1.3-2.7-2.7-4.1-4c-6-5.9-12.1-11.8-18.1-17.7c4.6-0.2,9.3-0.2,13.9,0c2.6,2.7,5.2,5.4,7.9,8c0.7,0.7,1.7,1.6,2.7,0.6
		c2.9-2.8,5.7-5.7,8.6-8.6C345.1,583.4,349.7,583.4,354.4,583.4z"/>
	<path class="st8" d="M340.4,583.4c-2.8,2.9-5.7,5.8-8.6,8.6c-1,1-2,0.1-2.7-0.6c-2.7-2.6-5.3-5.3-7.9-8
		C327.6,583.2,334,583.2,340.4,583.4z"/>
	<path class="st9" d="M240.6,258c-15.3,0-27.5-11.8-27.6-26.7c-0.1-14.8,12.1-26.8,27.4-26.9c15.3,0,27.8,11.9,27.8,26.8
		C268.2,246,255.9,258,240.6,258z"/>
	<path class="st9" d="M408.4,258c-15.2,0-27.4-12-27.4-26.8c0-14.9,12.3-26.8,27.8-26.7c15.2,0.1,27.4,12.1,27.3,26.9
		C436,246.2,423.7,258.1,408.4,258z"/>
	<path class="st10" d="M321.6,270.8c-15.7,0-31.3-1-46.9-2.5c-1.5-0.1-2.2-0.5-1.9-2.2c0.3-1.5,0.3-2.5,2.5-2.3
		c24.6,2.6,49.3,3.3,74,1.7c8.5-0.6,16.9-1.4,25.3-2.6c1.7-0.3,2.2,0.2,2.4,1.8c0.2,1.6,0.1,2.4-1.8,2.7
		C357.4,269.7,339.5,270.9,321.6,270.8z"/>
	<path class="st11" d="M350.1,437.8c1.3,2.1,2.4,3.8,3.4,5.6c0.3,0.4,0.5,0.8,0.8,1.2c0.7,1.2,1.1,3.1,0.1,3.7
		c-1.5,1-2.1-0.9-2.6-1.9c-1.5-2.7-3.9-4.9-3.7-8.4c0.1-1.1-0.8-2.5-2.5-1c-1.3,1.2-3.1,0.5-4.6,0.5c-1.8,0-2.6,0.3-2.4,2.3
		c0.2,2.5,0,4.9,0.1,7.4c0,1.3-0.5,2.5-1.6,2.5c-1.1,0-1.7-1.2-1.7-2.5c0.1-2.8,0-5.6,0-8.4c0-0.6-0.1-1.3,0.5-1.8
		c1-0.8,1-1.5,0-2.3c-0.6-0.5-0.5-1.3-0.5-2c0-2.2,0-4.3,0-6.5c0-4.3,1.9-6.1,6.2-6.1c3.8,0,7.5,0,11.3,0c2.9,0,5.2,2.3,5.3,5.2
		c0,1.8,0,3.5,0,5.3c0,5.2-1.4,6.7-6.6,6.9C351.1,437.6,350.8,437.7,350.1,437.8z M354.8,429c-0.2-1.7,0.7-3.9-0.4-5.1
		c-1-1.2-3.2,0-4.8-0.5c-2-0.6-3.8-0.8-5.9,0c-1.5,0.5-3.8-0.6-4.8,0.4c-1.1,1.1-0.4,3.3-0.4,5.1c0,1.8-0.8,4.1,0.4,5.3
		c1,1,3.3-0.1,4.8,0.4c2,0.7,3.8,0.6,5.8,0c1.5-0.5,3.8,0.7,4.8-0.5C355.5,432.9,354.6,430.7,354.8,429z"/>
	<path class="st12" d="M376.4,436.6c-0.3-0.1-0.8-0.4-0.8-0.4c-1.7,2.1-4.1,1.3-6.2,1.3c-1.3,0-1.8,0.4-1.8,1.8
		c0.1,2.6,0.1,5.1,0,7.7c-0.1,1.3,0.5,1.5,1.7,1.6c2.1,0.1,4.4-0.8,6.1,1.2c0.1,0.1,0.5,0.1,0.6,0c2-2.1,4.5-0.9,6.8-1.2
		c1.1-0.1,2.2,0.6,2.2,1.7c0,0.9-1,1.5-2.1,1.5c-4.8,0-9.6,0-14.4,0c-1.6,0-4.1-2.7-4.1-4.3c0-2.9-0.4-5.8,0.1-8.6
		c0.4-2,0.4-3.7,0-5.6c-0.5-2.2-0.1-4.6-0.1-6.9c0-4,1.9-6,5.9-6c4,0,8,0,12,0c1.3,0,2.8,0.4,2.8,1.6c0,1.3-1.4,1.8-2.7,1.6
		c-2.1-0.3-4.5,0.8-6.3-1.2c-0.1-0.1-0.5-0.1-0.6,0c-1.7,2-3.9,1.1-5.9,1.1c-1.5,0-1.9,0.5-1.8,1.9c0.1,2.4,0.1,4.8,0,7.2
		c-0.1,1.7,0.6,2.1,2.1,1.9c1-0.1,1.9,0,2.9,0c1,0,2,0,2.4,1.1c0.6,1.3,0.9-0.2,1.4-0.1C376.4,435.8,376.4,436.2,376.4,436.6z"/>
	<path class="st12" d="M288.4,420.3c2.3,0,4.6,0,6.9,0c1.3,0,2.5,0.5,2.5,1.6c0,1.1-1.2,1.8-2.5,1.6c-2.2-0.3-4.7,0.9-6.5-1.2
		c-0.1-0.1-0.5-0.1-0.6,0c-1.6,1.9-3.7,1.2-5.6,1.1c-1.9-0.1-2.3,0.6-2.2,2.3c0.1,2.1-0.1,4.2,0.1,6.2c0.2,1.7-1.6,3.6-1.2,4.2
		c1,1.4,1.1,2.7,1.1,4.2c0,2.2,0.1,4.5,0,6.7c0,1.2,0.4,1.4,1.5,1.5c2.1,0.1,4.5-0.9,6.3,1.2c0.1,0.1,0.5,0.1,0.6-0.1
		c2-2.1,4.5-0.9,6.8-1.1c1.2-0.1,2.2,0.6,2.2,1.7c0,0.8-1,1.5-2.1,1.5c-4.8,0-9.6,0-14.4,0c-1.7,0-4.2-2.8-4.2-4.5
		c0-2.8-0.4-5.7,0.1-8.4c0.4-2.1,0.4-3.8,0-5.8c-0.5-2.1-0.1-4.5-0.1-6.7c0-4.2,1.9-6.1,6.2-6.1C285,420.3,286.7,420.3,288.4,420.3z
		"/>
	<path class="st11" d="M317.9,435.5c3.1-2.2,8.4-1.3,10.6,1.6c0.4,0.6,0.4,1.2,0.4,1.8c0,2.8,0,5.6,0,8.4c0,1.9-2.6,4.4-4.5,4.4
		c-4.6,0-9.1,0-13.7,0c-2.1,0-4.5-2.6-4.5-4.6c0-2.2,0-4.3,0-6.5c0-4.4,1.8-6.2,6.3-6.2c1.6,0,3.4-0.4,4.7,1
		c0.1,0.1,0.3,0.3,0.4,0.4C317.8,435.8,317.9,435.6,317.9,435.5z M309.7,443c0,1.7-0.7,4,0.2,5.1c0.9,1.2,3.4-0.1,4.9,0.5
		c2,0.9,3.7,0.6,5.7,0c1.5-0.5,3.8,0.7,4.8-0.4c1.1-1.2,0.2-3.3,0.4-5.1c0-0.1,0-0.2,0-0.2c-0.1-1.7,0.7-3.7-0.3-4.9
		c-1-1.2-3.2,0-4.8-0.5c-2-0.6-3.8-0.8-5.8,0c-1.5,0.5-3.8-0.6-4.8,0.4C308.9,439.1,309.8,441.3,309.7,443z"/>
	<path class="st11" d="M376.4,436.6c0-0.4,0-0.8,0-1.2c1.3-1.1,6.6-1.4,7.8-0.5c1,0.7,1.1,1.4,0,2.2
		C382.9,438,377.8,437.8,376.4,436.6z"/>
	<path class="st13" d="M317.9,435.5c-0.1,0.1-0.2,0.3-0.2,0.4c-0.1-0.1-0.3-0.3-0.4-0.4C317.5,435.5,317.7,435.5,317.9,435.5z"/>
	<path class="st13" d="M354.8,429c-0.2,1.7,0.7,3.9-0.4,5.1c-1,1.1-3.3,0-4.8,0.5c-2,0.6-3.8,0.7-5.8,0c-1.5-0.5-3.8,0.6-4.8-0.4
		c-1.2-1.2-0.4-3.5-0.4-5.3c0-1.7-0.8-3.9,0.4-5.1c1-1,3.3,0.1,4.8-0.4c2.1-0.7,3.8-0.6,5.9,0c1.5,0.5,3.8-0.7,4.8,0.5
		C355.4,425.1,354.6,427.2,354.8,429z"/>
	<path class="st13" d="M309.7,443c0-1.7-0.9-3.9,0.2-5.1c1-1.1,3.3,0.1,4.8-0.4c2-0.7,3.8-0.6,5.8,0c1.5,0.5,3.7-0.7,4.8,0.5
		c1,1.1,0.2,3.2,0.3,4.9c0,0.1,0,0.2,0,0.2c-0.1,1.7,0.7,3.9-0.4,5.1c-1,1.1-3.3-0.1-4.8,0.4c-2,0.6-3.6,0.9-5.7,0
		c-1.5-0.6-4,0.7-4.9-0.5C309.1,447,309.7,444.8,309.7,443z"/>
</g>
</svg>
