<?xml version="1.0" encoding="UTF-8" standalone="no"?>
<!-- Created with Keyshape -->
<svg xmlns="http://www.w3.org/2000/svg" id="Layer_1" viewBox="0 0 640 640" style="white-space: preserve-spaces;">
    <style>
@keyframes heart_f { 0% { fill: #b51907; } 12.5% { fill: #ff1500; } 25% { fill: #b51907; } 37.5% { fill: #ff1500; } 50% { fill: #b51907; } 62.5% { fill: #ff1500; } 75% { fill: #b51907; } 87.5% { fill: #ff1500; } 100% { fill: #b51907; } }
@keyframes bfire_t { 0% { transform: translate(0px,0px); } 50% { transform: translate(9.227px,0.039526px); } 100% { transform: translate(0px,0px); } }
@keyframes bfire_d { 0% { d: path('M372.3,583.468C370.7,587.404,368.6,590.797,366.2,593.919C354.9,608.985,343.6,623.916,332.3,638.982C331.3,640.339,330.7,640.339,329.6,638.982C318,623.509,306.4,608.171,294.9,592.697C292.8,589.983,291.1,586.861,289.6,583.468C295.5,583.06,301.4,583.196,307.3,583.468C313.3,591.476,319.4,599.484,325.4,607.492C326.8,609.257,328.1,611.157,329.5,612.921C330.6,614.279,331.3,614.143,332.4,612.65C338.6,604.235,345,596.091,351.2,587.675C352.3,586.318,353.8,585.504,354.3,583.332C360.4,583.196,366.3,583.196,372.3,583.468Z'); } 25% { d: path('M359.3,583.405C357.952,586.37,356.182,588.927,354.159,591.279C344.635,602.631,335.111,613.881,325.588,625.233C324.745,626.255,324.239,626.255,323.312,625.233C313.536,613.574,303.759,602.018,294.067,590.358C292.297,588.313,290.864,585.961,289.6,583.405C294.573,583.097,299.545,583.2,304.518,583.405C309.574,589.438,314.716,595.472,319.772,601.506C320.952,602.836,322.048,604.267,323.228,605.597C324.155,606.62,324.745,606.517,325.672,605.392C330.897,599.052,336.291,592.916,341.517,586.574C342.444,585.552,343.708,584.939,344.13,583.302C349.271,583.2,354.243,583.2,359.3,583.405Z'); } 50% { d: path('M359.3,583.437C357.952,586.887,356.182,589.862,354.159,592.599C344.635,605.808,335.111,618.898,325.588,632.108C324.745,633.297,324.239,633.297,323.312,632.108C313.536,618.541,303.759,605.095,294.067,591.527C292.297,589.148,290.864,586.411,289.6,583.437C294.573,583.078,299.545,583.198,304.518,583.437C309.574,590.457,314.716,597.478,319.772,604.499C320.952,606.047,322.048,607.712,323.228,609.259C324.155,610.45,324.745,610.33,325.672,609.021C330.897,601.644,336.291,594.504,341.517,587.124C342.444,585.935,343.708,585.222,344.13,583.317C349.271,583.198,354.243,583.198,359.3,583.437Z'); } 75% { d: path('M359.3,583.405C357.952,586.37,356.182,588.927,354.159,591.279C344.635,602.631,335.111,613.881,325.588,625.233C324.745,626.255,324.239,626.255,323.312,625.233C313.536,613.574,303.759,602.018,294.067,590.358C292.297,588.313,290.864,585.961,289.6,583.405C294.573,583.097,299.545,583.2,304.518,583.405C309.574,589.438,314.716,595.472,319.772,601.506C320.952,602.836,322.048,604.267,323.228,605.597C324.155,606.62,324.745,606.517,325.672,605.392C330.897,599.052,336.291,592.916,341.517,586.574C342.444,585.552,343.708,584.939,344.13,583.302C349.271,583.2,354.243,583.2,359.3,583.405Z'); } 100% { d: path('M372.3,583.468C370.7,587.404,368.6,590.797,366.2,593.919C354.9,608.985,343.6,623.916,332.3,638.982C331.3,640.339,330.7,640.339,329.6,638.982C318,623.509,306.4,608.171,294.9,592.697C292.8,589.983,291.1,586.861,289.6,583.468C295.5,583.06,301.4,583.196,307.3,583.468C313.3,591.476,319.4,599.484,325.4,607.492C326.8,609.257,328.1,611.157,329.5,612.921C330.6,614.279,331.3,614.143,332.4,612.65C338.6,604.235,345,596.091,351.2,587.675C352.3,586.318,353.8,585.504,354.3,583.332C360.4,583.196,366.3,583.196,372.3,583.468Z'); } }
@keyframes mfire_d { 0% { d: path('M358.2,583.427C357.66,585.878,355.93,586.645,354.849,588.33C348.148,597.831,341.231,607.025,334.529,616.525C333.34,618.211,332.476,618.364,331.395,616.832C329.882,614.84,328.477,612.695,326.963,610.702C320.478,601.662,313.885,592.621,307.4,583.58C312.372,583.273,317.452,583.273,322.424,583.58C325.234,587.717,328.044,591.855,330.963,595.839C331.719,596.911,332.8,598.29,333.881,596.758C337.015,592.467,340.042,588.024,343.176,583.58C348.148,583.427,353.12,583.427,358.2,583.427Z'); } 25% { d: path('M348.1,583.413C347.667,585.418,346.281,586.045,345.415,587.424C340.047,595.196,334.505,602.716,329.135,610.487C328.183,611.867,327.49,611.992,326.624,610.739C325.412,609.109,324.286,607.354,323.074,605.724C317.878,598.329,312.596,590.934,307.4,583.538C311.383,583.287,315.453,583.287,319.437,583.538C321.688,586.922,323.94,590.307,326.278,593.566C326.884,594.443,327.75,595.571,328.616,594.318C331.127,590.808,333.552,587.173,336.063,583.538C340.047,583.413,344.03,583.413,348.1,583.413Z'); } 50% { d: path('M363.386,583.413C362.79,585.418,360.884,586.045,359.693,587.424C352.308,595.196,344.685,602.716,337.298,610.487C335.989,611.867,335.035,611.992,333.844,610.739C332.177,609.109,330.628,607.354,328.961,605.724C321.813,598.329,314.548,590.934,307.4,583.538C312.879,583.287,318.478,583.287,323.958,583.538C327.054,586.922,330.152,590.307,333.368,593.566C334.202,594.443,335.393,595.571,336.584,594.318C340.038,590.808,343.374,587.173,346.828,583.538C352.308,583.413,357.787,583.413,363.386,583.413Z'); } 75% { d: path('M348.1,583.413C347.667,585.418,346.281,586.045,345.415,587.424C340.047,595.196,334.505,602.716,329.135,610.487C328.183,611.867,327.49,611.992,326.624,610.739C325.412,609.109,324.286,607.354,323.074,605.724C317.878,598.329,312.596,590.934,307.4,583.538C311.383,583.287,315.453,583.287,319.437,583.538C321.688,586.922,323.94,590.307,326.278,593.566C326.884,594.443,327.75,595.571,328.616,594.318C331.127,590.808,333.552,587.173,336.063,583.538C340.047,583.413,344.03,583.413,348.1,583.413Z'); } 100% { d: path('M358.2,583.427C357.66,585.878,355.93,586.645,354.849,588.33C348.148,597.831,341.231,607.025,334.529,616.525C333.34,618.211,332.476,618.364,331.395,616.832C329.882,614.84,328.477,612.695,326.963,610.702C320.478,601.662,313.885,592.621,307.4,583.58C312.372,583.273,317.452,583.273,322.424,583.58C325.234,587.717,328.044,591.855,330.963,595.839C331.719,596.911,332.8,598.29,333.881,596.758C337.015,592.467,340.042,588.024,343.176,583.58C348.148,583.427,353.12,583.427,358.2,583.427Z'); } }
@keyframes sfire_t { 0% { transform: translate(0px,0px); } 50% { transform: translate(6.944px,-0.000188px); } 100% { transform: translate(0px,0px); } }
@keyframes sfire_d { 0% { d: path('M350.1,583.533C345.885,589.012,341.52,594.49,337.155,599.78C335.65,601.669,334.145,599.969,333.091,598.646C329.027,593.735,325.114,588.634,321.2,583.533C330.833,583.156,340.467,583.156,350.1,583.533Z'); } 25% { d: path('M343.8,583.47C340.504,587.731,337.09,591.991,333.677,596.104C332.5,597.573,331.323,596.251,330.499,595.222C327.321,591.403,324.261,587.437,321.2,583.47C328.733,583.177,336.267,583.177,343.8,583.47Z'); } 50% { d: path('M343.8,583.597C340.032,590.312,336.128,597.026,332.226,603.508C330.881,605.823,329.535,603.74,328.593,602.118C324.96,596.099,321.461,589.849,317.961,583.597C326.574,583.135,335.188,583.135,343.8,583.597Z'); } 75% { d: path('M343.8,583.47C340.504,587.731,337.09,591.991,333.677,596.104C332.5,597.573,331.323,596.251,330.499,595.222C327.321,591.403,324.261,587.437,321.2,583.47C328.733,583.177,336.267,583.177,343.8,583.47Z'); } 100% { d: path('M350.1,583.533C345.885,589.012,341.52,594.49,337.155,599.78C335.65,601.669,334.145,599.969,333.091,598.646C329.027,593.735,325.114,588.634,321.2,583.533C330.833,583.156,340.467,583.156,350.1,583.533Z'); } }
    </style>
    <g transform="translate(4,0.00025)">
        <path class="st0" d="M69.7,441.7C69.7,439.8,69.7,437.9,69.7,435.9C70.2,435.8,70.2,435.4,70.3,435C71.6,428.4,75.1,423.2,80.6,419.4C81.7,418.6,82.1,417.7,82.3,416.5C82.7,413,83.2,409.5,83.9,406.1C90.7,373.4,108.1,347.5,134.9,327.8C136.9,326.3,137.7,324.9,137.7,322.3C137.7,283.6,137.8,244.9,137.8,206.2C137.8,199.3,138.6,192.5,140,185.7C145.8,157.8,160,134.8,180.4,115.3C201.1,95.5,225.6,82.1,252.6,73C253.3,72.8,254.2,72.8,254.7,71.9C253.6,71.4,252.5,70.9,251.4,70.4C236.7,63.6,223.3,55,210.9,44.5C209.8,43.5,209.1,43,210.7,41.7C229,25.9,249.6,14.4,272.7,7.3C286,3.2,299.6,1.1,313.4,0C320,0,326.5,0,333.1,0C333.7,0.1,334.2,0.1,334.8,0.2C372.8,3.1,406.3,16.8,435.5,41.1C437.7,42.9,437.7,43,435.5,44.9C424.1,54.7,411.6,62.8,398,69.4C396.9,69.9,395.7,70.3,394.6,71.4C402.4,74,410,76.6,417.3,79.8C446.6,92.6,471.8,110.7,490.6,136.9C505.7,158,514.4,181.3,514.4,207.5C514.4,240.8,514.5,274.1,514.5,307.3C514.5,310.2,515.4,311.8,517.6,313.6C546.8,336.6,563.7,366.4,567.2,403.5C567.4,406,568.1,407.6,570.3,409.1C578.5,414.8,581.9,424.9,579.2,434.1C576.3,444,566.3,451.7,554.9,451C544.7,450.3,537.4,445.5,533.6,436.1C530,427,531.9,418.6,538.8,411.6C540.6,409.8,541.3,408.2,541,405.6C539,383.3,530.5,363.9,515.9,347.1C515.6,346.7,515.4,346,514.5,346.4C514.5,347.2,514.5,348.1,514.5,349C514.5,368.6,514.4,388.2,514.4,407.8C514.4,421.9,511.5,435.4,506.5,448.5C497.1,472.6,481.5,492.1,461.6,508.2C441.9,524.2,419.7,535.3,395.5,542.9C393.7,543.5,393.3,543.9,394.1,545.8C401,561,392.7,578,376.4,582.2C374.9,582.6,373.5,582.9,372,583.3C366,583.1,360.1,583.1,354.1,583.3C349.4,583.3,344.8,583.3,340.1,583.3C333.7,583.1,327.3,583.1,320.9,583.3C316.3,583.1,311.6,583.1,307,583.3C301.1,583.1,295.2,583,289.3,583.3C288.6,583.2,287.9,583.1,287.2,583.1C267.6,582.3,255.7,563,262.9,546.7C263.5,545.3,263,545,261.8,544.6C252.9,542,244.1,539,235.6,535.4C207.5,523.3,183.1,506.3,164.3,481.8C147.1,459.4,137.5,434.2,137.5,405.6C137.5,391,137.4,376.5,137.4,361.9C137.4,361.1,137.7,360.2,137.1,359.4C136.9,359.5,136.7,359.5,136.6,359.7C121,375.8,111.5,394.8,108.4,417C108.1,418.8,108.6,420.1,110,421.3C116.8,427.5,119.4,435.2,117.2,444.1C114.6,454.9,104.8,462,93.4,461.8C82.2,461.6,72.8,454,70.4,443.3C70.3,442.9,70.6,442,69.7,441.7ZM326.1,127.2C326.1,127.2,326.1,127.2,326.1,127.2C307.9,127.2,289.8,127.2,271.6,127.2C263.3,127.2,255.2,128.3,247.1,130.1C233.1,133.3,220.1,138.6,209.1,148.1C200.2,155.8,194.1,165.2,194.1,177.5C194,198.5,194.1,219.6,194.1,240.6C194.1,247,195.8,252.9,199.1,258.4C204.3,266.9,211.7,273.1,220.2,277.9C236.8,287.2,254.8,291,273.6,291C308.5,291.1,343.4,291,378.2,291C387.9,291,397.5,289.9,406.9,287.5C421.1,284,434.2,278.3,444.9,268.1C453.5,260,458.1,250.2,457.9,238.1C457.6,218,457.8,197.9,457.8,177.9C457.8,171,455.9,164.6,452.2,158.9C446.6,150.1,438.6,143.9,429.5,139.1C413.7,130.8,396.6,127.3,378.9,127.2C361.5,127.1,343.8,127.2,326.1,127.2ZM332,494.4C361.5,494.4,391,494.4,420.5,494.4C434.1,494.4,445,484.1,445,471C445.1,446.7,445,422.4,445,398.1C445,394.7,444.3,391.4,442.7,388.4C437.9,379.1,430,374.7,419.7,374.7C375.4,374.7,331.1,374.7,286.8,374.7C272.5,374.7,258.2,374.6,243.9,374.7C229.7,374.8,219.4,385.2,219.4,399.3C219.4,422.9,219.4,446.5,219.4,470.1C219.4,472.4,219.6,474.7,220.2,477C223.2,487.5,232.6,494.5,244.1,494.5C273.4,494.4,302.7,494.4,332,494.4ZM214.5,332.8C214.1,332,213.9,331.6,213.6,331.2C211.5,327.4,208.1,325.5,203.9,325.8C199.6,326.1,196.3,328.3,194.7,332.4C193.1,336.6,194.2,340.2,197.5,343.2C202.7,347.8,207.8,352.5,213,357.1C214,358,214.7,358.1,215.8,357.1C220.9,352.4,226.2,347.9,231.3,343.2C234.8,340.1,235.7,335.4,233.8,331.4C231.9,327.5,227.6,325.2,223.1,325.7C219,326.4,216.5,329,214.5,332.8ZM479.7,354.9C487.1,354.9,492.9,349.4,493,342.3C493.1,335.3,487.2,329.4,480,329.4C472.5,329.4,466.7,334.8,466.7,341.9C466.6,349.2,472.2,354.8,479.7,354.9ZM408.5,354.9C415.9,354.9,421.7,349.3,421.8,342C421.9,335.3,415.7,329.3,408.5,329.3C401.4,329.3,395.3,335,395.3,341.8C395.2,349.1,401.1,354.9,408.5,354.9ZM458.1,342.3C458.1,335.2,452.4,329.4,445.2,329.4C437.8,329.3,431.8,335.1,431.8,342.2C431.8,349.3,437.7,355,444.9,355C452.3,355,458,349.4,458.1,342.3Z" fill="#4E4D4B"/>
        <path class="st1" d="M326.1,127.2C343.8,127.2,361.5,127.1,379.1,127.2C396.9,127.3,413.9,130.8,429.7,139.1C438.8,143.9,446.8,150.1,452.4,158.9C456.1,164.7,458,171,458,177.9C457.9,198,457.7,218.1,458.1,238.1C458.3,250.3,453.7,260,445.1,268.1C434.3,278.3,421.2,283.9,407.1,287.5C397.7,289.9,388.1,291,378.4,291C343.5,291,308.6,291.1,273.8,291C255,290.9,236.9,287.2,220.4,277.9C211.8,273.1,204.5,267,199.3,258.4C196,252.9,194.3,247,194.3,240.6C194.3,219.6,194.3,198.5,194.3,177.5C194.3,165.2,200.4,155.9,209.3,148.1C220.3,138.6,233.3,133.3,247.3,130.1C255.3,128.2,263.5,127.2,271.8,127.2C289.8,127.2,308,127.2,326.1,127.2C326.1,127.2,326.1,127.2,326.1,127.2ZM240.6,258C255.8,258,268.2,246,268.2,231.3C268.2,216.5,255.8,204.5,240.4,204.5C225.2,204.5,213,216.5,213,231.4C213.1,246.2,225.4,258.1,240.6,258ZM408.4,258C423.7,258,436,246.2,436.1,231.4C436.2,216.6,423.9,204.5,408.8,204.5C393.4,204.4,381,216.3,381,231.2C381,246.1,393.2,258,408.4,258ZM321.6,270.8C339.5,270.9,357.4,269.7,375.2,267.4C377.1,267.2,377.3,266.4,377,264.7C376.8,263.1,376.3,262.6,374.6,262.9C366.2,264.1,357.8,265,349.3,265.5C324.6,267.2,299.9,266.4,275.3,263.8C273.1,263.6,273.1,264.6,272.8,266.1C272.5,267.8,273.2,268.1,274.7,268.3C290.3,269.8,305.9,270.9,321.6,270.8Z" fill="#F7FBFD"/>
        <path class="st2" d="M332,494.4C302.7,494.4,273.5,494.4,244.2,494.4C232.7,494.4,223.2,487.4,220.3,476.9C219.7,474.6,219.5,472.4,219.5,470C219.5,446.4,219.5,422.8,219.5,399.2C219.5,385.1,229.8,374.7,244,374.6C258.3,374.5,272.6,374.6,286.9,374.6C331.2,374.6,375.5,374.6,419.8,374.6C430.1,374.6,438,379,442.8,388.3C444.4,391.3,445.1,394.6,445.1,398C445.1,422.3,445.2,446.6,445.1,470.9C445.1,484,434.2,494.3,420.6,494.3C391,494.5,361.5,494.4,332,494.4ZM317.9,435.5C317.7,435.5,317.5,435.5,317.3,435.5C316,434.1,314.2,434.5,312.6,434.5C308.1,434.5,306.3,436.3,306.3,440.7C306.3,442.9,306.3,445,306.3,447.2C306.3,449.3,308.8,451.8,310.8,451.8C315.4,451.8,319.9,451.8,324.5,451.8C326.4,451.8,329,449.3,329,447.4C329,444.6,329,441.8,329,439C329,438.4,329,437.8,328.6,437.2C326.4,434.2,321,433.3,317.9,435.5ZM376.4,435.4C375.9,435.3,375.5,436.8,375,435.5C374.5,434.4,373.6,434.4,372.6,434.4C371.6,434.4,370.7,434.3,369.7,434.4C368.2,434.5,367.5,434.2,367.6,432.5C367.7,430.1,367.7,427.7,367.6,425.3C367.5,423.9,367.9,423.4,369.4,423.4C371.4,423.4,373.6,424.3,375.3,422.3C375.4,422.2,375.8,422.2,375.9,422.3C377.7,424.3,380.1,423.2,382.2,423.5C383.5,423.7,385,423.1,384.9,421.9C384.9,420.7,383.5,420.3,382.1,420.3C378.1,420.4,374.1,420.3,370.1,420.3C366.1,420.3,364.2,422.2,364.2,426.3C364.2,428.6,363.9,431,364.3,433.2C364.7,435.2,364.7,436.8,364.3,438.8C363.7,441.6,364.1,444.5,364.2,447.4C364.2,449,366.7,451.7,368.3,451.7C373.1,451.8,377.9,451.7,382.7,451.7C383.8,451.7,384.8,451,384.8,450.2C384.8,449.1,383.8,448.4,382.6,448.5C380.3,448.8,377.8,447.5,375.8,449.7C375.7,449.8,375.3,449.8,375.2,449.7C373.5,447.7,371.2,448.7,369.1,448.5C367.9,448.4,367.4,448.3,367.4,446.9C367.5,444.3,367.5,441.8,367.4,439.2C367.3,437.8,367.8,437.5,369.2,437.4C371.3,437.4,373.7,438.1,375.4,436.1C375.5,436,375.9,436.3,376.2,436.5C377.6,437.6,382.7,437.9,384,437C385.1,436.2,385,435.5,384,434.8C383,434,377.7,434.4,376.4,435.4ZM350.1,437.8C350.8,437.7,351.1,437.6,351.4,437.6C356.6,437.4,358,435.9,358,430.7C358,428.9,358,427.2,358,425.4C358,422.6,355.6,420.2,352.7,420.2C348.9,420.2,345.2,420.2,341.4,420.2C337.1,420.2,335.2,422,335.2,426.3C335.2,428.5,335.2,430.6,335.2,432.8C335.2,433.5,335,434.3,335.7,434.8C336.7,435.6,336.7,436.3,335.7,437.1C335.1,437.5,335.2,438.2,335.2,438.9C335.2,441.7,335.2,444.5,335.2,447.3C335.2,448.6,335.7,449.8,336.9,449.8C338.1,449.8,338.6,448.6,338.5,447.3C338.4,444.8,338.6,442.3,338.4,439.9C338.2,437.9,339,437.5,340.8,437.6C342.3,437.6,344.1,438.3,345.4,437.1C347.1,435.6,348,437,347.9,438.1C347.7,441.6,350.1,443.8,351.6,446.5C352.1,447.5,352.7,449.5,354.2,448.4C355.2,447.7,354.8,445.9,354.1,444.7C353.9,444.3,353.6,443.9,353.3,443.5C352.4,441.6,351.3,439.9,350.1,437.8ZM288.4,420.3C286.7,420.3,285,420.3,283.4,420.3C279.1,420.3,277.2,422.2,277.2,426.4C277.2,428.6,276.8,430.9,277.3,433.1C277.7,435.1,277.8,436.8,277.3,438.9C276.7,441.6,277.1,444.5,277.2,447.3C277.2,449,279.7,451.8,281.4,451.8C286.2,451.9,291,451.8,295.8,451.8C296.9,451.8,297.9,451.1,297.9,450.3C297.9,449.3,296.9,448.5,295.7,448.6C293.4,448.9,290.9,447.6,288.9,449.7C288.8,449.8,288.4,449.9,288.3,449.8C286.5,447.7,284.1,448.8,282,448.6C280.9,448.5,280.4,448.3,280.5,447.1C280.6,444.9,280.5,442.6,280.5,440.4C280.5,438.9,280.4,437.6,279.4,436.2C279,435.7,280.8,433.8,280.6,432C280.4,429.9,280.6,427.8,280.5,425.8C280.4,424.1,280.7,423.4,282.7,423.5C284.6,423.6,286.7,424.3,288.3,422.4C288.4,422.3,288.8,422.3,288.9,422.4C290.8,424.5,293.3,423.3,295.4,423.6C296.7,423.8,297.9,423.1,297.9,422C297.9,420.9,296.6,420.4,295.4,420.4C293,420.3,290.7,420.3,288.4,420.3Z" fill="#F4FCFD"/>
        <path id="heart" class="st4" d="M214.5,332.8C216.6,329,219.1,326.4,223.2,325.9C227.7,325.4,232,327.6,233.9,331.6C235.8,335.6,234.9,340.2,231.4,343.4C226.2,348.1,221,352.6,215.9,357.3C214.8,358.3,214.1,358.2,213.1,357.3C208,352.6,202.8,348,197.6,343.4C194.2,340.4,193.2,336.7,194.8,332.6C196.3,328.5,199.7,326.2,204,326C208.2,325.7,211.6,327.6,213.7,331.4C213.8,331.6,214.1,332,214.5,332.8Z" fill="#b51907" style="animation: 4s linear infinite both heart_f;"/>
        <path class="st5" d="M479.7,354.9C472.2,354.9,466.6,349.3,466.6,341.9C466.6,334.8,472.5,329.4,479.9,329.4C487.1,329.4,493,335.2,492.9,342.3C492.9,349.3,487.1,354.9,479.7,354.9Z" fill="#0AAB03"/>
        <path class="st4" d="M408.5,354.9C401.1,354.9,395.3,349.1,395.3,341.9C395.3,335.1,401.4,329.4,408.5,329.4C415.7,329.4,421.9,335.3,421.8,342.1C421.7,349.3,415.9,354.9,408.5,354.9Z" fill="#E51B09"/>
        <path class="st6" d="M458.1,342.3C458.1,349.4,452.3,355,444.9,354.9C437.6,354.9,431.8,349.2,431.8,342.1C431.8,335,437.8,329.3,445.2,329.3C452.4,329.4,458.1,335.2,458.1,342.3Z" fill="#FBD715"/>
        <path id="bfire" class="st3" d="M372.3,583.468C370.7,587.404,368.6,590.797,366.2,593.919C354.9,608.985,343.6,623.916,332.3,638.982C331.3,640.339,330.7,640.339,329.6,638.982C318,623.509,306.4,608.171,294.9,592.697C292.8,589.983,291.1,586.861,289.6,583.468C295.5,583.06,301.4,583.196,307.3,583.468C313.3,591.476,319.4,599.484,325.4,607.492C326.8,609.257,328.1,611.157,329.5,612.921C330.6,614.279,331.3,614.143,332.4,612.65C338.6,604.235,345,596.091,351.2,587.675C352.3,586.318,353.8,585.504,354.3,583.332C360.4,583.196,366.3,583.196,372.3,583.468Z" fill="#E71D0A" style="animation: 4s linear infinite both bfire_t, 4s linear infinite both bfire_d;"/>
        <path id="mfire" class="st7" d="M358.2,583.427C357.66,585.878,355.93,586.645,354.849,588.33C348.148,597.831,341.231,607.025,334.529,616.525C333.34,618.211,332.476,618.364,331.395,616.832C329.882,614.84,328.477,612.695,326.963,610.702C320.478,601.662,313.885,592.621,307.4,583.58C312.372,583.273,317.452,583.273,322.424,583.58C325.234,587.717,328.044,591.855,330.963,595.839C331.719,596.911,332.8,598.29,333.881,596.758C337.015,592.467,340.042,588.024,343.176,583.58C348.148,583.427,353.12,583.427,358.2,583.427Z" fill="#E9790B" style="animation: 4s linear infinite both mfire_d;"/>
        <path id="sfire" class="st8" d="M350.1,583.533C345.885,589.012,341.52,594.49,337.155,599.78C335.65,601.669,334.145,599.969,333.091,598.646C329.027,593.735,325.114,588.634,321.2,583.533C330.833,583.156,340.467,583.156,350.1,583.533Z" fill="#E9CC0E" style="animation: 4s linear infinite both sfire_t, 4s linear infinite both sfire_d;"/>
        <path class="st9" d="M240.6,258C225.3,258,213.1,246.2,213,231.3C212.9,216.5,225.1,204.5,240.4,204.4C255.7,204.4,268.2,216.3,268.2,231.2C268.2,246,255.9,258,240.6,258Z" fill="#4F4E4C"/>
        <path class="st9" d="M408.4,258C393.2,258,381,246,381,231.2C381,216.3,393.3,204.4,408.8,204.5C424,204.6,436.2,216.6,436.1,231.4C436,246.2,423.7,258.1,408.4,258Z" fill="#4F4E4C"/>
        <path class="st10" d="M321.6,270.8C305.9,270.8,290.3,269.8,274.7,268.3C273.2,268.2,272.5,267.8,272.8,266.1C273.1,264.6,273.1,263.6,275.3,263.8C299.9,266.4,324.6,267.1,349.3,265.5C357.8,264.9,366.2,264.1,374.6,262.9C376.3,262.6,376.8,263.1,377,264.7C377.2,266.3,377.1,267.1,375.2,267.4C357.4,269.7,339.5,270.9,321.6,270.8Z" fill="#555452"/>
        <path class="st11" d="M350.1,437.8C351.4,439.9,352.5,441.6,353.5,443.4C353.8,443.8,354,444.2,354.3,444.6C355,445.8,355.4,447.7,354.4,448.3C352.9,449.3,352.3,447.4,351.8,446.4C350.3,443.7,347.9,441.5,348.1,438C348.2,436.9,347.3,435.5,345.6,437C344.3,438.2,342.5,437.5,341,437.5C339.2,437.5,338.4,437.8,338.6,439.8C338.8,442.3,338.6,444.7,338.7,447.2C338.7,448.5,338.2,449.7,337.1,449.7C336,449.7,335.4,448.5,335.4,447.2C335.5,444.4,335.4,441.6,335.4,438.8C335.4,438.2,335.3,437.5,335.9,437C336.9,436.2,336.9,435.5,335.9,434.7C335.3,434.2,335.4,433.4,335.4,432.7C335.4,430.5,335.4,428.4,335.4,426.2C335.4,421.9,337.3,420.1,341.6,420.1C345.4,420.1,349.1,420.1,352.9,420.1C355.8,420.1,358.1,422.4,358.2,425.3C358.2,427.1,358.2,428.8,358.2,430.6C358.2,435.8,356.8,437.3,351.6,437.5C351.1,437.6,350.8,437.7,350.1,437.8ZM354.8,429C354.6,427.3,355.5,425.1,354.4,423.9C353.4,422.7,351.2,423.9,349.6,423.4C347.6,422.8,345.8,422.6,343.7,423.4C342.2,423.9,339.9,422.8,338.9,423.8C337.8,424.9,338.5,427.1,338.5,428.9C338.5,430.7,337.7,433,338.9,434.2C339.9,435.2,342.2,434.1,343.7,434.6C345.7,435.3,347.5,435.2,349.5,434.6C351,434.1,353.3,435.3,354.3,434.1C355.5,432.9,354.6,430.7,354.8,429Z" fill="#111212"/>
        <path class="st12" d="M376.4,436.6C376.1,436.5,375.6,436.2,375.6,436.2C373.9,438.3,371.5,437.5,369.4,437.5C368.1,437.5,367.6,437.9,367.6,439.3C367.7,441.9,367.7,444.4,367.6,447C367.5,448.3,368.1,448.5,369.3,448.6C371.4,448.7,373.7,447.8,375.4,449.8C375.5,449.9,375.9,449.9,376,449.8C378,447.7,380.5,448.9,382.8,448.6C383.9,448.5,385,449.2,385,450.3C385,451.2,384,451.8,382.9,451.8C378.1,451.8,373.3,451.8,368.5,451.8C366.9,451.8,364.4,449.1,364.4,447.5C364.4,444.6,364,441.7,364.5,438.9C364.9,436.9,364.9,435.2,364.5,433.3C364,431.1,364.4,428.7,364.4,426.4C364.4,422.4,366.3,420.4,370.3,420.4C374.3,420.4,378.3,420.4,382.3,420.4C383.6,420.4,385.1,420.8,385.1,422C385.1,423.3,383.7,423.8,382.4,423.6C380.3,423.3,377.9,424.4,376.1,422.4C376,422.3,375.6,422.3,375.5,422.4C373.8,424.4,371.6,423.5,369.6,423.5C368.1,423.5,367.7,424,367.8,425.4C367.9,427.8,367.9,430.2,367.8,432.6C367.7,434.3,368.4,434.7,369.9,434.5C370.9,434.4,371.8,434.5,372.8,434.5C373.8,434.5,374.8,434.5,375.2,435.6C375.8,436.9,376.1,435.4,376.6,435.5C376.4,435.8,376.4,436.2,376.4,436.6Z" fill="#131414"/>
        <path class="st12" d="M288.4,420.3C290.7,420.3,293,420.3,295.3,420.3C296.6,420.3,297.8,420.8,297.8,421.9C297.8,423,296.6,423.7,295.3,423.5C293.1,423.2,290.6,424.4,288.8,422.3C288.7,422.2,288.3,422.2,288.2,422.3C286.6,424.2,284.5,423.5,282.6,423.4C280.7,423.3,280.3,424,280.4,425.7C280.5,427.8,280.3,429.9,280.5,431.9C280.7,433.6,278.9,435.5,279.3,436.1C280.3,437.5,280.4,438.8,280.4,440.3C280.4,442.5,280.5,444.8,280.4,447C280.4,448.2,280.8,448.4,281.9,448.5C284,448.6,286.4,447.6,288.2,449.7C288.3,449.8,288.7,449.8,288.8,449.6C290.8,447.5,293.3,448.7,295.6,448.5C296.8,448.4,297.8,449.1,297.8,450.2C297.8,451,296.8,451.7,295.7,451.7C290.9,451.7,286.1,451.7,281.3,451.7C279.6,451.7,277.1,448.9,277.1,447.2C277.1,444.4,276.7,441.5,277.2,438.8C277.6,436.7,277.6,435,277.2,433C276.7,430.9,277.1,428.5,277.1,426.3C277.1,422.1,279,420.2,283.3,420.2C285,420.3,286.7,420.3,288.4,420.3Z" fill="#131414"/>
        <path class="st11" d="M317.9,435.5C321,433.3,326.3,434.2,328.5,437.1C328.9,437.7,328.9,438.3,328.9,438.9C328.9,441.7,328.9,444.5,328.9,447.3C328.9,449.2,326.3,451.7,324.4,451.7C319.8,451.7,315.3,451.7,310.7,451.7C308.6,451.7,306.2,449.1,306.2,447.1C306.2,444.9,306.2,442.8,306.2,440.6C306.2,436.2,308,434.4,312.5,434.4C314.1,434.4,315.9,434,317.2,435.4C317.3,435.5,317.5,435.7,317.6,435.8C317.8,435.8,317.9,435.6,317.9,435.5ZM309.7,443C309.7,444.7,309,447,309.9,448.1C310.8,449.3,313.3,448,314.8,448.6C316.8,449.5,318.5,449.2,320.5,448.6C322,448.1,324.3,449.3,325.3,448.2C326.4,447,325.5,444.9,325.7,443.1C325.7,443,325.7,442.9,325.7,442.9C325.6,441.2,326.4,439.2,325.4,438C324.4,436.8,322.2,438,320.6,437.5C318.6,436.9,316.8,436.7,314.8,437.5C313.3,438,311,436.9,310,437.9C308.9,439.1,309.8,441.3,309.7,443Z" fill="#111212"/>
        <path class="st11" d="M376.4,436.6C376.4,436.2,376.4,435.8,376.4,435.4C377.7,434.3,383,434,384.2,434.9C385.2,435.6,385.3,436.3,384.2,437.1C382.9,438,377.8,437.8,376.4,436.6Z" fill="#111212"/>
        <path class="st13" d="M317.9,435.5C317.8,435.6,317.7,435.8,317.7,435.9C317.6,435.8,317.4,435.6,317.3,435.5C317.5,435.5,317.7,435.5,317.9,435.5Z" fill="#EEF6F7"/>
        <path class="st13" d="M354.8,429C354.6,430.7,355.5,432.9,354.4,434.1C353.4,435.2,351.1,434.1,349.6,434.6C347.6,435.2,345.8,435.3,343.8,434.6C342.3,434.1,340,435.2,339,434.2C337.8,433,338.6,430.7,338.6,428.9C338.6,427.2,337.8,425,339,423.8C340,422.8,342.3,423.9,343.8,423.4C345.9,422.7,347.6,422.8,349.7,423.4C351.2,423.9,353.5,422.7,354.5,423.9C355.4,425.1,354.6,427.2,354.8,429Z" fill="#EEF6F7"/>
        <path class="st13" d="M309.7,443C309.7,441.3,308.8,439.1,309.9,437.9C310.9,436.8,313.2,438,314.7,437.5C316.7,436.8,318.5,436.9,320.5,437.5C322,438,324.2,436.8,325.3,438C326.3,439.1,325.5,441.2,325.6,442.9C325.6,443,325.6,443.1,325.6,443.1C325.5,444.8,326.3,447,325.2,448.2C324.2,449.3,321.9,448.1,320.4,448.6C318.4,449.2,316.8,449.5,314.7,448.6C313.2,448,310.7,449.3,309.8,448.1C309.1,447,309.7,444.8,309.7,443Z" fill="#EEF6F7"/>
    </g>
</svg>
