<svg xmlns="http://www.w3.org/2000/svg" viewBox="0 0 400.12 500.53">
  <defs>
    <style>
      .cls-1 {
        fill: #fff;
      }

      .nhslogo {
        width: 65%;
        align-content: center;
      }

      .nhs-flame {
        fill: rgb(224, 139, 39);
        animation-name: skew;
        animation-duration: 3s;
        animation-iteration-count: infinite;
        animation-direction: alternate;
      }

      @keyframes skew {
        from {
          transform: skew(0deg, 0deg);
          fill: rgb(224, 139, 39);
        }

        to {
          transform: skew(2deg, 1deg);
          fill: rgb(255, 142, 8)
        }
      }
    </style>
  </defs>
  <title>NHSlogo</title>
  <g id="Layer_2" data-name="Layer 2">
    <g id="Layer_1-2" data-name="Layer 1">
      <g>
        <path
          d="M197.78,500.53a15.8,15.8,0,0,0-2.22-1c-14-4-18.24-17.93-9-29a8.15,8.15,0,0,0,1.63-5.24c-.45-7.3-1.58-14.57-1.83-21.87-.15-4.17-1.88-4.8-5.49-4.79-31.5.11-63,.07-94.49.07H79.73L0,59.41H71.78L41.47,0H360.18L329.26,57.46h70.86L322.83,438.61H212.68c-1.07,9.75-2.17,19.11-3,28.49-.1,1.09.85,2.44,1.63,3.41,9,11.09,5.11,24.56-8.4,28.89a12.91,12.91,0,0,0-2.1,1.12ZM17.49,73.13c.45,2.6.67,4.23,1,5.84Q55.29,248.38,92,417.81c.8,3.71,2.23,4.73,5.89,4.71,27.33-.15,54.65-.08,82-.1,1.42,0,2.83-.19,4.45-.31l-15-164.4h61.54L214.39,421.92a20.24,20.24,0,0,0,2.88.48c29.83,0,59.65,0,89.48.08,2.76,0,3.74-1.06,4.23-3.63,1.86-9.65,3.92-19.26,5.9-28.88q29.68-144.61,59.36-289.22c1.9-9.24,3.74-18.5,5.75-28.47h-76.3L335.1,14.46H65l31.1,58.67H17.49Z" />
        <path class="cls-1"
          d="M17.49,73.13H96.07L65,14.46H335.1L305.68,72.29H382c-2,10-3.86,19.22-5.75,28.47Q346.56,245.37,316.87,390c-2,9.63-4,19.23-5.9,28.88-.49,2.56-1.47,3.63-4.23,3.63-29.83-.09-59.65-.06-89.48-.08a20.24,20.24,0,0,1-2.88-.48l16.47-164.21H169.32l15,164.4c-1.61.12-3,.31-4.45.31-27.33,0-54.65-.05-82,.1-3.66,0-5.09-1-5.89-4.71Q55.37,248.37,18.51,79C18.16,77.36,17.94,75.73,17.49,73.13ZM169.8,186.74c-2.79-15.59,8.07-33,24.84-39.18,1.65-.61,3.81-2.48,4-4,1.11-8.63-2.26-15.45-10.12-21.29,2.95,12.45-3.95,19.64-11.4,26.57-1.22,1.13-2.45,2.26-3.63,3.43-23.39,23.23-18.44,54.9,10.24,73,6.63,4.18,15.28,3,21.51-2.13,6-4.86,9-13,7.27-18.16-2.68,1.23-5.31,3.19-8.16,3.6-6.37.93-10.19,4.44-12.55,10.08-.47,1.13-1.06,2.2-1.85,3.83-1.57-8.42,2-16.56,9.78-19.81,6.17-2.58,13-3.73,19.69-4.82,6.45-1.06,12.29-3,17-7.62,7.55-7.38,8.54-18.95,2.16-26.77-2.39,9.45-10,11.8-18,14.3-6.09,1.91-11.82,5-17.67,7.64a11.77,11.77,0,0,0-2.25,2c-.76.64-1.56,1.22-2.34,1.83L197,187.7c3.95-3.83,7.6-8,11.94-11.36,3.52-2.69,7.93-4.19,11.85-6.39,7.77-4.36,13.15-10.75,15.33-19.46,1.74-7,.79-13.45-4.64-19.18-.14,9.33-3.8,13.66-12.72,15.4-6.7,1.31-13.47,2.29-20.09,3.92-11,2.72-19,9.61-23.72,19.81C172.5,175.77,171.35,181.7,169.8,186.74Zm-53.56,154.7-10.73,16.48-6.91-36.54,12.14,11.52,8.51-9.56L76.6,275.59l-1,.54L99.52,395.91,126,350.55Zm186.33,56.22h1.11L316.82,329h-24l17.09-19.67v10.37c8.82,1.37,8.83,1.37,10.39-6.58q1.87-9.56,3.72-19.12t3.67-19.06l-1-.34L271,337.88l.75,1.2H303.1l-4.76,26.24c-3.12-4.42-4.82-8.79-8-10.76-3-1.87-7.61-1.24-12.79-1.85ZM111,411h57.36l-3.87-38.29-18.65-1c1.66-4.71,2-10,4.7-12.11s7.91-1,12.76-1.28l-1-14.2c-5.7,0-11-.22-16.26.16-1.29.09-2.87,2-3.59,3.38-4.64,9.22-9.08,18.53-13.57,27.82-.89,1.85-1.72,3.72-2.91,6.31h28.05v19.58h-22.3l2.85-10.29c-4-.36-7.6-.79-11.21-.93a3.53,3.53,0,0,0-2.79,1.32C117.25,397.79,114.22,404.22,111,411Zm137.17-10.74V344.1c-3.83,0-7.12.12-10.4,0-3-.14-3.51,1.45-3.55,4-.16,11.49-.55,23-.7,34.45-.12,9.61,0,19.23,0,29.11h56.82c-3.48-6.92-6.63-13.3-9.91-19.6a3.26,3.26,0,0,0-2.28-1.54c-3.71-.16-7.43-.07-11.72-.07l4,9.83Zm-1.34-165.52H154c4.21,5.56,7.78,10.56,11.71,15.25,1,1.14,3.15,1.75,4.78,1.76q30,.17,59.93,0c1.5,0,3.53-.51,4.39-1.55C238.86,245.4,242.54,240.31,246.78,234.74Zm-21.44-176c6.16,4.13,5.16,13.71,14.31,14.87,0-7.77.08-14.72-.09-21.67,0-.9-1.33-1.78-2-2.66-.63.94-1.72,1.85-1.79,2.83-.23,3.22-.09,6.47-.09,9.71l-1.22.34c-1.69-2.93-3.54-5.78-5-8.81-1.77-3.65-4.09-5.42-8.5-3.37,0,6.76-.09,13.56.1,20.34,0,1,1.38,2,2.11,3,.74-1,2-2,2.12-3.12C225.51,66.6,225.34,63,225.34,58.7Zm-96.17,15c0-7.61.09-14.38-.09-21.15,0-1.11-1.21-2.2-1.86-3.29-.68,1.09-1.85,2.13-1.94,3.27-.27,3.12-.09,6.29-.09,9.84-6.13-3.84-4.48-14.58-15-12.89,0,7.07-.09,13.85.09,20.62,0,1.1,1.3,2.17,2,3.25.78-1.14,2.14-2.23,2.23-3.42.29-3.81.11-7.65.11-11.73C120.81,62.39,119.69,72.17,129.17,73.69Zm42.22,25.08,1.29-.27c.75-3,2.28-6,2-8.87-.19-1.78-3-4.37-4.91-4.67-4.46-.7-9.11-.22-13.76-.22V108.5h4.89l.56-8.75c5.35-1.87,5.5,2.33,6.38,5C169,108.45,171,109.84,175,108ZM65.86,93.69H58c0-2.28.35-4.32-.13-6.15-.3-1.16-1.83-2-2.8-3-.86.94-2.44,1.85-2.47,2.82-.23,6.15-.25,12.32,0,18.46,0,1,1.84,2,2.83,2.93.85-.94,2.26-1.78,2.44-2.84A41.68,41.68,0,0,0,58,99h7.81l.62,9.51h4.94v-24l-5.05.33Zm62.91,2.77c-.06,7.43,4.24,12.66,10.41,12.65s10.3-4.87,10.45-12.12c.16-7.55-3.89-12.62-10.17-12.71C132.93,84.18,128.83,88.85,128.77,96.46Zm98.31-12.19c-6.54,0-10.59,4.74-10.58,12.3s4.33,12.62,10.54,12.54,10.43-5.28,10.33-12.76C237.28,89.06,233.17,84.24,227.08,84.27ZM204.64,73.76c6.34,0,10.51-5.06,10.42-12.59s-4.22-12.35-10.72-12.24c-6,.1-10.26,5.16-10.31,12.28S198.48,73.78,204.64,73.76ZM77.41,96.44c0,7.64,4.08,12.68,10.31,12.67s10.41-5,10.38-12.62c0-7.41-3.94-12.16-10.09-12.22C81.39,84.21,77.43,88.75,77.41,96.44Zm133.8-6.13c-3.72-6.13-10-8.06-14.29-4.82-1.84,1.41-3.61,4.38-3.46,6.52s2.44,4.42,4.38,5.86c1.61,1.2,4.15,1.07,6.12,1.89.88.36,2.09,1.85,1.91,2.41-.33,1-1.62,2.42-2.49,2.41-1.86,0-3.69-.91-5.55-1.37s-3.46-.72-6-1.25c3.73,7.65,13.08,9.27,17.77,4.32,3.68-3.88,2.66-9.32-2.3-11.47-2.11-.91-4.52-1.14-6.65-2-.84-.35-1.9-1.75-1.77-2.48a3.19,3.19,0,0,1,2.39-1.94c1.37-.06,2.75.76,4.15,1.05C207,89.78,208.66,89.94,211.21,90.31ZM104.36,84.59c0,7.61-.06,14.71.08,21.81,0,.78,1.19,1.54,1.82,2.31.6-.79,1.68-1.57,1.71-2.39.18-4.18.08-8.37.08-13,6.34,4.4,5.53,14.15,14.83,15.91,0-7.92.09-14.71-.1-21.5,0-1.05-1.36-2.07-2.09-3.1-.69,1.06-1.88,2.08-2,3.19-.27,3.12-.1,6.29-.1,9.77C112.89,93.78,114.43,83.87,104.36,84.59ZM266.53,72.88c-2.31-7.34-4.35-14.34-6.81-21.2-.42-1.18-2.57-2.3-4-2.4a4.51,4.51,0,0,0-3.67,2.15c-2.52,7-4.68,14.11-6.94,21.14C250,75.31,249.78,70.41,252,68c2.53.7,6.58.65,7.58,2.37C261.36,73.47,263.09,73.78,266.53,72.88ZM154.35,74.19l1.54-1.62c-2.25-7.12-4.4-14.27-6.86-21.32-.34-1-2.2-2-3.35-2-1.38,0-3.64.77-4,1.76-2.6,7.13-4.82,14.4-7.16,21.63L136,73.83c1.29-1.1,2.84-2,3.81-3.34,1.93-2.66,7.7-2.61,9.69-.06C150.69,72,152.69,73,154.35,74.19ZM287.64,88.94c2.61,0,4.64.27,6.55-.08,1.64-.3,3.16-1.31,4.73-2-1.49-.78-3-1.61-4.49-2.32a3.86,3.86,0,0,0-1.48,0c-11.19,0-11.19,0-11.19,11.25,0,14,0,14,13.86,13.05.17,0,.38.06.49,0,.95-.64,1.87-1.3,2.81-2-.95-.8-1.83-2.18-2.85-2.3a71.55,71.55,0,0,0-8.39-.11V98.67a27.85,27.85,0,0,0,5.16-.31,16.7,16.7,0,0,0,3.71-2c-1.19-.72-2.31-1.75-3.6-2.07a28.57,28.57,0,0,0-5.31-.35Zm-25,3.7c-1.64-6.85-5.08-9.19-11.6-8.29-5.81.81-9.07,5.83-8.79,13.52.23,6.22,4.17,10.71,9.83,11.19s9.34-2.42,10.66-9.84c-2.63,1.5-4.27,2.53-6,3.38-1.52.75-4.12,2.24-4.55,1.79-1.63-1.7-3.31-4-3.59-6.2-.43-3.43-1.18-7.76,3.24-9.41,1.19-.45,4.2,1,4.69,2.19C258,94.56,260,93.8,262.68,92.64Zm75.11,15.87c-2.56-9.42,2.74-16.11,6.68-23.63-7.28-1.41-5.83,6-9.41,8-3.39-2.34-2.49-10.57-10.5-7.73,3.6,7.45,9.28,14.14,6.93,23.36Zm-23.31-19a10.39,10.39,0,0,0,2.6-.47c1.22-.68,2.35-1.52,3.51-2.3-1.2-.73-2.31-1.84-3.61-2.11a16.51,16.51,0,0,0-5.46,0c-2.9.39-7.83.41-8.25,1.74-1.31,4.15,3.3,1.87,5,3.12l1,.67v18.4h5.22ZM171.13,72.79V54a8.66,8.66,0,0,0,2.5-.35c1.3-.73,2.51-1.64,3.75-2.47-1.24-.7-2.44-1.91-3.72-2-3.63-.27-7.3,0-11-.11-3.27-.06-4.19,1.3-2.86,4.35l5.9.61c0,5.16.14,10.1,0,15C165.57,72.52,166.51,74.25,171.13,72.79Zm100.71.58c4.37,0,8.48.13,12.57-.1.89-.05,1.7-1.41,2.55-2.17-.81-.78-1.55-2.09-2.46-2.22a56.16,56.16,0,0,0-7.51-.11V49.41h-5.15Zm-2.61,35.08h5V84.51l-5,.38ZM188,48.27c-2.29,1.31-5,2.1-5.05,3-.35,7.22-.2,14.47-.2,21.85H188Z" />
        <path class="nhs-flame"
          d="M169.8,186.74c1.55-5,2.71-11,5.16-16.31,4.69-10.2,12.68-17.09,23.72-19.81,6.62-1.63,13.39-2.61,20.09-3.92,8.92-1.75,12.58-6.07,12.72-15.4,5.44,5.74,6.39,12.23,4.64,19.18-2.18,8.71-7.55,15.1-15.33,19.46-3.92,2.2-8.33,3.7-11.85,6.39-4.34,3.31-8,7.53-11.94,11.36l1.29,1.5c.78-.61,1.59-1.19,2.34-1.83a11.77,11.77,0,0,1,2.25-2c5.85-2.65,11.58-5.73,17.67-7.64,8-2.5,15.62-4.85,18-14.3,6.38,7.83,5.39,19.39-2.16,26.77-4.72,4.61-10.56,6.56-17,7.62-6.66,1.1-13.52,2.25-19.69,4.82-7.79,3.25-11.35,11.39-9.78,19.81.79-1.63,1.38-2.7,1.85-3.83,2.36-5.64,6.18-9.15,12.55-10.08,2.85-.42,5.48-2.37,8.16-3.6,1.68,5.12-1.32,13.3-7.27,18.16-6.23,5.08-14.87,6.31-21.51,2.13-28.68-18.09-33.64-49.77-10.24-73,1.18-1.17,2.41-2.3,3.63-3.43,7.45-6.93,14.35-14.13,11.4-26.57,7.86,5.84,11.24,12.66,10.12,21.29-.19,1.51-2.35,3.38-4,4C177.87,153.72,167,171.15,169.8,186.74Z" />
        <path
          d="M116.24,341.44l9.76,9.11L99.52,395.91,75.58,276.13l1-.54,42.65,47.75-8.51,9.56L98.59,321.38l6.91,36.54Z" />
        <path
          d="M302.57,397.66l-25-45c5.18.62,9.76,0,12.79,1.85,3.18,2,4.88,6.34,8,10.76l4.76-26.24H271.75l-.75-1.2,55.72-63.27,1,.34Q325.87,284.47,324,294t-3.72,19.12c-1.56,8-1.57,7.95-10.39,6.58V309.33L292.84,329h24l-13.14,68.65Z" />
        <path
          d="M111,411c3.27-6.78,6.29-13.21,9.51-19.54a3.53,3.53,0,0,1,2.79-1.32c3.61.14,7.2.57,11.21.93l-2.85,10.29h22.3V381.78H125.88c1.19-2.58,2-4.46,2.91-6.31,4.49-9.29,8.93-18.6,13.57-27.82.71-1.42,2.29-3.29,3.59-3.38,5.26-.38,10.57-.16,16.26-.16l1,14.2c-4.85.33-10-.81-12.76,1.28s-3,7.4-4.7,12.11l18.65,1L168.32,411Z" />
        <path
          d="M248.12,400.26h22.21l-4-9.83c4.28,0,8-.09,11.72.07a3.26,3.26,0,0,1,2.28,1.54c3.28,6.3,6.44,12.68,9.91,19.6H233.45c0-9.88-.1-19.49,0-29.11.15-11.49.54-23,.7-34.45,0-2.57.51-4.17,3.55-4,3.28.15,6.57,0,10.4,0Z" />
        <path
          d="M246.78,234.74c-4.25,5.58-7.92,10.66-11.93,15.47-.86,1-2.89,1.54-4.39,1.55q-30,.15-59.93,0c-1.63,0-3.82-.62-4.78-1.76-3.94-4.69-7.5-9.69-11.71-15.25Z" />
        <path
          d="M225.34,58.7c0,4.25.17,7.9-.1,11.51-.08,1.09-1.38,2.08-2.12,3.12-.74-1-2.08-2-2.11-3-.19-6.79-.1-13.58-.1-20.34,4.41-2.05,6.72-.28,8.5,3.37,1.47,3,3.33,5.88,5,8.81l1.22-.34c0-3.24-.14-6.49.09-9.71.07-1,1.16-1.89,1.79-2.83.71.89,2,1.76,2,2.66.17,6.95.09,13.9.09,21.67C230.5,72.42,231.5,62.83,225.34,58.7Z" />
        <path
          d="M129.17,73.69c-9.48-1.53-8.35-11.3-14.52-15.51,0,4.07.18,7.92-.11,11.73-.09,1.19-1.45,2.28-2.23,3.42-.7-1.08-2-2.15-2-3.25-.19-6.77-.09-13.56-.09-20.62,10.49-1.69,8.85,9,15,12.89,0-3.55-.18-6.71.09-9.84.1-1.14,1.27-2.18,1.94-3.27.65,1.1,1.83,2.18,1.86,3.29C129.26,59.31,129.17,66.08,129.17,73.69Z" />
        <path
          d="M171.38,98.77,175,108c-4.09,1.81-6,.43-7.24-3.31-.88-2.64-1-6.85-6.38-5l-.56,8.75H156V84.74c4.65,0,9.3-.47,13.76.22,1.93.3,4.72,2.88,4.91,4.67.31,2.85-1.22,5.91-2,8.87Zm-9.92-2.93A68.06,68.06,0,0,0,169,93.17c.4-.19.32-2.84-.09-3A65.21,65.21,0,0,0,161.47,88Z" />
        <path
          d="M65.86,93.69l.41-8.82,5.05-.33v24H66.38L65.76,99H58a41.68,41.68,0,0,1-.12,6.94c-.18,1.06-1.59,1.9-2.44,2.84-1-1-2.78-1.91-2.83-2.93-.27-6.15-.24-12.31,0-18.46,0-1,1.61-1.88,2.47-2.82,1,1,2.5,1.83,2.8,3,.47,1.83.13,3.87.13,6.15Z" />
        <path
          d="M128.77,96.46c.06-7.61,4.16-12.28,10.7-12.18,6.28.09,10.33,5.16,10.17,12.71-.16,7.25-4.35,12.11-10.45,12.12S128.71,103.89,128.77,96.46Zm5.68,0c.12,1.27-.16,2.67.41,3.51a42.84,42.84,0,0,0,4.23,4.73c1.49-1.47,3.69-2.69,4.3-4.47a12,12,0,0,0,0-7.24c-.59-1.77-2.62-3.83-4.32-4.17-1.1-.22-3,2.29-4.09,3.89C134.35,93.67,134.6,95.25,134.46,96.45Z" />
        <path
          d="M227.08,84.27c6.09,0,10.2,4.79,10.3,12.08.1,7.48-4.11,12.68-10.33,12.76s-10.52-5.05-10.54-12.54S220.54,84.3,227.08,84.27Zm4.58,12.89c-.19-1.81.11-3.56-.59-4.66-1-1.59-2.83-3.79-4.19-3.72s-3.65,2.26-4.06,3.9a17.39,17.39,0,0,0,.1,8.26c.38,1.48,2.51,3.41,3.92,3.47s3.08-1.84,4.06-3.28C231.65,100,231.47,98.31,231.66,97.16Z" />
        <path
          d="M204.64,73.76c-6.16,0-10.67-5.31-10.61-12.56S198.33,49,204.33,48.92c6.51-.11,10.64,4.61,10.72,12.24S211,73.74,204.64,73.76Zm-4.87-13c.21,1.81,0,3.25.56,4.06,1.24,1.68,2.76,3.8,4.52,4.21,1,.24,3.64-2.36,3.92-4a26.19,26.19,0,0,0-.45-9.25c-.19-1-2.13-2.36-3.25-2.33a5.37,5.37,0,0,0-4,2.15C200.15,57.29,200.09,59.45,199.77,60.8Z" />
        <path
          d="M77.41,96.44c0-7.69,4-12.23,10.6-12.17,6.14.06,10.06,4.81,10.09,12.22,0,7.63-4.07,12.61-10.38,12.62S77.39,104.08,77.41,96.44Zm15.08.95c-.12-1.77.24-3.37-.39-4.34a32.84,32.84,0,0,0-4.33-4.59C86.31,90,84,91.31,83.59,93.06a19.27,19.27,0,0,0,.44,8.71c.33,1.24,2.57,2.62,4,2.71,1.15.08,2.81-1.48,3.53-2.73S92.27,98.58,92.49,97.39Z" />
        <path
          d="M211.21,90.31c-2.55-.37-4.19-.53-5.8-.87-1.41-.29-2.79-1.11-4.15-1.05a3.19,3.19,0,0,0-2.39,1.94c-.13.72.92,2.13,1.77,2.48,2.13.88,4.54,1.11,6.65,2,5,2.15,6,7.59,2.3,11.47-4.69,4.95-14,3.32-17.77-4.32,2.56.53,4.3.84,6,1.25s3.69,1.33,5.55,1.37c.87,0,2.16-1.39,2.49-2.41.19-.57-1-2-1.91-2.41-2-.82-4.51-.7-6.12-1.89-1.94-1.44-4.24-3.78-4.38-5.86s1.62-5.11,3.46-6.52C201.18,82.25,207.49,84.18,211.21,90.31Z" />
        <path
          d="M104.36,84.59c10.07-.71,8.53,9.2,14.27,13,0-3.49-.18-6.65.1-9.77.1-1.11,1.29-2.13,2-3.19.73,1,2.06,2.05,2.09,3.1.19,6.79.1,13.58.1,21.5-9.3-1.76-8.49-11.51-14.83-15.91,0,4.65.09,8.84-.08,13,0,.82-1.11,1.59-1.71,2.39-.63-.77-1.81-1.53-1.82-2.31C104.3,99.3,104.36,92.19,104.36,84.59Z" />
        <path
          d="M266.53,72.88c-3.44.9-5.16.59-7-2.5-1-1.72-5.05-1.66-7.58-2.37-2.19,2.4-1.94,7.3-6.87,4.56,2.26-7,4.42-14.15,6.94-21.14a4.51,4.51,0,0,1,3.67-2.15c1.43.1,3.57,1.22,4,2.4C262.18,58.53,264.22,65.53,266.53,72.88Zm-11.27-17.8-2.79,8.71H258Z" />
        <path
          d="M154.35,74.19c-1.65-1.23-3.65-2.19-4.88-3.76-2-2.55-7.76-2.6-9.69.06-1,1.33-2.52,2.24-3.81,3.34l-1.45-1.18c2.34-7.23,4.56-14.5,7.16-21.63.36-1,2.62-1.75,4-1.76,1.15,0,3,1,3.35,2,2.46,7,4.61,14.2,6.86,21.32Zm-9.18-17.48-1.09.06L142,63.84h5.4Z" />
        <path
          d="M287.64,88.94v5a28.57,28.57,0,0,1,5.31.35c1.29.32,2.41,1.35,3.6,2.07a16.7,16.7,0,0,1-3.71,2,27.85,27.85,0,0,1-5.16.31v5.75a71.55,71.55,0,0,1,8.39.11c1,.12,1.91,1.5,2.85,2.3-.93.66-1.86,1.32-2.81,2-.12.08-.33,0-.49,0-13.86,1-13.86,1-13.86-13.05,0-11.28,0-11.28,11.19-11.25a3.86,3.86,0,0,1,1.48,0c1.53.71,3,1.54,4.49,2.32-1.57.7-3.09,1.71-4.73,2C292.28,89.21,290.25,88.94,287.64,88.94Z" />
        <path
          d="M262.68,92.64C260,93.8,258,94.56,256.56,91c-.49-1.23-3.49-2.64-4.69-2.19-4.42,1.66-3.67,6-3.24,9.41.28,2.23,2,4.5,3.59,6.2.43.45,3-1,4.55-1.79,1.73-.85,3.36-1.89,6-3.38-1.32,7.42-5,10.32-10.66,9.84s-9.6-5-9.83-11.19c-.28-7.7,3-12.72,8.79-13.52C257.6,83.45,261,85.79,262.68,92.64Z" />
        <path
          d="M337.78,108.51h-6.29c2.35-9.22-3.33-15.91-6.93-23.36,8-2.84,7.11,5.38,10.5,7.73,3.58-2,2.13-9.4,9.41-8C340.53,92.4,335.22,99.09,337.78,108.51Z" />
        <path
          d="M314.47,89.48v19h-5.22V90.08l-1-.67c-1.68-1.26-6.3,1-5-3.12.42-1.33,5.35-1.35,8.25-1.74a16.51,16.51,0,0,1,5.46,0c1.29.27,2.41,1.37,3.61,2.11-1.17.78-2.29,1.62-3.51,2.3A10.39,10.39,0,0,1,314.47,89.48Z" />
        <path
          d="M171.13,72.79c-4.61,1.45-5.55-.27-5.43-3.7.18-4.94,0-9.88,0-15l-5.9-.61c-1.33-3.06-.41-4.41,2.86-4.35,3.65.07,7.32-.17,11,.11,1.28.1,2.48,1.31,3.72,2-1.24.84-2.45,1.75-3.75,2.47a8.66,8.66,0,0,1-2.5.35Z" />
        <path
          d="M271.83,73.38v-24H277V68.77a56.16,56.16,0,0,1,7.51.11c.91.13,1.64,1.45,2.46,2.22-.85.76-1.66,2.12-2.55,2.17C280.31,73.51,276.21,73.38,271.83,73.38Z" />
        <path d="M269.22,108.45V84.88l5-.38v23.94Z" />
        <path d="M188,48.27V73.13h-5.25c0-7.38-.16-14.63.2-21.85C183,50.36,185.75,49.58,188,48.27Z" />
        <path class="cls-1"
          d="M161.47,95.84V88a65.21,65.21,0,0,1,7.44,2.18c.41.17.49,2.82.09,3A68.06,68.06,0,0,1,161.47,95.84Z" />
        <path class="cls-1"
          d="M134.46,96.45c.14-1.2-.11-2.78.55-3.75,1.08-1.6,3-4.11,4.09-3.89,1.7.34,3.73,2.4,4.32,4.17a12,12,0,0,1,0,7.24c-.61,1.77-2.81,3-4.3,4.47a42.84,42.84,0,0,1-4.23-4.73C134.3,99.12,134.57,97.71,134.46,96.45Z" />
        <path class="cls-1"
          d="M231.66,97.16c-.19,1.15,0,2.87-.76,4-1,1.44-2.73,3.34-4.06,3.28s-3.55-2-3.92-3.47a17.39,17.39,0,0,1-.1-8.26c.41-1.63,2.58-3.82,4.06-3.9s3.17,2.14,4.19,3.72C231.78,93.6,231.48,95.35,231.66,97.16Z" />
        <path class="cls-1"
          d="M199.77,60.8c.31-1.35.38-3.51,1.34-5.13a5.37,5.37,0,0,1,4-2.15c1.12,0,3.06,1.33,3.25,2.33a26.19,26.19,0,0,1,.45,9.25c-.28,1.6-2.91,4.2-3.92,4-1.76-.41-3.27-2.53-4.52-4.21C199.73,64,200,62.6,199.77,60.8Z" />
        <path class="cls-1"
          d="M92.49,97.39c-.22,1.19-.15,3-.92,4.35s-2.38,2.81-3.53,2.73c-1.45-.1-3.69-1.47-4-2.71a19.27,19.27,0,0,1-.44-8.71c.38-1.75,2.72-3.07,4.18-4.59a32.84,32.84,0,0,1,4.33,4.59C92.73,94,92.37,95.63,92.49,97.39Z" />
        <path class="cls-1" d="M255.26,55.08,258,63.79h-5.48Z" />
        <path class="cls-1" d="M145.17,56.72l2.26,7.12H142l2.05-7.06Z" />
      </g>
    </g>
  </g>
</svg>